<?xml version="1.0" encoding="UTF-8"?>
<svg id="Layer_1" xmlns="http://www.w3.org/2000/svg" viewBox="0 0 145.0545 131.1501">
  <defs>
    <style>
      .cls-1 {
        fill: #141814;
      }

      .cls-2 {
        fill: #b0d359;
      }

      .cls-3 {
        fill: #b8d433;
      }

      .cls-4 {
        fill: #809e8f;
      }
    </style>
  </defs>
  <path class="cls-1" d="M105.5733,38.9238c2.0976-2.7054,3.9269-4.4743,5.0242-6.6181,1.6564-3.2362,2.2801-6.3699-1.4984-9.1784-4.0307-2.9959-6.4126-7.3031-5.9757-12.5242.1511-1.8059.9626-4.5741,2.1811-5.0368,1.8709-.7105,4.7589-.4948,6.505.5337,6.2388,3.6749,8.4539,10.4495,6.457,17.9247,5.1541-2.1628,5.7329-3.106,5.021-8.1805-.9879-7.0418,1.3977-12.4645,6.5959-14.7964,3.7066-1.6628,7.8187-1.5255,9.9619,1.7177,1.3714,2.0753,1.0759,6.0041.1577,8.6212-.8553,2.4379-3.2979,4.5154-5.4389,6.2658-4.7702,3.8999-9.7884,7.4965-14.7056,11.2167.1944.4276.3889.8551.5833,1.2827,1.6167-.4755,3.3501-.72,4.8292-1.4676,5.6706-2.866,11.3447-2.7872,16.4944.6904,1.8062,1.2197,3.2342,4.1491,3.2886,6.3364.028,1.1217-3.2137,2.8967-5.2181,3.3804-4.4039,1.0627-8.4667-.0459-12.0923-3.0471-4.6138-3.8192-11.5786-3.0088-15.3454,1.4139-2.0157,2.3666-4.1833,4.6037-5.8585,7.6879,1.2173-.5121,2.5396-.8605,3.6347-1.5631,6.7144-4.3084,13.8027-4.1035,20.4125-.5436,2.5958,1.3981,5.2466,5.1137,5.4545,7.9511.3022,4.1224-4.3678,5.1434-7.4259,4.7626-5.6146-.6992-11.761-1.4398-16.45-4.2356-6.8092-4.06-12.7353-2.9942-16.8685,3.6206,2.6198-.2144,4.8309-.4659,7.0488-.5638,7.0852-.313,13.7491,4.0563,15.1118,9.8472,1.515,6.4381-1.7319,9.8882-8.4012,8.9014-.9807-.1451-1.9435-.4116-3.24-.6925-.4355,2.1011-.8893,4.1044-1.2622,6.1226-1.4228,7.702-4.0912,10.0991-11.7356,9.7743-16.5979-.7053-33.1857-1.646-49.7828-2.3725-4.889-.2141-9.7954-.033-14.6938-.033-.1214.4915-.2428.983-.3642,1.4745,1.6057,2.0502,3.2114,4.1003,4.3396,5.5408,5.3962-1.1276,10.2142-2.1434,15.0385-3.1283.4793-.0978.9985-.0313,1.4966-.0002,5.4088.3383,11.3277,4.9293,11.3552,8.7993.0234,3.2902-5.5677,6.8852-11.2868,6.988-5.3462.0961-10.1625-1.4444-13.9406-5.5981-.2883,4.4126,2.3278,7.5664,6.3333,7.7458,1.3309.0596,2.6684.132,3.9966.0678,9.8453-.4754,15.2123,4.8445,18.0798,13.6715,1.8205,5.6039-.2764,8.9124-6.2719,9.3986-9.0357.7327-16.2248-4.4475-19.1516-13.4439-1.0738-3.3007-2.7948-6.3908-5.3414-9.1936,0,2.5213.3057,5.0919-.0903,7.5494-.3601,2.2347-.9278,4.9146-2.413,6.3656-1.7727,1.7319-5.952,3.8765-6.7414,3.1803-2.0733-1.8282-4.2644-5.2926-3.9244-7.7632,1.1256-8.1784,3.2822-16.2213,5.1787-24.2843.8182-3.4781-1.1442-6.0869-4.6405-5.7745-2.9853.2667-5.9656.6682-8.9565.7757-6.9306.2489-10.8478-3.5724-11.0316-10.5797-.1826-6.9597,3.4579-10.6842,10.5373-10.8916,17.1374-.502,34.2745-1.0171,51.4102-1.5762,5.331-.1739,10.9837.4946,15.8745-1.1037,3.488-1.1399,6.0136-5.3668,8.7074-8.4447.1628-.1861-1.7654-2.7258-3.0949-3.6031-5.6291-3.7148-9.3056-8.6023-9.3152-15.5065-.0026-1.881,1.0068-5.0501,2.1664-5.3651,2.1019-.5709,5.0371-.0616,6.9663,1.0947,5.6186,3.3675,6.6842,9.4478,7.9387,15.2715.1942.9014.1979,1.8437,1.5568,3.3972,2.7184-3.8773,5.4368-7.7547,8.4507-12.0535-6.9384-2.1246-10.6002-6.1783-11.9156-11.7016-.5747-2.4135.1621-6.4379,1.8563-7.802,2.8519-2.2964,6.7801-.9325,8.6462,2.2012,2.0751,3.4847,3.2542,7.5214,4.6592,11.3776.5438,1.4924.6375,3.1488,1.1225,5.7164ZM57.3918,123.6929c-.2715-1.4732-.5429-2.9465-.8144-4.4197-3.2116-5.7767-6.8823-7.2256-13.9467-5.5048,1.4214,8.3399,6.9337,13.175,14.0232,12.1911.8082-.1122,1.5332-.8242,2.2967-1.2581l-1.5589-1.0085ZM88.0793,70.9394c-8.1654,0-16.0841.0504-24.0017-.0232-3.4874-.0324-4.9901,1.9359-4.638,4.9684.2632,2.2672,1.4227,6.2848,2.3498,6.3332,9.1448.4781,18.3245.289,27.672.289-.4204-3.5181-.8097-6.7766-1.3821-11.5674ZM27.4376,80.7742c9.7563.5225,18.6703.9999,27.6132,1.4789v-11.0504c-7.994,0-16.2316-.1101-24.4588.1336-1.079.032-2.7709,1.7395-3.0132,2.9119-.4786,2.3163-.1412,4.8012-.1412,6.526ZM22.6042,82.3664v-10.9094c-4.3872,0-8.3394-.067-12.2881.0197-3.5987.079-6.3179,3.2853-5.7854,6.9324.5571,3.8152,2.7188,5.9133,6.7977,5.417,3.5943-.4373,7.1821-.9275,11.2758-1.4598ZM97.6304,60.5314c5.4451,2.936,8.3029,9.1454,15.4558,7.951-.3651-7.8565-6.7061-11.3809-15.4558-7.951ZM114.0131,47.111c5.5283,4.6093,11.1926,4.5261,17.5889,3.2143-4.3007-5.4914-10.7697-6.629-17.5889-3.2143ZM54.8197,98.5252c-4.7323-4.93-9.0555-5.2931-15.503-1.5817,4.3014,4.761,9.2683,5.334,15.503,1.5817ZM98.7515,68.9503c-6.4769,3.6078-7.2888,8.5747-2.1615,13.223,3.9478-2.594,4.8474-8.0972,2.1615-13.223ZM127.8024,14.9896c5.7268-.5466,7.9572-4.1111,9.4905-8.6463-6.5674-2.8398-9.5862-.1179-9.4905,8.6463ZM87.322,48.5299c-1.2822-6.0555-2.649-11.2859-8.9474-13.6434-.0333,6.8215,3.1577,11.7676,8.9474,13.6434ZM113.5241,20.1941c.6425-.4083,1.285-.8165,1.9275-1.2248-2.0476-3.1828-4.0952-6.3655-6.1428-9.5483-.5081.3206-1.0162.6411-1.5243.9617.423,4.1423,1.3685,7.9789,5.7395,9.8114ZM24.9649,121.0498c4.6094-4.3795,4.7533-7.647,0-12.3689v12.3689ZM95.0065,64.7643c-1.5305-2.1388-2.9466-4.4913-3.1765-4.3806-2.1311,1.0262-4.0577,2.477-6.0437,3.8044.2058.3918.4117.7835.6175,1.1753,2.3877-.1663,4.7753-.3326,8.6026-.5992ZM138.9434,35.1163c.212-.8629.4239-1.7259.6359-2.5888-2.8625-.5857-5.725-1.1713-8.5875-1.757-.177.7852-.354,1.5704-.531,2.3556,2.8275.6634,5.6551,1.3268,8.4826,1.9902Z"/>
  <path class="cls-4" d="M88.0793,70.9394c.5724,4.7908.9617,8.0493,1.3821,11.5674-9.3475,0-18.5272.1891-27.672-.289-.9271-.0485-2.0866-4.066-2.3498-6.3332-.3521-3.0325,1.1506-5.0009,4.638-4.9684,7.9176.0736,15.8362.0232,24.0017.0232Z"/>
  <path class="cls-4" d="M27.4376,80.7742c0-1.7248-.3374-4.2097.1412-6.526.2423-1.1724,1.9342-2.8799,3.0132-2.9119,8.2271-.2437,16.4648-.1336,24.4588-.1336v11.0504c-8.9429-.4789-17.8569-.9564-27.6132-1.4789Z"/>
  <path class="cls-4" d="M22.6042,82.3664c-4.0937.5323-7.6815,1.0225-11.2758,1.4598-4.079.4963-6.2406-1.6018-6.7977-5.417-.5325-3.6471,2.1867-6.8534,5.7854-6.9324,3.9488-.0867,7.901-.0197,12.2881-.0197v10.9094Z"/>
  <path class="cls-2" d="M97.6304,60.5314c8.7497-3.4298,15.0908.0945,15.4558,7.951-7.1529,1.1943-10.0108-5.015-15.4558-7.951Z"/>
  <path class="cls-2" d="M57.3918,123.6929c.5196.3362,1.0393.6724,1.5589,1.0085-.7636.4339-1.4885,1.1459-2.2967,1.2581-7.0895.9839-12.6018-3.8512-14.0232-12.1911,7.0644-1.7208,10.7351-.272,13.9451,5.5018-2.9657-1.3736-5.9297-2.7442-10.1072-4.676.5561,2.6228.3823,5.4714,1.4262,6.0252,2.8944,1.5357,6.2959,2.1157,9.497,3.0734Z"/>
  <path class="cls-2" d="M114.0131,47.111c6.8192-3.4147,13.2882-2.2771,17.5889,3.2143-6.3963,1.3117-12.0606,1.395-17.5889-3.2143Z"/>
  <path class="cls-2" d="M54.8197,98.5252c-6.2347,3.7523-11.2016,3.1793-15.503-1.5817,6.4475-3.7114,10.7707-3.3483,15.503,1.5817Z"/>
  <path class="cls-2" d="M98.7515,68.9503c2.6859,5.1258,1.7864,10.629-2.1615,13.223-5.1274-4.6483-4.3155-9.6151,2.1615-13.223Z"/>
  <path class="cls-2" d="M127.8024,14.9896c-.0957-8.7642,2.9232-11.4861,9.4905-8.6463-1.5333,4.5352-3.7637,8.0997-9.4905,8.6463Z"/>
  <path class="cls-2" d="M87.322,48.5299c-5.7897-1.8758-8.9807-6.8219-8.9474-13.6434,6.2985,2.3575,7.6652,7.5879,8.9474,13.6434Z"/>
  <path class="cls-3" d="M57.3918,123.6929c-3.2011-.9577-6.6026-1.5377-9.497-3.0734-1.0439-.5538-.8701-3.4024-1.4262-6.0252,4.1775,1.9318,7.1416,3.3024,10.1072,4.676.273,1.4761.5445,2.9494.8159,4.4226Z"/>
  <path class="cls-2" d="M113.5241,20.1941c-4.371-1.8324-5.3165-5.669-5.7395-9.8114.5081-.3206,1.0162-.6411,1.5243-.9617,2.0476,3.1828,4.0952,6.3655,6.1428,9.5483-.6425.4082-1.285.8165-1.9275,1.2248Z"/>
  <path class="cls-2" d="M24.9649,121.0498v-12.3689c4.7533,4.7219,4.6094,7.9894,0,12.3689Z"/>
  <path class="cls-4" d="M138.9434,35.1163c-2.8275-.6634-5.6551-1.3268-8.4826-1.9902.177-.7852.354-1.5704.531-2.3556,2.8625.5857,5.725,1.1713,8.5875,1.757-.212.8629-.4239,1.7259-.6359,2.5888Z"/>
</svg>