<?xml version="1.0" encoding="UTF-8"?>
<svg id="Layer_1" xmlns="http://www.w3.org/2000/svg" viewBox="0 0 199.666 86.4688">
  <defs>
    <style>
      .cls-1 {
        fill: #809f8e;
      }

      .cls-2 {
        fill: #b8d334;
      }

      .cls-3 {
        fill: #161614;
      }

      .cls-4 {
        fill: #aed150;
      }
    </style>
  </defs>
  <path class="cls-3" d="M2.3773,41.495c6.2271-2.6675,12.9164-3.3579,19.487-4.5564,6.6967-.4697,13.2199-2.3825,20.1193-1.4127,4.4512.6257,8.8725,1.3998,13.3112,2.084,5.2273.8058,5.2326.7711,5.3029-4.5285.0885-6.669,1.5053-8.4739,8.1192-8.4232,4.3179.0331,6.39-2.1082,7.9136-5.5418,4.8855-6.8129,11.5164-11.8641,17.5993-17.4707,1.1814-1.0889,2.2568-2.2922,4.0348-1.2402,1.6496.976,1.4263,2.5156,1.3179,4.1316-.418,6.2304-3.7923,11.4891-5.5426,17.2773-.5501.9179-2.5819,1.9662.2294,2.5857,9.3893-.146,18.7785-.2921,28.1678-.4381,3.4063-.0037,6.8126-.0074,10.2188-.0111,8.5312-.2371,17.0624-.4743,25.5937-.7114,5.1653.4209,10.2633-.2336,15.3567-.9616,5.2398.6831,10.2546-.7575,15.3301-1.6251,8.8283.8028,10.9821,3.1872,10.707,11.8532-.5304.9861-1.0608,1.9721-1.5911,2.9582-.7841.7152-1.5683,1.4305-2.3525,2.1457-3.3853.7004-6.7706,1.4008-10.1559,2.1012-1.146-.0023-2.2919-.0046-3.4379-.007-5.6755-.5281-11.2757-1.8517-17.0239-1.6108-.844-.4063-1.7015-.3502-2.5654-.075-10.5623-1.1052-20.9787,1.4315-31.5035,1.2618-.4799-.6714-1.1144-.5248-1.7576-.3321-2.5406-.4845-5.0925-.6416-7.6628-.2634-11.6463-.3136-23.2926-.6272-34.9388-.9408-1.3395-.3624-2.7437-1.0219-3.6098.7871q-8.4744,6.5113-.6065,13.4619c.203.1793.4975.2548.7493.3788,2.8244,4.2236,5.6487,8.4471,8.4731,12.6707,1.4498,3.4127,2.8997,6.8254,4.3495,10.2381.8031,2.8292,1.6063,5.6584,2.4094,8.4876-.3791,1.2641-1.2593,2.0871-2.3771,2.701-1.5446-.3083-2.7909-1.0168-3.8907-2.2235-1.4694-1.6123-2.7617-3.5517-5.1609-4.0018-3.4238-3.0629-6.8477-6.1258-10.2715-9.1885-1.2108-1.7243-2.4215-3.4487-3.6322-5.1731.0287-.9895-.3659-1.8145-.9908-2.55.1509-.782-.0384-1.4467-.6744-1.9576.1084-.6554-.0135-1.2206-.6242-1.5944-.2155-.5936-.5368-.9312-1.1808-.4882-.8637.1463-1.7274.2926-2.5911.4388-.7186-.1907-1.4372-.3815-2.1557-.5723-1.6017-2.2246-2.6167-4.7938-2.9759-7.4073-.4382-3.1885-2.0716-3.4931-4.6262-2.9222-4.1246.9217-8.2635,1.7797-12.3963,2.6645-4.2647-.0794-8.5294-.1587-12.7941-.2381-.9971-.6845-2.0894-.6437-3.2056-.4209-3.3088-.429-6.6176-.858-9.9264-1.2871-.8679-.8622-1.9584-.8246-3.0565-.7563-2.8977-1.4512-6.025-1.9178-9.2074-2.1482-1.9776-.867-4.0214-1.4858-6.1863-1.6511-.0961-.2186-.261-.3034-.4948-.2545.0079-.8542.0159-1.7084.0238-2.5626.7915-.2021,1.7944.3277,2.3535-.6795ZM81.3365,22.2416c-2.9105,3.6269-5.2189,7.6175-6.9463,11.9212-.4721,1.1763-2.096,2.6785-.5531,3.722,1.5129,1.0232,2.9501-.5411,3.9284-1.6406,3.6611-4.1147,6.3961-8.8702,9.0458-13.6701,2.5592-2.9473,4.0047-6.3954,5.3871-11.0425-5.5679,2.6666-8.2835,6.6184-10.8619,10.7099ZM87.3877,70.0215c-2.4769-6.9858-6.5849-12.7612-13.0443-18.054,1.2441,8.1395,4.511,13.9598,10.1228,18.4736,1.0862,1.7718,2.4757,3.1564,4.5573,3.9715.5907-2.1706-.6827-3.2141-1.6359-4.3911ZM38.9432,41.245c-5.7918-.5708-17.4143.7264-21.1537,2.361,8.5037,3.8312,33.4281,3.638,40.4249-.5405-5.7881.3986-10.7848-2.3818-16.2236-1.9515-1.0159.0437-2.0317.0873-3.0476.131ZM182.1145,34.4321c2.4011,0,4.8028.0317,7.2031-.0102,1.8576-.0325,3.9619-.0567,4.5511-2.2344.5466-2.0202.567-4.1294-1.0934-5.9462-1.7732-1.9403-3.4833-1.0931-5.3451-.3158-.8942.3733-1.892.6121-2.8591.6795-9.0222.6283-18.0419,1.5776-27.0739,1.7247-21.9479.3576-43.9109-.391-65.8486.8819-.5661.0328-1.1359.0069-1.701.0486-1.7433.1288-2.5988,1.3859-2.6325,2.8294-.0484,2.0757,1.8126,1.2698,2.8867,1.3695,4.8228.4475,9.5992-.651,14.4004-.6086,7.6248.0674,15.246.5259,22.8708.5935,3.9474.035,7.8963-.509,11.8495-.6286,14.2946-.4326,28.5428.5811,42.7919,1.6165ZM67.7107,53.6129c1.5946-2.7325,2.6356-4.5489,2.9636-6.6584.2062-1.3262,1.1554-3.0662-.3818-3.8882-1.4558-.7784-3.3611-.7823-4.8807.2412-1.6812,1.1323-.4937,2.5661-.0962,3.8172.5938,1.869,1.3492,3.6866,2.3951,6.4882ZM64.8446,34.2602c.485,1.2663-1.0513,3.3043,1.4675,3.7492,2.6417.4666,2.2585-1.8493,2.8387-3.2357.268-.6404.3939-1.3417.5679-2.0196.2578-1.0042,2.1463-2.3031-.1674-2.8994-1.5568-.4012-3.5347-.5788-4.3581,1.48-.3506.8765-.2453,1.9354-.3486,2.9255Z"/>
  <path class="cls-4" d="M41.9908,41.114c5.4388-.4302,10.4355,2.3501,16.2236,1.9515-6.9968,4.1785-31.9212,4.3716-40.4249.5405,3.7394-1.6346,15.3619-2.9318,21.1531-2.3611-.4777,2.3032-2.3522,1.4812-3.7618,1.6672-2.402.317-5.0218-.6355-7.5437,1.1699h19.7431c-1.9345-1.8191-4.8007-.1859-5.3894-2.968Z"/>
  <path class="cls-4" d="M84.4663,70.4411c-5.6118-4.5138-8.8788-10.3341-10.1228-18.4736,6.4593,5.2928,10.5674,11.0682,13.0435,18.0532-.9741.1396-1.9473.28-2.9206.4204Z"/>
  <path class="cls-4" d="M86.8113,22.5742c-2.6498,4.7998-5.3848,9.5554-9.0459,13.67-.9782,1.0995-2.4155,2.6638-3.9284,1.6406-1.5429-1.0435.0809-2.5457.5531-3.722,1.7274-4.3037,4.0358-8.2943,6.9463-11.9212.1177.1092.2347.2192.351.3299v4.4302c1.8269-1.6803,2.4662-4.1128,4.802-4.7284.1072.1004.2145.2006.3218.3008Z"/>
  <path class="cls-1" d="M67.7107,53.6129c-1.0459-2.8016-1.8013-4.6192-2.3951-6.4882-.3975-1.2511-1.585-2.6849.0962-3.8172,1.5196-1.0234,3.4249-1.0196,4.8807-.2412,1.5372.8219.588,2.5619.3818,3.8882-.328,2.1095-1.369,3.9259-2.9636,6.6584Z"/>
  <path class="cls-4" d="M81.3365,22.2416c2.5784-4.0915,5.294-8.0434,10.8619-10.7099-1.3825,4.6472-2.828,8.0952-5.3871,11.0425-.1073-.1001-.2146-.2004-.3208-.2999-.4365-.6666,1.4514-3.7063-1.6769-1.6356-1.0211.6759-2.083,1.2903-3.1262,1.9328-.1163-.1107-.2333-.2207-.351-.3299Z"/>
  <path class="cls-2" d="M41.9908,41.114c.5887,2.7821,3.4549,1.1489,5.3894,2.968h-19.7431c2.5218-1.8055,5.1416-.8529,7.5437-1.1699,1.4096-.186,3.284.636,3.7618-1.6672,1.0165-.0436,2.0324-.0872,3.0482-.1309Z"/>
  <path class="cls-1" d="M84.4663,70.4411c.9733-.1404,1.9466-.2808,2.9206-.4204.9539,1.1779,2.2274,2.2213,1.6366,4.3919-2.0816-.8151-3.4711-2.1997-4.5573-3.9715Z"/>
  <path class="cls-2" d="M81.6875,22.5715c1.0432-.6425,2.1051-1.2569,3.1262-1.9328,3.1283-2.0707,1.2404.9689,1.6769,1.6356-2.3369.6146-2.9762,3.0472-4.8031,4.7275,0-1.724,0-3.0771,0-4.4302Z"/>
</svg>