<?xml version="1.0" encoding="UTF-8"?>
<svg id="Layer_1" xmlns="http://www.w3.org/2000/svg" viewBox="0 0 259.7676 74.827">
  <defs>
    <style>
      .cls-1 {
        fill: #101311;
      }

      .cls-2 {
        fill: #e6eebd;
      }
    </style>
  </defs>
  <path class="cls-1" d="M241.805,59.1106c-.9329.3889-1.8657.7779-2.7985,1.167-2.4069.2438-4.2663,1.7013-6.2738,2.8303-3.0169,1.3782-6.0339,2.7563-9.0509,4.1345-2.5874,1.0372-5.1749,2.0744-7.7623,3.1116-5.1368.8704-10.0085,2.6365-14.8795,4.4048-4.2548.4393-7.7139-1.2882-10.9699-3.8227-3.2732-2.5479-7.1826-4.4535-9.9522-7.4394-7.8416-8.4537-17.5921-10.5994-28.4581-9.757-17.9234,1.3896-35.8389.1959-53.7576-.0798-4.1778-.0642-8.2536.6652-12.3237,1.5471-2.9789.6455-5.4034,1.652-7.5043,4.2474-3.2232,3.9818-8.3116,4.4545-13.0742,5.2192,0,0-.1522.0506-.153.0537-.5158.0176-1.0306.0323-1.5454.0469-11.5711.7261-23.1548,1.2986-34.7075,2.247-5.3199.4368-10.5668.6313-15.8202-.3322-9.8297-1.8026-15.0268-10.6385-11.8359-20.0846,2.7031-3.301,6.8171-3.9281,10.4307-5.5036,1.8796.262,3.6218-.2504,5.3318-.9445,5.3549-.6017,10.9044.2078,16.01-2.2035,7.96,1.2941,15.8998.0235,23.8127-.4564,5.3747-.3259,10.4933-.2841,15.4283,2.019,1.8745,1.5464,3.7489,3.093,5.6234,4.6394.907,1.4019,2.0186,2.2807,3.7865,1.4826.812.4184,1.5591.1765,2.2905-.225,10.8902-.4981,21.7803-.9962,32.6705-1.4942,14.5339.5419,29.0876-.2997,43.6193.75,8.4279.6087,8.484.461,9.9342-8.1509,1.0132-6.017,1.325-12.2559,6.0214-16.9525,7.3867-3.4029,15.2614-5.2957,23.0434-7.4888,10.7649-3.0337,21.8264-5.0453,32.2333-9.3169.8364.296,1.4739.0054,1.9805-.6714,2.1987.0996,3.8914-1.3035,5.8342-1.964.7886.496,1.5447.318,2.2886-.1104l.2164-.0131c.7522.3435,1.5044.6869,2.2566,1.0304.1041.8448.6399,1.2905,1.4069,1.5224.205.2801.4101.5604.6151.8405.6034,1.9798,1.392,3.8601,2.8838,5.3622,3.1796,9.992,6.9198,19.7719,11.1115,29.3813-.0067,2.2736-.0136,4.5471-.0203,6.8207-1.1383,1.7963-2.2766,3.5927-3.4149,5.389-1.8759,1.3984-3.7519,2.7967-5.6279,4.195-2.8704,1.7103-6.4012,2.1343-8.8995,4.5691ZM195.0333,23.8229c-1.2226-1.2888-.2602-3.2297-2.4738-3.2726-7.8037-.1516-14.0307,6.278-16.5756,13.5471-4.3675,12.4753.5415,19.0535,10.5456,26.1121,8.3292,5.8768,15.3169,9.0243,24.5869,3.9564.1384-.0755.3139-.1008.4751-.1145,4.2-.3584,2.9803-2.4135,1.4036-4.5387-1.5764-2.1247-3.4466-4.0751-4.7463-6.3537-5.4252-9.5113-10.3366-19.2763-13.2155-29.3361ZM71.445,55.9674c2.5342-1.1014,1.3454-4.0131,1.6597-6.5154.417-3.3205-1.8572-4.3051-4.129-5.2371-2.6566-1.0899-5.5173-1.1409-8.3449-.9302-11.8998.8869-23.7927,1.87-35.6958,2.7073-4.8324.34-9.5476,1.2749-14.1937,2.5079-3.2548.8637-5.2647,2.7711-3.6442,6.5545,1.8693,4.3639,5.8612,5.4349,9.8207,5.4697,17.2441.1515,34.3528-2.2134,51.5404-3.2002.7656-.0439,1.4984-.6603,2.9868-1.3564ZM215.2982,52.2983c1.3706,2.2675,3.0564,4.2051,7.5675,1.9108,8.0745-4.1068,16.7295-7.0719,25.1406-10.5174,1.2606-.5163,2.6038-1.0404,2.0091-2.8214-.561-1.6798-1.335-2.9222-3.5951-2.4191-10.5402,2.3464-20.9541,5.035-30.7069,9.846-1.6376.8077-2.6188,1.5201-.4152,4.0011ZM240.5315,31.7903c1.1985-.8025,3.4758-.9404,2.2322-3.4423-1.0526-2.1176-2.1508-2.7253-4.6735-1.7548-9.1081,3.5033-18.3682,6.6099-27.5268,9.9859-1.1188.4122-3.4498.3025-2.5012,2.7211.6581,1.6782,1.6956,2.7201,3.8292,2.0832,9.6482-2.88,19.6697-4.6222,28.64-9.5931ZM203.5115,22.7691c-1.7715.2101-1.9985,1.4667-1.4432,3.1714.6517,2.0006,1.8208,2.2814,3.8302,1.7119,9.3927-2.6618,18.3792-6.6339,27.982-8.6156,1.5965-.3294,4.178-.0511,3.1145-3.065-.7871-2.2305-2.0157-3.5686-4.8612-2.5962-9.4036,3.2138-18.88,6.2149-28.6224,9.3934Z"/>
  <path class="cls-2" d="M195.0333,23.8229c2.8789,10.0598,7.7903,19.8248,13.2155,29.3361,1.2997,2.2786,3.1699,4.229,4.7463,6.3537,1.5767,2.1252,2.7964,4.1803-1.4036,4.5387-.1612.0137-.3367.039-.4751.1145-9.27,5.0679-16.2576,1.9205-24.5869-3.9564-10.0041-7.0586-14.9131-13.6368-10.5456-26.1121,2.5449-7.2691,8.7719-13.6987,16.5756-13.5471,2.2137.0429,1.2512,1.9838,2.4738,3.2726Z"/>
  <path class="cls-2" d="M71.445,55.9674c-1.4884.696-2.2212,1.3124-2.9868,1.3564-17.1876.9869-34.2963,3.3517-51.5404,3.2002-3.9595-.0348-7.9515-1.1058-9.8207-5.4697-1.6206-3.7834.3893-5.6908,3.6442-6.5545,4.6462-1.233,9.3613-2.1679,14.1937-2.5079,11.9031-.8373,23.796-1.8205,35.6958-2.7073,2.8276-.2107,5.6883-.1597,8.3449.9302,2.2717.932,4.546,1.9167,4.129,5.2371-.3143,2.5023.8745,5.414-1.6597,6.5154Z"/>
</svg>