<?xml version="1.0" encoding="UTF-8"?>
<svg id="Layer_1" xmlns="http://www.w3.org/2000/svg" viewBox="0 0 186.6673 145.3518">
  <defs>
    <style>
      .cls-1 {
        fill: #874c9d;
      }

      .cls-2 {
        fill: #809f8e;
      }

      .cls-3 {
        fill: #141625;
      }

      .cls-4 {
        fill: #161614;
      }

      .cls-5 {
        fill: #e5b3c1;
      }

      .cls-6 {
        fill: #64525a;
      }
    </style>
  </defs>
  <path class="cls-4" d="M59.7173,84.411c-6.4231.3018-12.7816,1.6289-19.2632,1.1038-1.9253-.156-3.8664.0014-5.6252-1.003-5.423-1.4835-10.833-3.0331-16.5085-3.2219-2.9894-.7006-5.9033-1.8063-9.0454-1.6906-2.5373-.9096-4.547-3.4405-7.6859-2.5016-2.4183-1.2348-1.8506-2.4247.1893-3.2788.9619-.4028,2.138-.2939,3.217-.4169,4.2653-.1133,7.8149-2.7896,11.9582-3.3399,4.6766-.1821,9.0922-1.6899,13.6096-2.6807,4.0757-.2504,8.1745-.3082,12.2223-.7923,7.7943-.9321,15.4877-.0858,23.1911.8776,2.3394.2926,9.9711-4.2394,11.4132-6.3435.7063-1.0305.3204-2.5556,1.652-3.177.1223,1.905.0667,3.8362.9334,5.6218.7101,1.4629,1.4263,2.3078,2.329.132-.049-.2352.0463-.3628.286-.3825,2.3104.1938,3.9177-.3007,3.1009-3.1682l.0393-.2377c2.4938-.2321,4.3647-1.5606,6.1279-3.2405.6835-.6513,1.4235-2.6456,2.8367-.6311-1.716,2.0281-3.5386,3.9777-5.1111,6.1116-1.0791,1.4645-3.813,2.3459-3.0646,4.3758.8571,2.3248,3.6646,1.5371,5.68,1.8672,10.4289,1.708,20.8606.5253,31.2908-.0276,1.4232-.003,2.8464-.0061,4.2696-.0091,2.5977.2504,5.1535.0073,7.6739-.6519,1.6922.1953,3.4285.5183,4.3539-1.5052.2524-.1098.5048-.2195.7573-.3293,8.4125-.5099,16.8201-1.1375,25.2393-1.4876,5.4356-.226,10.8326-2.1698,16.322-.4687.5286.3946,1.0573.7893,1.5859,1.1839.876,1.7109,1.7521,3.4217,2.6281,5.1326,1.0833,5.8456-.2608,10.7326-5.5521,14.0606,0,0-.1671.003-.1671.0032-19.8868-.396-39.7736-.7921-59.6604-1.1883-.8458-.088-1.6917-.176-2.5375-.264-1.0976-.4767-2.2166-.8123-3.4309-.5213-9.2494-.7331-18.4436-2.3797-28.4013-1.7802,13.3942,16.8308,20.2763,36.5547,28.7464,55.4719.8526,2.3268,2.3361,4.4444,2.1258,7.121-.0686.8735.0754,1.7639-.8955,2.1134-.9229.3322-1.7504-.1727-2.1276-.9521-3.1469-6.5017-10.3698-8.8871-14.473-14.4083-.2484-.2907-.4969-.5814-.7467-.8729-.3688-.4744-.7363-.948-1.1038-1.4217-6.5347-8.3334-12.3726-17.0851-16.2242-27.0294-.0631-.9791-.3404-1.747-1.5616-1.5845-.0264-1.3025.3469-2.7221-1.0612-3.6194-.6215-2.2824-1.6811-4.3933-2.0941-6.7864-1.1055-6.4064-4.5294-7.915-10.8646-5.0671-1.1049.1635-2.2098.3269-3.3148.4904-.1063-.0282-.2212-.0966-.3173-.0762-.2009.0425-.392.1318-.5871.2019-.2665.0431-.533.0862-.7995.1294-.5182.0531-1.0365.1062-1.5547.1593ZM81.7877,83.8264l-.027.0333c-3.8727,3.9096-3.7051,5.7139.7862,8.466,2.0417,2.6544,4.0617,5.4554,4.8766,8.6543,2.1374,8.3901,7.4026,14.8651,12.404,21.5416-.0375,1.0223-.0653,2.037,1.4502,1.8248.1476.1299.284.2707.4091.4224.9066,2.2195,2.5171,5.222,4.6465,4.1737,2.359-1.1613.2055-3.8764-.8083-5.7817-.0472-.0888-.2592-.0899-.3945-.1318-.1721-.4475-.3441-.895-.5162-1.3426-.3352-1.2136.8128-3.0787-1.5029-3.4223-2.8474-8.6706-8.4014-16.0065-11.9871-24.313.5087-4.2214-1.4765-6.8553-5.2959-8.3217l.0276.0255c.4237-1.8822-.5481-2.8767-2.2154-3.3263-1.2149-.3276-1.8148.2804-1.8528,1.4978ZM26.8602,72.6392c-4.6571-1.8269-7.773,1.7954-12.3836,2.9038,2.7009,1.1315,4.561,1.6889,6.5771,1.404.6159.1247,1.2318.2494,1.8477.3741.9796,1.9237,2.5833,1.2132,4.0773.9662,3.1871.7353,6.3742,1.4707,9.5614,2.206.7016,2.5295,3.2522,2.0707,4.8794,2.5879,5.7887,1.8399,11.2776.318,16.4426-2.5874,2.1121-.1863,4.2867-.1238,6.3173-.6345,1.7491-.4399,4.4141-.5424,4.1302-3.299-.2475-2.4032-1.06-4.663-4.3174-4.8049-4.8079-.2094-9.6026-.7141-14.404-1.0796-7.6821-.5847-15.1446,1.3929-22.728,1.9632ZM155.4738,79.3435c7.8977-1.032,14.9481.3043,22.0302.237,3.8605-.0367,4.5376-2.9964,4.5574-5.4353.0197-2.414-.4183-6.2066-3.9991-5.9288-5.0418.3911-10.7028-1.2226-14.8881,3.4023-.5569.6154-1.8723.939-2.7484.8082-6.7691-1.0105-13.4637-.6296-20.2401.2087-13.5286,1.6735-27.1537,1.0825-40.746,1.083-2.5407,0-5.0828-.3019-7.6217-.4971-1.3299-.1023-2.8095-.2284-2.8396,1.5849-.0321,1.9358,1.654,1.042,2.5641,1.1016,3.672.2407,7.3877.0593,11.027.515,17.8412,2.2339,35.8004,1.976,52.9044,2.9205ZM84.3043,73.4262c-.0057-3.1663-2.698-5.6695-6.1629-5.5079-3.3047.1541-5.7892,1.5301-5.9643,5.2431-.1684,3.5709,2.0002,5.5749,5.8591,5.6392,3.6369.0606,6.2737-2.2003,6.268-5.3743Z"/>
  <path class="cls-3" d="M93.7893,24.1864c5.7244-4.8977,9.4825-11.4775,14.4965-16.9859.7437-.8171,1.0495-2.0233,1.7604-2.8818,1.6016-1.9339,2.7657-5.756,6.0038-3.7552,3.2393,2.0014-.0182,4.4464-.9925,6.4988-1.7935,3.778-1.6152,7.9993-2.9552,11.8595-.6705,1.6955-1.3739,3.3788-2.0061,5.0884-4.1274,11.1613-8.4472,22.2284-15.4012,32.0297-1.4131-2.0145-2.1531-.0202-2.8367.6311-1.7632,1.6799-3.6341,3.0083-6.1264,3.2406.1436-.3929.1791-.8877.4432-1.1642,8.3126-8.7036,12.8464-19.5362,17.2085-30.4673.8576-.5521,1.3429-1.2647,1.006-2.3321.2481-.8695.4962-1.739.7443-2.6085,1.917-1.4872,1.576-3.6216,1.5771-5.6426,0-.1211-.5573-.4109-.6667-.3383-1.6822,1.1174-2.9793,2.512-3.0735,4.6815-5.6124,4.0126-8.512,10.0377-11.4541,15.9243-3.0182,6.0386-5.0249,12.5319-8.1865,18.5578-.958,1.8258-3.8695,4.3952-1.0264,7.1774-.9024,2.1761-1.6186,1.3312-2.3287-.1317-.8666-1.7855-.8111-3.7168-.9334-5.6218,3.2346-10.0234,7.0118-19.8212,12.0906-29.0776-.0003,0,.0144-.0358.0144-.0358,1.1541-1.3934,2.562-2.6423,2.6425-4.6464Z"/>
  <path class="cls-5" d="M155.4738,79.3435c-17.104-.9445-35.0632-.6866-52.9044-2.9205-3.6393-.4557-7.3549-.2743-11.027-.515-.9102-.0597-2.5963.8341-2.5641-1.1016.0301-1.8133,1.5097-1.6872,2.8396-1.5849,2.5389.1952,5.081.4972,7.6217.4971,13.5923-.0005,27.2174.5905,40.746-1.083,6.7764-.8382,13.471-1.2192,20.2401-.2087.8761.1308,2.1915-.1928,2.7484-.8082,4.1853-4.6249,9.8463-3.0112,14.8881-3.4023,3.5809-.2778,4.0188,3.5148,3.9991,5.9288-.0199,2.4389-.6969,5.3986-4.5574,5.4353-7.0821.0674-14.1324-1.2689-22.0302-.237Z"/>
  <path class="cls-1" d="M36.54,80.4933c-3.1871-.7354-6.3742-1.4707-9.5563-2.205-1.0745-1.5162-2.5597-1.3207-4.0823-.9673-.6159-.1247-1.2318-.2494-1.846-.3739-.0807-4.1529,4.2761-2.3254,5.8048-4.308,7.5833-.5703,15.0458-2.5479,22.728-1.9632,4.8014.3654,9.5961.8702,14.404,1.0796,3.2574.1418,4.0699,2.4016,4.3174,4.8049.2839,2.7566-2.3812,2.8591-4.1302,3.299-2.0306.5106-4.2052.4482-6.3173.6345-7.1073-.0002-14.2147-.0004-21.322-.0005Z"/>
  <path class="cls-1" d="M91.1243,93.9511c3.5856,8.3066,9.1397,15.6424,11.986,24.3089-.0603,1.3855-.4997,2.942,1.5039,3.4264.1721.4475.3442.895.5142,1.3409-.51,1.8397-1.997,1.7487-3.4417,1.7414-.1251-.1517-.2614-.2925-.4065-.4193.1225-1.0883-.3893-1.6774-1.4528-1.8279-5.0014-6.6765-10.2667-13.1515-12.404-21.5416-.8149-3.1989-2.8349-5.9999-4.8765-8.6542-.2621-2.822-.5241-5.644-.7862-8.466,0,0,.027-.0333.0265-.033,1.8208-.4254,2.5307,1.6232,4.0687,1.8282,0,0-.0276-.0255-.027-.026,1.0762,3.2123,2.2288,6.3763,5.2954,8.3222Z"/>
  <path class="cls-1" d="M103.3835,28.28c-4.362,10.9311-8.8959,21.7637-17.2085,30.4673-.2641.2765-.2996.7713-.4432,1.1642-.0015,0-.0409.2376-.0389.2398-1.3782.7179-2.379,1.806-3.1029,3.166-.2397.0197-.335.1473-.286.3825-2.8435-2.7825.0681-5.3518,1.026-7.1777,3.1616-6.0259,5.1683-12.5192,8.1865-18.5578,2.9421-5.8866,5.8417-11.9117,11.4531-15.9225.7207.4338,1.4424.8656,2.1641,1.2975-.2481.8695-.4962,1.739-.7417,2.6052-1.5731.2406-1.2633,1.2999-1.0087,2.3355Z"/>
  <path class="cls-2" d="M84.3043,73.4262c.0057,3.174-2.6312,5.4349-6.268,5.3743-3.8589-.0643-6.0276-2.0682-5.8591-5.6392.1751-3.713,2.6596-5.089,5.9643-5.2431,3.4648-.1615,6.1572,2.3416,6.1629,5.5079Z"/>
  <path class="cls-3" d="M36.54,80.4933c7.1073.0002,14.2146.0003,21.322.0005-5.1649,2.9054-10.6538,4.4273-16.4425,2.5874-1.6272-.5172-4.1779-.0584-4.8794-2.5879Z"/>
  <path class="cls-6" d="M26.8602,72.6392c-1.5287,1.9825-5.8855.1551-5.8048,4.308-2.0178.2847-3.8778-.2727-6.5788-1.4042,4.6105-1.1084,7.7265-4.7307,12.3836-2.9038Z"/>
  <path class="cls-6" d="M101.6868,124.7688c1.4446.0073,2.9317.0983,3.4417-1.7414.1373.0436.3493.0447.3965.1335,1.0139,1.9054,3.1673,4.6204.8083,5.7817-2.1294,1.0483-3.7399-1.9542-4.6465-4.1737Z"/>
  <path class="cls-3" d="M91.1243,93.9511c-3.0666-1.946-4.2191-5.1099-5.2954-8.3222,3.8189,1.4669,5.8041,4.1008,5.2954,8.3222Z"/>
  <path class="cls-3" d="M81.7607,83.8597c.2621,2.822.5242,5.6441.7862,8.466-4.4913-2.7521-4.6589-4.5564-.7862-8.466Z"/>
  <path class="cls-3" d="M85.8559,85.6549c-1.538-.205-2.2479-2.2536-4.0687-1.8282.0385-1.2178.6383-1.8258,1.8532-1.4981,1.6673.4496,2.6392,1.4441,2.2154,3.3263Z"/>
  <path class="cls-6" d="M22.9014,77.3211c1.5226-.3535,3.0078-.5489,4.0823.9673-1.4989.246-3.1027.9565-4.0823-.9673Z"/>
  <path class="cls-6" d="M104.6143,121.6865c-2.0037-.4845-1.5643-2.0409-1.5039-3.4264,2.3167.3478,1.1687,2.2129,1.5039,3.4264Z"/>
  <path class="cls-3" d="M82.5901,63.3174c.7239-1.36,1.7247-2.4481,3.1029-3.166.8148,2.8653-.7925,3.3598-3.1029,3.166Z"/>
  <path class="cls-6" d="M99.8275,122.5216c1.0635.1506,1.5753.7397,1.4528,1.8279-1.5181.209-1.4902-.8056-1.4528-1.8279Z"/>
  <path class="cls-6" d="M105.1339,23.3394c-.7217-.4319-1.4434-.8637-2.1641-1.2975.0953-2.1714,1.3923-3.5659,3.0745-4.6834.1094-.0727.6667.2172.6667.3383-.0011,2.021.3399,4.1553-1.5771,5.6426Z"/>
  <path class="cls-6" d="M103.3835,28.28c-.2547-1.0355-.5644-2.0949,1.0087-2.3355.3343,1.0708-.1511,1.7834-1.0087,2.3355Z"/>
</svg>