<?xml version="1.0" encoding="UTF-8"?>
<svg id="Layer_1" xmlns="http://www.w3.org/2000/svg" viewBox="0 0 163.5843 109.8207">
  <defs>
    <style>
      .cls-1 {
        fill: #141814;
      }

      .cls-2 {
        fill: #809e8f;
      }
    </style>
  </defs>
  <path class="cls-1" d="M42.4103,74.5844c-9.7569,2.6141-19.5269,5.1807-29.2662,7.8591-6.5706,1.807-10.3266.6876-12.226-3.8687-2.2636-5.4299-.2298-12.9949,4.8695-15.187,3.5295-1.5173,7.7221-2.3485,11.5542-2.1624,20.2683.9846,39.9068-3.3824,59.7036-6.452.4727-.0733.906-.4013,1.3576-.6106,7.2678-1.6237,14.5646-3.1355,21.7686-5.0047.9622-.2497,2.2172-2.4307,2.0451-3.5117-1.4929-9.38,1.1593-18.1077,3.5335-26.9714C110.0329,2.6869,122.2258-.7021,134.1703.1114c4.2142.287,8.4581,1.7365,12.4537,3.2679,6.3916,2.4496,8.0971,5.9407,6.3137,12.5624-2.2766,8.4528-5.7849,16.287-13.4128,22.101,10.3397,4.6035,16.4015,12.9217,22.1468,21.5418,2.9473,4.4221,2.6782,7.9481-2.1416,10.4086-5.4791,2.797-11.613,4.3111-17.1562,6.2744-.6195,7.4612-1.2171,15.6502-2.0427,23.8163-.1776,1.7562-.9955,3.5251-1.8339,5.1226-2.5865,4.9281-6.1315,6.0184-10.6225,2.741-7.3353-5.3531-13.846-11.8066-17.1155-20.3585-3.4715-9.0804-5.7538-18.6154-8.6753-28.3514-3.6808,1.293-8.2873,2.9111-12.8937,4.5293-1.6351.5542-3.2701,1.1083-4.9052,1.6624-1.9592.6771-3.9184,1.3542-5.8776,2.0313-6.6696,1.2753-13.3393,2.5507-20.0089,3.826-5.3294,1.0993-10.6588,2.1986-15.9882,3.2979ZM132.3366,4.7254c-7.4344.5024-14.9505,1.5706-18.4542,8.6207-5.0727,10.2072-7.9387,21.1534-6.032,32.9164.5672,3.499,2.0374,4.6938,4.8137,3.2607,5.2096-2.689,10.3769-5.5851,15.1401-8.9858,7.7944-5.5647,15.131-11.5231,18.7002-21.1187,3.1117-8.3656,2.8296-9.9977-5.5303-12.7208-2.7966-.9109-5.7538-1.329-8.6375-1.9724ZM108.8075,55.602c-1.36,18.1622,12.6088,45.2052,24.0719,47.9694,3.4641-6.298,4.3781-14.0117,3.2852-23.676-.4114-3.6375-1.6404-5.6135-5.2497-7.2869-4.857-2.2518-9.1471-5.8192-13.4671-9.1028-2.8323-2.1528-5.2872-4.8022-8.6403-7.9037ZM116.8581,55.1657c14.7682,15.2891,32.7935,19.1594,42.3411,7.4579-5.7149-6.0448-11.3781-12.4346-17.5034-18.3457-3.0795-2.9718-6.671-2.6578-10.2539.2899-4.5522,3.7452-9.5341,6.968-14.5838,10.598ZM82.435,60.0375c-.1401-.3566-.2802-.7133-.4203-1.0699-.2851-.0296-.5843-.1311-.8534-.0784-20.1809,3.9507-40.3004,8.3325-61.0823,7.4775-2.9648-.122-5.9706.4258-8.9393.8049-3.8723.4944-6.5671,4.1605-5.6144,7.7963,1.2028,4.5903,4.5839,2.7811,7.2993,2.0956,19.7519-4.9866,39.0766-11.7413,59.4971-13.9647,3.4414-.3747,6.7457-2.0089,10.1134-3.0612Z"/>
  <path class="cls-2" d="M116.8581,55.1657c5.0497-3.63,10.0316-6.8528,14.5838-10.598,3.5828-2.9477,7.1744-3.2617,10.2539-.2899,6.1253,5.9111,11.7885,12.3009,17.5034,18.3457-9.5476,11.7015-27.5729,7.8312-42.3411-7.4579Z"/>
  <path class="cls-2" d="M82.435,60.0375c-3.3677,1.0522-6.672,2.6865-10.1134,3.0612-20.4205,2.2234-39.7452,8.9781-59.4971,13.9647-2.7155.6855-6.0965,2.4947-7.2993-2.0956-.9527-3.6359,1.7422-7.3019,5.6144-7.7963,2.9688-.3791,5.9745-.9269,8.9393-.8049,20.782.855,40.9014-3.5267,61.0823-7.4775.269-.0527.5682.0488.8534.0784.1401.3567.2802.7133.4203,1.0699Z"/>
</svg>