<?xml version="1.0" encoding="UTF-8"?>
<svg id="Layer_1" xmlns="http://www.w3.org/2000/svg" viewBox="0 0 285.2734 113.4129">
  <defs>
    <style>
      .cls-1 {
        fill: #65535b;
      }

      .cls-2 {
        fill: #212222;
      }

      .cls-3 {
        fill: #d3a884;
      }

      .cls-4 {
        fill: #bc584c;
      }
    </style>
  </defs>
  <path class="cls-2" d="M99.2745,107.3497c-9.0757,7.8061-14.5141,8.3845-27.6404-.0778-7.481-4.8229-15.5514-9.7049-19.7951-18.3325-2.6589-3.3881-4.6811-8.3703-8.1413-9.7531-4.1407-1.6548-9.5101-.1594-14.3473-.1625-8.0731-.0053-16.1545.0591-24.2128-.3228-1.7549-.0831-3.4273-1.9237-5.1376-2.9548,1.1764-1.6312,2.0475-3.703,3.6064-4.7823,1.9619-1.3583,4.4279-2.1149,6.7779-2.765,9.3124-2.5759,18.7341-4.7868,27.9463-7.6717,1.9752-.6185,3.8517-3.2337,4.7347-5.3606,3.7573-9.0503,5.823-18.9277,13.4127-25.9956,3.1323-1.6922,6.2645-3.3844,9.3968-5.0766,3.7379-.8311,7.4759-1.6622,11.2138-2.4933,8.8082-.2499,15.7526,2.8002,19.8396,11.0638.5463,1.1047,1.4283,2.075,2.2794,2.9919,2.9954,3.2268,8.6532,3.7787,12.3421,1.2637,4.9848-3.3985,7.3412-9.0748,5.0917-13.1871-3.0884-5.6457-6.3777-11.192-9.8176-16.6313-1.9886-3.1444-1.7536-6.2119,1.7441-6.7292,4.1804-.6183,9.1622-1.0527,12.0001,3.71,3.0197,5.0681,5.93,10.2013,7.886,13.5768,12.1093,2.2473,22.9347,4.2563,33.7601,6.2652,1.6851.9847,3.4308,1.8804,5.0412,2.975,2.4678,1.6773,6.5206,3.1579,6.9495,5.3089,1.4252,7.1467,5.6721,5.8323,10.2992,4.6809,10.2039-.4618,20.4079-.9235,29.8607-1.3513-.6396-3.5265-1.0324-5.6919-1.4252-7.8575,7.5063-4.3343,9.6485-3.2718,11.2523,5.8344,1.5206-.3794,3.0214-.7539,3.119-.7782.4196-3.3238.031-7.4383,1.1759-7.921,3.0263-1.2761,6.8398-1.6128,10.0804-.984,1.2307.2388,1.7518,4.14,2.7751,6.8446,3.0546.4025,7.2738.9585,11.481,1.5129,8.8701-13.0107,19.4035-14.2301,29.3924-3.4205,5.0977,8.3448,3.7007,19.9192-3.2885,27.2448-5.4221,5.683-14.0556,6.3554-22.8368,1.2666-4.6962-2.7215-8.9749-6.1631-12.9959-8.9685.6507,3.0564,1.287,6.0452,1.9233,9.034l-4.0468,1.8452c-1.1409-.0637-2.2818-.1275-3.4225-.1913-.5545-.2828-1.1093-.5654-1.6642-.8481-.6802-1.0686-1.3603-2.1372-2.0405-3.2058.3795-1.819.7589-3.638,1.1384-5.457-1.3594-.2051-2.7188-.4103-4.5452-.6859.6037,2.3961.9867,3.9164,1.3697,5.4366-.7434,4.3649-4.3552,3.8304-7.3722,4.3121-1.3552-.5571-2.7105-1.1141-4.0657-1.6711-.3081-.3514-.6162-.7027-.924-1.0536-.097-.4211-.1943-.8427-.2917-1.2642.2276-.7442.4551-1.4883.6827-2.2325.1307-.5352.2614-1.0705.3922-1.6058-.751.106-1.502.212-2.253.318-11.7264,2.1654-23.4529,4.3309-35.1793,6.4963l1.3723,1.7211c-1.5915,4.0013-2.7359,8.2598-4.8616,11.9537-5.5104,9.5756-10.2088,19.6857-19.0342,27.0736-6.1234,5.1259-12.283,9.8257-20.2269,11.6198-.5176.0903-1.0352.1805-1.5528.2707-4.1657-.5967-8.3314-1.1934-12.4973-1.7902-1.3631-1.0928-3.186-1.9168-4.0097-3.3248-3.6512-6.2416-9.3488-6.7787-15.6001-6.1228-1.4033,1.2964-2.8065,2.5927-4.2098,3.889-.967,1.507-1.934,3.0139-2.901,4.5209ZM117.6445,67.5677c4.7758-.4726,10.4835,1.7596,12.9549-5.1425.2142-.5983,4.6947-.6892,5.9305.4071,1.0792.9574,1.2577,4.7179.2619,5.8205-1.636,1.8113-4.4674,3.2346-6.9298,3.4816-8.024.8048-16.1213.8612-24.1618,1.5414-1.8515.1566-3.5728,1.6876-5.3834,2.5224-2.0583.949-4.226,2.6192-6.1969,2.4285-1.1253-.1089-3.0914-3.6849-2.6437-5.0138.6431-1.9089,2.9108-3.9906,4.9001-4.5662,3.4681-1.0033,7.2528-.9141,10.9049-1.2829.2001-.5965.4001-1.193.6002-1.7895-2.1924-1.0586-4.569-3.272-6.5424-2.9582-5.8091.9241-11.5115,2.6866-17.1291,4.5102-1.2563.4079-2.1303,2.3262-2.9356,3.6933-.8247,1.4001-1.3491,2.9771-2.005,4.4767-1.4209-.7999-3.2928-1.2637-4.1837-2.4585-3.6411-4.8834-7.0691-9.9339-10.3866-15.0453-1.1454-1.7646-2.0393-3.8233-2.4693-5.869-.2359-1.1222.7342-2.4972,1.1606-3.7582,1.2626.4769,3.3153.6362,3.6563,1.4835,1.8572,4.6147,5.112,3.9993,8.3499,2.3562,2.8984-1.4709,7.5306-.3917,8.1469-5.5564.3545-2.9708,2.6909-3.4742,4.7556-1.7632,3.7128,3.0766,6.0361.4054,8.7218-1.183-3.2027-4.4609-6.1178-8.703-9.2596-12.7701-.7888-1.021-2.2215-1.8543-3.4995-2.1388-9.2277-2.0546-24.2879,1.7374-29.4344,12.8963-4.3761,9.4885-6.1844,17.6546,1.4625,26.9162,8.2322,9.9706,18.2232,17.2408,29.1746,23.3564,6.2619,3.4968,11.8974,1.3951,15.9245-4.3034,9.0932-12.8675,23.1993-13.5207,34.0151-1.7032,1.0848,1.1854,2.9674,2.3033,4.4883,2.3154,7.4838.0593,14.2359-2.3409,21.6383-7.3766-2.721-1.7373-5.5677-4.4202-6.3508-3.9139-4.9352,3.1903-6.2937-.4021-8.1412-3.5336-1.6395-2.7788-3.3359-5.5245-5.0377-8.2659-2.2347-3.5997-4.8087-5.6706-9.6645-6.2786-7.6394-.9567-11.4653,2.6687-14.6918,8.4653ZM148.6516,46.9398c-.1982.4911-.3964.9822-.5945,1.4733,1.8063.9806,3.7233,2.9734,5.4025,2.7907,27.662-3.0091,55.3626-5.8243,82.8849-9.8416,6.9023-1.0075,11.3736,1.1869,16.215,4.5438,1.7568,1.2181,3.1298,2.9741,4.79,4.3494,6.0262,4.992,14.0312,4.1844,18.5374-1.8111,4.5923-6.11,1.6305-17.0676-5.2738-18.9579-4.1411-1.1337-7.5689.3035-9.3357,4.3366-1.4468,3.3027.1657,5.3416,3.3498,6.5122.5341-.5614,1.0019-.8814,1.233-1.3247,1.2195-2.3391,2.3571-6.1011,5.5082-3.8415,1.7127,1.228,2.6311,5.7867,1.707,7.8637-.9914,2.228-4.38,4.0773-7.0523,4.7174-4.7341,1.1339-8.0611-2.0277-10.9641-5.4085-3.5862-4.1765-17.7747-6.8821-22.6147-4.7273-3.1298,1.3934-6.563,2.2185-9.94,2.9107-2.7939.5727-5.7058.5643-8.5631.8368-14.2737,1.3615-28.5403,2.8031-42.8226,4.0674-7.4749.6617-14.977,1.017-22.4669,1.5107ZM132.7077,52.6797c.1949-.4745.3897-.949.5845-1.4234-1.3529-1.0985-2.7093-3.1451-4.0581-3.1406-8.3479.0277-16.9019-.5087-24.9855,1.1256-9.0334,1.8264-17.6673,5.685-26.3982,8.8693-1.1605.4233-1.8697,2.0821-2.7879,3.1687,1.6428.6527,3.5337,2.19,4.8869,1.8109,7.3895-2.0701,14.6768-4.5244,21.9401-7.0184,5.739-1.9705,11.1711-4.4972,17.683-3.2952,4.2286.7806,8.7468-.0101,13.1352-.0968ZM168.4258,38.8225c.1067-.7534.2136-.9746.1452-1.1015-3.2482-6.0296-24.5889-12.931-30.5228-9.8011-.6419.3386-1.4702,1.7521-1.2863,2.0115,2.57,3.6269,4.9719,9.7751,8.0579,10.1617,7.7397.9694,15.8066-.6812,23.6061-1.2707ZM94.9348,100.8411c-18.0813-2.675-29.9364-14.949-42.9635-25.6379.3579,2.4631,1.1406,4.4389,2.5246,5.8067,3.0558,3.0198,6.4155,5.732,9.649,8.5722,1.7421,1.5301,4.8534,2.9566,4.9858,4.6171.6413,8.0421,7.161,9.0338,12.5516,11.1161,5.2198,2.0162,10.1059,1.3798,13.2525-4.4741ZM165.3396,76.3749c6.4337-5.7813,10.367-11.357,11.1843-19.8994-7.2144.4706-13.9785.9118-21.7889,1.4213,3.7636,6.5579,6.9176,12.0536,10.6046,18.4781ZM108.0163,92.4363c7.3674.8865,14.6472.8037,19.1546,9.414,1.7243-3.9814,3.8027-6.5199,3.6376-8.9041-.2802-4.0475-6.4406-8.0361-11.3733-8.2343-5.2141-.2095-9.5427,1.1436-11.4188,7.7243ZM21.6379,72.0331c.0325.2757.0649.5515.0974.8272,5.4951-.0446,10.9928-.0043,16.4841-.1722,2.4845-.0759,5.1079-.1731,7.3652-1.0445,1.0264-.3963,2.1914-3.1588,1.7338-4.0237-.6688-1.2643-3.021-2.784-4.1706-2.4627-7.2447,2.0254-14.3551,4.5298-21.5099,6.876ZM150.9374,97.6847c-.2699-.6074-.5399-1.2148-.8099-1.8222-7.0287-2.3179-12.2001.2042-14.2295,8.6526,5.7553-2.6139,10.3974-4.7222,15.0394-6.8304Z"/>
  <path class="cls-4" d="M117.6445,67.5677c3.2265-5.7966,7.0524-9.422,14.6918-8.4653,4.8558.6081,7.4298,2.6789,9.6645,6.2786,1.7018,2.7414,3.3983,5.4871,5.0377,8.2659,1.8475,3.1316,3.206,6.724,8.1412,3.5336.7832-.5063,3.6299,2.1766,6.3508,3.9139-7.4024,5.0357-14.1545,7.4358-21.6383,7.3766-1.5209-.012-3.4035-1.13-4.4883-2.3154-10.8157-11.8175-24.9219-11.1643-34.0151,1.7032-4.027,5.6985-9.6625,7.8003-15.9245,4.3034-10.9514-6.1156-20.9423-13.3858-29.1746-23.3564-7.6469-9.2617-5.8386-17.4278-1.4625-26.9162,5.1465-11.159,20.2066-14.9509,29.4344-12.8963,1.278.2845,2.7108,1.1178,3.4995,2.1388,3.1417,4.0671,6.0568,8.3092,9.2596,12.7701-2.6857,1.5884-5.009,4.2596-8.7218,1.183-2.0647-1.711-4.4011-1.2075-4.7556,1.7632-.6164,5.1647-5.2485,4.0855-8.1469,5.5564-3.2379,1.6431-6.4927,2.2585-8.3499-2.3562-.341-.8473-2.3937-1.0066-3.6563-1.4835-.4264,1.261-1.3965,2.636-1.1606,3.7582.43,2.0457,1.3239,4.1044,2.4693,5.869,3.3176,5.1114,6.7456,10.1619,10.3866,15.0453.8909,1.1948,2.7628,1.6586,4.1837,2.4585.6559-1.4996,1.1802-3.0765,2.005-4.4767.8053-1.3671,1.6793-3.2854,2.9356-3.6933,5.6176-1.8236,11.32-3.5861,17.1291-4.5102,1.9734-.3139,4.35,1.8996,6.5424,2.9582-.2001.5965-.4001,1.193-.6002,1.7895-3.652.3688-7.4367.2796-10.9049,1.2829-1.9893.5755-4.257,2.6572-4.9001,4.5662-.4477,1.3289,1.5184,4.9049,2.6437,5.0138,1.9709.1907,4.1386-1.4795,6.1969-2.4285,1.8106-.8348,3.5319-2.3657,5.3834-2.5224,8.0405-.6802,16.1377-.7366,24.1618-1.5414,2.4624-.247,5.2938-1.6703,6.9298-3.4816.9959-1.1026.8173-4.8631-.2619-5.8205-1.2359-1.0963-5.7163-1.0055-5.9305-.4071-2.4714,6.9021-8.1791,4.6699-12.9549,5.1425Z"/>
  <path class="cls-1" d="M148.6516,46.9398c7.4898-.4937,14.992-.8489,22.4669-1.5107,14.2823-1.2644,28.5489-2.706,42.8226-4.0674,2.8574-.2725,5.7692-.2641,8.5631-.8368,3.3769-.6923,6.8101-1.5173,9.94-2.9107,4.84-2.1548,19.0285.5507,22.6147,4.7273,2.903,3.3809,6.2301,6.5424,10.9641,5.4085,2.6724-.64,6.0609-2.4894,7.0523-4.7174.9241-2.0769.0057-6.6356-1.707-7.8637-3.1511-2.2595-4.2887,1.5024-5.5082,3.8415-.2311.4433-.6989.7633-1.233,1.3247-3.1841-1.1706-4.7966-3.2095-3.3498-6.5122,1.7668-4.0331,5.1946-5.4703,9.3357-4.3366,6.9044,1.8903,9.8661,12.8479,5.2738,18.9579-4.5063,5.9956-12.5112,6.8032-18.5374,1.8111-1.6602-1.3753-3.0333-3.1313-4.79-4.3494-4.8414-3.3569-9.3127-5.5513-16.215-4.5438-27.5223,4.0173-55.2229,6.8325-82.8849,9.8416-1.6793.1827-3.5962-1.8102-5.4025-2.7907.1982-.4911.3964-.9822.5945-1.4733Z"/>
  <path class="cls-1" d="M132.7077,52.6797c-4.3884.0867-8.9066.8774-13.1352.0968-6.5119-1.202-11.944,1.3247-17.683,3.2952-7.2633,2.494-14.5505,4.9483-21.9401,7.0184-1.3532.3791-3.2442-1.1582-4.8869-1.8109.9182-1.0866,1.6274-2.7454,2.7879-3.1687,8.731-3.1843,17.3648-7.0429,26.3982-8.8693,8.0836-1.6343,16.6376-1.0979,24.9855-1.1256,1.3488-.0045,2.7052,2.0421,4.0581,3.1406-.1948.4744-.3897.9489-.5845,1.4234Z"/>
  <path class="cls-4" d="M168.4258,38.8225c-7.7995.5895-15.8664,2.2401-23.6061,1.2707-3.0859-.3865-5.4879-6.5348-8.0579-10.1617-.1839-.2595.6444-1.673,1.2863-2.0115,5.9339-3.13,27.2747,3.7715,30.5228,9.8011.0683.1269-.0385.3481-.1452,1.1015Z"/>
  <path class="cls-4" d="M94.9348,100.8411c-3.1467,5.8539-8.0327,6.4904-13.2525,4.4741-5.3906-2.0822-11.9103-3.0739-12.5516-11.1161-.1325-1.6605-3.2437-3.087-4.9858-4.6171-3.2335-2.8402-6.5932-5.5524-9.649-8.5722-1.384-1.3677-2.1668-3.3436-2.5246-5.8067,13.0272,10.6889,24.8823,22.9629,42.9635,25.6379Z"/>
  <path class="cls-4" d="M165.3396,76.3749c-3.687-6.4244-6.841-11.9201-10.6046-18.4781,7.8104-.5095,14.5745-.9507,21.7889-1.4213-.8173,8.5424-4.7506,14.1181-11.1843,19.8994Z"/>
  <path class="cls-4" d="M108.0163,92.4363c1.8761-6.5807,6.2047-7.9338,11.4188-7.7243,4.9327.1982,11.0931,4.1868,11.3733,8.2343.1651,2.3841-1.9133,4.9227-3.6376,8.9041-4.5074-8.6104-11.7871-8.5275-19.1546-9.414Z"/>
  <path class="cls-3" d="M21.6379,72.0331c7.1548-2.3462,14.2653-4.8506,21.5099-6.876,1.1495-.3214,3.5017,1.1984,4.1706,2.4627.4576.865-.7074,3.6274-1.7338,4.0237-2.2573.8714-4.8807.9686-7.3652,1.0445-5.4913.1679-10.989.1276-16.4841.1722-.0325-.2757-.0649-.5515-.0974-.8272Z"/>
  <path class="cls-4" d="M150.9374,97.6847c-4.642,2.1082-9.2841,4.2165-15.0394,6.8304,2.0294-8.4483,7.2008-10.9705,14.2295-8.6526.27.6074.54,1.2148.8099,1.8222Z"/>
</svg>