<?xml version="1.0" encoding="UTF-8"?>
<svg id="Layer_1" xmlns="http://www.w3.org/2000/svg" viewBox="0 0 187.8947 127.3569">
  <defs>
    <style>
      .cls-1 {
        fill: #161314;
      }

      .cls-2 {
        fill: #dfb3c0;
      }

      .cls-3 {
        fill: #e6eebd;
      }
    </style>
  </defs>
  <path class="cls-1" d="M162.1346,28.7521c3.4374,13.2755-3.3628,24.5516-7.4396,36.2485-1.4248,4.0881-.2419,4.9797,3.0489,6.2327,8.206,3.1245,16.9476,4.6906,24.8614,8.6299,1.7751.8836,3.527,1.8141,5.2895,2.723-.0707,1.3188-.1413,2.6376-.212,3.9563-5.4954,4.6109-11.6425,8.1162-18.2518,10.8652-3.0791,1.2807-6.1718,2.442-9.5441,2.6235-2.392-.0313-4.784-.0626-7.176-.0939-.3759-.0017-.7518-.0034-1.1278-.0052-.6107-.0831-1.2214-.1662-1.8319-.2481.0002.0013-.059-.0254-.059-.0254-1.649-1.1605-3.5283-1.5842-5.4978-1.7195-1.0289-.3924-2.0578-.7849-3.0867-1.1773-1.3179-1.8139-3.3338-1.2294-5.1049-1.4859.1035-2.4666-1.5242-1.9719-2.9924-1.75-2.349-4.2893-7.5986-4.0517-10.8456-6.9551-2.9213-2.6121-4.1266-1.2076-4.4841,2.0059-.9195,2.0196-1.8389,4.0392-2.7584,6.0588-1.9974,2.2536-2.9378,4.9646-3.4086,7.8788-.7905.8279-1.0229,1.8533-1.0446,2.9532-.3797.9992-.7594,1.9983-1.1391,2.9974-1.6101,3.7139-3.2677,7.4525-4.9327,11.0851-1.2599,2.7487-1.5088,7.8259-6.0429,7.8065-3.9787-.017-5.4256-3.7503-6.8374-6.9664-.1915-.4361-.6056-.7745-.9167-1.1581-.7162-2.8927-1.2459-5.8475-2.1826-8.6669-3.1614-9.5154-3.64-19.1646-1.828-28.9759,1.7816-3.9246,3.5374-7.8613,5.3555-11.7689.9212-1.9798,1.3091-3.2886-1.7865-3.3836-16.7583-.5141-33.468-2.5013-50.2728-1.6303-4.5907-.2441-9.1814-.4882-13.7721-.7323-5.1849-.8146-10.4042-.2644-15.6064-.3929-3.5016-.9727-7.8247.8477-10.4581-3.077-.2962-2.0074.7956-3.4848,1.8935-4.9598,2.6284-.6101,5.2569-1.2202,7.8854-1.8303.6543.5299,1.3544.5701,2.0934.1961,1.2873.5922,2.6226.6099,3.9826.3327,12.6499.3304,25.2986,1.063,37.9523.1116,13.7491.5377,27.4983,1.0762,41.2475,1.6119,1.2632.0492,2.9165.7443,3.4067-1.0184.5086-1.8288-1.24-2.089-2.4381-2.4703-10.1654-3.235-19.079-9.2026-28.8939-13.2022-3.0469-1.2417-2.9065-3.3451-1.0353-5.4988,1.4514-1.6705,3.5084-2.5708,5.5939-3.1116,7.515-1.9489,14.3875-5.9254,22.1764-6.9861.6502-.0311,1.3005-.0621,1.9508-.0932.3316-.0042.6632-.0085.9948-.0127,1.6183.1945,3.2367.3891,4.855.5836.7088.139,1.4175.2781,2.1263.4171,1.6719.6379,3.3437,1.2759,5.0156,1.9138.124.2806.3213.3486.5918.2041,6.4828,3.2232,12.9553,6.4676,19.4567,9.6528,1.3855.6788,2.8579,1.9448,3.9344-.655,3.9041-9.4289,9.1863-18.2581,12.2314-28.0645.5682-1.1651,1.2243-2.2967,1.6848-3.503.769-2.014,1.2689-4.4314,4.0589-4.2078,2.4727.1981,2.6935,2.577,3.3006,4.4047,2.6921,8.1048,5.3499,16.2209,8.0202,24.333ZM97.3492,119.0379c.7784-.351.9947-.3766,1.0433-.4805,7.4169-15.8796,12.7814-32.6652,21.2171-48.0976.2195-.4015.2761-.9679.2179-1.4335-.5036-4.0307-11.2188-12.7777-15.1532-12.4419-.7824.0668-1.1836.503-1.4649,1.1133-4.5053,9.7749-9.1252,19.6407-11.2096,30.1626-2.1153,10.6781,2.2,20.8053,5.3493,31.1776ZM158.1699,94.8344c6.5657-1.6362,12.9957-4.3506,18.9652-7.9402,3.0046-1.8067.485-2.715-1.284-3.3482-8.7673-3.1383-17.6307-6.0362-26.2724-9.4891-7.2138-2.8824-13.5818-7.0747-22.2743-2.9438-3.6232,1.7218-4.4608,3.7517-5.2239,6.4126-.8238,2.872,1.9927,3.9884,3.9262,4.962,6.6627,3.355,13.4426,6.4788,20.1993,9.6448,3.6751,1.722,7.7725,1.5584,11.964,2.702ZM150.5452,10.8975c-3.3526,6.8983-6.4649,13.5234-9.1696,20.21-3.7127,9.1784-11.0863,17.7961-6.6508,29.1006.709,1.8069.6875,2.9505,2.9174,3.5934,9.8882,2.8508,9.8501,2.9656,13.4595-6.6853.5206-1.3921,1.301-2.714,1.6344-4.1445,1.4492-6.2187,5.1846-11.8613,4.2006-18.7105-1.1378-7.9198-3.2627-15.5138-6.3916-23.3637ZM75.4983,36.1873c13.41,7.9234,27.2894,12.2068,40.1042,18.7518,1.151.5879,2.1488.8149,3.1001-.3149,2.0231-2.4028,4.731-3.352,7.7311-4.0377,2.6571-.6073,2.838-3.432,3.4341-5.5108.6268-2.186-1.7875-1.9402-2.9226-2.5359-3.9673-2.0819-7.9829-4.0849-12.0626-5.9362-7.9597-3.612-15.7271-8.377-25.0835-5.3874-4.5231,1.4453-8.9757,3.1114-14.3008,4.9711ZM122.5424,61.1299c.3594,2.0598.7687,4.587,3.8434,4.4521,2.7823-.1221,3.9062-2.7865,3.9933-4.7991.1002-2.3172-1.7167-4.1624-4.4679-4.2534-3.0763-.1017-3.2971,2.0546-3.3688,4.6004Z"/>
  <path class="cls-3" d="M97.3492,119.0379c-3.1493-10.3722-7.4646-20.4995-5.3493-31.1776,2.0844-10.5219,6.7043-20.3878,11.2096-30.1626.2813-.6103.6825-1.0466,1.4649-1.1133,3.9344-.3358,14.6496,8.4111,15.1532,12.4419.0581.4657.0016,1.032-.2179,1.4335-8.4358,15.4324-13.8002,32.218-21.2171,48.0976-.0486.104-.2649.1296-1.0433.4805Z"/>
  <path class="cls-3" d="M158.1699,94.8344c-4.1915-1.1436-8.2888-.9799-11.964-2.702-6.7567-3.166-13.5366-6.2898-20.1993-9.6448-1.9335-.9736-4.75-2.09-3.9262-4.962.7632-2.6608,1.6007-4.6907,5.2239-6.4126,8.6925-4.1309,15.0604.0614,22.2743,2.9438,8.6417,3.4529,17.5051,6.3508,26.2724,9.4891,1.769.6332,4.2886,1.5415,1.284,3.3482-5.9695,3.5896-12.3995,6.304-18.9652,7.9402Z"/>
  <path class="cls-3" d="M150.5452,10.8975c3.1289,7.8499,5.2538,15.4439,6.3916,23.3637.984,6.8492-2.7514,12.4919-4.2006,18.7105-.3334,1.4306-1.1138,2.7524-1.6344,4.1445-3.6095,9.6509-3.5713,9.5361-13.4595,6.6853-2.2299-.6429-2.2085-1.7866-2.9174-3.5934-4.4354-11.3045,2.9381-19.9222,6.6508-29.1006,2.7047-6.6866,5.817-13.3117,9.1696-20.21Z"/>
  <path class="cls-3" d="M75.4983,36.1873c5.3251-1.8597,9.7777-3.5258,14.3008-4.9711,9.3563-2.9896,17.1238,1.7754,25.0835,5.3874,4.0797,1.8513,8.0953,3.8543,12.0626,5.9362,1.1352.5957,3.5494.3499,2.9226,2.5359-.5961,2.0788-.777,4.9035-3.4341,5.5108-3.0001.6857-5.708,1.6349-7.7311,4.0377-.9513,1.1298-1.9491.9028-3.1001.3149-12.8148-6.545-26.6942-10.8284-40.1042-18.7518Z"/>
  <path class="cls-2" d="M122.5424,61.1299c.0717-2.5459.2926-4.7022,3.3688-4.6004,2.7512.091,4.5682,1.9362,4.4679,4.2534-.0871,2.0127-1.2111,4.677-3.9933,4.7991-3.0747.135-3.484-2.3923-3.8434-4.4521Z"/>
</svg>