<?xml version="1.0" encoding="UTF-8"?>
<svg id="Layer_1" xmlns="http://www.w3.org/2000/svg" viewBox="0 0 230.8711 91.9426">
  <defs>
    <style>
      .cls-1 {
        fill: #dd1286;
      }

      .cls-2 {
        fill: #181515;
      }

      .cls-3 {
        fill: #fff;
      }

      .cls-4 {
        fill: #f1e5bf;
      }
    </style>
  </defs>
  <path class="cls-2" d="M211.9929,37.7071c.4143.0025.8286.005,1.2429.0075,3.5022.2189,7.0212.2965,10.5.7119,1.966.2349,3.8657,1.0252,5.7952,1.5654,2.9228,5.2984,1.0213,8.4952-5.2791,8.875-13.4835.7252-26.967,1.4505-40.4504,2.1757-15.4077.5422-30.8153,1.0845-46.223,1.6267-5.2904.2478-10.5808.4956-15.8712.7434-1.5538.0177-3.1076.0353-4.6614.0529-.6515-.0023-1.3029-.0045-1.9544-.0069-3.2044-.0439-6.4087-.0878-9.6131-.1317-4.3519-.2279-8.7027-.5525-13.0566-.6021-.8688-.0099-2.2146.8395-2.5375,1.6234-.9568,2.323-1.5123,4.8113-2.2247,7.2349-1.0459,2.1211-2.0918,4.2421-3.1378,6.3632-1.4447,2.2844-2.8895,4.5688-4.3342,6.8532-3.3722,2.9703-6.3508,6.6574-10.1949,8.7684-9.2595,5.0848-18.9269,8.9408-30.0054,8.3062-11.8416-.6784-21.1455-5.2691-28.3917-14.7192-5.2654-6.8669-9.4541-14.0945-11.1004-22.655-.7987-7.7483-.7436-15.4597,1.0025-23.0975,2.3453-6.2923,5.4052-12.107,10.1156-17.0517C20.2308,5.3049,30.3909-.3063,43.1296.0129c3.8823.0973,7.7378,1.2652,11.6055,1.9428,1.9377.355,3.8754.7101,5.8131,1.0651,2.9924,1.1083,5.9848,2.2166,8.9771,3.3248,3.547,3.5074,7.2408,6.8819,10.5836,10.5742,1.8766,2.0727,3.1729,4.6709,4.7307,7.0323,1.3877,4.4793,2.7754,8.9587,4.1631,13.438l.5366,1.788c.0377.2335.0754.467.1131.7004-.1286,1.7022.3042,2.8227,2.3518,2.2698,2.3479.0145,4.6958.029,7.0438.0434,6.2326.3377,12.4652.6754,18.6977,1.0132,6.3975-.6941,12.7951-1.3881,19.1926-2.0822l6.4114-.0292c1.0622.0576,2.129.21,3.1858.1586,15.4612-.7521,30.9221-1.5117,46.3806-2.3154,5.1063-.2655,10.2058-.6612,15.3085-.9974,1.1219-.0774,2.2438-.1547,3.3657-.2323.1341.0816.2683.0816.4025-.0002ZM41.7226,88.6102c11.1404-.0198,20.881-4.0386,29.9049-10.2975,5.6874-3.9448,8.6249-9.9224,11.6805-15.7095,1.7018-3.223,2.3593-7.0091,3.3959-10.5681.7836-2.6905.0389-4.9385-1.2793-7.5104-1.0477-2.0441-.1717-5.047-.2748-7.6192-.0318-.7946-.4734-1.573-.7285-2.3584-.9372-2.8852-1.7235-5.8305-2.8443-8.6426-2.2824-5.7264-7.3237-9.405-10.9241-14.1627-1.0114-1.3365-2.8359-2.3758-4.4888-2.8513-5.8208-1.6741-11.6971-3.1926-17.6175-4.4679-3.0849-.6646-6.371-1.2583-9.452-.9004-6.7601.7852-12.746,3.4286-18.4722,7.4707C4.6445,22.2719,1.2836,39.506,4.4103,55.8672c2.1056,11.018,9.1371,19.0481,16.7306,26.4349,5.5171,5.3669,13.057,6.2931,20.5817,6.308ZM90.1192,49.9251c3.2235,0,6.1817-.0723,9.1352.0152,5.9713.1768,11.9449.7092,17.9086.6003,7.5631-.1381,15.1136-1.029,22.6758-1.1308,15.2642-.2057,30.4963-.1292,45.7407-1.7964,11.9602-1.308,24.0838-1.1132,36.1333-1.6209,1.5886-.0669,3.1976-.2174,4.7375-.5816.5759-.1362,1.3243-.9686,1.3644-1.5287.0373-.5212-.6594-1.4133-1.2137-1.5971-1.4948-.4958-3.0935-1.009-4.6374-.971-9.1639.226-18.3267.5455-27.4848.949-13.8527.6105-27.7002,1.3407-41.5523,1.9662-4.5583.2059-9.1266.1862-13.6862.3717-10.5353.4287-21.0653,1.0062-31.603,1.3515-5.8146.1906-11.6405.0341-17.5182.0341v3.9385Z"/>
  <path class="cls-1" d="M41.7226,88.6102c-7.5247-.015-15.0646-.9412-20.5817-6.308-7.5935-7.3868-14.625-15.4169-16.7306-26.4349-3.1267-16.3613.2343-33.5954,16.2121-44.8743,5.7261-4.0421,11.7121-6.6855,18.4722-7.4707,3.081-.3579,6.3671.2358,9.452.9004,5.9203,1.2753,11.7966,2.7938,17.6175,4.4679,1.6529.4754,3.4774,1.5147,4.4888,2.8513,3.6004,4.7577,8.6417,8.4363,10.9241,14.1627,1.1208,2.812,1.9071,5.7574,2.8443,8.6426.2552.7854.6967,1.5638.7285,2.3584.103,2.5722-.773,5.5751.2748,7.6192,1.3182,2.5719,2.0629,4.8199,1.2793,7.5104-1.0366,3.559-1.6941,7.345-3.3959,10.5681-3.0556,5.7871-5.9931,11.7647-11.6805,15.7095-9.0239,6.2589-18.7646,10.2777-29.9049,10.2975ZM50.1745,8.0952c-5.9439.5361-10.6008.4637-15.0218,1.4494-12.1672,2.7129-19.5763,11.207-24.8602,21.8547-3.0883,6.2232-4.9759,12.7289-2.6242,19.7192,1.6163,4.8045,3.1581,9.6419,5.0055,14.3579,1.0684,2.7273,2.5535,5.3173,4.0721,7.8359,2.1757,3.6083,5.6993,3.7513,8.2433.4984,2.3626-3.0209,4.8184-5.9724,7.0907-9.0595,3.2025-4.3507,6.2697-8.8009,9.4016-13.2036,8.2337-11.5748,16.4842-23.1376,24.6956-34.7281,1.5888-2.2426,1.1521-4.0178-1.6691-4.9033-5.0785-1.594-10.2899-2.7643-14.3335-3.821ZM84.158,49.5898c-2.1695-10.8-4.4273-20.5842-11.579-28.4294-2.5388-2.785-3.6875-2.9947-5.3132-.6112-5.2001,7.6239-10.2397,15.3599-15.5538,22.9028-7.8755,11.1787-15.8688,22.2761-23.9507,33.3065-2.5702,3.5079-2.3126,5.8043,1.9859,6.6202,5.8206,1.1047,11.8047,1.8082,17.7217,1.829,7.6657.0269,14.1626-3.563,20.4012-7.8656,5.5202-3.8072,8.5673-9.4127,11.62-14.8995,2.2759-4.0906,3.2797-8.8892,4.668-12.8527Z"/>
  <path class="cls-4" d="M90.1192,49.9251v-3.9385c5.8777,0,11.7036.1565,17.5182-.0341,10.5378-.3453,21.0677-.9228,31.603-1.3515,4.5596-.1855,9.1279-.1658,13.6862-.3717,13.8521-.6255,27.6995-1.3558,41.5523-1.9662,9.1581-.4035,18.3209-.7231,27.4848-.949,1.544-.0381,3.1427.4752,4.6374.971.5543.1838,1.251,1.0759,1.2137,1.5971-.0401.5601-.7885,1.3925-1.3644,1.5287-1.5399.3642-3.1488.5147-4.7375.5816-12.0495.5077-24.1732.3129-36.1333,1.6209-15.2444,1.6672-30.4765,1.5907-45.7407,1.7964-7.5622.1019-15.1128.9928-22.6758,1.1308-5.9637.1089-11.9373-.4235-17.9086-.6003-2.9535-.0875-5.9117-.0152-9.1352-.0152Z"/>
  <path class="cls-2" d="M50.1745,8.0952c4.0435,1.0567,9.255,2.227,14.3335,3.821,2.8212.8855,3.2579,2.6607,1.6691,4.9033-8.2115,11.5905-16.4619,23.1533-24.6956,34.7281-3.1319,4.4027-6.1991,8.8529-9.4016,13.2036-2.2723,3.087-4.7281,6.0386-7.0907,9.0595-2.544,3.2529-6.0676,3.1099-8.2433-.4984-1.5186-2.5185-3.0037-5.1086-4.0721-7.8359-1.8474-4.716-3.3892-9.5534-5.0055-14.3579-2.3516-6.9903-.4641-13.496,2.6242-19.7192,5.2839-10.6477,12.693-19.1417,24.8602-21.8547,4.421-.9857,9.0779-.9133,15.0218-1.4494ZM44.3859,34.7269l-.0214-.0364c-.1786,3.6251-3.4969,2.679-5.5023,3.6298v10.7697c.2028.1095.4055.219.6082.3285,2.8257-4.2921,5.6514-8.5842,8.477-12.8763,3.1864-4.4726,6.3728-8.9452,9.5592-13.4178,2.1636-2.7505,4.3272-5.5011,6.7834-8.6235-3.85-.9359-6.9911-1.6994-10.1321-2.463-.9025-.1115-1.8051-.223-2.7076-.3344-.5114-.0259-1.0228-.0517-1.5342-.0776-4.5468-.0533-9.1995-1.1657-13.489,1.3508,0,0-.1735-.0655-.1735-.0655-2.7622.8788-5.9099,1.1815-8.2241,2.73C13.1159,25.6201,3.8567,43.8039,15.4407,62.9249c1.5898,3.1796,3.11,6.3981,4.8416,9.4985.2716.4863,2.0843.7829,2.2036.5827,1.855-3.1137,3.5482-6.3238,5.2789-9.5116-.0069-3.2067-.0139-6.4133-.0208-9.62.0033-.6429.0066-1.2858.0099-1.9287-.0063-1.2832-.0126-2.5663-.0189-3.8494-.0005-.4291-.001-.8583-.0014-1.2875.2598-2.2672.5197-4.5344.7781-6.7891-5.3999-.7435-8.0946-1.7744-3.8796-7.5578.0586-.0805.0626-.2008.092-.3026,0,0-.0263.029-.0263.029,1.8968-3.0148,3.6796-6.1111,5.7463-9.0047.8349-1.1689,2.2332-2.5003,3.4824-2.6179.8956-.0844,2.0422,1.6621,2.945,2.7059,1.062,1.2278,1.9814,2.5789,2.9627,3.8766,0,0,.0278.0275.0278.0275.8349,1.4144,1.6697,2.8287,2.5046,4.243.6732,1.1027,1.3464,2.2054,2.0196,3.3081Z"/>
  <path class="cls-2" d="M84.158,49.5898c-1.3883,3.9635-2.392,8.7621-4.668,12.8527-3.0527,5.4867-6.0998,11.0923-11.62,14.8995-6.2385,4.3027-12.7355,7.8925-20.4012,7.8656-5.917-.0207-11.9011-.7243-17.7217-1.829-4.2985-.8158-4.5561-3.1123-1.9859-6.6202,8.0819-11.0304,16.0752-22.1278,23.9507-33.3065,5.3141-7.543,10.3537-15.2789,15.5538-22.9028,1.6257-2.3834,2.7744-2.1737,5.3132.6112,7.1517,7.8452,9.4095,17.6294,11.579,28.4294ZM66.2196,27.356c-.2498.3401-.4995.6803-.7493,1.0204-.5792.782-1.1584,1.5639-1.7376,2.3459-.6676.8522-1.3351,1.7044-2.0026,2.5566-2.4602,3.8274-4.9203,7.6548-7.3805,11.4822-.1501.3148-.3002.6296-.4503.9443-1.9486,3.0531-3.8973,6.1062-6.1585,9.6492,1.9518-.1351,3.2037-.2217,4.4556-.3083l1.2753-.0102c4.1261-.3942,8.2531-.7781,12.3778-1.1861,3.1482-.3114,4.5684,1.3911,4.7368,4.2585.1248,2.1242.0176,4.2722-.1286,6.3999-.208,3.0271-1.8609,4.7359-4.9544,4.6745-7.7711-.1542-15.5732-.0443-23.2939-.7724-2.9189-.2753-4.4283.0885-6.1431,2.3935-2.3031,3.0956-5.1462,5.7895-8.244,9.19,7.4279,1.8197,14.1114,3.8406,21.0262,2.0829,4.6865-1.1912,9.5975-2.5114,13.6144-5.0367,3.9033-2.4539,9.1043-3.5707,10.8359-9.1866,1.5571-5.0499,4.2032-9.7639,6.3689-14.6261,1.4841-4.1423.5903-8.1782-.5459-12.2032-1.5486-4.1208-2.9444-8.3098-4.7339-12.3232-.5763-1.2926-2.1892-2.1229-3.3279-3.1646-.5889-.6573-1.1778-1.3146-1.8323-2.0452-1.1312,1.4534-2.0696,2.6589-3.0079,3.8645Z"/>
  <path class="cls-3" d="M39.834,27.1482c-.9813-1.2977-1.9007-2.6488-2.9627-3.8766-.9028-1.0438-2.0494-2.7902-2.945-2.7059-1.2492.1176-2.6475,1.449-3.4824,2.6179-2.0666,2.8935-3.8494,5.9898-5.7464,9.0045-.2078-.602-.4155-1.204-.6231-1.8059-.2416.178-.4831.3559-.7247.5339.4581.4144.9161.8287,1.3742,1.2431-.0294.1018-.0334.2221-.092.3026-4.215,5.7834-1.5203,6.8143,3.8796,7.5578-.2584,2.2547-.5182,4.5219-.7781,6.7891-1.9849-.6326-3.9697-1.2653-6.6055-2.1053.5908,2.0763.9484,3.3332,1.3141,4.6185,2.0035-.4639,3.6481-.8448,5.2928-1.2256.0063,1.2831.0126,2.5662.0189,3.8494-1.1808.3402-2.3616.6805-3.5424,1.0207.0624.3027.1247.6053.1871.908h3.3453c.0069,3.2067.0139,6.4133.0208,9.6201-.554-1.2328-1.1079-2.4656-1.4291-3.1805-2.3232-.9048-4.7184-1.2688-6.263-2.6115-1.3405-1.1652-1.7178-3.4386-2.5208-5.2223l-.925.3382c-.371,2.5701-3.3769,5.0462-.0434,7.8246.1493.1244-.7381,1.4928-1.1426,2.2817C3.8567,43.8039,13.1159,25.6201,28.0295,15.641c2.3142-1.5485,5.4618-1.8511,8.2261-2.7275.8393.4358,1.6765.869,2.5138,1.3022.0931-.2312.1862-.4624.2793-.6936-.8739-.1819-1.7477-.3637-2.6216-.5456,4.2895-2.5164,8.9423-1.4041,13.489-1.3508-.1067,1.9552-.2134,3.9104-.3199,5.8627-3.4557-.1323-6.7256,1.7862-7.2779,4.6353,2.143-.6383,4.0795-1.021,5.8504-1.7866,2.8535-1.2337,4.8012-.1912,6.4232,2.0951.4531-.5881.8829-1.146,1.3912-1.8057.5884.9646,1.056,1.7312,1.5236,2.4978-3.1864,4.4726-6.3728,8.9452-9.5592,13.4178-1.1943-.6173-2.3886-1.2345-3.583-1.8517,0,0,.0214.0364.0215.0364.3958-1.7556,1.9815-4.2378-2.0197-3.3081-.8349-1.4144-1.6697-2.8287-2.5052-4.2445.4126-.496.8258-.9906,1.239-1.4852-.2381-.1388-.4762-.2776-.7143-.4165-.184.6252-.3679,1.2504-.5519,1.8756ZM18.0306,37.5877c-.372-.0363-.7441-.0726-1.1161-.1089-.1288,2.1645-.2576,4.329-.3863,6.4935,3.3596-1.8308.9246-4.2608,1.5024-6.3846ZM18.5613,48.9336c-.0144.2453-.0289.4905-.0433.7357.5946.0291,1.1892.0582,1.7838.0873.0127-.2416.0255-.4832.0382-.7249-.5929-.0327-1.1859-.0654-1.7788-.0982Z"/>
  <path class="cls-3" d="M15.4407,62.9249c.4045-.789,1.2919-2.1573,1.1426-2.2817-3.3335-2.7784-.3276-5.2546.0434-7.8246l.925-.3382c.803,1.7836,1.1803,4.0571,2.5208,5.2223,1.5447,1.3427,3.9399,1.7067,6.263,2.6115.3212.7149.8752,1.9477,1.4291,3.1805-1.7306,3.1878-3.4239,6.3978-5.2789,9.5116-.1193.2002-1.932-.0964-2.2036-.5827-1.7316-3.1004-3.2518-6.3189-4.8416-9.4985Z"/>
  <path class="cls-3" d="M57.5067,23.1244c-.4676-.7666-.9352-1.5333-1.5236-2.4978-.5083.6598-.9381,1.2176-1.3912,1.8057-1.622-2.2863-3.5697-3.3288-6.4232-2.0951-1.7709.7656-3.7074,1.1484-5.8504,1.7866.5524-2.8491,3.8222-4.7677,7.2779-4.6353.1065-1.9523.2132-3.9075.3199-5.8627.5114.0259,1.0228.0517,1.5342.0776.5949,2.602,1.6747,1.2782,2.7076.3345,3.1411.7636,6.2821,1.5271,10.1321,2.463-2.4561,3.1224-4.6198,5.8729-6.7834,8.6235Z"/>
  <path class="cls-3" d="M44.3646,34.6904c1.1943.6172,2.3886,1.2345,3.583,1.8517-2.8257,4.2922-5.6513,8.5843-8.477,12.8763-.2028-.1095-.4055-.219-.6082-.3285v-10.7697c2.0054-.9509,5.3237-.0048,5.5023-3.6298Z"/>
  <path class="cls-3" d="M71.0599,25.5366c1.1387,1.0418,2.7516,1.8721,3.3279,3.1646,1.7894,4.0134,3.1853,8.2023,4.7339,12.3232-2.7769-1.0832-1.5406,1.2248-1.9094,2.2219-.3545.9587-.8277,1.8735-1.2487,2.8076-.4336-.9231-1.1182-1.812-1.2494-2.7763-.2872-2.1116.492-4.5302-1.458-5.6502-2.0858.9248-3.9331,1.3901-5.3176,2.4565-1.4051,1.0823-3.2294,2.6889-3.3473,4.1858-.4667,5.9235.6019,6.6792,6.5881,5.8972.1621-.0212.3542.1872.6815.3733-.3241,1.3473-.6577,2.7346-.9921,4.1246,4.8571,2.1492,3.3249-3.7151,4.9375-4.0345,1.6897,1.1365,2.7755,1.8668,3.8613,2.5971-2.1657,4.8622-4.8118,9.5762-6.3689,14.6261-1.7317,5.6159-6.9326,6.7327-10.8359,9.1866-4.0169,2.5253-8.9279,3.8454-13.6144,5.0367-6.9148,1.7576-13.5983-.2632-21.0262-2.0829,3.0979-3.4005,5.9409-6.0944,8.244-9.19,1.7149-2.305,3.2242-2.6688,6.1431-2.3935,7.7207.7281,15.5228.6182,23.2939.7724,3.0935.0614,4.7465-1.6474,4.9544-4.6745.1462-2.1277.2533-4.2757.1286-6.3999-.1684-2.8674-1.5885-4.57-4.7368-4.2585-4.1247.408-8.2518.7918-12.3778,1.1861-.2137-.2953-.4275-.5906-.6412-.8859-.2114.2987-.4227.5974-.6341.8961-1.2519.0866-2.5038.1732-4.4556.3083,2.2613-3.543,4.2099-6.5961,6.1586-9.6491,1.4877,3.5617,2.5143.7361,3.7161.338.0039-.3109.0078-.6218.0118-.9327-1.0925-.1165-2.1851-.2331-3.2776-.3496,2.4602-3.8274,4.9203-7.6548,7.3805-11.4822.2436.4449.4872.8898.7308,1.3347.2124,1.2855.4249,2.571.6374,3.8565.1677.5571.3354,1.1143.503,1.6716.249-.1673.4979-.3347.7469-.502-.4123-.3939-.8246-.7879-1.2368-1.1818.4241-1.2886.8481-2.5773,1.2722-3.8659l-.6508-3.8696c.5792-.782,1.1584-1.5639,1.7376-2.3459,1.5937,2,1.7578.315,2.1323-.8274,1.1524-.6708,2.3048-1.3416,3.4573-2.0124ZM72.6367,57.0366c-.213.2727-.4261.5454-.6391.818.5258.9943,1.0516,1.9887,1.7852,3.376.9991-1.1605,1.6213-1.8833,2.6287-3.0535-1.6282-.4919-2.7015-.8162-3.7748-1.1405ZM58.0226,41.418c-.2761.9076-.5003,1.2994-.4783,1.6769.0189.3246.3189.6328.4946.9483.3576-.2441.8022-.429,1.029-.7622.0882-.1295-.315-.5937-1.0454-1.8631ZM66.6088,33.4935c.1659.0721.3318.1443.4977.2165.0718-.1665.2358-.3687.1891-.4894-.0459-.1187-.3057-.1546-.4716-.2267-.0719.166-.1439.332-.2152.4996ZM53.8568,51.7971c-.166-.0712-.3678-.2342-.4879-.1875-.1183.046-.1539.3046-.2258.47.1655.0714.3674.2352.4863.1883.1191-.0469.1554-.3042.2274-.4708Z"/>
  <path class="cls-3" d="M79.6676,53.2276c-1.0858-.7303-2.1715-1.4606-3.8613-2.5971-1.6126.3193-.0804,6.1836-4.9375,4.0345.3344-1.3901.668-2.7773.9921-4.1246-.3273-.1861-.5194-.3944-.6815-.3733-5.9862.782-7.0548.0263-6.5881-5.8972.1179-1.4969,1.9422-3.1035,3.3473-4.1858,1.3845-1.0664,3.2318-1.5317,5.3176-2.4565,1.9499,1.1199,1.1707,3.5386,1.458,5.6502.1311.9643.8158,1.8532,1.2494,2.7763.421-.9341.8942-1.8489,1.2487-2.8076.3688-.9971-.8675-3.3051,1.9094-2.2219,1.1362,4.025,2.03,8.0609.5459,12.2032Z"/>
</svg>