<?xml version="1.0" encoding="UTF-8"?>
<svg id="Layer_1" xmlns="http://www.w3.org/2000/svg" viewBox="0 0 91.94 230.87">
  <defs>
    <style>
      .cls-1 {
        fill: #dd1086;
      }

      .cls-2 {
        fill: #fff;
      }

      .cls-3 {
        fill: #161313;
      }

      .cls-4 {
        fill: #f2e5bf;
      }
    </style>
  </defs>
  <path class="cls-3" d="M54.24,211.99c0,.41,0,.83,0,1.24-.22,3.5-.3,7.02-.71,10.5-.23,1.97-1.03,3.87-1.57,5.8-5.3,2.92-8.5,1.02-8.87-5.28-.73-13.48-1.45-26.97-2.18-40.45-.54-15.41-1.08-30.82-1.63-46.22-.25-5.29-.5-10.58-.74-15.87-.02-1.55-.04-3.11-.05-4.66,0-.65,0-1.3,0-1.95.04-3.2.09-6.41.13-9.61.23-4.35.55-8.7.6-13.06,0-.87-.84-2.21-1.62-2.54-2.32-.96-4.81-1.51-7.23-2.22-2.12-1.05-4.24-2.09-6.36-3.14-2.28-1.44-4.57-2.89-6.85-4.33-2.97-3.37-6.66-6.35-8.77-10.19C3.29,60.73-.57,51.07.07,39.99c.68-11.84,5.27-21.15,14.72-28.39C21.65,6.33,28.88,2.14,37.44.5c7.75-.8,15.46-.74,23.1,1,6.29,2.35,12.11,5.41,17.05,10.12,9.05,8.62,14.66,18.78,14.34,31.52-.1,3.88-1.27,7.74-1.94,11.61-.36,1.94-.71,3.88-1.07,5.81-1.11,2.99-2.22,5.98-3.32,8.98-3.51,3.55-6.88,7.24-10.57,10.58-2.07,1.88-4.67,3.17-7.03,4.73-4.48,1.39-8.96,2.78-13.44,4.16l-1.79.54c-.23.04-.47.08-.7.11-1.7-.13-2.82.3-2.27,2.35-.01,2.35-.03,4.7-.04,7.04-.34,6.23-.68,12.47-1.01,18.7.69,6.4,1.39,12.8,2.08,19.19l.03,6.41c-.06,1.06-.21,2.13-.16,3.19.75,15.46,1.51,30.92,2.32,46.38.27,5.11.66,10.21,1,15.31.08,1.12.15,2.24.23,3.37-.08.13-.08.27,0,.4ZM3.33,41.72c.02,11.14,4.04,20.88,10.3,29.9,3.94,5.69,9.92,8.62,15.71,11.68,3.22,1.7,7.01,2.36,10.57,3.4,2.69.78,4.94.04,7.51-1.28,2.04-1.05,5.05-.17,7.62-.27.79-.03,1.57-.47,2.36-.73,2.89-.94,5.83-1.72,8.64-2.84,5.73-2.28,9.41-7.32,14.16-10.92,1.34-1.01,2.38-2.84,2.85-4.49,1.67-5.82,3.19-11.7,4.47-17.62.66-3.08,1.26-6.37.9-9.45-.79-6.76-3.43-12.75-7.47-18.47C69.67,4.64,52.44,1.28,36.08,4.41c-11.02,2.11-19.05,9.14-26.43,16.73-5.37,5.52-6.29,13.06-6.31,20.58ZM42.02,90.12c0,3.22.07,6.18-.02,9.14-.18,5.97-.71,11.94-.6,17.91.14,7.56,1.03,15.11,1.13,22.68.21,15.26.13,30.5,1.8,45.74,1.31,11.96,1.11,24.08,1.62,36.13.07,1.59.22,3.2.58,4.74.14.58.97,1.32,1.53,1.36.52.04,1.41-.66,1.6-1.21.5-1.49,1.01-3.09.97-4.64-.23-9.16-.55-18.33-.95-27.48-.61-13.85-1.34-27.7-1.97-41.55-.21-4.56-.19-9.13-.37-13.69-.43-10.54-1.01-21.07-1.35-31.6-.19-5.81-.03-11.64-.03-17.52h-3.94Z"/>
  <path class="cls-1" d="M3.33,41.72c.01-7.52.94-15.06,6.31-20.58,7.39-7.59,15.42-14.63,26.43-16.73,16.36-3.13,33.6.23,44.87,16.21,4.04,5.73,6.69,11.71,7.47,18.47.36,3.08-.24,6.37-.9,9.45-1.28,5.92-2.79,11.8-4.47,17.62-.48,1.65-1.51,3.48-2.85,4.49-4.76,3.6-8.44,8.64-14.16,10.92-2.81,1.12-5.76,1.91-8.64,2.84-.79.26-1.56.7-2.36.73-2.57.1-5.58-.77-7.62.27-2.57,1.32-4.82,2.06-7.51,1.28-3.56-1.04-7.35-1.69-10.57-3.4-5.79-3.06-11.76-5.99-15.71-11.68-6.26-9.02-10.28-18.76-10.3-29.9ZM83.85,50.17c-.54-5.94-.46-10.6-1.45-15.02-2.71-12.17-11.21-19.58-21.85-24.86-6.22-3.09-12.73-4.98-19.72-2.62-4.8,1.62-9.64,3.16-14.36,5.01-2.73,1.07-5.32,2.55-7.84,4.07-3.61,2.18-3.75,5.7-.5,8.24,3.02,2.36,5.97,4.82,9.06,7.09,4.35,3.2,8.8,6.27,13.2,9.4,11.57,8.23,23.14,16.48,34.73,24.7,2.24,1.59,4.02,1.15,4.9-1.67,1.59-5.08,2.76-10.29,3.82-14.33ZM42.35,84.16c10.8-2.17,20.58-4.43,28.43-11.58,2.78-2.54,2.99-3.69.61-5.31-7.62-5.2-15.36-10.24-22.9-15.55-11.18-7.88-22.28-15.87-33.31-23.95-3.51-2.57-5.8-2.31-6.62,1.99-1.1,5.82-1.81,11.8-1.83,17.72-.03,7.67,3.56,14.16,7.87,20.4,3.81,5.52,9.41,8.57,14.9,11.62,4.09,2.28,8.89,3.28,12.85,4.67Z"/>
  <path class="cls-4" d="M42.02,90.12h3.94c0,5.88-.16,11.7.03,17.52.35,10.54.92,21.07,1.35,31.6.19,4.56.17,9.13.37,13.69.63,13.85,1.36,27.7,1.97,41.55.4,9.16.72,18.32.95,27.48.04,1.54-.48,3.14-.97,4.64-.18.55-1.08,1.25-1.6,1.21-.56-.04-1.39-.79-1.53-1.36-.36-1.54-.51-3.15-.58-4.74-.51-12.05-.31-24.17-1.62-36.13-1.67-15.24-1.59-30.48-1.8-45.74-.1-7.56-.99-15.11-1.13-22.68-.11-5.96.42-11.94.6-17.91.09-2.95.02-5.91.02-9.14Z"/>
  <path class="cls-3" d="M83.85,50.17c-1.06,4.04-2.23,9.25-3.82,14.33-.89,2.82-2.66,3.26-4.9,1.67-11.59-8.21-23.15-16.46-34.73-24.7-4.4-3.13-8.85-6.2-13.2-9.4-3.09-2.27-6.04-4.73-9.06-7.09-3.25-2.54-3.11-6.07.5-8.24,2.52-1.52,5.11-3,7.84-4.07,4.72-1.85,9.55-3.39,14.36-5.01,6.99-2.35,13.5-.46,19.72,2.62,10.65,5.28,19.14,12.69,21.85,24.86.99,4.42.91,9.08,1.45,15.02ZM57.22,44.39l.04-.02c-3.63-.18-2.68-3.5-3.63-5.5h-10.77c-.11.2-.22.41-.33.61,4.29,2.83,8.58,5.65,12.88,8.48,4.47,3.19,8.95,6.37,13.42,9.56,2.75,2.16,5.5,4.33,8.62,6.78.94-3.85,1.7-6.99,2.46-10.13.11-.9.22-1.81.33-2.71.03-.51.05-1.02.08-1.53.05-4.55,1.17-9.2-1.35-13.49,0,0,.07-.17.07-.17-.88-2.76-1.18-5.91-2.73-8.22-9.98-14.91-28.16-24.17-47.28-12.59-3.18,1.59-6.4,3.11-9.5,4.84-.49.27-.78,2.08-.58,2.2,3.11,1.85,6.32,3.55,9.51,5.28,3.21,0,6.41-.01,9.62-.02.64,0,1.29,0,1.93,0,1.28,0,2.57-.01,3.85-.02.43,0,.86,0,1.29,0,2.27.26,4.53.52,6.79.78.74-5.4,1.77-8.09,7.56-3.88.08.06.2.06.3.09,0,0-.03-.03-.03-.03,3.01,1.9,6.11,3.68,9,5.75,1.17.83,2.5,2.23,2.62,3.48.08.9-1.66,2.04-2.71,2.94-1.23,1.06-2.58,1.98-3.88,2.96,0,0-.03.03-.03.03-1.41.83-2.83,1.67-4.24,2.5-1.1.67-2.21,1.35-3.31,2.02Z"/>
  <path class="cls-3" d="M42.35,84.16c-3.96-1.39-8.76-2.39-12.85-4.67-5.49-3.05-11.09-6.1-14.9-11.62-4.3-6.24-7.89-12.74-7.87-20.4.02-5.92.72-11.9,1.83-17.72.82-4.3,3.11-4.56,6.62-1.99,11.03,8.08,22.13,16.08,33.31,23.95,7.54,5.31,15.28,10.35,22.9,15.55,2.38,1.63,2.17,2.77-.61,5.31-7.85,7.15-17.63,9.41-28.43,11.58ZM64.59,66.22c-.34-.25-.68-.5-1.02-.75-.78-.58-1.56-1.16-2.35-1.74-.85-.67-1.7-1.34-2.56-2-3.83-2.46-7.65-4.92-11.48-7.38-.31-.15-.63-.3-.94-.45-3.05-1.95-6.11-3.9-9.65-6.16.14,1.95.22,3.2.31,4.46v1.28c.4,4.13.79,8.25,1.2,12.38.31,3.15-1.39,4.57-4.26,4.74-2.12.12-4.27.02-6.4-.13-3.03-.21-4.74-1.86-4.67-4.95.15-7.77.04-15.57.77-23.29.28-2.92-.09-4.43-2.39-6.14-3.1-2.3-5.79-5.15-9.19-8.24-1.82,7.43-3.84,14.11-2.08,21.03,1.19,4.69,2.51,9.6,5.04,13.61,2.45,3.9,3.57,9.1,9.19,10.84,5.05,1.56,9.76,4.2,14.63,6.37,4.14,1.48,8.18.59,12.2-.55,4.12-1.55,8.31-2.94,12.32-4.73,1.29-.58,2.12-2.19,3.16-3.33.66-.59,1.31-1.18,2.05-1.83-1.45-1.13-2.66-2.07-3.86-3.01Z"/>
  <path class="cls-2" d="M64.79,39.83c1.3-.98,2.65-1.9,3.88-2.96,1.04-.9,2.79-2.05,2.71-2.94-.12-1.25-1.45-2.65-2.62-3.48-2.89-2.07-5.99-3.85-9-5.75.6-.21,1.2-.42,1.81-.62-.18-.24-.36-.48-.53-.72-.41.46-.83.92-1.24,1.37-.1-.03-.22-.03-.3-.09-5.78-4.22-6.81-1.52-7.56,3.88-2.25-.26-4.52-.52-6.79-.78.63-1.98,1.27-3.97,2.11-6.61-2.08.59-3.33.95-4.62,1.31.46,2,.84,3.65,1.23,5.29-1.28,0-2.57.01-3.85.02-.34-1.18-.68-2.36-1.02-3.54-.3.06-.61.12-.91.19v3.35c-3.21,0-6.41.01-9.62.02,1.23-.55,2.47-1.11,3.18-1.43.9-2.32,1.27-4.72,2.61-6.26,1.17-1.34,3.44-1.72,5.22-2.52l-.34-.93c-2.57-.37-5.05-3.38-7.82-.04-.12.15-1.49-.74-2.28-1.14,19.12-11.58,37.3-2.32,47.28,12.59,1.55,2.31,1.85,5.46,2.73,8.23-.44.84-.87,1.68-1.3,2.51.23.09.46.19.69.28.18-.87.36-1.75.55-2.62,2.52,4.29,1.4,8.94,1.35,13.49-1.96-.11-3.91-.21-5.86-.32.13-3.46-1.79-6.73-4.64-7.28.64,2.14,1.02,4.08,1.79,5.85,1.23,2.85.19,4.8-2.1,6.42.59.45,1.15.88,1.81,1.39-.96.59-1.73,1.06-2.5,1.52-4.47-3.19-8.95-6.37-13.42-9.56.62-1.19,1.23-2.39,1.85-3.58,0,0-.04.02-.04.02,1.76.4,4.24,1.98,3.31-2.02,1.41-.83,2.83-1.67,4.24-2.51.5.41.99.83,1.49,1.24.14-.24.28-.48.42-.71-.63-.18-1.25-.37-1.88-.55ZM54.35,18.03c.04-.37.07-.74.11-1.12-2.16-.13-4.33-.26-6.49-.39,1.83,3.36,4.26.92,6.38,1.5ZM43.01,18.56c-.25-.01-.49-.03-.74-.04-.03.59-.06,1.19-.09,1.78.24.01.48.03.72.04.03-.59.07-1.19.1-1.78Z"/>
  <path class="cls-2" d="M29.02,15.44c.79.4,2.16,1.29,2.28,1.14,2.78-3.33,5.25-.33,7.82.04l.34.93c-1.78.8-4.06,1.18-5.22,2.52-1.34,1.54-1.71,3.94-2.61,6.26-.71.32-1.95.88-3.18,1.43-3.19-1.73-6.4-3.42-9.51-5.28-.2-.12.1-1.93.58-2.2,3.1-1.73,6.32-3.25,9.5-4.84Z"/>
  <path class="cls-2" d="M68.82,57.51c.77-.47,1.53-.94,2.5-1.52-.66-.51-1.22-.94-1.81-1.39,2.29-1.62,3.33-3.57,2.1-6.42-.77-1.77-1.15-3.71-1.79-5.85,2.85.55,4.77,3.82,4.64,7.28,1.95.11,3.91.21,5.86.32-.03.51-.05,1.02-.08,1.53-2.6.59-1.28,1.67-.33,2.71-.76,3.14-1.53,6.28-2.46,10.13-3.12-2.46-5.87-4.62-8.62-6.78Z"/>
  <path class="cls-2" d="M57.25,44.36c-.62,1.19-1.23,2.39-1.85,3.58-4.29-2.83-8.58-5.65-12.88-8.48.11-.2.22-.41.33-.61h10.77c.95,2.01,0,5.32,3.63,5.5Z"/>
  <path class="cls-2" d="M66.41,71.06c-1.04,1.14-1.87,2.75-3.16,3.33-4.01,1.79-8.2,3.19-12.32,4.73,1.08-2.78-1.22-1.54-2.22-1.91-.96-.35-1.87-.83-2.81-1.25.92-.43,1.81-1.12,2.78-1.25,2.11-.29,4.53.49,5.65-1.46-.92-2.09-1.39-3.93-2.46-5.32-1.08-1.41-2.69-3.23-4.19-3.35-5.92-.47-6.68.6-5.9,6.59.02.16-.19.35-.37.68-1.35-.32-2.73-.66-4.12-.99-2.15,4.86,3.72,3.32,4.03,4.94-1.14,1.69-1.87,2.78-2.6,3.86-4.86-2.17-9.58-4.81-14.63-6.37-5.62-1.73-6.73-6.93-9.19-10.84-2.53-4.02-3.85-8.93-5.04-13.61-1.76-6.91.26-13.6,2.08-21.03,3.4,3.1,6.09,5.94,9.19,8.24,2.3,1.71,2.67,3.22,2.39,6.14-.73,7.72-.62,15.52-.77,23.29-.06,3.09,1.65,4.75,4.67,4.95,2.13.15,4.28.25,6.4.13,2.87-.17,4.57-1.59,4.26-4.74-.41-4.12-.79-8.25-1.19-12.38.3-.21.59-.43.89-.64-.3-.21-.6-.42-.9-.63-.09-1.25-.17-2.5-.31-4.46,3.54,2.26,6.6,4.21,9.65,6.16-3.56,1.49-.74,2.51-.34,3.72.31,0,.62,0,.93.01.12-1.09.23-2.19.35-3.28,3.83,2.46,7.65,4.92,11.48,7.38-.44.24-.89.49-1.33.73-1.29.21-2.57.42-3.86.64-.56.17-1.11.34-1.67.5.17.25.33.5.5.75.39-.41.79-.82,1.18-1.24,1.29.42,2.58.85,3.87,1.27l3.87-.65c.78.58,1.56,1.16,2.35,1.74-2,1.59-.31,1.76.83,2.13.67,1.15,1.34,2.3,2.01,3.46ZM34.91,72.64c-.27-.21-.55-.43-.82-.64-.99.53-1.99,1.05-3.38,1.79,1.16,1,1.88,1.62,3.05,2.63.49-1.63.82-2.7,1.14-3.77ZM50.52,58.02c-.91-.28-1.3-.5-1.68-.48-.32.02-.63.32-.95.49.24.36.43.8.76,1.03.13.09.59-.32,1.86-1.05ZM58.45,66.61c-.07.17-.14.33-.22.5.17.07.37.24.49.19.12-.05.15-.31.23-.47-.17-.07-.33-.14-.5-.22ZM40.15,53.86c.07-.17.23-.37.19-.49-.05-.12-.3-.15-.47-.23-.07.17-.24.37-.19.49.05.12.3.16.47.23Z"/>
  <path class="cls-2" d="M38.71,79.67c.73-1.09,1.46-2.17,2.6-3.86-.32-1.61-6.18-.08-4.03-4.94,1.39.33,2.78.67,4.12.99.19-.33.39-.52.37-.68-.78-5.99-.03-7.05,5.9-6.59,1.5.12,3.1,1.94,4.19,3.35,1.07,1.38,1.53,3.23,2.46,5.32-1.12,1.95-3.54,1.17-5.65,1.46-.96.13-1.85.82-2.78,1.25.93.42,1.85.89,2.81,1.25,1,.37,3.31-.87,2.22,1.91-4.02,1.14-8.06,2.03-12.2.55Z"/>
</svg>