<?xml version="1.0" encoding="UTF-8"?>
<svg id="Layer_1" xmlns="http://www.w3.org/2000/svg" viewBox="0 0 167.71 255.47">
  <defs>
    <style>
      .cls-1 {
        fill: #8d9dab;
      }

      .cls-2 {
        fill: #1c1e24;
      }

      .cls-3 {
        fill: #dfd987;
      }

      .cls-4 {
        fill: #b2b29b;
      }

      .cls-5 {
        fill: #384255;
      }

      .cls-6 {
        fill: #332c33;
      }

      .cls-7 {
        fill: #5e8cc1;
      }

      .cls-8 {
        fill: #adcfed;
      }

      .cls-9 {
        fill: #c9dff3;
      }

      .cls-10 {
        fill: #fff;
      }

      .cls-11 {
        fill: #e6252a;
      }

      .cls-12 {
        fill: #818385;
      }

      .cls-13 {
        fill: #252a3b;
      }

      .cls-14 {
        fill: #346184;
      }

      .cls-15 {
        fill: #616161;
      }

      .cls-16 {
        fill: #70a3d6;
      }

      .cls-17 {
        fill: #0f111b;
      }
    </style>
  </defs>
  <path class="cls-6" d="M96.36,184.64c-.61-.17-1.21-.34-1.82-.5-1.42-.36-2.84-.72-4.27-1.07-1.44-.35-2.89-.68-4.32-1.05-1.32-.34-2.63-.73-3.95-1.11-1.11-.32-2.23-.64-3.32-1.01-.96-.33-1.9-.71-2.84-1.1-1.32-.55-2.62-1.13-3.94-1.68-2.17-.91-4.34-1.8-6.25-3.23-1.67-1.25-3.5-2.31-5.15-3.59-1.86-1.44-3.69-2.95-5.13-4.85-1.24-1.64-2.59-3.21-3.51-5.07-.61-1.22-1.4-2.35-2.04-3.56-1.65-3.1-2.92-6.35-3.49-9.83-.28-1.72-.61-3.44-.79-5.17-.19-1.79-.33-3.59-.34-5.39-.01-1.94.37-3.85.82-5.74.53-2.23,1.14-4.42,1.97-6.56.35-.9.83-1.76,1.25-2.63.56-1.17,1.09-2.35,1.69-3.49.63-1.2,1.31-2.37,2-3.54.73-1.24,1.52-2.45,2.26-3.69.52-.86,1-1.76,1.53-2.62.29-.47.64-.9.98-1.33.91-1.16,1.55-2.49,2.21-3.79.34-.48.69-.96,1.03-1.44.15-.25.29-.5.44-.75.16-.2.36-.38.49-.59.88-1.54,1.75-3.09,2.61-4.64.37-.24.44-.58.33-.98.4-.63.84-1.23,1.19-1.88.35-.66.61-1.37.91-2.05.41-.21.29-.61.33-.95.12-.11.3-.21.35-.35.48-1.2.94-2.41,1.38-3.62.15-.42.21-.87.32-1.31.38-.2.39-.49.21-.83.3-.36.59-.72.47-1.23.21-.27.53-.51.3-.92.21-.68.4-1.37.65-2.03.15-.39.12-.72-.07-1.06.39-.13.44-.37.26-.71.39-.43.36-.97.38-1.5.18-.26.34-.52.11-.84.1-.59.2-1.18.3-1.77.08-.3.15-.6.23-.89.01-.35.03-.7.04-1.04.2-.41.23-.83.09-1.26.04-.32.07-.64.12-.96.06-.43.18-.87-.1-1.27.11-.19.28-.36.31-.56.07-.5.06-1.01.09-1.51-.03-.34-.08-.68-.1-1.03-.08-1.09-.15-2.18-.22-3.27.07-.23.24-.5.19-.7-.28-1.03-.63-2.04-.95-3.05-.04-.08-.09-.15-.11-.23-.3-1.77-.94-3.42-1.76-5.01-.08-.16-.22-.31-.22-.47-.01-.8-.56-1.33-.94-1.94-.3-.49-.71-.92-1.06-1.37-.1-.08-.24-.15-.29-.25-.43-1.09-.98-2.1-1.91-2.85-.05-.11-.1-.22-.14-.32.44-.33.08-.64-.05-.92-2.25-5.11-4.51-10.21-6.76-15.32-.25-.58-.74-1.05-.76-1.72.89.36,1.77.75,2.67,1.09,2.13.82,4.23,1.68,6.23,2.79,2.34,1.31,4.75,2.5,6.73,4.36,1.04.98,2.08,1.95,3.15,2.9,1.38,1.22,2.72,2.47,3.79,3.98.97,1.38,2.01,2.7,2.9,4.15,1.01,1.64,1.82,3.36,2.73,5.04.08.15.14.32.2.49.44,1.26.89,2.53,1.32,3.8.37,1.13.77,2.26,1.05,3.42.32,1.3.55,2.62.78,3.94.12.66.23,1.33.21,2-.08,2.56.14,5.14-.42,7.68-.3,1.39-.46,2.82-.75,4.22-.21,1-.49,1.98-.8,2.95-.37,1.17-.7,2.36-1.24,3.45-.78,1.58-1.56,3.17-2.48,4.69-1.9,3.14-3.62,6.4-5.42,9.6-1,1.78-2.04,3.54-3.05,5.32-1.95,3.45-3.87,6.93-5.84,10.37-.75,1.32-1.61,2.57-2.38,3.87-.72,1.23-1.38,2.5-2.07,3.75-.45.82-.96,1.61-1.35,2.45-.46,1-.78,2.07-1.25,3.08-.73,1.57-1.26,3.19-1.61,4.88-.37,1.77-.73,3.54-1.02,5.32-.21,1.32-.38,2.67-.18,4.01.4,2.65.56,5.34,1.41,7.9.46,1.38.64,2.85,1.37,4.14.61,1.06,1.13,2.18,1.85,3.17,1.18,1.62,2.44,3.2,3.76,4.71.93,1.07,2,2.04,3.04,3.01,1.57,1.46,3.38,2.58,5.33,3.48.9.42,1.81.82,2.73,1.2,1.29.53,2.58,1.05,3.9,1.51,1.02.36,2.06.65,3.1.91,1.02.26,2.04.48,3.08.64.5.08,1.04,0,1.54-.02.66,1.31,1.32,2.56,1.95,3.84.87,1.78,1.71,3.58,2.58,5.36.25.52.58,1.01.84,1.53.28.57.52,1.16.79,1.77-.18.1-.3.17-.43.24ZM58.37,121.37c-.25.1-.31.25-.11.46.06.16.11.32.17.48.44,1.32,1.68,1.45,2.73,1.87.6.02.78-.37.87-.87.12-.23.24-.45.36-.68.02-.11.05-.21.07-.32.38-.26.58-.52.31-1.02-.22-.42-.32-.9.21-1.23.03.07.07.13.1.2-.26.31-.14.61,0,.92-.02.05-.04.09-.05.14.05-.04.1-.07.15-.11.04-.04.1-.07.12-.12.43-.86.76-1.78,1.75-2.2.09-.04.16-.18.19-.28.09-.42.15-.84.22-1.26.11-.23.23-.45.34-.69.2-.46.4-.92.6-1.38.02-.05.02-.09.02-.14.01-.13.06-.27.03-.39-.15-.53-.6-.8-1-1.14-1.15-.98-2.44-.92-3.18.68-.13.28-.32.52-.49.78-.04.07-.08.15-.11.22-.25.3-.66.58-.7.9-.07.62-.41,1.03-.76,1.47-.07.09-.02.26-.02.4h0c-.37.12-.41.41-.34.74-.06.08-.11.15-.17.23-.1.06-.23.1-.28.18-.37.63-.72,1.26-1.07,1.9-.03.05.03.16.05.24h0ZM78.42,64.13c-.21-.4-.55-.77-.23-1.26.11.26.2.54.35.78.08.12.28.17.55.33-.06-.32-.09-.45-.12-.58-.15-.87-.25-1.73.06-2.59-.15-.45-.31-.9-.46-1.35.03-.06.02-.11-.02-.16v-.02c-.03-.18-.06-.36-.09-.54-.11-.4-.23-.81-.34-1.21-.16-.26-.32-.52-.48-.78-.71-.46-2.08-.43-2.75-.02-.55.33-.7.84-.69,1.39,0,.61.14,1.22.22,1.83-.03.08-.06.17-.09.25-.03.36-.13.72-.08,1.07.05.43.24.85.33,1.28.08.4.12.82.17,1.23.23-.06.36-.09.56-.13.05.29.1.56.15.84-.37.34-.31-.32-.65-.28.08.86.16,1.68.23,2.5.03.33.17.54.5.6.04.04.09.08.13.12.72.54,1.53.42,2.3.22.44-.11,1.03.12,1.29-.47,0-.31.02-.63.03-.94-.09-.6-.16-1.21-.28-1.81-.02-.09-.27-.13-.41-.19-.06-.04-.12-.07-.18-.11ZM73.63,176.29c1.1-.69,1.57-1.81,2.03-2.95.18-.45.04-.71-.34-.94-.59-.37-1.18-.74-1.76-1.14-1.05-.72-2.09-1.46-3.13-2.18,0-.29,0-.57,0-.96-.44-.09-.86-.17-1.27-.27-.19-.05-.37-.13-.55-.21-.74-.33-1.46-.7-2.22-.99-.19-.07-.54.02-.7.16-.48.41-.94.86-1.35,1.35-.91,1.1-.84,1.87.21,2.86.44.42.98.78,1.3,1.28.33.52.55,1,1.28.95.16-.01.34.21.5.32,1.05.73,2.08,1.49,3.16,2.17.71.45,1.45.85,2.32.95.36.04.48-.08.51-.4ZM71.38,96.54c-.03-.07-.07-.14-.1-.21-.17.03-.38.01-.49.11-.15.12-.22.34-.31.52-2.2,4.2-4.39,8.4-6.58,12.6-.1.2-.19.4-.3.63.59.23.77-.1.97-.49,2.16-4.15,4.33-8.3,6.5-12.45.12-.23.21-.47.32-.71ZM56.18,123.98c-.5,1.04-.93,2.02-1.43,2.96-.87,1.67-1.49,3.42-1.76,5.29-.24,1.62-.65,3.21-.58,4.86,0,.11-.03.23-.05.35-.05.27-.3.63.14.72.36.07.42-.33.51-.6.04-.11.06-.23.06-.34-.07-1.86.39-3.65.69-5.46.25-1.51.72-2.95,1.38-4.33.39-.82.76-1.64,1.11-2.48.13-.3.32-.65-.06-.97ZM81.14,67.88c-.05.12-.09.17-.1.22-.02.23-.03.47-.05.7-.25,2.77-.65,5.5-1.74,8.11-.51,1.24-.86,2.54-1.28,3.82-.03.08-.09.18-.07.25.04.15.12.28.19.42.14-.07.33-.12.4-.23.13-.22.19-.49.27-.74.41-1.22.76-2.46,1.24-3.65,1.06-2.58,1.43-5.29,1.55-8.04,0-.2.04-.42-.03-.61-.04-.11-.24-.16-.38-.24ZM54.07,151.91c-.09.04-.19.08-.28.12.08.26.15.52.26.76.58,1.37,1.24,2.72,1.76,4.12,1.01,2.74,3.03,4.76,4.85,6.91.09.1.34.07.52.09-.02-.18.01-.39-.08-.53-.21-.31-.46-.6-.72-.88-1.98-2.15-3.61-4.51-4.68-7.25-.35-.9-.79-1.76-1.21-2.63-.12-.25-.28-.48-.42-.71ZM76.39,52.14c.06-.02.13-.04.19-.07,0-.17.03-.35-.03-.5-.26-.65-.48-1.32-.83-1.92-1.04-1.76-2.11-3.5-3.22-5.21-.6-.92-1.33-1.77-2.01-2.65-.14-.18-.35-.42-.56-.18-.1.11-.04.43.03.62.05.15.24.24.35.38.32.38.66.74.94,1.15.73,1.06,1.45,2.12,2.14,3.2,1.02,1.59,2.18,3.11,2.82,4.93.03.09.12.16.18.24ZM89.64,178.28c-.22-.51-.23-.48-.69-.62-1.51-.45-3.01-.92-4.51-1.4-1.3-.42-2.6-.87-3.9-1.32-.23-.08-.48-.2-.6.1-.14.36.19.43.42.54.1.05.22.06.34.1,1.03.33,2.06.65,3.08.99.92.3,1.82.65,2.75.9,1,.27,2.03.46,3.11.71Z"/>
  <path class="cls-6" d="M131.26,157.15c-.13-.31.06-.44.3-.54.42.74.84,1.48,1.25,2.22.24.51.48,1.01.72,1.52.34.68.67,1.37,1.01,2.05-.03.02-.06.04-.09.06.04.04.08.07.11.11.16.39.31.78.47,1.18.36.92.76,1.83,1.07,2.77.16.51.43.72.93.7.19.5.62.63,1.08.71.58.44,1.18.85,1.72,1.33.33.3.63.49,1.08.34.38-.12.71-.01.82.41.19.69.68,1.12,1.24,1.52.31.22.56.39.94.17.36-.21.62.02.8.31.15.25.29.52.37.79.43,1.45,1.48,2.4,2.57,3.31.25-.05.47-.1.72-.15.13.25.23.46.34.66.62,1.16.91,2.44,1.85,3.49,1.08,1.22,1.81,2.76,2.69,4.16.34.53.67,1.07,1.01,1.61.21-.08.37-.14.53-.19.59-.21.69-.18.95.37.24.49.45,1,.67,1.51-.33.21-.57.36-.88.56.13.25.24.46.34.64.37-.09.64-.15.93-.23.3.58.58,1.11.87,1.67-.27.22-.5.42-.72.6.23.89.82.04,1.21.36l.58,1.3c-.23.17-.43.32-.62.46.02.35.12.6.47.46.46-.18.72,0,.94.37.06.13.12.26.18.4q.25.63-.35,1.04c-.07.05-.11.12-.17.18.09.98.82.29,1.19.45q.56,1-.31,1.68c.1.18.16.5.31.55.3.09.65.04.98.04.52.67.78,1.32-.27,1.81.16.24.28.42.38.58.34-.08.61-.15.88-.21l.72,1.63c-.35.21-.64.38-1.04.62.2.25.37.46.53.66.04.11.08.22.12.33-.06.14-.19.31-.16.43.16.59.38,1.15.54,1.74.43,1.65.83,3.31,1.24,4.97.04.37.08.75.13,1.12.25,1.42.5,2.84.75,4.26.17.95.33,1.9.5,2.86.02.28.02.57.07.85.1.61.23,1.22.35,1.83-.02.27-.03.54-.05.81.06.37.12.74.19,1.11.15.88.3,1.76.46,2.64-.03,0-.06.02-.09.03-.04.08-.08.17-.12.25.02.19.04.37.06.56.09.61.17,1.22.27,1.87.32-.04.6-.07.88-.1-.03.2-.06.39-.09.59-.75.38-1.5.75-2.24,1.15-.42.23-.8.56-1.23.77-1.09.53-2.2,1.02-3.3,1.53-.37-.04-.19-.29-.17-.46.45-4.25.13-8.45-.86-12.6-.06-.26-.19-.5-.29-.75-.37.5-.12.93-.04,1.36.64,3.73.9,7.47.6,11.25-.04.47.02.95.03,1.48-.11.07-.3.2-.49.33l-.47.27c-.86.38-1.71.76-2.57,1.14-.02-.01-.06-.04-.07-.03-.04.03-.07.06-.11.1-.34.21-.66.44-1.01.62-.17.09-.38.1-.57.14.18-2.1.34-4.19.56-6.28.44-4.09.32-8.16-.33-12.22-.12-.78-.32-1.54-.5-2.31-.49-2.06-.93-4.14-1.51-6.18-.44-1.54-.99-3.05-1.61-4.53-1.16-2.78-2.36-5.54-3.81-8.19-.18-.33-.29-.69-.5-1-1.05-1.5-2.07-3.02-3.18-4.48-1.09-1.44-2.27-2.81-3.43-4.2-1.65-1.98-3.42-3.83-5.51-5.36-.82-.6-1.51-1.4-2.35-1.96-2.02-1.33-4.09-2.58-6.15-3.85-.17-.11-.38-.16-.56-.24-1.14-.52-2.27-1.07-3.43-1.54-.57-.23-1.1-.7-1.79-.53-.03-.2-.03-.41-.1-.6-.49-1.28-.96-2.56-1.5-3.82-.94-2.2-1.93-4.38-2.9-6.58-.23-.53-.44-1.08-.66-1.62.86.09,1.71.19,2.57.28.49.11.98.22,1.47.33.6.33,1.25.47,1.93.45.41.14.81.29,1.21.43.11.03.22.05.34.08.47.22.54.19.52-.24-.54-1.21-1.08-2.43-1.64-3.63-.12-.25-.32-.45-.49-.68.08-.32.17-.64.53-.76.14.25.29.5.41.76.64,1.4,1.26,2.8,1.9,4.2.11.25.31.46.47.69.14.36.37.59.74.52.18-.3.34-.57.5-.84.06.1.15.19.18.3.31,1.12,1.22,1.22,2.28,1.41l-1.81-4.1c-.21-.34-.11-.57.26-.69.55,1.17,1.1,2.33,1.65,3.5.04.39.1.77.11,1.16.03.58.51.41.82.53.61.45,1.32.6,2.18.82l-1.43-3.24c-.13-.34-.03-.58.3-.73.03.08.05.16.08.25.18.38.35.75.53,1.13.21.47.42.94.62,1.41l.02.05c.18.41.36.83.54,1.24l.02.05c.14.14.27.29.43.4.21.16.37.09.45-.15-.08-.27-.12-.56-.23-.82-.65-1.5-1.32-2.99-1.97-4.48-.11-.25-.2-.51-.3-.76.07-.04.13-.07.2-.11.11.17.25.32.33.5.58,1.3,1.15,2.61,1.74,3.91.11.25.32.46.48.68.46-.58.5-1.16.16-1.84-.84-1.66-1.62-3.34-2.43-5.01ZM143.81,184.22h0c.08.03.16.06.23.08,1.13-.07,1.71-.85,2.15-1.74.1-.21.05-.61-.1-.79-.41-.5-.9-.93-1.36-1.39-.11-.15-.22-.3-.33-.45-.02-.21-.05-.41-.07-.61-.4-.14-.56.04-.61.39-.07.02-.13.04-.2.06-.82-.85-1.5-1.87-2.8-2.19,0,.23-.01.37-.02.52-.05.03-.09.04-.15.05-.05-.11-.09-.22-.15-.32-.42-.72-.77-.74-1.33-.11-.14.15-.34.24-.52.36-.1-.45.3-.59.54-.81.74-.63.75-.62,1.39.07.16-.08.32-.17.62-.33-.87-.43-1.61-.77-2.34-1.16-.46-.24-.75-.08-1.04.27-.52.64-.95,1.34-1.35,2.06-.16.3-.16.63.16.86.65.48,1.3.94,1.95,1.42.49.36.94.78,1.46,1.09.39.23.55.75,1.08.77-.25.79-.18.92.59,1.02.29.04.57.07.86.11.04.02.08.05.11.09.2.41.56.54.99.56,0,0,0,0,0,0,.07.03.15.07.22.1ZM151.7,192.36c.01.21-.02.38.04.52.2.52.4,1.03.63,1.54,1.64,3.63,3,7.35,3.58,11.31.04.28.09.52.57.52.2-1.94-.55-3.69-1.03-5.49-.74-2.76-3.06-7.9-3.79-8.41ZM127.88,169.81c.04-.06.07-.11.11-.17-.18-.16-.34-.34-.54-.47-2.45-1.7-5.21-2.72-7.98-3.73-.25-.09-.63-.29-.73.13-.1.4.32.4.58.5,2.75,1.04,5.57,1.93,8.06,3.56.14.1.34.12.51.17ZM134.27,163.74c-.65,1.47-.37,2.12,1.17,2.66l-1.17-2.66Z"/>
  <path class="cls-6" d="M153.84,236.01c-.69.3-1.37.6-2.06.9-.12.05-.24.1-.37.15-1.91.74-3.72,1.77-5.75,2.21-.12.03-.27-.06-.38-.09,0-.32,0-.59,0-.86.03-.2.09-.39.1-.59.02-1.01.05-2.03.04-3.04,0-.45-.08-.89-.13-1.34.58-.41,1.19-.82.85-1.7-.05-.27-.05-.56-.15-.81-.58-1.4-1.19-2.79-1.78-4.19.06-.09.18-.2.16-.27-.15-.72-.32-1.44-.48-2.16-.15-.64-.25-1.29-.45-1.92-.41-1.33-.65-2.7-1.12-4.01-.87-2.42-1.8-4.81-2.97-7.11-.31-.62-.57-1.27-.92-1.87-.76-1.31-1.54-2.6-2.34-3.89-.26-.42-.41-.97-.98-1.12-.43-.76-.78-1.57-1.3-2.26-.53-.7-.72-1.51-.98-2.3-.39-1.18-.72-2.39-1.21-3.53-.83-1.92-1.65-3.85-2.65-5.7-1.11-2.04-2.02-4.2-3.02-6.3-.16-.34-.3-.69-.46-1.03-.11-.23-.17-.53-.54-.42l-1.37-3.02c-.2-.56-.37-1.12-.67-1.65-.28-.49-.37-1.09-.58-1.62-.26-.68-.56-1.34-.85-2.01,1.38.63,2.77,1.23,4.14,1.89.65.31,1.26.72,1.88,1.1,1.16.72,2.39,1.37,3.46,2.21,1.68,1.33,3.23,2.82,4.89,4.18,2.07,1.69,3.73,3.76,5.5,5.74.45.5.9,1.01,1.26,1.57,1.24,1.9,2.6,3.71,3.77,5.67,1.09,1.81,1.95,3.71,2.92,5.57.79,1.52,1.31,3.18,1.95,4.78.04.11.06.23.09.34.32,1.09.64,2.17.95,3.26.26.95.55,1.9.74,2.87.54,2.71,1.05,5.44,1.07,8.22.01,1.37.14,2.74.05,4.1-.19,2.74-.47,5.47-.76,8.2-.07.7-.07,1.32.45,1.84ZM141.5,202.01c-.08.35-.31.81.17.97.49.17.63.56.85.92.57.98,1.12,1.97,1.73,2.92.72,1.13,1.82,1.31,2.91.5.39-.29.72-.67,1.05-1.03.42-.46.46-.98.13-1.52-.25-.42-.49-.86-.75-1.27-.48-.76-.96-1.52-1.45-2.27-.25-.38-.38-.75,0-1.26-1.1-.05-1.46-.83-1.88-1.54-.07-.12-.17-.24-.28-.33-.53-.46-1.11-.78-1.81-.44-.57.28-1.12.61-1.63.98-.31.23-.39.59-.33,1.02.13.95.67,1.66,1.29,2.36ZM148.01,225.37c.47-.07.5-.38.51-.67.02-.96.1-1.93,0-2.88-.33-3.11-.92-6.18-1.8-9.19-.21-.73-.46-1.45-.71-2.16-.09-.27-.26-.46-.58-.25.13.35.28.67.36,1,.51,2.22,1.08,4.43,1.46,6.67.39,2.29.96,4.58.6,6.95-.03.17.09.36.14.53ZM137.98,196.75c.11-.57-.15-.99-.41-1.37-1.48-2.18-3.18-4.16-5.19-5.88-.31-.26-.67-.47-1.03-.65-.11-.06-.3.04-.46.06.06.17.07.39.18.49.4.33.88.57,1.26.93,1.97,1.86,3.9,3.76,5.33,6.1.08.12.21.21.31.32Z"/>
  <path class="cls-15" d="M96.36,184.64c.12-.07.25-.14.43-.24-.27-.61-.51-1.2-.79-1.77-.26-.52-.58-1.01-.84-1.53-.87-1.78-1.71-3.58-2.58-5.36-.62-1.27-1.28-2.53-1.95-3.84-.5.01-1.04.1-1.54.02-1.03-.16-2.06-.39-3.08-.64-1.05-.26-2.09-.55-3.1-.91-1.31-.46-2.61-.99-3.9-1.51-.92-.37-1.83-.78-2.73-1.2-1.94-.9-3.75-2.02-5.33-3.48-1.05-.97-2.11-1.94-3.04-3.01-1.32-1.51-2.58-3.09-3.76-4.71-.72-.98-1.24-2.11-1.85-3.17-.74-1.29-.92-2.76-1.37-4.14-.85-2.56-1.02-5.26-1.41-7.9-.2-1.34-.03-2.69.18-4.01.29-1.78.65-3.56,1.02-5.32.36-1.68.89-3.31,1.61-4.88.46-1,.78-2.07,1.25-3.08.39-.85.9-1.64,1.35-2.45.69-1.25,1.35-2.52,2.07-3.75.77-1.31,1.63-2.56,2.38-3.87,1.97-3.45,3.89-6.92,5.84-10.37,1-1.78,2.04-3.54,3.05-5.32,1.81-3.2,3.52-6.46,5.42-9.6.92-1.52,1.7-3.11,2.48-4.69.54-1.09.87-2.29,1.24-3.45.31-.97.59-1.95.8-2.95.29-1.4.44-2.82.75-4.22.56-2.54.33-5.12.42-7.68.02-.66-.1-1.34-.21-2-.23-1.32-.46-2.64-.78-3.94-.28-1.16-.68-2.29-1.05-3.42-.42-1.27-.87-2.53-1.32-3.8-.06-.17-.12-.33-.2-.49-.91-1.68-1.72-3.41-2.73-5.04-.89-1.45-1.93-2.77-2.9-4.15-1.07-1.51-2.42-2.76-3.79-3.98-1.07-.95-2.11-1.93-3.15-2.9-1.98-1.86-4.39-3.05-6.73-4.36-2-1.12-4.1-1.98-6.23-2.79-.9-.34-1.78-.72-2.67-1.09-.41-.34-.62-.77-.6-1.31,1.3.45,2.61.85,3.89,1.35,1,.39,1.96.9,2.93,1.37,1.58.75,3.22,1.41,4.72,2.28,3.23,1.88,6.3,3.99,8.9,6.74,1.36,1.44,2.75,2.85,4.04,4.36,1.56,1.83,2.97,3.77,4.03,5.9,1.18,2.37,2.36,4.77,3.11,7.34.49,1.68,1.02,3.33,1.35,5.06.37,1.92.79,3.83.74,5.8-.05,1.89,0,3.79-.19,5.67-.19,1.91-.55,3.81-.96,5.68-.31,1.42-.84,2.79-1.21,4.2-.25.95-.79,1.75-1.21,2.61-.89,1.8-1.68,3.66-2.64,5.42-2.21,4.08-4.5,8.11-6.76,12.17-1.08,1.94-2.14,3.88-3.25,5.8-1.46,2.52-2.75,5.14-4.34,7.59-.54.83-1.03,1.69-1.55,2.54-.75,1.22-1.53,2.41-2.24,3.65-.39.68-.66,1.43-.99,2.14-.63,1.35-1.35,2.66-1.87,4.04-.54,1.41-.89,2.89-1.33,4.34-.81,2.68-1.02,5.45-1.09,8.22-.08,3.19.39,6.31,1.41,9.37.68,2.04,1.59,3.96,2.67,5.78.83,1.39,1.81,2.74,2.94,3.89,1.59,1.62,3.37,3.06,5.08,4.55.33.28.72.5,1.1.71,1.04.58,2.08,1.17,3.15,1.71,1.2.6,2.4,1.2,3.65,1.69,1.36.53,2.77.92,4.15,1.38,1.53.5,3.1.69,4.7.79,0-.08.02-.11.01-.13-1.14-2.56-2.26-5.12-3.42-7.67-.47-1.05-.99-2.08-1.5-3.11-.77-1.6-1.3-3.31-2.31-4.8-.05-.27-.05-.56-.16-.81-.73-1.69-1.48-3.36-2.23-5.04-1.05-2.34-2.1-4.68-3.15-7.02-.88-1.97-1.75-3.94-2.62-5.91.07-.61.12-1.22.23-1.83.05-.25.23-.48.35-.73,4.95,11.05,9.91,22.1,14.86,33.16,5.25,11.72,10.5,23.44,15.74,35.17,1.01,2.26,2,4.54,2.9,6.85,1.07,2.72,2.43,5.31,3.66,7.97,1.57,3.4,3.14,6.8,4.7,10.19,1.51,3.27,3.02,6.53,4.52,9.8,2.11,4.6,4.21,9.2,6.32,13.8.09.19.19.37.25.56.14.48.5.7.94.83.22.07.44.11.66.16.1.35.17.72.29,1.06.17.46.39.91.62,1.41l-2.54,1.12c-.51-1.1-1.01-2.18-1.5-3.26-1.09-2.42-2.17-4.84-3.25-7.27-.74-1.67-1.46-3.35-2.22-5.02-.57-1.26-1.2-2.5-1.77-3.76-.68-1.48-1.32-2.96-1.98-4.44-1.08-2.43-2.16-4.85-3.23-7.28-2.19-4.94-4.38-9.89-6.58-14.83-1.21-2.72-2.45-5.42-3.67-8.14-.73-1.64-1.42-3.29-2.16-4.93-.88-1.95-1.79-3.88-2.67-5.83-.91-2.02-1.8-4.05-2.69-6.07Z"/>
  <path class="cls-6" d="M10.51,9.2c.16-.07.32-.13.48-.2.43.27.7.77,1.28.83.13.01.25.23.37.35.37.36.71.77,1.12,1.06.64.45,1.33.83,2.01,1.24,1.45.86,2.76,1.96,4.4,2.49.24.08.48.35.61.59.5.92.96,1.86,1.44,2.79.46.9.93,1.79,1.4,2.68.73,1.39,1.47,2.77,2.21,4.15.15.28.32.55.48.83.34.63.7,1.25.86,2.01-.32,0-.58-.01-.83-.02-.38-.14-.75-.32-1.13-.42-.7-.18-1.39-.34-2.07-.63-.74-.32-1.54-.52-2.33-.7-1.78-.41-3.5-.98-5.18-1.68-1.33-.55-2.72-.94-4.05-1.49-2.62-1.09-5.32-2.02-7.52-3.92-1.2-1.04-2.34-2.15-3.28-3.45-.28-.4-.67-.7-.75-1.23-.09-.63.02-.83.62-1.05.52-.19,1.03-.41,1.53-.64,2.51-1.11,5.01-2.22,7.52-3.32.21-.09.44-.11.66-.17.02,0,.06.03.07.02.03-.03.06-.08.08-.12ZM17.81,19.57c.02-.07.03-.14.05-.21-.15-.08-.3-.15-.45-.23-.92-.44-1.85-.86-2.76-1.32-.7-.36-1.37-.79-2.08-1.14-1.91-.93-3.36-2.4-4.75-3.94-.16-.18-.28-.44-.54-.26-.28.19-.16.47,0,.7.1.14.22.27.35.39.59.57,1.14,1.18,1.78,1.69.84.67,1.73,1.29,2.65,1.84.87.53,1.8.97,2.73,1.4.82.38,1.66.71,2.5,1.04.16.06.36.02.54.03Z"/>
  <path class="cls-15" d="M26.34,28c.25,0,.5.01.83.02-.16-.77-.52-1.39-.86-2.01-.15-.28-.33-.55-.48-.83-.74-1.38-1.48-2.76-2.21-4.15-.47-.89-.94-1.79-1.4-2.68-.48-.93-.94-1.87-1.44-2.79-.13-.24-.37-.51-.61-.59-1.64-.53-2.95-1.63-4.4-2.49-.68-.4-1.37-.78-2.01-1.24-.42-.3-.75-.7-1.12-1.06-.12-.12-.24-.34-.37-.35-.58-.06-.86-.56-1.28-.83.62-.28,1.24-.57,1.86-.85,1.04.76,1.78,1.85,2.95,2.47,1.16.61,2.25,1.34,3.37,2.02.06-.05.11-.1.17-.15-.91-1.98-1.82-3.97-2.73-5.95.06-.15.09-.37.2-.43.68-.33,1.37-.64,2.07-.92.12-.05.31.06.47.1.37.83.74,1.66,1.11,2.49-.15.21-.26.47-.44.64-.5.44-.48.87-.21,1.46,2.64,5.77,5.25,11.55,7.85,17.34,5.25,11.71,10.5,23.43,15.74,35.16,3.47,7.77,6.89,15.57,10.37,23.34,2.37,5.31,4.8,10.6,7.2,15.9-.34.48-.69.96-1.03,1.44-.45-.95-.9-1.9-1.34-2.85-.94-2.07-1.88-4.14-2.8-6.22-.58-1.3-1.11-2.62-1.7-3.91-.57-1.26-1.2-2.5-1.77-3.76-.67-1.47-1.32-2.95-1.98-4.43-.9-2.03-1.79-4.05-2.69-6.08-1.86-4.19-3.73-8.39-5.6-12.58-1.4-3.15-2.82-6.29-4.22-9.44-.73-1.64-1.43-3.3-2.17-4.94-.74-1.63-1.53-3.23-2.27-4.86-1.21-2.68-2.38-5.37-3.57-8.05-1.06-2.37-2.13-4.73-3.19-7.1-.12-.27-.19-.55-.29-.82Z"/>
  <path class="cls-2" d="M60.96,101.61c-2.4-5.3-4.83-10.59-7.2-15.9-3.47-7.77-6.9-15.57-10.37-23.34-5.23-11.72-10.48-23.44-15.74-35.16-2.6-5.79-5.21-11.57-7.85-17.34-.27-.59-.29-1.02.21-1.46.19-.17.3-.42.44-.64.1-.06.23-.09.3-.18.63-.82,1.5-1.25,2.43-1.62.51-.2,1.04-.41,1.51-.68.47-.27.88-.62,1.32-.94.62-.03,1.18-.22,1.74-.5,3.31-1.65,3.32-1.64,7.19-2.24,1.32-.2,2.64-.45,3.95-.68,1.14-.18,2.28-.36,3.42-.54.6-.09,1.19-.17,1.79-.26.31-.05.62-.12.93-.14.21-.01.41.05.62.08,1.48,3.36,2.96,6.71,4.44,10.06.38.85.78,1.69,1.17,2.54.29.7.58,1.4.87,2.09.29.69.59,1.37.87,2.06.28.71.53,1.45.82,2.15.07.16.28.25.42.38.02.19.04.39.06.58.35.86.71,1.71,1.05,2.57.28.71.5,1.45.8,2.15.24.57.57,1.1.86,1.64-.02.54.19.97.6,1.31.02.68.51,1.15.76,1.72,2.25,5.11,4.52,10.21,6.76,15.32.12.28.48.59.05.92-.14-.29-.28-.58-.42-.87-1.72-3.85-3.45-7.69-5.16-11.54-4.7-10.53-9.39-21.06-14.09-31.59-.13-.29-.25-.57-.38-.87-.7.12-1.31.23-1.97.34.41.92.78,1.74,1.13,2.57.08.2.06.44.07.58-.47.09-.8.11-1.11.22-.44.16-.86.37-1.27.59-3.11,1.62-6.26,3.18-9.5,4.53-.36.15-.75.23-1.17.35-.92-1.94-1.8-3.77-2.68-5.61l-1.46.65c.67,1.29,1.32,2.51,1.99,3.8-.24.11-.38.23-.49.21-.63-.11-1.11.23-1.64.45-.51.22-1.03.41-1.56.59-.51.18-.89.02-1.15-.47-.12-.23-.2-.49-.31-.73-.28-.63-.56-1.27-.86-1.94-1.34.33-1.98,1.47-2.86,2.35.25.57.48,1.1.72,1.63,7.84,17.49,15.69,34.98,23.53,52.47,4.25,9.48,8.48,18.97,12.72,28.45,1.36,3.04,2.75,6.08,4.12,9.12-.15.25-.29.5-.44.75ZM31.81,9.04c.29-.12.57-.2.83-.33,1.74-.82,3.48-1.65,5.23-2.46,1.59-.73,3.2-1.44,4.8-2.16.28-.13.57-.25.93-.41-.27-.75-.5-1.41-.74-2.06-.13-.36-.37-.47-.76-.38-.51.12-1.04.16-1.56.24-2.91.46-5.82.91-8.72,1.4-.98.17-1.87.57-2.7,1.37,1.17,1.46,1.51,3.31,2.68,4.78ZM28.14,8.23c-.58-1.05-1.1-1.98-1.61-2.9-.93.41-1.78.79-2.68,1.18l1.23,2.79c.99-.35,1.96-.69,3.05-1.07Z"/>
  <path class="cls-2" d="M129.72,251.88c-.22-.05-.44-.1-.66-.16-.44-.13-.8-.35-.94-.83-.06-.19-.16-.38-.25-.56-2.11-4.6-4.21-9.2-6.32-13.8-1.5-3.27-3.01-6.53-4.52-9.8-1.57-3.4-3.13-6.8-4.7-10.19-1.23-2.65-2.59-5.25-3.66-7.97-.91-2.31-1.89-4.59-2.9-6.85-5.23-11.73-10.49-23.45-15.74-35.17-4.95-11.05-9.91-22.11-14.86-33.16-.18-.46-.34-.91.17-1.27.09.19.18.37.26.56,4.8,10.71,9.6,21.42,14.39,32.13,3.27,7.32,6.57,14.63,9.78,21.98,3.21,7.34,6.71,14.54,9.75,21.96,2,4.9,4.37,9.65,6.59,14.46,4.01,8.69,8.04,17.37,12.06,26.05.3.65.5,1.47,1.01,1.88.55.44,1.41.49,2.14.73.48.15.91.15,1.34-.29-.39-1.58-.9-3.13-1.93-4.63,1.49-.52,2.7-1.44,4.28-1.37.57,1.46,1.12,2.83,1.67,4.24.23-.12.38-.19.57-.28-.07-.21-.12-.41-.19-.59-.8-2.07-1.6-4.15-2.39-6.22-.26-.69-.24-.78.42-1.08,4.05-1.83,8.11-3.66,12.16-5.48.63-.28.71-.25.99.38.38.85.75,1.7,1.16,2.61.41-.36.76-.66,1.11-.96.34.88-.26,1.28-.85,1.7-.05.07-.1.14-.16.2-1.72,1.64-3.45,3.28-5.17,4.92-.93.84-1.91,1.63-2.77,2.53-1.15,1.2-2.46,2.09-4.01,2.71-1.63.64-3.2,1.44-4.79,2.17-.52.24-.99.37-1.55.01-.43-.27-.98-.36-1.48-.54ZM137.92,249.15c.79-.24,1.41-.52,1.93-1.02,1.92-1.83,3.87-3.63,5.81-5.45.96-.9,1.9-1.81,2.83-2.73.14-.14.28-.44.22-.58-.32-.83-.7-1.64-1.07-2.47-4.16,1.84-8.21,3.63-12.33,5.45.87,2.28,1.73,4.5,2.61,6.8ZM136.03,250.1c-.63-1.36-.92-2.8-1.68-4.06l-2.46,1.09c.51,1.4,1.01,2.75,1.52,4.13l2.63-1.16Z"/>
  <path class="cls-15" d="M153.84,234.75c-.52-.52-.53-1.14-.45-1.84.29-2.73.58-5.46.76-8.2.09-1.36-.03-2.74-.05-4.1-.03-2.78-.53-5.51-1.07-8.22-.19-.97-.48-1.92-.74-2.87-.3-1.09-.63-2.18-.95-3.26-.03-.11-.05-.23-.09-.34-.64-1.6-1.16-3.26-1.95-4.78-.96-1.86-1.83-3.76-2.92-5.57-1.17-1.95-2.53-3.77-3.77-5.67-.36-.56-.81-1.07-1.26-1.57-1.77-1.98-3.43-4.05-5.5-5.74-1.66-1.36-3.21-2.86-4.89-4.18-1.07-.84-2.3-1.49-3.46-2.21-.62-.38-1.23-.79-1.88-1.1-1.36-.66-2.76-1.26-4.14-1.89-.26-.57-.51-1.13-.77-1.7.7-.17,1.22.29,1.79.53,1.16.47,2.29,1.03,3.43,1.54.19.08.39.14.56.24,2.06,1.27,4.13,2.52,6.15,3.85.85.56,1.53,1.36,2.35,1.96,2.09,1.53,3.86,3.38,5.51,5.36,1.15,1.39,2.33,2.76,3.43,4.2,1.11,1.46,2.14,2.97,3.18,4.48.21.3.32.67.5,1,1.45,2.65,2.64,5.41,3.81,8.19.62,1.48,1.17,2.99,1.61,4.53.58,2.04,1.02,4.12,1.51,6.18.18.76.37,1.53.5,2.31.65,4.06.76,8.13.33,12.22-.22,2.09-.37,4.19-.56,6.28-.33.13-.66.25-.98.38Z"/>
  <path class="cls-6" d="M16.61,6.53c.91,1.98,1.82,3.97,2.73,5.95-.06.05-.11.1-.17.15-1.12-.68-2.21-1.41-3.37-2.02-1.17-.62-1.91-1.71-2.95-2.47.82-.34,1.63-.68,2.45-1.02.03,0,.06.02.08,0,.04-.03.07-.07.11-.11.37-.16.74-.33,1.12-.49Z"/>
  <path class="cls-9" d="M139.97,237.22c1.72-1.64,3.45-3.28,5.17-4.92.06-.06.11-.13.16-.2.05.45.13.89.13,1.34,0,1.01-.01,2.03-.04,3.04,0,.2-.06.39-.1.59-.52-.3-1.01.02-1.51.06-1.17.08-2.35.19-3.52.27-.09,0-.19-.11-.29-.17Z"/>
  <path class="cls-6" d="M26.02,4.36c-.44.32-.85.67-1.32.94-.48.27-1,.48-1.51.68-.93.37-1.81.8-2.43,1.62-.06.09-.2.12-.3.18-.37-.83-.74-1.66-1.11-2.49,1.25-.54,2.51-1.08,3.76-1.61.27-.11.53-.25.8-.36.84-.34,1.33-.16,1.81.63.09.15.2.28.31.42Z"/>
  <path class="cls-15" d="M15.49,7.02s-.07.08-.11.11c-.02.01-.05,0-.08,0,.04-.04.07-.08.11-.11.02-.01.05,0,.08,0Z"/>
  <path class="cls-15" d="M10.51,9.2s-.05.08-.08.12c0,0-.05-.01-.07-.02.03-.03.06-.06.09-.08.02-.01.04,0,.06-.01Z"/>
  <path class="cls-10" d="M61.4,100.86c-1.37-3.04-2.76-6.07-4.12-9.12-4.25-9.48-8.48-18.97-12.72-28.45-7.84-17.49-15.68-34.98-23.53-52.47-.24-.53-.47-1.07-.72-1.63.88-.88,1.53-2.02,2.86-2.35.3.67.58,1.3.86,1.94.11.24.19.5.31.73.26.49.64.65,1.15.47.52-.18,1.05-.38,1.56-.59.53-.22,1.02-.56,1.64-.45.11.02.25-.1.49-.21-.67-1.28-1.31-2.51-1.99-3.8l1.46-.65c.88,1.84,1.75,3.67,2.68,5.61.42-.12.81-.2,1.17-.35,3.24-1.35,6.39-2.91,9.5-4.53.41-.22.84-.43,1.27-.59.3-.11.64-.13,1.11-.22-.01-.13.01-.38-.07-.58-.34-.83-.72-1.66-1.13-2.57.66-.11,1.28-.22,1.97-.34.13.3.26.58.38.87,4.7,10.53,9.39,21.06,14.09,31.59,1.72,3.85,3.44,7.69,5.16,11.54.13.29.28.58.42.87.05.11.1.22.14.32.11.27.21.54.33.81,2.01,4.53,4.01,9.05,6.02,13.58.22.5.47,1,.7,1.5.07,1.09.14,2.18.22,3.27.02.34.07.68.1,1.03-.48-.09-.48-.55-.62-.86-8.76-19.68-17.51-39.36-26.25-59.04-.05-.11-.08-.22-.14-.32-.29-.51-.74-.58-1.23-.23-.16.12-.33.23-.51.31-5.17,2.33-10.35,4.66-15.52,7-.12.06-.22.17-.4.3,1.8,4.06,3.59,8.12,5.35,12.1-.75.33-1.43.62-2.09.93-.63.3-.64.57-.13,1,.19.16.36.37.45.59,1.48,3.5,2.96,7.01,4.43,10.52.29.7.28.71,1,.4.64-.27,1.27-.56,1.89-.84,5.56,12.58,11.08,25.06,16.64,37.63l-2.75,1.22c.26.36.52.61.65.92.88,2.01,1.75,4.03,2.6,6.05.72,1.7,1.41,3.41,2.12,5.1.08.19.25.35.39.54.72-.8,1.66-.94,2.54-1.36l3.35,7.57c-.87,1.55-1.73,3.1-2.61,4.64-.13.22-.32.4-.49.59Z"/>
  <path class="cls-2" d="M64.5,95.63l-3.35-7.57c-.89.42-1.82.57-2.54,1.36-.14-.19-.31-.35-.39-.54-.72-1.7-1.41-3.41-2.12-5.1-.85-2.02-1.72-4.04-2.6-6.05-.14-.31-.39-.56-.65-.92l2.75-1.22c-5.56-12.56-11.08-25.05-16.64-37.63-.63.28-1.26.56-1.89.84-.72.31-.71.3-1-.4-1.47-3.51-2.94-7.01-4.43-10.52-.09-.22-.27-.44-.45-.59-.51-.43-.5-.71.13-1,.66-.31,1.33-.59,2.09-.93-1.76-3.99-3.56-8.04-5.35-12.1.18-.14.28-.25.4-.3,5.17-2.34,10.35-4.66,15.52-7,.18-.08.35-.19.51-.31.49-.35.93-.28,1.23.23.06.1.09.21.14.32,8.75,19.68,17.5,39.37,26.25,59.04.14.32.13.78.62.86-.03.5-.02,1.01-.09,1.51-.03.2-.2.37-.31.56-3.98,1.94-7.96,3.88-11.96,5.84l2.43,5.5c2.99-1.4,5.91-2.77,8.84-4.14.23.32.07.58-.11.84-2.75,1.28-5.5,2.57-8.24,3.86-.07.03-.11.12-.17.18.76,1.71,1.51,3.41,2.29,5.17,1.41-.6,2.77-1.18,4.14-1.76.18.34.17.63-.21.83-1.19.53-2.39,1.06-3.67,1.62l1.62,3.66c-.04.34.08.74-.33.95-.64-1.42-1.28-2.85-1.94-4.29l-3.18,1.41c1.02,2.3,2.02,4.56,3.02,6.82.11.4.04.74-.33.98ZM55.91,30.57c-1.48.44-11.87,5.11-12.32,5.51,5.48,12.39,10.95,24.77,16.47,37.24,4.09-2,8.12-3.96,12.14-5.92-5.46-12.34-10.86-24.57-16.28-36.83ZM59.31,73.7c-5.53-12.5-11.02-24.92-16.55-37.42-.56.25-1.07.47-1.57.7-.49.22-.99.46-1.48.69,5.55,12.54,11.05,24.99,16.6,37.54,1.02-.51,1.97-.99,3-1.5ZM37.99,23.45c.31-.14.58-.25.84-.37.81-.4,1.61-.82,2.44-1.19,2.68-1.22,5.38-2.43,8.07-3.64.28-.13.57-.25.84-.37-1.76-3.97-3.46-7.83-5.2-11.75-.38.17-.7.3-1.01.45-2.39,1.16-4.77,2.34-7.16,3.49-1.03.49-2.08.93-3.12,1.39-.26.12-.52.23-.84.37,1.72,3.89,3.4,7.7,5.15,11.64ZM37.18,23.76c-.35-1.22-4.76-11.05-5.18-11.56l-2.97,1.31c1.72,3.88,3.41,7.71,5.12,11.59l3.03-1.34ZM50.41,18.3c-4.1,1.97-8.11,3.9-12.11,5.83.41,1.31,2.01,4.8,2.43,5.32,4.04-1.85,8.09-3.69,12.15-5.55l-2.48-5.6ZM43.18,35.24c4.14-1.83,8.21-3.63,12.31-5.45-.75-1.7-1.48-3.35-2.24-5.06-1.15.14-2.08.78-3.09,1.2-1.05.44-2.08.93-3.11,1.41-1.01.47-2,.95-3.01,1.42-1.02.48-2.05.95-3.1,1.43.76,1.72,1.48,3.35,2.23,5.04ZM58.96,81.2l3.08-1.36-2.43-5.49c-1.03.52-2.01,1.01-3.02,1.51.81,1.83,1.58,3.58,2.36,5.35ZM39.85,29.85c-.25-1.03-2-4.88-2.41-5.33l-2.93,1.29c.28,1.06,2,4.86,2.41,5.33l2.93-1.29ZM61.55,87.08c1.11-.46,2.11-.9,3.15-1.37-.8-1.82-1.54-3.52-2.29-5.16l-3.13,1.38c.77,1.74,1.5,3.39,2.27,5.14ZM37.16,31.91l2.22,5.02,3.06-1.35-2.22-5.02-3.06,1.35ZM53.78,77.17c.85,1.81,1.67,3.54,2.48,5.28l2.01-.89-2.36-5.33-2.14.94ZM58.7,88.32l2.12-.94-2.27-5.14-1.97.87c.53,1.81,1.39,3.46,2.12,5.21ZM36.12,31.56l-2.43-5.49c-.66.26-1.28.5-1.89.74l2.46,5.57,1.85-.82ZM36.44,32.29l-1.87.83,2.21,4.99,1.87-.83c-.74-1.67-1.46-3.31-2.21-4.99Z"/>
  <path class="cls-12" d="M71.63,75.35c-2.93,1.37-5.86,2.74-8.84,4.14l-2.43-5.5c4-1.95,7.98-3.89,11.96-5.84.28.4.16.84.1,1.27-.05.32-.08.64-.12.96-.46-.22-.92-.06-1.35.08-3.04.95-6.02,2.07-8.91,3.42-.53.25-.65.49-.33,1.05.46.81,1,1.57,1.55,2.32.34.47.56.51,1.03.19,2.39-1.61,5.03-2.73,7.66-3.87-.1.59-.2,1.18-.3,1.77Z"/>
  <path class="cls-15" d="M72.2,71.64c-.01.35-.03.7-.04,1.04-2.84,1.2-5.62,2.52-8.37,4.17-.52-.75-1.01-1.48-1.58-2.3.4-.18.66-.3.92-.41,2.45-1.02,4.9-2.04,7.35-3.05,1.08-.45,1.08-.44,1.72.54Z"/>
  <path class="cls-11" d="M64.83,94.65c-1-2.26-2-4.52-3.02-6.82l3.18-1.41c.65,1.45,1.29,2.87,1.94,4.29-.3.69-.56,1.39-.91,2.05-.35.65-.79,1.26-1.19,1.88Z"/>
  <path class="cls-17" d="M72.2,71.64c-.63-.98-.63-.99-1.72-.54-2.45,1.01-4.9,2.03-7.35,3.05-.26.11-.52.23-.92.41.56.82,1.06,1.55,1.58,2.3,2.75-1.65,5.53-2.98,8.37-4.17-.08.3-.15.6-.23.9-2.63,1.14-5.26,2.26-7.66,3.87-.47.32-.69.28-1.03-.19-.54-.76-1.09-1.52-1.55-2.32-.32-.56-.2-.8.33-1.05,2.89-1.35,5.87-2.47,8.91-3.42.43-.13.89-.3,1.35-.08.14.43.11.85-.09,1.26Z"/>
  <path class="cls-15" d="M70.87,78.4c.19.34.22.67.07,1.06-.25.66-.44,1.35-.65,2.03-.68.32-1.38.63-2.05.97-.66.33-1.31.69-2.02,1.07-.47-1.02-.87-1.93-1.23-2.88.45-.2.79-.37,1.14-.5,1.58-.59,3.16-1.17,4.73-1.75Z"/>
  <path class="cls-12" d="M69.53,83.64c-1.36.58-2.73,1.16-4.14,1.76-.78-1.76-1.53-3.46-2.29-5.17.05-.06.1-.15.17-.18,2.75-1.29,5.5-2.57,8.24-3.86-.02.53,0,1.07-.38,1.5-2.06.72-4.13,1.43-6.18,2.16-.79.28-.85.48-.54,1.25.33.84.67,1.68,1,2.52.28.73.53.85,1.25.49,1.12-.56,2.23-1.13,3.35-1.7.12.52-.18.87-.47,1.23Z"/>
  <path class="cls-10" d="M70.44,169.07c1.04.73,2.08,1.46,3.13,2.18.58.39,1.16.77,1.76,1.14.37.23.52.49.34.94-.46,1.14-.93,2.26-2.03,2.95-1.08-.21-2.04-.71-3.02-1.2.03-.08.06-.16.09-.24.6-.47.81.24,1.23.42.51-.29,1.02-.58,1.14-1.24h-.03c.11-.17.23-.34.34-.52h0c.03-.08.06-.16.09-.24h0c.03-.08.06-.16.09-.23h0c.08-.18.19-.36.22-.55.05-.33-.15-.32-.38-.21-.02-.16-.04-.33-.06-.49-.18-.12-.35-.26-.55-.36-.25-.12-.52-.19-.76-.32-.65-.37-1.28-.76-1.93-1.14-.1-.06-.24-.06-.45-.11.07.2.11.3.15.41-.06,0-.11.03-.15.07-.1-.07-.2-.15-.29-.22-.05-.43-.12-.84-.49-1.13-.02-.19-.05-.39-.07-.58.36-.02.72-.03,1.11-.05-.07.5.12.69.51.72Z"/>
  <path class="cls-2" d="M73.08,174.04c-.12.66-.63.94-1.14,1.24-.42-.18-.63-.9-1.23-.42-.12-.04-.23-.07-.35-.11-.15-.07-.3-.14-.45-.2-.01.04-.03.08-.04.12.14.08.29.16.43.24.11.06.21.13.32.19.97.49,1.94.98,3.02,1.2-.03.32-.15.44-.51.4-.87-.1-1.61-.51-2.32-.95-1.08-.68-2.11-1.44-3.16-2.17-.17-.12-.34-.33-.5-.32-.73.05-.95-.44-1.28-.95-.32-.5-.86-.86-1.3-1.28-1.05-.99-1.13-1.76-.21-2.86.4-.49.86-.94,1.35-1.35.17-.14.51-.23.7-.16.76.29,1.48.66,2.22.99.18.08.36.17.55.21.41.1.83.18,1.27.27,0,.39,0,.67,0,.96-.39-.02-.58-.22-.51-.72-.39.02-.75.03-1.11.05,0,0,.01,0,.01,0l-.25-.1h.02c-.4-.69-1.15-.82-1.79-1.14-.53-.26-.98-.13-1.33.28-.4.46-.76.95-1.09,1.46-.25.39-.3.8.11,1.18.61.56,1.19,1.15,1.79,1.72l.02.07s.04.06.04.06c.08.29.17.57.25.88.22-.02.44-.05.64-.07.03-.19.05-.38.09-.64.14.14.21.2.27.26.73.76,2.57,1.89,3.34,1.99-.05-.24-.09-.45-.13-.65.02-.06.06-.08.12-.07.32.4.64.79.98,1.2.46-.32.82-.57,1.18-.82ZM68.2,173.27l-.09.19c.24.16.49.31.73.47.04-.05.07-.11.11-.16-.25-.17-.49-.33-.74-.5Z"/>
  <path class="cls-1" d="M58.37,121.37c-.02-.08-.08-.19-.05-.24.35-.64.7-1.27,1.07-1.9.05-.09.19-.12.28-.18-.04.19-.07.38-.12.59.7.24.66-.37.85-.68.23-.11.46-.21.3-.54h0c.24-.11.47-.2.71-.3-.09.47.19.48.52.43.11.11.23.23.34.34.08.03.16.07.23.1,0,0-.01,0-.01,0,.07.36.29.26.52.17.21-.36.43-.72.64-1.07.25.1.37.24.2.52-.3.49-.57.98-.86,1.48-.53.33-.44.81-.21,1.23.26.49.06.76-.31,1.02-.03-.25-.1-.5-.09-.75.02-.47-.14-.72-.63-.87-.46-.14-.87-.44-1.3-.66-.04-.07-.1-.22-.12-.21-.42.11-.91.14-.97.73,0,0,0,0,0,0-.03.08-.05.15-.08.23.04.06.07.13.11.19.07.49.32.83.78,1.05.46.22.89.51,1.34.77-.08.26-.16.52-.22.78-.05.2-.09.41-.13.62-1.05-.42-2.29-.55-2.73-1.87.32-.11.56-.27.44-.67-.08-.27-.23-.37-.5-.27Z"/>
  <path class="cls-2" d="M72.63,62.16c-.24-.5-.48-1-.7-1.5-2.01-4.52-4.02-9.05-6.02-13.58-.12-.27-.22-.54-.33-.81.93.75,1.48,1.76,1.91,2.85.04.11.19.17.29.25.12.33.21.66.35.98,1.08,2.45,2.17,4.9,3.27,7.34.11.25.31.47.47.71.32,1.02.66,2.03.95,3.05.06.2-.12.46-.19.7Z"/>
  <path class="cls-1" d="M61.77,115.1c.16-.26.36-.5.49-.78.74-1.6,2.03-1.66,3.18-.68.39.34.85.61,1,1.14.03.12-.01.26-.03.39-.1-.15-.2-.29-.29-.44-.05.01-.1.03-.14.04.01.22.03.44.05.71l.37-.16c-.2.46-.39.92-.6,1.38-.1.23-.22.46-.34.69-.14-.59-.68-.77-1.06-1.13-.67-.63-1.46-.65-2.26-.77-.12-.13-.25-.26-.37-.38Z"/>
  <path class="cls-4" d="M71.38,96.54c-.11.24-.2.48-.32.71-2.17,4.15-4.34,8.3-6.5,12.45-.2.39-.38.72-.97.49.11-.23.19-.43.3-.63,2.19-4.2,4.39-8.4,6.58-12.6.09-.18.17-.4.31-.52.11-.1.33-.08.49-.11.03.07.07.14.1.21Z"/>
  <path class="cls-17" d="M70,82.41c-1.12.57-2.23,1.14-3.35,1.7-.72.36-.97.24-1.25-.49-.32-.84-.66-1.68-1-2.52-.3-.77-.24-.97.54-1.25,2.05-.74,4.12-1.44,6.18-2.16.19.33.13.58-.26.71-1.58.58-3.16,1.16-4.73,1.75-.35.13-.69.3-1.14.5.35.95.76,1.86,1.23,2.88.71-.38,1.36-.74,2.02-1.07.68-.34,1.37-.65,2.05-.97.23.41-.09.65-.3.92Z"/>
  <path class="cls-1" d="M78.36,57.88c.11.4.23.81.34,1.21.03.18.06.36.09.54,0,0,0,.02,0,.02-.65-.07-1.3-.18-1.95-.19-.68-.01-1.35.14-1.85.67-.11.05-.22.11-.33.16-.08-.61-.22-1.22-.22-1.83,0-.54.15-1.05.69-1.39.67-.41,2.04-.44,2.75.02-.14.11-.4.2-.14.42.18.15.41.24.62.36Z"/>
  <path class="cls-4" d="M56.18,123.98c.38.32.19.66.06.97-.35.83-.72,1.66-1.11,2.48-.66,1.38-1.13,2.82-1.38,4.33-.3,1.81-.76,3.6-.69,5.46,0,.11-.02.23-.06.34-.09.27-.16.67-.51.6-.44-.09-.19-.45-.14-.72.02-.11.05-.23.05-.35-.07-1.65.34-3.25.58-4.86.28-1.87.89-3.62,1.76-5.29.5-.95.93-1.93,1.43-2.96Z"/>
  <path class="cls-4" d="M81.14,67.88c.14.08.34.13.38.24.07.18.04.4.03.61-.12,2.76-.49,5.46-1.55,8.04-.49,1.19-.83,2.43-1.24,3.65-.08.25-.14.51-.27.74-.07.12-.26.16-.4.23-.07-.14-.15-.27-.19-.42-.02-.07.05-.16.07-.25.42-1.28.77-2.58,1.28-3.82,1.08-2.6,1.48-5.33,1.74-8.11.02-.23.03-.47.05-.7,0-.05.04-.1.1-.22Z"/>
  <path class="cls-12" d="M67.26,89.76l-1.62-3.66c1.28-.57,2.47-1.09,3.67-1.62-.1.44-.17.89-.32,1.31-.44,1.22-.91,2.42-1.38,3.62-.06.14-.23.23-.35.35Z"/>
  <path class="cls-4" d="M54.07,151.91c.14.24.3.47.42.71.41.87.86,1.73,1.21,2.63,1.06,2.74,2.7,5.1,4.68,7.25.26.28.51.57.72.88.09.13.05.35.08.53-.18-.03-.43,0-.52-.09-1.82-2.16-3.84-4.17-4.85-6.91-.52-1.4-1.17-2.74-1.76-4.12-.11-.25-.17-.51-.26-.76.09-.04.19-.08.28-.12Z"/>
  <path class="cls-12" d="M79.28,61.17c-.31.86-.21,1.72-.06,2.58.02.13.05.27.12.58-.28-.16-.48-.21-.55-.33-.15-.24-.24-.52-.35-.78,0,0,0,.01,0,.01.34-.28.1-.61.07-.92-.03-.07-.05-.13-.08-.2-.03.05-.06.09-.09.14-.03.17-.05.33-.08.5-.13,0-.26-.02-.39-.02-.14-.3-.36-.14-.58-.15-.43-.02-.95.34-1.3-.25.02.19.04.38.06.57-.08.14-.23.3-.21.42.08.45.22.89.33,1.33-.08.09-.16.17-.25.26-.07-.03-.15-.06-.22-.09-.05-.27-.09-.54-.15-.84-.2.05-.33.08-.56.13-.06-.42-.09-.83-.17-1.23-.09-.43-.28-.85-.33-1.28-.04-.35.05-.72.08-1.07.25-.1.34.06.48.23.15.18.38.29.57.44h-.01c.25.42.52.22.8.03h-.01c.24.46.53.07.8.04,0,0-.01,0-.01,0,.16,0,.33-.01.48.01.3.05.6.12.92.18.04-.12.11-.3.17-.48.17.06.34.11.52.16ZM75.32,63.64c.05.04.11.08.16.12.02-.07.03-.14.05-.2q-.12-1.59-.55-2.06c.13.82.24,1.48.34,2.15Z"/>
  <path class="cls-4" d="M76.63,52.5c-.06-.08-.14-.15-.18-.24-.63-1.82-1.79-3.34-2.82-4.93-.69-1.08-1.41-2.14-2.14-3.2-.28-.41-.62-.77-.94-1.15-.11-.13-.3-.23-.35-.38-.07-.19-.13-.51-.03-.62.21-.24.42,0,.56.18.68.88,1.4,1.72,2.01,2.65,1.12,1.71,2.18,3.46,3.22,5.21.35.6.57,1.27.83,1.92.06.15.02.33.03.5-.06.02-.13.04-.19.07Z"/>
  <path class="cls-1" d="M75.7,64.84c.07.03.15.06.22.09-.46,1.05-.04,1.71,1.09,1.67.4-.02.8-.24,1.18-.21.61.05.82-.28.96-.76-.05-.14-.12-.28-.16-.42-.06-.2-.1-.4-.15-.61.14.06.39.1.41.19.12.6.19,1.21.28,1.81-.27-.12-.45-.06-.45.25,0,.3-.14.72.42.69-.27.59-.86.36-1.29.47-.77.19-1.58.31-2.3-.22.11-.11.32-.23.31-.34-.02-.35-.28-.51-.75-.66.14.38.22.63.31.88-.33-.07-.47-.27-.5-.6-.07-.82-.15-1.64-.23-2.5.33-.03.27.62.65.28Z"/>
  <path class="cls-12" d="M62.14,115.48c.8.12,1.6.14,2.26.77.38.36.92.54,1.06,1.13-.07.42-.13.84-.22,1.26-.02.11-.1.25-.19.28-.99.41-1.32,1.34-1.75,2.2-.02.05-.08.08-.12.12-.03-.01-.06-.02-.1-.03-.13-.31-.26-.62,0-.92.44-.58.88-1.17,1.32-1.75.08.06.17.11.25.17l.07-.21c-.1,0-.2,0-.3,0-.22-.26-.39-.63-.66-.75-.73-.33-1.28-.86-1.84-1.38h0c.07-.28.15-.58.22-.87Z"/>
  <path class="cls-4" d="M89.64,178.28c-1.09-.24-2.11-.43-3.11-.71-.93-.25-1.83-.6-2.75-.9-1.03-.33-2.06-.66-3.08-.99-.11-.04-.23-.05-.34-.1-.23-.11-.56-.18-.42-.54.12-.3.37-.18.6-.1,1.3.44,2.59.9,3.9,1.32,1.5.48,3,.95,4.51,1.4.46.14.47.11.69.62Z"/>
  <path class="cls-12" d="M74.99,60.14c.51-.53,1.17-.68,1.85-.67.65,0,1.3.12,1.95.19.04.05.05.1.02.16-.1.18-.23.34-.28.53-.05.18,0,.38,0,.57-.49,0-.95.06-1.35.37,0,0,.01,0,.01,0-.25-.27-.53-.16-.8-.04,0,0,.01,0,.01,0-.26-.17-.52-.25-.8-.04h.01c-.21-.36-.42-.72-.63-1.08Z"/>
  <path class="cls-16" d="M71.87,58.41c-.16-.23-.36-.45-.47-.71-1.1-2.44-2.19-4.89-3.27-7.34-.14-.32-.24-.65-.35-.98.36.45.76.88,1.06,1.37.38.61.92,1.14.94,1.94,0,.16.14.32.22.47.82,1.59,1.46,3.24,1.76,5.01.01.08.07.16.11.23Z"/>
  <path class="cls-12" d="M63.65,118.08c-.21.36-.43.72-.64,1.07-.12-.21-.28-.31-.52-.17,0,0,.01,0,.01,0-.08-.03-.16-.07-.23-.1-.11-.11-.23-.23-.34-.34-.02-.33-.05-.67-.08-1.16-.19.32-.32.53-.44.73-.24.1-.47.2-.71.29-.13-.43.3-.58.45-.88.11-.22.42-.38.21-.83-.26.38-.44.69-.67.97-.14.16-.34.27-.52.4,0-.14-.04-.31.02-.4.35-.44.69-.84.76-1.47.04-.32.45-.6.7-.9.09.35.18.7.26,1.05,0,0,0,0,0,0-.18.4.03.65.34.85.46.29.93.58,1.39.87Z"/>
  <path class="cls-1" d="M76.16,64.66c-.12-.44-.26-.88-.33-1.33-.02-.12.14-.28.21-.42.62.04,1.24.17,1.82-.18.13,0,.26.02.39.02.06.16.12.32.18.48,0,0,0-.01,0-.01-.32.49.02.86.23,1.26-.8-.06-1.54.2-2.29.43-.07-.08-.13-.17-.2-.25Z"/>
  <path class="cls-12" d="M59.38,120.97c-.04-.06-.07-.13-.11-.19.03-.08.05-.15.08-.23,0,0,0,0,0,0,.36-.17.72-.34,1.09-.52.43.23.84.53,1.3.66.49.15.64.4.63.87,0,.25.06.5.09.75-.02.11-.05.21-.07.32-.04-.1-.08-.19-.12-.29-.4-.09-.8-.18-1.2-.27-.7-.16-1.14-.71-1.68-1.11Z"/>
  <path class="cls-12" d="M76.36,64.92c.75-.23,1.49-.49,2.29-.43.06.04.12.07.18.11.05.2.09.41.15.61.04.14.11.28.16.42-.1,0-.24-.04-.3.02-.86.73-1.82.67-2.96.38.18-.41.32-.75.47-1.1Z"/>
  <path class="cls-5" d="M63.65,118.08c-.46-.29-.93-.58-1.39-.87-.31-.2-.52-.45-.34-.85.56.53,1.11,1.05,1.84,1.38.28.12.45.49.66.75l-.02.05c-.44.58-.88,1.17-1.32,1.75-.03-.07-.07-.13-.1-.2.29-.49.56-.99.86-1.48.17-.28.05-.42-.2-.52Z"/>
  <path class="cls-5" d="M60.17,118.08c.17-.13.38-.24.52-.4.23-.28.42-.6.67-.97.21.45-.1.6-.21.83-.15.29-.58.44-.45.88,0,0,0,0,0,0-.1.18-.2.36-.3.54-.2.31-.15.92-.85.68.04-.21.08-.4.12-.59.06-.08.11-.15.17-.23.26-.18.48-.38.34-.74h0Z"/>
  <path class="cls-8" d="M61.15,124.18c.04-.21.07-.42.13-.62.07-.26.15-.52.22-.78.06,0,.11-.03.14-.07.13.2.25.4.38.6-.09.49-.27.89-.87.86Z"/>
  <path class="cls-1" d="M78.54,60.92c0-.19-.05-.39,0-.57.05-.19.18-.36.28-.53.15.45.31.9.46,1.35-.17-.05-.34-.11-.52-.17-.07-.03-.15-.06-.23-.09Z"/>
  <path class="cls-9" d="M79.51,67.54c-.57.03-.42-.39-.42-.69,0-.31.18-.37.45-.25,0,.31-.02.63-.03.94Z"/>
  <path class="cls-9" d="M75.79,67.66c-.09-.25-.18-.5-.31-.88.47.16.73.31.75.66,0,.11-.2.23-.31.34-.04-.04-.09-.08-.13-.12Z"/>
  <path class="cls-9" d="M58.37,121.37c.27-.1.42,0,.5.27.12.4-.12.56-.44.67-.06-.16-.11-.32-.17-.48.04-.15.08-.31.11-.46h0Z"/>
  <path class="cls-1" d="M62.03,123.32c-.13-.2-.25-.4-.38-.6.21-.12.41-.24.62-.36.04.1.08.19.12.29-.12.23-.24.45-.36.68Z"/>
  <path class="cls-5" d="M74.99,60.14c.21.36.42.72.63,1.08-.2-.14-.43-.25-.57-.44-.14-.17-.23-.33-.48-.23.03-.08.06-.17.09-.25.11-.05.22-.11.33-.16Z"/>
  <path class="cls-5" d="M61.92,116.36c-.09-.35-.18-.7-.26-1.05.04-.07.08-.15.11-.22.12.13.25.26.37.38-.07.29-.15.59-.22.88Z"/>
  <path class="cls-9" d="M78.36,57.88c-.21-.12-.43-.21-.62-.36-.26-.22,0-.31.14-.42.16.26.32.52.48.78Z"/>
  <path class="cls-9" d="M66.39,115.31l-.37.16c-.02-.27-.03-.49-.05-.71.05-.01.1-.03.14-.04.1.15.2.29.29.44,0,.05,0,.1-.02.14Z"/>
  <path class="cls-12" d="M60.18,118.08c.13.36-.08.56-.34.74-.06-.33-.03-.61.34-.74Z"/>
  <path class="cls-1" d="M58.37,121.37c-.04.15-.08.31-.11.46-.19-.21-.13-.36.11-.46Z"/>
  <path class="cls-12" d="M78.79,59.64c-.03-.18-.06-.36-.09-.54.03.18.06.36.09.54Z"/>
  <path class="cls-12" d="M63.18,121.23s-.1.07-.15.11c.02-.05.04-.09.05-.14.03.01.06.02.1.03Z"/>
  <path class="cls-6" d="M103.07,53.32,102.33,55.04c.28-.11.57-.22.86-.34.28-.08.57-.17.85-.25-.43.22-.85.47-1.29.65-.45.18-.61.47-.49.93.08.32.15.64.23.96.15.49.31.97.46,1.46,0,.33-.04.68.04.99.12.44.35.86.53,1.28-.13-.09-.26-.18-.55-.37.31,1.02.57,1.87.83,2.72-.47.38-.19.8-.05,1.21-.09.62-.08,1.23.2,1.81-.36.21-.32.49-.18.81.24.55.48,1.1.71,1.66-.17-.2-.35-.41-.52-.61-.05.01-.1.03-.15.04.11.55.22,1.1.33,1.65-.56.37-.06.78-.04,1.22-.18.26-.52.52-.29.95-.07.12-.15.24-.22.37.03.34.05.68.08,1.02-.1.91-.2,1.81-.31,2.72-.26.26-.19.54-.05.82-.04.07-.07.15-.11.22-.59.39-.45.98-.45,1.54-.4.78-.57,1.57-.07,2.39.24.4.45.81.68,1.21.26.47.21.7-.27,1.07-.35-.57-.7-1.14-1.07-1.74-.07.1-.11.15-.13.2-.73,1.78-1.47,3.55-2.18,5.34-.06.15,0,.37.05.55.11.45.27.88.34,1.33.02.14-.19.31-.3.47-.14-.12-.33-.21-.42-.36-.09-.15-.1-.37-.17-.67-.17.2-.3.29-.33.41-.1.39-.07.84-.25,1.17-.2.35-.68.55-.89.9-.52.87-.97,1.79-1.42,2.71-.06.12.04.32.06.48-.52.11-.57.6-.79.96-.11.18-.21.35-.32.53-.14.25-.29.51-.43.76-.03.07-.06.15-.09.22,0,0,0,0,0,0-.93,1.46-1.87,2.91-2.77,4.38-.31.51-.52,1.08-.78,1.62-.2.24-.39.48-.59.73-.33.57-.66,1.13-1,1.7-.2.26-.4.52-.6.78-.27.51-.54,1.01-.8,1.52-.15.27-.3.55-.45.82-.9,1.46-1.81,2.91-2.69,4.39-.1.17-.04.43-.06.65-.37.22-.89.33-.76.95-.53.83-1.07,1.65-1.57,2.5-.68,1.15-1.33,2.32-1.99,3.48-.52.3-.69.82-.86,1.35h0s-.07.08-.11.13c-.54,1.1-1.09,2.21-1.63,3.31l-.47,1.13c-.34.68-.69,1.35-1.03,2.03-.07.4-.15.8-.22,1.2-.48.96-.87,1.95-1.05,3.01-.52.36-.35.82-.17,1.27-.12.24-.3.47-.35.73-.11.6-.16,1.22-.23,1.83-.28,1.39-.04,2.79-.06,4.19-.02,1.19.47,2.26.75,3.39.18.72.33,1.47.64,2.14.51,1.11,1.11,2.17,1.74,3.22.56.95,1.11,1.94,1.84,2.75,1,1.11,2.16,2.08,3.25,3.1,1.01,1.48,1.54,3.2,2.31,4.8.5,1.04,1.02,2.06,1.5,3.11,1.15,2.55,2.28,5.11,3.42,7.67,0,.02,0,.05-.01.13-1.59-.1-3.17-.29-4.7-.79-1.39-.46-2.8-.85-4.15-1.38-1.25-.49-2.45-1.09-3.65-1.69-1.07-.53-2.11-1.13-3.15-1.71-.38-.21-.78-.42-1.1-.71-1.71-1.49-3.49-2.93-5.08-4.55-1.13-1.16-2.11-2.5-2.94-3.89-1.09-1.82-1.99-3.74-2.67-5.78-1.03-3.06-1.49-6.18-1.41-9.37.07-2.77.28-5.54,1.09-8.22.44-1.45.79-2.93,1.33-4.34.53-1.38,1.24-2.69,1.87-4.04.33-.71.6-1.46.99-2.14.71-1.24,1.49-2.43,2.24-3.65.52-.84,1.01-1.71,1.55-2.54,1.59-2.45,2.88-5.07,4.34-7.59,1.11-1.92,2.17-3.87,3.25-5.8,2.26-4.05,4.55-8.09,6.76-12.17.96-1.77,1.76-3.62,2.64-5.42.42-.86.96-1.65,1.21-2.61.36-1.41.9-2.78,1.21-4.2.41-1.88.77-3.77.96-5.68.19-1.88.14-3.78.19-5.67.05-1.97-.36-3.87-.74-5.8-.34-1.72-.86-3.38-1.35-5.06-.75-2.57-1.93-4.96-3.11-7.34-1.06-2.13-2.47-4.07-4.03-5.9-1.29-1.51-2.68-2.92-4.04-4.36-2.6-2.75-5.66-4.86-8.9-6.74-1.51-.88-3.14-1.53-4.72-2.28-.97-.46-1.93-.97-2.93-1.37-1.28-.5-2.59-.91-3.89-1.35-.29-.55-.62-1.08-.86-1.64-.3-.7-.52-1.44-.8-2.15-.34-.86-.7-1.72-1.05-2.57,2.28.9,4.56,1.81,6.85,2.69.28.11.71.5.89,0,.16-.46-.4-.49-.69-.61-2.06-.83-4.12-1.65-6.19-2.45-.29-.11-.61-.14-.92-.21-.15-.12-.36-.22-.42-.38-.3-.71-.54-1.44-.82-2.15-.27-.69-.58-1.37-.87-2.06-.29-.7-.58-1.39-.87-2.09.31.05.62.11.93.16.56.1,1.11.21,1.67.32.43.15.85.32,1.29.45.9.26,1.8.51,2.7.76.31.09.61.18.92.26.32.13.63.33.96.39,1.73.29,3.32,1.01,4.94,1.62.29.19.57.35.92.14.31.16.6.35.92.47.76.28,1.54.52,2.31.78.3.1.59.21.94.33-.04-.22-.06-.36-.08-.51.12.16.25.31.35.48.16.27.38.34.66.23.54.58,1.2.9,1.98,1,.16.07.32.15.49.22.18.13.34.3.53.39.82.4,1.65.79,2.47,1.18.35.38.75.69,1.28.75.54.35,1.08.7,1.63,1.05.18.11.37.22.55.34.19.11.38.21.69.38.14-.55.25-1.02.37-1.48.09-.04.17-.07.26-.11.02.48.04.95.06,1.42.12.1.25.2.37.3-.13.1-.27.19-.51.37,1.15.72,2.23,1.4,3.31,2.08.28.25.57.49.85.74.85.75,1.72,1.48,2.55,2.25.38.36.73.66,1.35.3.09.29.26.56.19.7-.2.37.01.54.22.75.34.35.72.67,1.03,1.04.35.41.64.89.99,1.3.62.73,1.27,1.44,1.9,2.16.09.21.19.42.28.63.37.48.74.95,1.12,1.43.23.23.47.47.7.7.1.73.12.75.73.61-.11.16-.22.32-.31.44.24.44.48.83.67,1.25.42.89.41.89,1.35.65-.18.17-.37.34-.56.53.48.81.99-.18,1.4.04l.82,1.85c-.3.2-.54.35-.8.53l.29.66c.3-.07.57-.13.9-.21.21.64.41,1.23.62,1.83-.32.19-.54.32-.78.45.02.22.05.42.07.62.42,1.11.84,2.22,1.26,3.33.06.3.11.6.17.9.01.05.02.1.03.15.04.12.09.23.13.35.1.29.2.57.3.86.12.05.27.19.35.15M74.06,30.78l.05.04c.34.22.68.44,1.02.66,0,0,.06.03.06.03.39.07.79.22,1.17.19.31-.03.71-.2.88-.45.45-.67.83-1.39,1.19-2.12.18-.37.29-.8,0-1.16-.8-.96-1.8-1.67-2.96-2.13-.23-.38-.51-.4-.79-.16.23.58.59,1.01,1.07,1.35.1.07.11.32.12.49.04.77-.29,1.43-.83,1.92-.26.24-.66.66-1.13.21.26-.18.52-.36.79-.54.58-.4.84-.99.8-1.65-.04-.59-.64-.67-1.09-.86-.05-.02-.11-.01-.17-.02.11-.32.01-.52-.31-.68-.68-.34-1.33-.71-1.99-1.09-.19-.11-.52-.17-.34-.57.39.16.77.32,1.14.48-.83-.65-1.67-1.27-2.7-1.53-.33-.08-.7-.08-1.04-.02-.23.04-.51.19-.64.38-.42.62-.77,1.28-1.15,1.93-.22.27-.17.56.04.78.39.4.41,1.21,1.22,1.17h0c.21.12.42.24.63.36,0,0,.03.02.03.02.41.31.8.67,1.24.93.92.52,1.91.92,2.62,1.75l.04.02c.34.09.69.18,1.03.26ZM67.86,139.83c.08-.74.16-1.48.26-2.34,0,0,.16-.09.3-.18.23-.15.36-.41.17-.59-.4-.39-.18-.81-.13-1.21.11-.96.26-1.92.39-2.88.06-.4.18-.8.17-1.2-.04-1.06-.7-1.8-1.57-1.92-.71-.1-1.42-.04-2.14.07-.38.06-.61.25-.81.57-.51.8-.37,1.72-.54,2.58-.18.87-.19,1.78-.31,2.67-.03.19-.19.42-.36.53-.36.23-.33.54-.1.72.32.25.29.55.29.85,0,.49-.05.98-.06,1.48-.03.94.34,1.56,1.23,1.8.69.18,1.42.21,2.14.27.14.01.29-.15.44-.23.34-.07.29.18.3.37.08,2.08.76,3.99,1.5,5.9.11.3.2.61.6.63.16-.48.16-.48,0-.89-.71-1.91-1.5-3.8-1.62-5.88-.02-.37-.1-.74-.15-1.11ZM94.65,79.22c.34-.14.63-.37.71-.84.21-1.19.47-2.38.7-3.56.02-.08-.03-.17-.02-.26.03-.31.05-.63.09-.94.17-1.32.37-2.64.49-3.97.05-.65-.11-1.27-.84-1.56-1.69-.66-2.42-.32-2.95,1.4-.03.08-.05.17-.07.25-.23,1.02-.48,2.04-.69,3.06-.09.43-.14.85-.48,1.16.23.76-.27,1.4-.35,2.11-.07.58-.13,1.16-.13,1.74,0,.26.13.57.3.77.76.88,2.11,1.14,3.25.63ZM72.17,121.18c.51,0,.56-.45.73-.76.95-1.78,1.87-3.58,2.83-5.35,1.01-1.85,2.06-3.67,3.09-5.51.11-.2.33-.42.03-.77-.17.23-.31.39-.43.58-1.19,1.95-2.42,3.87-3.55,5.85-.94,1.65-1.77,3.36-2.64,5.05-.14.27-.34.56-.07.9ZM92.12,85.53c-.06.09-.14.17-.18.26-.33.77-.63,1.57-1,2.32-.62,1.26-1.33,2.47-1.92,3.74-.8,1.69-1.64,3.36-2.72,4.89-.08.12-.19.24-.22.37-.02.12.02.31.1.37.08.06.29.04.37-.03.15-.13.27-.31.37-.48.67-1.13,1.38-2.24,1.98-3.41.9-1.77,1.73-3.57,2.58-5.37.28-.61.53-1.23.76-1.86.09-.25.26-.56-.12-.82ZM79.54,31.9c.06.32.06.39.09.42.08.08.17.16.26.23,2.22,1.62,4.23,3.47,5.91,5.66.74.97,1.45,1.96,2.19,2.93.09.11.27.16.4.24.07-.15.23-.31.2-.44-.04-.22-.16-.44-.3-.62-.84-1.08-1.67-2.17-2.54-3.22-1.53-1.86-3.39-3.35-5.36-4.73-.22-.15-.47-.26-.86-.47ZM85.95,163.38c-.15,0-.3.04-.44.02-.34-.04-.7-.03-1-.17-2.6-1.18-4.97-2.68-6.71-5.02-.16-.21-.32-.42-.52-.58-.17-.14-.41-.33-.59-.05-.06.1.05.36.15.5.14.22.36.38.5.6.6.95,1.38,1.73,2.3,2.36,1.04.7,2.08,1.41,3.17,2.02.68.38,1.46.58,2.21.82.29.1.63.19.93-.51ZM93.91,53.49c-.08.03-.17.07-.25.1.07.23.12.47.2.7.19.58.42,1.15.59,1.74.54,1.84.51,3.75.55,5.64,0,.17-.04.37.02.52.05.13.2.25.33.31.04.02.23-.16.26-.27.05-.19.06-.4.05-.61-.04-.96-.04-1.93-.14-2.88-.17-1.63-.55-3.22-1.27-4.71-.09-.19-.23-.36-.34-.55ZM74.08,25.55c.03-.07.06-.13.09-.2-.27-.15-.54-.29-.81-.44-.04.08-.08.15-.11.23.28.14.56.27.83.41Z"/>
  <path class="cls-9" d="M141.05,181.07c-.52-.02-.69-.54-1.08-.77-.52-.31-.97-.73-1.46-1.09-.65-.48-1.3-.95-1.95-1.42-.32-.23-.32-.56-.16-.86.4-.72.83-1.42,1.35-2.06.29-.36.58-.52,1.04-.27.73.39,1.47.73,2.34,1.16-.3.16-.46.24-.62.33-.64-.69-.65-.7-1.39-.07-.25.21-.64.35-.54.81,0,0,.01-.01.01-.01-.03.08-.06.17-.09.25,0,0,0-.02,0-.02-.1.11-.19.21-.29.32-.17.6-.16.63.38.78-.23.24-.39.48.08.62.42.12.76.33,1.08.65.38.37.89.61,1.35.9.17.1.33.14.36-.14.03-.01.06-.03.09-.04.04.03.08.06.11.1.07.35.08.72.39.97-.04.15-.08.3-.13.45q-.59.01-.9-.58Z"/>
  <path class="cls-4" d="M151.7,192.36c.73.52,3.05,5.65,3.79,8.41.48,1.79,1.23,3.55,1.03,5.49-.48,0-.53-.25-.57-.52-.57-3.97-1.94-7.68-3.58-11.31-.23-.51-.44-1.02-.63-1.54-.05-.14-.03-.32-.04-.52Z"/>
  <path class="cls-4" d="M160.82,232.9c-.41.2-.82.4-1.23.61.19-.13.38-.26.49-.33-.01-.53-.07-1.01-.03-1.48.31-3.78.04-7.52-.6-11.25-.07-.43-.33-.86.04-1.36.1.25.23.49.29.75.99,4.15,1.31,8.35.86,12.6-.02.17-.2.42.17.46Z"/>
  <path class="cls-10" d="M142.6,182.29s-.06-.07-.11-.09c-.07-.15-.13-.29-.28-.63.73.37,1.07.18,1.35-.37.18-.36.54-.64.82-.96.1-.37.2-.75.3-1.12l.06-.02c.46.46.95.89,1.36,1.39.15.18.2.59.1.79-.44.89-1.02,1.68-2.15,1.74-.08-.03-.16-.05-.23-.08,0,0,0,0,0,0-.07-.03-.15-.07-.22-.1,0,0,0,0,0,0-.28-.28-.5-.65-.99-.56Z"/>
  <path class="cls-4" d="M127.88,169.81c-.17-.06-.36-.08-.51-.17-2.49-1.64-5.31-2.53-8.06-3.56-.26-.1-.68-.1-.58-.5.11-.42.48-.22.73-.13,2.77,1.01,5.53,2.03,7.98,3.73.19.14.36.31.54.47-.04.06-.07.11-.11.17Z"/>
  <path class="cls-1" d="M144.75,179.11s-.06.02-.06.02c-.07-.08-.14-.17-.22-.27-.14.46-.26.87-.39,1.28-.29.27-.6.53-.86.83-.33.39-.7.44-1.14.23-.32-.25-.32-.62-.39-.97.21-.3.39-.64.8-.71.36-.28.71-.56,1.07-.84.29,0,.58-.01.87-.02.11.15.22.3.33.45Z"/>
  <path class="cls-10" d="M140.58,176.88c.05,0,.1-.03.15-.05.62.3,1.23.62,1.67,1.18-.1.05-.21.11-.31.16-.43.45-.87.89-1.3,1.34-.48-.37-.96-.73-1.44-1.1.42-.51.83-1.02,1.25-1.53Z"/>
  <path class="cls-1" d="M140.58,176.88c-.42.51-.83,1.02-1.25,1.53-.24-.09-.49-.18-.73-.27-.53-.15-.55-.18-.38-.78q.26.12.29-.32v.02c.02-.08.05-.17.08-.25,0,0-.01.01-.01.01.18-.12.38-.21.52-.36.56-.63.9-.61,1.33.11.06.1.1.21.15.32Z"/>
  <path class="cls-15" d="M142.07,181.2c.44.2.81.16,1.14-.23.26-.3.57-.55.86-.83.1.04.21.08.31.11-.28.32-.63.59-.82.96-.28.54-.62.74-1.35.37.15.34.21.48.28.63-.29-.04-.57-.07-.86-.11-.77-.1-.84-.23-.59-1.02q.3.59.9.58c.04-.15.08-.3.13-.45Z"/>
  <path class="cls-1" d="M142.39,178.01c-.44-.56-1.05-.88-1.67-1.18,0-.14.01-.29.02-.52,1.3.31,1.98,1.34,2.8,2.19-.01.03-.03.05-.04.08-.18-.07-.37-.15-.55-.22-.18-.12-.37-.23-.55-.35Z"/>
  <path class="cls-10" d="M144.42,178.66c-.29,0-.58.01-.87.02,0,0,0,0,0,0,.07-.08.13-.16.2-.24.04-.35.21-.53.61-.39.02.2.05.4.07.61Z"/>
  <path class="cls-15" d="M142.6,182.29c.48-.09.71.28.99.56-.43-.01-.78-.15-.99-.56Z"/>
  <path class="cls-15" d="M143.82,182.96c.08.03.16.05.23.08-.08-.03-.16-.05-.23-.08Z"/>
  <path class="cls-15" d="M143.59,182.85c.07.03.15.07.22.1-.07-.03-.15-.07-.22-.1Z"/>
  <path class="cls-10" d="M90.64,103.16c.17.25.39.49.51.76,3.37,7.56,6.73,15.13,10.09,22.69,8.74,19.62,17.48,39.23,26.23,58.84.13.28.32.54.48.8.46,1.01.91,2.01,1.37,3.02.05.14.09.28.15.41,3.13,7.16,6.27,14.32,9.4,21.47.08.18.2.35.3.53.09.27.15.56.27.82,2.41,5.51,4.83,11.01,7.25,16.51.09.21.21.41.32.62.52,1.18,1.04,2.36,1.56,3.54.6,1.39,1.2,2.78,1.78,4.19.1.25.11.54.15.81-.35.3-.7.61-1.11.96-.4-.91-.77-1.76-1.16-2.61-.28-.63-.36-.67-.99-.38-4.06,1.82-8.11,3.65-12.16,5.48-.66.3-.68.39-.42,1.08.8,2.07,1.6,4.15,2.39,6.22.07.19.12.38.19.59-.18.09-.34.17-.57.28-.55-1.4-1.09-2.78-1.67-4.24-1.59-.07-2.8.84-4.28,1.37,1.03,1.5,1.54,3.05,1.93,4.63-.43.43-.87.44-1.34.29-.72-.23-1.59-.28-2.14-.73-.51-.41-.71-1.23-1.01-1.88-4.02-8.68-8.05-17.36-12.06-26.05-2.22-4.81-4.59-9.56-6.59-14.46-3.03-7.42-6.54-14.62-9.75-21.96-3.21-7.35-6.51-14.66-9.78-21.98-4.79-10.71-9.59-21.42-14.39-32.13-.08-.19-.17-.37-.26-.56.17-1.06.57-2.05,1.05-3.01.74,1.66,1.48,3.31,2.22,4.97.28.61.54,1.23.83,1.84.36.75.79.91,1.54.59.42-.18.84-.37,1.29-.57,5.02,11.36,10.01,22.63,15,33.93l-2.58,1.14c.19.43.38.87.58,1.31,1.7,3.79,3.41,7.58,5.12,11.36.11.24.3.44.42.6l2.4-1.06c5.2,11.55,10.07,23.16,14.98,34.76l-2.14.94c.08.26.13.48.23.69,1.76,3.89,3.51,7.79,5.29,11.68.13.29.37.54.54.78.68-.22,1.25-.41,1.86-.61,1.66,3.92,3.31,7.79,4.98,11.73.47-.13.87-.19,1.23-.34,1.56-.67,3.11-1.37,4.65-2.07,3.78-1.72,7.56-3.45,11.34-5.17.44-.2.88-.39,1.37-.61-.15-.34-.28-.63-.41-.92-7.3-16.38-14.62-32.76-21.91-49.15-11.7-26.31-23.39-52.63-35.08-78.94-.17-.37-.34-.74-.51-1.12.33-.57.66-1.13,1-1.7Z"/>
  <path class="cls-8" d="M141.5,200.75c-.63-.7-1.17-1.4-1.29-2.36-.06-.43.02-.79.33-1.02.51-.37,1.07-.7,1.63-.98.7-.35,1.29-.02,1.81.44.11.09.21.21.28.33.42.71.77,1.49,1.88,1.54-.38.51-.25.88,0,1.26.49.75.98,1.51,1.45,2.27.26.42.49.85.75,1.27.33.54.29,1.06-.13,1.52-.33.37-.66.74-1.05,1.03-1.09.81-2.19.63-2.91-.5-.61-.95-1.16-1.94-1.73-2.92-.22-.37-.35-.76-.85-.92-.49-.17-.26-.63-.17-.97ZM142,200.08c.11.1.21.2.32.3.55.5.55.5,1.18.07.24-.16.5-.3.75-.45.65-.37.77-.78.2-1.3.11-.27.02-.42-.26-.34-.91.26-1.62.84-2.29,1.48-.03.02.06.16.09.25ZM148.11,204.56c-.19-.23-.29-.35-.42-.51-.52.48-1.34.55-1.42,1.48.57-.3,1.15-.61,1.84-.97ZM143.6,202.61c-.14.93.66,1.36,1.09,2,.07-.88-.39-1.49-1.09-2ZM143.55,202.23q-.46-1.01-.98-.96c.1.41.21.82.33,1.29.22-.11.44-.22.65-.33Z"/>
  <path class="cls-17" d="M134.81,203.91c-.1-.17-.22-.34-.3-.53-3.14-7.16-6.27-14.31-9.4-21.47-.06-.13-.1-.27-.15-.41.37-.11.44.19.54.42.16.34.3.69.46,1.03.99,2.11,1.91,4.26,3.02,6.3,1.01,1.85,1.82,3.78,2.65,5.7.49,1.14.82,2.35,1.21,3.53.26.79.45,1.6.98,2.3.52.69.87,1.5,1.3,2.26.13.26.26.52.38.79,2.61,5.98,5.21,11.97,7.82,17.95.18.4.38.79.57,1.19.16.72.33,1.44.48,2.16.02.08-.11.18-.16.27-.52-1.18-1.04-2.36-1.56-3.54-.09-.3-.14-.62-.26-.9-2.38-5.4-4.76-10.8-7.14-16.19-.13-.29-.29-.57-.43-.86Z"/>
  <path class="cls-7" d="M143.89,222.97c-.19-.4-.39-.79-.57-1.19-2.61-5.98-5.22-11.96-7.82-17.95-.12-.27-.25-.53-.38-.79.57.16.72.7.98,1.12.8,1.29,1.58,2.58,2.34,3.89.35.6.6,1.25.92,1.87,1.16,2.3,2.1,4.68,2.97,7.11.47,1.32.71,2.69,1.12,4.01.19.63.3,1.28.45,1.92Z"/>
  <path class="cls-4" d="M148.01,225.37c-.05-.17-.17-.36-.14-.53.36-2.37-.21-4.66-.6-6.95-.39-2.24-.96-4.45-1.46-6.67-.08-.33-.23-.64-.36-1,.32-.2.48-.02.58.25.25.72.49,1.44.71,2.16.88,3.01,1.46,6.07,1.8,9.19.1.95.02,1.92,0,2.88,0,.29-.04.6-.51.67Z"/>
  <path class="cls-4" d="M137.98,195.49c-.11-.11-.24-.2-.31-.32-1.43-2.34-3.36-4.24-5.33-6.1-.38-.36-.86-.6-1.26-.93-.12-.1-.13-.32-.18-.49.15-.03.35-.12.46-.06.36.18.72.39,1.03.65,2.01,1.71,3.71,3.7,5.19,5.88.26.38.52.81.41,1.37Z"/>
  <path class="cls-10" d="M82.75,154.73c-1.09-1.03-2.25-1.99-3.25-3.1-.73-.81-1.27-1.8-1.84-2.75-.62-1.05-1.22-2.12-1.74-3.22-.31-.67-.46-1.42-.64-2.14-.28-1.12-.77-2.2-.75-3.39.02-1.4-.22-2.8.06-4.19.87,1.97,1.74,3.94,2.62,5.91,1.04,2.34,2.1,4.68,3.15,7.02.75,1.68,1.5,3.36,2.23,5.04.11.25.11.54.16.81Z"/>
  <path class="cls-4" d="M17.81,19.57c-.18,0-.38.03-.54-.03-.84-.33-1.68-.66-2.5-1.04-.93-.43-1.85-.87-2.73-1.4-.92-.56-1.81-1.18-2.65-1.84-.64-.5-1.19-1.12-1.78-1.69-.13-.12-.25-.25-.35-.39-.15-.23-.27-.51,0-.7.26-.18.38.08.54.26,1.39,1.54,2.85,3.01,4.75,3.94.71.35,1.37.78,2.08,1.14.91.46,1.84.88,2.76,1.32.15.07.3.15.45.23-.02.07-.03.14-.05.21Z"/>
  <path class="cls-15" d="M31.81,9.04c-1.17-1.47-1.52-3.32-2.68-4.78.83-.8,1.72-1.21,2.7-1.37,2.9-.49,5.81-.94,8.72-1.4.52-.08,1.05-.12,1.56-.24.39-.09.63.02.76.38.24.65.47,1.31.74,2.06-.36.16-.64.28-.93.41-1.6.72-3.21,1.42-4.8,2.16-1.75.81-3.48,1.64-5.23,2.46-.26.12-.53.21-.83.33Z"/>
  <path class="cls-3" d="M28.14,8.23c-1.09.38-2.07.73-3.05,1.07l-1.23-2.79c.9-.4,1.74-.77,2.68-1.18.51.92,1.03,1.85,1.61,2.9Z"/>
  <path class="cls-4" d="M54.24,19.36c.31.07.63.09.92.21,2.07.8,4.13,1.62,6.19,2.45.29.12.85.15.69.61-.18.5-.61.12-.89,0-2.29-.88-4.57-1.79-6.85-2.69-.02-.19-.04-.39-.06-.58Z"/>
  <path class="cls-15" d="M137.92,249.15c-.88-2.3-1.73-4.52-2.61-6.8,4.12-1.82,8.17-3.61,12.33-5.45.36.82.75,1.64,1.07,2.47.06.15-.08.45-.22.58-.93.93-1.88,1.84-2.83,2.73-1.93,1.82-3.88,3.62-5.81,5.45-.53.5-1.14.78-1.93,1.02Z"/>
  <path class="cls-3" d="M136.03,250.1l-2.63,1.16c-.51-1.38-1-2.73-1.52-4.13l2.46-1.09c.77,1.26,1.06,2.7,1.68,4.06Z"/>
  <path class="cls-12" d="M55.91,30.57c5.42,12.26,10.83,24.48,16.28,36.83-4.02,1.96-8.05,3.93-12.14,5.92-5.51-12.47-10.99-24.85-16.47-37.24.45-.4,10.85-5.07,12.32-5.51ZM58.51,65.74c.49-.29.85-.52,1.23-.71,1.99-1.04,3.99-2.08,5.98-3.12.33-.17.66-.39,1.02-.47.9-.19,1.07-.46.67-1.29-1.13-2.37-2.27-4.75-3.41-7.12-.39-.82-.78-1.64-1.2-2.44-.64-1.25-.66-1.24-1.99-.73-.05.02-.11.04-.16.07-2.39,1.03-4.78,2.07-7.17,3.1-.23.1-.44.24-.75.41.25.43.5.79.68,1.17.94,1.92,1.86,3.84,2.78,5.77.18.37.37.73.53,1.11.43,1.02.86,2.04,1.27,3.07.05.13.08.3.03.42-.24.56.18.64.47.76ZM47.06,41.28c.32.43.59.69.72,1,.71,1.67,1.39,3.35,2.06,5.02.54,1.35,1.08,2.71,1.61,4.07.21.55.47.67,1.11.38,2.93-1.33,5.84-2.68,8.76-4.03.49-.23.55-.45.33-.9-.98-1.96-1.95-3.92-2.93-5.87-.63-1.25-1.27-2.5-1.89-3.75-.17-.35-.3-.73-.49-1.21-.24.08-.6.17-.92.33-2.47,1.2-4.92,2.44-7.4,3.6-.74.34-.96.83-.94,1.36Z"/>
  <path class="cls-11" d="M59.31,73.7c-1.03.51-1.98.99-3,1.5-5.55-12.54-11.05-24.99-16.6-37.54.5-.23.99-.46,1.48-.69.5-.23,1.01-.45,1.57-.7,5.52,12.49,11.02,24.91,16.55,37.42Z"/>
  <path class="cls-12" d="M37.99,23.45c-1.74-3.94-3.43-7.75-5.15-11.64.31-.14.58-.25.84-.37,1.04-.46,2.1-.89,3.12-1.39,2.39-1.15,4.77-2.33,7.16-3.49.31-.15.63-.28,1.01-.45,1.73,3.92,3.44,7.78,5.2,11.75-.28.12-.56.25-.84.37-2.69,1.21-5.38,2.42-8.07,3.64-.82.38-1.62.8-2.44,1.19-.26.13-.52.23-.84.37ZM35.77,15.56c.15-.04.35-.08.52-.16,3.03-1.5,6.07-3,9.1-4.52.58-.29.68-.62.39-1.21-.09-.18-.22-.34-.33-.51-.79-1.26-.9-1.3-2.22-.69-2.41,1.12-4.81,2.25-7.22,3.36-.37.17-.76.32-1.15.41-.98.23-1.07.38-.55,1.24.15.25.34.48.5.72.29.42.59.84.96,1.37Z"/>
  <path class="cls-11" d="M37.18,23.76l-3.03,1.34c-1.71-3.87-3.41-7.7-5.12-11.59l2.97-1.31c.43.51,4.83,10.34,5.18,11.56Z"/>
  <path class="cls-12" d="M50.41,18.3l2.48,5.6c-4.06,1.85-8.11,3.7-12.15,5.55-.42-.51-2.02-4.01-2.43-5.32,4-1.93,8.01-3.86,12.11-5.83ZM44.59,22.45s0,.02.01.03c-.69.31-1.39.61-2.08.92-.64.28-1.29.55-1.92.85-.68.32-.77.54-.43,1.24.25.52.57,1.02.86,1.52.21.36.51.42.9.26,2.4-.99,4.81-1.96,7.2-2.98.56-.24,1.05-.62,1.56-.95.31-.21.54-.53.38-.9-.26-.61-.52-1.24-.9-1.78-.43-.62-.64-.6-1.28-.18-.22.14-.45.27-.69.38-1.2.54-2.4,1.07-3.6,1.6Z"/>
  <path class="cls-12" d="M43.18,35.24c-.75-1.7-1.47-3.32-2.23-5.04,1.05-.48,2.08-.95,3.1-1.43,1-.47,2-.95,3.01-1.42,1.03-.48,2.06-.97,3.11-1.41,1.01-.42,1.94-1.06,3.09-1.2.76,1.71,1.48,3.36,2.24,5.06-4.1,1.81-8.17,3.61-12.31,5.45ZM52.41,26.04c-.67.3-1.19.54-1.73.76-2.43,1.01-4.86,2.01-7.29,3.01-.22.09-.45.16-.63.31-.14.11-.33.37-.29.48.26.74.55,1.46.87,2.17.16.34.49.37.83.25,2.83-.95,5.63-1.94,8.27-3.35.47-.25.92-.56,1.33-.82-.5-1.01-.94-1.92-1.38-2.82Z"/>
  <path class="cls-11" d="M58.96,81.2c-.78-1.76-1.55-3.51-2.36-5.35,1.01-.5,1.99-.99,3.02-1.51l2.43,5.49-3.08,1.36Z"/>
  <path class="cls-11" d="M39.85,29.85l-2.93,1.29c-.4-.47-2.13-4.27-2.41-5.33l2.93-1.29c.41.45,2.16,4.3,2.41,5.33Z"/>
  <path class="cls-11" d="M61.55,87.08c-.78-1.75-1.5-3.4-2.27-5.14l3.13-1.38c.75,1.64,1.49,3.34,2.29,5.16-1.04.47-2.04.91-3.15,1.37Z"/>
  <path class="cls-11" d="M37.16,31.91l3.06-1.35,2.22,5.02-3.06,1.35-2.22-5.02Z"/>
  <path class="cls-10" d="M53.78,77.17l2.14-.94,2.36,5.33-2.01.89c-.82-1.74-1.63-3.46-2.48-5.28Z"/>
  <path class="cls-10" d="M58.7,88.32c-.72-1.75-1.58-3.4-2.12-5.21l1.97-.87,2.27,5.14-2.12.94Z"/>
  <path class="cls-10" d="M36.12,31.56l-1.85.82-2.46-5.57c.62-.24,1.23-.48,1.89-.74l2.43,5.49Z"/>
  <path class="cls-10" d="M36.44,32.29c.74,1.68,1.47,3.31,2.21,4.99l-1.87.83-2.21-4.99,1.87-.83Z"/>
  <path class="cls-1" d="M68.88,168.98c.38.28.44.7.49,1.13,0,0,0-.03,0-.03-.09.1-.18.2-.27.31-.05.09-.1.18-.15.27-.21.15-.48.25-.61.45-.46.72-1.08.97-1.9.77.04-.1.13-.22.1-.31-.15-.63.13-1.14.47-1.61.3-.42.65-.8,1.01-1.23.3.09.58.18.85.26Z"/>
  <path class="cls-1" d="M73.08,174.04c-.36.25-.72.5-1.18.82-.33-.41-.65-.8-.98-1.2.34-.42.7-.83,1-1.27.11-.16.08-.42.12-.64.44.1.87.33,1.32.04.02.16.04.33.06.49,0,.19-.02.37,0,.56,0,.07.1.13.15.2,0,0,0,0,0,0-.06.02-.13.04-.19.06l.1.17s0,0,0,0c-.06.02-.13.04-.19.06.03.06.07.12.1.17,0,0,0,0,0,0-.34,0-.46.18-.34.53,0,0,.03-.01.03-.01Z"/>
  <path class="cls-1" d="M69.67,170.34s.09-.06.15-.07c.25.15.5.31.75.46-.13.18-.26.36-.4.53-.32.39-.64.77-.96,1.15-.19-.16-.37-.32-.62-.54.36-.52.73-1.03,1.09-1.54Z"/>
  <path class="cls-6" d="M68.88,168.98c-.27-.08-.55-.17-.85-.26-.35.43-.7.81-1.01,1.23-.34.47-.63.98-.47,1.61.02.09-.07.21-.1.31-.04.02-.08.05-.12.08l-.04-.06s-.02-.07-.02-.07c-.04-.39-.23-.87-.08-1.15.4-.72.93-1.39,1.48-2.01.19-.22.6-.24.91-.34,0,0-.02,0-.02,0,.02.06.05.13.07.19.06-.03.12-.06.18-.1,0,0-.01,0-.01,0,.02.19.05.39.07.58Z"/>
  <path class="cls-6" d="M70.57,170.73c-.25-.15-.5-.31-.75-.46-.04-.1-.07-.2-.15-.41.21.05.35.05.45.11.65.37,1.28.77,1.93,1.14.24.13.52.2.76.32.19.1.37.24.55.36-.45.29-.88.06-1.32-.04-.49-.34-.98-.68-1.47-1.02Z"/>
  <path class="cls-6" d="M69.67,170.34c-.36.51-.72,1.02-1.09,1.54.25.22.44.38.62.54-.09.05-.18.09-.27.14-.25-.13-.51-.26-.76-.39.26-.5.52-1,.78-1.5.05-.09.1-.18.15-.27.09-.1.18-.2.27-.31,0,0,0,.03,0,.03.1.07.2.15.29.22Z"/>
  <path class="cls-2" d="M73.57,173.04c-.05-.07-.14-.13-.15-.2-.02-.18,0-.37,0-.56.23-.11.42-.11.38.21-.03.19-.15.36-.22.54Z"/>
  <path class="cls-2" d="M73.05,174.05c-.12-.35,0-.53.34-.53-.11.18-.23.35-.34.53Z"/>
  <path class="cls-12" d="M70.62,175.09c-.11-.06-.21-.13-.32-.19.02-.05.05-.1.07-.15.12.04.23.07.35.11-.03.08-.06.16-.09.24Z"/>
  <path class="cls-2" d="M73.48,173.28l-.1-.17c.06-.02.13-.04.19-.06-.03.08-.06.16-.09.24Z"/>
  <path class="cls-2" d="M73.39,173.51c-.03-.06-.07-.12-.1-.17.06-.02.13-.04.19-.06-.03.08-.06.16-.09.23Z"/>
  <path class="cls-10" d="M68.59,168.32c-.31.11-.72.13-.91.34-.55.62-1.07,1.29-1.48,2.01-.16.28.04.76.08,1.15-.59-.58-1.17-1.16-1.79-1.72-.41-.38-.36-.79-.11-1.18.33-.51.69-1.01,1.09-1.46.35-.41.8-.54,1.33-.28.64.32,1.39.45,1.79,1.14Z"/>
  <path class="cls-10" d="M68.94,172.55c.09-.05.18-.09.27-.14.32-.38.65-.77.96-1.15.14-.17.27-.35.4-.53.49.34.98.68,1.47,1.02-.04.22,0,.47-.12.64-.3.45-.66.85-1,1.27-.06-.01-.1,0-.12.06-.66,0-1.47-.51-1.86-1.17Z"/>
  <path class="cls-1" d="M68.94,172.55c.39.66,1.2,1.17,1.86,1.17.04.2.08.41.13.65-.77-.1-2.61-1.22-3.34-1.99.2-.07.39-.15.59-.22.25.13.51.26.76.39Z"/>
  <path class="cls-9" d="M68.18,172.16c-.2.07-.39.15-.59.22-.06-.06-.12-.12-.27-.26-.04.26-.06.45-.09.64-.2.02-.42.04-.64.07-.09-.3-.17-.59-.25-.88.04-.03.08-.06.12-.08.82.21,1.43-.05,1.9-.77.13-.2.4-.3.61-.45-.26.5-.52,1-.78,1.5Z"/>
  <path class="cls-9" d="M68.2,173.27c.25.17.49.33.74.5-.04.05-.07.11-.11.16-.24-.16-.49-.31-.73-.47l.09-.19Z"/>
  <path class="cls-12" d="M70.3,174.9c-.14-.08-.29-.16-.43-.24.01-.04.03-.08.04-.12.15.07.3.14.45.2-.02.05-.04.1-.07.15Z"/>
  <path class="cls-10" d="M68.83,168.41c-.06.03-.12.06-.18.1-.02-.06-.05-.13-.07-.19.08.03.17.07.25.1Z"/>
  <path class="cls-6" d="M62.27,122.35c-.21.12-.41.24-.62.36-.04.04-.09.07-.14.07-.44-.26-.87-.55-1.34-.77-.47-.22-.71-.56-.78-1.05.54.4.99.95,1.69,1.11.4.09.8.18,1.2.27Z"/>
  <path class="cls-6" d="M60.44,120.04c-.36.17-.72.34-1.09.52.06-.58.55-.61.97-.73.02,0,.08.14.12.21Z"/>
  <path class="cls-5" d="M61.41,118.11c.12-.21.25-.41.44-.73.03.49.06.83.08,1.16-.33.05-.61.03-.52-.43Z"/>
  <path class="cls-12" d="M60.4,118.95c.1-.18.2-.36.3-.54.16.32-.07.43-.3.54Z"/>
  <path class="cls-13" d="M62.49,118.98c.24-.14.39-.04.52.17-.22.09-.44.19-.52-.17Z"/>
  <path class="cls-13" d="M62.27,118.88c.08.03.16.07.23.1-.08-.03-.16-.07-.23-.1Z"/>
  <path class="cls-6" d="M59.36,120.55c-.03.08-.05.15-.08.23.03-.08.05-.15.08-.23Z"/>
  <path class="cls-6" d="M76.36,64.92c-.15.34-.3.69-.47,1.1,1.14.3,2.1.36,2.96-.38.06-.05.2-.01.3-.02-.14.48-.35.81-.96.76-.39-.03-.78.19-1.18.21-1.13.04-1.55-.62-1.09-1.67.08-.09.16-.17.25-.26.07.08.13.17.2.25Z"/>
  <path class="cls-5" d="M77.86,62.74c-.58.34-1.2.22-1.82.18-.02-.19-.04-.38-.06-.57.35.59.87.23,1.3.25.22.01.45-.15.58.15Z"/>
  <path class="cls-5" d="M75.32,63.64c-.11-.67-.21-1.33-.34-2.15q.43.48.55,2.06c-.07.03-.14.06-.21.08Z"/>
  <path class="cls-5" d="M78.54,60.92c.08.03.15.06.23.09-.06.18-.13.37-.17.48-.32-.07-.62-.13-.92-.18-.16-.02-.32-.01-.48-.01.4-.31.86-.38,1.35-.37Z"/>
  <path class="cls-13" d="M75.62,61.22c.28-.21.54-.13.8.04-.28.19-.55.39-.8-.04Z"/>
  <path class="cls-13" d="M76.4,61.25c.27-.11.55-.23.8.04-.27.04-.56.42-.8-.04Z"/>
  <path class="cls-6" d="M78.43,63.24c-.06-.16-.12-.32-.18-.48.03-.17.05-.33.08-.5.06.02.11.04.17.06.03.31.27.64-.07.92Z"/>
  <path class="cls-6" d="M75.32,63.64c.07-.03.14-.06.21-.08-.02.07-.03.14-.05.2-.05-.04-.11-.08-.16-.12Z"/>
  <path class="cls-6" d="M78.33,62.26s.06-.09.09-.14c.03.07.05.13.08.2-.06-.02-.11-.04-.17-.06Z"/>
  <path class="cls-5" d="M64.42,118.48c.1,0,.2,0,.3,0l-.07.21c-.08-.06-.17-.11-.25-.17,0,0,.02-.05.02-.05Z"/>
  <path class="cls-2" d="M89.64,104.86c.17.37.35.74.51,1.12,11.69,26.31,23.38,52.63,35.08,78.94,7.29,16.39,14.61,32.77,21.91,49.15.13.29.26.58.41.92-.49.22-.93.41-1.37.61-3.78,1.72-7.56,3.45-11.34,5.17-1.54.7-3.09,1.4-4.65,2.07-.36.16-.76.22-1.23.34-1.68-3.95-3.32-7.82-4.98-11.73-.61.2-1.17.38-1.86.61-.17-.24-.41-.48-.54-.78-1.77-3.89-3.53-7.78-5.29-11.68-.09-.21-.14-.43-.23-.69l2.14-.94c-4.91-11.59-9.78-23.21-14.98-34.76l-2.4,1.06c-.11-.16-.31-.36-.42-.6-1.71-3.78-3.42-7.57-5.12-11.36-.2-.44-.39-.88-.58-1.31l2.58-1.14c-5-11.3-9.98-22.57-15-33.93-.45.2-.87.39-1.29.57-.75.32-1.18.16-1.54-.59-.29-.61-.55-1.23-.83-1.84-.74-1.66-1.48-3.31-2.22-4.97.07-.4.15-.8.22-1.2l.63,1.42,1.82-.81c-.37-.83-.7-1.61-1.06-2.37-.06-.12-.24-.18-.36-.27.16-.38.31-.75.47-1.13.53,1.15,1.07,2.31,1.6,3.47l3.12-1.38c-.85-1.93-1.68-3.8-2.52-5.69-.19.06-.33.1-.47.15.17-.52.33-1.05.86-1.35.41-.12.83-.21,1.21-.37,3.56-1.56,7.11-3.12,10.66-4.69.18-.08.36-.16.56-.25-.04-.18-.05-.29-.1-.39-1.2-2.73-2.41-5.45-3.63-8.17-.07-.17-.25-.29-.38-.43.2-.26.4-.52.6-.78ZM107.78,181.08c.19.44.32.73.45,1.02,1.56,3.5,3.12,7,4.69,10.5,1.47,3.28,2.97,6.56,4.45,9.84,1.86,4.14,3.71,8.28,5.57,12.42.13.28.27.55.41.81,2.15-.75,11.79-5.11,12.27-5.52-5.11-11.56-10.22-23.11-15.37-34.75-4.25,1.73-8.13,4.05-12.47,5.69ZM101.98,167.92c4.24-1.79,8.37-3.54,12.6-5.32-.17-.39-.3-.68-.43-.96-1.71-3.79-3.43-7.57-5.12-11.37-3.08-6.93-6.15-13.86-9.22-20.79-.14-.31-.3-.6-.45-.92-4.22,1.77-8.33,3.52-12.41,5.36,5.03,11.38,10.01,22.64,15.04,34ZM103.92,182.83c5.01,11.67,9.98,23.23,14.97,34.86.69-.3,1.31-.56,1.91-.85.59-.29,1.26-.44,1.81-.93-5.18-11.48-10.35-22.93-15.53-34.41-.2.06-.34.09-.46.14-.88.39-1.76.78-2.69,1.19ZM101.14,168.22c-5.01-11.32-10-22.62-15-33.93l-3.09,1.37c5.01,11.32,9.99,22.6,15,33.93,1.06-.47,2.06-.91,3.09-1.37ZM141.73,223.63c-4.12,1.86-8.29,3.48-12.3,5.39l4.89,11.06c4.13-1.83,8.19-3.62,12.28-5.43-1.65-3.73-3.26-7.36-4.87-11.02ZM124.6,231.14c1.61,3.79,3.19,7.51,4.77,11.22,1.35-.42,3.72-1.54,4.24-2.02-1.66-3.63-3.33-7.28-5.01-10.97l-4,1.77ZM102.31,168.57c.92,2.07,1.78,4.03,2.69,6.07,4.21-1.76,8.33-3.59,12.38-5.6l-2.54-5.75c-4.18,1.76-8.31,3.51-12.52,5.28ZM96.24,121.52c-.26.08-.51.14-.74.24-3.65,1.72-7.3,3.44-10.94,5.17-.2.1-.39.22-.57.33l2.65,5.99c4.17-1.84,8.25-3.65,12.37-5.47-.93-2.09-1.83-4.14-2.77-6.26ZM129.15,228.33c4.07-1.8,8.17-3.61,12.24-5.41-.81-1.84-1.62-3.67-2.46-5.55l-12.34,5.46c.26,1,2.04,4.86,2.56,5.51ZM95.98,120.85c-.76-1.72-1.49-3.41-2.26-5.08-.21-.45-.63-.54-1.19-.29-1.51.7-3.02,1.42-4.53,2.12-2.02.93-4.05,1.84-6.07,2.76-.28.13-.55.28-.83.42.86,1.94,1.68,3.8,2.55,5.76,4.13-1.9,8.18-3.77,12.34-5.69ZM136.08,210.99c-.97.22-11.85,5.06-12.35,5.48.81,1.84,1.62,3.67,2.47,5.58,4.24-1.6,8.36-3.39,12.48-5.19-.89-2.01-1.75-3.95-2.6-5.87ZM117.64,169.63c-.34.15-.64.27-.92.41-1.36.67-2.7,1.39-4.08,2.02-2.15.99-4.33,1.92-6.5,2.88-.28.12-.56.25-.85.38l2.28,5.15c4.15-1.9,8.26-3.77,12.37-5.64l-2.3-5.19ZM125.44,222.43l-2.51-5.69-3.76,1.66,2.51,5.69,3.76-1.66ZM124.26,230.43l3.98-1.76-2.43-5.51-3.85,1.7c.78,1.88,1.52,3.68,2.3,5.56ZM98.32,170.36c.91,2.04,1.75,4.01,2.67,5.99l3.15-1.39-2.65-6-3.17,1.4ZM80.08,128.95l2.64,5.98,3.09-1.37c-.89-2.01-1.76-3.97-2.64-5.98l-3.09,1.37ZM101.35,177.07l2.24,5.07,3.11-1.38-2.24-5.07-3.11,1.38ZM95.48,171.48c.88,2.06,1.75,4.08,2.87,6.03l1.94-.86c-.91-2.05-1.8-4.06-2.7-6.11l-2.1.93ZM77.57,130.01c.9,2.07,1.79,4.05,2.67,6.02l1.76-.78c-.69-1.92-2.33-5.47-2.76-5.99l-1.68.74ZM102.88,182.51l-2.32-5.26c-.66.35-1.27.66-1.83.96l2.27,5.13,1.88-.83ZM121.08,224.57l-2.6-5.88-1.44.64,2.67,6.04c.5-.3.9-.53,1.37-.8ZM121.38,225.22c-.5.26-.93.49-1.35.71.81,1.83,1.6,3.62,2.36,5.34l1.25-.55c-.76-1.85-1.5-3.64-2.26-5.5Z"/>
  <path class="cls-12" d="M89.05,105.65c.13.14.31.26.38.43,1.22,2.72,2.42,5.45,3.63,8.17.04.1.06.22.1.39-.2.09-.38.17-.56.25-3.55,1.57-7.1,3.14-10.66,4.69-.39.17-.81.25-1.21.37.66-1.16,1.31-2.33,1.99-3.48.5-.85,1.05-1.67,1.57-2.5,1.11-.44,2.23-.87,3.34-1.32.76-.31,1.45-.82,2.42-.79-.18-.41-.33-.7-.44-1.01-.46-1.23-.91-2.46-1.36-3.69l.8-1.52Z"/>
  <path class="cls-8" d="M67.22,140.81c-.15.08-.3.24-.44.23-.72-.06-1.45-.09-2.14-.27-.89-.24-1.26-.86-1.23-1.8.02-.49.07-.98.06-1.48,0-.3.02-.6-.29-.85-.23-.18-.27-.49.1-.72.17-.11.34-.34.36-.53.13-.89.14-1.79.31-2.67.17-.86.03-1.78.54-2.58.2-.32.43-.51.81-.57.71-.11,1.42-.17,2.14-.07.87.13,1.53.87,1.57,1.92.01.4-.11.8-.17,1.2-.13.96-.27,1.92-.39,2.88-.05.4-.27.82.13,1.21.19.18.06.44-.17.59-.14.09-.29.17-.3.18-.09.86-.18,1.6-.26,2.34-.21.33-.43.65-.64.98ZM67.12,137.83c-.02-.14-.05-.29-.07-.43-.08-.73-.12-.76-.83-.84-.29-.03-.58-.04-.87-.07-1-.11-1.07-.07-1.23.94.01.1-.01.26.04.29.92.52,1.91.55,2.92.37.03,0,.03-.17.05-.26ZM65.09,130.86c.81-.16,1.5.39,2.24-.1-.61-.72-1.4-.53-2.19-.59-.01.18-.03.37-.05.69ZM68.04,132.38c-.8.63-.78,1.43-.4,2.3.52-.68.41-1.49.4-2.3ZM68.03,135.21c-.21-.03-.48-.07-.82-.12.15.54-.56,1.11.27,1.5.19-.47.36-.9.55-1.38Z"/>
  <path class="cls-10" d="M94.67,79.01c-1.14.51-2.49.25-3.25-.63-.17-.2-.29-.51-.3-.77,0-.58.06-1.16.13-1.74.08-.71.59-1.35.35-2.11.34-.31.39-.74.48-1.16.21-1.03.46-2.04.69-3.06.02-.09.04-.17.07-.25.53-1.72,1.25-2.05,2.95-1.4.73.28.9.91.84,1.56-.11,1.33-.32,2.65-.49,3.97-.04.31-.07.62-.09.94,0,.09.04.18.02.26-.23,1.19-.48,2.37-.7,3.56-.08.47-.38.7-.71.84ZM94.75,72.45c.22-.23.19-.47-.09-.54-.4-.11-.83-.34-1.25-.03-.1-.1-.2-.2-.41-.41-.02.51-.03.84-.03,1.15.56.34,1.07.47,1.63.27.23-.08.32-.23.16-.45ZM96.06,70.37c.04-.17.07-.33.11-.5-.05-.01-.09-.02-.14-.03-.04.16-.08.33-.12.49-.65,1.01-.6,2.13-.58,3.24.07.01.14.02.21.03.17-1.08.35-2.15.52-3.23ZM94.91,74.9c0-.48,0-.96-.01-1.44-.79-.12-1.49-.22-2.19-.33-.06-.06-.13-.11-.27-.23-.14.45-.27.86-.39,1.26-.11.39.02.67.36.88.68.42,1.43.43,2.18.33.21-.03.49-.14.31-.48ZM93.22,69.51c.81.11,1.48.2,2.21.3.03-.14.07-.32.12-.59-.74-.15-1.43-.29-2.19-.44-.05.26-.09.47-.15.74Z"/>
  <path class="cls-11" d="M79.86,121.3c.14-.04.28-.09.47-.15.83,1.88,1.66,3.76,2.52,5.69l-3.12,1.38c-.54-1.16-1.07-2.32-1.6-3.47.54-1.1,1.09-2.21,1.63-3.31.04-.05.07-.09.11-.14,0,0,0,0,0,0Z"/>
  <path class="cls-10" d="M67.23,25.28c.38-.65.74-1.31,1.15-1.93.13-.19.41-.34.64-.38.34-.06.71-.06,1.04.02,1.02.26,1.86.88,2.7,1.53-.38-.16-.75-.31-1.14-.48-.18.39.15.46.34.57.65.38,1.31.75,1.99,1.09.32.16.42.35.31.68-.13,0-.25,0-.38.01-.31-.29-.59-.6-.92-.85-.17-.13-.33-.05-.31.21-.21.31-.43.6-.62.92-.39.65-.36.73.4,1.14.16.51.38.24.59.04-.08.25-.16.5-.25.77-2.34-1.51-2.35-1.52-3.16-1.43.53.36.99.68,1.45,1-.42.2-.68-.13-1.01-.27-.28-.12-.47-.57-.89-.3,0,0-.03-.02-.03-.02-.02-.45-.29-.47-.63-.37,0,0,0,0,0,0-.52-.59-1-1.2-1.26-1.95ZM70.07,23.81c-.1-.07-.19-.14-.29-.21-.01.12-.03.24-.04.36-.35.42-.75.81-1.04,1.27-.47.76-.14,1.26.83,1.35.26.44.47.17.62-.07.42-.68.81-1.37,1.24-2.12-.5-.22-.91-.4-1.32-.58h-.01Z"/>
  <path class="cls-10" d="M73.92,29.44c.47.44.86.03,1.13-.21.54-.5.86-1.15.83-1.92,0-.17-.01-.42-.12-.49-.48-.34-.84-.77-1.07-1.35.28-.24.55-.22.79.16.17.23.29.51.51.68.5.39,1.06.71,1.57,1.08.6.44.73,1.07.37,1.7-.27.48-.58.94-.84,1.43-.28.52-.64.79-1.27.67-.19-.04-.41.08-.62.12,0,0-.06-.03-.06-.03-.21-.52-.48-.69-1.02-.66,0,0-.05-.04-.05-.04-.23-.7-.3-.72-1.03-.26,0,0-.04-.02-.04-.02-.07-.38-.14-.75-.21-1.13.2.08.39.18.6.23.17.04.35.03.53.05Z"/>
  <path class="cls-15" d="M85.04,113.02c.01-.22-.05-.48.06-.65.88-1.47,1.79-2.93,2.69-4.39.42,1.13.84,2.25,1.29,3.45-1.41.56-2.72,1.07-4.04,1.59Z"/>
  <path class="cls-4" d="M72.17,121.18c-.27-.34-.07-.63.07-.9.87-1.69,1.69-3.41,2.64-5.05,1.13-1.98,2.36-3.9,3.55-5.85.11-.18.26-.35.43-.58.29.35.08.57-.03.77-1.02,1.84-2.08,3.66-3.09,5.51-.97,1.77-1.89,3.57-2.83,5.35-.17.31-.22.75-.73.76Z"/>
  <path class="cls-4" d="M92.12,85.53c.38.26.21.57.12.82-.23.63-.47,1.26-.76,1.86-.84,1.8-1.67,3.6-2.58,5.37-.6,1.17-1.31,2.28-1.98,3.41-.1.17-.22.35-.37.48-.08.07-.3.09-.37.03-.08-.06-.12-.25-.1-.37.02-.13.14-.25.22-.37,1.08-1.54,1.92-3.2,2.72-4.89.6-1.27,1.3-2.48,1.92-3.74.37-.76.66-1.55,1-2.32.04-.09.12-.17.18-.26Z"/>
  <path class="cls-4" d="M79.54,31.9c.39.21.64.32.86.47,1.96,1.38,3.82,2.87,5.36,4.73.87,1.05,1.7,2.14,2.54,3.22.14.18.26.4.3.62.02.13-.13.29-.2.44-.14-.08-.32-.12-.4-.24-.74-.97-1.45-1.96-2.19-2.93-1.68-2.19-3.69-4.04-5.91-5.66-.09-.07-.18-.14-.26-.23-.03-.03-.02-.1-.09-.42Z"/>
  <path class="cls-1" d="M73.92,29.44c-.18-.01-.36,0-.53-.05-.21-.05-.4-.15-.6-.23-.27-.08-.54-.15-.81-.23-.14-.13-.28-.27-.41-.4h.01c-.18-.11-.36-.22-.54-.34h.01c-.46-.32-.92-.64-1.45-1,.81-.09.82-.09,3.16,1.43.09-.28.17-.53.25-.77.29-.48.57-.97.86-1.45.13,0,.25,0,.38-.01.06,0,.12,0,.17.02.45.18,1.05.26,1.09.86.04.65-.22,1.25-.8,1.65-.26.18-.52.36-.79.54Z"/>
  <path class="cls-4" d="M85.95,163.38c-.29.7-.63.61-.93.51-.75-.25-1.53-.45-2.21-.82-1.09-.6-2.13-1.32-3.17-2.02-.92-.63-1.7-1.41-2.3-2.36-.14-.22-.36-.38-.5-.6-.09-.15-.21-.4-.15-.5.18-.28.42-.09.59.05.2.17.36.38.52.58,1.74,2.34,4.1,3.84,6.71,5.02.3.14.67.13,1,.17.14.02.29-.01.44-.02Z"/>
  <path class="cls-17" d="M85.04,113.02c1.31-.52,2.63-1.03,4.04-1.59-.45-1.19-.87-2.32-1.29-3.45.15-.27.3-.55.45-.82.45,1.23.9,2.46,1.36,3.69.11.31.26.6.44,1.01-.98-.03-1.66.49-2.42.79-1.11.45-2.23.88-3.34,1.32-.12-.62.39-.73.76-.95Z"/>
  <path class="cls-4" d="M93.91,53.49c.12.18.25.35.34.55.72,1.49,1.1,3.08,1.27,4.71.1.96.1,1.92.14,2.88,0,.2,0,.41-.05.61-.03.11-.22.29-.26.27-.13-.06-.28-.18-.33-.31-.06-.15-.01-.34-.02-.52-.04-1.89-.01-3.8-.55-5.64-.17-.59-.4-1.16-.59-1.74-.08-.23-.13-.47-.2-.7.08-.03.17-.07.25-.1Z"/>
  <path class="cls-4" d="M67.22,140.81c.21-.33.43-.65.64-.98.05.37.13.74.15,1.11.12,2.08.9,3.97,1.62,5.88.15.41.15.41,0,.89-.4-.02-.49-.33-.6-.63-.74-1.91-1.43-3.83-1.5-5.9,0-.19.04-.44-.3-.37Z"/>
  <path class="cls-10" d="M77.65,125.88c.12.09.31.15.36.27.36.77.69,1.54,1.06,2.37l-1.82.81-.63-1.42c.34-.68.69-1.35,1.03-2.03Z"/>
  <path class="cls-8" d="M75.2,31.3c.21-.04.43-.16.62-.12.63.13.99-.15,1.27-.67.26-.49.57-.95.84-1.43.35-.63.22-1.26-.37-1.7-.51-.38-1.07-.7-1.57-1.08-.21-.17-.34-.45-.51-.68,1.17.46,2.16,1.17,2.96,2.13.29.35.19.79,0,1.16-.36.72-.73,1.45-1.19,2.12-.17.24-.57.42-.88.45-.38.04-.78-.12-1.17-.19Z"/>
  <path class="cls-8" d="M71.99,28.94c.27.08.54.15.81.23.07.38.14.75.21,1.13-.71-.83-1.7-1.23-2.62-1.75-.44-.25-.83-.61-1.24-.93.42-.27.61.18.89.3.33.14.59.47,1.01.27,0,0-.01,0-.01,0,.18.12.36.23.54.35,0,0,0,0,0,0,.14.13.28.27.41.4Z"/>
  <path class="cls-8" d="M67.23,25.28c.26.75.75,1.36,1.26,1.95-.81.04-.83-.77-1.22-1.17-.21-.22-.26-.51-.04-.78Z"/>
  <path class="cls-8" d="M74.12,30.61c.54-.03.81.14,1.02.66-.34-.22-.68-.44-1.02-.66Z"/>
  <path class="cls-8" d="M73.04,30.31c.73-.45.8-.43,1.03.26-.34-.09-.69-.18-1.03-.26Z"/>
  <path class="cls-12" d="M74.1,25.34c-.28-.14-.56-.27-.83-.41.04-.08.08-.15.11-.23.27.15.54.29.81.44-.03.07-.06.13-.09.2Z"/>
  <path class="cls-8" d="M68.48,27.23c.34-.1.61-.08.63.37-.21-.12-.42-.25-.63-.37Z"/>
  <path class="cls-2" d="M79.86,121.29s-.07.09-.11.14c.04-.05.07-.09.11-.14Z"/>
  <path class="cls-1" d="M140.77,179.51c.43-.45.87-.89,1.3-1.34.16.17.32.33.45.47-.33.51-.65,1-.97,1.49-.03.01-.06.03-.09.04-.23-.22-.47-.44-.7-.66Z"/>
  <path class="cls-5" d="M140.77,179.51c.23.22.47.44.7.66-.03.27-.19.24-.36.14-.46-.29-.96-.53-1.35-.9-.33-.31-.66-.52-1.08-.65-.47-.14-.31-.38-.08-.62.24.09.49.18.73.27.48.37.96.73,1.44,1.1Z"/>
  <path class="cls-5" d="M141.56,180.13c.32-.49.64-.98.97-1.49-.14-.14-.29-.31-.45-.47.1-.05.21-.11.31-.16.18.12.37.23.55.35-.07.22-.14.45-.22.66-.07.17-.16.33-.24.49-.41.07-.59.41-.8.71-.04-.03-.08-.06-.11-.1Z"/>
  <path class="cls-6" d="M138.51,177.03q-.02.44-.29.32c.1-.11.19-.21.29-.32Z"/>
  <path class="cls-6" d="M138.59,176.8c-.03.08-.06.17-.09.25.03-.08.06-.17.09-.25Z"/>
  <path class="cls-9" d="M142.48,179.51c.08-.16.18-.32.24-.49.09-.22.15-.44.22-.66.18.07.37.15.55.22.03.03.04.06.04.11,0,0,0,0,0,0-.36.28-.71.56-1.07.84Z"/>
  <path class="cls-6" d="M134.81,203.91c.14.29.3.57.43.86,2.38,5.4,4.77,10.79,7.14,16.19.12.28.18.6.26.9-.11-.21-.22-.41-.32-.62-2.42-5.5-4.84-11.01-7.25-16.51-.11-.26-.18-.55-.27-.82Z"/>
  <path class="cls-14" d="M144.45,198.7c.56.53.44.93-.2,1.3-.25.15-.51.29-.75.45-.63.43-.63.43-1.18-.07-.11-.1-.21-.2-.32-.3.21-.14.43-.28.63-.44.54-.44,1.13-.8,1.82-.95Z"/>
  <path class="cls-5" d="M148.11,204.56c-.69.36-1.26.67-1.84.97.08-.93.9-1,1.42-1.48.13.16.23.28.42.51Z"/>
  <path class="cls-5" d="M143.6,202.61c.69.51,1.15,1.12,1.09,2-.43-.64-1.23-1.07-1.09-2Z"/>
  <path class="cls-6" d="M144.45,198.7c-.69.15-1.28.51-1.82.95-.2.16-.42.29-.63.44-.03-.09-.12-.22-.09-.25.67-.64,1.38-1.22,2.29-1.48.28-.08.37.08.26.34Z"/>
  <path class="cls-13" d="M143.55,202.23c-.22.11-.43.22-.65.33-.12-.46-.22-.88-.33-1.29q.52-.05.98.96Z"/>
  <path class="cls-17" d="M58.51,65.74c-.29-.13-.71-.2-.47-.76.05-.12.02-.29-.03-.42-.41-1.03-.84-2.05-1.27-3.07-.16-.38-.36-.74-.53-1.11-.93-1.92-1.85-3.85-2.78-5.77-.19-.38-.43-.73-.68-1.17.31-.17.52-.31.75-.41,2.39-1.04,4.78-2.07,7.17-3.1.05-.02.11-.05.16-.07,1.33-.52,1.35-.52,1.99.73.41.81.8,1.62,1.2,2.44,1.14,2.37,2.27,4.75,3.41,7.12.39.82.23,1.1-.67,1.29-.36.08-.69.3-1.02.47-2,1.04-3.99,2.07-5.98,3.12-.38.2-.74.43-1.23.71ZM58.82,64.49c1.86-.58,6.74-3.04,7.93-3.98-.07-.2-.13-.42-.23-.62-.35-.67-.74-1.32-1.06-2.01-.97-2.13-1.9-4.28-2.85-6.42-.2-.45-.43-.87-.66-1.33-2.79,1.24-5.51,2.44-8.21,3.63.02.15,0,.25.04.32.67,1.33,1.33,2.67,2.01,3.99.98,1.89,2.15,3.68,2.71,5.77.06.22.2.41.32.66Z"/>
  <path class="cls-17" d="M47.06,41.28c-.01-.52.2-1.01.94-1.36,2.49-1.16,4.93-2.4,7.4-3.6.33-.16.69-.25.92-.33.2.48.32.86.49,1.21.62,1.26,1.26,2.5,1.89,3.75.98,1.96,1.96,3.92,2.93,5.87.22.45.16.67-.33.9-2.92,1.35-5.83,2.7-8.76,4.03-.64.29-.9.17-1.11-.38-.53-1.36-1.06-2.72-1.61-4.07-.68-1.68-1.36-3.36-2.06-5.02-.13-.31-.4-.57-.72-1ZM47.81,40.94c1.54,3.49,3.01,6.81,4.49,10.15,2.9-1.17,5.68-2.64,8.57-3.98-.19-.43-.32-.75-.47-1.06-1.06-2.24-2.13-4.48-3.19-6.73-.42-.89-.75-1.82-1.57-2.54-2.46,1.55-5.28,2.55-7.83,4.17Z"/>
  <path class="cls-17" d="M35.77,15.56c-.37-.53-.66-.95-.96-1.37-.17-.24-.35-.47-.5-.72-.52-.85-.44-1.01.55-1.24.39-.09.78-.24,1.15-.41,2.41-1.11,4.81-2.25,7.22-3.36,1.32-.61,1.43-.57,2.22.69.11.17.24.33.33.51.29.59.19.92-.39,1.21-3.03,1.51-6.06,3.02-9.1,4.52-.18.09-.38.12-.52.16ZM36.12,14.63c3.18-1.2,5.95-3,8.96-4.37-.17-.67-.37-1.22-.93-1.6-.49.22-.98.41-1.44.64-1.45.74-2.88,1.52-4.34,2.24-.89.44-1.81.81-2.72,1.21-.2.09-.38.22-.69.4.42.54.79,1.01,1.15,1.47Z"/>
  <path class="cls-17" d="M44.59,22.45c1.2-.53,2.4-1.06,3.6-1.6.24-.11.47-.23.69-.38.64-.42.85-.44,1.28.18.38.54.65,1.17.9,1.78.15.37-.07.69-.38.9-.51.34-1.01.72-1.56.95-2.39,1.02-4.8,1.98-7.2,2.98-.39.16-.68.11-.9-.26-.3-.5-.61-1-.86-1.52-.33-.69-.25-.92.43-1.24.63-.3,1.28-.57,1.92-.85.69-.31,1.39-.61,2.08-.92,0-.01,0-.02-.01-.03ZM41.64,26.63c.35-.15.61-.27.87-.39.64-.28,1.29-.56,1.93-.83,1.54-.63,3.08-1.24,4.62-1.89.32-.13.58-.39.88-.55.4-.22.43-.51.24-.88-.07-.13-.12-.27-.18-.4-.36-.76-.59-.85-1.37-.47-.89.43-1.75.93-2.65,1.35-1.48.69-2.98,1.35-4.47,2.02-.25.12-.5.25-.85.43.35.58.64,1.06.97,1.61Z"/>
  <path class="cls-17" d="M52.41,26.04c.44.91.88,1.81,1.38,2.82-.41.26-.86.57-1.33.82-2.64,1.41-5.45,2.4-8.27,3.35-.35.12-.68.09-.83-.25-.33-.71-.62-1.44-.87-2.17-.04-.12.15-.37.29-.48.18-.14.41-.22.63-.31,2.43-1.01,4.86-2.01,7.29-3.01.53-.22,1.06-.47,1.73-.76ZM43.97,32.32c1.21-.41,2.37-.73,3.47-1.17,1.54-.62,3.04-1.34,4.56-2.02.21-.09.46-.19.58-.36.14-.18.26-.49.2-.69-.14-.49-.39-.94-.59-1.4-3.05,1.35-5.99,2.65-8.96,3.96l.74,1.68Z"/>
  <path class="cls-10" d="M69.38,170.09c-.09.1-.18.2-.27.31.09-.1.18-.2.27-.31Z"/>
  <path class="cls-12" d="M107.78,181.08c4.34-1.64,8.22-3.96,12.47-5.69,5.15,11.64,10.26,23.19,15.37,34.75-.48.41-10.13,4.77-12.27,5.52-.13-.26-.28-.53-.41-.81-1.86-4.14-3.71-8.28-5.57-12.42-1.48-3.28-2.97-6.56-4.45-9.84-1.57-3.5-3.13-7-4.69-10.5-.13-.29-.26-.58-.45-1.02ZM116.25,197.48c.19-.05.3-.07.4-.11,2.78-1.23,5.56-2.47,8.34-3.69.24-.1.49-.21.74-.24.36-.05.48-.26.53-.45-1.1-1.84-1.69-3.77-2.47-5.61-.78-1.85-1.62-3.68-2.42-5.49-.36-.08-.65-.13-.87-.18-.26.17-.45.36-.68.45-1.64.63-3.28,1.23-4.92,1.87-1.03.4-2.05.86-3.07,1.29-.32.14-.44.34-.28.69.3.66.59,1.32.87,1.98.36.83.76,1.65,1.04,2.51.7,2.17,1.53,4.3,2.46,6.38.08.18.19.36.32.6ZM117.07,198.74c.29.58.57,1.11.83,1.65.16.34.3.7.45,1.05,1.23,2.81,2.46,5.62,3.7,8.43.13.3.18.71.47.72.45-.3.75-.57,1.1-.72,2.12-.9,4.26-1.77,6.39-2.66.68-.28,1.31-.76,2.19-.33-.02-.31.02-.52-.05-.69-.87-1.98-1.76-3.95-2.65-5.92-.71-1.57-1.5-3.1-2.15-4.69-.2-.48-.44-.67-.8-.81-.24.24-.4.51-.63.63-2.02,1.05-4.11,1.97-6.26,2.72-.74.26-1.47.73-2.34.52-.08-.02-.19.09-.23.11Z"/>
  <path class="cls-12" d="M101.98,167.92c-5.02-11.36-10-22.62-15.04-34,4.08-1.84,8.19-3.59,12.41-5.36.16.32.32.61.45.92,3.07,6.93,6.14,13.86,9.22,20.79,1.69,3.8,3.41,7.58,5.12,11.37.13.29.25.58.43.96-4.23,1.79-8.36,3.53-12.6,5.32ZM106.3,147.07c-.73.32-1.38.55-1.98.89-1.97,1.11-3.99,2.06-6.16,2.71-.5.15-.99.36-1.47.57-.36.16-.38.36-.17.68.22.34.45.68.6,1.04.32.78.59,1.59.88,2.38.68,1.8,1.35,3.61,2.04,5.4.25.65.56,1.29.82,1.93.16.39.4.55.82.39.32-.12.68-.16,1-.3,2.75-1.2,5.5-2.42,8.24-3.64.04-.02.06-.09.17-.27-1.56-3.83-3.15-7.74-4.8-11.79ZM90.24,138.18c.39.78.76,1.44,1.05,2.12.83,1.93,1.63,3.88,2.46,5.81.43.99.89,1.96,1.36,2.93.25.53,1.16.61,1.53.18.14-.17.32-.32.52-.41,2.32-1.11,4.64-2.21,6.97-3.32.88-.42.94-.56.54-1.48-.98-2.25-1.96-4.5-2.93-6.76-.37-.86-.71-1.73-1.01-2.61-.23-.69-.35-.8-1.01-.62-.2.06-.39.13-.58.21-2.69,1.14-5.39,2.27-8.07,3.42-.33.14-.62.39-.82.52Z"/>
  <path class="cls-11" d="M103.92,182.83c.93-.41,1.81-.8,2.69-1.19.13-.06.27-.08.46-.14,5.18,11.48,10.35,22.94,15.53,34.41-.55.49-1.21.64-1.81.93-.6.29-1.22.55-1.91.85-4.99-11.62-9.96-23.18-14.97-34.86Z"/>
  <path class="cls-11" d="M101.14,168.22c-1.03.46-2.04.9-3.09,1.37-5.01-11.33-9.99-22.6-15-33.93l3.09-1.37c5,11.31,9.99,22.6,15,33.93Z"/>
  <path class="cls-12" d="M141.73,223.63c1.62,3.66,3.22,7.29,4.87,11.02-4.1,1.81-8.15,3.6-12.28,5.43l-4.89-11.06c4.01-1.91,8.18-3.52,12.3-5.39ZM141.16,236.08s.04.09.06.13c.78-.4,1.58-.76,2.34-1.19,1.13-.64,1.26-1.54.42-2.53-.34-.4-.6-.48-1.07-.25-2.78,1.3-5.63,2.42-8.53,3.42-.4.14-.76.41-.76.85,0,.43.1.88.27,1.27.32.73,1.09,1.03,1.82.71,1.82-.79,3.63-1.6,5.45-2.4Z"/>
  <path class="cls-11" d="M124.6,231.14l4-1.77c1.69,3.69,3.35,7.34,5.01,10.97-.53.47-2.89,1.59-4.24,2.02-1.58-3.71-3.16-7.43-4.77-11.22Z"/>
  <path class="cls-12" d="M102.31,168.57c4.21-1.77,8.34-3.52,12.52-5.28l2.54,5.75c-4.05,2.02-8.16,3.84-12.38,5.6-.9-2.04-1.77-4-2.69-6.07ZM109.61,171.54v.02c1.93-.93,3.84-1.87,5.76-2.8.05-.03.11-.05.16-.08.5-.31.61-.57.35-1.08-.25-.49-.54-.97-.87-1.42-.12-.16-.39-.29-.58-.29-.34.01-.69.11-1,.24-2.75,1.14-5.5,2.29-8.24,3.44-.59.25-.63.33-.55,1,.1.85.72,1.37,1.19,2,.27.36.57.42.99.22.93-.43,1.87-.83,2.8-1.25Z"/>
  <path class="cls-12" d="M96.24,121.52c.94,2.12,1.84,4.16,2.77,6.26-4.12,1.82-8.2,3.63-12.37,5.47l-2.65-5.99c.18-.1.37-.23.57-.33,3.65-1.73,7.29-3.45,10.94-5.17.23-.11.48-.16.74-.24ZM95.45,123.07c-.3.19-.52.37-.78.5-1.69.8-3.37,1.62-5.08,2.38-1.15.51-2.33.94-3.49,1.42-.9.38-1,.72-.5,1.52.41.67.82,1.34,1.23,2.01.29.47.46.54,1.01.28.71-.34,1.4-.72,2.11-1.06,2.29-1.1,4.59-2.19,6.89-3.28.15-.07.28-.19.4-.27-.28-1.38-1.12-3.01-1.78-3.49Z"/>
  <path class="cls-12" d="M129.15,228.33c-.52-.64-2.3-4.51-2.56-5.51l12.34-5.46c.83,1.88,1.64,3.72,2.46,5.55-4.07,1.8-8.16,3.61-12.24,5.41ZM139.44,222.05c-.26-.34-.47-.55-.6-.79-.21-.38-.35-.81-.54-1.2-.27-.54-.39-.58-.97-.38-.52.19-1.05.36-1.56.58-2.31,1-4.6,2.01-6.91,3.01-.19.08-.38.16-.54.28-.48.36-.57.88-.2,1.37.28.37.62.69.96,1.02.31.31.69.43,1.12.28.3-.1.61-.19.91-.31,1.19-.47,2.39-.94,3.58-1.43,1.32-.54,2.64-1.11,3.95-1.67.37-.16.78-.31.79-.76Z"/>
  <path class="cls-12" d="M95.98,120.85c-4.16,1.92-8.21,3.79-12.34,5.69-.86-1.95-1.69-3.81-2.55-5.76.28-.14.55-.3.83-.42,2.02-.92,4.05-1.83,6.07-2.76,1.51-.7,3.02-1.42,4.53-2.12.56-.26.98-.17,1.19.29.77,1.67,1.5,3.36,2.26,5.08ZM82.19,121.6c.43.86.81,1.61,1.18,2.36.4.81.57.86,1.44.5,1.54-.63,3.08-1.25,4.63-1.87,1.36-.54,2.73-1.05,4.08-1.6.62-.25.69-.51.4-1.08-.37-.73-.71-1.47-1.07-2.21-.13-.27-.27-.54-.4-.81-.06.01-.11.03-.17.04-.07.23-.14.45-.2.67-3.34,1.26-6.66,2.51-9.89,4Z"/>
  <path class="cls-12" d="M136.08,210.99c.85,1.92,1.71,3.86,2.6,5.87-4.13,1.81-8.24,3.59-12.48,5.19-.84-1.91-1.65-3.74-2.47-5.58.5-.42,11.39-5.27,12.35-5.48ZM134.55,212.47c-.16.74-.83.58-1.28.79-2.39,1.1-4.8,2.15-7.2,3.23-.82.37-1.01.63-.79,1.5.16.64.5,1.23.8,1.82.35.69.63.8,1.34.48,2.86-1.26,5.72-2.54,8.57-3.83.66-.3.92-.73.6-1.32-.47-.89-1.11-1.69-1.68-2.52-.04-.06-.16-.07-.37-.16Z"/>
  <path class="cls-12" d="M117.64,169.63l2.3,5.19c-4.12,1.88-8.22,3.75-12.37,5.64l-2.28-5.15c.29-.13.57-.25.85-.38,2.17-.96,4.34-1.89,6.5-2.88,1.38-.63,2.72-1.35,4.08-2.02.28-.14.58-.26.92-.41ZM117.33,170.87c-.47.38-.75.73-1.11.89-1.73.77-3.47,1.52-5.23,2.23-.97.39-1.98.68-2.97,1.05-.8.3-.93.5-.65,1.32.21.63.56,1.21.89,1.79.44.77.68.82,1.49.42,1.25-.62,2.5-1.26,3.77-1.85,1.4-.65,2.82-1.26,4.24-1.89.19-.08.38-.16.56-.25.34-.17.45-.45.3-.8-.39-.91-.8-1.81-1.28-2.9Z"/>
  <path class="cls-11" d="M125.44,222.43l-3.76,1.66-2.51-5.69,3.76-1.66,2.51,5.69Z"/>
  <path class="cls-11" d="M124.26,230.43c-.78-1.89-1.52-3.68-2.3-5.56l3.85-1.7,2.43,5.51-3.98,1.76Z"/>
  <path class="cls-11" d="M98.32,170.36l3.17-1.4,2.65,6-3.15,1.39c-.91-1.97-1.76-3.95-2.67-5.99Z"/>
  <path class="cls-11" d="M80.08,128.95l3.09-1.37c.89,2,1.75,3.97,2.64,5.98l-3.09,1.37-2.64-5.98Z"/>
  <path class="cls-11" d="M101.35,177.07l3.11-1.38,2.24,5.07-3.11,1.38-2.24-5.07Z"/>
  <path class="cls-9" d="M95.48,171.48l2.1-.93c.91,2.05,1.79,4.06,2.7,6.11l-1.94.86c-1.12-1.95-1.99-3.97-2.87-6.03Z"/>
  <path class="cls-10" d="M77.57,130.01l1.68-.74c.43.51,2.07,4.07,2.76,5.99l-1.76.78c-.88-1.97-1.77-3.95-2.67-6.02Z"/>
  <path class="cls-9" d="M102.88,182.51l-1.88.83-2.27-5.13c.56-.29,1.17-.61,1.83-.96l2.32,5.26Z"/>
  <path class="cls-10" d="M121.08,224.57c-.46.27-.86.51-1.37.8l-2.67-6.04,1.44-.64,2.6,5.88Z"/>
  <path class="cls-10" d="M121.38,225.22c.76,1.86,1.5,3.65,2.26,5.5l-1.25.55c-.76-1.73-1.55-3.51-2.36-5.34.43-.22.85-.45,1.35-.71Z"/>
  <path class="cls-14" d="M64.11,137.42c.17-1,.23-1.05,1.23-.94.29.03.58.04.87.07.72.08.75.12.83.84.02.14.05.29.07.43-.91-.04-1.82-.02-2.67-.41-.09-.04-.22,0-.34,0Z"/>
  <path class="cls-5" d="M65.09,130.86c.02-.32.04-.5.05-.69.78.06,1.58-.12,2.19.59-.74.49-1.43-.06-2.24.1Z"/>
  <path class="cls-5" d="M68.04,132.38c.01.8.12,1.62-.4,2.3-.38-.87-.4-1.67.4-2.3Z"/>
  <path class="cls-13" d="M64.11,137.42c.11,0,.24-.04.34,0,.85.39,1.77.38,2.67.41-.02.09-.02.25-.05.26-1.01.17-2,.15-2.92-.37-.05-.03-.03-.19-.04-.29Z"/>
  <path class="cls-13" d="M68.03,135.21c-.19.47-.36.9-.55,1.38-.83-.39-.13-.96-.27-1.5.34.05.61.09.82.12Z"/>
  <path class="cls-1" d="M92.71,73.13c.7.1,1.4.21,2.19.33,0,.48,0,.96.01,1.44-.49.31-1.02.22-1.53.13-.92-.16-1.11-.49-.85-1.41.05-.17.12-.32.18-.49Z"/>
  <path class="cls-5" d="M93.22,69.51c.05-.27.09-.48.15-.74.75.15,1.45.29,2.19.44-.05.27-.09.45-.12.59-.73-.1-1.41-.19-2.21-.3Z"/>
  <path class="cls-6" d="M92.71,73.13c-.06.16-.14.32-.18.49-.26.92-.07,1.24.85,1.41.52.09,1.04.18,1.53-.13.17.34-.1.45-.31.48-.75.1-1.5.09-2.18-.33-.34-.21-.47-.5-.36-.88.12-.41.25-.81.39-1.26.14.12.2.18.27.23Z"/>
  <path class="cls-1" d="M96.06,70.37c-.17,1.08-.35,2.15-.52,3.23-.07-.01-.14-.02-.21-.03-.01-1.11-.07-2.22.58-3.24.05.01.1.03.15.04Z"/>
  <path class="cls-1" d="M93.4,71.88c.42-.31.85-.08,1.25.03.28.07.31.32.09.54-.46.25-.92.22-1.43-.04.03-.17.06-.35.09-.53Z"/>
  <path class="cls-5" d="M93.4,71.88c-.03.18-.06.36-.09.53.51.26.97.28,1.43.04.16.23.07.37-.16.45-.56.2-1.07.06-1.63-.27,0-.31.02-.65.03-1.15.21.21.31.31.41.41Z"/>
  <path class="cls-1" d="M95.91,70.32c.04-.16.08-.33.12-.49.05.01.09.02.14.03-.04.17-.07.33-.11.5-.05-.02-.1-.03-.15-.04Z"/>
  <path class="cls-1" d="M69.53,26.59c-.97-.1-1.3-.6-.83-1.35.29-.46.69-.85,1.04-1.27.11-.05.22-.1.33-.15,0,0,.01,0,.01,0-.08.54.62.42.75.95-.4.56-.84,1.19-1.29,1.82Z"/>
  <path class="cls-1" d="M72.41,27.81c-.77-.41-.8-.48-.4-1.14.19-.32.42-.61.62-.92.27.15.53.31.83.48-.3.61-.49,1.21-1.05,1.57Z"/>
  <path class="cls-6" d="M69.53,26.59c.45-.63.9-1.26,1.29-1.82-.13-.53-.82-.41-.75-.95.41.18.82.36,1.32.58-.44.75-.83,1.44-1.24,2.12-.15.25-.36.51-.62.07Z"/>
  <path class="cls-6" d="M72.41,27.81c.56-.37.76-.97,1.05-1.57-.3-.18-.57-.33-.83-.48-.02-.26.14-.34.31-.21.33.26.62.57.92.85-.29.49-.57.97-.86,1.45-.21.2-.43.47-.59-.04Z"/>
  <path class="cls-6" d="M70.07,23.81c-.11.05-.22.1-.33.15.01-.12.03-.24.04-.36.1.07.19.14.29.21Z"/>
  <path class="cls-10" d="M71.58,28.54c-.18-.12-.36-.23-.54-.35l.54.35Z"/>
  <path class="cls-10" d="M71.99,28.94c-.14-.13-.28-.27-.41-.4.14.13.28.27.41.4Z"/>
  <path class="cls-15" d="M58.82,64.49c-.12-.25-.26-.44-.32-.66-.56-2.08-1.73-3.88-2.71-5.77-.69-1.32-1.35-2.65-2.01-3.99-.04-.07-.02-.17-.04-.32,2.71-1.2,5.42-2.4,8.21-3.63.23.45.46.88.66,1.33.95,2.14,1.88,4.29,2.85,6.42.31.69.71,1.34,1.06,2.01.1.2.16.43.23.62-1.19.95-6.07,3.4-7.93,3.98Z"/>
  <path class="cls-15" d="M47.81,40.94c2.54-1.61,5.36-2.62,7.83-4.17.82.71,1.16,1.65,1.57,2.54,1.05,2.25,2.13,4.49,3.19,6.73.15.31.28.64.47,1.06-2.9,1.34-5.67,2.81-8.57,3.98-1.48-3.34-2.94-6.66-4.49-10.15Z"/>
  <path class="cls-15" d="M41.64,26.63c-.33-.54-.62-1.03-.97-1.61.35-.18.59-.31.85-.43,1.49-.67,2.99-1.33,4.47-2.02.9-.42,1.76-.92,2.65-1.35.78-.38,1.01-.28,1.37.47.06.13.11.27.18.4.19.37.16.66-.24.88-.3.17-.57.42-.88.55-1.53.64-3.08,1.26-4.62,1.89-.65.27-1.29.55-1.93.83-.26.11-.52.23-.87.39Z"/>
  <path class="cls-15" d="M43.97,32.32l-.74-1.68c2.97-1.31,5.91-2.61,8.96-3.96.2.45.45.91.59,1.4.06.2-.07.5-.2.69-.13.17-.37.27-.58.36-1.52.68-3.02,1.4-4.56,2.02-1.1.45-2.25.77-3.47,1.17Z"/>
  <path class="cls-17" d="M116.25,197.48c-.13-.25-.24-.42-.32-.6-.94-2.08-1.76-4.2-2.46-6.38-.28-.86-.68-1.68-1.04-2.51-.28-.66-.57-1.33-.87-1.98-.16-.35-.04-.56.28-.69,1.02-.43,2.04-.89,3.07-1.29,1.63-.64,3.28-1.24,4.92-1.87.23-.09.43-.28.68-.45.23.05.51.11.87.18.8,1.81,1.64,3.63,2.42,5.49.78,1.85,1.37,3.78,2.47,5.61-.04.19-.17.4-.53.45-.25.04-.51.14-.74.24-2.78,1.23-5.56,2.46-8.34,3.69-.1.05-.22.06-.4.11ZM120.91,182.32c-.43.15-.71.24-.97.35-1.92.79-3.84,1.58-5.75,2.37-.41.17-.81.35-1.21.53-.43.2-.61.52-.49.99.07.25.12.51.22.75,1.08,2.62,2.16,5.24,3.25,7.86.59,1.42.63,1.41,2.07.8,1.99-.84,4-1.64,6-2.46.42-.17.84-.37,1.3-.57-1.49-3.58-2.93-7.06-4.41-10.62Z"/>
  <path class="cls-17" d="M117.07,198.74s.15-.13.23-.11c.87.21,1.59-.26,2.34-.52,2.15-.75,4.24-1.66,6.26-2.72.23-.12.39-.38.63-.63.36.13.6.33.8.81.65,1.59,1.44,3.13,2.15,4.69.9,1.97,1.78,3.94,2.65,5.92.07.16.03.38.05.69-.88-.43-1.51.05-2.19.33-2.13.88-4.26,1.76-6.39,2.66-.35.15-.65.42-1.1.72-.29-.01-.34-.42-.47-.72-1.24-2.81-2.47-5.62-3.7-8.43-.15-.35-.29-.7-.45-1.05-.26-.54-.53-1.07-.83-1.65ZM126.67,195.65c-.97.49-1.89.97-2.83,1.42-.92.44-1.85.87-2.8,1.26-.96.39-1.94.73-2.98,1.12.17.38.28.65.4.91.52,1.07,1.08,2.14,1.58,3.22.73,1.59,1.43,3.2,2.14,4.81.07.16.13.33.22.48.25.48.41.56.9.36.73-.3,1.44-.64,2.17-.95.56-.24,1.13-.49,1.7-.7,1.15-.42,2.31-.8,3.46-1.21.21-.07.4-.21.63-.33-1.53-3.45-3.03-6.86-4.59-10.38Z"/>
  <path class="cls-17" d="M106.3,147.07c1.65,4.05,3.24,7.96,4.8,11.79-.11.18-.13.25-.17.27-2.75,1.22-5.49,2.44-8.24,3.64-.32.14-.67.18-1,.3-.42.16-.66,0-.82-.39-.27-.65-.57-1.28-.82-1.93-.69-1.8-1.36-3.6-2.04-5.4-.3-.79-.56-1.6-.88-2.38-.15-.37-.38-.71-.6-1.04-.21-.32-.18-.53.17-.68.48-.21.97-.42,1.47-.57,2.16-.65,4.19-1.6,6.16-2.71.6-.33,1.25-.56,1.98-.89ZM101.54,162.37c2.92-1.2,5.77-2.37,8.67-3.55-.16-.54-.29-1.11-.5-1.65-.79-1.98-1.6-3.95-2.4-5.93-.15-.38-.23-.78-.38-1.16-.31-.75-.65-1.48-1.01-2.3-1.44.77-2.79,1.57-4.2,2.23-1.44.68-2.94,1.23-4.43,1.84,1.42,3.52,2.82,6.97,4.25,10.52Z"/>
  <path class="cls-17" d="M90.24,138.18c.2-.13.49-.38.82-.52,2.69-1.15,5.38-2.29,8.07-3.42.19-.08.38-.15.58-.21.66-.19.77-.08,1.01.62.3.88.65,1.76,1.01,2.61.96,2.26,1.95,4.51,2.93,6.76.4.92.34,1.07-.54,1.48-2.32,1.1-4.65,2.2-6.97,3.32-.2.09-.38.25-.52.41-.37.43-1.27.34-1.53-.18-.47-.97-.93-1.94-1.36-2.93-.83-1.93-1.62-3.88-2.46-5.81-.3-.69-.66-1.34-1.05-2.12ZM91.15,138.44c.03.18.02.24.05.29,1.49,3.21,2.97,6.42,4.47,9.62.03.07.12.11.19.17,2.78-1.23,5.54-2.45,8.34-3.69-.07-.22-.11-.39-.18-.54-1.39-3.06-2.63-6.18-3.77-9.34-.11-.29-.29-.43-.61-.33-.19.07-.38.15-.57.23-2.41,1.07-4.81,2.14-7.22,3.21-.23.1-.45.24-.7.37Z"/>
  <path class="cls-17" d="M141.16,236.08c-1.82.8-3.63,1.62-5.45,2.4-.73.31-1.51.02-1.82-.71-.17-.39-.26-.85-.27-1.27,0-.45.35-.71.76-.85,2.9-1,5.75-2.12,8.53-3.42.48-.22.73-.15,1.07.25.84.99.7,1.89-.42,2.53-.76.43-1.56.8-2.34,1.19-.02-.04-.04-.09-.06-.13ZM143.41,232.64c-.15.03-.21.03-.26.05-2.81,1.2-5.63,2.39-8.44,3.6-.14.06-.31.24-.31.36,0,.37-.03.75.31,1.04.33.27.63.2.97.05.77-.35,1.54-.7,2.32-1.03,1.56-.64,3.13-1.26,4.69-1.91.32-.13.63-.32.89-.53.46-.37.48-.69.15-1.2-.09-.14-.21-.27-.32-.43Z"/>
  <path class="cls-17" d="M109.61,171.54c-.93.41-1.88.81-2.8,1.25-.41.19-.72.14-.99-.22-.47-.62-1.09-1.15-1.19-2-.08-.66-.04-.75.55-1,2.75-1.15,5.49-2.3,8.24-3.44.31-.13.66-.22,1-.24.2,0,.47.13.58.29.32.45.62.92.87,1.42.26.51.15.78-.35,1.08-.05.03-.1.05-.16.08-1.91.93-3.83,1.87-5.74,2.8v-.02ZM114.35,166.44c-.15,0-.21-.03-.26,0-2.8,1.24-5.6,2.48-8.4,3.72-.4.18-.43.49-.22.79.29.42.64.8,1.02,1.26,2.96-1.4,5.84-2.77,8.82-4.18-.36-.59-.65-1.08-.96-1.58Z"/>
  <path class="cls-17" d="M95.45,123.07c.67.49,1.5,2.12,1.78,3.49-.12.08-.25.2-.4.27-2.29,1.1-4.59,2.18-6.89,3.28-.71.34-1.4.73-2.11,1.06-.55.26-.72.2-1.01-.28-.41-.67-.82-1.34-1.23-2.01-.5-.81-.4-1.15.5-1.52,1.16-.49,2.34-.91,3.49-1.42,1.71-.76,3.39-1.58,5.08-2.38.26-.12.49-.31.78-.5ZM96.42,126.17c-.28-.63-.54-1.21-.79-1.79-.18-.41-.47-.49-.85-.29-.62.32-1.24.65-1.87.95-1.34.64-2.68,1.28-4.02,1.9-.89.41-1.8.8-2.81,1.24.47.79.9,1.49,1.36,2.26,3-1.43,5.94-2.83,8.98-4.28Z"/>
  <path class="cls-17" d="M139.44,222.05c-.01.46-.42.6-.79.76-1.31.56-2.63,1.13-3.95,1.67-1.19.49-2.38.96-3.58,1.43-.3.12-.61.21-.91.31-.43.15-.81.03-1.12-.28-.33-.33-.67-.65-.96-1.02-.38-.48-.29-1.01.2-1.37.16-.12.36-.2.54-.28,2.3-1.01,4.6-2.02,6.91-3.01.51-.22,1.03-.4,1.56-.58.58-.21.7-.16.97.38.19.39.33.81.54,1.2.13.25.34.46.6.79ZM128.66,224.16c.48,1.28,1.06,1.56,2.16,1.12,1.22-.49,2.45-.95,3.66-1.45,1.29-.54,2.56-1.13,3.82-1.68.17-.87-.31-1.39-.82-1.88-2.96,1.31-5.86,2.59-8.82,3.9Z"/>
  <path class="cls-17" d="M82.19,121.6c3.23-1.49,6.55-2.74,9.89-4,.06-.22.13-.44.2-.67.06-.01.11-.03.17-.04.13.27.27.54.4.81.36.74.7,1.48,1.07,2.21.29.56.22.82-.4,1.08-1.35.55-2.72,1.06-4.08,1.6-1.55.62-3.09,1.24-4.63,1.87-.87.36-1.03.31-1.44-.5-.37-.75-.75-1.5-1.18-2.36ZM92.46,118.25c-.29.04-.58.03-.84.12-.85.3-1.7.62-2.53.97-1.75.74-3.49,1.51-5.23,2.28-.59.26-.61.36-.37.94.11.27.23.54.36.8.27.54.34.57.87.36,1.84-.74,3.68-1.49,5.52-2.22.51-.2,1.05-.35,1.56-.56.51-.2,1-.44,1.53-.67l-.89-2.01Z"/>
  <path class="cls-17" d="M134.55,212.47c.21.09.33.1.37.16.57.83,1.21,1.63,1.68,2.52.32.6.06,1.02-.6,1.32-2.85,1.29-5.7,2.56-8.57,3.83-.72.32-1,.21-1.34-.48-.3-.59-.64-1.19-.8-1.82-.22-.88-.04-1.13.79-1.5,2.4-1.08,4.81-2.13,7.2-3.23.45-.21,1.12-.05,1.28-.79ZM126.86,219.67c.19-.05.34-.07.46-.13,2.65-1.18,5.29-2.36,7.93-3.55.55-.25.67-.6.36-1.11-.21-.34-.5-.64-.75-.97-.42-.55-.43-.58-1.06-.29-1.09.5-2.15,1.05-3.24,1.56-1.33.62-2.66,1.21-3.99,1.82-.7.32-.84.72-.48,1.38.22.41.47.8.76,1.28Z"/>
  <path class="cls-17" d="M117.33,170.87c.48,1.09.89,1.99,1.28,2.9.15.35.04.63-.3.8-.18.09-.37.17-.56.25-1.41.63-2.83,1.24-4.24,1.89-1.27.59-2.51,1.23-3.77,1.85-.81.4-1.04.35-1.49-.42-.33-.58-.68-1.16-.89-1.79-.28-.82-.15-1.02.65-1.32.98-.36,2-.65,2.97-1.05,1.76-.71,3.5-1.46,5.23-2.23.36-.16.64-.51,1.11-.89ZM117.9,173.93c-.19-.42-.32-.74-.47-1.06-.14-.31-.3-.61-.48-.98-2.93,1.54-5.8,2.95-8.85,3.88-.14,1.03.65,1.52.91,2.26,3-1.38,5.9-2.72,8.89-4.1Z"/>
  <path class="cls-15" d="M120.91,182.32c1.48,3.56,2.92,7.04,4.41,10.62-.46.2-.87.4-1.3.57-2,.82-4.01,1.63-6,2.46-1.44.61-1.48.62-2.07-.8-1.09-2.62-2.17-5.24-3.25-7.86-.1-.24-.15-.5-.22-.75-.12-.47.06-.8.49-.99.4-.18.8-.36,1.21-.53,1.92-.79,3.83-1.58,5.75-2.37.27-.11.54-.2.97-.35Z"/>
  <path class="cls-15" d="M126.67,195.65c1.56,3.53,3.07,6.93,4.59,10.38-.23.12-.42.26-.63.33-1.15.41-2.31.8-3.46,1.21-.58.21-1.14.45-1.7.7-.73.31-1.44.65-2.17.95-.5.2-.65.13-.9-.36-.08-.15-.14-.32-.22-.48-.71-1.6-1.4-3.21-2.14-4.81-.5-1.09-1.05-2.15-1.58-3.22-.13-.26-.23-.52-.4-.91,1.05-.39,2.02-.73,2.98-1.12.95-.39,1.88-.82,2.8-1.26.94-.45,1.86-.93,2.83-1.42Z"/>
  <path class="cls-15" d="M101.54,162.37c-1.43-3.55-2.83-7-4.25-10.52,1.49-.61,2.99-1.16,4.43-1.84,1.41-.67,2.76-1.46,4.2-2.23.36.82.7,1.56,1.01,2.3.15.37.23.78.38,1.16.79,1.98,1.61,3.95,2.4,5.93.21.53.34,1.1.5,1.65-2.89,1.19-5.74,2.36-8.67,3.55Z"/>
  <path class="cls-15" d="M91.15,138.44c.25-.13.47-.27.7-.37,2.4-1.07,4.81-2.14,7.22-3.21.19-.08.37-.17.57-.23.31-.1.5.03.61.33,1.14,3.16,2.38,6.28,3.77,9.34.07.15.11.32.18.54-2.8,1.24-5.57,2.46-8.34,3.69-.07-.06-.16-.1-.19-.17-1.49-3.21-2.98-6.41-4.47-9.62-.02-.05-.02-.11-.05-.29Z"/>
  <path class="cls-15" d="M143.41,232.64c.12.15.23.28.32.43.34.51.31.83-.15,1.2-.27.22-.58.4-.89.53-1.56.65-3.13,1.27-4.69,1.91-.78.32-1.55.67-2.32,1.03-.34.16-.64.22-.97-.05-.35-.29-.32-.67-.31-1.04,0-.12.18-.3.31-.36,2.81-1.21,5.62-2.4,8.44-3.6.05-.02.11-.02.26-.05Z"/>
  <path class="cls-15" d="M114.35,166.44c.3.5.6.99.96,1.58-2.98,1.41-5.86,2.78-8.82,4.18-.38-.46-.73-.84-1.02-1.26-.2-.3-.17-.61.22-.79,2.8-1.24,5.6-2.48,8.4-3.72.05-.02.11,0,.26,0Z"/>
  <path class="cls-15" d="M96.42,126.17c-3.04,1.45-5.98,2.85-8.98,4.28-.46-.77-.89-1.48-1.36-2.26,1.01-.45,1.92-.83,2.81-1.24,1.35-.62,2.69-1.26,4.02-1.9.63-.3,1.25-.63,1.87-.95.38-.2.67-.12.85.29.25.58.51,1.16.79,1.79Z"/>
  <path class="cls-15" d="M128.66,224.16c2.96-1.31,5.87-2.59,8.82-3.9.51.49.99,1.01.82,1.88-1.26.56-2.53,1.14-3.82,1.68-1.21.51-2.44.97-3.66,1.45-1.09.44-1.68.16-2.16-1.12Z"/>
  <path class="cls-15" d="M92.46,118.25l.89,2.01c-.54.24-1.03.47-1.53.67-.51.2-1.05.35-1.56.56-1.84.73-3.68,1.48-5.52,2.22-.54.22-.61.18-.87-.36-.13-.26-.25-.53-.36-.8-.24-.57-.21-.68.37-.94,1.74-.77,3.48-1.53,5.23-2.28.83-.35,1.68-.67,2.53-.97.26-.09.56-.08.84-.12Z"/>
  <path class="cls-15" d="M126.86,219.67c-.29-.48-.54-.87-.76-1.28-.36-.66-.22-1.06.48-1.38,1.33-.61,2.67-1.2,3.99-1.82,1.08-.51,2.15-1.05,3.24-1.56.62-.29.63-.26,1.06.29.25.32.54.62.75.97.31.5.19.86-.36,1.11-2.64,1.19-5.29,2.37-7.93,3.55-.13.06-.27.08-.46.13Z"/>
  <path class="cls-15" d="M117.9,173.93c-2.99,1.38-5.89,2.72-8.89,4.1-.26-.74-1.05-1.23-.91-2.26,3.05-.93,5.92-2.34,8.85-3.88.18.38.34.68.48.98.15.32.28.64.47,1.06Z"/>
</svg>