<?xml version="1.0" encoding="UTF-8"?>
<svg id="Layer_1" xmlns="http://www.w3.org/2000/svg" viewBox="0 0 96.12 153.09">
  <defs>
    <style>
      .cls-1 {
        fill: #7fa290;
      }

      .cls-2 {
        fill: #e9b5c4;
      }

      .cls-3 {
        fill: #66515a;
      }

      .cls-4 {
        fill: #150f11;
      }
    </style>
  </defs>
  <path class="cls-4" d="M80.8,143.71c-2.55.21-4.69,1.43-6.68,2.86-3.67,2.64-7.76,4.03-12.23,3.99-3.86-.03-7.45,1.17-11.16,1.87-4.89.92-9.76.84-14.67-.01-3.69-.64-7.4-1.11-10.78-2.85-1.58-.81-3.16-1.64-4.69-2.55-3.6-2.15-5.3-5.36-5.4-9.56-.12-5.15.82-10.17,1.55-15.22,1.18-8.18,2.54-16.33,3.34-24.56.47-4.85,1.78-9.56,2.67-14.33.14-.69.28-1.38.42-2.07,1.23-4.03,2.48-8.06,3.69-12.09.16-.52.19-1.05-.29-1.59-.63-.71-.74-1.62-.46-2.59.38-1.31-.36-2.56-.56-3.79-.91-5.52-2.2-10.97-3.36-16.45-.03-.14-.11-.28-.18-.44-.69.31-.81.99-1.15,1.49-.61.91-1.33,1.21-2.47,1.11-1.96-.18-3.94-.12-5.92-.16-.53-.31-1.11-.28-1.69-.22-3.99-.86-7.1-3.34-10.3-5.64-.59-.83-.44-1.79-.5-2.72.23-.53.46-1.07.43-1.67.74-.54.08-1.4.51-2.07,2.14-3.39,3.37-7.21,5.14-10.77,1.71-3.19,3.33-6.42,4.85-9.72,1.08-2.35,2.14-4.76,3.74-6.85.86-1.12,1.98-1.92,3.3-2.34,1.28-.41,2.38-.58,3.34-2.03.95-1.43,3.2-1.06,4.97-.6.27.33.62.25.97.19,1.1,2.45,3.57,3.17,5.71,3.58,3.38.65,6.64,1.92,10,2.29,4.72.51,9.58,1.26,14.24-.57,1.64-.65,3.38-.54,5.06-.8,1.62-.25,2.99-.75,4.11-2.08,1.96-2.32,3.88-2.05,5.15.65.35.75.64.94,1.51.86,6.42-.62,12.58,3.03,15.52,8.82,1.88,3.71,2.67,7.77,4.09,11.62.06.16.15.3.23.45.08.27.15.54.25.81,1.4,3.8,2.8,7.58,2.98,11.7.1,2.2-.89,3.6-2.7,4.53-1.77.91-3.6,1.69-5.4,2.53-.56.18-1.13.37-1.69.55-1.05.26-2.11.52-3.16.78-1.37.09-2.74.18-4.11.28-1.1.08-1.8-.24-2.12-1.46-.38-1.43-.95-2.84-2.21-4.05-.62,3.06-1.16,5.91-1.44,8.8-1,3.44-.98,7.14-2.68,10.4-.18.34-.12.61.16.91,1.07,1.13.62,2.52-.23,3.19-1.41,1.12-.91,2.15-.45,3.32.37.96.76,1.91,1.13,2.86,1.47,6.23,3.4,12.34,4.64,18.62,0,.61.04,1.22.42,1.73.77,3.73,2.08,7.26,3.74,10.68,2.63,5.42,3.85,11.26,4.56,17.19.56,4.66.83,9.35,1.39,14.02.34,2.89-.39,5.31-2.43,7.36l-2.74,1.8ZM24.54,83.29c-.92,4.59-2.12,9.14-2.64,13.81-.09.82-.47,1.63.89,1.92,1.43.31,2.29,1.31,2.11,2.9-.11.98.22,1.13,1.2,1.18,3.13.19,4.18,2.6,2.25,5.12-.5.66-.5,1.04-.06,1.61,1.46,1.84.76,4.88-2.9,4.75-1.71-.06-3.15.29-4.71.66-.8.19-1.08.49-1.2,1.32-.43,2.94-1.01,5.86-1.44,8.81-.2,1.36-.58,2.73-.37,4.24.66-.28,1.17-.64,1.71-.7,1.31-.15,1.71-.83,1.83-2.09.13-1.47.93-2.76,2.09-3.65,2.23-1.7,6.07-.44,6.3,2.86.07.93.14,1.5,1.47,1.16,1.43-.36,2.96.14,4.32.75,1.52.67,1.92,2.02,1.29,3.57-.48,1.2-1.44,1.9-2.44,2.58-.47.32-.68.5-.26,1.16,1.58,2.52.08,5.37-2.96,5.93-1.61.3-3.13-1.38-4.08-.95-1.4.63-2.6,1.5-4.24,1.39-2.36-.16-3.74-1.88-2.87-3.95.6-1.43.37-1.89-1.1-1.96-.32-.02-.65-.22-.94-.4-.64-.4-.85-.04-.85.5-.02,3.42.38,6.68,3.5,8.86,2.12,1.48,4.41,2.66,6.76,3.75.72.33,1.11.27,1.74-.32,2.07-1.93,4.56-1.68,6.18.62.57.82,1.02.62,1.69.4,1.59-.54,3.1-.48,4.09,1.08.59.94,1.39,1.11,2.33,1.09,2.12-.05,4.24-.19,6.33-.59,4.21-.8,8.33-2.17,12.69-2.01,2.46.08,4.74-.78,7.04-1.51.41-.13,1-.17,1.09-.71.19-1.13.56-2.19.84-3.28.08-.32-1.26-.96-1.89-1.53-1.1-1-1.85-2.16-1.36-3.76.51-1.69,1.9-1.99,3.38-2.14.44-.04.89,0,1.35,0-.34-2.35.58-3.73,2.73-4.2,1.99-.43,4.22.79,4.52,2.85.22,1.5.83,1.6,1.99,1.34.33-.07.69-.05,1.02,0,1.1.19,1.29-.37,1.1-1.28-.84-4.17-.69-8.44-1.22-12.64-.74-5.89-1.7-11.73-4.28-17.1-2.68-5.58-4.31-11.43-5.5-17.46-.52-2.65-.96-5.34-2.08-7.84-1.15.5-.71,1.07-.34,1.79.75,1.44.75,2.9-.44,4.14-1.08,1.13-2.61,1.79-3.89,1-1.42-.88-2.15-.26-3.1.47-.36.28-.75.56-1.17.72-1.55.58-3.07.5-4.38-.56-1.21-.98-1.41-2.31-.84-3.73.18-.46.37-.81-.27-1.1-.65-.29-.93.03-1.24.5-2.48,3.73-6.02,4.4-10.01,3.16-5.43-1.68-8.29-6.54-4.77-12.29.2-.33.6-.56.55-1.02-1.51-.68-3.12-.46-4.69-.55-.51-.03-1.3-.71-1.46.06-.15.76-.21,1.78.84,2.34,2.17,1.15,2.52,2.6.98,4.55-.62.78-.74,1.39-.52,2.31.34,1.4-.3,2.45-1.54,3.12-1.27.68-2.49.4-3.42-.57-.51-.53-.87-.71-1.59-.56-.66.14-1.37.03-2.06.03-.3-.22-.6-.45-.91-.67-.16-.22-.32-.44-.48-.65.06-.1.05-.18-.05-.25-.02-.46-.04-.93-.06-1.39.12-.25.2-.53.35-.76.42-.63.43-1.3-.31-1.49-.6-.15-.61.6-.71,1.06-.08.38-.14.77-.2,1.15-.21.59-.43,1.17-.64,1.76-.29.41-.18.86-.15,1.31ZM70.78,11.61c-.89,2.15-1.05,4.46-2.03,6.53-.82,1.73-2.06,3.51.07,5.22.08.06.12.21.12.32.02.81.54.85,1.17.86,1.44.02,2.77.35,3.36,1.88.65,1.7-.07,3.03-1.35,4.09-.66.55-.81,1.02-.51,1.87.47,1.33.5,2.75-.56,3.88-1.08,1.16-2.5,1.11-3.85.67-.87-.28-1.43-.33-1.99.51-.64.96-1.64,1.36-2.81,1.41-1.02.04-3.01,4.12-2.45,4.95.09.13.27.21.41.29,1.09.65,1.62,1.58,1.47,2.86-.08.67.07,1.1.9,1.05,1.45-.09,2.62.43,3.1,1.9.52,1.58-.32,2.64-1.51,3.51-.63.46-.89.8-.44,1.67.7,1.38.1,3.17-1.17,4.12-1.27.94-2.63,1.15-3.97.14-.44-.33-.82-.67-1.35-.22-.68.57-1.47.57-2.29.45-.41-.06-.8-.09-1,.41-.6,1.55-1.23,3.08-1.8,4.64-.32.86.15,1.07.86.81,2.42-.88,4.99-.58,7.47-1.04,8.28-1.52,8.34-.41,9.93-8.68,1.59-8.26,3.3-16.49,4.95-24.74.21-1.07-.02-2.43,1.83-1.57.37.18.55-.32.73-.59.84-1.3,2.23-1.02,3.42-1.41.9-.29.7-2.36,2.12-3,2.13-.95,4.04-.17,4.56,2.26.34,1.59,1.43,1.25,2.18,1.03,1.09-.31.16-1.11.04-1.67-.3-1.28-.69-2.54-1.05-3.81-.69-2.43-1.6-4.78-2.79-7.01-.19-.35-.27-1.17-1.06-.69-.61.37-.95.79-.42,1.51.23.31.39.71.48,1.1.32,1.28,0,2.44-.97,3.29-.95.83-2.28,1.36-3.34.64-1.39-.95-2.29-.58-3.48.27-1.4,1-2.97.85-4.31-.23-1.28-1.03-1.23-2.36-.6-3.74.15-.32.65-.7.02-.97-2.2-.93-2.2-2.8-2.11-4.77ZM46.38,65.79c-.26-2.03-.7-4.03-1.23-6.03-1.43-5.37-3.81-10.45-4.9-15.92-.98-4.95-3-9.6-4.18-14.51-1.23-5.1-2.66-10.21-4.71-15.07-.91-2.16-1.95-4.26-2.69-6.5-.39-1.19-.97-2.34-1.77-3.33-.83-1.03-2.9-1.49-4.12-.83-1.23.67-.39,1.74-.24,2.58.64,3.76,1.96,7.33,3.49,10.81,3.48,7.91,6.44,15.99,9.09,24.22,2.48,7.68,4.97,15.38,8.69,22.61.37.72,1.37,1.11,1.17,2.16-.13.65.1,1.2.86,1.16,1.01-.06.41-.85.55-1.34ZM26.14,21.34c-.2.21-.39.35-.5.54-1.14,1.92-2.02,2.34-4.08,1.91-1.78-.37-2.81-1.39-2.9-3.3-.06-1.35-.87-.99-1.5-.85-1.35.28-2.64.22-3.81-.51-1.27-.79-1.15-2.11-1.06-3.43-1.1,1.99-2,4.02-3.04,5.98-.49.93-.2,1.13.66,1.35,2.26.59,3.08,1.78,2.98,4.11-.02.5-.25,1.01.04,1.51.54.08.98-.22,1.47-.37,1.66-.5,3.48.11,4.2,1.5.7,1.36.94,3.05-.37,3.92-1.96,1.31-2.12,2.47-.58,4.08.07.08.07.22.11.32.61,1.64.21,3.09-1.04,4.23-1.16,1.07-2.46.67-3.67-.03-.59-.34-1.16-.73-1.7-1.15-.32-.25-.59-.41-.83.01-.62,1.07-1.69,1.63-2.74,2.35.32.17.5.3.71.39,3.23,1.41,6.79.75,10.12,1.53.19.05.54-.03.64-.17.91-1.38,2.05-2.75,2.09-4.44.05-1.81-.31-3.64-.48-5.46-.14-1.48-.3-2.96-.37-4.44-.03-.59.21-1.2.97-1.16.67.04.73.61.77,1.15.07.91.16,1.82.27,2.73.34,2.99.68,5.98,1.07,8.96.04.34-.24,1.08.61.88.64-.15.47-.64.43-1.11-.16-1.65.17-3.15,1.78-3.94,1.58-.77,2.8.23,3.8,1.23.66.66,1.01.53,1.71.15.76-.41.77-.82.54-1.51-1.9-5.71-3.95-11.36-6.3-16.98ZM47.52,62.08c.28-1.64.51-2.93.71-4.23.98-6.44,3.4-12.48,5.15-18.71,1.41-5.01,2.4-10.11,4.65-14.9,1.35-2.87,1.92-6.11,2.84-9.18.11-.36.41-.8-.2-.99-.36-.11-.52.11-.75.45-1.61,2.4-3.94,3.91-6.57,4.99-1.53.63-3.13.96-4.9.98.49.9,1.27,1.67,1.14,2.24-.43,2.03,1,2.1,2.23,2.58,1.05.41,2.26.86,2.4,2.21.14,1.33-.62,2.31-1.75,2.92-.6.32-.66.57-.43,1.19.77,2.1-.41,3.55-1.88,4.75-1.32,1.09-2.74,1.02-4.08-.09-.23-.19-.46-.34-.77-.16-1.7,1.04-3.53,1.2-5.27.62,1.97,8.55,4.87,16.73,7.49,25.32ZM70.01,6.76c.17-.71-.18-1.25-.7-1.62-.62-.43-1.1.07-1.48.48-2.08,2.2-3.69,4.81-4.49,7.65-2.35,8.38-6.13,16.28-8.02,24.82-1.48,6.67-4.18,13.02-5.47,19.77-.59,3.09-.53,6.28-1.5,9.31-.18.55.31.65.69.77.6.19.63-.23.75-.63.44-1.42.82-2.87,1.4-4.24,3.84-9.09,6.19-18.7,9.68-27.9,1.53-4.02,2.19-8.33,4.07-12.23,2.47-5.15,3.85-10.64,5.08-16.18ZM29.91,6.52c1.84,2.8,3.49,5.58,5.43,8.16,1.58,2.11,3.55,4.37,6.25,4.46,4.48.14,9.1.15,13.18-2.26,1.77-1.04,3.05-2.74,4.8-3.88,1.14-.74,2.29-1.52,3.16-2.61.28-.35.64-.74.47-1.23-.2-.6-.76-.38-1.19-.4-1.73-.06-3.4.11-5.08.65-4.6,1.46-9.36,1.14-13.95.3-4.35-.8-8.6-2.2-13.07-3.2ZM77.21,31.43c-.46,2.05-.82,3.94-1.31,5.8-.56,2.1,0,3.95.99,5.76.41.75.94,1.47,1.16,2.27.29,1.06.87,1.28,1.85,1.22,4.72-.3,9.01-1.93,13.08-4.23,1-.57,1.35-1.46,1.36-2.59.01-1.87-.6-3.61-.99-5.39-.1-.44.02-1.33-.95-1-.71.25-1.39.51-.9,1.56.79,1.7-.22,2.88-1.41,3.84-1.15.92-2.55.92-3.66.04-.86-.69-1.44-.59-2.4-.27-2.87.97-5.94-1.2-4.84-4.17.22-.59.17-.96-.46-1.21-.68-.27-.81-1.08-1.51-1.63ZM42.45,64.98c-1.89-3.76-3.48-7.48-4.82-11.3-.22-.63-.52-.78-1.27-.66-2.18.36-4.47.28-5.96,2.39-.29.41-1.08.18-1.43.43-.87.62-2.17-.97-2.54.35-.25.87.36,1.98.58,2.98.11.5.12,1.05.34,1.5.5,1.02.44,2.36,1.8,2.91,4.26,1.71,8.68,1.64,13.31,1.4ZM40.8,79.35c.14,1.81,1.76,3.38,3.93,4.38,2.69,1.24,5.45,1.47,7.9-.63,3.1-2.66,2.93-8.16-.27-11.01-1.39-1.24-3.06-2.03-4.72-2.78-.94-.43-2.09-.69-2.34,1.02-.11.8-.83,1.35-1.38,1.93-1.68,1.78-3.14,3.66-3.12,7.09ZM69.35,63.98c-2.53,1.04-5.13,1.56-7.79,1.85-3.16.35-6.31.82-9.47,1.16-.48.05-.51.23-.65.54-.61,1.42.1,2.4,1.79,2.27,1.53-.12,3.04-.52,4.57-.59,3.83-.17,7.18-1.75,10.5-3.43.7-.35,1.22-.81,1.04-1.8ZM29.45,65.36c.12,1.14-.28,2.07,1.06,2.71,3.72,1.77,7.65,2.19,11.66,2.29.42.01.98.24,1.24-.3.3-.65-.47-.45-.67-.74-.32-.47-.05-.77.19-1.06,1.11-1.34.3-1.48-.88-1.48-4.21,0-8.46.39-12.6-1.42ZM33.54,15.42c1,3.2,1.84,5.89,2.68,8.58.13.42.12,1.03.83.51,1.1-.81,2.3-.84,3.59-.57.37.08,1.24.49,1.04-.48-.19-.9.44-1.6.37-2.45-3.62-.37-5.68-3.11-8.5-5.59ZM25.93,130.31c1.87.02,1.9-.02,1.95-2.97.03-1.99-.71-3-2.24-3.03-1.39-.03-2.8,1.68-2.78,3.36.02,1.63,1.17,2.62,3.08,2.64ZM11.08,26.98c0-1.68-.55-2.24-2.25-2.25-.92,0-2.63,2.2-2.58,3.32.04.89,1.56,3.22,2.08,3.18,1.77-.11,2.74-1.6,2.75-4.25ZM35.19,130.3c.05-.27-.15-.51-.41-.61-1.17-.45-2.38-.87-3.64-.75-1.1.11-2.42,1.89-1.96,2.54.62.9,1.21,2.04,2.62,1.77,1.28-.25,3.37-2.09,3.39-2.95ZM56.59,78.63c.23.63-.99,1.99,1.07,1.98,2.68-.02,3.63-.71,3.44-3.45-.07-1.08-1.5-.93-2.38-1.02-1.84-.18-2,.06-2.13,2.49ZM21.31,134.24c1.85.6,2.15-1.22,2.07-1.89-.1-.96-1.08-1.92-2.32-2.03-1.49-.14-3,.87-2.95,2.09.1,2.19,2.01,1.48,3.2,1.84ZM63.55,82.89c.22-.7-.46-1.36-1.26-1.3-1.4.1-2.65.77-3.48,2.02-.43.64-.5,1.26.1,1.85.08.08.17.16.26.21,1.57.96,4.32-.56,4.39-2.78ZM11.53,31.79c.36.33.74.6,1.03.94,1.37,1.59,2.15,1.64,3.88.34.8-.6,1.13-1.33.72-2.23-.41-.92-1.27-1.16-2.18-.92-1.27.34-2.48.86-3.45,1.86ZM16.22,39.59c.02-1.32-1.9-3.56-2.9-3.29-.83.22-1.65.88-1.85,1.76-.21.91,2.23,3.02,3.4,3.06,1.11.04,1.23-.81,1.36-1.53ZM30.14,139.38c1.17.02,2.78-1.22,2.81-2.07.03-.78-1.61-2.06-2.65-2.07-.58,0-2.74,1.72-2.58,2.13.44,1.14,1.36,1.77,2.43,2ZM22.62,17.87c-1.69,0-2.11.53-2.16,2.13-.05,1.39.66,1.99,1.96,2.03,1.23.05,1.94-1.1,2.08-2.8.17-2.1-1.13-1.5-1.87-1.36ZM64.07,73.67c0-1.94-.82-3.02-2.18-2.95-.93.05-1.7.45-1.82,1.47-.13,1.16,1.94,3.29,3.1,3.22,1.34-.08.71-1.16.9-1.74ZM19.32,15.57c.46-1.3-.39-1.32-1.39-1.15-.62.1-1.31.1-1.83.39-1.01.56-2.51,1.22-2.08,2.51.41,1.25,1.86.88,2.99.55.61-.18,1.17-.38,1.7-.75.53-.37.82-.77.61-1.56ZM70.44,77.26c-.24-1-.48-1.99-.71-3-.07-.33-.23-.46-.58-.43-1.19.12-1.99.87-2.66,1.72-.67.84.56.9.72,1.42.1.32.2.65.32.97.33.84,1.08.73,1.56.42.48-.31,1.54-.02,1.34-1.11ZM78.33,136.4c0-1.92-.92-3.09-2.25-3.01-.92.05-1.7.53-1.43,1.48.33,1.12.04,2.81,1.83,3,1.06.11,2.16-.03,1.85-1.47ZM45.6,21.61c-1.53.03-2.09.51-2.05,1.53.06,1.45,1.23,2.65,2.68,2.4.95-.16,1.52-1.24,1.53-2.14.03-1.51-1.19-1.74-2.17-1.78ZM28.52,54.08c1.16-.02,2.73-1.31,2.62-2.36-.09-.88-.31-1.79-1.57-1.75-1.17.04-2.58,1.48-2.61,2.71-.03,1.02.47,1.47,1.57,1.41ZM66.25,73.48c.56-1.21,2.11-.77,2.52-1.63.43-.91-.65-1.87-.73-2.9-.01-.17.01-.37-.06-.51-.07-.12-.29-.27-.38-.24-1,.39-2.15.63-2.94,1.3-.51.43.61.9.78,1.48.22.75.47,1.49.8,2.5ZM5.37,39.48c.2,1.13.49,2.07,1.76,2.1.99.03,2.53-1.65,2.29-2.61-.27-1.09-1.55-1.3-2.28-1.34-.86-.05-1.72.8-1.77,1.85ZM71.62,137.76c-.65.15-1.78-.32-1.84,1.05-.05,1.01,1.67,2.35,2.91,2.5,1.3.16,1.4-.76,1.5-1.57.14-1.12-.96-1.95-2.57-1.97ZM79.01,18.36c-.13-1.63-1.23-1.69-2.04-1.84-.87-.17-2.75,1.57-2.63,2.34.11.7.42,1.4,1.4,1.33,1.28-.09,3.27-1.42,3.26-1.82ZM45.78,30.99c.93-.2,1.94-.41,1.82-1.5-.15-1.41-1.42-1.92-2.61-2.06-1.21-.14-1.76.98-1.76,1.91-.01,1.7,1.73,1.02,2.54,1.65ZM70.14,33.79c.17-1.4-.94-1.98-1.86-2-.72-.01-1.92.3-1.93,1.68-.01,1.49.69,2.03,2.08,2.05,1.23.01,1.85-.46,1.72-1.73ZM42.88,26.47c-1.56-.74-2.5-.99-3.36-.98-.74.01-1.4.18-1.65.95-.28.84.32,1.27.92,1.63,1.55.95,2.38.63,4.09-1.61ZM65.54,82.48c.18,1.3.76,2.22,2.05,2.18.97-.03,1.81-.66,1.67-1.77-.14-1.13-.88-2.24-1.98-2.26-.66-.01-1.7.78-1.75,1.85ZM25.62,137.9c.16-1.49-1.24-1.62-1.93-1.67-1.33-.1-1.95,1.15-2.15,2.28-.21,1.23.95,1.31,1.74,1.34,1.29.06,2.16-.6,2.34-1.95ZM34.4,51.61c1.12.04,1.96-.38,1.84-1.4-.13-1.13-.34-2.39-2.06-2.42-1.23-.02-1.72,1.02-1.55,1.54.29.88.08,2.56,1.77,2.28ZM40.84,33c-.15,1.64.45,2.39,1.51,2.26,1.06-.13,2.41-.3,2.33-1.96-.09-1.69-1.81-1.36-2.69-1.83-.68-.36-1.08,1.13-1.15,1.53ZM21.19,11.85c-.06-.91-1.52-2.39-2.72-2.92-.55-.24-1.13-.4-1.58.11-.44.5-.32,1.09.02,1.6.74,1.12,1.89,1.65,3.13,1.92.61.13,1.11-.16,1.16-.71ZM74.86,11.63c-1.24-.08-2.2.19-2.24,1.42-.05,1.43,1.05,1.91,2.26,2,1.74.13,1.46-1.63,1.68-2.4.31-1.1-1.1-.86-1.7-1.02ZM54.49,71.53c.45.87.87,1.79,1.39,2.65.59.99,1.44-.11,2.15.18.19.08.5.07.54-.39.22-2.46-.63-3.23-3.09-2.71-.31.07-.68-.12-.99.27ZM49.3,31.24c-.34,0-2.76,1.83-2.72,2.04.17.94.52,1.81,1.58,1.98.71.11,2.24-1.51,2.24-2.29,0-.82-.49-1.34-1.1-1.73ZM70.91,11.55c1.11-1.26,2.4-1.86,3.98-1.66.63.08.84-.23.72-.8-.09-.43.29-1-.54-1.22-2.84-.73-4.29.45-4.16,3.67ZM29.45,42.32c-.02-1.23-.77-1.91-1.88-2.07-1.04-.15-1.2.76-1.19,1.5.02,1.15.54,2.33,1.65,2.51,1.08.17,1.4-.93,1.42-1.94ZM69.98,26.26c-.65.17-1.85.18-1.53,1.22.24.78-.1,2.11,1.15,2.36.89.18,2.32-1.27,2.29-2.21-.04-1.17-.9-1.32-1.92-1.37ZM4.97,35.5c1.69.53,1.03-1.15,1.4-1.93.52-1.09-.32-1.85-1-2.21-1.01-.55-.9.65-1.18,1.17-.25.45-.39.95-.64,1.4-.81,1.45.03,1.63,1.42,1.58ZM59.32,56.04c.01.92.09,1.94,1.27,2.02.95.06,1.52-.5,1.6-1.6.1-1.41-.69-2.11-1.83-2.2-1.13-.1-1.05.94-1.04,1.78ZM27.31,73.54c.66.18,1.29.4,1.72-.45.25-.5.51-1.13.94-1.38,2.15-1.23.81-1.54-.42-2.14-.92-.45-1.24-.37-1.42.64-.2,1.11-.53,2.19-.81,3.33ZM25.52,44.74c-.53.39-1.43.27-1.25,1.22.17.9.36,1.79.61,2.67.32,1.09,1.09.56,1.62.29.4-.2.06-3.38-.33-3.69-.21-.17-.43-.33-.66-.49ZM81.34,31.93c.75.09,1.52-.48,1.49-1.38-.04-1.06-1.18-1.32-2.04-1.43-.9-.11-1.55.54-1.53,1.44.02,1.07.85,1.36,2.07,1.37ZM64.8,33.89c.03-.64.13-1.38-.67-1.56-1.03-.23-.76.77-.96,1.25-.35.84-.58,1.73-.85,2.6-.08.27-.23.62.05.78.2.11.58.05.81-.07,1.18-.64,1.56-1.74,1.62-2.99ZM25.54,112.73c.63-.07,1.46-.06,1.49-1.1.03-.95-1.7-2.13-2.95-2.06-.44.03-.76.24-.77.73-.02,1.07,1.19,2.43,2.24,2.43ZM80.93,141.33c1.06-.8,2-1.43,2.57-2.45.33-.58.24-.99-.43-1.12-.99-.19-1.92-.04-2.71.64-.79.68.11,1.22.2,1.82.05.33.21.64.37,1.11ZM80.96,16.83c.31,1.09-.05,2.44,1.42,2.55.82.06,1.39-.54,1.49-1.38.09-.73-1.31-2.36-1.88-2.2-.54.15-1.04.49-1.03,1.02ZM9.87,33.67c-1.14-.03-2.15-.27-2.01,1.13.09.93.49,1.7,1.53,1.69,1.13-.01,2.03-.55,2.04-1.81.02-1.37-1.09-.97-1.56-1.01ZM82.79,36.84c.68-.19,1.83-.2,1.72-1.16-.12-1.02-1.39-1.5-2.23-1.79-.61-.21-1.47.73-1.46,1.59.01,1.12,1.03,1.17,1.97,1.36ZM26.29,135.06c1.11.06,1.81-.44,1.88-1.3.07-.9-.63-1.44-1.55-1.44-1.1,0-1.75.76-1.81,1.7-.06,1,.96.89,1.48,1.04ZM78.17,7.98c-.77-.07-.74.43-.69.89.12.97-.16,2.22,1.31,2.4,1.24.15,1.4-.99,1.43-1.73.06-1.33-1.36-1.06-2.05-1.56ZM32.95,41.33c-.91.53-1.67,1.08-1.53,2.15.12.94.85,1.49,1.71,1.54.37.02,1.31-.29,1.03-1.05-.32-.88-.23-2.01-1.2-2.64ZM14.65,10.33c-.8,1.66-1.71,3.28-2.3,5.41.73-.69,1.24-1.13,1.69-1.61.63-.67,2.13-.52,2.13-1.39,0-.79-.96-1.57-1.53-2.4ZM89.45,29.54c-.45.1-1.1-.12-1.38.37-.29.5.45.68.62,1.07.07.15.23.28.25.44.15.79.53,1.04,1.32.75.73-.26,1.5-.54,1.53-1.4.03-.89-.79-.99-1.46-1.13-.28-.06-.57-.07-.89-.1ZM65.7,78.84c.04-1.2-.69-1.28-1.46-1.34-.91-.07-1.61.23-1.69,1.21-.09,1.14.77,1.45,1.66,1.48.94.04,1.4-.59,1.49-1.35ZM31.52,75.66c.83-.37,1.38-1.27,1.68-2.27.16-.53.02-1.19-.84-1.12-1.36.11-1.77,1.1-1.96,2.21-.11.6.05,1.16,1.12,1.18ZM88.4,34.46c-.44.63-1.66.59-1.68,1.57-.01.77.71,1.38,1.48,1.35.81-.03,1.53-.57,1.54-1.5,0-.73-.48-1.23-1.34-1.42ZM85.69,33.64c1.01.08,1.6-.33,1.6-1.1,0-1.15-1.03-1.18-1.85-1.33-.86-.16-1.39.43-1.4,1.12-.01,1.11,1.03,1.14,1.64,1.32ZM65.67,30.93c.74-.09,1.3-.53,1.32-1.5.02-1.08-.75-1.39-1.58-1.39-1.19,0-.92,1.17-1.1,1.82-.2.7.46,1.07,1.35,1.07ZM62.19,49.66c-.23.44-1.33-.2-1.05.79.19.65-.21,1.85.89,1.89,1,.04,1.97-.6,1.99-1.7.03-1.09-1.13-.62-1.83-.99ZM83.87,27.31c.08.76-.09,1.79,1,1.86,1.04.06,1.41-.88,1.5-1.73.09-.76-.13-1.49-1.19-1.46-.89.03-1.44.33-1.32,1.33ZM20.78,106.97c-.14.85.03,1.59,1.01,1.59.87,0,1.58-.7,1.61-1.46.04-1.02-.9-1.62-1.82-1.65-.94-.03-.65.96-.8,1.52ZM3.78,40.79c-.19-.97-.21-1.76,0-2.55.1-.36.86-.89-.21-1.08-.62-.11-1.12-.4-1.47.53-.6,1.6-.01,2.46,1.68,3.09ZM82.46,11.22c-.45.22-1.41-.18-1.24.47.21.81.6,1.93,1.52,2.14.6.14,1.74-.34,1.66-1.11-.09-.86-.93-1.48-1.94-1.5ZM29.75,48.25c.78-.08,1.69.08,1.73-1.14.05-1.24-.87-1.37-1.71-1.43-1.05-.07-1.31.84-1.42,1.6-.15,1.06.78.86,1.4.97ZM78.76,141.28c-.02-.94-.52-1.6-1.43-1.59-.84,0-1.64.57-1.55,1.5.12,1.32,1.48.7,2.23,1.07.63.31.76-.43.75-.98ZM52.31,27.89c-.57-.86-1.43-1.09-2.37-1.08-.45,0-1.37-.05-1.09.59.29.68.15,2.03,1.56,1.86.85-.1,1.48-.53,1.9-1.37ZM17.43,6.81c1.69.26,2.66,1.17,3.88,1.66-.25-3.25-.42-3.33-3.88-1.66ZM57.94,50.24c-.92.28-.7,1.25-.84,1.92-.15.71.5.93,1.12.89.81-.05,1.24-.55,1.21-1.33-.04-.83-.52-1.34-1.48-1.47ZM21.37,102.4c-.19.81-.08,1.26.75,1.27,1.05.02.93-.79,1.03-1.42.14-.91-.39-1.59-1.18-1.51-1.09.11-.2,1.26-.6,1.65ZM55.05,57.79c1.92-.08,2.82-1.31,2.26-2.79-.12-.32-.37-.41-.63-.49-.37-.11-.52.2-.61.44-.35.89-.65,1.8-1.02,2.84ZM26.05,105.02c-.4.16-1.38-.21-1.08.7.2.63-.21,1.79.85,1.87.87.06,1.39-.66,1.49-1.56.1-.93-.54-.98-1.25-1.01ZM34.55,81.5c-.2-.59-.31-1.47-1.28-1.38-.55.05-1.32.28-1.16,1.17.14.77.43,1.43,1.42,1.39.72-.03,1.04-.37,1.02-1.18ZM20.04,112.56c.23.4-.47,1.2.55,1.13.79-.05,1.29-.46,1.2-1.34-.08-.82.03-2.18-.87-2.11-1.08.09-.49,1.56-.88,2.31ZM22.44,16.1c.43-.01,1.19.04,1.11-.76-.07-.69-.27-1.57-1.19-1.67-.74-.09-1.14.41-1.25,1.14-.13.91.37,1.24,1.33,1.29ZM59.29,48.57c.62-.28.67-1.06.75-1.74.07-.55-.32-1.23-.8-1.07-.83.28-.78,1.3-1.02,2.02-.21.62.35.72,1.07.79ZM34.44,75.84c-.5.02-1.05.19-.82.63.32.59.29,1.61,1.12,1.69.69.06,1.09-.72,1.12-1.3.05-.95-.9-.81-1.43-1.02ZM78.97,15.15c.77.06,1.38-.2,1.42-.93.04-.72-.62-.87-1.2-.87-.79,0-1.35.51-1.36,1.23-.01.69.77.43,1.14.57ZM66.64,23.46c-.19.31-.45.61-.59.95-.22.55-.74,1.08-.34,1.72.17.28.55.25.77.09.58-.43.77-1.09.82-1.77.03-.39-.12-.77-.66-.99ZM30.08,80.67c-.48-.32-.68-1.13-1.42-1.01-.51.08-.6.63-.61,1.1-.02.78.54.76,1.06.72.47-.04.87-.22.97-.82ZM30.52,149.52c.96.13,1.92.27,3.14.44-.98-1.75-2.04-1.36-3.14-.44ZM28.35,75.09c-.59.22-1.04.51-1.01,1.1.04.67.39,1.22,1.11,1.28.5.04.71-.4.61-.81-.13-.56-.2-1.2-.72-1.57ZM38.01,29.92c.23,1.05.11,2.03,1,3.13-.12-1.31,2.08-2.74-1-3.13ZM72.51,145.19c1.13-.24,1.69-.93,2.42-1.33.24-.13.52-.29.29-.63-.17-.25-.47-.37-.74-.21-.79.48-1.63.94-1.97,2.18ZM31.28,79.03c.42-.21,1.19-.14,1.08-.84-.08-.52-.68-.72-1.21-.76-.5-.04-.71.3-.71.76,0,.53.22.88.83.84Z"/>
  <path class="cls-2" d="M27.25,2.31c-.35.06-.7.15-.97-.19.07-.9.74-1.08,1.31-.73.63.39.03.69-.34.91Z"/>
  <path class="cls-2" d="M26.32,81.9c.16.22.32.44.48.65,0,.64.4.72.91.67.69,0,1.4.11,2.06-.03.72-.15,1.07.02,1.59.56.93.97,2.15,1.25,3.42.57,1.25-.67,1.88-1.72,1.54-3.12-.22-.92-.1-1.53.52-2.31,1.54-1.94,1.19-3.4-.98-4.55-1.06-.56-1-1.58-.84-2.34.16-.77.94-.09,1.46-.06,1.57.09,3.17-.13,4.69.55.04.46-.35.7-.55,1.02-3.53,5.75-.66,10.61,4.77,12.29,3.98,1.23,7.52.57,10.01-3.16.31-.47.59-.8,1.24-.5.64.29.45.64.27,1.1-.57,1.43-.37,2.75.84,3.73,1.31,1.06,2.83,1.14,4.38.56.42-.16.81-.44,1.17-.72.95-.74,1.68-1.36,3.1-.47,1.28.79,2.81.13,3.89-1,1.19-1.24,1.18-2.7.44-4.14-.37-.71-.81-1.29.34-1.79,1.11,2.5,1.55,5.2,2.08,7.84,1.19,6.03,2.82,11.88,5.5,17.46,2.58,5.38,3.55,11.22,4.28,17.1.53,4.21.37,8.47,1.22,12.64.18.91,0,1.47-1.1,1.28-.33-.06-.7-.07-1.02,0-1.16.26-1.77.16-1.99-1.34-.3-2.06-2.53-3.28-4.52-2.85-2.15.47-3.07,1.85-2.73,4.2-.46,0-.91-.04-1.35,0-1.48.15-2.87.45-3.38,2.14-.48,1.6.26,2.76,1.36,3.76.62.57,1.97,1.21,1.89,1.53-.28,1.08-.66,2.15-.84,3.28-.09.54-.68.58-1.09.71-2.3.74-4.58,1.6-7.04,1.51-4.37-.15-8.48,1.22-12.69,2.01-2.09.4-4.21.54-6.33.59-.94.02-1.74-.16-2.33-1.09-.98-1.56-2.5-1.62-4.09-1.08-.67.23-1.11.42-1.69-.4-1.62-2.31-4.11-2.56-6.18-.62-.63.59-1.03.65-1.74.32-2.35-1.08-4.64-2.26-6.76-3.75-3.12-2.18-3.52-5.44-3.5-8.86,0-.54.21-.9.85-.5.29.18.62.38.94.4,1.47.07,1.7.53,1.1,1.96-.87,2.07.51,3.79,2.87,3.95,1.64.11,2.84-.76,4.24-1.39.96-.43,2.48,1.25,4.08.95,3.04-.56,4.54-3.41,2.96-5.93-.42-.66-.21-.84.26-1.16,1-.68,1.96-1.38,2.44-2.58.63-1.55.23-2.89-1.29-3.57-1.36-.6-2.89-1.11-4.32-.75-1.33.33-1.41-.24-1.47-1.16-.24-3.3-4.07-4.56-6.3-2.86-1.17.89-1.96,2.18-2.09,3.65-.11,1.26-.52,1.94-1.83,2.09-.54.06-1.05.42-1.71.7-.21-1.51.17-2.88.37-4.24.43-2.94,1.01-5.86,1.44-8.81.12-.82.4-1.12,1.2-1.32,1.56-.37,3-.72,4.71-.66,3.66.13,4.36-2.91,2.9-4.75-.45-.56-.45-.95.06-1.61,1.93-2.53.89-4.93-2.25-5.12-.98-.06-1.31-.2-1.2-1.18.18-1.58-.68-2.59-2.11-2.9-1.35-.29-.98-1.1-.89-1.92.52-4.67,1.71-9.21,2.64-13.81,1.17-.31.78-.8.15-1.31.21-.59.43-1.17.64-1.76.29.01.58.03.87.04.02.46.04.93.06,1.39-.03.03-.07.06-.1.08.05.05.1.11.16.16ZM45.35,91.28c0-.46.04-.9,0-1.33-.27-2.31-2.25-4.25-4.49-4.43-1.92-.16-3.01.89-3.65,3.69-.16.71-.45.8-1.04.73-.51-.06-1.03-.08-1.54-.09-2.2-.03-3.12.56-3.84,2.45-.63,1.65-.02,3.14,1.27,3.93,1.62.99,1.23,1.81.64,3.19-1.15,2.68.7,5.11,3.59,5,1.12-.04,2.18-.33,3.05-1.01.73-.56,1.17-.56,1.95.06,2.1,1.68,5.2,1.21,5.51-1.06.34-2.48,2.06-3.37,3.44-4.78.36-.36.71-.77.94-1.21,1.03-2.01.1-4.09-2.03-4.8-1.23-.41-2.47-.34-3.8-.34ZM53.87,145.08c2.21-.02,4.2-1.46,3.71-3.09-.61-2.03.5-2.71,1.75-3.59.46-.32.87-.75,1.21-1.2,1.72-2.31.9-4.64-1.89-5.41-1.13-.31-2.29-.26-3.42-.1-.79.11-1.09.03-1.23-.85-.35-2.25-2.13-3.89-3.8-3.68-2.35.29-3.69,1.97-3.64,4.58,0,.45.25.91-.6.77-1.6-.27-3.1-.06-3.9,1.61-.69,1.45-.16,3.37,1.42,4.55.82.61.52.96.23,1.64-.61,1.44-1.11,3.03.14,4.36,1.18,1.25,2.87,1.49,4.3.75,1.72-.89,3.27-1.35,5.04-.34.17.1.45.01.68.02ZM72.9,126.94c3.62-.01,4.97-2.09,3.62-5.12-.25-.55-.18-.89.12-1.4,1.21-2.05,1.17-3.99-.02-5.45-1.22-1.49-3.93-2.18-5.83-1.33-.98.43-1.54.52-2.46-.32-1.3-1.18-3.1-1.2-4.7-.54-1.16.48-1.72,1.61-1.38,2.85.3,1.11-.13,1.53-.99,2.09-1.46.95-2.06,2.47-1.81,4.18.23,1.54,1.53,2.08,2.82,2.43.76.21.95.47.97,1.26.08,2.47,1.22,3.44,3.58,3.28.88-.06,1.88-.22,2.36-.87,1.13-1.53,2.49-1.54,3.73-1.06ZM60.85,104.88c-.14,1.19.09,2.02.82,2.72,1.52,1.44,3.83,1.61,5.8.21.91-.65,1.69-.81,2.81-.58,1.46.3,2.8-.21,3.74-1.53.87-1.23.96-2.52.06-3.64-.64-.8-.19-1.26.16-1.78.84-1.26.71-2.49-.02-3.7-.71-1.17-1.76-1.88-3.15-1.6-1.46.3-2.08-.07-2.52-1.62-.63-2.21-3.14-3.15-5.53-2.43-1.69.51-2.66,2.29-2.22,4.45.17.85-.08,1.04-.77,1.32-1.56.63-2.13,2.08-2.26,3.57-.09,1.05.62,1.97,1.68,2.36,1.22.45,2.02,1.04,1.4,2.25ZM38.94,108.37c-2.12,0-3.47,1.18-3.37,3.21.05.94-.38,1.08-1.03,1.42-2.34,1.22-2.77,3.83-.74,5.24,1.22.85,1.75,1.64,1.77,3.11.01,1.16,1.81,2.19,3.02,1.88.88-.22,1.8-.51,2.53-1.02.69-.48,1.18-.62,1.87-.1.89.67,1.87.94,2.83.13.95-.79,1.36-1.87,1.09-3.06-.15-.65-.21-1.05.25-1.67.93-1.24,1.23-2.7.39-4.17-.75-1.3-1.96-1.73-3.37-1.56-.93.11-1.38-.34-1.63-1.09-.59-1.75-1.93-2.28-3.61-2.33Z"/>
  <path class="cls-2" d="M70.78,11.61c-.08,1.98-.09,3.84,2.11,4.77.63.27.13.65-.02.97-.63,1.38-.68,2.72.6,3.74,1.35,1.08,2.92,1.22,4.31.23,1.19-.85,2.09-1.21,3.48-.27,1.06.72,2.39.19,3.34-.64.97-.85,1.28-2.02.97-3.29-.1-.38-.25-.79-.48-1.1-.54-.72-.2-1.15.42-1.51.79-.47.87.34,1.06.69,1.19,2.23,2.11,4.58,2.79,7.01.36,1.27.75,2.53,1.05,3.81.13.55,1.06,1.36-.04,1.67-.75.21-1.84.56-2.18-1.03-.52-2.43-2.43-3.2-4.56-2.26-1.42.63-1.22,2.7-2.12,3-1.19.39-2.58.12-3.42,1.41-.18.28-.35.77-.73.59-1.85-.87-1.62.5-1.83,1.57-1.65,8.25-3.36,16.48-4.95,24.74-1.59,8.27-1.66,7.16-9.93,8.68-2.48.46-5.05.16-7.47,1.04-.71.26-1.18.05-.86-.81.58-1.55,1.21-3.09,1.8-4.64.19-.5.58-.47,1-.41.81.12,1.6.12,2.29-.45.53-.44.91-.11,1.35.22,1.34,1.01,2.69.8,3.97-.14,1.27-.94,1.87-2.74,1.17-4.12-.44-.87-.18-1.22.44-1.67,1.19-.86,2.03-1.93,1.51-3.51-.49-1.47-1.65-1.99-3.1-1.9-.83.05-.98-.38-.9-1.05.15-1.29-.38-2.22-1.47-2.86-.15-.09-.32-.16-.41-.29-.56-.83,1.43-4.91,2.45-4.95,1.17-.05,2.17-.46,2.81-1.41.56-.84,1.12-.79,1.99-.51,1.34.43,2.76.49,3.85-.67,1.06-1.14,1.03-2.55.56-3.88-.3-.85-.15-1.32.51-1.87,1.27-1.06,2-2.39,1.35-4.09-.58-1.53-1.91-1.86-3.36-1.88-.64,0-1.15-.05-1.17-.86,0-.11-.04-.25-.12-.32-2.13-1.71-.9-3.49-.07-5.22.98-2.07,1.14-4.38,2.03-6.53Z"/>
  <path class="cls-2" d="M26.14,21.34c2.35,5.62,4.4,11.27,6.3,16.98.23.68.21,1.1-.54,1.51-.7.38-1.05.5-1.71-.15-1.01-1-2.23-2-3.8-1.23-1.61.79-1.95,2.29-1.78,3.94.05.47.22.96-.43,1.11-.85.2-.57-.54-.61-.88-.38-2.98-.72-5.97-1.07-8.96-.1-.91-.2-1.82-.27-2.73-.04-.54-.1-1.11-.77-1.15-.75-.04-1,.57-.97,1.16.07,1.48.23,2.96.37,4.44.17,1.82.53,3.65.48,5.46-.05,1.69-1.18,3.06-2.09,4.44-.09.14-.44.21-.64.17-3.33-.79-6.88-.12-10.12-1.53-.2-.09-.39-.21-.71-.39,1.05-.72,2.12-1.29,2.74-2.35.24-.42.52-.26.83-.01.54.42,1.11.81,1.7,1.15,1.21.69,2.5,1.09,3.67.03,1.24-1.14,1.65-2.58,1.04-4.23-.04-.11-.04-.25-.11-.32-1.54-1.61-1.38-2.77.58-4.08,1.31-.87,1.07-2.57.37-3.92-.72-1.39-2.53-2-4.2-1.5-.49.15-.93.45-1.47.37-.29-.5-.06-1.01-.04-1.51.1-2.33-.72-3.52-2.98-4.11-.86-.23-1.15-.43-.66-1.35,1.04-1.96,1.94-3.99,3.04-5.98-.09,1.32-.22,2.63,1.06,3.43,1.17.73,2.46.79,3.81.51.63-.13,1.44-.5,1.5.85.09,1.92,1.13,2.93,2.9,3.3,2.05.43,2.94,0,4.08-1.91.11-.19.3-.33.5-.54Z"/>
  <path class="cls-2" d="M47.52,62.08c-2.62-8.59-5.52-16.77-7.49-25.32,1.74.59,3.57.42,5.27-.62.31-.19.54-.03.77.16,1.34,1.11,2.76,1.17,4.08.09,1.47-1.21,2.65-2.65,1.88-4.75-.23-.62-.17-.87.43-1.19,1.13-.6,1.89-1.58,1.75-2.92-.14-1.35-1.35-1.8-2.4-2.21-1.23-.48-2.66-.55-2.23-2.58.12-.57-.66-1.34-1.14-2.24,1.76-.02,3.37-.35,4.9-.98,2.64-1.08,4.96-2.59,6.57-4.99.23-.34.39-.56.75-.45.61.19.31.63.2.99-.92,3.07-1.49,6.31-2.84,9.18-2.25,4.78-3.24,9.89-4.65,14.9-1.75,6.23-4.17,12.27-5.15,18.71-.2,1.3-.43,2.59-.71,4.23Z"/>
  <path class="cls-3" d="M29.91,6.52c4.47,1,8.72,2.4,13.07,3.2,4.59.84,9.35,1.16,13.95-.3,1.68-.54,3.36-.71,5.08-.65.43.01.99-.2,1.19.4.16.49-.19.88-.47,1.23-.87,1.09-2.03,1.87-3.16,2.61-1.74,1.13-3.02,2.83-4.8,3.88-4.08,2.4-8.7,2.4-13.18,2.26-2.7-.09-4.67-2.35-6.25-4.46-1.93-2.57-3.58-5.36-5.43-8.16Z"/>
  <path class="cls-2" d="M77.21,31.43c.69.55.82,1.36,1.51,1.63.62.25.68.62.46,1.21-1.1,2.98,1.97,5.14,4.84,4.17.96-.32,1.54-.42,2.4.27,1.11.88,2.52.88,3.66-.04,1.19-.96,2.2-2.14,1.41-3.84-.49-1.06.19-1.32.9-1.56.96-.33.85.56.95,1,.39,1.78,1.01,3.53.99,5.39,0,1.13-.35,2.02-1.36,2.59-4.07,2.3-8.35,3.93-13.08,4.23-.98.06-1.57-.16-1.85-1.22-.22-.8-.75-1.53-1.16-2.27-1-1.81-1.55-3.66-.99-5.76.49-1.86.85-3.75,1.31-5.8Z"/>
  <path class="cls-2" d="M42.45,64.98c-4.63.24-9.05.31-13.31-1.4-1.36-.55-1.3-1.88-1.8-2.91-.22-.45-.23-1-.34-1.5-.22-1-.82-2.11-.58-2.98.37-1.32,1.68.26,2.54-.35.35-.25,1.14-.02,1.43-.43,1.5-2.1,3.79-2.02,5.96-2.39.76-.13,1.05.03,1.27.66,1.34,3.82,2.93,7.54,4.82,11.3Z"/>
  <path class="cls-3" d="M40.8,79.35c-.02-3.42,1.44-5.31,3.12-7.09.55-.58,1.27-1.13,1.38-1.93.25-1.71,1.39-1.45,2.34-1.02,1.66.75,3.33,1.54,4.72,2.78,3.2,2.85,3.37,8.36.27,11.01-2.45,2.1-5.21,1.86-7.9.63-2.17-.99-3.79-2.57-3.93-4.38ZM52.22,78.15c.11-1.58-.68-3.02-1.85-4.27-.93-.98-2.23-1.67-3.37-2.06-1.5-.52-4.11,3.6-4.16,6.24-.05,2.33,2,4.19,4.66,4.24,2.64.04,4.7-1.67,4.73-4.15Z"/>
  <path class="cls-2" d="M33.54,15.42c2.82,2.48,4.88,5.22,8.5,5.59.07.85-.56,1.55-.37,2.45.2.97-.67.56-1.04.48-1.29-.27-2.49-.24-3.59.57-.71.52-.7-.09-.83-.51-.84-2.69-1.68-5.38-2.68-8.58Z"/>
  <path class="cls-2" d="M66.25,73.48c-.33-1.02-.58-1.76-.8-2.5-.17-.58-1.29-1.05-.78-1.48.78-.66,1.93-.9,2.94-1.3.09-.03.31.12.38.24.08.14.05.33.06.51.07,1.03,1.15,1.99.73,2.9-.41.87-1.95.42-2.52,1.63Z"/>
  <path class="cls-2" d="M40.84,33c.07-.4.47-1.89,1.15-1.53.88.47,2.61.14,2.69,1.83.08,1.65-1.27,1.83-2.33,1.96-1.07.13-1.67-.62-1.51-2.26Z"/>
  <path class="cls-2" d="M54.49,71.53c.31-.39.68-.2.99-.27,2.46-.52,3.31.25,3.09,2.71-.04.46-.35.47-.54.39-.71-.29-1.56.81-2.15-.18-.52-.86-.94-1.78-1.39-2.65Z"/>
  <path class="cls-2" d="M70.91,11.55c-.13-3.23,1.32-4.41,4.16-3.67.83.21.44.78.54,1.22.12.57-.09.88-.72.8-1.59-.2-2.88.4-3.98,1.66Z"/>
  <path class="cls-2" d="M27.31,73.54c.28-1.14.61-2.22.81-3.33.18-1.01.51-1.09,1.42-.64,1.23.6,2.58.9.42,2.14-.44.25-.69.88-.94,1.38-.43.85-1.06.63-1.72.45Z"/>
  <path class="cls-2" d="M80.93,141.33c-.16-.47-.32-.78-.37-1.11-.09-.6-.98-1.14-.2-1.82.79-.68,1.72-.84,2.71-.64.67.13.75.54.43,1.12-.57,1.03-1.51,1.65-2.57,2.45Z"/>
  <path class="cls-2" d="M78.17,7.98c.69.5,2.11.23,2.05,1.56-.03.74-.2,1.88-1.43,1.73-1.47-.17-1.19-1.43-1.31-2.4-.06-.46-.08-.95.69-.89Z"/>
  <path class="cls-2" d="M14.65,10.33c.57.83,1.52,1.62,1.53,2.4,0,.87-1.5.72-2.13,1.39-.45.49-.96.92-1.69,1.61.58-2.13,1.49-3.75,2.3-5.41Z"/>
  <path class="cls-2" d="M89.45,29.54c.33.03.62.04.89.1.67.14,1.5.24,1.46,1.13-.03.86-.8,1.13-1.53,1.4-.8.29-1.18.04-1.32-.75-.03-.16-.19-.28-.25-.44-.17-.39-.91-.56-.62-1.07.27-.48.93-.27,1.38-.37Z"/>
  <path class="cls-2" d="M31.52,75.66c-1.07-.02-1.22-.57-1.12-1.18.2-1.11.6-2.11,1.96-2.21.86-.07,1,.59.84,1.12-.31,1-.85,1.9-1.68,2.27Z"/>
  <path class="cls-2" d="M3.78,40.79c-1.69-.63-2.28-1.49-1.68-3.09.35-.93.85-.64,1.47-.53,1.07.19.31.71.21,1.08-.22.79-.19,1.57,0,2.55Z"/>
  <path class="cls-2" d="M82.46,11.22c1.01.02,1.85.64,1.94,1.5.08.77-1.06,1.25-1.66,1.11-.93-.21-1.32-1.33-1.52-2.14-.17-.65.8-.25,1.24-.47Z"/>
  <path class="cls-2" d="M78.76,141.28c0,.55-.13,1.29-.75.98-.75-.37-2.1.25-2.23-1.07-.09-.92.71-1.49,1.55-1.5.91,0,1.41.64,1.43,1.59Z"/>
  <path class="cls-2" d="M17.43,6.81c3.46-1.67,3.63-1.59,3.88,1.66-1.22-.49-2.19-1.4-3.88-1.66Z"/>
  <path class="cls-2" d="M55.05,57.79c.37-1.03.67-1.94,1.02-2.84.09-.24.25-.55.61-.44.26.08.51.16.63.49.55,1.48-.34,2.71-2.26,2.79Z"/>
  <path class="cls-2" d="M34.55,81.5c.02.82-.3,1.16-1.02,1.18-.99.03-1.28-.62-1.42-1.39-.17-.89.6-1.12,1.16-1.17.97-.09,1.08.79,1.28,1.38Z"/>
  <path class="cls-2" d="M59.29,48.57c-.72-.07-1.29-.17-1.07-.79.25-.72.2-1.74,1.02-2.02.48-.16.87.52.8,1.07-.09.68-.14,1.46-.75,1.74Z"/>
  <path class="cls-2" d="M34.44,75.84c.53.21,1.47.06,1.43,1.02-.03.59-.43,1.37-1.12,1.3-.83-.08-.8-1.1-1.12-1.69-.24-.44.32-.61.82-.63Z"/>
  <path class="cls-2" d="M66.64,23.46c.54.22.68.6.66.99-.04.68-.24,1.34-.82,1.77-.22.16-.6.19-.77-.09-.39-.65.13-1.17.34-1.72.14-.35.39-.64.59-.95Z"/>
  <path class="cls-2" d="M30.08,80.67c-.1.59-.5.78-.97.82-.52.04-1.08.05-1.06-.72.01-.47.11-1.02.61-1.1.74-.12.93.69,1.42,1.01Z"/>
  <path class="cls-2" d="M30.52,149.52c1.1-.92,2.16-1.32,3.14.44-1.22-.17-2.18-.3-3.14-.44Z"/>
  <path class="cls-2" d="M28.35,75.09c.52.37.59,1.01.72,1.57.1.4-.11.85-.61.81-.73-.06-1.07-.61-1.11-1.28-.03-.59.42-.88,1.01-1.1Z"/>
  <path class="cls-2" d="M38.01,29.92c3.08.39.88,1.82,1,3.13-.89-1.09-.77-2.08-1-3.13Z"/>
  <path class="cls-1" d="M72.51,145.19c.34-1.23,1.17-1.7,1.97-2.18.27-.16.56-.03.74.21.24.34-.04.5-.29.63-.73.4-1.29,1.1-2.42,1.33Z"/>
  <path class="cls-2" d="M31.28,79.03c-.61.04-.82-.31-.83-.84,0-.46.2-.8.71-.76.52.04,1.13.24,1.21.76.1.7-.66.63-1.08.84Z"/>
  <path class="cls-1" d="M26.2,80.26c-.29-.01-.58-.03-.87-.04.07-.38.12-.77.2-1.15.1-.45.11-1.21.71-1.06.74.19.73.86.31,1.49-.15.23-.24.5-.35.76Z"/>
  <path class="cls-1" d="M24.69,81.99c.63.51,1.02,1-.15,1.31-.04-.45-.14-.9.15-1.31Z"/>
  <path class="cls-1" d="M27.7,83.23c-.51.05-.91-.04-.91-.67.3.23.6.45.91.67Z"/>
  <path class="cls-1" d="M26.32,81.9c-.05-.05-.1-.11-.16-.16.03-.03.07-.06.1-.08.1.06.12.15.05.25Z"/>
  <path class="cls-4" d="M45.35,91.28c1.33,0,2.57-.07,3.8.34,2.13.72,3.06,2.8,2.03,4.8-.23.45-.58.85-.94,1.21-1.39,1.41-3.1,2.3-3.44,4.78-.31,2.27-3.41,2.74-5.51,1.06-.79-.63-1.22-.63-1.95-.06-.88.68-1.93.97-3.05,1.01-2.89.1-4.74-2.32-3.59-5,.59-1.38.98-2.2-.64-3.19-1.3-.79-1.9-2.28-1.27-3.93.72-1.89,1.64-2.48,3.84-2.45.52,0,1.03.02,1.54.09.59.07.88-.02,1.04-.73.64-2.8,1.73-3.85,3.65-3.69,2.24.18,4.22,2.12,4.49,4.43.05.43,0,.87,0,1.33ZM34.88,91.58c-1.17-.12-2.21.17-2.37,1.65-.13,1.28,1.54,2.59,3.26,2.63.88.02,2.65-1.64,2.39-2.7-.35-1.46-1.86-1.55-3.29-1.58ZM35.87,102.54c1.07.02,2.89-.96,3.53-1.84.35-.48.39-1,.12-1.42-.98-1.54-3.38-1.64-4.51-.19-.64.82-.69,1.78-.37,2.75.19.58.67.73,1.22.7ZM45.28,95.15c-.02,2.01.25,2.43,1.43,2.4,1.02-.03,3.04-1.93,2.85-2.83-.29-1.38-1.49-1.35-2.59-1.44-1.58-.13-2.21.48-1.7,1.87ZM41.32,91.75c1.19.25,1.95-.4,2.06-1.67.09-1.19-1.51-2.66-2.71-2.64-1.21.03-1.48.95-1.58,1.86-.16,1.43.73,2.41,2.23,2.45ZM41.01,97.36c1.19-.21,2.23-.61,2.22-1.99,0-1.62-1.39-1.24-2.31-1.34-1.43-.15-1.75,1.02-1.78,2.02-.04,1.14,1.08,1.13,1.87,1.3ZM45.26,100.51c.14-1.3-1.04-1.63-1.84-1.72-.92-.1-1.63.69-1.58,1.76.06,1.21.87,1.93,1.98,1.94,1.1,0,1.47-.89,1.44-1.98Z"/>
  <path class="cls-4" d="M53.87,145.08c-.23,0-.51.08-.68-.02-1.77-1.01-3.32-.56-5.04.34-1.43.74-3.12.5-4.3-.75-1.25-1.33-.75-2.92-.14-4.36.29-.69.59-1.03-.23-1.64-1.58-1.18-2.11-3.1-1.42-4.55.8-1.67,2.3-1.87,3.9-1.61.85.14.61-.32.6-.77-.05-2.61,1.29-4.29,3.64-4.58,1.68-.21,3.45,1.43,3.8,3.68.14.88.44.96,1.23.85,1.13-.16,2.29-.21,3.42.1,2.79.77,3.61,3.1,1.89,5.41-.34.45-.75.88-1.21,1.2-1.25.88-2.36,1.56-1.75,3.59.49,1.63-1.5,3.07-3.71,3.09ZM46.45,143.74c1.96.03,3.17-.98,3.23-2.51.05-1.16-.73-1.68-1.63-1.83-1.25-.21-2.89,1.59-2.98,3.04-.07,1.14.65,1.31,1.38,1.3ZM53.92,134.21c.81,1,1.73,1.89,1.64,3.29-.04.62.41.57.83.41,1.09-.42,2.02-1.1,2.68-2.04.66-.94.44-1.78-.76-2.09-1.47-.37-2.93-.39-4.39.43ZM48.41,130.91c-.04,1.55,1.12,3.19,2.09,2.99,1.37-.28,1.49-1.63,1.59-2.69.1-1.05-.55-1.92-1.71-1.96-1.21-.04-1.85.73-1.97,1.66ZM46.27,137.55c1.6.39,2.03-1.21,1.96-2.03-.11-1.34-1.73-1.23-2.76-1.4-.73-.12-1.84,0-1.88,1.23-.04,1.21,1.11,2.17,2.68,2.2ZM53.47,143.04c1.17-.07,2.17.02,2.12-1.14-.05-1-.53-2.08-1.7-1.99-.74.06-2.08-.06-2.13,1.18-.04,1.23.66,2.06,1.71,1.94ZM51.19,138.62c.85-.33,2.22-.16,2.28-1.5.04-1-.92-1.36-1.85-1.32-.97.03-1.85.37-1.91,1.51-.05.9.56,1.29,1.48,1.32Z"/>
  <path class="cls-4" d="M72.9,126.94c-1.24-.48-2.6-.47-3.73,1.06-.48.65-1.48.81-2.36.87-2.36.16-3.5-.82-3.58-3.28-.03-.79-.21-1.05-.97-1.26-1.28-.35-2.59-.89-2.82-2.43-.25-1.72.35-3.24,1.81-4.18.86-.56,1.29-.98.99-2.09-.34-1.24.23-2.37,1.38-2.85,1.6-.66,3.41-.64,4.7.54.92.84,1.49.75,2.46.32,1.91-.85,4.61-.15,5.83,1.33,1.19,1.45,1.24,3.4.02,5.45-.3.51-.36.85-.12,1.4,1.36,3.03,0,5.11-3.62,5.12ZM70.79,117.57c.14.29.36.5.69.56.93,2.08,2.08,2.54,3.33,1.33.78-.75,1.08-1.62.56-2.62-.62-1.19-1.67-1.67-2.97-1.61-1.21.06-1.96.88-2.41,1.83-.26.55.51.35.81.5ZM64.86,120.64c0-1.56-.4-2.07-1.49-2.05-1.03.02-2.18,1.31-2.1,2.51.09,1.29,1.2,1.46,2.14,1.46,1.27,0,1.86-.71,1.46-1.92ZM66.41,126.89c1.46-.01,2.6-1.01,2.57-2.1-.03-1.12-.88-1.23-1.66-1.31-1-.09-2.11,1.12-2.1,2.12,0,.89.3,1.44,1.19,1.29ZM72.28,122.78c-.47,0-1.14-.48-1.36.18-.23.67.31,1.17.8,1.57.84.67,1.75.69,2.73.26.71-.31.68-.87.57-1.42-.13-.62-.51-1-1.24-.83-.5.11-1,.17-1.51.25ZM66.2,117.14c.83-.05,1.61.18,1.55-.97-.07-1.54-1.02-1.87-2.3-1.85-.7.01-1.48-.05-1.35,1.01.16,1.32,1.05,1.79,2.1,1.8ZM70.13,120.27c0-1.43-1.26-1.16-2-1.28-.72-.12-1.47.41-1.42,1.34.06,1.19,1.06,1.45,1.95,1.48.88.03,1.48-.53,1.48-1.54Z"/>
  <path class="cls-4" d="M60.85,104.88c.62-1.21-.18-1.81-1.4-2.25-1.06-.39-1.77-1.31-1.68-2.36.13-1.49.69-2.94,2.26-3.57.69-.28.95-.47.77-1.32-.44-2.16.53-3.94,2.22-4.45,2.38-.72,4.9.22,5.53,2.43.44,1.54,1.05,1.92,2.52,1.62,1.39-.28,2.44.43,3.15,1.6.73,1.21.87,2.44.02,3.7-.35.52-.8.98-.16,1.78.9,1.12.81,2.41-.06,3.64-.94,1.33-2.28,1.83-3.74,1.53-1.12-.23-1.89-.07-2.81.58-1.97,1.4-4.29,1.23-5.8-.21-.73-.7-.96-1.53-.82-2.72ZM65.7,97.13c.89.23,1.54-.14,1.58-1.26.07-1.8-1.21-3.21-2.83-3.22-1.17,0-1.85.48-1.88,1.71-.04,1.71,1.08,2.75,3.13,2.76ZM64.89,106.87c.92-.24,2.06-.44,2.18-1.7.14-1.48-1.06-1.92-2.21-2.09-1.17-.18-2.09.91-2.09,2.18,0,1.4,1.06,1.43,2.11,1.61ZM61.97,101.66c1.47-.09,2.22-.9,2-2.09-.22-1.2-1.52-1.39-2.5-1.47-1.18-.1-1.75.86-1.73,1.91.02,1.53,1.47,1.27,2.23,1.65ZM67.4,101.78c.7-.1,1.66.17,1.58-1.04-.08-1.03-.75-1.48-1.74-1.53-.99-.05-1.56.46-1.57,1.4-.01,1.18.95,1.08,1.73,1.16ZM70.79,105.21c.94-.01,1.75-.26,1.78-1.39.03-.93-.64-1.41-1.44-1.35-.9.07-1.85.58-2,1.49-.16,1.03.77,1.25,1.65,1.25ZM72.81,98.54c-.22-.95-.64-1.72-1.68-1.67-.58.03-1.62.35-1.41.89.35.87.63,2.17,1.64,2.39.87.19,1.15-.9,1.44-1.6Z"/>
  <path class="cls-4" d="M38.94,108.37c1.67.05,3.02.58,3.6,2.33.25.75.7,1.2,1.63,1.09,1.41-.17,2.62.26,3.37,1.56.84,1.47.55,2.92-.39,4.17-.47.62-.4,1.02-.25,1.67.26,1.18-.15,2.26-1.09,3.06-.96.8-1.94.54-2.83-.13-.69-.52-1.17-.38-1.87.1-.73.51-1.65.8-2.53,1.02-1.21.31-3-.73-3.02-1.88-.01-1.47-.55-2.26-1.77-3.11-2.04-1.41-1.6-4.02.74-5.24.65-.34,1.08-.48,1.03-1.42-.1-2.02,1.25-3.21,3.37-3.21ZM36.04,117.46c1.47.02,1.78-.91,1.79-1.8.02-1.11-.97-1.29-1.82-1.29-.98,0-1.74.66-1.7,1.57.05,1.02,1.01,1.4,1.73,1.52ZM39.74,113.28c.36-.09,1.27.45,1.15-.83-.11-1.2-.41-2.15-1.83-2.16-.76,0-1.68.17-1.6,1.11.1,1.11.64,2.09,2.27,1.89ZM42.73,113.81c.34.72.7,1.26.85,1.85.2.75.69,1.09,1.35,1.05.84-.06,1.09-.78,1.11-1.49.03-.72-.21-1.37-1.05-1.53-.74-.14-1.46-.04-2.27.12ZM38.52,121.25c.65-.15,1.85-.11,1.93-1.23.07-1.12-1.29-.93-1.96-1.16-.79-.27-1.22.6-1.26,1.43-.04.75.37,1.02,1.3.96ZM43.32,118.55c-.28.04-.9-.15-.76.48.2.9.98,1.43,1.77,1.71.67.24.62-.49.65-.9.1-1.17-.76-1.23-1.67-1.29ZM40.72,115.38c-.75.07-1.17.61-1.21,1.24-.04.67.52.97,1.18.87.6-.09,1.13-.3,1.09-1.06-.03-.67-.33-1.08-1.06-1.05Z"/>
  <path class="cls-4" d="M52.22,78.15c-.03,2.48-2.08,4.2-4.73,4.15-2.65-.04-4.71-1.91-4.66-4.24.06-2.64,2.66-6.76,4.16-6.24,1.14.39,2.44,1.08,3.37,2.06,1.18,1.25,1.97,2.69,1.85,4.27ZM47.45,80.28c1.57.06,2.9-.84,2.95-1.99.09-1.82-1.97-4.13-3.88-3.88-1.58.21-1.75,1.88-1.88,3.22-.17,1.67.85,2.58,2.81,2.65Z"/>
  <path class="cls-2" d="M41.32,91.75c-1.5-.04-2.39-1.02-2.23-2.45.1-.91.37-1.84,1.58-1.86,1.2-.03,2.8,1.45,2.71,2.64-.1,1.27-.86,1.92-2.06,1.67Z"/>
  <path class="cls-2" d="M41.01,97.36c-.8-.18-1.91-.16-1.87-1.3.03-1,.35-2.17,1.78-2.02.92.1,2.3-.28,2.31,1.34,0,1.38-1.03,1.78-2.22,1.99Z"/>
  <path class="cls-2" d="M45.26,100.51c.03,1.09-.34,1.99-1.44,1.98-1.1,0-1.91-.72-1.98-1.94-.06-1.07.66-1.86,1.58-1.76.8.09,1.98.41,1.84,1.72Z"/>
  <path class="cls-2" d="M70.79,117.57c.18-.34.36-.86.83-.51.39.3,0,.72-.14,1.07-.33-.07-.55-.27-.69-.56Z"/>
  <path class="cls-2" d="M64.89,106.87c-1.06-.18-2.11-.21-2.11-1.61,0-1.27.91-2.36,2.09-2.18,1.14.17,2.35.61,2.21,2.09-.12,1.26-1.26,1.46-2.18,1.7Z"/>
  <path class="cls-2" d="M43.32,118.55c.91.06,1.76.12,1.67,1.29-.03.42.02,1.14-.65.9-.79-.28-1.57-.81-1.77-1.71-.14-.63.48-.44.76-.48Z"/>
  <path class="cls-2" d="M72.66,118.09s.1.03.1.04c0,.04-.02.08-.04.13-.04-.01-.1-.03-.1-.04,0-.04.02-.08.04-.13Z"/>
</svg>