<?xml version="1.0" encoding="UTF-8"?>
<svg id="Layer_1" xmlns="http://www.w3.org/2000/svg" viewBox="0 0 304.14 249.53">
  <defs>
    <style>
      .cls-1 {
        fill: #81a391;
      }

      .cls-2 {
        fill: #dd1086;
      }

      .cls-3 {
        fill: #fff;
      }

      .cls-4 {
        fill: #161313;
      }

      .cls-5 {
        fill: #f2e5bf;
      }
    </style>
  </defs>
  <g>
    <path class="cls-4" d="M32.97,16.59c2.64-1.34,5.28-2.69,7.92-4.03,3.15-1.21,6.23-2.66,9.46-3.57,3.86-1.09,7.45-.3,9.9,3.21,2.43,3.48,4.71,7.07,7.06,10.61,1.14,2.37,2.28,4.75,3.42,7.12,2.5,5.01,5.03,10,7.48,15.02,3.25,6.64,7.12,13.08,6.73,20.9-2.46,1.88-4.92,3.76-7.39,5.64-4.91,2.26-9.74,4.74-14.77,6.7-2.94,1.14-3.45,2.5-2.11,5.18,5.72,11.5,11.36,23.04,17.02,34.57,2.6,5.94,5.19,11.88,7.79,17.82.36-.03.71-.06,1.07-.09.63-1.61,1.27-3.21,1.9-4.82,5.34-10.51,10.68-21.02,16.02-31.53.62-1.01,1.24-2.02,1.96-3.18-4.36-2.42-8.39-4.66-12.41-6.89l-4.67-4.12c.27-1.67.31-3.4.84-4.98,1.1-3.31,2.46-6.53,3.71-9.79,1.28-2.79,2.56-5.57,3.84-8.36.46-1.07.91-2.14,1.37-3.2.39-1.07.79-2.14,1.18-3.21,2.34-3.76,4.94-7.4,6.93-11.34,1.05-2.08,2.14-2.38,3.97-1.72,5.19,1.88,10.44,3.61,15.52,5.74,8.6,3.61,17.08,7.48,25.62,11.24.78,1.45,1.55,2.9,2.33,4.34-1.12,3.31-2.16,6.64-3.37,9.92-.94,2.55-1.99,5.08-3.15,7.54-1.9,4.02-3.93,7.98-5.9,11.97-.47,1.14-.94,2.28-1.4,3.42-.75,1.25-1.49,2.5-2.24,3.74-1.4,1.45-2.8,2.89-4.19,4.34-.44.07-.88.15-1.33.22-.41-.06-.83-.12-1.24-.17-.44-.14-.87-.28-1.31-.42-1.98-.59-3.96-1.19-5.94-1.78l-9.14-3.28c-.19-.14-.39-.16-.6-.07l-2.15,1.77c-.14.17-.16.35-.06.55-.31.47-.62.95-.93,1.42-.22.24-.43.48-.65.73-.39.85-.78,1.69-1.16,2.54-2.67,5.23-5.39,10.43-7.99,15.69-1.73,3.5-3.29,7.07-4.93,10.61-1.92,3.84-3.88,7.66-5.73,11.54-.27.56-.19,1.5.1,2.06,1.38,2.6,2.89,5.13,4.35,7.69,2.42,4.7,4.8,9.41,7.27,14.08,4.59,8.72,9.23,17.41,13.85,26.12,1.19,1.99,2.3,4.02,3.57,5.95q4.33,6.61,11.42,2.63c4.28-1.71,8.56-3.43,12.84-5.14,6.01-1.48,10.95-4.82,15.46-8.89,1.12-.49,2.31-.87,3.35-1.49,2.67-1.57,5.28-3.25,7.91-4.89,1.36-.47,2.73-.94,4.09-1.4l2.13-1.18h.02c6.68-3.42,13.28-7.04,20.09-10.21,3.45-1.6,4.8-3.75,3.97-7.37.21-4.68.43-9.37.64-14.05,0-1.71,0-3.42,0-5.14.09-1.69.18-3.38.27-5.08.48-5.7,1.07-11.39,1.41-17.09.66-11.14,1.18-22.29,1.77-33.65-.96-.07-1.71-.31-2.36-.14-6.39,1.61-10.65-2-14.77-5.94-3.37-3.23-6.69-6.51-10.03-9.77-1.76-1.85-3.52-3.7-5.28-5.55-4.86-4.2-3.14-9.99-3.67-15.24.4-5.69,1.86-11.57.91-17.02-.94-5.37,1.75-8.1,4.43-11.41.59-.58,1.19-1.16,1.78-1.74.21-.23.42-.45.63-.68,4.53-4.95,9.34-9.69,13.5-14.93C193.66,1.15,197.05-.03,201.12,0c7.79.06,15.59.19,23.38.48,1.12.04,2.44.85,3.26,1.69,6.93,7.1,13.74,14.31,20.65,21.44,1.65,1.7,2.46,3.41,2.26,5.94-.45,5.85-.61,11.72-.67,17.59-.03,3.29.31,6.58.63,9.86.26,2.69-.85,4.68-2.61,6.58-5.19,5.59-10.3,11.26-15.39,16.94-.53.59-.7,1.47-1.1,2.19-1.3,2.37-2.95,3.96-6.03,3.78-3.9-.24-7.82-.06-12.6-.06v20.51c-.03,1.72-.05,3.44-.08,5.16-.18,5.73-.35,11.45-.53,17.18v32.55c9.89-3.91,19.05-7.52,27.42-10.82-.22-6.32-.44-12.52-.66-18.72.45-1.37.9-2.74,1.34-4.12.88-2.04,1.75-4.09,2.63-6.13,2.17-4.89,6.97-6.82,10.93-9.69,7.49-5.55,15.98-6.35,24.87-5.24,0,0,.2.08.2.08,4.36,2.46,8.71,4.92,13.07,7.38,2.6,2.24,5.2,4.48,7.8,6.73.3.45.6.91.9,1.36,0,0,0,0,0,0,1.02,2.68,2.05,5.36,3.07,8.04.1,4.45.2,8.9.3,13.36-.61,5.86-2.99,10.93-6.77,15.39-.89.74-1.77,1.5-2.67,2.22-5.05,4-9.82,8.56-16.76,8.95-4.84.28-9.69.4-14.53.59-.21,0-.42,0-.63-.01-.43-.02-.86-.04-1.29-.06-4.06-2.29-8.3-4.34-12.12-6.98-2.08-1.43-3.45-3.89-5.16-5.9-2.13.9-4.13,1.62-6.03,2.57-7.09,3.55-14.13,7.18-21.2,10.77l.04-.04c-1.45.78-2.9,1.55-3.65,1.96,0,7.5,0,14.56.02,21.62,0,.17.23.33.35.5.14,3.34.27,6.68.41,10.02.16,8.2.51,16.41.41,24.61-.07,5.45-2.08,7.25-7.39,7.61-2.49.17-4.12-.89-4.2-3.62-.03-.96,0-1.92-.02-2.88-.36-15.8-.73-31.59-1.09-47.39.21-1.27.41-2.54.66-4.08-3.98,2.1-7.49,3.96-11.01,5.82-3.14,1.16-6.45,2-9.39,3.54-7.24,3.79-14.31,7.9-21.46,11.89-1.39.62-2.78,1.24-4.17,1.85,0,0,0,.03,0,.03-.22.13-.44.26-.67.39-3.07,1.56-6.13,3.13-9.2,4.69-5.22,2.81-10.45,5.62-15.94,8.57,2.04,3.98,4.24,7.73,5.93,11.7,2.36,5.58,6.15,10.73,5.76,17.25-.96.86-1.92,1.72-2.88,2.57-7.13,2.47-8.4,1.8-12.11-4.74-3.43-6.06-7.27-11.88-10.97-17.86-1.19.57-2.02,1.05-2.9,1.38-4.17,1.56-8.36,3.09-12.55,4.63-1.59-.31-3.17-.62-4.76-.93-.29-.23-.59-.45-.88-.68-2.51-4.62-2.37-5.14,2.42-9.21,4.17-2.9,8.33-5.8,12.89-8.97-.55-1.19-1.35-2.9-2.14-4.61-2.21-4.76-4.41-9.52-6.62-14.27-5.15-12.06-10.29-24.12-15.75-36.89-2.42,5.06-4.42,9.26-6.43,13.45-3.15,6.54-6.29,13.09-9.44,19.63-.72,1.69-1.44,3.39-2.15,5.08-2.35,5.14-4.69,10.29-7.04,15.43-.56,1.45-1.11,2.89-1.67,4.34-2.41,5.52-4.87,11.03-7.23,16.58-1.54,3.61-3.71,4.69-8.27,3.91-3.38-2.58-4.04-5.71-2.12-9.52,3.48-6.91,6.88-13.86,10.29-20.8.84-1.71,1.6-3.47,2.39-5.2,7.01-13.43,14.59-26.58,19.77-40.9.45-1.25,1.37-2.33,2.07-3.49.96-2,1.75-4.1,2.92-5.96,1.41-2.25,1.27-4.21.07-6.52-4.3-8.26-8.43-16.6-12.62-24.92-5.04-10.93-10.08-21.87-15.28-33.14-3.91,1.75-7.31,3.5-10.87,4.8-3.36,1.24-6.85,2.36-10.37,2.9-4.12.63-7.26-1.48-9.13-5.12-5.88-11.46-11.67-22.98-17.49-34.47-.09-.18-.27-.33-.41-.49-.3-.4-.61-.8-.91-1.21-.29-1.3-.58-2.61-.87-3.91-.23-.48-.46-.95-.69-1.43.07-.15.03-.27-.1-.36-.16-1.08-.32-2.16-.48-3.24-.02-1.28-.04-2.57-.06-3.85.38-2.87,2.34-4.37,4.7-5.6,2.15-1.12,4.23-2.36,6.35-3.54.32-.15.64-.3.95-.44,0,0,.14,0,.14,0,2.28-1.37,4.55-2.73,6.83-4.1,4.67-2.44,9.33-4.88,14-7.32ZM76.09,66.95c.38.07.76.13,1.13.2,1.12-.63,2.23-1.26,3.35-1.89,2.04-2.61.04-4.8-.73-7.12-1.83-4.18-3.52-8.42-5.51-12.52-2.26-4.65-4.77-9.19-7.21-13.75-2.98-5.58-5.92-11.18-9.06-16.67-1.54-2.69-4.02-3.88-7.08-2.55-5.31,2.29-10.68,4.49-15.81,7.13-9.66,4.98-19.16,10.27-28.76,15.37-2.3,1.22-2.89,2.76-2.63,5.42.47,4.91,2.23,9.16,4.52,13.45,5.23,9.84,10,19.92,15.13,29.82,2.3,4.44,4.35,5.53,9.14,3.94,5.83-1.94,11.55-4.4,17-7.25,2.24-1.17,5.67-1.16,6.48-4.54,1.42-.18,2.98-.03,4.23-.58,4.93-2.16,9.77-4.51,14.61-6.87.53-.26.82-1.04,1.22-1.58h0ZM205.64,142.89c-.39,7.45-1.01,14.89-1.11,22.34-.11,7.42.32,14.84.48,22.27.19,8.86.39,17.72.49,26.58.08,6.82.02,13.64.02,20.62,2.71-.17,5.58.87,5.82-2.78.33-4.89.71-9.81.5-14.69-.65-15.44-1.75-30.87-2.31-46.32-.4-11.1-.2-22.22-.27-33.33.1-.18.07-.33-.08-.46-.06-.43-.13-.87-.19-1.3.27-16.31.55-32.61.82-48.92-.29-.07-.59-.13-.88-.2-.25.79-.67,1.58-.71,2.38-.67,12.54-1.31,25.07-1.92,37.61-.26,5.4-.44,10.8-.66,16.2ZM148.09,71.71c.99-2.87,1.99-5.74,3.03-8.73-13.92-5.99-27.15-12.98-41.8-17.52-2.88,5.97-5.71,11.44-8.19,17.06-2.82,6.4-5.39,12.91-7.89,19.44-.31.82.17,2.62.85,3.04,4.74,2.89,9.42,6.04,14.51,8.14,6.95,2.87,14.32,4.7,21.37,7.33,3.4,1.27,5.09-.22,6.31-2.8,1.68-3.55,3.06-7.24,4.57-10.87.83-1.29,1.83-2.51,2.45-3.9,1.67-3.69,3.19-7.46,4.77-11.2ZM173.26,46.6s.06,0,.1,0c0,3.32-.23,6.65.09,9.94.19,1.97.73,4.35,2.01,5.71,6.1,6.47,12.48,12.68,18.82,18.91,1.97,1.94,4.36,2.71,7.26,2.55,8.05-.46,16.11-.62,24.17-.98.74-.03,1.65-.47,2.15-1.03,1.78-2,3.38-4.15,5.11-6.19,4.03-4.75,8.21-9.38,12.1-14.25,1.06-1.33,1.76-3.31,1.79-5.01.16-8.41-.16-16.84.16-25.25.1-2.68-.16-4.63-2.09-6.56-6.37-6.39-12.58-12.94-18.94-19.36-.75-.76-1.98-1.43-3.01-1.46-7.47-.26-14.95-.32-22.43-.49-2.99-.07-5.24,1.13-7.22,3.35-5.56,6.23-11.31,12.29-16.86,18.52-1.07,1.2-2.15,2.82-2.28,4.34-.52,5.73-.64,11.5-.92,17.26ZM247.84,154.63c-.18,4.13,2.5,6.37,5.22,8.35,6.1,4.43,13.21,5.2,20.45,4.9,12.58-.53,24.36-10.32,26.8-22.64,2.3-11.64.1-21.89-11.37-28.23-1.86-1.03-3.54-2.39-5.32-3.57-4.59-3.07-9.62-3.54-15.01-3.05-7.82.7-13.29,5.94-19.57,9.61-1.09.64-1.79,2.09-2.45,3.29-4.62,8.38-5.4,17.22-2.74,26.34.63,2.15.93,4.8,3.99,5.01ZM53.98,82.91c2.06,3.95,4.23,7.85,6.15,11.85,5.87,12.18,11.68,24.4,17.44,36.63,8.31,17.63,16.7,35.23,24.79,52.96,5.97,13.09,11.19,26.52,17.35,39.51,3.27,6.9,8.03,13.07,11.7,19.81,1.6,2.93,3.32,2.6,5.66,1.7,2.7-1.03,2-2.91,1.17-4.73-2.5-5.42-5-10.84-7.64-16.18-2.88-5.83-5.24-12.09-10.75-15.09-.24-1.89,0-3.52-.66-4.59-5.66-9.13-11-18.37-15.71-28.08-7.67-15.81-16.51-31.05-24.37-46.77-7.6-15.2-14.6-30.71-21.83-46.09-.72-1.53-1.33-2.78-3.3-.93ZM201.55,171.25c-1.52.73-3.06,1.41-4.55,2.18-10.96,5.67-22.23,10.81-32.76,17.19-9.72,5.9-19.64,11.04-30.43,14.58-2.83.93-5.45,2.49-8.33,3.83,1.34,1.94,2.36,3.42,3.58,5.18,4.95-2.82,9.71-5.67,14.59-8.27,8.26-4.4,16.6-8.64,24.9-12.96,5.85-3.04,11.66-6.16,17.54-9.13,4.34-2.2,8.68-4.44,13.19-6.25,3.33-1.34,3.59-3.33,2.27-6.36ZM82.32,148.9c-2.91,6.26-5.62,12.25-8.47,18.16-3.98,8.23-8.02,16.44-12.11,24.61-4.34,8.66-8.84,17.24-13.11,25.92-1.63,3.32-3,6.8-4.13,10.33-.29.91.8,2.27,1.25,3.42,1.08-.62,2.75-.99,3.15-1.91,3.34-7.59,6.43-15.29,9.64-22.94,1.06-2.54,2.2-5.05,3.37-7.54,3.45-7.29,6.91-14.58,10.41-21.85,3.6-7.47,7.1-14.99,10.95-22.33,1.25-2.38.71-3.85-.95-5.88ZM112,215.27c-1.14.46-2.33.71-3.24,1.36-3.37,2.38-6.7,4.83-9.92,7.42-.82.66-1.13,1.94-1.68,2.93,1.18.58,2.62,1.9,3.51,1.6,4.85-1.61,9.57-3.63,14.43-5.54-1.22-3.05-2.11-5.28-3.1-7.77ZM110.16,96.86c-.34,0-.67-.02-1.01-.03-2.16,3.51-4.64,6.87-6.4,10.57-4.79,10.06-9.32,20.25-13.84,30.43-.52,1.17-.3,2.68-.42,4.02.27.05.54.1.81.15,1.35-3.1,2.58-6.25,4.06-9.27,5.34-10.85,10.78-21.65,16.11-32.5.49-1,.47-2.24.68-3.37ZM242.46,155.64c.08-.39.16-.78.24-1.17-.94-.07-1.99-.47-2.8-.18-7.66,2.81-15.3,5.68-22.9,8.63-4.55,1.77-4.87,2.48-4.06,7.53,4.84-2.72,9.53-5.6,14.44-8.06,4.92-2.47,10.05-4.52,15.09-6.75Z"/>
    <path class="cls-2" d="M173.26,46.6c.27-5.75.4-11.52.92-17.26.14-1.51,1.21-3.14,2.28-4.34,5.56-6.23,11.3-12.29,16.86-18.52,1.99-2.23,4.24-3.42,7.22-3.35,7.48.17,14.95.23,22.43.49,1.03.04,2.26.7,3.01,1.46,6.35,6.41,12.57,12.96,18.94,19.36,1.92,1.93,2.19,3.88,2.09,6.56-.32,8.41,0,16.83-.16,25.25-.03,1.7-.74,3.69-1.79,5.01-3.88,4.87-8.06,9.5-12.1,14.25-1.73,2.04-3.33,4.19-5.11,6.19-.49.55-1.41.99-2.15,1.03-8.05.36-16.12.52-24.17.98-2.9.17-5.29-.61-7.26-2.55-6.35-6.23-12.72-12.44-18.82-18.91-1.28-1.35-1.82-3.73-2.01-5.71-.32-3.28-.09-6.62-.09-9.94-.03,0-.06,0-.1,0ZM193.27,60.03l.08-.13c3.66-5.18,1.92-10.63.54-15.94-.29-1.12-1.97-1.89-3.02-2.81-1.95-.07-3.89-.13-5.84-.2-.18-.11-.37-.15-.58-.12-2.86-1.18-1.83-3.44-1.75-5.82,2.04,0,3.84-.02,5.63,0,2.81.04,3.84-1.84,3.89-4.12.06-2.36-1.11-4.11-3.85-4.11-1.6,0-3.21.04-4.81-.03-2.93-.12-4.21,1.65-4.8,4.16-.26,1.14-.59,2.33-.49,3.47.32,3.99.16,8.2,1.45,11.88,1.11,3.16,5.2,2.12,7.95,3.01,1,.32,1.61,1.85,2.39,2.82-.91.55-1.8,1.51-2.73,1.55-1.66.08-3.39-.25-5.01-.68-3.03-.79-4.96.57-4.84,3.75.09,2.46,1.33,4.27,3.73,5.02,4.03,1.26,7.96,1.21,11.61-1.25.16-.15.31-.3.47-.45ZM210.03,49.89c.07,0,.14.02.2.02,0,1.39.02,2.78,0,4.17-.07,3.95,2.19,7.39,5.63,8.12,2.57.55,6.82-.29,8.32-4.83,1.11-3.37,1.38-7.02,2.13-10.53,1.59-7.4-1.54-13.78-4.5-20.09-1.44-3.07-5.28-3.29-7.36-.55-1.35,1.77-2.53,4.01-2.83,6.18-.8,5.8-1.08,11.67-1.57,17.51ZM233.03,48.21c5.85-.97,9.17-3.63,9.67-8.38.45-4.24.48-8.57-1.66-12.5-.7-1.27-1.6-2.56-2.72-3.45-3.4-2.7-8.6-1.07-9.42,3.09-.5,2.51-.13,5.19-.13,7.8,0,7.05-.08,14.1.06,21.15.05,2.31-.22,4.94,2.62,6.73,2.82-4.67,1.46-9.52,1.58-14.45ZM192.85,30.79c2.06,1.08,3.62,2.38,5.37,2.7,2.76.51,3.04,2.06,2.95,4.34-.23,6.07-.51,12.16-.37,18.23.04,1.56,1.57,3.09,2.41,4.63.76-1.56,2.09-3.1,2.16-4.7.27-6.29.14-12.6.17-18.9,0-1.65.28-2.83,2.22-3.7,1.17-.52,2.23-2.92,2.04-4.3-.15-1.15-2.06-2.58-3.44-2.92-2.01-.5-4.26-.3-6.37-.11-2.48.23-5.68-.42-5.8,3.68,0,.24-.56.46-1.36,1.06Z"/>
    <path class="cls-5" d="M56.03,75.99c-.81,3.38-4.25,3.37-6.48,4.54-5.44,2.85-11.16,5.31-17,7.25-4.79,1.59-6.84.5-9.14-3.94-5.13-9.9-9.9-19.98-15.13-29.82-2.28-4.29-4.04-8.54-4.52-13.45-.26-2.67.34-4.21,2.63-5.42,9.6-5.1,19.1-10.39,28.76-15.37,5.13-2.64,10.5-4.84,15.81-7.13,3.06-1.32,5.55-.13,7.08,2.55,3.14,5.49,6.08,11.09,9.06,16.67,2.44,4.56,4.95,9.1,7.21,13.75,1.99,4.1,3.69,8.34,5.51,12.52-.82.41-1.64.81-3.08,1.53-1.23-2.07-2.42-4.09-3.42-5.77-.78,1.21-1.91,2.61-2.66,4.2-.55,1.17-.81,2.58-.81,3.89,0,1.62.38,3.24.51,4.17-4.15,1.91-7.97,3.38-11.45,5.42-1.36.8-1.96,2.9-2.91,4.4ZM37.19,42.08c-4.84,2.82-9.63,5.72-14.53,8.42-3.64,2.02-4.33,2.93-2.62,6.66,2.83,6.17,5.99,12.19,9.06,18.26,1.3,2.58,3.42,2.64,5.68,1.49,2.44-1.24,3.46-3.27,2.12-5.78-1.39-2.6-2.94-5.16-4.77-7.46-3.37-4.25-3.12-6.34,1.52-8.9,1.4-.77,2.75-1.65,4.22-2.26,4.17-1.71,4.17-1.66,6.29,2.45.37.71.92,1.33,1.51,2.17.96-.75,1.9-1.18,2.37-1.92,3.41-5.32,6.78-10.67,10.01-16.11.58-.98.93-2.72.44-3.53-.44-.73-2.2-.97-3.36-.92-4.36.17-8.72.85-13.07.76-7.65-.17-7.7-.27-4.88,6.68ZM59.3,59.24c-.94-1.67-1.33-3.21-1.95-3.31-1.76-.28-3.63,0-5.44.18-.04,0-.24,1.62.12,1.93,1.18,1.02,2.5,2.08,3.94,2.52.79.24,1.96-.73,3.33-1.32Z"/>
    <path class="cls-1" d="M247.84,154.63c-3.06-.21-3.36-2.85-3.99-5.01-2.66-9.13-1.88-17.96,2.74-26.34.66-1.2,1.36-2.66,2.45-3.29,6.28-3.67,11.75-8.91,19.57-9.61,5.39-.48,10.43-.02,15.01,3.05,1.78,1.19,3.45,2.55,5.32,3.57,11.48,6.34,13.67,16.59,11.37,28.23-2.44,12.32-14.22,22.11-26.8,22.64-7.25.3-14.36-.47-20.45-4.9-2.72-1.98-5.4-4.22-5.22-8.35ZM262.5,135.63c-5.38-3.09-5.97-8.21-2.04-11.3,4.68-3.69,12.05-2.51,15.21,2.56.69,1.11,1.51,2.78,1.15,3.79-1.39,3.83.42,4.41,3.64,4.9,2.77.43,2.99-.85,2.85-2.76-.55-7.49-6.21-13.9-13.61-15.51-9.42-2.04-17.87,4.3-17.07,13.17.21,2.32,1.91,4.58,3.19,6.7,2.7,4.49,5.45,5.18,10.17,2.78.2.16.41.45.67.52,1.32.33,2.91,1.21,3.91.77,1.87-.81.89-2.47.17-3.8-1.52-2.8-2.86-5.73-4.67-8.33-.65-.93-2.42-1.08-3.69-1.59-.41,1.27-1.11,2.53-1.14,3.81-.03,1.17.66,2.36,1.26,4.28ZM281.95,140.31c-6.02,1.5-12.35,4.4-16.98,9.96-.94,1.13-.82,4.03-.05,5.52,2.86,5.59,5.98,6.65,11.89,4.8.8-.25,1.73-.16,2.48-.5,4.74-2.19,8.97-5,10.62-10.33,1.32-4.24-2.6-9.47-7.95-9.46Z"/>
    <path class="cls-5" d="M140.87,86.8c-1.51,3.63-2.9,7.32-4.57,10.87-1.22,2.58-2.91,4.07-6.31,2.8-7.05-2.64-14.42-4.47-21.37-7.33-5.1-2.1-9.78-5.25-14.51-8.14-.68-.42-1.17-2.22-.85-3.04,2.49-6.53,5.07-13.05,7.89-19.44,2.48-5.62,5.3-11.09,8.19-17.06,14.65,4.54,27.88,11.53,41.8,17.52-1.04,3-2.04,5.87-3.03,8.73-.77.44-1.86.7-2.27,1.36-2.63,4.21-5.53,8.36-4.95,13.73ZM118.81,64.76c.91-1.77,1.83-3.31,2.52-4.95.37-.88.33-1.92.48-2.89-1.08-.08-2.25-.48-3.21-.19-2.94.91-5.74,2.29-8.7,3.13-6.85,1.95-7.12,2.36-4.21,9.06.5,1.17,1.23,2.24,1.86,3.35,2.68,4.75,3.84,5.87,6.98.15.07-.13.36-.15.75-.3,2.92,1.85,5.95,3.76,9.31,5.88-1.47,2.5-3.07,4.76-4.17,7.24-1.05,2.35-3.28,4.93-1.01,7.53,2.63,3.01,7.12,3.55,8.94-1.54,1.46-4.08,2.85-8.19,4.28-12.28,1.96-5.58,1.68-6.53-3.58-9.36-3.25-1.75-6.67-3.17-10.22-4.83ZM126.1,60.61c-.17.3-.34.6-.51.91,3.03,2.82,5.58,6.36,10.27,6.84.69.07,1.45-.52,2.18-.81-.33-.72-.47-1.84-1.03-2.11-3.59-1.71-7.27-3.24-10.92-4.83Z"/>
    <path class="cls-5" d="M53.98,82.91c1.96-1.85,2.58-.61,3.3.93,7.23,15.39,14.23,30.89,21.83,46.09,7.86,15.72,16.7,30.96,24.37,46.77,4.71,9.7,10.05,18.95,15.71,28.08.66,1.07.42,2.7.66,4.59,5.51,3,7.87,9.26,10.75,15.09,2.64,5.35,5.14,10.77,7.64,16.18.84,1.81,1.53,3.7-1.17,4.73-2.35.9-4.07,1.23-5.66-1.7-3.67-6.73-8.43-12.91-11.7-19.81-6.16-12.99-11.38-26.42-17.35-39.51-8.09-17.73-16.48-35.33-24.79-52.96-5.77-12.23-11.58-24.44-17.44-36.63-1.93-4.01-4.09-7.9-6.15-11.85Z"/>
    <path class="cls-5" d="M208.99,135.81c.06.43.13.87.19,1.3-.14.1-.29.2-.43.31.17.05.34.11.51.16.07,11.11-.13,22.23.27,33.33.55,15.45,1.66,30.87,2.31,46.32.21,4.88-.17,9.8-.5,14.69-.25,3.64-3.11,2.61-5.82,2.78,0-6.98.06-13.8-.02-20.62-.1-8.86-.3-17.72-.49-26.58-.16-7.42-.58-14.85-.48-22.27.11-7.45.72-14.89,1.11-22.34,3.35-.45,1.82-2.82,1.54-4.41-.3-1.73-.23-2.75,1.82-2.67Z"/>
    <path class="cls-5" d="M201.55,171.25c1.32,3.03,1.07,5.02-2.27,6.36-4.51,1.81-8.85,4.05-13.19,6.25-5.88,2.98-11.69,6.09-17.54,9.13-8.3,4.32-16.64,8.56-24.9,12.96-4.88,2.6-9.64,5.45-14.59,8.27-1.22-1.76-2.24-3.23-3.58-5.18,2.88-1.34,5.5-2.9,8.33-3.83,10.79-3.55,20.71-8.68,30.43-14.58,10.52-6.38,21.8-11.52,32.76-17.19,1.49-.77,3.03-1.46,4.55-2.18Z"/>
    <path class="cls-5" d="M82.32,148.9c1.66,2.03,2.19,3.5.95,5.88-3.85,7.34-7.35,14.86-10.95,22.33-3.5,7.27-6.96,14.55-10.41,21.85-1.18,2.49-2.31,5-3.37,7.54-3.21,7.65-6.3,15.35-9.64,22.94-.41.92-2.07,1.29-3.15,1.91-.46-1.15-1.55-2.51-1.25-3.42,1.12-3.52,2.49-7.01,4.13-10.33,4.27-8.69,8.78-17.26,13.11-25.92,4.09-8.18,8.14-16.38,12.11-24.61,2.85-5.91,5.56-11.9,8.47-18.16Z"/>
    <path class="cls-5" d="M56.03,75.99c.95-1.51,1.55-3.6,2.91-4.4,3.48-2.04,7.29-3.51,11.45-5.42-.13-.93-.52-2.55-.51-4.17,0-1.31.26-2.71.81-3.89.74-1.59,1.87-2.99,2.66-4.2.99,1.68,2.19,3.69,3.42,5.77,1.44-.72,2.26-1.12,3.08-1.53.77,2.32,2.78,4.51.73,7.12-1.12-1.09-2.23-2.17-3.35-3.26h-.01c-.37-3.3-1.98-.51-3.68-1.24,1.06,2.57,1.81,4.37,2.56,6.18-.4.54-.68,1.32-1.22,1.58-4.84,2.36-9.68,4.71-14.61,6.87-1.25.55-2.81.41-4.23.58Z"/>
    <path class="cls-5" d="M112,215.27c.99,2.48,1.88,4.72,3.1,7.77-4.86,1.91-9.58,3.93-14.43,5.54-.89.3-2.33-1.03-3.51-1.6.55-.99.86-2.28,1.68-2.93,3.21-2.59,6.55-5.03,9.92-7.42.91-.65,2.1-.89,3.24-1.36Z"/>
    <path class="cls-5" d="M242.46,155.64c-5.04,2.23-10.17,4.29-15.09,6.75-4.9,2.46-9.6,5.34-14.44,8.06-.81-5.05-.49-5.76,4.06-7.53,7.6-2.96,15.24-5.83,22.9-8.63.8-.29,1.86.1,2.8.18-.08.39-.16.78-.24,1.17Z"/>
    <path class="cls-5" d="M140.87,86.8c-.58-5.38,2.31-9.53,4.95-13.73.42-.67,1.5-.92,2.27-1.36-1.58,3.74-3.09,7.51-4.77,11.2-.63,1.39-1.63,2.6-2.45,3.9Z"/>
    <path class="cls-5" d="M76.09,66.95c-.75-1.81-1.5-3.62-2.56-6.18,1.7.73,3.31-2.06,3.68,1.23-.04.08-.09.17-.13.25l.14-.24c1.12,1.09,2.23,2.17,3.35,3.26-1.12.63-2.23,1.26-3.35,1.89l-1.13-.2h0Z"/>
    <path class="cls-3" d="M210.03,49.89c.49-5.84.77-11.71,1.57-17.51.3-2.16,1.48-4.41,2.83-6.18,2.09-2.74,5.92-2.52,7.36.55,2.97,6.31,6.09,12.69,4.5,20.09-.75,3.5-1.02,7.15-2.13,10.53-1.5,4.54-5.75,5.38-8.32,4.83-3.44-.73-5.7-4.17-5.63-8.12.03-1.39,0-2.78,0-4.17-.07,0-.14-.02-.2-.02ZM217.24,31.71c-.21.71-.58,1.41-.62,2.12-.25,5.19-.48,10.38-.54,15.58,0,.59,1.21,1.76,1.7,1.68.97-.15,2.27-.8,2.61-1.6.48-1.11.13-2.56.26-3.85.48-4.56-.33-8.86-3.42-13.93Z"/>
    <path class="cls-3" d="M185.03,40.94c1.95.07,3.89.13,5.84.2,2.48,3.88,4.08,8.07,3.78,12.72-.13,2.03-.85,4.02-1.31,6.04,0,0-.08.13-.08.13-.16.15-.31.3-.47.45-3.65,2.46-7.58,2.5-11.61,1.25-2.4-.75-3.63-2.56-3.73-5.02-.12-3.18,1.81-4.54,4.84-3.75,1.63.43,3.35.76,5.01.68.93-.04,1.82-1,2.73-1.55-.79-.98-1.4-2.5-2.39-2.82-2.75-.89-6.84.15-7.95-3.01-1.29-3.68-1.12-7.89-1.45-11.88-.09-1.14.23-2.33.49-3.47.59-2.52,1.87-4.28,4.8-4.16,1.6.06,3.21.03,4.81.03,2.75,0,3.92,1.75,3.85,4.11-.06,2.28-1.09,4.16-3.89,4.12-1.8-.03-3.6,0-5.63,0-.08,2.38-1.11,4.64,1.75,5.82.19.04.39.08.58.12Z"/>
    <path class="cls-3" d="M233.03,48.21c-.12,4.93,1.24,9.78-1.58,14.45-2.84-1.79-2.58-4.42-2.62-6.73-.14-7.05-.06-14.1-.06-21.15,0-2.61-.37-5.29.13-7.8.82-4.16,6.02-5.79,9.42-3.09,1.12.89,2.03,2.18,2.72,3.45,2.15,3.92,2.11,8.25,1.66,12.5-.5,4.75-3.82,7.41-9.67,8.38ZM233.2,39.13c2.58.91,4.67.09,4.88-1.91.2-1.93-.7-4.31-1.89-5.93-.81-1.1-2.89-1.04-2.97,1.36-.07,2.1-.02,4.21-.02,6.47Z"/>
    <path class="cls-3" d="M192.85,30.79c.79-.6,1.35-.82,1.36-1.06.12-4.1,3.32-3.45,5.8-3.68,2.12-.19,4.36-.39,6.37.11,1.37.34,3.28,1.77,3.44,2.92.18,1.38-.88,3.78-2.04,4.3-1.94.87-2.21,2.05-2.22,3.7-.03,6.3.1,12.61-.17,18.9-.07,1.59-1.41,3.13-2.16,4.7-.84-1.54-2.37-3.07-2.41-4.63-.14-6.07.14-12.15.37-18.23.09-2.27-.19-3.83-2.95-4.34-1.75-.32-3.32-1.63-5.37-2.7Z"/>
    <path class="cls-4" d="M37.19,42.09c-2.82-6.96-2.77-6.85,4.88-6.68,4.35.09,8.71-.59,13.07-.76,1.16-.04,2.92.19,3.36.92.49.82.14,2.55-.44,3.53-3.22,5.44-6.6,10.79-10.01,16.11-.47.74-1.42,1.17-2.37,1.92-.59-.84-1.14-1.46-1.51-2.17-2.12-4.1-2.12-4.16-6.29-2.45-1.47.6-2.82,1.49-4.22,2.26-4.64,2.56-4.89,4.65-1.52,8.9,1.83,2.3,3.38,4.87,4.77,7.46,1.34,2.51.32,4.54-2.12,5.78-2.26,1.15-4.38,1.09-5.68-1.49-3.07-6.06-6.23-12.08-9.06-18.26-1.71-3.73-1.03-4.65,2.62-6.66,4.9-2.71,9.69-5.61,14.53-8.42Z"/>
    <path class="cls-5" d="M59.3,59.24c-1.37.59-2.53,1.56-3.33,1.32-1.45-.44-2.76-1.5-3.94-2.52-.36-.31-.16-1.92-.12-1.93,1.81-.17,3.67-.46,5.44-.18.62.1,1.01,1.64,1.95,3.31Z"/>
    <path class="cls-3" d="M262.5,135.63c-.6-1.92-1.29-3.11-1.26-4.28.03-1.28.73-2.54,1.14-3.81,1.26.51,3.04.66,3.69,1.59,1.81,2.6,3.14,5.53,4.67,8.33.72,1.33,1.7,2.99-.17,3.8-1.01.44-2.6-.44-3.91-.77-.26-.07-.47-.36-.67-.52-4.72,2.41-7.47,1.71-10.17-2.78-1.28-2.13-2.98-4.39-3.19-6.7-.8-8.88,7.65-15.22,17.07-13.17,7.4,1.61,13.07,8.02,13.61,15.51.14,1.91-.08,3.19-2.85,2.76-3.22-.5-5.04-1.08-3.64-4.9.37-1-.45-2.68-1.15-3.79-3.16-5.07-10.53-6.25-15.21-2.56-3.93,3.1-3.33,8.21,2.04,11.3Z"/>
    <path class="cls-3" d="M281.95,140.31c5.35,0,9.27,5.22,7.95,9.46-1.65,5.33-5.88,8.14-10.62,10.33-.74.34-1.68.25-2.48.5-5.91,1.84-9.03.78-11.89-4.8-.77-1.5-.88-4.4.05-5.52,4.63-5.57,10.96-8.46,16.98-9.96ZM285.12,148.5c-.12-2.03-3.11-3.97-4.71-3.1-3.25,1.77-6.43,3.67-9.51,5.71-.75.49-1.64,2.18-1.39,2.51.93,1.24,2.42,3.13,3.5,3.01,4.51-.52,8.53-2.41,11.18-6.41.4-.6.7-1.28.93-1.72Z"/>
    <path class="cls-4" d="M118.81,64.76c3.55,1.66,6.97,3.09,10.22,4.83,5.26,2.83,5.54,3.78,3.58,9.36-1.43,4.09-2.82,8.2-4.28,12.28-1.83,5.09-6.31,4.55-8.94,1.54-2.27-2.6-.04-5.18,1.01-7.53,1.11-2.48,2.7-4.74,4.17-7.24-3.36-2.12-6.38-4.03-9.31-5.88-.39.15-.68.17-.75.3-3.13,5.72-4.29,4.6-6.98-.15-.63-1.11-1.35-2.18-1.86-3.35-2.9-6.7-2.63-7.1,4.21-9.06,2.96-.84,5.76-2.22,8.7-3.13.96-.3,2.14.1,3.21.19-.15.97-.11,2.01-.48,2.89-.69,1.64-1.6,3.19-2.52,4.95Z"/>
    <path class="cls-5" d="M126.1,60.61c3.65,1.59,7.33,3.12,10.92,4.83.55.26.69,1.38,1.03,2.11-.73.29-1.49.88-2.18.81-4.7-.49-7.24-4.02-10.27-6.84.17-.3.34-.6.51-.91Z"/>
    <path class="cls-2" d="M217.24,31.71c3.1,5.07,3.9,9.37,3.42,13.93-.14,1.29.21,2.74-.26,3.85-.34.8-1.65,1.45-2.61,1.6-.49.08-1.71-1.09-1.7-1.68.06-5.19.29-10.39.54-15.58.03-.72.4-1.42.62-2.12Z"/>
    <path class="cls-2" d="M233.2,39.13c0-2.26-.06-4.36.02-6.47.08-2.4,2.17-2.47,2.97-1.36,1.18,1.62,2.08,3.99,1.89,5.93-.2,2-2.29,2.82-4.88,1.91Z"/>
  </g>
  <path class="cls-1" d="M285.12,148.5c-.24.44-.53,1.11-.93,1.72-2.64,4.01-6.66,5.89-11.18,6.41-1.08.12-2.57-1.77-3.5-3.01-.25-.33.64-2.02,1.39-2.51,3.08-2.04,6.26-3.94,9.51-5.71,1.6-.87,4.59,1.07,4.71,3.1Z"/>
</svg>