<?xml version="1.0" encoding="UTF-8"?>
<svg id="Layer_1" xmlns="http://www.w3.org/2000/svg" viewBox="0 0 91.51 230.57">
  <defs>
    <style>
      .cls-1 {
        fill: #dd1086;
      }

      .cls-2 {
        fill: #fff;
      }

      .cls-3 {
        fill: #161313;
      }

      .cls-4 {
        fill: #f2e5bf;
      }
    </style>
  </defs>
  <path class="cls-3" d="M13.29,10.68c.62-.28,1.24-.57,1.86-.85.88-.59,1.79-1.14,2.64-1.76,4.44-3.23,8.94-6.18,14.82-5.94,1.55.06,3.17-.45,4.69-.95,4.93-1.61,9.88-1.47,14.81-.21,7.43,1.9,14.82,3.69,21.57,7.77,6.69,4.05,10.63,10.01,13.93,16.68.82,1.66,1.46,3.42,2.18,5.13.57,2.55,1.13,5.1,1.7,7.65l.03,5.79c-.82,4.86-1.64,9.72-2.46,14.58-3.64,5.02-7.28,10.02-10.9,15.06-.64.89-1.11,1.88-1.66,2.83l-.03.03c-1.06.79-2.19,1.5-3.18,2.37-4.27,3.71-9.59,5.35-14.63,7.54-.43.05-.86.09-1.29.14-.53.12-1.07.24-1.6.36-2.26.34-4.52.69-6.73,1.02-.32,4.32-.62,8.43-.92,12.54-.56,11.07-1.44,22.14-1.59,33.22-.16,12.14.37,24.29.58,36.44.22,12.68.4,25.37.62,38.05.03,1.81.23,3.61.35,5.42-.33,4.88-.65,9.77-.98,14.65-.46.58-.91,1.17-1.37,1.75-4.94,1.59-7.16-.05-7.25-5.33-.1-6.14-.24-12.28-.36-18.43-.05-1.86-.09-3.73-.14-5.59-.01-2.36-.02-4.72-.04-7.08-.13-2.34-.26-4.69-.4-7.03-.03-.43-.06-.87-.08-1.3-.01-5.2.02-10.41-.05-15.61-.08-5.29-.27-10.58-.41-15.87,0-.63-.01-1.26-.02-1.88-.06-7.71-.12-15.42-.18-23.13.09-1.92.19-3.83.28-5.75.1-9.21.2-18.42.29-27.63v-7.12c-13.82-3.9-25.72-9.73-32.43-22.99-.32-.9-.64-1.81-.96-2.71-.63-2.12-1.25-4.23-1.88-6.35C.64,51.31-.33,46.37.11,41.24c.1-1.17.06-2.35.13-3.52.55-8.88,3.07-16.91,9.83-23.19,1.22-1.13,2.15-2.56,3.22-3.86ZM87.8,43.58c.31-.07.62-.14.93-.21-1.26-5.12-2.02-10.44-3.91-15.33-2.68-6.92-6.56-13.3-13.81-16.43-5.41-2.34-10.95-4.43-16.58-6.13-3.6-1.09-7.68-2.31-11.2-1.64-7.81,1.48-15.8,1.81-23.1,6.44-9.03,5.74-14.9,12.97-16.41,23.46-1.15,8.01-.27,15.98,2.07,23.73,1.57,5.21,3.17,10.53,7.44,14.28,5.52,4.83,11.47,8.79,18.6,11.27,10.39,3.62,20.14,1.49,29.98-1.53,9.71-2.98,14.91-11.13,20.68-18.54,4.43-5.69,5.48-12.38,5.31-19.37ZM40.49,88.46c0,17.49-.11,34.77.03,52.05.15,19.24.51,38.47.8,57.71.14,9.08.33,18.16.53,27.24.01.69.24,1.37.43,2.41,2.99-1.12,2.76-3.65,2.79-5.58.06-4.14-.42-8.28-.54-12.43-.46-16.44-1.14-32.88-1.22-49.32-.08-15.58.38-31.16.83-46.73.24-8.39.95-16.78,1.46-25.34h-5.11Z"/>
  <path class="cls-1" d="M87.8,43.58c.17,6.99-.88,13.68-5.31,19.37-5.77,7.42-10.96,15.56-20.68,18.54-9.84,3.02-19.59,5.15-29.98,1.53-7.13-2.49-13.09-6.44-18.6-11.27-4.28-3.75-5.87-9.07-7.44-14.28-2.33-7.75-3.22-15.72-2.07-23.73,1.51-10.48,7.38-17.72,16.41-23.46,7.29-4.63,15.29-4.96,23.1-6.44,3.52-.67,7.6.55,11.2,1.64,5.63,1.7,11.18,3.79,16.58,6.13,7.24,3.13,11.13,9.51,13.81,16.43,1.89,4.88,2.65,10.2,3.91,15.33-.31.07-.62.14-.93.21ZM14.29,18.76c-.29.32-1.28,1.09-1.88,2.09-3.83,6.42-5.4,13.59-6.44,20.86-.36,2.49-.51,5.31.28,7.63,3.14,9.2,6.42,18.3,14.71,24.59,6.64,5.03,13.66,8.41,22.11,7.23,3.76-.52,7.34-2.29,11.09-2.85,5.47-.82,9.4-4.27,13.68-7.12,1.86-1.24,2.32-3.29.52-5.22-2.46-2.64-4.77-5.46-7.43-7.89-6.25-5.7-12.47-11.47-19.06-16.75-6.76-5.4-14.05-10.14-20.9-15.42-2.44-1.88-4.29-4.53-6.69-7.14ZM41.2,9.09c0,.12-.02.23-.03.35-1.71,0-3.45-.19-5.13.04-4.78.66-9.86-.07-14.12,3.17-2.12,1.61-2.63,3.35-.8,5.18,2.16,2.16,4.43,4.21,6.73,6.23,7.46,6.57,15.07,12.98,22.41,19.7,6.89,6.31,13.5,12.92,20.25,19.38,2.39,2.29,4.41,2.4,6.05-.44,2.31-4.02,4.91-8.27,5.67-12.71,2.28-13.34-1.89-24.86-12.35-33.61-3-2.51-6.81-4.67-10.58-5.48-5.89-1.27-12.06-1.27-18.11-1.8Z"/>
  <path class="cls-4" d="M40.49,88.46h5.11c-.51,8.56-1.22,16.94-1.46,25.34-.45,15.57-.9,31.16-.83,46.73.08,16.44.76,32.88,1.22,49.32.12,4.15.6,8.29.54,12.43-.03,1.94.2,4.47-2.79,5.58-.19-1.04-.41-1.72-.43-2.41-.2-9.08-.39-18.16-.53-27.24-.29-19.24-.65-38.47-.8-57.71-.13-17.28-.03-34.56-.03-52.05Z"/>
  <path class="cls-3" d="M14.29,18.76c2.4,2.61,4.25,5.26,6.69,7.14,6.85,5.29,14.15,10.02,20.9,15.42,6.6,5.28,12.82,11.04,19.06,16.75,2.66,2.43,4.96,5.25,7.43,7.89,1.81,1.94,1.35,3.98-.52,5.22-4.28,2.85-8.22,6.31-13.68,7.12-3.76.56-7.34,2.33-11.09,2.85-8.45,1.18-15.48-2.2-22.11-7.23-8.29-6.29-11.58-15.39-14.71-24.59-.79-2.32-.64-5.13-.28-7.63,1.05-7.27,2.62-14.44,6.44-20.86.6-1,1.58-1.77,1.88-2.09ZM12.17,55.71l.14-.16s-.11.18-.11.18c1.15,2.61,1.98,5.44,3.51,7.8,5.42,8.38,12.85,14.13,23.14,14.4,4.43.12,8.89-1.67,13.38-2.35,5.56-.84,9.5-4.43,14.13-7.56-1.41-1.33-2.59-2.43-3.91-3.68-1.28,3.95-8.26,5.92-11.03,3.44-.61-.55-.98-1.63-1.02-2.49-.13-2.77-.53-5.67.07-8.31.75-3.3-.44-5.13-2.89-6.94-5.14-3.8-10.16-7.77-15.56-11.94-.37,2.28-.58,3.65-.82,5.01-.5,2.82-2.49,3.69-4.75,1.95-3.87-2.97-7.65-6.06-11.46-9.11-1.7-1.36-1.44-2.86.54-3.74,1.51-.67,2.95-1.49,4.77-2.43-2.31-2.15-4.24-3.95-6.79-6.32-1.26,4.16-2.47,7.74-3.41,11.39-1.86,7.18-2.37,14.27,2.1,20.84Z"/>
  <path class="cls-3" d="M41.2,9.09c6.05.54,12.22.53,18.11,1.8,3.77.81,7.58,2.97,10.58,5.48,10.45,8.74,14.63,20.26,12.35,33.61-.76,4.44-3.35,8.69-5.67,12.71-1.64,2.85-3.66,2.73-6.05.44-6.75-6.46-13.36-13.08-20.25-19.38-7.34-6.71-14.95-13.12-22.41-19.7-2.29-2.02-4.57-4.07-6.73-6.23-1.83-1.83-1.31-3.56.8-5.18,4.26-3.25,9.34-2.51,14.12-3.17,1.68-.23,3.42-.04,5.13-.04,0-.12.02-.23.03-.35ZM63.2,49.05c-.09.85-.58,2.05-.2,2.49,3.22,3.7,6.6,7.26,9.94,10.87.47-.13.95-.25,1.42-.38,1.6-4.09,3.2-8.18,4.79-12.27.26-1.33.76-2.67.74-4-.13-10.2-2.9-19.33-11.08-26.13-1.9-1.27-3.79-2.55-5.69-3.82-.83-.42-1.62-1.02-2.5-1.24-10.96-2.65-22.06-2.32-33.14-1.15-1.67.18-3.24,1.38-5.15,2.25,2.17,1.85,3.81,3.37,5.58,4.72.55.42,1.53.74,2.14.54,2.71-.85,3.53.45,3.61,2.82.09,2.47,1.79,3.7,3.83,3.9,6.84.67,13.73.93,20.57,1.67,1.49.16,2.85,1.65,4.26,2.52.06,1.81.1,3.62.2,5.43.21,3.92.44,7.85.67,11.77Z"/>
  <path class="cls-2" d="M12.17,55.71c-4.47-6.57-3.95-13.66-2.1-20.84.94-3.65,2.16-7.23,3.41-11.39,2.55,2.37,4.47,4.16,6.79,6.32-1.82.93-3.26,1.76-4.77,2.43-1.98.88-2.24,2.38-.54,3.74,3.81,3.05,7.59,6.14,11.46,9.11,2.26,1.74,4.25.87,4.75-1.95.24-1.36.45-2.73.82-5.01,5.41,4.16,10.42,8.14,15.56,11.94,2.45,1.81,3.64,3.64,2.89,6.94-.6,2.64-.2,5.54-.07,8.31.04.86.41,1.95,1.02,2.49,2.77,2.47,9.75.5,11.03-3.44,1.32,1.24,2.49,2.34,3.91,3.68-4.62,3.13-8.57,6.72-14.13,7.56-4.48.68-8.94,2.46-13.38,2.35-10.29-.27-17.71-6.02-23.14-14.4-1.53-2.37-2.36-5.19-3.51-7.8.63-.22,1.25-.45,1.88-.67-.21-.27-.42-.54-.62-.81-.43.49-.85.98-1.28,1.46ZM18.84,64.53c-.21-.33-.41-.67-.62-1-.13.13-.26.25-.38.38.33.21.67.42,1,.62.21.33.41.67.62,1,.13-.13.25-.25.38-.38-.33-.21-.67-.42-1-.62ZM16.14,58.94c1.16-.39,2.82-.78,4.31-1.5,1.95-.95,3.03-.45,3.49,1.59.69,3.05,1.16,6.17,2.15,9.11.32.95,2.03,2.07,3.03,1.99,1.49-.11,2.91-1.21,4.36-1.88-.89-.94-1.81-1.86-2.66-2.84-1.46-1.66-3.15-3.2-4.25-5.08-1.41-2.42-1.92-5.52-5.52-5.72,1.37-5.02-.27-6.9-5.23-6-.57.1-1.35,1.51-1.27,2.22.28,2.42.91,4.8,1.6,8.12ZM23.28,45.2c-.47.28-.94.55-1.4.83.59.81,1.19,1.62,1.78,2.44.35-.24.71-.48,1.06-.72-.48-.85-.96-1.69-1.43-2.54ZM34.65,58.79c-.39.18-.77.37-1.16.55.37.84.71,1.7,1.15,2.5.03.06.84-.32,1.28-.49-.43-.85-.85-1.7-1.28-2.56ZM37.89,64.17c.49.35.82.76,1.04.71.32-.08.56-.49.83-.77-.25-.25-.5-.69-.76-.69-.29,0-.59.38-1.11.75ZM25.2,49.89c-.21.41-.46.67-.43.88.03.21.34.39.53.58.15-.23.43-.45.43-.68,0-.21-.28-.43-.53-.79ZM34.59,72.07c-.17-.07-.33-.14-.5-.22-.07.17-.23.37-.19.49.05.12.3.15.47.23.07-.16.14-.33.21-.5Z"/>
  <path class="cls-2" d="M62.33,31.85c-1.42-.88-2.77-2.36-4.26-2.52-6.84-.74-13.72-1-20.57-1.67-2.04-.2-3.75-1.43-3.83-3.9-.08-2.38-.91-3.68-3.61-2.82-.61.19-1.59-.12-2.14-.54-1.77-1.35-3.42-2.86-5.58-4.72,1.91-.86,3.47-2.07,5.15-2.25,11.09-1.17,22.18-1.51,33.14,1.15.88.21,1.67.82,2.5,1.24-.18,2.8-.22,5.5,3.86,5.05.45,1.35.89,2.71,1.38,4.2q-2.66,3.55-2.03,6.08v1.28c.19,1.54.37,3.09.56,4.63-.28.07-.56.13-.84.2-.55-1.48-.97-3.03-1.72-4.41-.29-.54-1.32-.67-2.01-.99ZM61.86,17.92c-.13-.28-.25-.55-.38-.83-.89.09-1.84,0-2.67.29-4.44,1.55-8.86,3.16-13.26,4.84-.81.31-1.51.96-2.16,1.57-.08.08.52,1.23.69,1.2.92-.15,1.92-.35,2.67-.85,2.31-1.54,4.43-3.27,6.54.39.32.56,2.56.83,2.99.37,2.03-2.16,3.74-4.62,5.56-6.98Z"/>
  <path class="cls-2" d="M66.35,31.15q-.63-2.53,2.03-6.08c-.49-1.49-.94-2.85-1.38-4.2.61-.41,1.22-.82,1.83-1.23,8.18,6.81,10.95,15.93,11.08,26.13.02,1.33-.48,2.67-.74,4-.62-1.11-1.72-2.19-1.78-3.32-.14-2.95-1.69-2.79-3.61-1.99-3.55,1.48-7.05,3.07-10.57,4.61-.22-3.92-.46-7.84-.67-11.77-.1-1.81-.13-3.62-.2-5.43.69.32,1.72.46,2.01.99.75,1.37,1.17,2.93,1.72,4.41.28-.07.56-.13.84-.2-.19-1.54-.37-3.09-.56-4.63h0v-1.28h0Z"/>
  <path class="cls-2" d="M63.2,49.05c3.52-1.54,7.02-3.13,10.57-4.61,1.92-.8,3.47-.95,3.61,1.99.05,1.13,1.15,2.22,1.78,3.32-1.6,4.09-3.2,8.18-4.79,12.27-.47.13-.95.25-1.42.38-3.33-3.6-6.71-7.17-9.94-10.87-.38-.44.11-1.64.2-2.49Z"/>
  <path class="cls-2" d="M16.14,58.94c-.69-3.32-1.31-5.7-1.6-8.12-.08-.71.7-2.12,1.27-2.22,4.96-.9,6.61.97,5.23,6,3.6.2,4.11,3.29,5.52,5.72,1.1,1.88,2.79,3.42,4.25,5.08.86.97,1.77,1.89,2.66,2.84-1.45.68-2.87,1.77-4.36,1.88-.99.07-2.71-1.05-3.03-1.99-.99-2.95-1.45-6.07-2.15-9.11-.46-2.04-1.54-2.54-3.49-1.59-1.49.72-3.15,1.11-4.31,1.5Z"/>
  <path class="cls-2" d="M61.86,17.92c-1.82,2.35-3.53,4.82-5.56,6.98-.43.46-2.67.19-2.99-.37-2.1-3.66-4.23-1.93-6.54-.39-.76.5-1.75.7-2.67.85-.17.03-.78-1.12-.69-1.2.65-.61,1.35-1.26,2.16-1.57,4.4-1.67,8.82-3.29,13.26-4.84.82-.29,1.77-.2,2.67-.29.13.28.25.55.38.83Z"/>
</svg>