<?xml version="1.0" encoding="UTF-8"?>
<svg id="Layer_1" xmlns="http://www.w3.org/2000/svg" viewBox="0 0 82.59 143.47">
  <defs>
    <style>
      .cls-1 {
        fill: #7fa290;
      }

      .cls-2 {
        fill: #e9b5c4;
      }

      .cls-3 {
        fill: #66515a;
      }

      .cls-4 {
        fill: #150f11;
      }
    </style>
  </defs>
  <path class="cls-4" d="M64.46,10.44l-.04.1s.08.07.08.07c.23,1.97,1.19,3.57,2.54,4.94,1.45,1.47,2.76,3.02,3.89,4.76,1.4,2.15,2.71,4.4,4.61,6.17,1.89,1.76,3.53,3.73,5,5.85.12.39.38.67.62.99,2.27,3.12,1.83,5.47-1.29,7.8-1.67,1.24-3.63,1.91-5.4,2.94-1.41.82-4.86.16-5.61-.89-1.28-1.79-2.5-3.62-3.75-5.44-.13-.62-.56-1.03-1.02-1.41l-.08-.13c0-.26-.13-.42-.38-.47-.28-.27-.09-1.24-.95-.61v-.04c.49-.68-.17-.93-.48-1.31-.8-1.2-1.6-2.4-2.45-3.67-.51.66-.38,1.31-.49,1.89-.05.1-.09.2-.14.31-.1.35-.19.71-.29,1.06-.11,1.37-.84,2.52-1.32,3.77-1.29,3.38-.8,6.91-.86,10.39,0,.23-.01.46-.02.7-.07.59-.6,1.07-.39,1.72-.46,1.21-1.29,2.47-.89,3.72.54,1.71.09,2.96-1.02,4.15-.84.32-.54,1.04-.49,1.6.13,1.56.36,3.12.55,4.68-.21,2.08-.2,4.16.16,6.22.02.22.04.44.07.66.04.39.03.8.13,1.18.73,2.88,1.49,5.75,2.2,8.63,1.42,5.77,1.9,11.75,3.68,17.45.25.79.38,1.42,1.46,1.04.5-.17,1.22-.32,1.36.53.11.69-.46.85-.98.93-.94.15-1.02.54-.81,1.5.76,3.46,1.85,6.85,2.29,10.39.47,3.8,1.41,7.51,2.68,11.13.43,2.26,1.32,4.47.97,6.84-.94.93-1.51,2.1-2.15,3.22-.96,1.1-1.92,2.19-2.87,3.29-3.71,2.25-8.04,2.94-11.92,4.77-1.81.85-3.83.64-5.77.7-6.36.22-12.72.31-19.04-.66-1.08-.16-2.16-.27-3.24.04-.26.08-.63.17-.82.06-2.89-1.74-6.11-1.21-9.23-1.35-2.01-.09-4-.34-5.97-.7-2.56-.46-3.23-1.37-3.15-4.01.04-1.43.56-2.82.26-4.27,0-1.72.01-3.44.02-5.17.23-2.79.46-5.58.69-8.37.31-3.2,1.25-6.32,1.11-9.57.65-2.98.84-6.03,1.28-9.03.22-1.51.59-3.03.81-4.55.38-2.68,1.34-5.19,1.94-7.81.05-.45.1-.91.15-1.36.24-.31.27-.67.21-1.04.03-.23.07-.46.1-.68-.11-.99.58-1.76.75-2.69,1.1-6.01,2.27-12.01,3.4-18.01.1-.53.15-.97.77-1.18,1.37-.47,3.33-3.72,3.33-5.4.04-.7-.48-1.02-.96-1.35-.01-.12-.02-.23-.04-.35.37-.33.23-.73.14-1.12,1.31-1.66,1.3-3.49.89-5.48-.68-3.31-1.01-6.66-.79-10.05.02-.35.18-.82-.4-1.03-2.17,1.97-3.75,4.42-5.47,6.76-.4.54-.91,1.45-1.54.68-.63-.79-1.42-.9-2.19-1.15-2.56-.83-4.68-2.35-6.59-4.18-.96-.92-1.43-2.06-1.25-3.41.14-1.08.31-2.15.45-3.22.48-3.76,2.88-6.66,4.48-9.93,2.39-3.48,4.78-6.96,7.18-10.44,2.5-3.67,5.57-6.86,8.61-10.08.12-.09.23-.18.35-.26C24.1-.01,24.68.09,26.79,3.19c.04.05.22,0,.33,0l.04.02c-.05.13-.18.31-.13.4,1.85,3.46,4.75,5.58,8.5,6.6.41.33.87.45,1.39.28.98.18,1.93.05,2.83-.38.21-.07.41-.14.62-.22,1.25.31,1.83-.23,2.48-1.35,1.53-2.6,2.22-5.67,4.45-7.87.68-.3,1.36-.61,2.05-.91.96-.07,1.93-.1,2.88-.21,1.9-.24,3.39.61,4.8,1.73.55.72,1.37,1.45,1.33,2.33-.09,1.72,1.2,2.3,2.26,2.79.71.33,1.04.9,1.62,1.26,0,0,.04.07.04.07.25.23.5.45.74.68.08.08.15.15.23.23.22.72.54,1.38,1.21,1.8ZM73.89,31.36c-.27-.33-.6-.98-.99-.64-.48.41,0,.9.44,1.2.13.09.32.06.49.09,1.28,2.19,3.24,1.35,5.14,1.2-.29-1.11-.71-1.66-1.94-1.31-1.07.31-2.17.07-3.15-.53ZM59.34,127.17c-.17-.9-.34-1.79-.59-3.06-.98,1.6-1.82,2.78-3,3.9.77.16,1.32.28,1.88.39.61.72,1.34,1.26,2.42,1.64-.23-1.09-.2-2.04-.71-2.88ZM62.52,126.22c.2-.77,1.49-1.42.56-2.27-.75-.69-1.84-1-2.92-1.56.03,1.3.4,2.36.7,3.43.2.85.4,1.7.66,2.79.4-.96.7-1.67,1-2.39ZM43.35,102.25c4.01.65,9.17-1.36,14.5-2.02,1.08-.13,1.38-.66,1.02-1.77-.53-1.63-.9-3.32-1.25-5-1.12-5.5-1.81-11.09-3.46-16.47-1.28-4.16-1.82-8.38-1.62-12.72.07-1.42-.07-2.87-.28-4.28-.16-1.09-1.52-1.49-2.3-.73-.55.54-.32,1.31-.24,1.95.63,5.47-.19,10.89-.58,16.31-.37,5.11-1.69,10.15-.69,15.35.36,1.87-.65,2.89-2.48,3.55-3,1.08-6.04.6-9.03.33-2.91-.26-4.54-2.36-4.56-5.27-.02-2.41-.06-4.83.06-7.23.05-.96-.24-1.2-1.12-1.19-1.57.03-3.05-.43-4.52-.94-2.98-1.02-3.85-2.59-3.27-5.65,1.03-5.46,1.98-10.93,2.99-16.39.21-1.13-.19-1.53-1.32-1.55-1.26-.02-2.58-.01-3.74-.41-1.25-.42-1.66.17-2.1,1.03-1.35,2.65-2.5,5.41-4.17,7.9-.21.31-.27.75-.34,1.14-1.27,6.63-2.5,13.27-3.82,19.9-.66,3.31-1.73,6.52-2.14,9.9-.16,1.3.32,1.92,1.31,2.43,2.32,1.19,4.78,1.93,7.35,2.28,1.75.24,3.59-.2,5.23-.05,1.86.18,3.71.23,5.57.3,4.55.16,9.01-1.03,15.03-.69ZM33.91,87.85c.07,0,.15,0,.22.01,0,1.15-.02,2.3,0,3.45.04,2.11.83,3.4,2.89,3.63,2.66.29,5.36.62,8.04-.13,1.19-.33,1.74-.88,1.56-2.17-.5-3.53-.29-7.05.14-10.59.89-7.27,1.96-14.54,1.2-21.91-.06-.62-.28-1.28-.14-1.85.73-2.83.96-5.76,1.07-8.62.26-6.66,1.38-13.21,2.08-19.81.3-2.89,1.03-5.74,1.42-8.63.66-4.83.81-9.7,1.13-14.56.09-1.33.32-2.98,1.72-3.53,1.41-.56.61-.87.08-1.25-1.94-1.42-4.02-.91-6.1-.38-1.63.41-1.25,1.73-1.6,2.89-1.33,4.45-2.69,8.89-3.71,13.42-1.09,4.86-3.01,9.5-3.79,14.45-.96,6.11-2.5,12.15-2.49,18.37.01,6.68-1.32,13.2-2,19.8-.6,5.81-1.17,11.62-1.75,17.43ZM37.75,119.74c3.03-.21,6.06-.13,9.09-.49,4.78-.57,9.49-1.38,14.06-2.93,1.35-.46,1.79-1.25,1.51-2.59-.24-1.12-.46-2.24-.62-3.37-.14-.97-.18-2.3-.88-2.67-.97-.52-2.42-.87-3.38-.74-2.32.31-4.67.38-6.97.86-3.19.66-6.4,1.42-9.67,1.41-10.77-.03-21.58.55-32.23-1.71-.66-.14-1.1-.12-1.2.71-.3,2.5-.64,4.99-.96,7.49-.07.53,0,.99.58,1.3,1.87,1.02,3.72,2,5.98,1.88,1.83-.1,3.74-.41,5.49.12,2.71.83,5.44.73,8.19.73,3.67,0,7.34,0,11.02,0ZM44.3,9.37c-2.71,3.73-4.08,8.09-5.74,12.31-1.44,3.63-2.1,7.5-3.44,11.17-2.81,7.64-5.05,15.45-6.44,23.48-1.07,6.2-2,12.43-3.15,18.62-.85,4.57-.38,5.42,4.21,6.23.34.06.68.09,1.02.12,1.98.14,2.19-.08,2.35-2.14.15-2.05.32-4.11.56-6.15.62-5.23,1.42-10.43,1.91-15.67.56-6.03.48-12.11,1.66-18.1,1.03-5.22,1.67-10.51,3.43-15.57,1.61-4.64,2.51-9.48,3.64-14.29ZM21.59,22.68c0,.34,0,.69,0,1.03.04,2.31.86,3.35,2.95,3.76,1.92.38,3.73-.58,4.48-2.35.61-1.46.05-2.48-1.52-2.74-.45-.07-.95.04-1.36-.11-.78-.28-1.2-.72-.74-1.7.65-1.36,1.48-2.54,2.56-3.59,1.35-1.32,2.7-2.65,3.91-4.09.36-.43,1.61-1.1.61-1.75-1.02-.66-1.92-2.42-3.52-1.31-4.48,3.1-7.31,7.19-7.37,12.85ZM31.48,33.06c-.36-.02-.54-.08-.67-.02-3.44,1.36-6.6,3.42-10.37,3.95-.49.07-1.23.34-1.2,1.22.05,1.49.01,2.98.05,4.47.02.83.48,1.44,1.29,1.6.79.15,1.68.73,2.42-.06,3.15-3.39,6.35-6.74,8.49-11.17ZM32.38,107.84c2.41,0,4.82.01,7.23-.01.41,0,1.05.25,1.18-.36.24-1.15-.25-2.27-.54-3.34-.22-.8-1.19-.38-1.83-.34-4.73.33-9.45,1-14.21.63-.73-.06-1,.25-1.1.95-.24,1.81.2,2.43,2.04,2.47,2.41.05,4.82.01,7.23.01ZM13.76,23.08c0-.95.02-2.27-.01-3.59,0-.27-.16-.55-.29-.8-1.2-2.57-1.67-2.61-3.42-.48-.78.94-1.25,1.75-.17,2.76,2.67,2.5,2.48,5.55,1.66,8.72-.11.41,0,1.03-.58,1.14-.6.12-.69-.48-.91-.85-.45-.75-1.04-1.31-1.96-.95-.78.31-1.64.63-1.57,1.77.06,1-.33,2.15.88,2.74,1.89.93,5.28-.69,5.69-2.78.47-2.4,1.11-4.81.67-7.67ZM26.51,53.71c.69.24,1.03-.12,1.19-.99.26-1.46.64-2.89,1.05-4.32.15-.54.24-.93-.47-.88-2.4.15-4.61-.56-6.83-1.34-1.11-.39-2.09-.39-1.57,1.36.27.92.52,1.93.42,2.86-.22,2.17,1.28,2.57,2.8,2.91,1.05.24,2.15.27,3.41.41ZM8.37,100.88c-.16,1.4-.27,2.58-.43,3.76-.13.95.08,1.5,1.2,1.56,1.13.06,2.25.34,3.38.53,2.65.44,5.31.79,8.01.8,1.68,0,.86-1.26,1.07-1.98.22-.74,0-1.12-.91-1.14-4.3-.1-8.36-1.09-12.32-3.52ZM77.68,35.02c-2.43.57-4.95,1.88-6.6,4.49-.44.69-1.05,1.66-.35,2.37.73.75,1.98.99,2.89.48,2.03-1.15,4.34-1.82,6.1-3.45.78-.72,1.23-1.5.82-2.57-.41-1.1-1.3-1.35-2.87-1.32ZM45.48,103.71c-.92,0-1.55-.03-2.18,0-.66.04-1.86-.27-1.39.95.38.99-.49,3.09,1.73,2.8,3.85-.5,7.63-1.43,11.51-1.77.36-.03.78-.05.89-.6.35-1.7-.9-2.95-2.57-2.6-2.73.57-5.42,1.47-7.98,1.21ZM67.98,19.19c-.2,2.21-.64,4.08-1.07,5.96-.31,1.37-.99,1.88-2.31,1.41-.8-.28-1.47-.13-2.04.45-.99,1.01-1.02,2.13-.2,3.25.67.91,2.49.97,3.6.24,2.09-1.37,2.51-3.65,3.44-5.73,1-2.23.38-3.78-1.41-5.58ZM33.36,14.89c-1.25-.16-2.24.99-2.06,2.38.25,1.96,1.38,3.45,2.66,4.89.95,1.07,1.8.84,2.54.05,1.04-1.1,1.16-2.68,1.74-4.02.06-.13-.12-.45-.28-.58-1.4-1.2-2.9-2.24-4.61-2.72ZM46.62,140.69c4.48-.17,7.89-2.85,12.37-3.5-2.9-1.33-5.1-2.65-6.6-5.08-1.24,3.39-3.29,5.95-5.76,8.58ZM55.43,15.46c0,.71,0,1.38.37,2.02.53.9,1.26,1.26,2.29,1.16.89-.09,1.31-.69,1.55-1.41.35-1.02-.44-1.34-1.15-1.78-1.05-.65-.91-1.62.34-2.14.72-.3,1.56-.33,2.34-.49,1.89-.39,2.2-1.12,1.03-2.7-.51-.69-.88-2.19-2.1-1.44-2.52,1.53-4.39,3.65-4.68,6.78ZM18.36,9.43c-.23.57.05.91.45,1.21,1,.76,1.98,1.56,3.03,2.24.36.23.87.84,1.34.27.48-.6,1.5-1.11,1.22-1.94-.7-2.1-1.22-4.3-2.45-6.2-.3-.46-.53-.67-1.05-.21-1.42,1.26-2.45,2.71-2.54,4.64ZM23.92,124.43c-.61,3.98.28,7.79-.18,12.11,2.13-2.7,4.03-4.84,6.95-6.08-2.67-1.76-4.62-3.92-6.76-6.04ZM32.77,133.77c-.96,3.26-3.49,4.88-6.7,6.33,4.37.75,8.32.56,12.32.54-2.62-1.68-4.48-3.82-5.62-6.88ZM42.66,124.28c-.22,3.97.33,7.47.62,11.35,1.39-2.7,3.31-4.42,5.41-6.17-2.21-1.42-4.38-2.76-6.03-5.18ZM35.72,25.22c-.18-.01-.26-.04-.29-.01-.22.18-.43.37-.64.56-3.83,3.49-7.76,6.8-13.05,7.88-.73.15-1.43.42-2.13.69-.53.21-.55.72-.46,1.17.07.35.39.34.68.2,1.96-.94,4.14-1.18,6.12-2.17,2.51-1.26,4.78-2.95,7.26-4.15,2.08-1.01,2.16-2.47,2.5-4.18ZM61.31,17.59c-.36.85-.72,1.55-1.42,2-.49.31-.68.73-.53,1.31.35,1.39.81,2.7,1.82,3.79.93,1,1.81-.2,2.71.04,1.12.29,1.07-.46.96-1.18-.37-2.38-1.32-4.43-3.54-5.96ZM50.37,52.76c-.48,1.5.26,1.63,1.58,1.3.94-.24,1.5-.71,1.73-1.64.28-1.11.62-2.19.93-3.29.78-2.81.39-3.22-2.37-2.49-.75.2-1.66.27-1.51,1.44.2,1.55-.43,3.04-.36,4.68ZM37.99,121.66c-3.21-.23-6.36-.26-9.61.17,1.68,1.73,3.36,3.22,4.55,5.25,1.49-2.02,3.08-3.85,5.05-5.41ZM19.2,121.11c-3.3-.97-6.52.12-9.87-.8,1.65,2.23,3.52,4.02,3.86,7.21,1.52-2.95,3.38-4.9,6.01-6.41ZM18.35,16.2c0,.52-.05.99,0,1.43.49,3.51.82,7,.33,10.55-.17,1.21.2,2.49.34,3.74.04.34.08.75.55.71.32-.03.9-.07.82-.43-.38-1.74.82-3.53.22-5.07-1.04-2.69-.98-5.3-.22-7.91.56-1.92-.02-2.75-2.05-3.03ZM54.8,129.67c-.97-.23-1.19.25-.78,1.22,1.13,2.67,3.41,3.83,6,4.6,1.19.35,1.09-.21.84-1.05-.68-2.3-3.45-4.57-6.06-4.77ZM68.82,39.79c1.39-2.67,1.76-3.08,3.93-4.57.35-.24,1.02-.27.95-.84-.07-.61-.64-.97-1.17-1.16-1.14-.41-2.26-.28-3.28.42-2.46,1.7-2.61,3.45-.44,6.14ZM41.19,136.43c.26-3.15-.43-6.16-.28-9.2.03-.65-.44-.9-.78-.32-1.15,1.92-2.74,3.21-5.02,3.86,2.72,1.24,4.46,3.36,6.09,5.66ZM24.05,45.1c1.34.82,2.27.94,3.17-.42.65-.98,1.66-1.72,2.52-2.56,1.18-1.15,2.72-5.51,2.39-7.02-2.14,3.79-5.04,6.85-8.08,10ZM18.39,138.86c-2.25-1.23-4.54-2.37-5.84-4.97-1,2.24-3.05,3.02-4.88,4.41,3.75.65,7.21.52,10.71.56ZM20.3,137.46c.21-2.54-3.43-6.56-5.64-6.65-.88-.03-.66.56-.61,1.06.24,2.2,3.16,5.28,5.37,5.61.31.05.85.24.87-.03ZM10.21,42.3c-.67-1.54-1.5-2.85-1.77-4.26-.35-1.83-1.24-3.01-2.86-3.77-.31-.14-.59-.47-.91-.23-.41.32-.19.71.06,1.04.79,1.03,1.37,2.2,1.01,3.49-.48,1.71.23,2.54,1.77,2.98.8.23,1.52.76,2.7.76ZM53.38,125.76c.05.39-.44,1,.24,1.29.5.22.82-.27,1.18-.52,1.7-1.22,2.44-3.12,3.34-4.88.29-.57.3-1.42-.42-1.85-.77-.46-1.5-.12-1.96.53-1.14,1.62-2.44,3.19-2.39,5.43ZM44.75,137.72c.1.43-.37,1.07.24,1.35.53.24.96-.26,1.32-.61,1.8-1.72,3.07-3.83,4.24-5.99.23-.42.24-.99.26-1.5.02-.5-.17-.7-.75-.48-2.18.82-5.19,4.84-5.32,7.22ZM29.6,28.19c1.28-1.08,2.57-2.16,3.83-3.25.34-.29.69-.54.07-1.04-1.92-1.57-3.19-3.61-3.84-6.28-.78,1.19-1.8,1.87-2.11,3.09,2.27.37,3.26,1.21,3.44,2.82.2,1.75-.91,3.05-1.39,4.67ZM15.82,129.38c3.09,1.04,4.74,3.04,5.84,5.54v-9.72c-1.5,2.17-3.08,3.56-5.84,4.18ZM53.74,120.3c-3.25.4-6.29.77-9.33,1.14,2.75.61,5.31,1.46,7.13,4.32.39-2.23,1.31-3.73,2.2-5.46ZM31.42,131.76c-3.16,1.33-5.21,3.55-6.7,6.39-.1.19-.21.44.03.62.27.21.54.05.8-.07,1.89-.88,3.63-1.93,4.97-3.58.78-.95,1.05-1.96.9-3.35ZM17.2,17.61c0-1.31-.69-2.33-1.1-3.43-.59-1.56-1.73-.6-2.39-.31-.71.32-1.49,1.06-.51,2.16.76.86,1.59,1.79,1.73,3.04.06.54.45.55.71.4.73-.45,1.81-.67,1.57-1.86ZM66.12,21.48c0-1,.04-2,0-3-.14-3.25-2.57-4.93-5.63-3.79,1.96,2.18,4.75,3.69,5.64,6.79ZM51.87,37.35c2.46-2.56,4.12-5.33,5.76-8.12.71-1.21.59-2.01-.56-2.85-.71,2.98-2.48,5.27-4.17,7.56-.72.98-1,1.97-1.03,3.41ZM6.02,124.03c-.14.06-.27.13-.41.19v8.88c1.47-1.55,2.88-2.87,4.82-3.84-2.15-1.2-3.85-2.73-4.41-5.22ZM54.43,18.28c-.16,1.62.38,2.75,1.2,3.54,1.61,1.56,3.03,3.24,4.13,5.2.15.26.48.86.88.26.19-.29.56-.73,0-1.19-1.56-1.24-2.11-3.05-2.6-4.87-.11-.41.02-.93-.69-.96-1.19-.05-1.92-.9-2.91-1.98ZM35.03,128.94c1.75.06,5.39-3.72,5.34-5.58-.02-.78-.37-.66-.87-.39-2.17,1.15-3.76,2.91-5.1,4.91-.4.59-.36,1.11.63,1.07ZM52.5,31.11c1.45-1.18,2.31-2.61,2.89-4.23.9-2.53.93-2.52-1.41-4.1-.49,2.78-.99,5.55-1.48,8.32ZM40.48,139.43c-.4-2.43-3.72-6.08-6.09-6.7,1.01,3.17,2.93,5.52,6.09,6.7ZM25.14,56.86c.69-.27,1.91.51,1.99-.7.08-1.24-1.21-.93-1.96-1.03-1.42-.19-2.83-.44-4.15-.98-.65-.27-1.34-.83-1.78-.03-.43.79.25,1.37.93,1.74,1.55.85,3.29.82,4.97,1ZM43.91,123.4c2.34,3.36,4.76,4.81,6.91,4.21-1.45-2.7-3.72-4.05-6.91-4.21ZM12.08,130.33c-2.03.62-3.29,1.96-4.55,3.21-.71.7-1.79,1.96-1.04,2.77.72.77,1.9-.36,2.62-.99,1.45-1.27,2.95-2.6,2.97-4.99ZM7.41,120.49c-.23,4.06,1.11,6.29,3.93,6.91-.14-2.91-2.54-4.41-3.93-6.91ZM31.51,128.67c-1.36-2.96-3.43-5.22-6.55-6.44,1.53,2.8,3.96,4.69,6.55,6.44ZM27.69,29.27c-1.58-.06-2.84.12-4.09-.21-1.96-.52-2.03-.39-2.09,1.75-.03,1.07.4,1.11,1.23.9,1.72-.43,3.31-1.11,4.95-2.44ZM20.78,123.24c.07-.69-.28-.78-.83-.55-1.97.82-3.3,2.36-4.43,4.08-.21.33-.41.92.38.98,1.56.12,4.88-2.95,4.88-4.51ZM3.39,29.87c.73.23,1.4.41,1.78-.45.85-1.93,2.35-2.53,4.34-2.12.45.09.79.09.82-.51.03-.57-.28-.65-.74-.65-1.21,0-2.41-.02-3.62-.02-.34,0-.69.02-.87.4-.54,1.12-1.48,2.03-1.71,3.35ZM56.87,102.86c.38.73-.11,2.11,1,2.13.74.01,2.28-.02,2.2-1.53-.04-.73.11-1.94-1.03-1.89-.74.03-2.06-.22-2.17,1.28ZM69.84,28.02c-.49,1.1-1.09,2.13-2,2.92-.48.41-.56.83-.19,1.3.48.62.75-.1,1.11-.22.59-.2,1.15-.47,1.74-.65.33-.1.76-.09.68-.55-.17-1.02,0-2.22-1.34-2.79ZM25.94,10.44c.6-1.25-.1-2.04-.21-2.91-.19-1.51-.6-2.99-.89-4.49-.15-.76-.67-.67-1.17-.52-.64.18-.81.59-.41,1.16,1.37,1.94,1.75,4.29,2.69,6.76ZM13.42,39.01c.64-.71,1.18-1.3,1.7-1.89.23-.26.5-.52.14-.87-.78-.75-1.6-1.48-2.64-1.83-.43-.15-1.04-.11-.73.62.53,1.25.6,2.67,1.53,3.96ZM12.44,40.37c-.87-1.37-1.09-2.98-1.7-4.45-.18-.44-.29-.9-.93-.68-.71.24-.6.78-.42,1.26.56,1.43,1.16,2.84,1.77,4.26.1.24.19.6.56.52.45-.1.47-.59.72-.91ZM2.25,34.41c-.71,2.13-.46,3.82,1.74,4.73.53-1.93.14-3.02-1.74-4.73ZM64.28,126.51c-1.53,1.73-2.2,3.65-1.32,5.91.87-1.86,1.35-3.82,1.32-5.91ZM55.12,39.7c.07-.4-.05-.75-.5-.62-.98.27-2.01.49-2.86,1-.52.32-.75,1.29-.11,1.73.84.58,3.47-1.11,3.47-2.11ZM18.14,12.06c-.92,1.11-.36,1.79.67,2.33.66.35,1.32.67,1.98,1.01.35.18.65.5.94-.13.19-.42.3-.59-.22-.9-1.17-.69-2.25-1.53-3.36-2.31ZM15.26,25.84c.7.58-.84,2.07,1.03,2,1.73-.07.77-1.54,1.06-2.33.3-.84-.05-1.59-1.14-1.55-1.62.06-.19,1.39-.94,1.88ZM51.9,45.1c.68-.13,1.52-.27,2.36-.46.79-.19.61-.87.58-1.41-.05-.78-.64-.49-1.03-.41-.72.14-1.42.4-2.15.54-.88.17-.58.86-.64,1.36-.06.52.37.44.88.39ZM17.36,32.72c-.11-1.53.48-2.79-.91-3.38-.45-.19-1.35-.55-1.58.59-.43,2.04,1.53,1.58,2.5,2.79ZM38.32,13.64c-.01.92.38,1.81.91,1.6,1.2-.48,1.15-1.95,1.67-2.98.2-.4-.16-.64-.56-.56-1.2.22-1.91.93-2.02,1.94ZM76.78,30.48c.15-.19.3-.39.44-.58-.92-.74-1.84-1.49-2.77-2.22-.17-.13-.39-.32-.56-.29-.37.06-.28.41-.3.68-.11,1.65,1.22,2.66,3.19,2.41ZM53.46,56.07c0-.53-.38-.7-.8-.64-.96.12-2.09-.07-2.63,1-.17.33-.46.88-.04,1.26.37.33.72-.08,1.08-.19.48-.15.98-.25,1.47-.37.56-.13.89-.47.91-1.06ZM63.45,32.38c.97,1.31,1.63,2.2,2.32,3.13.92-.9,1.17-1.8.43-2.78-.72-.95-1.51.03-2.75-.35ZM60.5,120.04c.79,1.5,1.91,2.16,3.32,2.32.38.04.41-.39.28-.63-.71-1.34-1.82-1.93-3.61-1.69ZM72.04,27.7c1.53-1.63.08-2.57-.79-3.7-.99,1.57-1.08,2.86.79,3.7ZM13.66,33.26c.09.12.16.29.29.38.74.52,1.59.89,2.1,1.72.14.23.44.17.54-.08.14-.34.77-.54.46-.99-.57-.82-1.51-1.18-2.37-1.64-.34-.18-.67-.05-.89.27-.06.08-.08.2-.13.33ZM37.19,15.05c-.81-1.14.78-2.12-.36-2.67-1.02-.49-2.18-.17-2.73,1.2,1,.24,1.83.74,3.09,1.46ZM59.42,7.65c-.93-.78-1.68-1.41-2.79-2.34.32,1.49.54,2.49.76,3.49.88-.07,1.22-.8,2.03-1.14ZM54.83,11.68c1.75-1.56.99-3.28.38-4.99-.13,1.66-.26,3.33-.38,4.99ZM16.45,22.54c.65.23,1.13.11.94-.75-.09-.39.44-1.27-.5-1.07-.69.15-1.62.26-1.84,1.24-.11.48-.08.49,1.41.57ZM53.35,37.77c2.52-.2,2.75-.49,2.26-2.75-.73.89-1.4,1.7-2.26,2.75ZM10.65,24.69c-2.28-1.28-3.67-1.21-4.35,0h4.35ZM4.86,32.03c.03-.92-.61-.68-1.07-.7-.58-.03-1.27-.28-1.4.69-.13.95.75.83,1.11.87.55.07,1.24-.13,1.36-.86ZM27.78,45.61c1.99.47,1.87-.74,2.19-1.83-1.03.33-1.25,1.2-2.19,1.83ZM44.68,8.74c.04-.09.09-.18.12-.28,0-.02-.08-.07-.12-.1-.04.09-.09.18-.12.28,0,.02.08.07.12.11Z"/>
  <path class="cls-1" d="M43.35,102.25c-6.03-.34-10.49.85-15.03.69-1.86-.07-3.71-.13-5.57-.3-1.64-.15-3.47.29-5.23.05-2.57-.35-5.03-1.09-7.35-2.28-.99-.51-1.46-1.13-1.31-2.43.41-3.38,1.48-6.59,2.14-9.9,1.33-6.62,2.55-13.26,3.82-19.9.07-.39.13-.83.34-1.14,1.68-2.48,2.82-5.25,4.17-7.9.44-.86.85-1.45,2.1-1.03,1.16.39,2.49.38,3.74.41,1.13.02,1.53.42,1.32,1.55-1.01,5.46-1.96,10.94-2.99,16.39-.58,3.06.29,4.62,3.27,5.65,1.47.51,2.95.96,4.52.94.88-.01,1.16.22,1.12,1.19-.11,2.41-.08,4.82-.06,7.23.02,2.91,1.65,5.01,4.56,5.27,2.99.27,6.04.75,9.03-.33,1.83-.66,2.84-1.67,2.48-3.55-1-5.19.32-10.23.69-15.35.39-5.42,1.2-10.84.58-16.31-.07-.64-.31-1.4.24-1.95.77-.76,2.14-.36,2.3.73.2,1.41.34,2.86.28,4.28-.2,4.34.34,8.56,1.62,12.72,1.65,5.38,2.34,10.97,3.46,16.47.34,1.68.72,3.37,1.25,5,.36,1.11.07,1.63-1.02,1.77-5.32.66-10.48,2.67-14.5,2.02Z"/>
  <path class="cls-3" d="M33.91,87.85c.58-5.81,1.15-11.62,1.75-17.43.68-6.6,2.01-13.12,2-19.8,0-6.21,1.53-12.26,2.49-18.37.78-4.95,2.7-9.59,3.79-14.45,1.02-4.54,2.38-8.97,3.71-13.42.35-1.16-.03-2.47,1.6-2.89,2.08-.53,4.16-1.04,6.1.38.52.38,1.33.69-.08,1.25-1.4.55-1.63,2.2-1.72,3.53-.32,4.86-.48,9.73-1.13,14.56-.39,2.89-1.12,5.74-1.42,8.63-.69,6.6-1.81,13.15-2.08,19.81-.11,2.86-.35,5.79-1.07,8.62-.15.57.07,1.23.14,1.85.75,7.37-.32,14.64-1.2,21.91-.43,3.54-.64,7.06-.14,10.59.18,1.29-.37,1.84-1.56,2.17-2.68.75-5.39.42-8.04.13-2.06-.22-2.85-1.51-2.89-3.63-.02-1.15,0-2.3,0-3.45-.07,0-.15,0-.22-.01Z"/>
  <path class="cls-1" d="M37.75,119.74c-3.67,0-7.34,0-11.02,0-2.75,0-5.48.1-8.19-.73-1.75-.54-3.66-.22-5.49-.12-2.26.12-4.11-.86-5.98-1.88-.58-.31-.64-.77-.58-1.3.31-2.5.66-4.99.96-7.49.1-.83.55-.85,1.2-.71,10.65,2.27,21.46,1.69,32.23,1.71,3.27,0,6.48-.76,9.67-1.41,2.31-.48,4.66-.55,6.97-.86.96-.13,2.41.22,3.38.74.7.38.74,1.7.88,2.67.16,1.13.38,2.25.62,3.37.29,1.34-.16,2.13-1.51,2.59-4.57,1.56-9.28,2.36-14.06,2.93-3.03.36-6.06.27-9.09.49Z"/>
  <path class="cls-3" d="M44.3,9.37c-1.14,4.81-2.03,9.65-3.64,14.29-1.76,5.06-2.4,10.35-3.43,15.57-1.18,5.99-1.09,12.07-1.66,18.1-.49,5.24-1.28,10.45-1.91,15.67-.24,2.04-.41,4.1-.56,6.15-.15,2.06-.36,2.28-2.35,2.14-.34-.02-.69-.06-1.02-.12-4.59-.81-5.06-1.66-4.21-6.23,1.15-6.19,2.07-12.42,3.15-18.62,1.39-8.03,3.64-15.84,6.44-23.48,1.35-3.67,2.01-7.54,3.44-11.17,1.67-4.22,3.03-8.58,5.74-12.31Z"/>
  <path class="cls-3" d="M21.59,22.68c.06-5.66,2.89-9.75,7.37-12.85,1.6-1.11,2.5.65,3.52,1.31,1,.65-.24,1.32-.61,1.75-1.21,1.44-2.56,2.77-3.91,4.09-1.08,1.05-1.91,2.23-2.56,3.59-.47.98-.05,1.42.74,1.7.41.15.91.04,1.36.11,1.57.26,2.13,1.28,1.52,2.74-.74,1.77-2.56,2.73-4.48,2.35-2.09-.41-2.91-1.45-2.95-3.76,0-.34,0-.69,0-1.03Z"/>
  <path class="cls-2" d="M32.38,107.84c-2.41,0-4.82.04-7.23-.01-1.84-.04-2.28-.66-2.04-2.47.09-.7.36-1,1.1-.95,4.76.37,9.47-.3,14.21-.63.63-.04,1.61-.46,1.83.34.29,1.07.79,2.19.54,3.34-.13.61-.76.36-1.18.36-2.41.02-4.82.01-7.23.01Z"/>
  <path class="cls-3" d="M13.76,23.08c.43,2.86-.2,5.26-.67,7.67-.41,2.09-3.81,3.71-5.69,2.78-1.21-.59-.82-1.74-.88-2.74-.07-1.13.79-1.46,1.57-1.77.92-.36,1.51.2,1.96.95.22.37.3.98.91.85.58-.12.47-.73.58-1.14.82-3.16,1.01-6.22-1.66-8.72-1.08-1.01-.61-1.82.17-2.76,1.75-2.12,2.22-2.09,3.42.48.12.26.28.53.29.8.03,1.32.01,2.64.01,3.59Z"/>
  <path class="cls-1" d="M26.51,53.71c-1.26-.14-2.36-.17-3.41-.41-1.52-.35-3.02-.74-2.8-2.91.09-.93-.15-1.94-.42-2.86-.52-1.75.47-1.75,1.57-1.36,2.22.79,4.43,1.49,6.83,1.34.71-.05.63.34.47.88-.41,1.42-.79,2.86-1.05,4.32-.16.88-.5,1.23-1.19.99Z"/>
  <path class="cls-2" d="M8.37,100.88c3.96,2.42,8.02,3.42,12.32,3.52.91.02,1.13.4.91,1.14-.21.72.61,1.98-1.07,1.98-2.7,0-5.36-.35-8.01-.8-1.12-.19-2.24-.46-3.38-.53-1.12-.06-1.33-.61-1.2-1.56.16-1.18.27-2.36.43-3.76Z"/>
  <path class="cls-2" d="M45.48,103.71c2.57.26,5.25-.64,7.98-1.21,1.68-.35,2.92.9,2.57,2.6-.11.55-.53.57-.89.6-3.88.34-7.66,1.27-11.51,1.77-2.22.29-1.35-1.81-1.73-2.8-.46-1.22.73-.91,1.39-.95.63-.04,1.26,0,2.18,0Z"/>
  <path class="cls-3" d="M67.98,19.19c1.79,1.81,2.41,3.36,1.41,5.58-.93,2.08-1.34,4.36-3.44,5.73-1.11.72-2.92.67-3.6-.24-.82-1.11-.79-2.23.2-3.25.57-.58,1.24-.73,2.04-.45,1.32.47,2-.04,2.31-1.41.43-1.88.87-3.75,1.07-5.96Z"/>
  <path class="cls-3" d="M55.43,15.46c.29-3.12,2.16-5.25,4.68-6.78,1.22-.74,1.59.75,2.1,1.44,1.17,1.57.86,2.3-1.03,2.7-.78.16-1.62.19-2.34.49-1.25.52-1.39,1.49-.34,2.14.71.44,1.51.76,1.15,1.78-.24.71-.67,1.32-1.55,1.41-1.03.11-1.77-.25-2.29-1.16-.37-.64-.36-1.31-.37-2.02Z"/>
  <path class="cls-2" d="M35.72,25.22c-.34,1.7-.42,3.16-2.5,4.18-2.48,1.2-4.75,2.89-7.26,4.15-1.98.99-4.16,1.23-6.12,2.17-.3.14-.61.15-.68-.2-.09-.45-.07-.97.46-1.17.69-.27,1.4-.54,2.13-.69,5.29-1.08,9.22-4.39,13.05-7.88.21-.19.42-.38.64-.56.03-.03.11,0,.29.01Z"/>
  <path class="cls-1" d="M50.37,52.76c-.07-1.64.56-3.13.36-4.68-.15-1.17.76-1.24,1.51-1.44,2.76-.73,3.15-.32,2.37,2.49-.3,1.1-.65,2.19-.93,3.29-.24.93-.79,1.41-1.73,1.64-1.32.33-2.06.2-1.58-1.3Z"/>
  <path class="cls-2" d="M54.8,129.67c2.61.2,5.39,2.48,6.06,4.77.25.84.34,1.4-.84,1.05-2.59-.77-4.87-1.93-6-4.6-.41-.98-.19-1.45.78-1.22Z"/>
  <path class="cls-2" d="M24.05,45.1c3.05-3.15,5.94-6.22,8.08-10,.33,1.51-1.22,5.87-2.39,7.02-.86.84-1.87,1.58-2.52,2.56-.9,1.37-1.83,1.25-3.17.42Z"/>
  <path class="cls-2" d="M20.3,137.46c-.03.27-.56.07-.87.03-2.2-.33-5.13-3.41-5.37-5.61-.05-.5-.28-1.09.61-1.06,2.21.08,5.85,4.1,5.64,6.65Z"/>
  <path class="cls-3" d="M53.38,125.76c-.06-2.24,1.25-3.81,2.39-5.43.45-.65,1.19-.99,1.96-.53.72.43.71,1.29.42,1.85-.9,1.76-1.65,3.66-3.34,4.88-.36.26-.68.74-1.18.52-.69-.3-.19-.91-.24-1.29Z"/>
  <path class="cls-3" d="M44.75,137.72c.13-2.38,3.14-6.4,5.32-7.22.58-.22.77-.02.75.48-.02.51-.03,1.07-.26,1.5-1.17,2.16-2.44,4.27-4.24,5.99-.36.35-.79.85-1.32.61-.61-.28-.14-.92-.24-1.35Z"/>
  <path class="cls-2" d="M53.74,120.3c-.89,1.73-1.81,3.23-2.2,5.46-1.82-2.86-4.38-3.7-7.13-4.32,3.04-.37,6.08-.74,9.33-1.14Z"/>
  <path class="cls-3" d="M31.42,131.76c.15,1.4-.12,2.4-.9,3.35-1.35,1.65-3.09,2.7-4.97,3.58-.26.12-.53.28-.8.07-.24-.18-.13-.42-.03-.62,1.49-2.83,3.54-5.06,6.7-6.39Z"/>
  <path class="cls-2" d="M51.87,37.35c.03-1.45.3-2.43,1.03-3.41,1.7-2.3,3.47-4.58,4.17-7.56,1.15.84,1.27,1.64.56,2.85-1.64,2.8-3.3,5.56-5.76,8.12Z"/>
  <path class="cls-3" d="M35.03,128.94c-.99.04-1.03-.48-.63-1.07,1.34-2,2.93-3.76,5.1-4.91.5-.26.85-.38.87.39.06,1.87-3.59,5.64-5.34,5.58Z"/>
  <path class="cls-2" d="M40.48,139.43c-3.16-1.18-5.08-3.53-6.09-6.7,2.37.62,5.69,4.27,6.09,6.7Z"/>
  <path class="cls-3" d="M25.14,56.86c-1.68-.18-3.41-.15-4.97-1-.68-.37-1.36-.95-.93-1.74.44-.8,1.13-.24,1.78.03,1.32.54,2.73.78,4.15.98.75.1,2.04-.21,1.96,1.03-.08,1.21-1.3.43-1.99.7Z"/>
  <path class="cls-2" d="M43.91,123.4c3.19.16,5.46,1.5,6.91,4.21-2.15.6-4.57-.85-6.91-4.21Z"/>
  <path class="cls-3" d="M12.08,130.33c-.02,2.39-1.52,3.72-2.97,4.99-.72.63-1.9,1.76-2.62.99-.76-.81.33-2.07,1.04-2.77,1.26-1.25,2.53-2.6,4.55-3.21Z"/>
  <path class="cls-2" d="M7.41,120.49c1.38,2.51,3.79,4.01,3.93,6.91-2.82-.62-4.16-2.86-3.93-6.91Z"/>
  <path class="cls-2" d="M31.51,128.67c-2.59-1.75-5.02-3.64-6.55-6.44,3.12,1.21,5.19,3.47,6.55,6.44Z"/>
  <path class="cls-3" d="M20.78,123.24c0,1.56-3.32,4.63-4.88,4.51-.79-.06-.59-.66-.38-.98,1.13-1.72,2.46-3.26,4.43-4.08.55-.23.9-.14.83.55Z"/>
  <path class="cls-2" d="M56.87,102.86c.11-1.5,1.43-1.25,2.17-1.28,1.15-.05,1,1.16,1.03,1.89.08,1.51-1.47,1.54-2.2,1.53-1.11-.02-.62-1.41-1-2.13Z"/>
  <path class="cls-2" d="M25.94,10.44c-.94-2.47-1.32-4.82-2.69-6.76-.4-.57-.22-.97.41-1.16.51-.14,1.03-.24,1.17.52.29,1.5.7,2.98.89,4.49.11.86.81,1.66.21,2.91Z"/>
  <path class="cls-2" d="M12.44,40.37c-.25.32-.27.81-.72.91-.38.08-.46-.28-.56-.52-.6-1.41-1.21-2.83-1.77-4.26-.19-.48-.3-1.02.42-1.26.65-.22.76.24.93.68.6,1.47.82,3.09,1.7,4.45Z"/>
  <path class="cls-3" d="M64.28,126.51c.03,2.08-.44,4.04-1.32,5.91-.88-2.26-.22-4.18,1.32-5.91Z"/>
  <path class="cls-2" d="M55.12,39.71c0,1.01-2.62,2.69-3.47,2.11-.64-.44-.42-1.42.11-1.73.85-.51,1.88-.73,2.86-1,.46-.13.57.22.5.62Z"/>
  <path class="cls-2" d="M18.14,12.06c1.12.78,2.2,1.62,3.36,2.31.52.31.41.48.22.9-.28.63-.59.31-.94.13-.66-.34-1.33-.67-1.98-1.01-1.03-.54-1.58-1.22-.67-2.33Z"/>
  <path class="cls-1" d="M60.86,125.81c-.3-1.07-.67-2.13-.7-3.43,1.08.55,2.17.87,2.92,1.56.93.85-.36,1.5-.56,2.27-.47-.47-1.14-.12-1.66-.4Z"/>
  <path class="cls-2" d="M57.63,128.41c-.55-.12-1.11-.23-1.88-.39,1.18-1.12,2.02-2.3,3-3.9.24,1.27.42,2.16.59,3.06-.48.54-1.91-.24-1.71,1.24Z"/>
  <path class="cls-2" d="M73.89,31.36c.98.6,2.07.84,3.15.53,1.23-.36,1.65.19,1.94,1.31-1.91.15-3.86,1-5.14-1.2.02-.21.04-.43.06-.64Z"/>
  <path class="cls-3" d="M38.32,13.64c.11-1.02.82-1.72,2.02-1.94.4-.07.76.16.56.56-.52,1.03-.47,2.5-1.67,2.98-.53.21-.92-.68-.91-1.6Z"/>
  <path class="cls-2" d="M76.78,30.48c-1.97.25-3.3-.76-3.19-2.41.02-.28-.07-.63.3-.68.17-.03.39.16.56.29.93.73,1.85,1.48,2.77,2.22-.15.19-.3.39-.44.58Z"/>
  <path class="cls-3" d="M53.46,56.08c-.03.59-.35.93-.91,1.06-.49.12-.99.22-1.47.37-.36.11-.72.51-1.08.19-.42-.37-.13-.93.04-1.26.54-1.07,1.68-.88,2.63-1,.42-.05.79.11.8.65Z"/>
  <path class="cls-2" d="M63.45,32.38c1.23.38,2.03-.6,2.75.35.75.98.5,1.88-.43,2.78-.69-.93-1.34-1.82-2.32-3.13Z"/>
  <path class="cls-2" d="M60.5,120.04c1.79-.25,2.9.35,3.61,1.69.13.24.09.68-.28.63-1.42-.17-2.53-.82-3.32-2.32Z"/>
  <path class="cls-2" d="M13.66,33.26c.05-.14.07-.25.13-.33.22-.32.55-.45.89-.27.85.45,1.79.81,2.37,1.64.31.45-.31.65-.46.99-.11.25-.4.31-.54.08-.5-.83-1.35-1.2-2.1-1.72-.13-.09-.2-.26-.29-.38Z"/>
  <path class="cls-2" d="M59.42,7.65c-.81.34-1.15,1.07-2.03,1.14-.22-1-.43-2-.76-3.49,1.11.93,1.86,1.56,2.79,2.34Z"/>
  <path class="cls-2" d="M54.83,11.68c.13-1.66.26-3.33.38-4.99.61,1.71,1.37,3.43-.38,4.99Z"/>
  <path class="cls-1" d="M57.63,128.41c-.2-1.48,1.23-.7,1.71-1.24.51.84.48,1.79.71,2.88-1.08-.38-1.81-.92-2.42-1.64Z"/>
  <path class="cls-2" d="M16.45,22.54c-1.49-.09-1.52-.1-1.41-.57.22-.97,1.15-1.09,1.84-1.24.94-.21.42.68.5,1.07.19.86-.29.97-.94.75Z"/>
  <path class="cls-2" d="M10.65,24.69h-4.35c.68-1.21,2.07-1.28,4.35,0Z"/>
  <path class="cls-2" d="M4.86,32.03c-.12.73-.81.93-1.36.86-.36-.04-1.24.08-1.11-.87.13-.97.82-.72,1.4-.69.46.02,1.1-.22,1.07.7Z"/>
  <path class="cls-2" d="M60.86,125.81c.52.29,1.19-.07,1.66.4-.3.71-.6,1.43-1,2.39-.26-1.1-.46-1.95-.66-2.79Z"/>
  <path class="cls-1" d="M27.78,45.61c.95-.62,1.16-1.5,2.19-1.83-.32,1.09-.2,2.29-2.19,1.83Z"/>
  <path class="cls-1" d="M15.52,54.43c-.2-.27-.78-.67.09-.67.58,0,1.13.48,1.77.22.08.39.23.79-.14,1.12-.57-.22-1.14-.44-1.71-.66Z"/>
  <path class="cls-1" d="M73.89,31.36c-.02.21-.04.43-.06.64-.17-.03-.36,0-.49-.09-.43-.29-.92-.79-.44-1.2.39-.34.71.32.99.64Z"/>
  <path class="cls-3" d="M44.68,8.74s-.12-.08-.12-.11c.02-.1.08-.19.12-.28.04.04.12.08.12.1-.02.1-.08.19-.12.28Z"/>
  <path class="cls-4" d="M52.34,134.82c.73.2.79.91.95,1.46.16.55-.14,1.06-.73,1.15-.68.11-.86-.43-.91-.98-.07-.65-.02-1.26.7-1.64Z"/>
  <path class="cls-4" d="M27.07,130.36c-.18.47-.31,1.04-.98.93-.5-.08-1.04-.29-1.05-.91-.02-.72.59-.73,1.09-.75.47-.01.91.1.94.73Z"/>
  <path class="cls-4" d="M33.12,138.91c-.09.44-.08.97-.69,1-.75.03-.9-.58-.99-1.12-.09-.6.28-1.01.87-.97.62.04.75.58.81,1.1Z"/>
  <path class="cls-4" d="M46.04,130.08c0,.58-.34.82-.85.86-.49.05-.98-.02-1.01-.64-.03-.6.33-.98.92-1.03.54-.05.84.29.95.8Z"/>
  <path class="cls-4" d="M32.04,123.68c0-.37-.13-.9.46-.87.61.04,1.02.44,1.02,1.12,0,.51-.18.9-.76.88-.75-.03-.61-.66-.71-1.12Z"/>
  <path class="cls-4" d="M13.49,122.3c.8-.09,1.05.29,1.07.89.02.56-.11,1.08-.8,1.06-.56-.02-.96-.32-1-.95-.04-.61.18-1,.73-1Z"/>
  <path class="cls-4" d="M38.3,132.08c-.56.11-.9-.55-.95-1.21-.06-.78.72-.54,1.15-.58.68-.06,1.54-.05,1.57.85.02.79-.79.81-1.77.93Z"/>
  <path class="cls-4" d="M13.46,137.45c0,.43-.11.79-.64.76-.56-.02-.74-.4-.77-.9-.02-.41.19-.65.57-.67.51-.02.84.23.83.8Z"/>
  <path class="cls-4" d="M19.09,129.83c.11-.53.49-.61.91-.58.49.03.73.39.74.8,0,.37-.28.62-.69.58-.5-.05-.87-.27-.96-.8Z"/>
  <path class="cls-4" d="M7.88,128.93c-.08.61-.51.9-1.05.87-.41-.02-1-.1-.88-.75.09-.51.37-.98,1.01-.95.5.03.84.29.93.83Z"/>
</svg>