<?xml version="1.0" encoding="UTF-8"?>
<svg id="Layer_1" xmlns="http://www.w3.org/2000/svg" viewBox="0 0 69.65 121.36">
  <defs>
    <style>
      .cls-1 {
        fill: #7fa290;
      }

      .cls-2 {
        fill: #e9b5c4;
      }

      .cls-3 {
        fill: #66515a;
      }

      .cls-4 {
        fill: #150f11;
      }
    </style>
  </defs>
  <path class="cls-4" d="M24.35,97.09c-.55,6.31-1.74,12.53-2.49,18.82-.2,1.67-1.23,2.65-2.78,3.13-1.14.35-2.29.69-3.43,1.03-2.28.27-4.56.35-6.83-.13-2.23-.47-2.81-1.44-2.86-3.73-.04-1.97.8-3.72.91-5.63,1.02-4.05,1.08-8.25,2.04-12.31.09-.49.18-.99.27-1.48.65-3.22,1.54-6.4,1.76-9.7.7-2.35,1.34-4.72,2.12-7.04.35-1.03,0-1.18-.9-1.19-1.72-.03-3.37-.22-4.92-1.22-1.24-.79-1.35-1.64-.92-2.81,1.34-3.61,2.22-7.35,3.31-11.03.66-2.25.99-4.63,1.91-6.76,1.08-2.49,2.47-4.62,2.22-7.71-.15-1.88-.45-3.89-.33-5.84.04-.71-.4-.75-.9-.54-1.97.78-4.05.73-6.11.86-.63-.04-1.26-.06-1.89-.13-2.86-.32-4.88-2.46-4.47-5.02.46-2.94,1.11-5.89,2.79-8.42,1.94-2.94,3.41-6.09,4.71-9.34.61-1.54,1.26-3.06,2.17-4.45,1.76-2.38,3.98-4.19,6.6-5.59,1.27-.68,2.53-1.59,2.13-3.42.45-.82,1.18-1.17,2.07-1.32,1.09-.18,2.09-.58,3.02-1.16.95-.26,2-.09,2.89-.63.9-.14,1.8-.29,2.7-.43,2.01.02,3.97.29,5.72,1.37.77.48,1.57.87,2.46,1.07,1.12,3.03,3.76,3.03,6.35,3.25,2.33.2,4.4,1.22,6.2,2.68,2.15,1.73,3.95,3.85,5.48,6.12,2.36,3.51,4.89,6.96,6.43,10.92,1.61,4.12,1.85,7.76-2.5,11.16-1.56,1.23-3.35,2.18-4.66,3.73-2.19,1.32-4.24,2.89-6.58,3.95-.73.33-.53.75-.49,1.36.23,3.88,2.88,6.81,3.96,10.35.31,1.69.61,3.37.92,5.06.37,2.89.64,5.79,1.19,8.67.22,1.18-1.04,2.56-2.24,2.89-2.33.65-2.16,1.91-2.01,3.92.49,6.4,1.54,12.72,2.08,19.11.07,1.85-.11,3.71.41,5.52.07,3.38.43,6.76.21,10.15-.06.28-.11.56-.17.83-2.58,4.65-7.47,6.56-12.54,4.91-.65-.21-1.34-.33-1.98-.57-2.01-.74-3.15-2.19-3.44-4.31.14-1.29-.22-2.53-.31-3.8.05-1.03.1-2.07.16-3.1.13-3.01-.44-5.97-.6-8.96.24-5.77.07-11.54.39-17.32.28-5.16,1.12-3.56-3.96-4.43-1.59-.27-2.25.37-2.53,1.85-.79,4.14-2.11,8.18-2.25,12.43-.2.64-.36,1.28-.26,1.96l-.07.63c-.21.58-.24,1.17-.14,1.78ZM49.41,96.74c.02-.46.17-.94-.23-1.33h.05c-.47-4.9-1.2-9.77-1.49-14.69-.16-2.68-.21-2.68-2.88-2.26-.23.04-.46.04-.68.07-2.59-.19-5.15.17-7.73.27-.98.04-1.09.57-1.13,1.33-.09,2.06-.18,4.12-.32,6.18-.57,8.71.22,17.4.44,26.1.16,6.47.48,5.76,5.58,7.33,4.15,1.28,9.3-2.14,9.42-6.19.13-4.47-.43-8.9-.84-13.34-.05-.92-.1-1.84-.14-2.76l-.06-.69ZM29.68,22.29c.05.33.1.67.15,1,.02,1.04.04,2.07.07,3.11.2,4.9.38,9.8.61,14.69.04.78-.18,1.46-.45,2.15-2.21.74-4.47.48-6.72.26-1.3-1.92-.38-4.21-.95-6.28-.78.22-1.26.72-1.79,1.15-1.51,1.23-2.91,2.66-4.81,3.24-1.29.39-1.43,1.02-.92,2.07.08.63.18,1.25.23,1.88.08,1.07.3,1.45,1.66,1.3,2.83-.3,5.65-1.08,8.53-.68,2.63.36,5.27.17,7.9.3,2.15.11,2.16,0,1.9-2.18-.23-1.6.22-2.85,1.77-3.58,2.91-1.35,5.47-3.25,8.11-5.04.81-.55,1.28-1.07,1.12-2.05.58-1.96.01-4.01.41-5.96.26-1.27-.11-2.07-1.05-2.78-.74-1-1.49-2.01-2.23-3.01-.32-.43-.64-.93-.1-1.35.52-.4.81.19,1.12.47,1.14,1.02,1.76,2.54,3.13,3.34.86,2.07,2.27,3.77,3.58,5.56,1.12,1.53,2.08,2.43,3.81.91.39-.34.98-.55,1.38-.07.51.62-.09,1.01-.48,1.41-.96.49-2.2.67-1.97,2.27.07.53-.59.57-1.06.52-1.13-1.35-2.04-.03-3.04.26-4.05,1.39-6.91,4.71-10.95,6.55,3.07,1.41,3.78,4.15,4.51,6.91,1.85-1.45,4.05-1.7,5.79-2.93,1.71-1.21,3.66-2.11,5.08-3.72,1.99-1.42,4.17-2.6,5.68-4.61.43-.35.8-.74.76-1.36,1.08-3.28-.15-6.15-1.6-8.99-.15-.53-.38-1-.81-1.36-.06-.33-.18-.6-.52-.74-.5-.89-.96-1.82-1.51-2.68-2.75-4.28-5.47-8.53-10.38-10.8-1.83-.84-3.71-.05-5.48-.68-.8-.31-1.54-.65-2.33.16-2.01,2.04-4.56,2.92-7.37,3.13-1.04-.15-1.1.5-1.07,1.27.08,1.95.15,3.9.22,5.85-.08.36-.15.73.06,1.08ZM21.55,10.17c2.35,2.62,5.16,3.38,8.5,2.19.37-.13.8-.06,1.2-.11,1.92-.26,3.64-.95,5.09-2.26.47-.42.52-.96.19-1.38-.49-.62-.75.16-1.07.34-4.38,2.48-8.87,2.81-13.51.79-.52-.55-.98-1.2-1.82-1.25-.06,0-.23.28-.2.39.24.8,1,.95,1.62,1.28ZM27.78,33.95c-.33.39-.81.58-1.23.38-1.77-.85-1.95.65-2.21,1.61-.25.96-.16,2.04-.11,3.06.17,3.28.42,3.44,3.66,3.02.8-.1.93-.41.9-1.08-.12-2.45-.23-4.89-.34-7.34v-3.07c-.83.49-1.58.88-.92,1.76.39.51.18,1.1.24,1.66ZM13.17,20.2l-.02-.03c.84.17,1.38.48,1.26,1.53-.08.72-.29,1.54.31,2.47,1.14-1.55,3.15-1.69,4.14-3.26,4.46-1.03,4.49-1.06,4.64-5.63,0-.29.03-.57.03-.86,0-.35-.06-.63-.4-.87-3.64-2.51-2.82-3.84-7.18-.72-.47.33-.95.64-1.41.99-1.96,1.51-3.64,3.25-4.5,5.63-.12.19-.25.38-.35.58-1.59,3.23-2.5,6.79-4.61,9.76-1.78,2.51-2.6,5.34-3.22,8.26-.5,2.31.43,3.54,2.81,3.94,2.72.46,5.34.08,7.93-.81,4.54-1.56,7.94-4.69,11.26-7.94.29-.28,1.15-.73.09-1.27-3.63-1.86-5.77-4.56-4.84-9.09-1.89,1.27-3.51,2.77-5.22,3.84-2.12,1.32-4.18,2.61-5.98,4.33-.37.35-.78.86-1.3.37-.52-.5,0-.95.32-1.32,1.37-1.6,2.91-3.01,4.76-4.05.5-.28,1.22-.55,1.23-1.11.03-1.58.63-3.12.24-4.71ZM23.95,52.16c-3,.01-5.3.98-7.73.9-.34,0-.77.29-1.01.58-1.18,1.41-2.19,2.92-2.67,4.74-1.41,5.37-2.85,10.73-4.26,16.1-.5,1.89-.17,2.44,1.75,2.62,3.87.36,7.73.97,11.64.32,2.09-.34,4.2-.83,6.32-.62,4.61.45,9.2.22,13.8.09,2.62-.07,5.13-.43,7.58-1.31,1.93-.69,2.39-1.3,2.15-3.28-.41-3.35-.65-6.75-1.38-10.03-.81-3.65-1.49-7.74-5.83-9.03-2.94-.88-6.05-1.36-9.17-.86-1.87.3-3.74.47-5.63.56-2.11.1-4.04-.89-5.55-.78ZM25.89,78.51c-3.58.34-7.04.94-10.54.57-.55-.06-.62.24-.72.69-.7,3.17-1.99,6.19-2.34,9.46-.18,1.7-.61,3.38-.97,5.05-1.56,7.28-2.35,14.68-3.61,22.01-.2,1.2.32,1.6,1.38,1.89,3.5.96,6.79.19,10.05-1.03.59-.22.99-.67,1.02-1.27.2-4.25,1.51-8.33,1.84-12.57.28-3.58.69-7.17,1.07-10.74.51-4.74,1.71-9.31,2.82-14.06ZM36.61,50.46c-.51-1.98-1.48-2.85-3.53-2.65-2.04.2-4.12-.03-6.19-.04-3.55-.02-7.1-.1-10.61.63-1.47.31-1.69,1.36-1.49,2.44.22,1.15,1.21.62,1.97.54,3.21-.32,6.34-1.34,9.67-.55,3.38.8,6.77-.04,10.17-.37ZM27.54,28.24c-.22-2.38-.88-3.92-1.98-5.18-.75-.85-1.88-1.43-3.09-1.06-1.09.33-1.52,1.3-1.71,2.37-.45,2.49,1.17,3.92,2.77,5.32.63.55,1.66,1.18,2.28.7.82-.64,1.82-1.47,1.74-2.16ZM21.9,7.37c.21.31.28.47.4.57,3.03,2.37,9.41,1.4,11.69-.01,1.07-.66.47-1.03-.25-1.36-4.07-1.84-7.9-.61-11.83.8ZM39.36,50.14c1.13.04,1.91-.42,1.8-1.33-.22-1.94-.67-3.86-2.44-5.06-1.35-.92-1.74-.71-1.85.86-.05.74-.1,1.48-.09,2.23.03,1.53,1.41,3.27,2.58,3.31ZM27.72,22.56c0-2.39,0-4.78,0-7.16,0-.55-.12-.97-.75-.73-.65.24-1.85-.61-1.91.65-.07,1.43-.33,2.83-.47,4.24-.07.73-.02,1.12.87.86,1-.3,1.52.21,1.6,1.18.04.5.15.88.65.96ZM48.47,29.24c-.12.03-.24.07-.36.1v4.39c.62-.18,1.22-.35,1.8-.53.93-.3,1.35-.7.48-1.6-.7-.73-1.29-1.57-1.93-2.36ZM42.51,51.01c1.14.24,1.98.42,2.81.58.31.06.83.36.9-.04.09-.52-.11-1.11-.24-1.66-.08-.35-.45-.41-.7-.29-.84.42-1.84.52-2.77,1.4Z"/>
  <path class="cls-2" d="M26.44,4.32c-.89.54-1.94.37-2.89.63-.57-1.48.67-1.33,1.44-1.6.41.44,1.56-.23,1.45.98Z"/>
  <path class="cls-2" d="M51.89,116.02c.06-.28.11-.56.17-.83.17.25.38.49.17.81,0,0-.17.03-.17.03h-.17Z"/>
  <path class="cls-3" d="M23.95,52.16c1.51-.11,3.44.88,5.55.78,1.89-.09,3.76-.26,5.63-.56,3.12-.5,6.23-.02,9.17.86,4.34,1.29,5.02,5.37,5.83,9.03.73,3.28.96,6.68,1.38,10.03.24,1.98-.22,2.59-2.15,3.28-2.46.88-4.96,1.24-7.58,1.31-4.61.12-9.2.35-13.8-.09-2.12-.21-4.23.28-6.32.62-3.9.64-7.77.04-11.64-.32-1.92-.18-2.24-.73-1.75-2.62,1.42-5.37,2.86-10.73,4.26-16.1.48-1.82,1.49-3.33,2.67-4.74.24-.28.68-.59,1.01-.58,2.43.07,4.73-.89,7.73-.9Z"/>
  <path class="cls-3" d="M36.61,50.46c-3.4.34-6.79,1.17-10.17.37-3.33-.79-6.46.23-9.67.55-.76.08-1.76.61-1.97-.54-.21-1.08.02-2.13,1.49-2.44,3.51-.74,7.06-.66,10.61-.63,2.06.01,4.15.25,6.19.04,2.05-.2,3.02.66,3.53,2.65Z"/>
  <path class="cls-3" d="M42.51,51.01c.93-.88,1.93-.98,2.77-1.4.25-.12.61-.06.7.29.13.55.34,1.14.24,1.66-.07.39-.59.1-.9.04-.84-.16-1.67-.34-2.81-.58Z"/>
  <path class="cls-2" d="M28.46,33.6c-.23.12-.45.23-.68.34-.06-.56.15-1.15-.24-1.66-.67-.88.09-1.27.92-1.76v3.07Z"/>
  <path class="cls-1" d="M21.95,9.74c-.13.14-.27.28-.4.42-.62-.33-1.39-.48-1.62-1.28-.03-.11.14-.4.2-.39.85.05,1.3.7,1.82,1.25Z"/>
  <path class="cls-4" d="M31.15,21.57c.02-.12.03-.23.05-.35.4-.91,1.21-1.21,2.08-1.43.81,0,1.61-.01,2.42-.02.34.02.68.05,1.02.05,3.57.02,3.87.26,4.37,3.86.14,1.01.13,2.04.2,3.06,0,.35-.02.69-.03,1.04-.03.42-.06.85-.09,1.27-1.27.79-1.79.34-1.76-1.05.04-1.72.11-3.43-.21-5.14-.18-.95-.52-1.43-1.56-1.32-.68.08-1.37.02-2.06.02-2.91,0-3.03.14-2.54,2.99.09.5.21,1,.31,1.5.08.84.19,1.67.25,2.51.03.43-.17.78-.63.87-.56.1-.83-.22-.94-.73-.16-.77-.31-1.54-.47-2.31,0-.82.08-1.65-.35-2.41-.02-.8-.04-1.61-.06-2.41Z"/>
  <path class="cls-4" d="M26.36,39.15c-.73-.16-1.13-.57-1.13-1.31,0-.7.41-1.07,1.05-1.13.7-.06,1.07.37,1.09,1.03.02.69-.33,1.18-1,1.4Z"/>
  <path class="cls-4" d="M27.15,17.21c-.08.58-.38.93-.99.92-.58,0-.8-.38-.78-.89.02-.54.41-.8.89-.85.53-.05.82.28.89.81Z"/>
</svg>