<?xml version="1.0" encoding="UTF-8"?>
<svg id="Layer_1" xmlns="http://www.w3.org/2000/svg" viewBox="0 0 244.973 113.6419">
  <defs>
    <style>
      .cls-1 {
        fill: #141814;
      }

      .cls-2 {
        fill: #b0d359;
      }

      .cls-3 {
        fill: #b8d433;
      }

      .cls-4 {
        fill: #809e8f;
      }
    </style>
  </defs>
  <path class="cls-3" d="M166.6501,62.6018c3.9287-.9002,7.8305-1.9545,11.7951-2.6501,2.9774-.5224,6.0357-.5839,9.0581-.8504.814.6501,1.6277,1.3,2.6202,2.0927-4.0066,2.7537-7.3751,5.595-4.0252,11.5393-8.1234-.8024-13.4369,2.4331-16.603,9.1459,0,0,.0517.0065.0514.0065-2.7996-2.6706-5.4318-5.5491-8.4371-7.9633-4.6329-3.7217-5.0096-6.6473-.8726-10.4465,0,0,.0124-.1153.0152-.116,2.1344-.2532,4.2661-.5056,6.3978-.7579Z"/>
  <path class="cls-2" d="M169.4954,81.8791c3.1661-6.7128,8.4795-9.9483,16.603-9.1459-3.35-5.9443.0185-8.7855,4.0252-11.5393-.9925-.7927-1.8062-1.4427-2.6202-2.0927,3.7918-1.4865,7.573-2.5358,12.4108.2432-5.0108,2.4359-9.0944,4.421-13.178,6.4062.0022.4193.0044.8386.0067,1.258,2.2821.7443,4.5642,1.4885,7.7278,2.5203-7.9463,3.9014-15.1702,7.4481-22.3941,10.9948-.1137.5945-.2275,1.189-.3412,1.7835,3.1739,1.3944,6.3478,2.7888,9.5216,4.1831.0358.4394.0715.8788.1073,1.3182-3.2935.1158-6.5871.2315-9.8821.3472-.6633-2.0923-1.3251-4.1844-1.9869-6.2766Z"/>
  <path class="cls-2" d="M160.2371,63.4758c-4.137,3.7993-3.7602,6.7249.8726,10.4465,3.0053,2.4142,5.6375,5.2927,8.4371,7.9633-2.0154.6378-3.0099,4.7458-6.0831,1.7901,1.0145-.6241,2.0291-1.2481,3.0437-1.8721-.7321-1.118-1.2548-2.4822-2.2314-3.3128-5.133-4.3664-10.3808-8.598-16.5958-13.7038,4.9231-.5141,8.74-.9126,12.5569-1.3112Z"/>
  <path class="cls-2" d="M150.2552,93.6157c3.9049-2.175,7.9029-3.5356,12.3022-1.4087-4.0994.4688-8.2008.9387-12.3022,1.4087Z"/>
  <path class="cls-2" d="M141.1667,94.7063c2.5987-3.3512,5.6161-3.1807,8.8656-1.0504-2.9555.3526-5.9105.7015-8.8656,1.0504Z"/>
  <path class="cls-2" d="M166.6501,62.6018c-2.1317.2524-4.2634.5048-6.3978.7579,2.1308-.2521,4.2643-.5051,6.3978-.7579Z"/>
  <path class="cls-1" d="M158.7687,6.5277l4.2459,1.0588c-.9598.9512-1.8095,2.0614-2.9033,2.8191-2.0327,1.408-4.2078,2.6105-6.2603,4.3799,13.242,1.0257,26.2835,5.1123,39.6881.2082.204.7278.4081,1.4557.6121,2.1835-5.3973,3.0826-10.7946,6.1651-17.3619,9.916,2.6292.5879,4.2302,1.0206,5.8577,1.2967,6.3891,1.0836,12.7633,2.31,19.1912,3.0845,2.9593.3566,6.0332-.3513,9.0478-.2778,1.0691.0261,2.1165.9378,3.1737,1.4451-.7645.9295-1.3442,2.2622-2.328,2.713-2.9906,1.3703-6.1374,2.3999-9.2234,3.5622-.538.2254-1.0759.4507-1.6139.6761.4647.2161.9295.4321,1.3942.6482,12.8422,3.1784,25.5247,7.7128,39.123,4.1767.9874-.2568,2.3651.9874,3.5613,1.5337-.733.9861-1.2926,2.5821-2.2302,2.8487-3.3856.9628-6.8983,1.479-10.3633,2.1621-.9737.192-2.0288.1994-2.9103.5952-7.9809,3.5832-15.9316,7.2338-23.8911,10.8646.0903.3985.1805.7971.2707,1.1956,4.9013-1.2849,9.8025-2.5699,14.7038-3.8548.2921.8242.5842,1.6485.8764,2.4727-12.619,6.0741-25.238,12.1482-37.857,18.2224.0064.5048.0129,1.0095.0193,1.5143,3.3807-.126,6.7641-.3947,10.1413-.3324,2.6542.049,5.3008.5067,7.9508.7828-2.073,1.302-3.9956,3.0164-6.2443,3.8362-11.0564,4.0309-22.1995,7.8242-33.4645,11.7547.2886.5782.7722,1.5472,1.2429,2.4904-7.139,5.971-35.6332,8.7567-52.8033,5.2347-.179.444-.358.8881-.5371,1.3321,3.3548,1.3571,6.7095,2.7143,10.0642,4.0714.0416.3647.0832.7293.1248,1.094-1.5527.4953-3.1218,1.4579-4.6552,1.4039-6.1493-.2167-12.2863-.7674-18.4301-1.1595-10.4199-.6651-18.5166-6.4461-27.0866-11.6121-11.9516-7.2044-23.5523-14.5748-31.8832-26.1424-.6657-.9244-2.7717-1.26-4.1499-1.1484-7.6158.6167-15.2053,1.8735-22.821,2.0198-3.1276.0601-6.5838-1.6701-9.3238-3.4556-1.2951-.8439-2.062-3.981-1.5624-5.6202.3887-1.2751,3.1193-2.612,4.7904-2.5888,7.9461.1107,15.93.2994,23.8116,1.2204,4.9329.5765,7.344-.3037,8.5669-5.5748,2.9694-12.799,12.577-21.6683,19.9211-31.8719,4.3116-5.9903,9.456-10.8039,16.4041-13.6612,1.2937-.532,1.9547-2.5407,2.9777-3.8116.9029-1.1218,1.9034-2.165,2.8607-3.2429.4745.2683.949.5366,1.4235.8049-1.4241,4.0143-2.8483,8.0287-4.3665,12.3084,9.6629-4.1263,18.6662-8.2927,27.9189-11.8014,5.5473-2.1036,11.4514-3.1194,15.7721-7.8016.8088-.8765,2.9573-.5167,4.7908.4151-4.1021,4.131-8.2041,8.262-12.3062,12.393.1678.2896.3355.5792.5033.8688,2.1608-.6165,4.339-1.1785,6.4796-1.8589,10.0887-3.2066,20.4798-3.1224,30.8964-3.0479,1.7915.0128,3.5899-.9528,5.3851-1.4665.9284-.4256,1.8568-.8513,2.7853-1.2769ZM102.4477,59.7936c-.2364,1.0584-.4729,2.1168-.7093,3.1753.5448.5902,1.1168,1.7152,1.6302,1.6891,5.9464-.3025,11.8841-.779,17.824-1.2093,6.2472-.6196,12.5025-1.1719,18.7345-1.9184,1.1721-.1404,2.7678-.7557,3.2922-1.6599,4.3398-7.4822,8.4734-15.084,12.6694-22.6496.9722-.3735,1.9444-.7471,3.2745-1.2581.2313,3.0323.4232,5.5492.6151,8.0661-.5198.4498-1.0396.8996-1.5595,1.3494,0,0,.0035.0078.0035.0077-2.9161,4.7147-5.8322,9.4294-9.5627,15.4609,22.4364-5.7168,44.118-6.3399,65.1757-10.5548-.0084-.8155-.0167-1.6311-.025-2.4466-9.6839-.7531-18.188-7.2263-28.6234-4.6877-1.3173.3204-3.0412-1.031-4.5768-1.6078,1.1807-.9213,2.2291-2.2502,3.5678-2.6849,3.5662-1.1581,7.2575-1.9313,10.899-2.8575-6.6312-2.1751-13.1908-3.5973-19.8235-4.4511-6.3816-.8216-12.8388-1.0553-19.2628-1.5473-.013-.6972-.0259-1.3944-.0389-2.0916,3.3351-.9902,6.7039-1.8844,9.9822-3.0364.8458-.2972,1.407-1.4043,2.0989-2.1395-.7951-.6578-1.5496-1.8224-2.3921-1.89-4.945-.3967-10.0103-1.2595-14.8456-.5923-6.9986.9657-13.8358,3.1012-20.7419,4.7376-.4319-.3883-.8638-.7766-1.2956-1.165,1.7178-1.5329,3.2582-3.3629,5.1992-4.5219,2.313-1.3811,4.9695-2.1869,7.4773-3.2419-.1733-.6164-.3465-1.2328-.5198-1.8492-15.1278-.6749-29.2163,4.2418-43.2941,9.2164-.6187-.8011-1.2375-1.6021-1.8562-2.4032.6323-.6905,1.2646-1.381,1.8969-2.0714,3.6073-2.1523,7.2145-4.3045,10.8218-6.4567-.275-.4618-.5501-.9236-.8251-1.3854-3.4866,1.5345-6.9733,3.0689-10.4599,4.6034-6.3066,2.9593-12.6131,5.9185-18.9197,8.8778-3.1967,2.3866-6.3934,4.7733-9.5901,7.1599-1.9037,1.1655-3.3416,5.5511-6.0894.8809,2.3822-3.2204,4.7643-6.4409,7.1465-9.6613-.4186-.3014-.8373-.6028-1.256-.9042l-8.7904,10.8039-2.7942,4.915c-1.9748,2.4358-3.9496,4.8716-5.9243,7.3074-6.2066,5.5144-9.2245,12.5496-10.3589,20.8703,6.7531.6544,12.6501,5.095,18.1807,2.5411,2.3134-9.6414,4.3024-18.3304,6.5509-26.9516.4304-1.6502,1.8833-3.0337,2.8645-4.5402.5016.2901,1.0031.5801,1.5046.8702-.4962,1.8641-1.0809,3.7098-1.4726,5.5956-1.3472,6.4845-2.6687,12.975-3.9179,19.479-.8501,4.4263,1.1333,6.1852,5.5143,5.6793,7.4038-.8549,14.8322-1.5175,22.2126-2.5341,1.3627-.1877,3.1923-1.3919,3.7064-2.5964,2.7214-6.3757,5.0912-12.9015,7.5829-19.3752,1.3806-2.2514,2.595-4.6356,4.2306-6.6833.5845-.7318,2.1879-.6499,3.3263-.9394-.0941,1.0414.0423,2.1736-.3248,3.1077-1.2019,3.0579-2.5871,6.0438-3.9018,9.0573-1.4171,3.7314-2.8342,7.4628-4.2513,11.1941,0,0,.0212-.0819.0211-.0819ZM150.0318,93.6595l.2234-.0439c4.1014-.4699,8.2028-.9399,12.3042-1.4099,2.9738-1.35,5.9476-2.7001,8.9244-4.0499,3.2935-.1158,6.587-.2315,9.8806-.3473-.0358-.4394-.0716-.8788-.1073-1.3182-3.1738-1.3944-6.3477-2.7887-9.5216-4.1831.1137-.5945.2275-1.189.3412-1.7835,7.2239-3.5467,14.4478-7.0934,22.3941-10.9948-3.1636-1.0317-5.4457-1.776-7.7278-2.5203-.0022-.4193-.0045-.8387-.0067-1.258,4.0836-1.9852,8.1672-3.9703,13.178-6.4062-4.8378-2.779-8.619-1.7297-12.411-.2433-3.0223.2666-6.0806.3282-9.058.8505-3.9647.6956-7.8664,1.7499-11.7951,2.6501-2.1335.2529-4.267.5058-6.4006.7587l-.0124.1153c-3.8169.3986-7.6338.7972-12.5569,1.3112,6.2151,5.1058,11.4628,9.3373,16.5958,13.7038.9766.8307,1.4993,2.1948,2.2314,3.3128-1.0146.624-2.0292,1.248-3.0438,1.872-6.0306-4.517-12.0611-9.034-18.0917-13.551-3.7751-6.088-9.1744-3.7879-14.3247-2.7735-1.7705.4539-3.5411.9079-5.3116,1.3618-6.7153.3444-13.4305.6889-20.1458,1.0333-.0428.361-.0855.722-.1283,1.083,4.946,3.5039,9.892,7.0078,14.838,10.5116,2.5317,3.5434,5.0634,7.0869,7.5951,10.6303-2.7817,3.2659-4.4229,1.0461-6.0945-1.2407-6.6713-9.1267-16.5624-14.0606-25.8331-19.8008-.6861.1423-1.3723.2845-2.0584.4268-2.7082.0413-5.4288-.0674-8.122.1553-5.489.454-10.9633,1.0866-17.132,1.7159,3.923,8.4812,9.8797,13.8812,16.5656,18.6425.7378.8285,1.4756,1.6571,2.2134,2.4856-.1851,1.2343-.1565,2.5754-.6872,3.6369-.1567.3133-2.2958.2272-2.8435-.3379-5.7358-5.9181-12.3244-11.3396-16.6744-18.1733-3.933-6.1786-8.2091-7.1338-14.3095-5.6409-1.916.1287-3.832.2574-6.4697.4346.9149,2.2663,1.4871,3.6839,2.0594,5.1015.8614.9849,1.5592,2.2142,2.6094,2.917,11.4139,7.6382,22.6568,15.5733,34.4414,22.5968,5.155,3.0723,11.4506,4.2186,17.8702,3.3513-2.5757-4.7875-8.239-6.983-8.484-13.3041,19.1075,7.8609,32.6415,9.7285,41.3723,5.6559-1.2909-1.4214-2.484-2.7351-3.6771-4.0489,1.5525-.7471,3.0419-1.7448,4.6788-2.157,1.1807-.2974,2.5576.1844,3.847.3188,2.9551-.3489,5.9101-.6978,8.8651-1.0467ZM21.5956,70.807c.0014-.8604.0029-1.7207.0044-2.581-5.3363.0167-10.6725.0334-16.0088.0501-.0105.7551-.021,1.5102-.0315,2.2653,5.3453.0885,10.6907.1771,16.0359.2657Z"/>
  <path class="cls-3" d="M121.1927,63.4487c-5.94.4303-11.8776.9068-17.824,1.2093-.5134.0261-1.0854-1.0988-1.6297-1.6902.2366-1.0588.4727-2.1164.7088-3.1741,0,0-.0212.0819-.0207.0818,2.983-3.1369,5.9756-6.2699,4.2508-11.1941,1.3148-3.0136,2.7-5.9994,3.9018-9.0573.3672-.9341.2307-2.0663.3248-3.1077-1.1384.2895-2.7418.2076-3.3263.9394-1.6356,2.0477-2.85,4.4319-4.2313,6.6848-1.8028,1.6685-5.2343,3.463-5.1157,4.9798.4372,5.5927-4.4735,8.4139-5.7517,13.0026-.2896,1.0395-2.6059,1.9956-4.0747,2.1438-7.0308.7094-14.0908,1.1279-22.0656,1.7181,2.542-7.2843-.5109-15.5584,6.9185-21.1535-.7029-.5942-1.8708-1.5816-3.127-2.6436,3.7523-4.0885,1.2129-7.2671-1.4429-10.4281,3.1967-2.3866,6.3934-4.7733,9.5903-7.16,3.03,3.1499,5.1581-.0771,7.7186-.9595,3.1763-1.0946,5.4732-5.7273,9.7672-2.6081.6187.8011,1.2375,1.6021,1.8556,2.403.5358.3184,1.1647,1.0079,1.5952.9008,8.6606-2.1561,17.2952-4.4165,25.9458-6.6134.8739-.2219,1.8169-.1713,2.7279-.2472.0157,1.0003-.0675,2.0147.0732,2.9971.1624,1.1345.522,2.2409.796,3.3595.4319.3883.8638.7766,1.2976,1.1657,1.6587,1.6659,7.3114,1.7378,10.1508-.0082,6.2096-3.8184,12.6805-3.1699,19.3387-1.3772-1.1776,1.1379-2.6943,1.3935-3.734,2.237-1.0827.8783-2.5216,2.473-2.3366,3.4866.2754,1.5096,1.6697,3.747,2.8896,3.9619,2.6876.4734,5.5782-.3842,8.3601-.2307,5.8124.3207,11.6081.9443,18.8233,1.565-2.9632,3.2416-4.6748,5.114-6.3225,6.9165,1.3449,3.6611,3.7111,4.047,7.1421,4.0958,4.8446.0689,9.9358-1.3903,14.5878,1.1171,1.0375.5592,1.851,1.5341,2.7676,2.3176-1.012.5927-1.9735,1.5771-3.0439,1.7149-7.1205.9164-14.2823,1.5189-21.3956,2.4823-7.5224,1.0188-15.0059,2.3253-21.9174,3.4134,1.0378-4.1058,1.9475-7.7048,2.8572-11.3038,0,0-.0035-.0078-.0034-.0082.5198-.4499,1.0396-.8994,1.5594-1.3489-.1919-2.5169-.3839-5.0338-.6151-8.0661-1.3301.511-2.3023.8846-3.2736,1.2567-1.7354.7708-3.4716,1.5431-5.0136,2.229.8713,5.519-3.2296,8.9543-5.2019,13.235-2.9423,6.3862-8.2249,7.564-14.5758,7.7764-3.3315.1114-6.6056,1.9373-9.9056,2.989Z"/>
  <path class="cls-3" d="M127.8946,91.9711c-2.5317-3.5434-5.0634-7.0869-7.5936-10.6286,2.5258-1.8243,2.0255-2.7781-.6916-3.9907-1.529-.6824-2.5041-2.606-3.7287-3.9704,1.5957-.8167,3.1727-1.6727,4.7922-2.4392,1.6661-.7886,3.3735-1.4899,5.0628-2.2293,1.7705-.4539,3.541-.9079,5.3101-1.3608,4.7744.9248,9.5503,1.8486,14.3262,2.7725,6.0305,4.517,12.0611,9.0341,18.0918,13.5511,3.0732,2.9557,4.0677-1.1523,6.0833-1.7901l-.0517-.0065c.6618,2.0922,1.3236,4.1844,1.9854,6.2766-2.9738,1.35-5.9476,2.7001-8.9234,4.0513-4.3993-2.1269-8.3973-.7664-12.3022,1.4087,0,0-.2234.0439-.2229.0402-3.2495-2.1302-6.2669-2.3007-8.8655,1.0504-1.2894-.1344-2.6663-.6162-3.847-.3188-1.6369.4123-3.1262,1.41-4.6811,2.1521-1.8826,1.0693-3.6717,2.7715-5.666,3.0613-2.5843.3755-5.3521-.7243-8.0057-.5727-6.9853.3988-12.8028-1.821-16.9896-6.2914-2.6203-.0897-4.4944-.2746-6.3534-.1754-1.2602.0673-2.4881.6182-3.7526.7849-.6178.0815-1.3517-.4534-1.9163-.2944-.8921.2512-1.686.8515-2.5214,1.304-.7378-.8286-1.4756-1.6571-2.2119-2.4856-2.3041-6.7059-7.021-11.5419-13.8588-16.528,4.4884-.2166,7.5651-.7859,10.5222-.4112,4.6625.5907,8.7857.23,12.0235-3.5747.6861-.1423,1.3723-.2845,2.059-.4266,1.8864,2.2007,3.3926,4.9931,5.7288,6.4915,7.181,4.6054,14.4583,8.9297,19.2055,16.3996,2.0507,3.2269,4.9653,3.7425,7.9125,1.0926.3181-.286-.5838-1.9289-.9198-2.9423Z"/>
  <path class="cls-2" d="M87.4336,94.3557c.8355-.4525,1.6293-1.0528,2.5214-1.304.5645-.159,1.2985.3759,1.9163.2944,1.2645-.1667,2.4923-.7176,3.7526-.7849,1.859-.0992,3.7332.0858,6.3534.1754,4.1868,4.4704,10.0043,6.6902,16.9896,6.2914,2.6536-.1515,5.4214.9482,8.0057.5727,1.9943-.2897,3.7834-1.992,5.666-3.0612,1.1955,1.3187,2.3886,2.6325,3.6795,4.0539-8.7309,4.0727-22.2648,2.205-41.3723-5.6559.245,6.3211,5.9082,8.5166,8.484,13.3041-6.4197.8673-12.7152-.2789-17.8702-3.3513-11.7846-7.0235-23.0275-14.9586-34.4414-22.5968-1.0502-.7028-1.7479-1.9321-2.6083-2.9158,1.2888.1322,2.9013-.1883,3.8118.4668,6.2234,4.4773,12.2995,9.1595,18.6779,13.9677.3557-1.2007.6089-1.6403.5033-1.7579-5.4723-6.0976-6.9599-16.2831-17.55-17.1744-.3712-.0313-.6904-.6791-1.0339-1.0396,6.1004-1.4929,10.3765-.5377,14.3095,5.6408,4.35,6.8336,10.9386,12.2552,16.6744,18.1733.5477.565,2.6868.6512,2.8435.3379.5307-1.0615.5021-2.4026.6872-3.6369Z"/>
  <path class="cls-2" d="M158.2223,45.3858c-.9097,3.599-1.8194,7.198-2.8572,11.3038,6.9115-1.0881,14.395-2.3946,21.9174-3.4134,7.1133-.9634,14.2751-1.5659,21.3956-2.4823,1.0705-.1378,2.032-1.1221,3.0439-1.7149-.9166-.7835-1.7301-1.7584-2.7676-2.3176-4.652-2.5074-9.7433-1.0482-14.5878-1.1171-3.4309-.0488-5.7971-.4347-7.1421-4.0958,1.6477-1.8026,3.3593-3.6749,6.3225-6.9165-7.2152-.6207-13.0109-1.2443-18.8233-1.565-2.7819-.1535-5.6725.7041-8.3601.2307-1.2199-.2148-2.6142-2.4522-2.8896-3.9619-.1849-1.0136,1.2539-2.6083,2.3366-3.4866,1.0397-.8435,2.5564-1.0991,3.734-2.237-6.6582-1.7926-13.1291-2.4412-19.3387,1.3772-2.8394,1.746-8.4922,1.6741-10.1508.0081,6.9042-1.6372,13.7413-3.7727,20.7399-4.7384,4.8353-.6672,9.9005.1956,14.8456.5923.8425.0676,1.597,1.2322,2.3921,1.89-.6919.7351-1.2531,1.8422-2.0989,2.1394-3.2782,1.152-6.6471,2.0462-9.9822,3.0364.0129.6972.0259,1.3944.0389,2.0916,6.424.492,12.8812.7257,19.2628,1.5473,6.6328.8539,13.1923,2.276,19.8235,4.4511-3.6415.9262-7.3328,1.6994-10.899,2.8575-1.3388.4347-2.3871,1.7637-3.5678,2.6849,1.5356.5768,3.2595,1.9282,4.5768,1.6078,10.4354-2.5386,18.9395,3.9346,28.6234,4.6877.0084.8155.0167,1.6311.025,2.4466-21.0577,4.2149-42.7393,4.838-65.1757,10.5548,3.7305-6.0315,6.6466-10.7462,9.5627-15.4609Z"/>
  <path class="cls-2" d="M68.6879,31.7598c2.6558,3.1609,5.1952,6.3395,1.4429,10.4281,1.2562,1.062,2.4242,2.0493,3.127,2.6436-7.4294,5.5951-4.3765,13.8692-6.9185,21.1535,7.9748-.5903,15.0349-1.0088,22.0656-1.7181,1.4688-.1482,3.7851-1.1043,4.0747-2.1438,1.2782-4.5887,6.1889-7.4099,5.7517-13.0026-.1186-1.5169,3.3129-3.3113,5.1157-4.9798-2.4911,6.4722-4.8609,12.998-7.5823,19.3737-.5141,1.2045-2.3437,2.4087-3.7064,2.5964-7.3804,1.0166-14.8088,1.6792-22.2126,2.5341-4.381.5059-6.3644-1.253-5.5143-5.6793,1.2492-6.504,2.5707-12.9945,3.9179-19.479.3918-1.8858.9764-3.7315,1.4726-5.5956-.5016-.2901-1.0031-.5801-1.5046-.8702-.9811,1.5065-2.4341,2.89-2.8645,4.5402-2.2486,8.6212-4.2375,17.3102-6.5509,26.9516-5.5306,2.554-11.4276-1.8867-18.1807-2.5411,1.1344-8.3207,4.1523-15.3559,10.3611-20.8715.3285.7273,1.1358,1.704.9076,2.1463-2.6356,5.1067-5.428,10.1326-8.3718,15.5341,3.391,1.307,6.4005,3.3044,9.4134,3.3095,1.7657.003,5.2482-3.4322,5.0269-4.8693-1.4043-9.1198,5.912-15.7049,6.3539-24.8231-2.5546.4816-4.9812.939-7.4078,1.3965.9314-1.6384,1.8628-3.2767,2.7938-4.9118.9665-.0783,1.9334-.1599,2.9003-.2416,2.7478,4.6702,4.1857.2846,6.0894-.8809Z"/>
  <path class="cls-3" d="M56.9044,37.794c2.4266-.4574,4.8532-.9149,7.4078-1.3965-.4419,9.1182-7.7582,15.7033-6.3539,24.8231.2213,1.4371-3.2611,4.8723-5.0269,4.8693-3.0129-.005-6.0224-2.0025-9.4134-3.3095,2.9438-5.4016,5.7362-10.4274,8.3718-15.5341.2282-.4423-.5791-1.419-.9076-2.1463,1.9726-2.4346,3.9474-4.8704,5.9222-7.3061Z"/>
  <path class="cls-3" d="M52.919,73.8406c.3435.3605.6627,1.0083,1.0339,1.0396,10.5901.8912,12.0777,11.0768,17.55,17.1744.1056.1177-.1475.5572-.5033,1.7579-6.3784-4.8083-12.4545-9.4904-18.6779-13.9677-.9106-.6551-2.523-.3347-3.8118-.4668-.5734-1.4188-1.1456-2.8364-2.0605-5.1027,2.6377-.1772,4.5537-.3059,6.4697-.4346Z"/>
  <path class="cls-2" d="M128.7576,23.832c-.274-1.1186-.6337-2.2249-.796-3.3595-.1407-.9824-.0575-1.9968-.0732-2.9971-.911.0759-1.854.0253-2.7279.2472-8.6506,2.1969-17.2852,4.4574-25.9458,6.6134-.4306.1072-1.0594-.5824-1.5952-.9008,14.0785-4.9743,28.167-9.891,43.2948-9.2162.1733.6164.3465,1.2328.5198,1.8492-2.5077,1.055-5.1643,1.8607-7.4773,3.2419-1.941,1.159-3.4814,2.989-5.1992,4.5219Z"/>
  <path class="cls-2" d="M93.9086,71.3563c-3.2378,3.8046-7.361,4.1654-12.0235,3.5747-2.9571-.3747-6.0338.1946-10.5222.4112,6.8379,4.9861,11.5547,9.822,13.8588,16.528-6.6874-4.7613-12.6441-10.1614-16.5671-18.6426,6.1687-.6293,11.643-1.2619,17.132-1.7159,2.6932-.2227,5.4138-.114,8.122-.1553Z"/>
  <path class="cls-2" d="M127.8946,91.9711c.336,1.0135,1.2379,2.6563.9198,2.9423-2.9473,2.6498-5.8618,2.1343-7.9125-1.0926-4.7472-7.4699-12.0245-11.7942-19.2055-16.3996-2.3362-1.4983-3.8424-4.2907-5.7288-6.4915,9.2701,5.7401,19.1612,10.674,25.8326,19.8007,1.6716,2.2867,3.3127,4.5065,6.0945,1.2407Z"/>
  <path class="cls-2" d="M121.1927,63.4487c3.3-1.0516,6.5741-2.8775,9.9056-2.989,6.3509-.2125,11.6335-1.3902,14.5758-7.7764,1.9722-4.2807,6.0732-7.716,5.2019-13.235,1.542-.6859,3.2782-1.4581,5.0136-2.229-4.1969,7.567-8.3305,15.1688-12.6703,22.651-.5244.9042-2.1201,1.5196-3.2922,1.6599-6.232.7465-12.4873,1.2988-18.7345,1.9184Z"/>
  <path class="cls-2" d="M125.7356,68.7129c-1.6893.7395-3.3967,1.4407-5.0628,2.2293-1.6195.7664-3.1965,1.6224-4.7922,2.4392,1.2246,1.3644,2.1997,3.288,3.7287,3.9704,2.7172,1.2126,3.2174,2.1664.6916,3.9907-4.9474-3.5055-9.8934-7.0094-14.8394-10.5133.0428-.361.0855-.722.1283-1.083,6.7153-.3444,13.4306-.6889,20.1458-1.0333Z"/>
  <path class="cls-2" d="M95.7639,21.0323c-4.294-3.1192-6.5909,1.5134-9.7672,2.6081-2.5605.8824-4.6886,4.1094-7.7186.9595,6.3064-2.9592,12.6129-5.9185,18.918-8.8773.1539,1.0798.3093,2.159.4647,3.2383-.6323.6905-1.2646,1.3809-1.8969,2.0714Z"/>
  <path class="cls-4" d="M21.5956,70.807c-5.3453-.0886-10.6906-.1771-16.0359-.2657.0105-.7551.0211-1.5102.0315-2.2653,5.3363-.0167,10.6725-.0334,16.0088-.0501-.0014.8604-.0029,1.7207-.0044,2.581Z"/>
  <path class="cls-2" d="M145.372,70.1246c-4.7759-.9238-9.5517-1.8476-14.3262-2.7725,5.1518-1.0154,10.5511-3.3155,14.3262,2.7725Z"/>
  <path class="cls-4" d="M62.5985,32.6407c-.9669.0816-1.9338.1632-2.9003.2416,2.9305-3.6045,5.8607-7.2058,8.7908-10.8071.4187.3014.8373.6028,1.256.9042-2.3821,3.2204-4.7643,6.4409-7.1465,9.6613Z"/>
  <path class="cls-4" d="M97.6609,18.9609c-.1554-1.0793-.3108-2.1586-.4647-3.2383,3.4881-1.5349,6.9747-3.0694,10.4614-4.6039.275.4618.5501.9236.8251,1.3854-3.6073,2.1523-7.2145,4.3045-10.8218,6.4567Z"/>
  <path class="cls-2" d="M106.6778,48.6814c1.7248,4.9241-1.2678,8.0572-4.2508,11.1941,1.4166-3.7313,2.8337-7.4627,4.2508-11.1941Z"/>
  <path class="cls-2" d="M102.4477,59.7936c-.2361,1.0577-.4722,2.1153-.7088,3.1741.2359-1.0573.4724-2.1157.7088-3.1741Z"/>
  <path class="cls-2" d="M159.7783,44.0287c-.5197.4495-1.0395.899-1.5594,1.3489.5197-.4494,1.0396-.8991,1.5594-1.3489Z"/>
</svg>