<?xml version="1.0" encoding="UTF-8"?>
<svg id="Layer_1" xmlns="http://www.w3.org/2000/svg" viewBox="0 0 160.1671 119.3867">
  <defs>
    <style>
      .cls-1 {
        fill: #141814;
      }

      .cls-2 {
        fill: #b0d359;
      }

      .cls-3 {
        fill: #b8d433;
      }
    </style>
  </defs>
  <path class="cls-1" d="M124.2194,10.637c.1877-.7008.3754-1.4016.5632-2.1024,5.7215-1.4299,2.4113,4.1577,4.838,5.9503,2.6553-.2365,5.7364-.511,8.6928-.7744.644-2.4514,1.2426-4.7303,1.8413-7.0092.6749-.0104,1.3499-.0208,2.0248-.0312.2623,2.4263.5246,4.8525.8244,7.6259,8.5459.2307,11.3683,6.7472,14.0691,13.3259,5.0345,12.2634,3.2854,24.5269-.6911,36.5503-.7107,2.149-3.7876,4.0744-6.1923,4.9543-2.6496.9695-4.3857,1.6956-4.3635,4.9008.0076,1.0994-1.3258,2.208-2.0465,3.3124-.9022-1.001-2.572-1.9955-2.5805-3.0042-.0515-6.0597-3.9721-5.2638-7.2592-4.9504-.577,2.3989-1.0881,4.5236-1.5991,6.6482-.5895.1452-1.1791.2905-1.7686.4357-1.2911-6.3968-4.5521-9.7809-10.8782-8.3311-1.9366,2.5758,1.4396,7.8004-4.5827,9.0919-.2066-3.6977-.37-6.6208-.5461-9.7716h-6.2329c1.9724,4.485,3.5434,8.0574,4.7038,10.6961-1.7343,1.6798-4.2292,3.006-4.5104,4.6999-.2426,1.4606,2.1275,3.2857,3.166,5.0533.6733,1.1462,1.0293,2.4789,1.5275,3.728-1.4811-.1289-2.9674-.2173-4.4407-.4072-.5738-.0739-1.1182-.3764-2.7513-.9572-.2203,4.688-.4117,8.7619-.5792,12.327-1.6964.6023-3.3376,1.185-4.9789,1.7678-2.4038,2.125-5.9149,3.8228-6.94,6.4797-1.3789,3.5737-2.0185,3.7472-4.3336,1.1081-.4658-.531-1.3092-1.103-1.9369-1.0592-4.0718.2839-8.1321.733-11.7125,1.081-.8913,2.56-1.6658,4.7843-2.4402,7.0086-.5916-.1217-1.1831-.2435-1.7747-.3652-.2818-2.0025-.5635-4.005-.8365-5.9452q-12.4077-.5584-18.7906,6.713c-.9428-.0314-1.8857-.0627-2.8285-.0941.1713-.8662.1408-1.85.561-2.5712.6371-1.0935,1.5874-2.0045,2.8718-3.558-6.9359.2508-11.0821-8.1742-18.6656-2.8628-.1527-.7873-.3054-1.5745-.4582-2.3618,2.0794-1.2536,4.1589-2.5072,6.5887-3.972-.3027-3.6638.3361-7.5085-5.8549-7.7231-3.4922-.121-2.2993-3.113-.8266-5.1786,5.3969,1.8828,10.3393-.9833,10.5337-6.6726.1143-3.3446.9551-3.5269,3.7859-2.8776,1.5797.3623,3.4409-.5022,4.5248-.697.4149-2.2231.7073-3.7896.9997-5.3561,1.3713.8689,2.9968,1.5022,4.0635,2.6533,2.6234,2.8311,9.9408,2.0591,12.0696-.7458,4.1561,1.324,8.0118,2.5523,12.5185,3.988v-6.0905c-1.5206-.694-3.0569-1.3952-5.8814-2.6844,2.7413-1.1165,4.2636-1.7366,6.3689-2.5941-.4734-1.2061-1.036-3.513-1.4244-3.4841-2.1158.1577-4.1887.8908-6.7971,1.5595-2.1027-5.1557-7.0592-1.4093-10.6309-2.4655-1.3522,3.229-2.5238,6.0265-3.6953,8.824-.5665-.1737-1.133-.3474-1.6995-.5211.3195-2.5592.639-5.1184,1.0198-8.1685h-15.3606c-1.2157,2.5912-2.2261,5.1726-3.6467,7.5042-.41.6729-1.9997.627-3.0485.9106.1052-1.1049.0349-2.2638.3547-3.3026.5479-1.7802,1.3397-3.4854,2.1047-5.4126-6.563-1.5002-11.7279-1.2999-15.1056,4.8615-.5707,1.041-2.6747,1.2414-4.0703,1.8301.2055-1.5979.1555-3.2888.6929-4.7658.4771-1.3111,1.6064-2.3848,2.4998-3.6361-3.1333-2.0162-5.8346-4.8702-8.9428-5.4188-2.7296-.4818-5.9152,1.6198-8.8994,2.5803-.3674-.6172-.7348-1.2345-1.1022-1.8517,1.9333-1.6359,3.8667-3.2719,5.9714-5.0528-1.1363-2.8688-2.3415-5.9116-3.5489-8.951-2.3355-1.2269-7.1071,1.513-6.724-4.1403,0,0-.0138.0133-.0138.0133,2.1129-.2546,4.2258-.5091,6.4704-.7796.5132-3.5216,1.0087-6.9217,1.3094-8.9854-2.1561-2.6915-3.631-4.5327-5.106-6.374,2.2239-.127,4.4479-.2539,7.1615-.4088,1.7209-2.1666,3.937-4.9567,6.2081-7.8159-.8175-1.0144-1.788-1.8138-2.1973-2.8376-.4312-1.0786-.3263-2.3716-.4556-3.5709,1.2712.2693,3.2142.1103,3.7037.878,2.9737,4.6635,6.7947,3.657,11.2657,1.9076-.3219-2.1588-.8017-4.4158-.9283-6.6924-.0515-.9262.6642-1.8951,1.0309-2.8445.9494.6652,2.408,1.1371,2.7482,2.0335.8605,2.2672,1.2185,4.7252,1.7706,7.0761h8.2901c-.2006-3.006-.5537-5.803-.4944-8.5912.0249-1.1706.9227-2.3226,1.4237-3.483.5629.9989,1.4282,1.9404,1.6305,3.0077.5512,2.9067.8221,5.8666,1.2618,9.2494,4.9057.3778,9.7271.7491,14.3875,1.1079.2425-3.9857.431-7.083.6195-10.1803.794-.0648,1.5881-.1296,2.3821-.1944.5902,2.958,1.1803,5.916,1.8559,9.302,5.1-.2903,10.2809-.5853,15.3361-.873.4208-3.3845.7851-6.1864,1.1133-8.9926.3095-2.6465,1.4946-3.6137,4.0039-2.1697-.3426,3.7643-.6852,7.5286-1.0578,11.6221,3.6447.493,7.0198.9496,10.3058,1.3942,0-3.8026-.152-7.2251.0919-10.6193.0739-1.0291,1.2423-1.9797,1.9094-2.9662.6002.9572,1.5874,1.8604,1.73,2.8815.4768,3.4149.6514,6.872.9675,10.6177h15.8373c-.1659-2.0231-.5742-3.8398-.3701-5.5849.1447-1.2376,1.1166-2.3785,1.7193-3.5625.7399.9124,1.7341,1.7216,2.1564,2.7628.5491,1.3537.6437,2.8918.9339,4.3504-.8325,2.956.8431,3.1688,3.1515,3.1057,3.3894-.0926,2.5536-2.0927,2.0454-4.0342ZM141.8721,22.6618c-.7154.7533-1.4308,1.5065-1.9994,2.1052-.8115-2.0993-1.6815-5.5434-2.196-5.4911-3.8905.3956-8.7008-1.2319-11.0356,3.7634-.569-.1222-1.1381-.2444-1.7071-.3665-1.0245-.6166-2.049-1.2332-3.0735-1.8498-2.2106.9275-4.4212,1.855-6.6349,2.7814-3.3784-7.1878-9.8063-4.1933-14.8275-4.9765-.861,1.8369-1.4895,3.178-2.3196,4.9489-4.0381-6.4183-11.7371-7.8157-17.4115-4.035-4.6066-5.7627-9.919-1.8982-15.0664-1.6708.1461,1.5682.2534,2.72.3607,3.8717-.9729,2.598-3.0078,2.5287-3.6035.3832-1.361-4.9012-4.8675-3.2758-7.9036-3.3014-1.2072-.0102-2.5655.5865-3.5975.2068-3.7823-1.3915-5.236.0442-5.1953,3.749-.8846-.4669-2.1784-.7056-2.5868-1.438-2.516-4.5121-7.2279-4.8041-10.2674-.633-.539.7397-1.8302.9315-2.774,1.3763-1.4202-.1118-2.8404-.2236-4.2606-.3354-.9206.3388-2.1565,1.2411-2.7131.9295-5.8024-3.2478-6.1835,2.0428-8.0084,4.1897,1.0826,1.9747,1.8445,3.3645,2.6064,4.7542-5.1288,2.0878-5.9821,4.5798-2.8734,8.3916.4517,1.2961,1.6822,3.0556,1.2307,3.8141-3.3536,5.6348-2.8109,7.2277,3.4117,8.2409.868,4.8187,3.4461,7.1621,8.5891,5.7054.5404-.153,1.4409-.0645,1.7891.2902,4.3077,4.3869,8.4021,2.9818,12.0759-.2818,1.7026,1.0045,3.0777,2.4334,4.5779,2.5798,3.7876.3695,7.6343.2538,11.4516.1407,1.5473-.0459,3.204-1.1298,4.5965-.8094,4.5836,1.0546,9.0748,2.5757,11.4983-.8029,5.7316,1.7536,10.5641,3.2322,15.7001,4.8036-.7251,1.8853-1.351,3.5125-2.1488,5.5866,1.513.4879,2.8312.9129,4.1522,1.3377,1.6037-.9063,3.192-1.8416,4.8161-2.7099,1.3067-.6986,2.6566-1.3162,3.9874-1.9697-.5993,1.8791-1.1987,3.7582-1.798,5.6373l.0646-.0052c-.7293.6367-1.4586,1.2733-2.1879,1.91-4.0401,1.7631-10.2032,1.32-8.9359,8.5985-3.444,6.4095-9.5206,2.3023-14.3632,3.6593-.3227,1.1868-.6774,2.4915-1.2807,4.7101-2.6135-4.3728-5.5468-6.579-10.9872-5.2594,1.1448,3.1985,2.1443,5.9909,3.4369,9.6023-2.7198-.8017-4.9313-1.4535-7.1406-2.1046,1.5551-5.5081.5729-6.9142-4.0147-6.5321-.2388,1.3521-.4776,2.7043-.8472,4.7971-3.6863-2.4106-6.3552-2.0844-7.4264,2.2124,1.0193.9408,2.0507,1.8929,3.3814,3.1212-2.9073,1.7852-5.7013,3.4329-1.2175,6.2455.8333.5227.6679,2.6373,1.0946,4.6299,2.438.1103,5.0365.2278,7.635.3454,3.9295-.0039,7.859-.0078,11.7885-.0117,1.969-.7083,3.9379-1.4166,5.9069-2.1249-.0489.1727-.0978.3453-.1467.518h13.8617c-.3559-1.5792-.6926-3.073-1.3022-5.7776,2.4895,1.1995,4.0424,1.9478,5.5953,2.696,4.1702-1.0142,4.953-2.9737,3.6361-9.1024,1.8868-.4557,3.7735-.9114,6.6558-1.6075v-6.8064l.032-.1939c.4279-1.0537,1.0937-2.0751,1.242-3.1668.6113-4.5025.9722-9.0399,1.6255-13.5354.2469-1.699.5466-4.172,1.6693-4.8164,3.4541-1.9825,7.3177-3.2517,11.0221-4.7981,2.3052,3.6699,4.9623,4.1075,8.2949,1.6395.8372-.62,2.2092-.5176,3.3354-.7473.7613,3.0132,2.6417,4.3413,5.7947,4.2455,4.3086-.131,8.6362.1568,12.9302-.1244,1.3407-.0878,3.388-1.1606,3.7685-2.2512,2.7489-7.8795,4.0516-15.9776,2.2996-24.3197-.0435-.4756-.0869-.9511-.1304-1.4266-1.9049-4.6808-3.5377-9.5054-5.8863-13.9519-.6736-1.2754-3.4158-1.4583-5.2095-2.1421-.2849,1.0046-.5699,2.0092-.8548,3.0139l.0185-.0553Z"/>
  <path class="cls-3" d="M25.7726,21.7504c1.4202.1118,2.8404.2236,4.2584.3338.6124.1834,1.4527.7241,1.807.4992,4.1971-2.6645,8.0993-3.0325,11.7637.9652.1859.2028,1.3507-.4915,2.0596-.7682-.0408-3.7048,1.4129-5.1405,5.1953-3.749,1.032.3797,2.3903-.217,3.5975-.2068,3.0362.0256,6.5426-1.5999,7.9036,3.3014.5958,2.1454,2.6306,2.2148,3.6036-.3841,2.2918-.7067,4.7571-2.3314,6.8412-1.9379,5.2379.9891,10.2733,1.7995,15.4835-.0431,1.0558-.3733,2.4746.28,2.2688.2504,1.9998,3.7254,3.4215,6.3739,4.3405,8.0858,3.5922.7838,3.7284-6.6454,7.2221-1.0652,4.0842,3.7348,4.3934-1.2189,6.2119-2.6989,1.9637-3.4286,4.6355-.1437,6.8993-.7277,2.2106-.9275,4.4212-1.855,6.6313-2.7825-.0066,2.33.569,3.6934,3.074,1.8498.569.1222,1.1381.2444,1.709.3658,1.0853-.0557,2.3791.2517,3.2129-.2327,2.5982-1.5094,4.5356-2.2539,6.2019,1.3607.6684,1.45,2.8474,2.2037,4.3388,3.2743l1.4756-4.7791s-.0185.0553-.0184.0551c2.243,1.0741,6.5621-.0599,5.8776,4.2384-.8368,5.2549,1.997,7.312,6.0729,8.8419.0435.4756.0869.9511.1319,1.4301-.7027,1.3518-1.8947,2.6583-2.0148,4.0569-.2981,3.4722-.023,6.9891-.1304,10.4833-.207,6.7299-3.4985,10.1265-10.0608,9.7903-4.2173-.216-8.3937-1.2286-12.5884-1.8842-1.1262.2296-2.4982.1273-3.3354.7473-3.3325,2.4679-5.9897,2.0303-8.2944-1.6392.1035-.1288.2583-.2451.2943-.3909.0325-.1316-.0746-.4281-.1035-.426-2.4531.1808-4.9045.3836-7.6014.6051-.0955-.258-.1556-1.0383-.5768-1.4406-1.2256-1.1706-2.5958-2.1898-3.9092-3.2683-.6086,1.3489-1.1112,2.7612-1.8666,4.0222-.4339.7244-1.2774,1.2035-1.9366,1.7931-.3025-1.2553-.1901-3.1108-.982-3.6581-2.8622-1.9782-2.1738-4.2459-1.1758-6.7164-.4111-.8496-.8526-2.4446-1.2286-2.4294-2.6759.1088-5.3383.5466-8.0051.8797l-6.3092.3424c-2.3059,1.3788-7.1527-1.417-6.8847,4.1905-2.2496,1.8695-4.4992,3.739-7.5044,6.2364-1.119-2.0901-2.1592-4.033-3.1995-5.976-1.7852-4.225-3.1986-.0182-4.7874.2112-2.5982-.301-5.1965-.602-7.7947-.903-.0987-.6742-.1973-1.3484-.296-2.0225-1.8961-2.5944-3.8102-5.1414-4.1929-8.5404-.0497-.4415-1.8782-.6826-2.8827-1.0166-1.1006,5.7597-6.8067,3.3272-9.8901,5.56-.3355.0259-.6445-.0525-.9271-.2353-1.1011-1.6923-2.2022-3.3845-3.3026-5.0771.2785-.6641.5564-1.3279.8342-1.9917-.1491-.2161-.2982-.4323-.4473-.6484-.3688-.1289-.7376-.2579-1.1063-.3869-2.392-.9962-4.784-1.9924-7.0219-2.9243,1.5992-1.1936,3.2197-2.4032,4.8402-3.6127-.0379-.5746-.0758-1.1493-.1137-1.7239-3.7006-.6552-7.4013-1.3103-12.1575-2.1523,3.5416-2.2224,6.0186-3.7767,8.4957-5.3311ZM119.733,53.6061c1.3108.3627,2.6215.7254,3.9323,1.0881.2068-1.7434,1.2363-4.0846.4787-5.1273-3.3566-4.6196-4.7043-4.8032-7.6098-2.2281-1.8842,3.595.9266,4.7936,3.1988,6.2672ZM41.3261,29.6209c-1.2091-.6675-2.4183-1.335-3.8647-2.1335-.1938,1.0573-.3035,1.2704-.2394,1.3625,1.4762,2.12,2.9714,4.2267,4.4631,6.336.8376,2.9506,2.106,3.4463,4.068.7835.5965-.8096,1.419-1.4528,2.1379-2.1721,1.9821,1.2864,3.9643,2.5729,5.9464,3.8593.9446.5117,1.8844,1.0324,2.8349,1.5327,1.071.5638,2.1517,1.1091,3.2282,1.6624,1.9091,4.3157,8.3974,4.9927,11.5669,1.2069-1.2527-.7939-2.4326-2.1082-3.7703-2.2956-7.5638-1.0595-9.3112-2.4791-10.2251-8.9478-.0366-.259-.4073-.4708-1.0588-1.1791-1.3762.5938-2.9353,1.2664-4.4955,1.9399-.7386-1.2435-1.532-3.5748-2.2064-3.5409-2.8146.1415-5.5934.9939-8.3854,1.5857ZM134.1191,31.3675c1.0028-.0742,2.0056-.1484,3.0085-.2226.0814-.6255.1628-1.251.2442-1.8765-2.5217-.5019-5.1277-1.6549-7.5438-1.342-3.0755.3982-4.4886,2.9267-3.9886,6.1812-.6207,1.1455-1.2413,2.291-1.8619,3.4366.8012,1.2395,1.6024,2.479,2.4035,3.7184.139-5.6132,5.3367-2.5111,7.3693-4.965-.1297-1.1684-.2878-2.5937-.446-4.019l.8148-.9109ZM145.3653,37.794c-2.9175.9859-5.9173,1.7892-8.7119,3.0479-1.1148.5021-1.7765,2.0102-2.6445,3.0604,4.9111,4.1837,10.4706,2.139,15.2748-5.9248-1.4469-.0677-2.6826-.1256-3.9183-.1835ZM107.1435,36.3403c2.1499.1596,4.9491,1.2278,6.2969.2647,1.996-1.4264,2.9624-4.2937,4.3671-6.5475-1.4708-.7859-3.8124-2.5807-4.2668-2.1887-2.3867,2.0597-4.2962,4.6725-6.3714,7.0931-.0086.4594-.0172.9189-.0258,1.3784ZM97.9367,40.2937c-.1086-.4283-.2171-.8565-.3257-1.2848-4.1214-.7085-8.2301-1.519-12.3752-2.038-.8151-.1021-1.7711.9216-2.6622,1.4261.7171.7156,1.323,1.8444,2.1713,2.073,3.1394.8458,6.3375,1.645,9.5598,1.9201,1.1427.0976,2.4175-1.3527,3.632-2.0964ZM108.8761,40.0097c-2.1407,2.4324-3.5122,3.9909-4.8837,5.5494,1.0463.7086,2.3718,2.2161,3.0835,1.9674,1.7426-.609,3.3113-1.9194,4.646-3.252.1804-.1801-1.3878-2.1113-2.8457-4.2648ZM144.4967,57.5314c.5968-.334,1.1937-.6681,1.7905-1.0021-.9836-1.6108-1.6649-3.5941-3.0463-4.7146-1.1058-.8969-3.0621-.7451-4.641-1.0588-.1527.5274-.3055,1.0548-.4582,1.5822,2.1183,1.7311,4.2366,3.4622,6.355,5.1934ZM75.7356,33.1759c.1849-4.8909-1.8297-6.1133-7.4058-4.7692.5796.5307.9744,1.0253,1.4824,1.3333,1.7978,1.09,3.6343,2.1162,5.9234,3.4359Z"/>
  <path class="cls-2" d="M66.5228,52.5455c1.0403,1.943,2.0805,3.886,3.1995,5.976,3.0052-2.4974,5.2548-4.3669,7.5035-6.2373,2.2503-.558,4.5309-1.0288,6.7182-1.7737.2957-.1007.1232-1.5767.1675-2.4159,2.1031-.1141,4.2062-.2283,6.3102-.3434,2.5231,3.8182,6.0749,1.5127,9.2327,1.5507-.998,2.4705-1.6864,4.7382,1.1758,6.7164.7918.5472.6795,2.4028.982,3.658,0,0,.0245-.0271.0245-.0271-7.4194-.156-9.8972,2.5275-10.1309,10.9716-1.3182-.425-2.6364-.8501-4.1493-1.338.7978-2.0742,1.4237-3.7014,2.1488-5.5866-5.136-1.5714-9.9685-3.05-15.7001-4.8036-2.4235,3.3786-6.9147,1.8575-11.4983.8029-1.3925-.3204-3.0491.7635-4.5965.8094-3.8173.1132-7.664.2289-11.4516-.1407-1.5002-.1464-2.8753-1.5753-4.5779-2.5798-3.6739,3.2636-7.7682,4.6687-12.0759.2818-.3483-.3547-1.2487-.4433-1.7891-.2902-5.143,1.4567-7.7211-.8867-8.5891-5.7054-6.2225-1.0132-6.7653-2.6061-3.4117-8.2409.4515-.7585-.779-2.5181-1.2314-3.815.3755-2.2241,1.7086-3.2307,2.7553-.8138,1.7262,3.9862,3.896,2.7812,6.4102,1.3128,2.8332.0028,5.6664.0056,8.4996.0084,1.1011,1.6923,2.2022,3.3845,3.3041,5.0768-3.2685,1.1888-6.5378,2.3775-9.8071,3.5662l.6529,1.5039c3.578-1.0889,8.6552,1.4191,10.0804-4.8348,3.0834-2.2328,8.7896.1997,9.8901-5.56,1.0045.334,2.833.5751,2.8827,1.0166.3827,3.399,2.2969,5.9461,4.1937,8.5412-4.1254,1.3694-8.2516,2.738-12.3777,4.1067.163.4862.3261.9723.4891,1.4585,4.4257.3373,8.4209-1.1194,12.1837-3.5434,2.5982.301,5.1965.602,7.7948.9018,1.5958-.0708,3.1915-.1404,4.7873-.2099ZM77.9688,58.9502q9.1555,1.8383,13.3901-6.6068c-4.4113-2.3075-11.408.9806-13.3901,6.6068ZM25.9518,44.4222c-3.7492-1.6303-6.3191-.7872-7.8136,2.3543-.2728.5735.8483,2.5637,1.6039,2.7455,3.8062.9162,5.0855-1.7089,6.2097-5.0998ZM50.7661,55.3919c-.1686.6099-.3373,1.2197-.5059,1.8295,2.1184.7727,4.2369,1.5454,6.3553,2.3181.2307-.7312.4614-1.4625.6921-2.1937-2.1805-.6513-4.361-1.3026-6.5415-1.9539ZM30.7618,43.346c.2507-.142.6315-.2338.689-.4236.0628-.2072-.1736-.5052-.2795-.7636-.3131.1908-.6263.3816-.9394.5723.1733.201.3465.402.53.6148Z"/>
  <path class="cls-2" d="M91.6286,102.8083c-1.5529-.7482-3.1058-1.4965-5.5953-2.696.6095,2.7046.9462,4.1985,1.3022,5.7776h-13.8617c.0489-.1727.0978-.3453.1467-.518-1.969.7083-3.9379,1.4166-5.9058,2.1249.4954-3.1975,3.0331-5.328,5.532-5.4467,7.0666-.3355,6.9053-4.9754,6.5924-9.7652-.0992-1.5179-1.2176-2.9692-1.8695-4.4509-1.0768,1.1806-2.6139,2.1879-3.1374,3.577-1.1912,3.1607-3.0022,4.5565-6.3864,3.7468-.4557-1.7846-.8646-3.386-1.2734-4.9873-1.7599,4.2514-2.0577,8.7685-5.3319,12.0164-1.8807,1.8656-3.9377,3.5536-5.9153,5.3215-2.5985-.1176-5.197-.2351-7.635-.3454-.4267-1.9925-.2614-4.1071-1.0946-4.6299-4.4837-2.8126-1.6897-4.4603,1.2175-6.2455-1.3307-1.2283-2.3622-2.1804-3.3814-3.1212,1.0713-4.2969,3.7402-4.623,7.4264-2.2124.3696-2.0928.6084-3.4449.8501-4.7953,4.5847-.3839,5.5668,1.0223,4.0117,6.5304,2.2093.6512,4.4208,1.303,7.1406,2.1046-1.2926-3.6114-2.2921-6.4039-3.4369-9.6023,5.4404-1.3196,8.3737.8866,10.9872,5.2594.6032-2.2186.958-3.5233,1.2807-4.7101,4.8426-1.357,10.9192,2.7502,14.3629-3.6571-.5923,4.6342-.4399,9.4375-4.1513,13.1957-.6243.6322.128,2.6238.3149,4.8171,2.3862-1.8945,3.6208-2.8747,5.3077-4.2141.9273,2.566,1.7152,4.7459,2.503,6.9258ZM50.8537,105.2955c.3817.2942.7635.5884,1.1452.8826,1.5854-2.5985,3.1411-5.2156,4.7634-7.7908,2.124-3.3716-1.1946-4.5709-2.5574-6.5546-1.4643,1.6475-3.8355,3.1279-4.1772,4.9823-.4948,2.6849.4788,5.6404.826,8.4804Z"/>
  <path class="cls-3" d="M91.6286,102.8083c-.7878-2.1799-1.5757-4.3598-2.503-6.9258-1.6869,1.3394-2.9215,2.3195-5.3077,4.2141-.187-2.1933-.9392-4.185-.3149-4.8171,3.7114-3.7582,3.559-8.5614,4.1513-13.1957-1.267-7.2807,4.896-6.8376,8.9354-8.5999.729-.6364,1.4589-1.2736,2.1887-1.9107,0,0-.0646.0052-.0643.0054,1.001,1.3362,2.6332,2.5689,2.8719,4.0294.5067,3.1006.2879,6.3198.3665,9.4903,0,0-.032.1939-.0319.1978-1.9052.0039-3.8105.0039-6.0292.0039.2449,2.0277.4555,3.7713.6745,5.5854-1.5172.5844-2.8938,1.1146-5.4956,2.1167,2.3211.3896,3.2577.5468,4.1944.704,1.3169,6.1287.5341,8.0882-3.6361,9.1024Z"/>
  <path class="cls-3" d="M55.9251,107.5086c1.9776-1.7679,4.0346-3.4559,5.9153-5.3215,3.2742-3.2479,3.572-7.765,5.3319-12.0164.4089,1.6013.8178,3.2027,1.2734,4.9873,3.3842.8096,5.1952-.5861,6.3864-3.7468.5235-1.3892,2.0606-2.3964,3.1374-3.577.652,1.4818,1.7703,2.9331,1.8695,4.4509.3129,4.7898.4741,9.4297-6.5924,9.7652-2.4989.1187-5.0366,2.2491-5.532,5.4467-3.9306.0039-7.8601.0078-11.7895.0117Z"/>
  <path class="cls-2" d="M102.1175,27.0321c-3.4936-5.5801-3.6299,1.8491-7.2221,1.0652-.919-1.712-2.3407-4.3605-4.3405-8.0858.2058.0296-1.2131-.6237-2.2688-.2504-5.2102,1.8426-10.2456,1.0322-15.4835.0431-2.0841-.3936-4.5494,1.2312-6.8412,1.9379-.1074-1.1509-.2147-2.3026-.3608-3.8709,5.1475-.2274,10.4599-4.0919,15.0664,1.6708,5.6744-3.7807,13.3734-2.3833,17.4115,4.035.8301-1.771,1.4586-3.1121,2.3196-4.9489,5.0212.7832,11.4491-2.2113,14.829,4.9771-2.2622.5845-4.934-2.7004-6.8991.7326-.129-1.1828-.2565-2.37-.5139-4.7654-2.4206,3.1699-4.0586,5.3149-5.6966,7.4599Z"/>
  <path class="cls-2" d="M101.9525,85.0982c-.0786-3.1706.1402-6.3897-.3665-9.4903-.2387-1.4604-1.8709-2.6931-2.8719-4.0294.5991-1.8794,1.1985-3.7585,1.7973-5.6386,5.932-.9402,2.0651-3.945,1.3252-6.2906,0,0-.0245.0271-.0245.0271.6591-.5895,1.5026-1.0686,1.9366-1.793.7553-1.261,1.258-2.6733,1.8666-4.0222,1.3135,1.0786,2.6836,2.0977,3.9092,3.2683.4212.4023.4813,1.1826.5768,1.4406,2.6969-.2214,5.1483-.4243,7.6014-.6051.0289-.0021.1361.2943.1035.426-.036.1457-.1908.2621-.2943.3909-3.7049,1.5461-7.5684,2.8152-11.0225,4.7978-1.1227.6444-1.4224,3.1174-1.6693,4.8164-.6533,4.4955-1.0142,9.0329-1.6255,13.5354-.1482,1.0917-.8141,2.1131-1.242,3.1668Z"/>
  <path class="cls-2" d="M129.1417,59.6737c4.1947.6556,8.3711,1.6682,12.5884,1.8842,6.5623.3362,9.8539-3.0604,10.0608-9.7903.1074-3.4942-.1677-7.0111.1304-10.4833.1201-1.3986,1.3121-2.705,2.0148-4.0569,1.7505,8.3387.4479,16.4367-2.3011,24.3162-.3805,1.0906-2.4278,2.1634-3.7685,2.2512-4.294.2812-8.6216-.0066-12.9302.1244-3.153.0958-5.0334-1.2323-5.7947-4.2455Z"/>
  <path class="cls-2" d="M25.7726,21.7504c-2.4771,1.5544-4.9542,3.1087-8.4957,5.3311,4.7563.842,8.4569,1.4971,12.1575,2.1523.0379.5746.0758,1.1493.1137,1.7239-1.6205,1.2096-3.241,2.4191-4.8402,3.6127,2.2378.932,4.6299,1.9282,7.023,2.9245-2.8319,1.1686-6.6945-2.217-8.8385,1.9988-.3602-1.1983-1.1239-2.4388-1.0043-3.5871.348-3.3403-1.0526-4.6005-4.2306-4.2827-.7619-1.3897-1.5238-2.7795-2.6064-4.7542,1.8249-2.147,2.2061-7.4375,8.0084-4.1897.5566.3116,1.7925-.5907,2.7131-.9295Z"/>
  <path class="cls-3" d="M101.8366,59.6492c.7399,2.3456,4.6068,5.3504-1.3252,6.2906-1.3302.6545-2.6802,1.2721-3.9868,1.9707-1.6241.8683-3.2123,1.8036-4.8175,2.7101.2323-8.444,2.7101-11.1274,10.1295-10.9714Z"/>
  <path class="cls-3" d="M17.6575,31.6239c3.178-.3178,4.5787.9424,4.2306,4.2827-.1197,1.1483.6441,2.3888,1.0049,3.5885.3524.3405.7042.6795,1.0559,1.0186-2.5142,1.4684-4.684,2.6734-6.4102-1.3128-1.0466-2.4169-2.3798-1.4103-2.7553.8138-3.108-3.811-2.2547-6.303,2.8741-8.3908Z"/>
  <path class="cls-2" d="M153.8043,35.7973c-4.0759-1.53-6.9097-3.5871-6.0729-8.8419.6845-4.2984-3.6346-3.1643-5.8776-4.2384.2849-1.0044.5698-2.009.8547-3.0137,1.7937.6838,4.5359.8667,5.2095,2.1421,2.3486,4.4465,3.9814,9.2711,5.8863,13.9519Z"/>
  <path class="cls-2" d="M141.8721,22.6618l-1.4756,4.7791c-1.4914-1.0706-3.6704-1.8243-4.3388-3.2743-1.6663-3.6146-3.6036-2.8701-6.2019-1.3607-.8338.4844-2.1276.177-3.2129.2327,2.3329-4.9945,7.1432-3.367,11.0337-3.7626.5145-.0523,1.3845,3.3918,2.196,5.4911.5686-.5987,1.284-1.352,1.9994-2.1052Z"/>
  <path class="cls-2" d="M95.2647,93.706c-.9367-.1572-1.8733-.3144-4.1944-.704,2.6018-1.0021,3.9784-1.5323,5.4956-2.1167-.2191-1.814-.4296-3.5576-.6745-5.5854,2.2187,0,4.124,0,6.0292-.0039-.0002,2.3629-.0002,4.7298-.0002,6.8025-2.8822.6961-4.769,1.1518-6.6558,1.6075Z"/>
  <path class="cls-2" d="M45.6614,22.7805c-.709.2766-1.8737.971-2.0596.7682-3.6645-3.9977-7.5666-3.6297-11.7637-.9652-.3543.2249-1.1947-.3158-1.807-.4992.946-.4433,2.2372-.635,2.7762-1.3748,3.0395-4.1711,7.7514-3.8791,10.2674.633.4084.7324,1.7022.9711,2.5868,1.438Z"/>
  <path class="cls-2" d="M124.934,22.6728c-2.505,1.8436-3.0806.4803-3.074-1.8498,1.025.6166,2.0495,1.2332,3.074,1.8498Z"/>
  <path class="cls-2" d="M98.7784,71.5731c-.7298.6371-1.4597,1.2743-2.1887,1.9107.7301-.6374,1.4594-1.274,2.1887-1.9107Z"/>
  <path class="cls-1" d="M97.9367,40.2937c-1.2145.7437-2.4893,2.194-3.632,2.0964-3.2223-.2751-6.4204-1.0743-9.5598-1.9201-.8483-.2285-1.4541-1.3574-2.1713-2.073.891-.5045,1.8471-1.5281,2.6622-1.4261,4.1452.519,8.2538,1.3295,12.3752,2.038.1086.4283.2171.8565.3257,1.2848Z"/>
  <path class="cls-2" d="M59.9006,40.8518c-1.0765-.5533-2.1571-1.0987-3.2282-1.6624-.9505-.5003-1.8904-1.021-2.8351-1.5327.9269-.3589,1.8539-.7179,3.4299-1.3281-2.3161-1.7514-4.0334-3.0499-5.7507-4.3485.1328-.1362.2669-.2712.4023-.4049,1.5591-.6726,3.1182-1.3452,4.4944-1.939.6515.7083,1.0222.9201,1.0588,1.1791.914,6.4687,2.6613,7.8882,10.2251,8.9478,1.3377.1874,2.5176,1.5017,3.7711,2.2963-3.8554-.4021-7.7116-.8048-11.5677-1.2076Z"/>
  <path class="cls-2" d="M107.1693,34.962c2.0752-2.4207,3.9847-5.0334,6.3714-7.0931.4543-.392,2.7959,1.4028,4.2667,2.1887-1.4047,2.2538-2.371,5.1212-4.367,6.5475-1.3477.963-4.1469-.1052-6.2975-.2656,5.1415.7766,8.6434-2.3456,8.5621-8.0177-2.9618,2.3041-5.7488,4.4721-8.5357,6.6402Z"/>
  <path class="cls-2" d="M145.3653,37.794c1.2357.0579,2.4714.1157,3.9183.1835-4.8041,8.0638-10.3636,10.1085-15.2776,5.9228,3.6116-.9225,7.2634-1.7296,10.7971-2.895.4874-.1607.3892-2.097.5622-3.2113Z"/>
  <path class="cls-1" d="M123.9774,37.544c.6207-1.1455,1.2413-2.291,1.8626-3.4386,1.8313-1.5726,3.5412-3.3214,5.5253-4.6652,2.1088-1.4283,3.417-.9767,2.7537,1.9273-.2716.3036-.5432.6073-.8117.9089-3.1079,1.7545-6.2189,3.5111-9.33,5.2676Z"/>
  <path class="cls-1" d="M59.9006,40.8518c3.8562.4027,7.7124.8055,11.5678,1.2076-3.1704,3.7852-9.6586,3.1082-11.5678-1.2076Z"/>
  <path class="cls-2" d="M47.8911,33.7972c-.719.7194-1.5414,1.3625-2.1379,2.1721-1.962,2.6628-3.2304,2.167-4.0661-.781.742-.6519,2.2184-1.6304,2.0971-1.9059-.5828-1.3246-1.597-2.4594-2.458-3.6617,2.7919-.5918,5.5708-1.4442,8.3854-1.5857.6744-.0339,1.4677,2.2974,2.2069,3.5405-.1348.1332-.2689.2682-.4016.4043-1.1495-.3574-2.2991-.7145-3.4487-1.0717-.059.963-.118,1.9261-.177,2.8891Z"/>
  <path class="cls-1" d="M145.3653,37.794c-.1729,1.1143-.0748,3.0505-.5622,3.2113-3.5337,1.1654-7.1855,1.9725-10.7971,2.895.8708-1.0482,1.5325-2.5563,2.6473-3.0584,2.7946-1.2587,5.7944-2.062,8.7119-3.0479Z"/>
  <path class="cls-1" d="M47.8911,33.7973c.059-.963.118-1.9261.177-2.8891,1.1496.3572,2.2992.7144,3.4487,1.0717,1.7171,1.2987,3.4344,2.5972,5.7505,4.3486-1.5761.6102-2.5031.9691-3.4299,1.3281-1.982-1.2865-3.9641-2.5729-5.9463-3.8594Z"/>
  <path class="cls-2" d="M108.8761,40.0097c1.4579,2.1535,3.0261,4.0847,2.8457,4.2648-1.3346,1.3326-2.9033,2.643-4.646,3.252-.7117.2487-2.0372-1.2588-3.0835-1.9674,1.3715-1.5585,2.7431-3.117,4.8837-5.5494Z"/>
  <path class="cls-1" d="M144.4967,57.5314c-2.1183-1.7311-4.2366-3.4622-6.355-5.1934.1527-.5274.3055-1.0548.4582-1.5822,1.5788.3137,3.5352.1619,4.641,1.0588,1.3813,1.1204,2.0627,3.1038,3.0463,4.7146-.5968.334-1.1936.6681-1.7905,1.0021Z"/>
  <path class="cls-1" d="M53.9407,51.8537c-3.7629,2.4241-7.758,3.8807-12.1837,3.5434-.163-.4862-.3261-.9723-.4891-1.4585,4.1262-1.3687,8.2524-2.7373,12.3777-4.1067.0979.6734.1965,1.3476.2952,2.0218Z"/>
  <path class="cls-1" d="M36.6789,45.8341c-1.4252,6.2539-6.5024,3.7459-10.0804,4.8348l-.6529-1.5039c3.2693-1.1887,6.5386-2.3774,9.8071-3.5662.2817.1828.5907.2612.9262.2353Z"/>
  <path class="cls-2" d="M123.9774,37.544c3.111-1.7565,6.222-3.5131,9.33-5.2676.1551,1.4273.3132,2.8527.4429,4.021-2.0326,2.4539-7.2303-.6482-7.3693,4.965-.8012-1.2395-1.6024-2.479-2.4035-3.7184Z"/>
  <path class="cls-1" d="M41.3262,29.6209c.861,1.2022,1.8752,2.337,2.458,3.6616.1212.2755-1.3551,1.2539-2.0971,1.9059-1.4936-2.1118-2.9888-4.2186-4.465-6.3386-.0641-.092.0456-.3051.2394-1.3625,1.4464.7985,2.6556,1.466,3.8647,2.1335Z"/>
  <path class="cls-2" d="M116.5342,47.3389c2.9055-2.5752,4.2532-2.3915,7.6098,2.2281.7576,1.0427-.2719,3.3838-.4787,5.1273-1.3107-.3627-2.6215-.7255-3.9313-1.0882.9985-.2592,1.9961-.5183,2.9936-.7775.167-.4716.3341-.9432.5011-1.4148-2.2315-1.3583-4.463-2.7166-6.6945-4.0749Z"/>
  <path class="cls-1" d="M107.1693,34.962c2.7869-2.1681,5.5739-4.3361,8.5357-6.6402.0813,5.6721-3.4206,8.7943-8.5621,8.0177.0092-.4586.0178-.9181.0264-1.3775Z"/>
  <path class="cls-1" d="M102.1175,27.0321c1.638-2.145,3.276-4.29,5.6966-7.4599.2574,2.3954.385,3.5826.5139,4.7654-1.8171,1.4756-2.1263,6.4293-6.2105,2.6945Z"/>
  <path class="cls-1" d="M116.5342,47.3389c2.2315,1.3583,4.463,2.7166,6.6945,4.0749-.167.4716-.3341.9432-.5011,1.4148-.9975.2592-1.9951.5183-2.9936.7775-2.2732-1.4735-5.084-2.6722-3.1998-6.2672Z"/>
  <path class="cls-1" d="M84.1114,48.0947c-.0443.8392.1283,2.3152-.1675,2.4159-2.1873.7448-4.4679,1.2157-6.7182,1.7737-.267-5.6065,4.5798-2.8108,6.8857-4.1895Z"/>
  <path class="cls-1" d="M23.949,40.5137c-.3518-.3391-.7035-.6781-1.0559-1.0186,2.1434-4.2172,6.006-.8316,8.8379-2.0002.3677.1288.7365.2578,1.1029.3852-.013.3275.1377.5447.4496.6499-.2779.6638-.5557,1.3276-.8342,1.9917-2.8339-.0025-5.6671-.0053-8.5003-.0081Z"/>
  <path class="cls-1" d="M99.6543,49.302c-3.1578-.0381-6.7095,2.2675-9.2327-1.5507,2.6658-.332,5.3283-.7698,8.0041-.8786.376-.0153.8174,1.5797,1.2286,2.4294Z"/>
  <path class="cls-2" d="M134.1191,31.3675c.6632-2.904-.6449-3.3556-2.7537-1.9273-1.9841,1.3438-3.6941,3.0926-5.5253,4.6652-.5007-3.2525.9123-5.7809,3.9879-6.1791,2.4162-.3129,5.0222.8402,7.5438,1.342-.0814.6255-.1628,1.251-.2442,1.8765-1.0028.0742-2.0056.1484-3.0085.2226Z"/>
  <path class="cls-2" d="M75.7356,33.1759c-2.2891-1.3197-4.1256-2.3459-5.9234-3.4359-.508-.308-.9028-.8026-1.4824-1.3333,5.5761-1.3441,7.5907-.1216,7.4058,4.7692Z"/>
  <path class="cls-1" d="M66.5228,52.5455c-1.5957.0695-3.1914.1391-4.7873.2099,1.5887-.2281,3.002-4.4349,4.7873-.2099Z"/>
  <path class="cls-2" d="M33.2834,38.53c-.3119-.1053-.4626-.3224-.4496-.6499.1514.2177.3005.4338.4496.6499Z"/>
  <path class="cls-3" d="M77.9688,58.9502c1.982-5.6262,8.9788-8.9143,13.3901-6.6068q-4.2345,8.4451-13.3901,6.6068Z"/>
  <path class="cls-3" d="M25.9518,44.4222c-1.1242,3.3909-2.4035,6.016-6.2097,5.0998-.7555-.1819-1.8767-2.1721-1.6039-2.7455,1.4945-3.1415,4.0644-3.9846,7.8136-2.3543Z"/>
  <path class="cls-3" d="M50.7661,55.3919c2.1805.6513,4.361,1.3026,6.5415,1.9539-.2307.7312-.4614,1.4625-.6921,2.1937-2.1184-.7727-4.2369-1.5454-6.3553-2.3181.1686-.6098.3373-1.2197.5059-1.8295Z"/>
  <path class="cls-3" d="M30.7618,43.346c-.1835-.2128-.3567-.4138-.53-.6148.3131-.1908.6263-.3816.9394-.5723.106.2584.3423.5563.2795.7636-.0575.1898-.4382.2816-.689.4236Z"/>
  <path class="cls-3" d="M50.8537,105.2955c-.3472-2.8401-1.3208-5.7955-.826-8.4804.3417-1.8544,2.7129-3.3348,4.1772-4.9823,1.3628,1.9837,4.6814,3.183,2.5574,6.5546-1.6223,2.5752-3.178,5.1923-4.7634,7.7908-.3817-.2942-.7635-.5884-1.1452-.8826Z"/>
</svg>