<?xml version="1.0" encoding="UTF-8"?>
<svg id="Layer_1" xmlns="http://www.w3.org/2000/svg" viewBox="0 0 206.4616 98.9517">
  <defs>
    <style>
      .cls-1 {
        fill: #1d1512;
      }

      .cls-2 {
        fill: #d45242;
      }
    </style>
  </defs>
  <path class="cls-1" d="M142.8295,1.8449c1.3342.2531,2.6683.5063,4.0024.7594,1.1896.4453,2.3792.8906,3.5688,1.3359.6774.6533,1.3549,1.3066,2.0323,1.9599.5978.9471,1.1956,1.8942,1.7933,2.8413.3012,4.2655.6024,8.531.9199,13.0258,6.5363,4.1492,16.5255,4.0674,19.1189,14.0118-.0326.9914-.1666,1.9918-.0798,2.9726.3274,3.698-.64,8.8623,1.4019,10.7569,3.5349,3.28,8.7741,5.2158,13.6207,6.4738,7.21,1.8714,15.7149,9.357,16.9684,16.278.9709,5.3608-.475,8.0698-5.3149,10.2592-2.0768.9395-4.0634,2.0786-6.091,3.1269-5.3366,2.0165-10.6732,4.0331-16.0098,6.0496-.986.2676-1.9721.5352-2.9581.8029-10.6721,1.9019-21.3441,3.8037-32.0162,5.7057-3.3184.2491-6.6368.4981-9.9553.7471-.3411-.009-.6823-.0181-1.0234-.0271-.3195-.1793-.6389-.1793-.9584,0-.3426-.0186-.6851-.0372-1.0277-.0558-5.9747-2.1182-11.9494-4.2364-17.9241-6.3546-2.1949-.3515-4.39-.7031-6.5849-1.0546l-.2154-.1989c-2.2413-.9302-4.5021-1.8163-6.7202-2.7989-6.5821-2.916-13.0078-6.2479-19.7463-8.7358-17.6011-6.4984-35.3884-12.4923-52.9919-18.9844-7.0036-2.5829-13.8832-5.6367-20.4798-9.1192-2.4642-1.3009-5.1918-4.2167-5.6412-6.7753-.9076-5.1664-.3381-10.5922-.3777-15.911,9.9367-4.0117,19.9006-7.9586,29.78-12.1067,1.4335-.6019,3.486-2.1556,3.4986-3.2883.0501-4.4942,2.6079-6.4833,6.2994-7.7413,5.726-1.9513,11.4636-3.8682,17.1963-5.7996,3.6483.1918,7.2967.3835,10.945.5753,20.162,4.262,40.324,8.524,60.5602,12.8017,1.1893-9.6153,2.9962-11.2121,11.9296-11.4471.8269-.0217,1.6535-.0564,2.4802-.085ZM157.7881,76.1822l.0585-.0658c4.6576.8443,9.3152,1.6886,13.9728,2.533,5.1893-.0175,10.3787-.0349,15.568-.0524,2.9442-.2632,5.8884-.5265,9.634-.8614-1.2339-1.5301-1.6171-2.3504-2.2612-2.7508-7.0121-4.3593-14.0435-8.6894-21.1441-12.902-.6407-.3801-1.8502-.0438-2.7081.2319-2.1931.7047-4.2778,1.8476-6.5106,2.3097-8.8132,1.8242-17.611,4.2697-26.5242,4.8777-6.2542.4267-12.6859-1.7497-19.0383-2.7636-9.0565-6.0013-19.0775-9.5463-29.5006-12.4695-13.6851-3.8379-27.2245-8.2498-40.6634-12.8877-6.5215-2.2506-14.9579-2.5876-15.7387-12.7532-4.894,1.9851-9.2815,3.7647-15.301,6.2063,9.782,3.565,18.0668,7.6023,26.8157,9.5046,10.0005,2.1745,19.4642,5.2484,28.5282,9.8515,1.7542.8908,3.6816,1.4719,5.572,2.0576,13.4221,4.1582,26.8552,8.2805,40.2848,12.4142,9.4775,4.5438,19.6041,6.2582,29.9819,6.8773,1.277.2136,2.5541.4273,3.8311.6409,1.7144.0006,3.4286.0012,5.143.0017ZM138.1234,49.1338c1.0061-2.8508.8658-4.4652-2.5455-5.5606-9.5306-3.0604-18.8293-6.8477-28.3743-9.8574-16.2486-5.1234-32.6254-9.8389-48.9278-14.7932-6.5621-1.9942-13.0701-4.1665-19.729-6.2982-.9521,6.7494-.908,6.7328.7348,11.0848.2289.6066-.1144,1.5143-.382,2.2097-1.916,4.9792-1.2473,6.9021,3.9042,8.5984,6.2989,2.0741,12.7868,3.569,19.1099,5.5761,10.121,3.2127,20.1224,6.8075,30.2704,9.9286,9.2041,2.8307,18.0166,6.2757,26.6732,10.6752,6.2712,3.1872,14.0935,3.3228,21.2241,4.8191.451-.6085.902-1.217,1.353-1.8255-1.2368-2.7502-1.7379-6.8208-3.851-7.9983-5.9022-3.2889-12.3657-5.6924-18.8005-7.8776-12.4011-4.2113-24.9659-7.9379-37.4038-12.0438-10.2175-3.3729-20.3682-6.9521-30.5082-10.5533-2.9652-1.0531-5.9083-2.2928-8.6268-3.8555-1.1126-.6395-1.6025-2.3622-2.3757-3.592l1.1169-.9245c32.2977,10.7355,64.5955,21.471,97.1382,32.288ZM42.566,9.1564c2.1526.707,4.0524,1.2686,5.9072,1.9522,4.9435,1.8219,9.7608,4.848,14.821,5.3173,11.5862,1.0746,22.1557,5.4098,33.038,8.7179,13.3234,4.0502,26.4816,8.6417,39.7446,12.8948,1.6738.5368,3.7842,1.0801,5.2925.5281,6.4922-2.3759,12.8352-5.1592,19.7885-8.0232-3.1142-1.9908-5.4379-5.2167-8.8918-2.2527-5.3054,4.5527-11.3635,4.0786-17.4122,2.9131-4.2352-.8161-6.5539-3.651-6.0241-8.3422.1769-1.5667-.1631-3.1919-.2574-4.6461-4.3029-.859-8.0527-1.58-11.7905-2.3589-12.3118-2.5652-24.8394-4.4017-36.868-7.9347-12.6866-3.7262-24.8043-4.9714-37.3478,1.2345ZM145.203,54.1532c-.7485,9.6707,1.444,11.3634,10.0042,8.3931,3.2773-1.1372,6.8268-1.7399,9.8093-3.3878,1.9684-1.0876,3.8304-3.3915,4.4998-5.5376.772-2.475.1794-5.3757.1794-7.3488-4.1957,1.7241-7.8992,3.5244-11.7815,4.7645-4.0713,1.3005-8.3143,2.0638-12.7111,3.1166ZM133.0949,17.683c.7753,3.3184,1.0062,8.1231,2.1064,8.3311,3.9982.7561,8.4396.5365,12.3857-.5297,1.4131-.3818,1.8952-4.2096,2.7801-6.4096-5.9564-.48-10.8467-.874-17.2722-1.3918ZM143.9602,47.1453c8.6793-2.9874,16.9896-5.8478,25.4159-8.7481-2.6373-4.1078-5.7163-3.7065-19.809,2.1032q-6.5325,2.693-5.6069,6.6449ZM144.8195,14.1382c1.0801-.7229,2.5551-1.7101,4.0302-2.6973-1.5163-1.2451-2.8762-2.8232-4.5977-3.6314-1.4092-.6616-3.3214-.7677-4.878-.4568-1.6088.3213-3.0576,1.4429-4.5764,2.2144,1.2792,1.0294,2.4275,2.3404,3.8727,3.0131,1.6124.7506,3.4947.9214,6.149,1.5579Z"/>
  <path class="cls-2" d="M138.1234,49.1338c-32.5428-10.817-64.8405-21.5525-97.1382-32.288l-1.1169.9245c.7732,1.2299,1.2631,2.9525,2.3757,3.592,2.7184,1.5627,5.6616,2.8024,8.6268,3.8555,10.14,3.6012,20.2908,7.1803,30.5082,10.5533,12.4379,4.106,25.0027,7.8326,37.4038,12.0438,6.4348,2.1852,12.8983,4.5886,18.8005,7.8776,2.1131,1.1776,2.6141,5.2482,3.851,7.9983-.451.6085-.902,1.217-1.353,1.8255-7.1306-1.4964-14.9528-1.6319-21.2241-4.8191-8.6566-4.3995-17.4691-7.8444-26.6732-10.6752-10.148-3.1211-20.1494-6.7159-30.2704-9.9286-6.3231-2.0071-12.811-3.5019-19.1099-5.5761-5.1515-1.6963-5.8203-3.6192-3.9042-8.5984.2676-.6955.611-1.6031.382-2.2097-1.6428-4.352-1.687-4.3354-.7348-11.0848,6.6589,2.1317,13.1669,4.3039,19.729,6.2982,16.3024,4.9544,32.6792,9.6699,48.9278,14.7932,9.545,3.0096,18.8438,6.797,28.3743,9.8574,3.4114,1.0954,3.5516,2.7099,2.5455,5.5606Z"/>
  <path class="cls-2" d="M42.566,9.1564c12.5435-6.2058,24.6611-4.9607,37.3478-1.2345,12.0286,3.533,24.5563,5.3695,36.868,7.9347,3.7379.7788,7.4877,1.4999,11.7905,2.3589.0943,1.4543.4343,3.0794.2574,4.6461-.5298,4.6912,1.7889,7.5262,6.0241,8.3422,6.0487,1.1655,12.1069,1.6396,17.4122-2.9131,3.454-2.964,5.7776.2619,8.8918,2.2527-6.9533,2.864-13.2963,5.6473-19.7885,8.0232-1.5084.552-3.6187.0087-5.2925-.5281-13.2631-4.2531-26.4213-8.8446-39.7446-12.8948-10.8823-3.3082-21.4518-7.6434-33.038-8.7179-5.0602-.4693-9.8776-3.4953-14.821-5.3173-1.8548-.6836-3.7546-1.2452-5.9072-1.9522Z"/>
  <path class="cls-2" d="M145.203,54.1532c4.3969-1.0529,8.6398-1.8161,12.7111-3.1166,3.8823-1.2402,7.5858-3.0405,11.7815-4.7645,0,1.9731.5926,4.8738-.1794,7.3488-.6694,2.1461-2.5314,4.45-4.4998,5.5376-2.9825,1.6479-6.532,2.2506-9.8093,3.3878-8.5602,2.9703-10.7526,1.2775-10.0042-8.3931Z"/>
  <path class="cls-2" d="M143.9602,47.1453q-.9255-3.952,5.6069-6.6449c14.0927-5.8097,17.1716-6.211,19.809-2.1032-8.4263,2.9003-16.7366,5.7607-25.4159,8.7481Z"/>
  <path class="cls-2" d="M144.8195,14.1382c-2.6544-.6365-4.5367-.8073-6.149-1.5579-1.4453-.6728-2.5935-1.9837-3.8727-3.0132,1.5188-.7715,2.9676-1.8931,4.5764-2.2144,1.5566-.3109,3.4688-.2048,4.878.4568,1.7214.8083,3.0814,2.3863,4.5977,3.6314-1.4751.9872-2.9501,1.9744-4.0302,2.6973Z"/>
</svg>