<?xml version="1.0" encoding="UTF-8"?>
<svg id="Layer_1" xmlns="http://www.w3.org/2000/svg" viewBox="0 0 215.456 177.4211">
  <defs>
    <style>
      .cls-1 {
        fill: #161314;
      }

      .cls-2 {
        fill: #dfb3c0;
      }

      .cls-3 {
        fill: #d4d2d5;
      }
    </style>
  </defs>
  <path class="cls-1" d="M168.6058,153.175c1.2026,6.4552,1.0617,12.5717-4.3766,17.3526-3.7006,1.898-7.4014,3.796-11.1021,5.694-8.3778,1.5847-16.688,2.0668-24.7487-1.5175-.9387-.6623-1.8878-1.3104-2.8145-1.989-8.6941-6.3667-9.378-14.4742-2.0243-22.3934,4.1857-4.5077,9.6146-6.2329,15.3611-7.4542,4.2551-.9043,8.7219-1.033,13.0002-3.0355-1.8946-2.1816-4.0602-1.9042-6.141-2.0983-4.453-.4154-8.9185-.8182-13.3273-1.5409-2.5936-.4252-4.3921-.346-6.5295,1.8223-6.1227,6.2112-20.2391,3.3874-23.4939-4.6356-1.1416-2.8139-2.7043-1.5867-4.3375-1.4684-4.333-.0366-8.666-.0732-12.9991-.1099-1.9141-.8269-3.9099-1.1564-5.9883-.9842-2.1956-.6622-4.3668-1.4236-6.591-1.9695-9.7058-2.3823-19.9157-3.0921-28.6378-8.7077-2.384-1.9129-4.4113-5.1796-7.4422-5.1422-5.1261.0633-9.0896-2.2305-13.2357-4.4778-3.5799-3.9193-9.5301-6.1319-10.1219-12.2168-1.2302-12.6487-8.8451-23.6716-9.0202-36.5424-.036-2.6486-.2886-5.307-.1327-7.9426.2761-4.667,2.7687-9.6178-2.7551-13.2493-.9834-.6465-.795-3.0746-1.1477-4.68.8283-6.0893,1.7324-12.2564.9748-18.3355C.2004,11.3397,3.5992,8.1236,8.2747,6.0675c6.1797-2.7176,12.8144-3.4329,19.4922-1.7329,7.5163,1.9134,9.8068,5.4665,8.3784,13.0955-.3925,2.0967-1.3092,4.0952-1.9854,6.1388-1.7372,1.8122-3.9367,2.8987-6.1716,3.9295-3.6332.4552-7.2664.9103-10.8996,1.3655-3.2721-.9903-2.5696,1.4942-2.6718,3.1381-.2151,3.4602.2219,7.1676-2.3724,9.9133-1.5074,1.5954-1.7908,3.3007-2.1714,5.2769-2.3943,12.432,1.0782,23.9108,5.6387,35.1767.7414,1.8314,1.9342,3.7066,4.3966,4.3504,5.5486,1.4506,10.2881,4.4014,14.227,8.5968,2.3977,3.1507,5.9633,5.9148,6.2815,9.9461.3632,4.6009,3.3411,6.5024,6.3771,8.7688,3.406,2.5425,7.2883,3.9683,11.3502,4.936,7.7431,1.8446,15.462,3.8481,23.2821,5.292,4.9142.9073,9.9943,1.7849,15.5326.3358-1.2088-1.1558-2.1239-1.8473-2.8104-2.7188-3.0251-3.8401-5.8159-6.4744-11.7965-4.8289-6.1217,1.6843-13.3814-4.3692-14.9245-10.6336-1.3618-5.5284,1.7297-10.9968,7.8536-13.8912,10.1762-2.7163,15.05,3.0712,17.9494,12.0401,4.9351-8.1094,4.7939-13.0651-.1396-18.7008.1884-1.0473-.3351-1.7996-1.029-2.4812-.0922-.5566-.1844-1.1133-.2766-1.6699-.0334-.8986-.0668-1.7971-.1002-2.6957.0364-1.1132.0728-2.2264.1093-3.3395,1.2513-3.8891,1.9229-7.9541,3.9043-11.6247,1.1013-2.0402,3.5897-3.3724,3.2448-6.166.6795-4.7618-.4739-9.4473-.5708-14.1405-.0979-4.7416-1.9294-5.9952-6.0947-5.3834-1.4617-1.0444-2.7679-2.1387-3.6293-3.8506-3.8459-7.6434-3.8956-7.6184-11.7857-3.4595-3.5721.5985-7.1432,1.2084-10.7907.9443-1.2566-.5863-2.5132-1.1725-3.7698-1.7588-.6499-.6792-1.2997-1.3584-1.9496-2.0376-4.0402-9.3879-3.1545-12.0613,7.103-21.4403,4.3689-.8137,6.8348-5.05,11.3048-5.9632,8.4696-1.7303,10.7146-1.0628,15.1556,6.3253,4.4451,7.3949,9.004,14.7719,9.5779,23.7402,1.8928,11.7397.1051,24.1292,6.2031,35.1266,1.3322,11.3004,3.0483,22.6714-6.7618,31.6196-.5106.4657-.5155,1.546-.646,2.3578-.6531,4.0616-2.5836,7.4906-5.1674,10.6063-2.264.8423-2.729,2.149-1.1376,4.0966,2.2099,2.7045,4.7549,4.9778,7.9459,6.4679,1.3411,1.3871,2.6976.4991,4.1431.1445,7.0324-1.7251,17.7178.9028,19.9436,5.7347,1.5874,3.4461,3.7916,3.5515,6.7299,4.051,7.687,1.3068,16.2272-1.2731,22.8976,4.8735.948.8736,1.8775.2188,2.5761-.5675,6.7693-7.619,10.5706-16.4322,10.6116-26.7153.0106-2.6486-.9893-3.747-3.5975-2.0575-9.9695,6.4582-20.7215,4.985-31.4364,2.8441-7.0374-1.4062-10.8772-5.8979-11.5242-12.593-.6006-6.2149,1.087-11.5117,6.0755-15.529,3.139-1.3615,6.2787-2.7229,9.4184-4.0843,1.7864-.3597,3.5575-.8828,5.3618-1.052,10.4034-.9757,21.4365,2.2415,26.4049,11.7361.8562,1.6362,1.0404,4.8297,3.1691,4.4259,1.9513-.3702,2.111-3.3895,2.4563-5.4905.0529-.3216-.0152-.6632-.0273-.9955,2.5102-6.878-.2136-12.2431-4.9253-17.0336-.3641-1.1083-.9736-1.7403-2.217-1.1414-1.3974.0839-2.8028.1404-3.9231,1.1606-8.712,2.6194-17.1771,3.4425-24.5915-3.3788l-.2145.419.241-.4046c-.3819-.5831-.7638-1.1661-1.1456-1.7492-1.1498-7.6909.6888-10.3626,8.6981-12.6393,5.2115.4833,10.4784.4761,15.4533,2.6053,1.3111.5611,2.5908.8302,3.7211,1.9118,2.6122,2.4996,5.5919,3.3862,8.8151.9119,3.8627-.7232,3.7115-2.1951,1.5446-5.1445-5.9453-8.0922-5.605-14.9628.5642-22.2146,5.1014-2.1883,9.8733-1.5316,13.6798,2.4555,4.1527,4.3497,4.9097,9.5759,2.4728,15.1646-1.1609,2.6624-3.5607,5.5748-3.0981,7.9202.4162,2.1098,4.0092,3.5626,6.1376,5.3792.9822.8383,1.8135,1.8534,2.7131,2.7884,1.6065,3.6802,3.2131,7.3604,4.8196,11.0406-2.2536,5.8123.7058,8.4024,5.9311,9.5921.8305,1.375,1.661,2.75,2.4916,4.125.0724,1.7034.1448,3.4067.2172,5.1101-.2352.7928-.4412,1.5799.4212,2.1587.0634,2.6408-.2919,5.3753.2739,7.9038,1.3356,5.968-3.2106,9.9786-4.6228,15.0108-.7846,2.7959-4.1239,2.1165-6.4306,2.7125-2.5904-.8204-6.4908-.0304-7.2995-3.2011-1.0093-3.9571-3.5959-7.421-3.9298-11.3437-.4901-5.7574-.0262-11.602.1443-17.4061.0569-1.9386,1.1067-3.7483,2.8664-4.3329,3.8456-1.2777,3.6768-4.1442,3.3269-7.1538-.4898-4.2143-2.0351-8.0761-4.7216-11.3372-4.814-5.8438-8.0503-6.3161-14.1108-3.4371-3.318,1.5762-2.5816,2.7459-.9036,5.0401,6.9327,9.4779,6.3994,22.8118-1.1431,31.7577-1.0872,1.2895-2.4629,2.418-2.0458,4.2824,2.2794,10.1867-.7898,19.3241-5.4048,28.1757-1.1875,2.2128-4.2608,3.534-3.2167,6.8017l-.1719.1948c-.6547-.7108-1.1404-.5671-1.4844.2935-2.7352,1.7191-4.3107,3.6184-.9762,6.2805,1.1761,2.6719,2.3521,5.3438,3.5299,8.0132.0017-.0025-.0133.0225-.0133.0225ZM126.384,164.1958c.5376,1.9349,2.1178,2.9901,3.683,3.8223,7.5042,3.9897,15.2113,4.1108,23.0161.8621,10.9474-3.546,13.5218-14.635,5.2383-22.4561-.6569-.6203-1.3166-1.1392-2.1664-.8221-7.1467,2.6662-15.075,2.0641-22.0796,5.3012-2.2678.3435-3.9359,1.5708-5.1377,3.4852-1.9264.9355-3.0172,2.5961-3.5103,4.5565-.401,1.5944-.7674,3.5256,2.0942,3.0256l.3164.1001c-1.5672-.0319-1.9921.7174-1.454,2.1253ZM150.8736,105.089c5.947-.1804,11.1069-2.8173,16.2284-5.5797,1.9456-1.0494,1.569-2.5242,1.0252-4.242-2.0181-6.3752-6.0265-10.5504-12.6894-11.9997-8.2149-1.7868-16.1075-.9157-22.407,4.8209-5.2223,4.7556-2.3449,13.7181,4.4711,15.0919,4.3774.8823,8.8523,1.2809,13.3716,1.9086ZM77.9453,8.2707c.3395.5762.6594,1.1355.9947,1.6853,1.6852,2.7629,6.194,4.7502.6681,8.7995-2.6345,1.9305-3.3129,1.1346-4.486-.4104-.9724-1.2806-1.4292-2.9511-2.124-4.4444-.4412-.9484-.338-2.7522-2.0284-2.1017-1.8934.7286-.7706,2.1422-.2391,3.2942.4159.9013.8585,1.7904,1.2937,2.6827,4.2971,8.8113,3.4965,7.0391,10.4486,1.8979,3.4819-2.5749,5.4082-1.7766,7.1585,1.2644,1.5612,2.7125,2.6591,5.6894,4.0051,8.5289.459.9683.5945,2.6046,2.194,2.1068,1.7775-.5532,1.1961-2.0096.822-3.3202-1.7324-6.0682-4.4402-11.7041-7.7158-17.0582-3.3181-5.4236-4.2389-5.6072-10.9915-2.9248ZM6.518,38.1985c2.1006-3.1311,2.7272-6.4788,2.5679-9.9777-.1791-3.9348,1.8254-5.8208,5.7042-5.8369,1.6631-.0069,3.3262-.0279,4.9893-.0321,1.0453-.0026,2.2002-.0988,2.1475-1.4309-.1376-3.478-.4184-6.9516-.7026-10.4219-.1093-1.3347-1.1726-1.4561-2.2091-1.3958-1.8992.1106-3.8476.5809-4.2629,2.6545-.3727,1.8609-1.7126,4.303,1.5513,5.3157,2.7217.8445,1.6287,2.0798.0068,2.8323-2.6164,1.2139-4.5627.5318-5.1217-2.5562-.3113-1.7197.2712-3.578-1.0879-5.9449-.9448,2.0893-3.5569,2.0987-3.5695,4.5838-.0373,7.4031-.0134,14.8066-.0134,22.2099ZM199.2449,96.8381c-.0063,0-.0125,0-.0188,0,0,1.16-.0801,2.3268.0183,3.4783.1589,1.8611-.8736,4.4772,1.7072,5.1278,2.3315.5878,5.3012,1.0527,7.2471.0829,1.936-.9649.5772-3.7917.274-5.87-.3563-2.4415-.5481-4.9579-.3806-7.4124.2235-3.2754-1.5185-3.8802-4.2098-3.9588-2.9319-.0856-4.9132.5956-4.6557,4.0797.1096,1.4831.0183,2.9811.0183,4.4724ZM81.9384,110.7032c1.5743-.3088,4.2949-.0066,4.7554-2.1303.634-2.924-.5683-5.9186-2.3894-8.3353-1.5005-1.9913-3.7324-2.6789-6.2037-1.8491-2.9575.9931-5.1194,2.9997-4.4263,6.2039.8581,3.9674,3.7572,6.0653,8.2639,6.1108ZM116.9137,135.1161c.5464-.0587,2.303.0766,3.778-.5037,1.2873-.5064,2.6237-1.6476,2.6254-3.3144.0015-1.4229-.9347-2.5018-2.3018-2.8675-3.3353-.8923-6.6972-1.6191-10.2085-1.4284-1.4574.0792-1.8998.7443-2.2478,2.0407-1.2017,4.4772.3145,5.776,8.3546,6.0733ZM34.667,109.0166c-2.2801-8.4406-9.3447-14.6684-16.8955-15.3756,3.1286,7.7288,8.7853,12.2006,16.8955,15.3756ZM180.8411,39.992c1.0429,3.512,1.4685,8.7097,5.2432,9.1264,2.5087.277,3.4386-5.0371,3.6297-8.2637.1972-3.3299-1.4248-6.0491-5.1091-6.0039-2.8541.035-3.5041,2.5671-3.7637,5.1412ZM166.4465,61.0907c-4.979-2.9881-10.0838-3.2367-15.1713-3.4471-1.7761-.0735-4.1242-.3274-4.5439,1.9639-.4543,2.4801,1.9798,3.5103,3.742,3.9574,5.4017,1.3707,10.6221.5643,15.9732-2.4742ZM102.6633,65.6137c-6.2269,9.355-6.0132,16.1183.5017,20.3529,1.589-6.7133,1.5561-13.1365-.5017-20.3529ZM30.2923,15.2248c.2033-2.3828-.2462-4.7649-2.976-4.7903-2.5993-.0242-.9881,2.5538-1.4306,3.9062-.302.9231-.356,1.9601-.3465,2.9445.0135,1.3931-.662,3.3811,1.3152,3.7337,1.7484.3119,2.3498-1.552,2.8984-2.8916.3651-.8917.3722-1.9299.5396-2.9025ZM70.5416,25.5668c-.8471-1.7787-1.5101-3.4661-2.4266-5.0023-.7402-1.2408-.3412-4.0474-2.5909-3.3007-1.5032.4989-1.1516,2.936-.8351,4.5511.5986,3.0544,2.3165,4.6243,5.8527,3.7519Z"/>
  <path class="cls-2" d="M77.9453,8.2707c6.7526-2.6824,7.6733-2.4987,10.9915,2.9248,3.2756,5.354,5.9834,10.99,7.7158,17.0582.3741,1.3106.9555,2.767-.822,3.3202-1.5995.4978-1.735-1.1385-2.194-2.1068-1.346-2.8395-2.4439-5.8164-4.0051-8.5289-1.7503-3.041-3.6766-3.8393-7.1585-1.2644-6.9521,5.1412-6.1515,6.9134-10.4486-1.8979-.4352-.8923-.8778-1.7814-1.2937-2.6827-.5316-1.1521-1.6544-2.5656.2391-3.2942,1.6904-.6505,1.5872,1.1533,2.0284,2.1017.6947,1.4933,1.1516,3.1638,2.124,4.4444,1.1731,1.5449,1.8515,2.3408,4.486.4104,5.526-4.0493,1.0171-6.0366-.6681-8.7995-.3354-.5498-.6552-1.1091-.9947-1.6853Z"/>
  <path class="cls-2" d="M6.518,38.1985c0-7.4033-.024-14.8068.0134-22.2099.0126-2.4852,2.6247-2.4945,3.5695-4.5838,1.3591,2.3669.7766,4.2252,1.0879,5.9449.5589,3.088,2.5053,3.7701,5.1217,2.5562,1.6219-.7525,2.7149-1.9878-.0068-2.8323-3.2639-1.0128-1.924-3.4549-1.5513-5.3157.4153-2.0737,2.3638-2.544,4.2629-2.6545,1.0365-.0603,2.0997.0611,2.2091,1.3958.2843,3.4704.5651,6.9439.7026,10.4219.0527,1.332-1.1022,1.4283-2.1475,1.4309-1.6631.0041-3.3262.0252-4.9893.0321-3.8788.0161-5.8833,1.9021-5.7042,5.8369.1592,3.4989-.4673,6.8467-2.5679,9.9777Z"/>
  <path class="cls-2" d="M199.2449,96.8381c0-1.4912.0913-2.9892-.0183-4.4724-.2576-3.4841,1.7238-4.1653,4.6557-4.0797,2.6913.0786,4.4333.6833,4.2098,3.9588-.1675,2.4545.0243,4.9709.3806,7.4124.3033,2.0782,1.662,4.9051-.274,5.87-1.946.9698-4.9156.5049-7.2471-.0829-2.5808-.6506-1.5483-3.2667-1.7072-5.1278-.0983-1.1516-.0183-2.3184-.0183-3.4783.0063,0,.0125,0,.0188,0Z"/>
  <path class="cls-2" d="M116.9137,135.1161c-8.0402-.2973-9.5563-1.596-8.3546-6.0733.348-1.2964.7904-1.9615,2.2478-2.0407,3.5113-.1907,6.8732.536,10.2085,1.4284,1.367.3657,2.3032,1.4446,2.3018,2.8675-.0017,1.6667-1.3381,2.808-2.6254,3.3144-1.475.5803-3.2316.445-3.778.5037Z"/>
  <path class="cls-2" d="M34.667,109.0166c-8.1102-3.175-13.7669-7.6468-16.8955-15.3756,7.5507.7073,14.6153,6.9351,16.8955,15.3756Z"/>
  <path class="cls-2" d="M102.6633,65.6137c2.0578,7.2165,2.0906,13.6396.5017,20.3529-6.5148-4.2346-6.7286-10.998-.5017-20.3529Z"/>
  <path class="cls-3" d="M30.2923,15.2248c-.1673.9726-.1744,2.0108-.5396,2.9025-.5486,1.3396-1.1499,3.2035-2.8984,2.8916-1.9772-.3527-1.3017-2.3406-1.3152-3.7337-.0095-.9844.0445-2.0214.3465-2.9445.4425-1.3524-1.1687-3.9304,1.4306-3.9062,2.7298.0254,3.1794,2.4075,2.976,4.7903Z"/>
  <path class="cls-3" d="M70.5416,25.5668c-3.5361.8724-5.2541-.6975-5.8527-3.7519-.3165-1.615-.6681-4.0521.8351-4.5511,2.2497-.7467,1.8508,2.0599,2.5909,3.3007.9165,1.5363,1.5795,3.2236,2.4266,5.0023Z"/>
</svg>