<?xml version="1.0" encoding="UTF-8"?>
<svg id="Layer_1" xmlns="http://www.w3.org/2000/svg" viewBox="0 0 335.3548 186.0308">
  <defs>
    <style>
      .cls-1 {
        fill: #a4b0b9;
      }

      .cls-2 {
        fill: #fddb3d;
      }

      .cls-3 {
        fill: #0bac8c;
      }

      .cls-4 {
        fill: #314247;
      }

      .cls-5 {
        fill: #f05a68;
      }

      .cls-6 {
        fill: #61605c;
      }

      .cls-7 {
        fill: #203031;
      }

      .cls-8 {
        fill: #3d90ce;
      }
    </style>
  </defs>
  <path class="cls-3" d="M29.7721,107.2846l.3015-.0087s.1061.2711.1061.2712c.205.6378.41,1.2756.6136,1.914-1.4819,1.4202-2.9855,2.6894-5.2268,2.8237-1.3528.081-2.2964,1.0664-2.8853,2.315-.439.9307-.1838,1.4343,1.2055,2.2509.1551-1.1179.0127-2.3867,1.3339-2.9366,1.0967-.4564,2.2223-.6677,3.3745-.1527.7049.3151,1.3941.7058,2.1333.8867.3646.0892.8267-.2203,1.3029-.3674-.6232-1.0686-1.1082-1.9001-1.5641-2.6819,1.1443-1.203,2.2369-1.0871,3.3376-.4698,1.6574.9295,2.1972,1.9484,2.6297,4.8194.3574.0127.7266.0259,1.0959.0387.7058.7296,1.4869,1.3972,1.5,2.5546.0182,1.6106.8573,2.9067,1.7069,4.1892.0329.8428.3002,1.5522,1.1114,1.9517.1188.8603.6129,1.4911,1.4544,1.5275,1.3197.0571,1.0926,1.1295,1.4113,1.8529,1.0394.4057,2.0799.8118,3.248,1.2677-.011,1.0776-.0209,2.0369-.0302,2.948,1.1908.3752,1.8547-.1225,2.3696-.9508.7102.4927,1.4205.9853,2.1307,1.478-.0587.2475-.2201.6828-.1611.7151,1.6882.9232,3.416,1.7911,5.34.6497,1.2483-.7406,2.196-.3537,3.0308.6583,1.3597,1.6482,2.9648,3.1347,3.3604,5.6199,3.2565-.5001,5.2278,1.2372,6.7871,3.6189.3462.5287.5054,1.1798.7489,1.7738-.3287,1.3345-.6555,2.6698-.9823,4.0052,0,0,.0109-.0319.0109-.0319-.2029.3079-.4059.6158-.6089.9237,0,0-.0097.011-.0097.011-.9563.4027-2.2575.4422-2.1121,2.0056-1.8109.6863-2.672,1.8486-2.1816,3.887.1304.5419-.2405,1.2043-.3813,1.8114-.2322-.4207-.4645-.8414-.6885-1.2472-1.2031.1815-.819,2.1623-2.482,1.6643-.2573-1.1553-.8367-2.4144-.7306-3.6128.1395-1.5753-.6359-2.6267-1.423-3.5792.2088-.4541.2749-.7122.4246-.9056,1.6694-2.1586,1.7352-2.6763.3807-4.6996-1.0108-1.5099-2.4056-2.6245-3.8902-3.7069-.6328.3236-1.1919.6094-1.751.8954-.8313.0224-1.5681.1588-1.5043,1.422,1.6436,1.116,3.866,1.8761,4.2095,4.3853-.6309.3834-1.2308.748-1.6567,1.0068.5947,1.1915,1.095,2.1942,1.5954,3.1968-.1496.3726-.2991.7452-.4487,1.1178,0,0-.0016-.0009-.0017-.0008-.2455.2915-.4909.5829-.7363.8743-2.1862.7873-4.231,1.0138-5.9499-1.0699-.4448-.5392-1.166-.4021-1.5097.3634.3364,1.1095.7518,2.1828.9701,3.2949.1687.8594-.2508,1.4909-1.2355,1.5539.0363-.3719.0322-.7532.1171-1.1136.1883-.7992-.1979-1.2089-.9059-1.3706-.644-.1471-.9673.3305-.8761,1.2938.0473.5001.155.9945.2354,1.4914-1.8461-.3074-3.3074-.896-3.687-3.1284-.1358-.7989-1.2735-1.4275-2.2045-2.3939.3352,1.8183-.4811,3.3262.4593,4.6942-.7571,1.3549-1.6494,2.2856-3.304,1.1811-.9771-.6524-1.9385-.2335-2.883.149-.3363-.0914-.7642-.36-.9921-.242-.7818.4045-1.4386,1.0815-2.2434,1.4041-1.6251.6513-3.0336-.1214-4.3154-1.0331-1.0337-.7351-1.4065-1.7632-.9514-3.1139.8695-.2817,1.7208-.5349,2.5556-.8345.8013-.2876,1.3032-.8298,1.1792-1.7431-.1245-.9173-.9068-1.6834-1.8501-1.6499-.7513.0267-1.5153.225-2.2349.4637-.6893.2286-1.3287.6074-2.0645.9555-1.0124-1.079-2.105-1.8046-2.2889-3.2233.5402-.2507,1.0805-.5013,1.3074-.6066.1574-2.6373.2913-4.8814.4218-7.0677-1.0816-.575-1.839-.3816-2.4.548-1.0763,1.7834-1.3534,3.556-.0702,5.3935.3564.5103.5067,1.1647.7515,1.753-.7107.504-.7061,1.208-.4502,1.9111.2429.6673.5924,1.2958.895,1.9414-.8859.0949-1.7699.2308-2.6584.2735-.953.0459-1.8845-.754-2.9217-.1546,2.4503,2.8392,2.6723,2.9406,5.8544,2.6531.5092-.0461,1.0155-.1242,1.5231-.1876.1944,1.9237,1.2554,3.1971,2.8609,4.2235,1.584,1.0128,3.2818,1.2629,5.0697,1.2987,4.0758,1.1405,7.3595-.4098,10.3192-3.0547.4708.1869.9524.3509,1.4108.5644,4.1261,1.9213,4.7963,1.7681,7.7144-1.7923,2.7592-.0764,5.5185-.1528,8.2914-.2295.3498,1.5047.07,2.5031-.9385,3.3267-1.0424.8514-2.147,1.1811-3.5334,1.1272-1.5953-.062-3.2418-.9393-4.9402.0573,3.7259,1.1968,5.6308,1.0901,8.6009-.1599,1.5134-.6368,3.1292-1.0302,4.6987-1.5337-.0127.5984.1721,1.3021-.079,1.7733-.5293.9929-1.287,1.864-1.9511,2.7851-1.1359.2288-2.2719.4577-3.4078.6865-1.4904-.3161-2.97-.7206-4.4765-.9042-.5933-.0723-.7053.5813-.5006,1.1345-.1241.1307-.2135.282-.2683.4537-.2288.2859-.5993.5429-.6642.8622-.5754,2.8293-2.3422,4.6523-4.8359,5.8915-2.2331.2426-4.1847-.4701-5.9293-1.805-.8572-.6559-1.707-1.0311-2.7214-.3699-.8553.2376-1.7077.4865-2.5664.7109-3.5926.9391-6.7814-.4588-8.5957-3.7538-.3675-.6675-.7405-1.3328-1.1353-1.9844-.5003-.8256-1.2659-.6803-2.0279-.5132-.1257-.0714-.2571-.13-.3941-.176-.4713-1.2193-1.3135-1.7109-2.6543-1.6124-1.2427.0913-2.503-.0912-3.7545-.0755-.8559.0107-1.7102.1546-2.5652.239-.5943-.2247-1.3188-.3033-1.7615-.698-2.6296-2.3447-4.771-4.9769-4.6175-8.804.0588-1.467-.1545-2.8304-1.7341-3.5004-.3354.0892-.6707.1784-1.0061.2676,0,0,.0468.0285.0468.0285-.1792-.5624-.3584-1.1247-.5376-1.6871-.3232-.3801-.6465-.7602-.9697-1.1403,0,0,.0171.0227.0171.0227-.3508-.4791-.7015-.9581-1.0523-1.4372,0,0,.0248.0364.0248.0364-.4668-1.1782-.9335-2.3564-1.4003-3.5346-.129-.1183-.236-.2539-.3211-.4067-.158-.6548-.3159-1.3097-.4739-1.9645,0,0,.0052.0273.0052.0273,1.868-.5237,2.1528-2.2576,2.9992-3.5681-.5591-.6016-1.3471-1.0674-1.3245-1.4896.1124-2.0934-1.5368-3.4233-2.048-5.2192-.0043-2.8812,1.3967-4.8682,3.9092-6.1496,1.9908-1.0153,3.2535-2.2837,2.7755-4.8779-.4057-2.2019.7991-3.9131,2.6492-5.2001,2.1121-1.4694,4.3334-2.1741,6.9198-1.681,1.0973.2092,2.2724.6806,3.461-.2902.6535-3.2159,2.5338-5.3497,6.0812-5.7524.7629-.0866,1.5067-.3404,2.2594-.5171ZM47.2212,142.4791c-.7254-.0929-1.4508-.1858-2.5619-.3281,1.1899,1.6319-.2233,2.5252-.4785,3.6986-1.66.1837-3.2702-.0238-4.9115-.3534-1.1574-.2324-2.5296-.6916-3.5299.5575-.5152-.0167-1.0309-.0258-1.5457-.0517-1.247-.0627-2.264-.6324-2.8975-1.6646-.5462-.8898-.7634-1.9143-.0746-3.0942.463-.1678,1.0611-.3694,1.6473-.6011.627-.2477,1.2456-.6359.8957-1.3828-.1641-.3503-.7843-.5233-1.2303-.6897-.2142-.0799-.5031.0627-.7591.0696-2.0969.0561-2.8218-.4639-3.0507-2.468-.0807-.7063.0797-1.5872.4743-2.1444.2286-.3228,1.1483-.1278,1.7449-.2338.2091-.0372.3823-.2771.6306-.4701-.1309-.3225-.1923-.7289-.4198-.9911-1.1485-1.3235-2.2041-1.2448-3.0086.2315-.4888.8969-.8834,1.8452-1.3203,2.7704-1.1152-.4576-1.5797-1.239-1.1804-2.4262.325-.9662.7365-1.9084.9905-2.892.2329-.9018.8645-1.7267.8034-3.005-3.984,1.607-3.0122,5.3644-4.3263,7.9738,1.2985.7988,2.4605,1.1464,3.7158.3642.5183,1.9664.9194,3.9883,2.6404,5.215-.1199.8398-.1842,1.4701-.303,2.0899-.4681,2.4409,1.3175,3.3375,2.9402,4.3807,1.6064,1.0328,2.6029.007,3.6295-.9909,2.5792,2.7065,5.8745,3.5132,9.442,3.4265,2.471-.0601,3.4258-2.1482,2.2055-4.5952.0541-.6172.1082-1.2344.1622-1.8517.3348-.4454.1015-.552-.3243-.5437ZM17.0564,145.0298c.2548-.1769.5095-.3538.7643-.5307-.1057-.0144-.2695-.0786-.3071-.0346-.157.1834-.2761.3993-.4091.6032-.8521.2729-1.8154.777-2.5479.0626-.5973-.5825-.9785-1.4554-1.2709-2.2662-.4888-1.3557-.1721-2.5074,1.1804-3.2645.1688-.0945.1979-.4387.3523-.8146-.3712-.2608-.7336-.6396-1.1758-.8046-1.9403-.7241-2.2067-2.3865-2.2451-4.0819-.0409-1.8071,1.999-3.2815,3.7494-2.7779.9003.259,1.7561.6733,2.7072,1.0469.0404-.54.1698-.8647.0602-1.0147-1.6827-2.3026-3.3605-2.6136-5.5218-1.0608-2.6719,1.9198-3.1569,3.501-1.9303,6.6424.3682.9428.9199,1.814,1.3798,2.7032-.1301,1.1824-.366,2.3292-.3586,3.4745.0137,2.146,1.8752,3.9115,4.0076,3.8349,1.0028-.0361,1.7211-.5282,1.5656-1.7173ZM39.2446,126.6094c.0364-2.4947-.8313-3.6518-2.8077-4.2711-1.163-.3644-2.2987-.3444-3.3573.2617-.2599.1489-.3576.5813-.554.9256q3.8566.5177,6.719,3.0837ZM48.4614,166.5107c-.8592.4673-1.6466,1.0335-2.525,1.3331-.8138.2777-1.9269-.5208-2.6761.6246,3.3142,1.1728,5.5558.3303,5.2011-1.9578ZM33.3076,156.454c1.4488.5446,2.4872.8237,3.6305.0739-.2122-.4054-.3058-.9033-.5469-.9897-1.0053-.3604-1.9341-.1068-3.0836.9158ZM26.1423,120.6612c-2.6381-1.3387-3.5069-1.0477-3.9626.8826l3.9626-.8826ZM49.6051,142.7156l-.1933-.2931-.0597.3434.253-.0503Z"/>
  <path class="cls-7" d="M96.8614,145.436c-.4662-.3847-.9325-.7693-1.3983-1.1536-.2707-.2039-.5418-.4081-.8128-.6123-.3317-.1986-.6634-.3972-.9951-.5958-.3486-.1561-.6972-.3121-1.0458-.4682-.2076.0559-.4171.0641-.6285.0246-.3915-.7216-.783-1.4432-1.1744-2.1648-2.9234-3.8128-3.7605-8.1323-3.1107-12.8127.053-.2688.106-.5377.159-.8065-.8242-1.0119-1.6484-2.0237-2.4726-3.0355.4307-.3776,1.3133-.2054,1.3337-.6452-.7688-.6568-1.3328-1.1727-1.9317-1.6443-2.9024-2.2853-5.7654-4.6254-8.7442-6.8069-1.3975-1.0234-2.0223-2.2398-1.9374-3.9047,2.7817,1.6032,5.5379,3.2528,8.3522,4.7967,2.7769,1.5235,4.9089,4.0929,7.9983,5.1325.8095-.9081,1.538-1.6393,2.1418-2.4621.1534-.209-.09-.7093-.1511-1.0757l1.6856-.4173c.3825-.0319.8019.0278,1.1418-.1096,4.5565-1.8413,9.0221-1.486,13.4535.4507.2791.122.6984-.0768,1.0507-.1262.5717-3.0209-.1699-5.5954-1.8071-8.0881-1.156-1.7602-2.4895-3.2445-4.2353-4.3645-3.1256-2.0053-6.1415-4.1938-9.6505-5.5517-1.1861-.459-2.2365-1.2583-3.4036-1.7796-1.856-.8289-3.6625-1.9338-5.8506-1.4914.6393-.9808,1.7645-.877,2.697-1.1928.8282-.2805,1.7703-.3253,2.265-1.218.1693-.1555.3672-.2531.5936-.2928.5688.1657,1.142.3175,1.7048.5015.4511.1474.8895.3337,1.3335.5027,4.297,1.455,7.9115,4.1316,11.679,6.5329,1.7249,1.0994,3.4358,2.2208,5.1529,3.3321.4492.6355.8984,1.271,1.3476,1.9067.0779.9237.2215,1.7998,1.3041,1.9277,1.4171-.7429,2.7606-1.4472,4.1039-2.1515.073.3813.1462.7627.2199,1.1451-.2148.123-.44.223-.6749.3011-.457.3331-.4823.6083.1075.8009,0,0,.052.0471.052.0471.2747.4151.4721.9235.8388,1.2275,1.0314.8549,2.151.4944,3.2019.0077.8668-.4014.7322-1.2164.6485-1.9753.5207-.038,1.0414-.0759,1.5621-.1138.1447.6268.3548,1.279,1.0864,1.3425,1.1008.0955,2.2128.0608,3.32.0815,1.2877-.0045,2.5764-.9113,3.8631.0047.3169.528.5128,1.3396.9714,1.5353,2.0902.8915,4.2005,1.8605,6.404,2.3339,3.6154.7766,7.0165,2.1608,10.5301,3.2149,1.0529.3159,1.3274,1.076,1.4952,1.9855-1.6232-.3928-3.276-.6921-4.8645-1.1948-6.4296-2.035-12.9563-3.2298-19.7476-3.0807-3.2702.0717-6.3753.8105-9.5198,1.4555-1.2835.2632-2.2319,1.0214-2.4888,2.7275,4.5291-1.6097,8.9271-1.9315,13.3914-.8617-.725,1.4127-2.2089,1.0092-3.3592,1.4039l-.3445.0789c-.9848-.7587-1.9917-.3138-2.9951-.055-1.2317.3413-2.502.584-3.6859,1.0475-1.6581.6493-3.3843,1.2644-4.8488,2.2425-5.0456,3.3695-8.6264,7.9297-10.4308,13.7766-1.0539,3.4148-2.018,6.8575-3.0226,10.2876-.4172.0121-.8344.0242-1.2516.0363-.2114-.0696-.4137-.0491-.6069.0614ZM101.191,130.4069s.0373-.0602.0373-.0602c.3929-.451.9285-.8402,1.1546-1.3634,1.0944-2.5314,2.7029-4.6723,4.6799-6.5671.3514-.3368.6123-.7679.9233-1.1661-2.7967-1.8107-5.4781-2.4666-8.5105-1.9389-2.0191.3514-4.1279.6299-5.5709,2.365-5.0324,6.0512-5.4971,13.0709.8897,19.1879,1.5377,1.4728,2.7257,1.2011,3.4073-.7019,1.0822-3.0212,2.1689-6.0408,3.2229-9.0719.0623-.1791-.1494-.4535-.2337-.6836Z"/>
  <path class="cls-7" d="M295.8948,53.4387c-.3822.9445-1.6609,1.485-1.2546,2.7846-.0567.3239-.1133.6482-.1701.9724-.4043,1.4555-1.5036,2.6097-1.6044,4.2485-.0468.7615-.7764,1.6481-1.4394,2.1682-1.1909.9342-1.7867,2.1642-2.2507,3.4982-.9284,2.6695-1.8863,5.333-2.6873,8.0418-3.3156,11.2125-7.5567,22.1316-10.5739,33.4384-.2954,1.1071-.7437,2.1732-1.1228,3.2569-.0018-.0015-.0523-.098-.0523-.098-.2959,1.2799-.5919,2.5598-.8878,3.8396-.6517.0082-1.3879-.0089-1.2707-.9092.1371-1.0529-.0614-1.9124-.5904-2.8575-.5375-.9603-.704-2.1284-1.0335-3.2069-.0005-.0014.1546-.1933.1546-.1933.3532-.3516.9306-.6531,1.0222-1.0632.493-2.206,1.296-4.1055,3.4679-5.2378.7032-.3666.8281-1.3827.3822-2.0805-1.2989-2.0327-.7359-3.728.98-5.0282,1.6209-1.2282,2.1205-2.9392,2.2324-4.706.1273-2.0121-.1765-4.0515-.293-6.0791-.0724-.2471-.0239-.4675.1454-.6614.3974-.4579,1.068-.8749,1.1436-1.3808.2844-1.9031,1.4202-3.1939,2.8258-4.1926-.2157-1.3496-.4371-2.482-.5658-3.6248-.0926-.8215.2149-1.6997.9897-1.9012,1.9494-.507,2.3698-2.2196,3.0837-3.6489,2.2291-4.4631,2.0846-5.0949-1.505-8.6362-.083-.0819-.2362-.0925-.3567-.1364-1.2131-1.419-2.4905-2.7471-4.433-3.1341-.2498-.2506-.4988-.502-.7494-.7518-.3798-.3788-.4693-.767-.0424-1.1743,2.5346.345,4.8313,1.4797,7.2521,2.4622.0309-1.9642.0405-1.9744-.5763-2.5538-1.0992-1.0323-2.2112-2.0509-3.318-3.0755.2342-.4056.4686-.811.703-1.2164,1.4968.9217,2.9823,1.8626,4.4965,2.7548.5346.3151.928.055,1.1546-.5983-1.001-2.0806-3.1097-3.1411-4.6885-4.7157l.6738-.8901c1.5895.748,3.179,1.4959,4.791,2.2545.322-1.2003-.3574-1.9112-1.0268-2.7122-.9585-1.1469-2.3562-2.0273-2.5024-3.727.2913-.1164.6793-.4138.8579-.3185.9492.5066,1.8459,1.1115,2.7608,1.6824.3906,1.9175,1.9718,2.7952,3.3734,3.8155.1425.1037.5798.0454.6809-.0884.2021-.2677.4018-.6561.3646-.966-.2152-1.7903-1.5144-2.4815-3.0672-2.8777.0702-1.2973-.6877-2.1468-1.6209-2.8534-2.1154-1.6019-4.2594-3.1662-6.3917-4.7457,1.4389-.659,2.7105-.2359,3.845.684,1.3112,1.063,2.7488,1.0686,4.2695.6823.3788.9049.5963,1.9322,1.1708,2.6883,1.1066,1.4564,2.4152,2.7593,3.64,4.1258.3166,1.2518.6332,2.5036.9498,3.7553.1652,1.0003-.6626,1.3295-1.2363,1.8302-.5676.2495-.7342.5154-.033.8167.1018.4935.2036.9869.3056,1.4801-.1241.253-.2483.5063-.3726.7596Z"/>
  <path class="cls-4" d="M291.4706,37.9826c-1.5207.3863-2.9583.3807-4.2695-.6823-1.1345-.9199-2.4061-1.343-3.8448-.6842.0003-.0002.0639-.018.0639-.018-.3249-.21-.6497-.42-.9746-.63,0,0-.0053.1973-.0053.1973-.0448-.8274-.3635-1.5228-1.1444-1.8576-.7034-.3016-1.481-.4323-2.1795-.7428-.3794-.1687-.6621-.5548-1.1493-.9849,3.8487-2.2486,7.8257-3.2875,11.6845-4.5046,3.4412-1.0855,6.5016-2.6207,9.2782-4.9167-.3027-.2488-.4939-.4059-.6846-.5624.566-.3022,1.1315-.6051,1.6969-.908.2686.7976.4715,1.6695,1.8649,1.4835-.1113-.65-.2115-1.2349-.3117-1.8198.891-.4906,1.7545-1.0418,2.6781-1.4606,3.0283-1.3733,6.1335-2.5876,9.1072-4.068,4.5792-2.2796,9.0121-4.8586,13.6276-7.0575,2.7696-1.3196,4.9236-3.1508,6.5747-5.6676.8366-.3573.9349-1.0237.7562-1.8063l-.2706-.0967c.3707-.0011.7414-.0022,1.1122-.0034.0243,3.9785-2.2632,6.9055-4.4953,9.8538-.0509.0673-.2472.0245-.3759.033-.4158-.4513-.8315-.9026-1.401-1.5212-1.6425.8004-3.2967,1.4841-4.8298,2.376-4.8774,2.8375-9.9031,5.3424-15.2136,7.2733-1.5571.5662-3.0718,1.2628-4.5677,1.9795-1.2896.6179-1.5812,1.3657-1.1854,2.8366.1257.4674.4346.8855.732,1.4678.8173-.2613,1.5603-.4053,2.2183-.7246,3.6812-1.7861,7.3796-3.5426,10.9998-5.4467,4.4132-2.3212,8.885-4.5772,12.5185-8.1176.1449-.1411.4786-.0884.7242-.126-.3369,2.2839-2.1289,3.4442-3.8148,4.4842-2.7272,1.6823-5.612,3.1147-8.4617,4.5918-4.5593,2.3633-9.1444,4.6767-13.8339,7.0699.041.9998-.0315,1.8862.1292,2.7281,1.3294,6.9663-1.0925,12.3483-6.8176,16.4067-.0563.7063-.1157,1.4509-.175,2.1955-.3166-1.2518-.6332-2.5036-.9494-3.755.0004.0003.0792-.1072.0792-.1072,3.0401-1.3707,4.5792-3.9862,5.6155-6.9481,1.4504-4.1454.8218-8.2122-.7025-12.5281-.8801,2.9036-3.848,2.767-5.6143,4.5307.338.425.6507.7958.9377,1.1855.2993.4063.6327.8029.8468,1.2533.4335.9121.0934,1.8446-.8364,2.1964-.9348.3538-2.0641.3063-2.6034,1.3912-.8446.7373-1.6892,1.4746-2.5338,2.2118Z"/>
  <path class="cls-4" d="M270.9574,108.6172c.329,1.0771.4955,2.2451,1.033,3.2054.5289.9451.7275,1.8046.5904,2.8575-.1172.9003.6191.9174,1.2707.9092-.585,2.4914-1.0857,5.0063-1.7747,7.4685-1.0413,3.7214-2.2047,7.4088-3.3335,11.1053-1.1283,3.6949-2.3206,7.3706-3.4044,11.0784-.8293,2.8375-1.5332,5.7117-2.2927,8.5692-.0614.2427-.123.4858-.1846.7288-.0859.2838-.1718.5676-.2575.8513-.1331-.0529-.2679-.1012-.4043-.145-.4038-.3053-.8441-.573-1.2036-.9236-.7241-.706-2.2702-1.7334-3.2186-2.1278-.9435-.3923-1.8542-.8482-2.1844-1.9433.3205-.938.2208-2.2889,1.2947-2.5892.948-.265,1.2302-.7483,1.4228-1.5141.816-3.2456,1.7959-6.4614,2.3988-9.7463.6778-3.6926,1.7195-7.2072,3.3289-10.6077.8085-1.7082,1.0913-3.6638,1.6273-5.503.2126-.7295.3289-1.5354.7263-2.1541,1.6226-2.5264,2.6117-5.2881,3.388-8.1628.1405-.5203.7725-.9079,1.1776-1.3568Z"/>
  <path class="cls-6" d="M111.6019,105.7956c-.4493-.6356-.8985-1.2711-1.3477-1.9066.6037-.1506,1.3693-.1156,1.7866-.4798,6.1351-5.3538,13.4085-6.2345,21.0498-5.1936,9.6264,1.3113,18.8696,4.0156,27.7252,8.0888,3.3847,1.5568,6.9728,2.6753,10.4819,3.9561,4.1122,1.501,8.2253,3.002,12.3631,4.4301,7.3029,2.5204,14.7107,4.7637,21.9109,7.5466,5.4034,2.0884,10.8786,3.9314,16.3439,5.8232-.3905.3185-.7811.6369-1.1718.9554-4.503-1.5427-9.0167-3.0552-13.5054-4.6384-3.1554-1.1128-6.2272-2.485-9.4226-3.458-11.0648-3.3696-21.9061-7.3852-32.82-11.191-1.4562-.5078-2.9154-1.0568-4.281-1.7647-4.3414-2.2505-8.9269-3.8677-13.5821-5.2799-5.5545-1.685-11.2453-2.8269-17.0401-3.1323-6.9374-.3657-13.2735,1.3618-18.4906,6.244Z"/>
  <path class="cls-7" d="M298.2449,22.5956c.1912.1572.3824.3143.6851.5631-2.7766,2.296-5.8371,3.8313-9.2782,4.9167-3.8588,1.2171-7.8358,2.256-11.6845,4.5046.4872.43.7699.8162,1.1493.9849.6985.3105,1.476.4412,2.1795.7428.7808.3348,1.0995,1.0301,1.1444,1.8563-1.3624-.1633-2.7249-.3254-4.0874-.4875-1.5775-1.1447-3.3903-.9508-5.1556-.8164-.5955.0453-1.2201.4054-1.7225.7712-.4705.3424-1.162.6577-.934,1.5956,1.4248.2621,2.9039.463,4.3394.833.5902.1521,1.1288.6498.6728,1.4609-1.5119.4641-2.6773-.6356-4.0217-.8377-.5275-.0793-1.2259.2565-1.6727.6181-.2937.2377-.2764.8597-.4358,1.4477,2.168.5524,4.1287,1.052,6.0894,1.5515l.6258.5906c-.7811.6899-.4763,1.5149-.2892,2.3252-.5818.156-1.1635.312-1.7453.468-.0749.2404-.1498.4808-.2247.7212,1.1549.5832,2.3099,1.1665,3.4648,1.7497.0546.4487.1093.8974.1639,1.3461-1.5714-.319-3.1428-.6381-4.7145-.9573-1.2545-.1523-2.5088-.3043-3.8065-.4616-.4406-.4837-.9027-.9909-1.7956-1.9709.1347,1.8262.221,2.9962.3056,4.1427-.633.2125-1.1156.3746-1.5983.5366-1.0884-.0509-2.0847.1392-2.7982,1.0693-.3064-1.1901-.6128-2.3802-.9192-3.5703.1221-.3106.2442-.6211.3665-.9319.2458-.3307.4914-.6612.7371-.9917.2285-.5045.4571-1.0091.6856-1.5138.4993-.5536.5065-1.16.1939-1.8009.1822-.281.3643-.562.5466-.8431,1.0541-1.0432,1.021-1.269-.3473-2.3705-.0829-.4849-.2122-.9686-.2248-1.4553-.0048-.1852.2585-.3774.4822-.6769.2331.2659.4077.5564.6622.7299.2635.1796.6044.2454,1.1528.4518.3682-1.0124.6955-1.9125,1.0229-2.8124.2386-.2445.5148-.4649.6977-.7459.0749-.1151-.0519-.3613-.0868-.5479-.1823.0932-.4866.1533-.5226.2863-.0875.3229-.0504.6797-.0634,1.0228-.4825-.2949-.9651-.5897-1.4464-.885.1283-1.4846.2554-2.9689.3826-4.4526.4311-.0814.8623-.1634,1.2935-.2455.3078.019.6156.038.9235.057.7343.3692,1.4686.7383,2.2019,1.1065.6097.0161,1.2699.1934,1.8227.0227,2.4334-.751,4.8498-1.5639,7.2466-2.4258,4.8009-1.7263,9.5844-3.5012,14.3766-5.2517,1.3174-.4813,2.6403-.9473,3.9607-1.4204Z"/>
  <path class="cls-4" d="M74.1026,110.81c-.0849,1.6648.5399,2.8812,1.9374,3.9047,2.9788,2.1815,5.8418,4.5216,8.7442,6.8069.5989.4716,1.1629.9875,1.9317,1.6443-.0204.4398-.903.2676-1.333.6449-1.5705-1.118-3.141-2.2367-4.713-3.3531-3.5732-2.5376-7.1034-5.139-10.7362-7.5882-2.4372-1.6432-5.1106-2.9404-7.5205-4.6189-6.2393-4.3459-12.3923-8.8156-18.5765-13.2406-.6416-.459-1.2731-.9024-2.1189-.552-.436-.3018-.8719-.6035-1.3079-.9052.5116-1.5793,1.4807-2.2187,3.1897-1.792,1.6081.4016,3.1194.8788,4.5338,1.8252,2.5286,1.6918,5.1794,3.2009,7.7791,4.7864.4569.703.9139,1.406,1.3708,2.1092.1282.4644.2374,1.3233.3882,1.3307,1.2166.0597,2.164,1.3673,3.497.7515l.1736.0078c.4671,1.7916,1.467,3.0895,3.1567,3.9831,1.7575.9294,3.3821,2.1103,5.0649,3.1808.837.6347,1.6643.1894,2.4937-.0225.6818.3657,1.3636.7314,2.0455,1.0971Z"/>
  <path class="cls-6" d="M93.4223,94.024c-.444-.169-.8824-.3553-1.3335-.5027-.5628-.1839-1.1361-.3358-1.7043-.5018.4419-.4493.8872-.8944,1.3233-1.3484.4735-.4929.7281-1.0317.2337-1.8027-.9072-.1356-1.9189-.2159-2.8914-.4556-.7244-.1785-1.5574-.3975-2.0651-.8862-1.7058-1.642-3.7229-3.0882-4.2103-5.6553-.4117-2.1685-1.9191-2.7916-3.9172-2.8515-1.2568-.0376-2.6952.0628-3.7183-.5028-1.6291-.9006-3.2228-1.3822-5.0586-1.3688-1.5265.0112-2.6628-.7334-3.2619-2.191-.1746-.5941-.3778-1.2115-1.1115-1.2546-.8306-.0489-.8326.7242-1.0493,1.2426-.0885.2116-.05.4763-.0692.7169-.267,1.4875-.5763,2.969-.788,4.4643-.1761,1.2435-.2375,2.5034-.3496,3.7559-.1554-.0752-.3057-.1595-.451-.2528-.0072-1.0098-.0947-2.0271-.0006-3.0273.1097-1.1652-.7336-1.1046-1.4247-1.2915,1.3085-2.8034,2.1038-5.7582,2.559-8.8055.9525-.9288,2.0883-1.0448,3.2291-.6552,2.0621.7043,4.1341,1.4146,6.113,2.3174,1.8685.8524,3.708,1.8291,5.4082,2.9764,2.8943,1.9532,6.264,2.9283,9.2277,4.7162,2.7798,1.6769,5.4173,3.5014,7.0229,6.7058.1228,1.5603-.4356,3.0616-1.5923,4.3705-.5794.6557-.6578,1.3585-.12,2.0876ZM90.4658,87.6c.8024.6965,1.6645.7662,2.6798.4927-.1534-1.6258-1.0532-2.4185-2.0921-3.1144-2.0518-1.6816-4.0241-3.5093-7.2526-4.0001.4837,1.2863.6706,2.3316,1.2197,3.1268,1.0779,1.5612,3.2184,1.9163,4.3221,3.5283.0858.1254.4885.0436.7436.0393.1269-.0022.253-.0471.3795-.0726ZM66.447,72.717c2.6923,3.4647,2.7015,3.4203,6.6002,4.2352.8274.173,1.5749.7754,2.3321,1.2257.9552.5679,1.8105.5682,2.9532-.3428-3.6561-2.3883-6.943-4.7967-11.8855-5.1181Z"/>
  <path class="cls-6" d="M58.9597,166.7226c1.1359-.2289,2.2719-.4577,3.4066-.6867.5311.1222,1.0635.2446,1.5959.3669-.8153,1.6874-2.3766,2.2801-4.0347,2.6445-1.1281.248-2.2939.3244-3.6066.4994-.7993,1.1492-1.6335,2.429-2.5494,3.6474-1.5982,2.126-3.6805,3.1501-6.3945,2.685-1.0149-.1739-2.0758-.1355-3.0651-.3904-2.2722-.5854-4.4899-1.0077-6.703.2324-.421.2359-1.0046.1927-1.5161.254-5.3911.6464-8.4552-1.0293-10.8843-5.9628-.3389-.6883-.624-1.4031-.994-2.2414-2.6511.0945-5.3065.8195-7.906-.5372-2.4519-1.2796-4.5883-2.8511-6.2629-5.0307-1.7057-2.2201-2.6058-4.7153-2.2109-7.4784-1.0851-.9426-2.0475-1.7787-3.0096-2.6151.1168-.1795.2339-.3582.3517-.5365.5404.1801,1.0808.3603,1.6212.5405,0,0-.0469-.0285-.0467-.0285.5303.6436.8164.3695,1.006-.2676,1.5796.67,1.7929,2.0334,1.7341,3.5004-.1535,3.8271,1.9879,6.4593,4.6175,8.804.4427.3947,1.1672.4733,1.7552.6965,2.2897.8117,4.5672,1.6481,7.0963,1.1745.5901-.1105,1.254.1735,1.8839.276.137.046.2684.1046.3909.1746.3942.4696,1.0234.885,1.1521,1.4206.9448,3.9296,3.858,5.4713,7.408,6.2347,1.1089.2384,2.2632.2655,3.6521.4172.6799-.813,1.3981-1.6718,2.1163-2.5307,1.0145-.6612,1.8642-.286,2.7214.3699,1.7446,1.3349,3.6961,2.0476,5.9294,1.8035,1.0607.3987,2.0346.1119,2.8448-.5511,1.9449-1.5918,3.4149-3.4309,2.6551-6.201.0548-.1717.1442-.323.266-.4518,1.9839,1.0689,4.0676,1.0683,6.7366.7841-.9156-.5295-1.3364-.7729-1.7572-1.0163Z"/>
  <path class="cls-6" d="M40.4098,93.5528c.436.3017.8719.6034,1.3076.9051-.2351,1.3849-.8035,2.8098-.6437,4.1478.534,4.4722,1.4271,8.8931,4.6587,12.3558,1.7424,1.8671,3.5033,3.7445,5.4507,5.386,3.028,2.5523,6.2221,4.9075,9.3458,7.3463-.2671.4375-.5341.8751-.8005,1.3113-.1168.0195-.2699.0031-.3412.0718-.067.0645-.099.2424-.0587.3301.7796,1.6975,1.3569,3.4164.6631,5.2972-.4499-.1311-.8998-.2622-1.3497-.3933-.6152-1.4042-1.8571-1.3788-3.0969-1.3583.4655-2.1827-.1655-4.2498-.6681-6.3304.0696-.3233.3027-.8357.1823-.9399-.9564-.8284-1.8199-1.8546-3.2325-1.9245-.6006-.8078-1.0641-1.7746-2.3073-1.9427-.2376.2133-.5283.4373-.7753.7021-1.6362,1.755-3.5007,2.8961-6.0488,2.5228-.4437-.065-.9499.2974-1.4272.4625l-.5081-1.5127c.7207-.0434,1.4414-.0867,2.1621-.1301.8969.194,1.7543.152,2.2476-.7432.322-.5846-.4876-1.2122-2.028-1.5937-.2345-.0581-.488-.0395-.7327-.0563-.1343-.2085-.3258-.3999-.3942-.6281-.6676-2.2296-2.4466-3.6773-3.8243-5.3975-.4356-.5439-1.1357-1.0678-1.8491-.1991-.9179-.5535-1.3596-1.3857-1.4267-2.4373.0861-.1208.1709-.2424.2546-.3648,1.8428-.1027,3.1831.8723,4.3009,2.1522,1.4312,1.6389,2.761,3.3662,4.1913,5.1254.8338.084,1.7588.8148,2.738.2247.0347-.3416.1645-.6449.0648-.7859-1.4057-1.9877-2.9069-3.9103-4.2576-5.9338-2.3628-3.5395-3.3602-7.4851-3.0341-11.7192.106-1.3758.1313-2.8533,1.2371-3.9501ZM47.2227,116.496c.0899.0652.2124.2043.2637.1816.1538-.0678.2798-.1987.4167-.3049-.0898-.0653-.2123-.2045-.2634-.1819-.1539.0679-.2801.1987-.417.3052Z"/>
  <path class="cls-1" d="M188.9723,183.8893c-1.0173.1077-2.048.379-3.0497.2965-6.6699-.5497-13.3662-.9355-19.9903-1.8407-7.1368-.9753-14.2294-2.3346-21.2941-3.7603-6.307-1.2729-12.5965-2.693-18.8013-4.3871-3.1879-.8704-6.1739-2.4808-9.2517-3.7569.6219-.0844,1.2444-.1686,1.8617-.253.9226-.2284,1.7517-.0108,2.5765.4552,3.1668,1.7894,6.7172,2.4772,10.1757,3.3806,2.4629.6433,4.9904.9346,7.4767,1.6371,4.179,1.1808,8.5551,1.6629,12.8476,2.4427,5.3027.9633,10.696,1.4126,15.9135,2.8718,1.1006.3078,2.2853.4463,3.4303.4417,6.0408-.0242,11.9701,1.1028,17.9536,1.6589.0504.2712.1009.5424.1514.8136Z"/>
  <path class="cls-4" d="M220.7438,129.0159c.3906-.3185.7813-.6369,1.1717-.9554.2641.0173.5284.0346.7926.052.9309.5323,1.3514,1.3429,1.3106,2.4051.0005,0,.0547.0365.0547.0365-1.9934,1.0121-2.586,2.8022-2.9162,5.0036.8504.2822,1.5475.5136,2.2446.7449,2.941.9805,5.8809,1.9643,8.8249,2.9354.2322.0766.4932.0653.7409.0949.4103.2779.7902.6255,1.2367.8203,1.2766.557,2.5803,1.0519,3.8733,1.5712-.2911.4334-.5822.8668-.8731,1.3002-.3746-.0628-.7648-.0786-1.1219-.1955-4.5892-1.5029-9.1701-3.0309-13.7606-4.5296-2.4109-.7871-4.8364-1.5291-7.2553-2.2915-.1129-.544-.2257-1.0879-.3386-1.6319,1.008.1433,2.0168.281,3.0237.4314,1.4893.2223,1.5265.1928,2.0976-1.8906-1.1626-1.3392-2.8579-1.5547-4.4448-1.9937-3.3206-.9186-6.6144-1.9629-9.9749-2.7019-5.6654-1.2458-10.7374-4.128-16.2787-5.6908-.6929-.1954-1.0375-.697-1.07-1.4138,1.9966.4664,4.083.702,5.9742,1.439,8.1971,3.1943,16.7177,5.321,25.1283,7.8097.6838.2023,1.4513.1217,2.6537.2057-.5533-.7869-.8234-1.1711-1.0934-1.5552Z"/>
  <path class="cls-7" d="M237.2043,143.0248c.2911-.4334.5822-.8668.8733-1.3002,2.1598.6325,4.3197,1.2649,6.4795,1.8974,1.8545,1.0912,3.7168,2.1694,5.5612,3.2773,1.8343,1.1019,3.6507,2.2338,5.4749,3.3525.3301,1.0943,1.2407,1.5502,2.1842,1.9425.9485.3944,2.4945,1.4218,3.2186,2.1278.3596.3506.7999.6184,1.2041.9259.0451.2767.0898.5512.1345.8256-.1018.4075-.2037.815-.3055,1.2222.3196,2.1645.6362,4.3298.9694,6.4925.0138.0894.1836.1548.2807.2313.0289.5271.0578,1.0541.0868,1.5809-.1686.2853-.3373.571-.506.8567-.9499.0797-1.3323-.4673-1.5979-1.2967-.4553-1.422-.1945-3.1254-1.5925-4.1901-1.1697-1.3419-2.3388-2.6827-3.5067-4.0232-.1862-.8307-.3736-1.6619-.5609-2.493-.5421-1.2602-1.4995-2.0352-2.806-2.4022l.0575.0371c-.3183-.9104-.9907-1.2591-1.9152-1.2082l.0675.0414c-1.9275-2.3367-4.6037-3.5429-7.2468-4.7977-2.1834-1.0366-4.3698-2.067-6.5548-3.1002Z"/>
  <path class="cls-6" d="M262.1809,48.2898c.3064,1.1901.6128,2.3802.919,3.569-.2678.8455-.4579,1.7265-.8152,2.5333-2.6584,6.0037-6.1835,11.6094-8.192,17.9156-.2699.8474-.814,1.6075-1.2319,2.4076-2.1485,4.1136-4.317,8.2168-6.4251,12.3509-.3304.648-.3866,1.4359-.569,2.1584.0006-.0006.0501.0858.0501.0858-1.8793,1.8843-2.292,2.6102-3.2479,5.7116-.0215.2046-.0562.407-.1041.6071l-.0002-.0692c-.3906.4112-.7812.8225-1.1718,1.2337-.3857-.2288-.7714-.4575-1.1571-.6863,3.9474-7.6823,7.8948-15.3646,11.8421-23.047.1767-.3438.4108-.6702.5213-1.0342,1.773-5.8406,5.0299-11.0113,7.4571-16.5558.517-1.1809,1.1821-2.3144,1.5481-3.5388.3489-1.167.3965-2.4242.5766-3.6418Z"/>
  <path class="cls-6" d="M29.7721,107.2846c-.7526.1767-1.4965.4305-2.2594.5171-3.5474.4027-5.4277,2.5365-6.0812,5.7524-1.1885.9708-2.3637.4994-3.461.2902-2.5864-.4931-4.8077.2116-6.9198,1.681-1.8501,1.287-3.0549,2.9982-2.6492,5.2001.478,2.5942-.7848,3.8626-2.7755,4.8779-2.5125,1.2814-3.9135,3.2683-3.906,6.1497-.345.1029-.6932.2058-1.0414.3086-1.2938-2.1333-.599-3.9952.9172-5.6199,1.2234-1.311,2.6125-2.4673,4.1171-3.8683-.4679-3.8711,1.4592-6.535,4.7636-8.7535,2.965-1.9906,5.91-2.2333,9.4009-1.4269.2539-.5298.5348-1.2058.8927-1.8383.3797-.6711.7796-1.3436,1.2623-1.9415,2.2855-2.8314,4.1566-3.1396,7.7397-1.3287Z"/>
  <path class="cls-6" d="M90.8065,140.4658c.3914.7216.7829,1.4432,1.1744,2.1648-4.9601,1.4138-9.3616.2954-13.3214-2.9069-3.3001-2.6688-6.6062-5.3308-9.9425-7.9542-1.0935-.8598-2.2897-1.5888-3.6789-2.5424-.2537.7154-.4051,1.1422-.5593,1.5541-.324-.4053-.7948-.7469-.9407-1.1945-.6679-2.0484-2.1159-3.4079-3.8103-4.5804.267-.4376.5341-.8751.7997-1.3104,1.8473,1.1699,3.7922,2.2111,5.5261,3.5297,4.6072,3.5038,9.2034,7.0315,13.6463,10.7387,2.7202,2.2697,5.7655,3.2876,9.1935,3.4611.7875.0398,1.5579-.0782,1.9131-.9596Z"/>
  <path class="cls-4" d="M54.8767,122.6222c.5029,2.0805,1.1338,4.1476.6684,6.3312-.5082.9719-.4819,1.9783-.2024,3.0033.2575.9445,1.1221,1.3011,2.1389.9464,1.3287-.4635.9873-1.6341,1.1604-2.5924.4499.1311.8998.2622,1.3497.3943,1.0388,2.4401,1.8685,5.0537,5.0353,5.6155.2089.0371.3165.6455.4712.9882.2201,1.0714,1.2093,1.2239,1.9734,1.6232,2.3434,1.2244,4.0376,3.0321,5.2994,5.3642,1.0544,1.9488,1.3098,3.8065.2195,5.7777-.5514-.1248-1.1029-.2497-1.6543-.3745.5898-1.258,1.6201-2.4927.2042-3.8571-.2453-.5948-.4046-1.2459-.7507-1.7746-1.5593-2.3817-3.5306-4.1189-6.7871-3.6189-.3956-2.4852-2.0007-3.9718-3.3604-5.6199-.8348-1.012-1.7825-1.3989-3.0308-.6583-1.924,1.1414-3.6518.2735-5.34-.6497-.059-.0323.1024-.4676.1617-.7158.8937-.5434,1.5585-1.2196,1.5882-2.3638.0681-2.6203.1689-5.2399.2564-7.8598.2044-.0561.4041-.0426.599.0406Z"/>
  <path class="cls-1" d="M240.2356,96.1075c.3857.2287.7714.4575,1.1569.6865-.0553.2461-.0578.5204-.1733.7334-2.7378,5.0495-5.4969,10.0875-8.2312,15.1389-1.1542,2.1323-2.2545,4.2938-3.3931,6.4347-.335.6298-.3857,1.1939.2111,1.6928-.4234,1.0593-.6931,2.218-1.301,3.158-1.4384,2.2244-2.3064,4.8495-4.4867,6.5658.0413-1.0622-.3792-1.8727-1.3101-2.405,5.5409-10.2644,11.0794-20.5301,16.6308-30.7887.2374-.4387.595-.8123.8967-1.2163Z"/>
  <path class="cls-6" d="M251.4082,184.7c-.9904.1908-1.9758.5139-2.972.5514-7.9214.2987-15.8436.6034-23.7683.7715-2.7985.0594-5.6068-.2283-8.4072-.4099-1.7842-.1157-3.5621-.3277-5.3415-.4964-.0768-.0965-.1763-.2855-.2293-.2732-.2005.0463-.3859.158-.577.2452-.7726-.0291-1.5453-.0582-2.3174-.0873.0005,0,.0242-.2151.0242-.2151,0,0-.0826-.2-.0838-.2019,1.5271-.0938,3.0601-.3128,4.5828-.2559,7.1853.2683,14.3631.9022,21.561.3297,2.048-.1629,4.1036-.523,6.1424-.4449,3.7385.1433,7.447-.096,11.1612-.3928.075.2932.15.5865.225.8797Z"/>
  <path class="cls-6" d="M118.4522,170.1879c-.6225.0842-1.245.1684-1.8669.2528-3.8567-1.7628-7.519-3.8605-11.012-6.2707-5.4659-3.7714-8.2837-8.9123-8.2362-15.5828.4842-.0803.9687-.1611,1.4532-.2425.1309.6236.3112,1.242.3851,1.8729.7049,6.0112,3.8366,10.4413,8.9014,13.5684,2.4971,1.5417,5.0871,2.9324,7.6045,4.4424.9674.5802,1.8498,1.3021,2.771,1.9595Z"/>
  <path class="cls-7" d="M61.5746,80.3109c.6911.1868,1.5344.1263,1.4247,1.2915-.0941,1.0002-.0066,2.0176.0015,3.0281-.4117.1413-.8243.2818-1.2367.4227-2.248-1.9776-4.9641-2.4718-7.784-2.1106-1.7285.2214-3.3923.9477-5.0852,1.4473-.3337-.2883-.6673-.5766-1.0009-.8649,3.2387-3.0341,6.9926-4.409,11.4419-3.568.742.1403,1.4923.237,2.2387.3538Z"/>
  <path class="cls-4" d="M251.4082,184.7c-.075-.2933-.15-.5865-.225-.8796,1.7068-1.3558,3.6355-2.5117,5.0744-4.109,3.003-3.3334,5.025-7.199,4.5264-11.8959-.2436-2.2948-.7345-4.5633-1.1135-6.8437,1.3973,1.0636,1.1365,2.767,1.5918,4.189.2655.8294.648,1.3765,1.5988,1.2965.1202.2155.2458.4274.3778.6357-.0405.3043-.0809.6087-.1213.9128-.2122.0115-.4062.0771-.582.1966-1.3692.9028-1.3899,1.1877-.1703,2.3543-.694,4.3142-2.5291,8.0346-5.7626,11.0162-.9436.8701-1.9261,1.6981-2.8907,2.5453-.2688.1603-.5377.3207-.8066.4811-.4991.0336-.9981.0672-1.4972.1008Z"/>
  <path class="cls-6" d="M236.0711,69.4103c.2818-.6819-.0147-.8228-.657-.7924-.5702.0269-1.0547-.1163-.3355-.7383,3.5952-.5943,6.7007-2.3381,9.7476-4.1974,1.6397-1.0006,2.554-2.4351,2.3958-4.4462-.1195-1.519-.123-3.0496-.3079-4.5591-.0455-.3713-.5971-.6807-.9161-1.0185.2266-.921.7505-.9039,1.3446-.3733.4571.4082.8426.8965,1.26,1.3492.7415,2.1544.3405,4.3302.018,6.4744-.2144,1.4256-.9451,2.7158-2.1661,3.5312-3.2013,2.1378-6.3957,4.3294-10.3834,4.7705Z"/>
  <path class="cls-2" d="M65.4982,137.3088c-.1547-.3426-.2623-.9511-.4712-.9882-3.1669-.5618-3.9966-3.1754-5.0353-5.6155.6938-1.8817.1165-3.6006-.6631-5.2981-.0403-.0877-.0083-.2656.0587-.3301.0713-.0686.2244-.0523.3412-.0718,1.6937,1.1738,3.1418,2.5333,3.8097,4.5817.1459.4476.6167.7892.9407,1.1945.2796,2.1955,1.5225,4.2253,1.0194,6.5276Z"/>
  <path class="cls-4" d="M63.9621,166.4028c-.5324-.1223-1.0648-.2447-1.5959-.3669.6652-.9209,1.423-1.7921,1.9523-2.7849.2512-.4712.0664-1.1749.079-1.7732,0,0-.0082.0225-.0082.0225.1917-.3169.3834-.6338.5751-.9507l-.0062.0259c.7744-.571.5922-1.3099.3607-2.0575l-.0454-.0647c.1407-.6071.5117-1.2696.3813-1.8114-.4904-2.0384.3707-3.2008,2.1775-3.886.3108-.0182.6258-.0373.9408-.0565.1773.721.3545,1.442.5318,2.163.0326.1703-.0263.2986-.1751.3809-.5476.1853-1.3567.2149-1.5913.5972-.4838.7884-.2928,1.9902.173,3.7469.3181-.2068.6235-.4053.929-.6038.0161,1.8979-1.0192,3.3057-2.1843,4.6441-.8165.938-1.6616,1.851-2.494,2.7752Z"/>
  <path class="cls-6" d="M61.764,85.0528c.4125-.1405.8251-.2811,1.2368-.4224.1445.0925.2948.1767.4496.2518-.0226.3842.0431.7995-.0799,1.1481-1.7027,4.8234-2.5039,10.0055-5.6394,14.2614-.1468.069-.296.1322-.4477.1896-.457-.703-.914-1.4061-1.371-2.1091,1.7549-1.2759,1.7791-1.5783.2075-2.6193-.4269-.2828-.8557-.5627-1.2836-.844.2004-.3413.4009-.6826.6-1.0216,1.0456.3787,2.0925.7551,3.3508,1.2075.5484-1.4972,1.1045-2.7815,1.4873-4.1155.5616-1.9568.9992-3.9493,1.4896-5.9265Z"/>
  <path class="cls-6" d="M54.8363,94.9091c-3.9543-1.6201-7.9085-3.2402-11.8683-4.8626.0554-1.6338.8017-2.5679,1.8342-3.3414.1915.1732.404.3093.6388.4105.0205.9427.2839,1.6599,1.2433,2.145,2.9444,1.4888,5.8392,3.0757,8.7533,4.6245-.2004.3413-.4009.6826-.6013,1.0239Z"/>
  <path class="cls-4" d="M.6787,132.0616c.3482-.1028.6965-.2056,1.0414-.3086.508,1.7957,2.1572,3.1256,2.0447,5.219-.0227.4222.7654.888,1.3245,1.4896-.8464,1.3105-1.1313,3.0444-2.9992,3.5681.16-1.399.3201-2.798.4791-4.1954.2371-1.1856-.0683-2.1508-1.1457-2.8005,0,0-.0169-.0484-.0169-.0484l-.4747-1.5716c-.0844-.4508-.1689-.9016-.2533-1.3523Z"/>
  <path class="cls-6" d="M2.0848,142.0025c.158.6548.3159,1.3097.4746,1.9667-1.0067,1.1186-.9862,2.3047-.1883,3.5048.9166,1.3788,1.8688,2.7339,2.8055,4.0993-.1178.1783-.2349.357-.3517.5365-.9459-.9989-1.9336-1.9621-2.8288-3.0046-2.0393-2.3749-1.898-4.7595.0887-7.1026Z"/>
  <path class="cls-6" d="M69.3049,154.8624c-.1773-.721-.3545-1.442-.5316-2.1636.3919-.6502.7836-1.2998,1.1753-1.9494,0,0,.0097-.011.0097-.011.203-.3079.4059-.6158.6089-.9237,0,0-.0109.0319-.0109.0319.26-.0491.52-.0982.7799-.1472.5514.1249,1.1028.2497,1.6543.3745-.38,2.2494-1.7456,3.7401-3.6856,4.7885Z"/>
  <path class="cls-6" d="M188.9723,183.8893c-.0505-.2711-.1009-.5424-.1484-.8142,3.2564-.2986,6.47-.2375,9.5468,1.058-.3647.1966-.7294.3933-1.0941.59-.2919-.0385-.5837-.0771-.8749-.1158-.4765-.5265-.999-.6444-1.5865-.1763-.2698-.0396-.5396-.0791-.8089-.1188-.7466-.6499-1.5417-.6223-2.3672-.1684-.2564-.0107-.5124-.0267-.7676-.048-.0905-.085-.1911-.2495-.2708-.2399-.2174.0261-.4259.1257-.6379.1962-.3302-.0543-.6604-.1086-.9906-.1629Z"/>
  <path class="cls-6" d="M47.894,83.5251c.3337.2883.6673.5766,1.0012.8652-1.1512.9087-2.3027,1.817-3.4542,2.7253-.2348-.1013-.4473-.2373-.6388-.4105.5366-1.5417,1.4285-2.7364,3.0918-3.18Z"/>
  <path class="cls-3" d="M68.6404,158.9835c-.3054.1985-.6109.397-.929.6038-.4657-1.7567-.6567-2.9585-.173-3.7469.2346-.3823,1.0437-.4119,1.5913-.5972.0472.6554.0959,1.3069.144,1.9606-.7095-.2471-.898.1459-.8504.7361.0298.3701.1549.7326.2373,1.0984,0,0-.0202-.0549-.0202-.0549Z"/>
  <path class="cls-6" d="M263.2794,164.0198c-.0971-.0765-.2669-.1419-.2807-.2313-.3332-2.1627-.6498-4.328-.9694-6.4925,1.0164,2.1299,1.4323,4.3713,1.2501,6.7238Z"/>
  <path class="cls-4" d="M30.7948,109.4605c-.205-.6378-.41-1.2756-.6151-1.9134.9551-.0596,1.9129-.1852,2.8641-.1469.3915.0157.7688.384,1.1525.5919-.031.2568-.0185.5115.0374.7641l-3.439.7045Z"/>
  <path class="cls-7" d="M262.3653,170.5566c-1.2195-1.1666-1.1989-1.4515.1711-2.3544.1392.2442.2776.4886.416.733l-.5872,1.6214Z"/>
  <path class="cls-4" d="M98.7903,148.3453c-.4845.0808-.969.1615-1.4532.2418-.0007-.2506-.0016-.5007-.0025-.7511.662-.787.2197-1.6339.1338-2.4614.4172-.0121.8344-.0243,1.2497-.0368.0391.1361.0256.267-.0424.3922.0424.8416.0847,1.6833.127,2.5249l-.0124.0903Z"/>
  <path class="cls-6" d="M200.4633,184.5966c-.5154.0546-1.0308.1092-1.5458.1638-.1748-.2198-.3501-.4396-.5224-.6604,1.303-.211,2.6018-.7449,3.9051-.0146-.6123.1704-1.2246.3408-1.8369.5112Z"/>
  <path class="cls-6" d="M1.4235,135.0339c1.0775.6497,1.3828,1.6149,1.1457,2.8005-.3813-.9345-.7635-1.8675-1.1457-2.8005Z"/>
  <path class="cls-6" d="M263.6721,40.072c.228-.0849.4584-.1624.6912-.2333,1.3682,1.1007,1.4013,1.3265.3472,2.3697.3985-1.0741-.5173-1.5093-1.0384-2.1364Z"/>
  <path class="cls-6" d="M97.4683,145.3746c.0859.8275.5283,1.6744-.1337,2.4614-.1576-.7997-.3151-1.5996-.4729-2.3997.193-.1108.3952-.1312.6066-.0616Z"/>
  <path class="cls-6" d="M68.6607,159.0385c-.0824-.3659-.2074-.7283-.2373-1.0984-.0476-.5902.1409-.9833.8504-.7361.0567.6971.2377,1.4383-.6131,1.8346Z"/>
  <path class="cls-1" d="M200.4633,184.5966c.6123-.1704,1.2246-.3408,1.8346-.5113-.0023-.0002.0158-.018.0158-.018.1729.2158.3458.4316.5187.6474-.8074.3169-1.608.4961-2.3691-.1181Z"/>
  <path class="cls-6" d="M248.6029,54.6181c-.1639-.8055-.3279-1.6109-.4917-2.416.6075.7152.8557,1.5033.4917,2.416Z"/>
  <path class="cls-1" d="M191.6392,184.1438c.8254-.4539,1.6206-.4815,2.3672.1684-.8168.3289-1.6214.4942-2.3672-.1684Z"/>
  <path class="cls-1" d="M194.8153,184.431c.5875-.4681,1.11-.3502,1.5865.1763-.5293-.0587-1.0579-.1175-1.5865-.1763Z"/>
  <path class="cls-6" d="M264.1639,43.0515c.3126.6409.3054,1.2473-.1939,1.8009-.3621-.6461-.3517-1.2524.1939-1.8009Z"/>
  <path class="cls-1" d="M198.392,184.101c.1753.2197.3506.4395.5254.6594-.5477-.013-1.0949-.0262-1.6415-.0383.3654-.1957.7301-.3924,1.0923-.5889-.0025.0002.0237-.0322.0237-.0322Z"/>
  <path class="cls-6" d="M263.239,167.0929c-.132-.2083-.2576-.4202-.3778-.6357.1678-.2854.3365-.5711.5051-.8565-.0424.4976-.0849.9949-.1272,1.4922Z"/>
  <path class="cls-6" d="M202.8324,184.7147c-.1729-.2158-.3458-.4316-.516-.6484.7439-.2074,1.4845-.4086,2.1247.2477-.038.2264.0374.405.2262.5356-.6117-.045-1.2233-.09-1.835-.135Z"/>
  <path class="cls-6" d="M207.0577,184.9825c-.5834-.043-1.1669-.0861-1.7496-.1292-.0937-.1952-.2036-.3812-.3289-.5581.5858.073,1.1717.146,1.7575.219.0061.2253.1131.3814.321.4683Z"/>
  <path class="cls-6" d="M.9319,133.4139l.4747,1.5716c-.1582-.5238-.3164-1.0477-.4747-1.5716Z"/>
  <path class="cls-1" d="M210.1127,185.0885c.1911-.0872.3765-.1989.577-.2452.053-.0122.1526.1767.2294.2733-.2697-.0094-.5381-.0187-.8064-.028Z"/>
  <path class="cls-1" d="M207.737,184.586l.0826.2s-.0237.2151-.0242.2152c-.2464-.0065-.4924-.0131-.738-.0192-.2076-.0865-.3146-.2426-.3195-.4676.3339.0241.6665.0478.9991.0716Z"/>
  <path class="cls-1" d="M252.9054,184.5992c.2689-.1603.5378-.3207.8066-.481-.1494.1713-.2819.3636-.4565.5032-.0676.0541-.2305-.0112-.3501-.0221Z"/>
  <path class="cls-6" d="M262.9525,168.9352c-.1384-.2444-.2768-.4888-.416-.733.175-.1194.3691-.185.5813-.1965-.0551.31-.1102.6197-.1652.9294Z"/>
  <path class="cls-1" d="M204.9791,184.2951c.1253.1769.2352.363.3289.5581-.2201.2213-.4337.2199-.6411-.0038-.1884-.1303-.2638-.3089-.226-.5354.1789-.0181.3583-.0243.5382-.0189Z"/>
  <path class="cls-6" d="M262.3347,156.0737c-.0447-.2744-.0894-.5489-.1345-.8256.136.0415.2708.0898.4039.1427-.0899.2278-.1796.4553-.2694.683Z"/>
  <path class="cls-6" d="M262.8616,154.5395c.0616-.243.1232-.4861.1846-.7288-.0617.2432-.1231.486-.1846.7288Z"/>
  <polygon class="cls-4" points="274.7393 111.7497 274.7916 111.8477 274.814 111.7469 274.7393 111.7497"/>
  <path class="cls-6" d="M263.2845,46.3662c-.2456.3305-.4913.661-.7371.9917.2456-.3304.4913-.6611.7371-.9917Z"/>
  <path class="cls-1" d="M189.9629,184.0522c.212-.0705.4205-.1701.6379-.1963.0797-.0096.1803.1549.2708.2399-.3033-.0146-.606-.0291-.9087-.0437Z"/>
  <path class="cls-6" d="M294.4701,57.1957c.0567-.3242.1134-.6485.1701-.9724-.0567.3244-.1134.6484-.1701.9724Z"/>
  <path class="cls-6" d="M295.8948,53.4387c.1242-.2533.2485-.5066.3726-.7596-.1243.2534-.2484.5065-.3726.7596Z"/>
  <path class="cls-6" d="M295.9618,51.199c-.7012-.3013-.5346-.5672.033-.8167-.0111.2724-.0221.5445-.033.8167Z"/>
  <path class="cls-6" d="M335.1417,1.216c.0708-.4053.1417-.8107.2131-1.216-.0707.4053-.1419.8107-.2131,1.216Z"/>
  <path class="cls-4" d="M94.6503,143.6701c.2711.2042.5422.4084.8128.6123-.2712-.2043-.542-.4083-.8128-.6123Z"/>
  <path class="cls-6" d="M92.6094,142.6061c.3486.1561.6971.3121,1.0458.4682-.3486-.1561-.6972-.3121-1.0458-.4682Z"/>
  <path class="cls-6" d="M34.2338,108.756c-.056-.2526-.0685-.5073-.0374-.7641.3244.1492.6487.2984.9731.4476-.0837.1224-.1686.244-.2542.3643-.2276-.0065-.4548-.0223-.6814-.0478Z"/>
  <path class="cls-1" d="M65.2736,158.4534s.0454.0647.0453.0656c-.5093.6178-.8708,1.2607-.3606,2.0565,0,0,.0062-.0259.0062-.0259-.5862.0782-.7271.4258-.5751.9507,0,0,.0081-.0224.0082-.0225-1.5694.5033-3.1852.8967-4.6986,1.5336-2.9701,1.25-4.875,1.3567-8.6009.1599,1.6985-.9966,3.345-.1193,4.9402-.0573,1.3864.0539,2.4909-.2759,3.5334-1.1272,1.0085-.8236,1.2883-1.8221.9385-3.3267-2.7729.0768-5.5322.1532-8.2911.2357-.0356-.3537-.0715-.7136-.1201-1.2005,1.7841-.1676,3.638-.0622,4.7294-1.7999.68-.3363.926-.8107.4789-1.5057,0,0,.0016.0009.0016.0008.8338.1487,1.1591-.2761,1.1788-1.0455.2206-1.1093.3088-2.268.698-3.3146.4098-1.1019.2784-2.0476-.4177-2.859-1.1604-1.3527-2.4305-2.6113-3.6544-3.9095.5591-.2859,1.1182-.5718,1.751-.8954,1.4846,1.0824,2.8794,2.197,3.8902,3.7069,1.3545,2.0233,1.2887,2.541-.3807,4.6996-.1496.1935-.2157.4516-.4246.9056.7871.9525,1.5624,2.004,1.423,3.5792-.1061,1.1984.4733,2.4575.7306,3.6128,1.663.498,1.279-1.4828,2.482-1.6643.224.4058.4562.8265.6885,1.2472Z"/>
  <path class="cls-4" d="M32.7784,163.1713c-1.7919-.035-3.4897-.2851-5.0737-1.2979-1.6055-1.0264-2.6665-2.2998-2.8616-4.2228.6302-1.7155-.8763-1.9467-1.7966-2.5852-.3026-.6456-.6521-1.274-.895-1.9414-.256-.7031-.2606-1.407.4501-1.9109,0,.0002-.0104-.0203-.0104-.0203.184,1.4187,1.2766,2.1443,2.2889,3.2233.7358-.3481,1.3753-.7269,2.0645-.9555.7197-.2387,1.4836-.437,2.2349-.4637.9434-.0335,1.7256.7326,1.8501,1.6499.124.9133-.378,1.4555-1.1792,1.7431-.8348.2995-1.6862.5528-2.5556.8345-.4551,1.3507-.0822,2.3788.9514,3.1139,1.2818.9117,2.6902,1.6845,4.3154,1.0331.8048-.3226,1.4616-.9997,2.2434-1.4041.228-.1179.6559.1506.9916.2416-.4916,1.5116-1.8234,2.1671-3.0181,2.9624Z"/>
  <path class="cls-7" d="M17.0558,145.0295c.156,1.1894-.5623,1.6815-1.5651,1.7175-2.1324.0766-3.9938-1.6889-4.0076-3.8349-.0073-1.1453.2285-2.2921.3586-3.4745-.46-.8892-1.0117-1.7603-1.3798-2.7032-1.2267-3.1415-.7416-4.7227,1.9303-6.6424,2.1613-1.5528,3.8391-1.2419,5.5218,1.0608.1096.15-.0198.4747-.0602,1.0147-.9511-.3736-1.8069-.7879-2.7072-1.0469-1.7504-.5036-3.7903.9708-3.7494,2.7779.0384,1.6954.3048,3.3578,2.2451,4.0819.4422.165.8046.5438,1.1758.8046-.1544.3759-.1834.7201-.3523.8146-1.3525.7571-1.6692,1.9088-1.1804,3.2645.2923.8108.6736,1.6837,1.2709,2.2662.7325.7144,1.6958.2103,2.5479-.0626l-.0486-.0382Z"/>
  <path class="cls-4" d="M56.8283,155.8953c-1.0914,1.7377-2.9453,1.6322-4.7294,1.7999.0486.4869.0845.8468.1201,1.2005-2.9183,3.5543-3.5885,3.7074-7.7146,1.7861-.4585-.2135-.94-.3775-1.4074-.5603-.3687-.4113-.7408-.8267-1.1129-1.2422-.9404-1.368-.1241-2.8759-.4593-4.6942.9309.9663,2.0686,1.595,2.2045,2.3939.3795,2.2323,1.8409,2.8209,3.687,3.1284l-.0575-.003c.9865.6839,1.0299.6747,1.5021-.3175l-.0151.0195c.9847-.063,1.4042-.6945,1.2355-1.5539-.2183-1.1121-.6337-2.1855-.9701-3.2949.3437-.7656,1.0649-.9027,1.5097-.3634,1.7189,2.0838,3.7637,1.8573,5.951,1.0701.0883.2097.1734.4201.2564.6313Z"/>
  <path class="cls-4" d="M35.7356,146.0432c-1.0265.9979-2.0231,2.0237-3.6295.9909-1.6227-1.0432-3.4083-1.9399-2.9402-4.3807.1189-.6198.1831-1.2501.303-2.0899-1.721-1.2267-2.1221-3.2486-2.6404-5.2143,0,.0007-.003-.0154-.003-.0154.4369-.9252.8315-1.8735,1.3203-2.7704.8045-1.4763,1.8601-1.555,3.0086-.2315.2275.2622.2889.6686.4198.9911-.2483.193-.4214.4329-.6306.4701-.5966.1059-1.5163-.089-1.7449.2338-.3946.5573-.555,1.4381-.4743,2.1444.2289,2.0042.9537,2.5242,3.0507,2.468.256-.0069.5449-.1494.7591-.0696.4459.1664,1.0661.3394,1.2303.6897.3499.7469-.2686,1.1351-.8957,1.3828-.5862.2316-1.1843.4333-1.6473.6011-.6888,1.1799-.4715,2.2043.0746,3.0942.6335,1.0321,1.6505,1.6018,2.8975,1.6646.5148.0259,1.0304.035,1.5454.0511-.0003-.0006-.0034-.0099-.0034-.0099Z"/>
  <path class="cls-1" d="M35.7356,146.0432s.0031.0093.0034.0099c1.0006-1.2484,2.3728-.7892,3.5302-.5568,1.6413.3296,3.2515.5371,4.9104.3507,1.3512.6128,2.4182.2856,3.2036-.9724,1.2203,2.447.2655,4.5351-2.2055,4.5952-3.5675.0868-6.8628-.72-9.442-3.4265Z"/>
  <path class="cls-7" d="M34.2338,108.756c.2266.0256.4538.0413.6814.0478.0666,1.0521.5084,1.8843,1.4277,2.4385,1.0642,1.1942,1.2742,2.7041,1.5546,4.1879-.1257.1835-.2481.3692-.3671.5571-.3692-.0132-.7384-.0263-1.0958-.0391-.4325-2.871-.9723-3.8899-2.6297-4.8194-1.1006-.6173-2.1933-.7332-3.3376.4698.456.7818.9409,1.6133,1.5641,2.6819-.4763.1471-.9383.4565-1.3029.3674-.7392-.1809-1.4284-.5716-2.1333-.8867-1.1523-.515-2.2778-.3038-3.3745.1527-1.3212.5499-1.1788,1.8187-1.3339,2.9366-1.3892-.8166-1.6445-1.3201-1.2055-2.2509.5889-1.2486,1.5325-2.234,2.8853-2.315,2.2414-.1343,3.7449-1.4035,5.2268-2.8237,1.1477-.2353,2.2941-.4702,3.4404-.705Z"/>
  <path class="cls-4" d="M50.3019,131.3278c-.5149.8284-1.1788,1.326-2.3696.9508.0093-.9111.0192-1.8704.0302-2.948-1.1681-.4559-2.2086-.862-3.248-1.2677-.3187-.7234-.0916-1.7958-1.4113-1.8529-.8415-.0364-1.3357-.6673-1.4547-1.5297.575.0319,1.1503.0658,1.7255.0998.6838-.1811,1.3677-.3623,2.0513-.543.6051-.1029,1.2104-.2062,1.8158-.3095-.8837,2.867-.8144,2.9955,2.0786,3.8493.4209-.7863.8407-1.5731,1.2605-2.36.2061.4041.4122.8081.6183,1.2122-.3336,1.5737-1.3427,2.9896-1.0965,4.6987Z"/>
  <path class="cls-2" d="M50.3019,131.3278c-.2462-1.7091.7628-3.125,1.0958-4.6989.2289-.9802.5073-1.952.6724-2.9427.126-.7566.1084-1.5372.1547-2.3072.6843.4009,1.3687.8017,2.053,1.2025-.0875,2.6199-.1883,5.2394-.2564,7.8598-.0297,1.1442-.6945,1.8203-1.5882,2.3638-.7108-.492-1.421-.9847-2.1313-1.4773Z"/>
  <path class="cls-1" d="M39.5635,171.9854c-.7182.8589-1.4365,1.7177-2.1163,2.5307-1.3889-.1517-2.5432-.1788-3.6521-.4172-3.55-.7634-6.4632-2.305-7.408-6.2347-.1288-.5356-.7579-.951-1.1521-1.4206.7652-.1657,1.5308-.311,2.0311.5146.3948.6515.7678,1.3168,1.1353,1.9844,1.8143,3.295,5.0031,4.6929,8.5957,3.7538.8587-.2245,1.7111-.4733,2.5664-.7109Z"/>
  <path class="cls-1" d="M41.984,158.8793c.3721.4155.7442.8309,1.1129,1.2422-2.9631,2.6408-6.2468,4.1911-10.3226,3.0506,1.1987-.796,2.5305-1.4516,3.0221-2.9632.9451-.382,1.9065-.801,2.8836-.1486,1.6545,1.1045,2.5469.1738,3.304-1.1811Z"/>
  <path class="cls-1" d="M22.591,151.1929s.0104.0204.0104.0203c-.2448-.5884-.3951-1.2428-.7515-1.7531-1.2831-1.8375-1.006-3.6101.0702-5.3935.561-.9297,1.3184-1.123,2.4-.548-.1305,2.1864-.2644,4.4305-.4218,7.0677-.227.1053-.7672.356-1.3074.6066Z"/>
  <path class="cls-1" d="M26.8256,135.3337s.003.0162.003.0154c-1.2553.7816-2.4172.434-3.7158-.3649,1.3141-2.6095.3423-6.3668,4.3263-7.9738.0611,1.2784-.5704,2.1032-.8034,3.005-.254.9836-.6655,1.9258-.9905,2.892-.3994,1.1873.0652,1.9686,1.1804,2.4262Z"/>
  <path class="cls-1" d="M23.0464,155.0654c.9203.6384,2.4268.8697,1.7967,2.5852-.5069.0626-1.0131.1408-1.5223.1869-3.1821.2875-3.4041.1861-5.8544-2.6531,1.0372-.5995,1.9687.2004,2.9217.1546.8885-.0427,1.7724-.1786,2.6584-.2735Z"/>
  <path class="cls-4" d="M55.1135,143.2618c1.2239,1.2982,2.494,2.5568,3.6544,3.9095.696.8114.8275,1.7571.4177,2.859-.3892,1.0466-.4774,2.2052-.6973,3.3135-.245-.0051-.4888-.0284-.7308-.0711-.5004-1.0026-1.0007-2.0053-1.5954-3.1968.426-.2589,1.0258-.6234,1.6567-1.0068-.3436-2.5092-2.566-3.2693-4.2095-4.3853-.0638-1.2632.673-1.3996,1.5043-1.422Z"/>
  <path class="cls-4" d="M39.2446,126.6094q-2.8624-2.566-6.719-3.0837c.1964-.3443.2941-.7767.554-.9256,1.0586-.6062,2.1943-.6261,3.3573-.2617,1.9764.6193,2.8441,1.7764,2.8077,4.2711Z"/>
  <path class="cls-1" d="M24.8441,166.269c-.6299-.1025-1.2939-.3865-1.8839-.276-2.5291.4736-4.8066-.3627-7.0963-1.1745.8613-.0829,1.7156-.2268,2.5715-.2375,1.2516-.0157,2.5119.1668,3.7545.0755,1.3408-.0985,2.1829.3931,2.6543,1.6124Z"/>
  <path class="cls-1" d="M53.7142,167.4066c.7598,2.7701-.7103,4.6091-2.6551,6.201-.8102.6631-1.7841.9498-2.8448.5511,2.4936-1.2377,4.2604-3.0607,4.8358-5.8899.0649-.3192.4354-.5763.6642-.8622Z"/>
  <path class="cls-1" d="M58.9597,166.7227c.4208.2434.8416.4867,1.7572,1.0162-2.6691.2842-4.7527.2848-6.7366-.7841-.2024-.5551-.0904-1.2087.5029-1.1365,1.5065.1836,2.9861.5881,4.4765.9043Z"/>
  <path class="cls-4" d="M48.4614,166.5107c.3546,2.2881-1.8869,3.1306-5.2011,1.9578.7492-1.1454,1.8624-.347,2.6761-.6246.8784-.2997,1.6658-.8658,2.525-1.3331Z"/>
  <path class="cls-4" d="M47.3832,144.8744c-.7854,1.2581-1.8524,1.5853-3.2036.9724.2563-1.1707,1.6695-2.064.4796-3.6959,1.1112.1423,1.8366.2352,2.5635.327.1522.1551.2593.3371.3227.5448-.0541.6172-.1082,1.2344-.1623,1.8517Z"/>
  <path class="cls-7" d="M40.7601,119.9896c.1694.5042.3387,1.0084.508,1.5124.0939.1625.1523.3372.1752.5239-.2353.2349-.4706.4699-.7059.7048-.8496-1.2826-1.6886-2.5787-1.7069-4.1892-.0131-1.1574-.7942-1.825-1.5-2.5546.1189-.1875.2413-.3732.3622-.5502,1.8043.342,2.777,1.2124,2.2696,3.2383-.0915.3653.3841.8728.5979,1.3147Z"/>
  <path class="cls-1" d="M5.1766,151.5732c-.9367-1.3654-1.8889-2.7205-2.8055-4.0993-.7979-1.2001-.8184-2.3862.1883-3.5048.0845.1507.1915.2862.3189.4027.3432,1.2264.1165,2.6813,1.4018,3.5364,0,0-.0248-.0364-.0248-.0362.3508.4791.7015.9581,1.0523,1.437,0,0-.0171-.0227-.0169-.0226.3233.3802.6464.7602.9695,1.1402.1792.5624.3584,1.1247.5376,1.6871-.5404-.1801-1.0808-.3603-1.6212-.5405Z"/>
  <path class="cls-1" d="M33.3076,156.454c1.1495-1.0226,2.0783-1.2762,3.0836-.9158.2411.0864.3348.5843.5469.9897-1.1433.7499-2.1817.4707-3.6305-.0739Z"/>
  <path class="cls-4" d="M26.1423,120.6612l-3.9626.8826c.4556-1.9303,1.3245-2.2213,3.9626-.8826Z"/>
  <path class="cls-1" d="M47.4162,159.7073c-.0804-.497-.1881-.9913-.2354-1.4914-.0912-.9633.2321-1.4409.8761-1.2938.708.1617,1.0941.5714.9059,1.3706-.0849.3604-.0808.7417-.1171,1.1136,0,0,.0151-.0195.0151-.0194-.5007.1059-1.0014.2117-1.5021.3175l.0575.003Z"/>
  <path class="cls-1" d="M71.3363,149.6994c-.26.049-.5199.0981-.7799.1472.3268-1.3353.6536-2.6706.9822-4.0051,1.4178,1.3652.3875,2.5999-.2023,3.8579Z"/>
  <path class="cls-6" d="M40.7373,122.7307c.2353-.2349.4706-.4699.7059-.7045.7103.9182,1.4205,1.836,2.1307,2.7539-.5753-.0339-1.1505-.0679-1.7255-.0998-.811-.3974-1.0782-1.1068-1.1111-1.9496Z"/>
  <path class="cls-1" d="M69.9486,150.7494c-.3917.6496-.7834,1.2992-1.1753,1.9494-.3151.0198-.6301.0389-.9409.0571-.1413-1.5643,1.1599-1.6038,2.1162-2.0065Z"/>
  <path class="cls-6" d="M4.2801,147.9082c-1.2853-.8551-1.0586-2.31-1.4018-3.5364.4682,1.18.935,2.3582,1.4018,3.5364Z"/>
  <polygon class="cls-1" points="49.6051 142.7156 49.3521 142.766 49.4118 142.4226 49.6051 142.7156"/>
  <path class="cls-6" d="M56.8283,155.8953c-.083-.2112-.1681-.4215-.2564-.6313.2443-.2915.4897-.5829.7352-.8744.4472.6949.2012,1.1693-.4788,1.5057Z"/>
  <path class="cls-6" d="M57.7574,153.2727c.242.0427.4858.066.7308.0711-.0204.7705-.3457,1.1952-1.1794,1.0466.1495-.3725.2991-.7451.4486-1.1177Z"/>
  <path class="cls-7" d="M17.1044,145.0677c.133-.204.2521-.4198.4091-.6032.0376-.0439.2014.0202.3071.0346-.2548.1769-.5095.3538-.7646.5305-.0003-.0001.0483.0381.0483.0381Z"/>
  <path class="cls-6" d="M6.2602,150.4266c-.3231-.38-.6462-.76-.9695-1.1402.323.38.6463.76.9695,1.1402Z"/>
  <path class="cls-6" d="M5.3076,149.309c-.3507-.4789-.7015-.9578-1.0523-1.437.3507.4789.7015.9579,1.0523,1.437Z"/>
  <path class="cls-1" d="M70.5672,149.8147c-.203.3079-.4059.6158-.6089.9237.203-.3079.406-.6158.6089-.9237Z"/>
  <path class="cls-1" d="M47.5454,143.0228c-.0634-.2077-.1705-.3897-.3227-.5448.4243-.0071.6575.0994.3227.5448Z"/>
  <path class="cls-1" d="M7.757,151.8176c-.1895.6371-.4756.9112-1.006.2676.3353-.0892.6706-.1784,1.006-.2676Z"/>
  <path class="cls-5" d="M204.9791,184.2951c-.1798-.0054-.3593.0008-.5382.0189-.64-.6562-1.3806-.4551-2.1246-.2476-.0027.001-.0208.0187-.0186.0189-1.301-.7302-2.5997-.1963-3.9028.0147-.0031.001-.0293.0334-.0268.0332-3.0744-1.2956-6.288-1.3568-9.5444-1.0582-5.9866-.5555-11.9158-1.6824-17.9567-1.6582-1.145.0046-2.3297-.1339-3.4303-.4417-5.2176-1.4592-10.6109-1.9085-15.9135-2.8718-4.2925-.7798-8.6686-1.2619-12.8476-2.4427-2.4863-.7025-5.0138-.9938-7.4767-1.6371-3.4585-.9034-7.0089-1.5912-10.1757-3.3806-.8248-.466-1.6539-.6836-2.5765-.4552-.9159-.6572-1.7984-1.3791-2.7657-1.9593-2.5174-1.51-5.1073-2.9007-7.6045-4.4424-5.0648-3.1271-8.1965-7.5572-8.9014-13.5684-.074-.6309-.2542-1.2493-.3851-1.8729,0,.0006.0124-.0897.0123-.089.5622-.8717.4669-1.7112-.1269-2.5256.0679-.1252.0814-.2561.0424-.3922,1.0065-3.4297,1.9706-6.8723,3.0245-10.2871,1.8044-5.8468,5.3852-10.4071,10.4308-13.7766,1.4645-.978,3.1908-1.5932,4.8488-2.2425,1.1839-.4635,2.4541-.7063,3.6849-1.0473.9868.6389,1.9911.3656,2.9961.0548,0,0,.3445-.0789.3433-.0784,4.7898-.0382,9.3915,1.1057,14.0559,2.0274,6.463,1.2771,12.759,3.1158,19.0401,5.0118,6.8849,2.0782,13.6282,4.6242,20.61,6.389,3.2451.8202,6.5452,1.4236,9.7877,2.2534,7.3604,1.8837,14.7016,3.8424,22.0484,5.7794,3.3623.8864,6.6833,1.9735,10.0859,2.6551,8.3792,1.6784,16.3102,4.7196,24.2643,7.7,2.7742,1.0395,5.469,2.2853,7.8941,4.0315,1.4465,1.0416,2.8865,2.0923,4.3294,3.139,1.1691,1.3408,2.3381,2.6816,3.5079,4.0235.3796,2.2815.8705,4.55,1.1141,6.8448.4986,4.6969-1.5234,8.5625-4.5264,11.8959-1.439,1.5973-3.3676,2.7532-5.0744,4.109-3.7142.2967-7.4227.536-11.1612.3927-2.0388-.0781-4.0944.2819-6.1424.4449-7.1979.5725-14.3757-.0615-21.561-.3297-1.5227-.0569-3.0558.1621-4.5828.2559-.3314-.0219-.664-.0456-.9979-.0697-.5871-.0733-1.1729-.1463-1.7588-.2193ZM248.2998,171.2889c.213-.2923.426-.5846.639-.8768.317-.3567.8925-.7004.9111-1.0721.2013-4.0105-3.082-7.59-6.9873-7.6214-1.6097-.0129-3.1005.5284-3.8699,2.0392-.6883,1.3515-1.2154,2.8058-1.6407,4.2652-.4854,1.6656.467,3.0087,1.4614,4.1592.9435,1.0917,2.1883,1.7973,3.7486,1.1173.3306.3502.6218.9465.9988,1.0069,1.4413.231,2.8038-.2045,3.9964-1.0069.6619-.4453,1.0058-1.1531.7423-2.0105ZM110.7575,147.3133c.8215,2.7962,1.7457,5.9942,3.3671,8.9837,1.1512,2.1225,2.7791,3.18,5.0481,3.7722,4.9893,1.302,9.9285,2.7963,14.8878,4.2136.9921.2836,1.9783.5884,2.9742.8575,1.4593.3943,2.6851.1382,3.9347-.8764,4.3192-3.507,8.9743-6.5045,14.054-8.8267,1.873-.8563,3.6893-1.8472,5.4825-2.8632.8776-.4972,1.0451-1.5198.5001-2.355-.3502-.5367-.7623-1.0409-1.1968-1.5136-3.3166-3.6077-6.6563-7.1941-9.9648-10.8092-1.2187-1.3316-2.55-2.6081-3.5189-4.1103-1.9668-3.0496-4.849-4.5168-8.2029-5.3634-4.3744-1.1042-8.7511-2.2012-13.1091-3.3676-1.5842-.4241-3.0081-.3168-4.4774.4497-1.983,1.0344-3.7756,2.3387-5.1088,4.0821-5.879,7.6875-6.3996,8.1897-4.6698,17.7266Z"/>
  <path class="cls-1" d="M90.8065,140.4658c-.3552.8814-1.1255.9994-1.9131.9596-3.428-.1735-6.4734-1.1913-9.1935-3.4611-4.4429-3.7072-9.039-7.2349-13.6463-10.7387-1.7339-1.3186-3.6788-2.3598-5.5261-3.5297-3.1223-2.4409-6.3164-4.7962-9.3444-7.3485-1.9474-1.6415-3.7083-3.5189-5.4507-5.386-3.2316-3.4627-4.1247-7.8835-4.6587-12.3558-.1598-1.338.4086-2.7629.6437-4.1478.8461-.3503,1.4776.0931,2.1192.5521,6.1842,4.425,12.3372,8.8947,18.5765,13.2406,2.41,1.6785,5.0833,2.9757,7.5205,4.6189,3.6327,2.4492,7.163,5.0506,10.7362,7.5882,1.5721,1.1164,3.1425,2.2351,4.713,3.3531.8235,1.0121,1.6477,2.0239,2.4716,3.036-.0531.2689-.1059.5376-.1587.8063-.6497,4.6804.1873,8.9999,3.1107,12.8127ZM79.4251,127.8678c-.1223-1.3597.0059-1.9529-.2334-2.247-1.05-1.2905-2.0909-2.6331-3.3579-3.6893-1.163-.9696-2.5359-2.0296-3.9511-2.2766-2.3187-.4048-4.0089-1.5711-5.6217-3.0772-1.5996-1.4938-3.4219-2.611-5.3494-3.3546-1.0336.8181-1.7101,1.5294-1.5257,2.8286,3.787.3703,6.8002,2.1237,9.257,4.9434.4815.5525,1.2107.9001,1.8516,1.3006,1.0905.6813,2.2113,1.3142,3.302,1.9951,1.6129,1.0071,3.2107,2.0384,5.6285,3.5772Z"/>
  <path class="cls-1" d="M69.5634,109.7358c-1.6827-1.071-3.3073-2.2518-5.0649-3.1812-1.6897-.8936-2.6896-2.1915-3.154-3.9821,2.016.0782,3.4363-.8322,4.3943-2.5761.5582-1.0161,1.3432-1.9357,1.7437-3.0046.8295-2.2138,2.1334-4.0779,3.4484-5.5046,1.586-.7517,3.0047-1.1539,4.0648-2.0037,1.0252-.8218,1.6811-2.1044,2.4206-3.0807.3454.0105.4936-.0252.5991.0265.2274.1115.489.2235.638.4129,1.092,1.3889,2.1595,2.7971,3.3396,4.3358-1.0907.7043-2.0742,1.2497-2.9521,1.931-.9025.7004-1.6784,1.5617-2.5533,2.301-.8941.7555-1.1046,1.6877-.8929,2.7771.0298.3311.0596.6622.105,1.1655,2.8894-1.9499,5.8743-3.1425,9.1292-3.6291,2.1876-.4423,3.9941.6627,5.8501,1.4915,1.1671.5213,2.2175,1.3206,3.4036,1.7796,3.509,1.358,6.5249,3.5465,9.6505,5.5517,1.7458,1.12,3.0793,2.6043,4.2353,4.3645,1.6372,2.4928,2.3788,5.0672,1.8071,8.0881-.3523.0493-.7716.2482-1.0507.1262-4.4314-1.9368-8.8971-2.292-13.4535-.4507-.3399.1374-.7593.0777-1.1417.1097-2.0544-1.4869-4.1395-2.9336-6.1573-4.4687-4.5436-3.4566-9.3536-6.4915-14.3558-9.2308q.782-1.1045.4282-2.5161c-.1836,1.1804-.2889,1.8575-.3942,2.5347-1.5923.3097-1.3164,1.7978-1.7783,2.8206l.0476-.085c-.7855,1.2991-1.5709,2.5981-2.3564,3.8972Z"/>
  <path class="cls-2" d="M75.5947,98.1871c-.2117-1.0893-.0013-2.0216.8929-2.7771.8749-.7393,1.6508-1.6006,2.5533-2.301.8779-.6814,1.8614-1.2267,2.9521-1.931-1.1801-1.5387-2.2476-2.9469-3.3396-4.3358-.1489-.1895-.4106-.3015-.638-.4129-.1055-.0517-.2537-.016-.5991-.0265-.7395.9763-1.3954,2.2589-2.4206,3.0807-1.0601.8498-2.4787,1.252-4.0648,2.0037-1.3149,1.4267-2.6189,3.2908-3.4484,5.5046-.4005,1.0689-1.1855,1.9884-1.7437,3.0046-.9579,1.7438-2.3783,2.6543-4.3943,2.5761-.0027-.001-.1763-.0088-.1776-.01-.5723-.4834-1.1086-1.0173-1.725-1.4319-.5222-.3513-1.1371-.5645-1.711-.8388,3.1355-4.2559,3.9367-9.438,5.6394-14.2614.1231-.3486.0573-.7639.0799-1.1481.1128-1.2524.1742-2.5123.3502-3.7558.2117-1.4954.521-2.9768.7881-4.4652.7434-.2352,1.4867-.4696,2.23-.704.5991,1.4577,1.7354,2.2022,3.2619,2.191,1.8358-.0134,3.4296.4682,5.0586,1.3688,1.0231.5656,2.4614.4652,3.7183.5028,1.9981.0599,3.5055.683,3.9172,2.8515.4874,2.567,2.5045,4.0133,4.2103,5.6553.5077.4887,1.3408.7077,2.0651.8862.9725.2397,1.9842.32,2.8914.4556.4944.771.2398,1.3098-.2337,1.8027-.436.454-.8814.8991-1.3233,1.3484-.227.04-.4249.1377-.5952.2936-.0515-.1408-.1388-.2535-.2629-.3378-1.8706-.2888-3.6143-.068-5.0811,1.2651-3.3267.4712-6.3839,1.5467-8.8507,3.9466Z"/>
  <path class="cls-1" d="M220.7438,129.0159c.2701.3842.5402.7684,1.0935,1.5553-1.2023-.084-1.9699-.0034-2.6537-.2057-8.4105-2.4887-16.9311-4.6154-25.1283-7.8097-1.8912-.737-3.9776-.9726-5.9742-1.439l-.0471.108c-1.0047-.5088-1.9723-1.1167-3.0204-1.5099-5.5315-2.0748-11.0645-4.1482-16.6337-6.1183-4.4705-1.5815-8.7209-3.8341-13.4947-4.5091-.835-.3151-1.6898-.5861-2.5017-.9524-6.14-2.7701-12.5557-4.4591-19.2571-5.1763-5.6336-.603-11.0241.0145-16.1164,2.6131-1.3434.7043-2.6869,1.4086-4.104,2.1516-1.0826-.1279-1.2261-1.004-1.3041-1.9277,5.2172-4.8823,11.5534-6.6098,18.4907-6.2441,5.7948.3054,11.4856,1.4473,17.0401,3.1323,4.6552,1.4122,9.2407,3.0294,13.5821,5.2799,1.3656.7079,2.8249,1.257,4.281,1.7647,10.9139,3.8058,21.7552,7.8214,32.82,11.191,3.1954.9731,6.2672,2.3452,9.4226,3.458,4.4888,1.5831,9.0024,3.0957,13.5054,4.6383Z"/>
  <path class="cls-1" d="M127.4068,116.5564c-4.4643-1.0698-8.8624-.748-13.3914.8617.2568-1.7061,1.2053-2.4642,2.4888-2.7275,3.1444-.645,6.2496-1.3838,9.5198-1.4555,6.7913-.1491,13.318,1.0457,19.7476,3.0807,1.5885.5027,3.2412.802,4.8644,1.1948.1711.1655.3669.2032.5872.1131,4.6025,1.3645,9.2049,2.7291,13.8074,4.0936l-.0136-.0372c2.8136.7657,5.6272,1.5313,8.4408,2.297.54.1143,1.08.2285,1.6203.3428,6.0732,1.8438,12.1494,3.6775,18.2141,5.5485.5687.1755,1.0648.586,1.5946.8875.3384.9713.0838,1.6369-.9727,1.8908-.5842.1404-1.1678.2827-1.7517.4242,0,0,.0552.0376.0552.0376-.3893-.4171-.7164-1.0911-1.1795-1.2033-1.4045-.3402-2.8628-.6283-4.2939-.019l-.1624.162-.1932-.1236c-.3488-.313-.6975-.626-1.0463-.939-.3483.0826-.7321.3042-1.0391.2255-2.2348-.5728-4.4282-1.3315-6.6832-1.7966-6.4272-1.3257-12.6481-3.2764-18.7995-5.5583-6.9925-2.5939-14.2676-4.2591-21.5465-5.8441-3.2498-.7076-6.478-1.6547-9.8671-1.4555Z"/>
  <path class="cls-6" d="M188.0811,121.1168c.0325.7167.3771,1.2184,1.07,1.4138,5.5413,1.5628,10.6133,4.445,16.2787,5.6908,3.3605.739,6.6543,1.7833,9.9749,2.7019,1.5869.439,3.2822.6544,4.4448,1.9937-.5711,2.0834-.6084,2.1129-2.0976,1.8906-1.0069-.1504-2.0157-.2881-3.0236-.4314-1.0858-.3632-2.1584-.7768-3.2631-1.0694-.5833-.1545-1.2224-.0982-1.8362-.1371l.0618.0268c-.1363-.2126-.2238-.538-.4161-.6212-5.2637-2.2777-10.4163-4.8948-16.2757-5.3825-.6237-.0519-1.2459-.2447-1.8454-.4432-4.0019-1.3251-7.9948-2.6774-11.9995-3.9939-.3479-.1144-.7597-.0346-1.1418-.0451-2.8556-1.0603-5.6867-2.1933-8.5727-3.1631-3.9858-1.3393-8.0207-2.5314-12.0189-3.8346-1.9427-.6332-3.86-1.349-5.7677-2.0821-.698-.2683-1.5219-.5427-1.9609-1.0812-.9056-1.1107-2.1464-1.3145-3.3632-1.6787-4.9249-1.4742-10.0392-1.7648-15.0936-2.4301-1.2866-.916-2.5754-.0092-3.8644-.003-.2174-.5954-.4334-1.1926-.6495-1.7897,1.7241-.9409,3.5881-1.1984,5.5253-1.2328,1.265-.0224,2.5269-.2187,3.7902-.3372l-.0937-.0343,1.7697.4565-.0906-.0295c.7726.7292,1.6698.3193,2.5268.2768l-.0835-.0323c.4547.658,1.0809.641,1.7525.4458l-.053-.0265c.3268.2088.6535.4176.9802.6264l-.0688-.0296c.5858.1481,1.1716.2962,1.7574.4443l-.0775-.0358c.3304.2108.6609.4216.9913.6324l-.0537-.0407c.3693.9189,1.063,1.22,2.006,1.0665.4711-.0767.9456-.1318,1.4186-.1968,0,0-.0812-.0264-.0812-.0264.5638.6581,1.2912.4911,2.0039.3974.7477.2612,1.4954.5223,2.2434.7847.1418.9751.8215,1.5275,1.5428,2.095,1.8557,1.46,4.1756,1.8773,6.2327,2.8722,2.2897,1.1074,4.6048,1.4628,7.0622.7629l-.0813-.0432c.3056.9284.994,1.2573,1.9145,1.223l-.0661-.032c1.4136,1.6649,3.5506,1.7024,5.4767,2.7336.0676-.6712.1027-1.0192.1377-1.3671.486.0769.997.0826,1.454.2425,2.6082.9122,5.1974,1.8787,7.806,2.7898,1.1927.4166,2.4136.7779,3.6701.1909l.0471-.108Z"/>
  <path class="cls-4" d="M186.3884,131.9244l.1932.1236s.1624-.162.163-.162c1.8246.4074,3.6487.8148,5.4727,1.2222,0,0-.0552-.0376-.0552-.0377,2.9048,1.5025,6.1056,1.7047,9.2603,2.1096.3239.1827.6274.4351.975.5368,2.5813.755,5.1699,1.4852,7.7589,2.2132,3.3264.9355,6.618,2.0369,9.9904,2.7595,10.3253,2.2126,20.2992,5.3974,29.7403,10.176.3046.1541.7429.0439,1.119.0569,0,0-.0675-.0415-.0674-.0415.3119.9204.7603,1.6244,1.9152,1.2082,0,0-.0575-.0371-.0575-.0371.3861,1.4425,1.6316,1.8808,2.806,2.4022.1873.8311.3747,1.6623.5609,2.493-1.444-1.047-2.884-2.0978-4.3305-3.1393-2.4251-1.7462-5.12-2.992-7.8941-4.0315-7.9541-2.9804-15.8851-6.0216-24.2643-7.7-3.4026-.6816-6.7235-1.7687-10.0859-2.6551-7.3468-1.9369-14.688-3.8957-22.0484-5.7794-3.2424-.8298-6.5425-1.4332-9.7877-2.2534-6.9817-1.7648-13.725-4.3108-20.61-6.389-6.2811-1.896-12.5771-3.7347-19.0401-5.0118-4.6644-.9217-9.266-2.0656-14.0559-2.0274,1.1515-.3952,2.6354.0082,3.3604-1.4044,3.3891-.1992,6.6174.7479,9.8671,1.4555,7.2789,1.5849,14.554,3.2501,21.5465,5.8441,6.1514,2.2819,12.3723,4.2326,18.7995,5.5583,2.2549.4651,4.4484,1.2238,6.6832,1.7966.307.0787.6908-.1429,1.0391-.2256.0975.5929.414.9419,1.0462.9391Z"/>
  <path class="cls-1" d="M101.191,130.4069c.0842.2301.296.5045.2337.6836-1.0539,3.0311-2.1407,6.0507-3.2229,9.0719-.6816,1.903-1.8696,2.1746-3.4073.7019-6.3868-6.117-5.9221-13.1367-.8897-19.1879,1.443-1.7351,3.5518-2.0136,5.5709-2.365,3.0324-.5278,5.7137.1282,8.5105,1.9389-.311.3982-.5719.8293-.9233,1.1661-1.977,1.8948-3.5855,4.0356-4.6799,6.5671-.2261.5231-.7617.9124-1.1555,1.3626-.5871-.2141-.5925-.6594-.605-1.2066-.017-.7432-.078-1.5377-.3592-2.2102-.4021-.9616-1.8566-1.5032-2.5855-1.1282-.8884.4571-1.7383,2.0243-1.5703,2.8954.156.8087,1.2173,1.6983,2.3115,1.7477.6073.0274,1.2229-.2834,1.8438-.3367.2986-.0256.6181.192.9282.2995Z"/>
  <path class="cls-4" d="M131.2352,108.441c5.0544.6653,10.1688.9559,15.0936,2.4301,1.2167.3642,2.4576.568,3.3632,1.6787.4391.5385,1.2629.8129,1.9609,1.0812,1.9077.7331,3.8251,1.4489,5.7677,2.0821,3.9982,1.3031,8.0332,2.4953,12.0189,3.8346,2.886.9698,5.7171,2.1028,8.5727,3.1631-.2758.7607-.8497.8299-1.5383.6864-.7615-.1586-1.1991.2089-1.3963.9228-.54-.1143-1.08-.2285-1.62-.343-.3382-.5047-.5613-1.2232-1.0341-1.4774-2.3362-1.2558-4.8202-1.6135-7.4067-.8194,0,0,.0136.0372.0137.0369-.1623-1.3498-1.1579-1.9641-2.2538-2.3828-1.433-.5475-2.8868-1.2318-4.3803-1.3859-2.3725-.2449-4.7346-1.4764-7.1734-.3246-.2203.0901-.416.0523-.5872-.1131-.1678-.9096-.4423-1.6696-1.4952-1.9856-3.5136-1.0541-6.9147-2.4383-10.5301-3.2149-2.2035-.4733-4.3138-1.4423-6.404-2.3339-.4586-.1957-.6545-1.0073-.9714-1.5353Z"/>
  <path class="cls-4" d="M152.8844,109.756c-.7477-.2612-1.4954-.5223-2.245-.783-.6686-.1323-1.3353-.2651-2.002-.3979,0,0,.0812.0264.0812.0264-.968-.9733-2.0554-1.4769-3.4246-.8698,0,0,.0537.0407.0538.0406-.3304-.2108-.6609-.4216-.9913-.6323,0,0,.0775.0358.0775.0358-.5858-.1481-1.1716-.2962-1.7574-.4442,0,0,.0688.0296.0688.0295-.3268-.2088-.6535-.4176-.9803-.6263,0,0,.0531.0265.053.0265-.4548-.6573-1.109-.5307-1.7525-.4458,0,0,.0835.0323.0835.0322-.8423-.0923-1.6845-.1845-2.5267-.2767,0,0,.0906.0295.0905.0295-.5899-.1522-1.1798-.3043-1.7696-.4564,0,0,.0937.0343.0935.0343-.4847-.1454-.96-.3527-1.4551-.4264-5.0416-.7496-10.0099-.4171-14.8945,1.0652-.8198.3326-1.6388.6657-2.4578.9987-.0731-.3813-.1462-.7626-.2193-1.144,5.0924-2.5987,10.4829-3.2162,16.1165-2.6131,6.7014.7173,13.1171,2.4062,19.2571,5.1763.8119.3663,1.6668.6373,2.4996.9541-.2018.3239-.4014.6461-.601.9683-.4659-.1005-.9318-.201-1.3976-.3014Z"/>
  <path class="cls-6" d="M92.4438,117.2013c-1.5088-.9205-3.0465-1.7971-4.5204-2.7704-3.4103-2.2518-6.7853-4.5572-10.1855-6.8245-.6362-.4243-1.3682-.7123-1.9772-1.1685-1.219-.9131-2.5499-.6728-3.8883-.5143.4618-1.0227.1859-2.5108,1.7782-2.8205l-.0341-.0186c5.0023,2.7393,9.8122,5.7742,14.3558,9.2308,2.0178,1.5351,4.1028,2.9819,6.1573,4.4687-.5619.1391-1.1238.2782-1.6857.4173Z"/>
  <path class="cls-1" d="M119.6877,105.7176c4.8838-1.4827,9.8521-1.8152,14.8937-1.0656.4951.0736.9704.281,1.4551.4264-1.2631.1184-2.5249.3147-3.7899.3372-1.9373.0344-3.8013.2919-5.5255,1.2309-1.2519.1207-2.5037.2432-3.7555.3658-.5207.0379-1.0414.0758-1.5615.1154-.5131-.0469-1.0268-.0953-1.5405-.1438-.0586-.4221-.1172-.8442-.1759-1.2663Z"/>
  <path class="cls-6" d="M75.5947,98.1871c2.4668-2.3998,5.5241-3.4754,8.8505-3.9465,1.6936-.4216,3.3875-.8434,5.0813-1.2651.1241.0842.2113.1969.2628.3377-.4937.8923-1.4358.937-2.264,1.2176-.9325.3159-2.0578.212-2.697,1.1928-3.2544.4865-6.2393,1.679-9.1287,3.629-.0453-.5032-.0751-.8343-.105-1.1655Z"/>
  <path class="cls-4" d="M119.8636,106.9839c.5137.0485,1.0274.0969,1.5405.1438.0832.7573.2177,1.5723-.649,1.9737-1.051.4867-2.1705.8471-3.2019-.0077-.3668-.304-.5641-.8124-.8386-1.2283,1.0498-.2944,2.0994-.588,3.149-.8815Z"/>
  <path class="cls-4" d="M122.9656,107.0123c1.2518-.1226,2.5036-.2451,3.7555-.3658.2162.599.4323,1.1962.6496,1.7915-1.1059-.0224-2.218.0123-3.3187-.0832-.7316-.0635-.9417-.7157-1.0864-1.3425Z"/>
  <path class="cls-6" d="M119.8636,106.9839c-1.0496.2935-2.0992.5871-3.1491.8815-.0002.0008-.0522-.0463-.0514-.0465-.0356-.2671-.0719-.5339-.1083-.8007.2349-.0781.4601-.1781.6749-.3012.8184-.3341,1.6374-.6672,2.4572-.9998.0594.4225.118.8446.1766,1.2667Z"/>
  <path class="cls-6" d="M123.703,118.0392c-1.005.3108-2.0093.5842-2.9961-.0548,1.0044-.259,2.0112-.7039,2.9961.0548Z"/>
  <path class="cls-4" d="M116.5548,107.0181c.0364.2668.0727.5336.1083.8007-.5905-.1924-.5653-.4676-.1083-.8007Z"/>
  <path class="cls-6" d="M87.6958,127.6531c.0528-.2687.1056-.5375.1587-.8063-.0527.2686-.1057.5375-.1587.8063Z"/>
  <path class="cls-1" d="M244.5571,143.622c.4415-1.4614.76-2.9748,1.3501-4.3734,1.2486-2.9594,2.2702-5.9902,3.2465-9.0447.3884-1.2152.9795-2.3662,1.4883-3.5421.3053-.7056.7658-1.3736.9228-2.1085.6799-3.1806,2.2743-6.0068,3.386-9.0178.1775-.4808.2603-1.0953.6056-1.3992,2.0592-1.8111,2.5482-4.4065,3.54-6.7598,2.2482-5.3347,4.5419-10.6501,6.8185-15.9728.2026-.4737.4585-.929.6171-1.4165,1.2758-3.9211,3.1307-7.5921,4.7891-11.3517,1.2405-2.8122,2.0798-5.7996,3.152-8.6888.8036-2.1654,1.6274-4.328,2.5633-6.4381.9901-2.2322,2.1235-4.4009,3.1944-6.5973,1.9425.387,3.2199,1.715,4.4331,3.1341-.1409.2068-.3904.4053-.4069.6216-.3038,3.9951-1.4325,7.8145-3.0225,11.4216-1.6361,3.7117-2.455,7.4608-2.186,11.4777-.1693.1938-.2178.4143-.145.6619-.3928.3029-.9226.5253-1.1551.922-.8971,1.531-1.7163,3.1087-2.5275,4.6882-.2885.5619-.5909,1.1601-.6826,1.7724-.5506,3.675-1.8242,7.1315-3.2379,10.5265-.8845,2.1242-1.1215,4.1591-.1891,6.2852,0,0-.1551.1918-.1546.1933-.4046.4503-1.0366.8379-1.177,1.3582-.7762,2.8747-1.7654,5.6364-3.388,8.1628-.3974.6187-.5137,1.4246-.7263,2.1541-.536,1.8392-.8188,3.7948-1.6273,5.503-1.6094,3.4005-2.651,6.9151-3.3289,10.6077-.603,3.2849-1.5829,6.5006-2.3988,9.7463-.1926.7658-.4748,1.249-1.4228,1.5141-1.0739.3003-.9742,1.6512-1.2947,2.5892-1.8241-1.118-3.6405-2.2498-5.4748-3.3517-1.8444-1.108-3.7068-2.1861-5.5612-3.2773Z"/>
  <path class="cls-4" d="M271.1114,108.4225c-.9323-2.1261-.6954-4.161.1891-6.2852,1.4137-3.395,2.6873-6.8515,3.2379-10.5265.0917-.6123.3941-1.2105.6826-1.7724.8111-1.5794,1.6304-3.1572,2.5275-4.6882.2324-.3967.7623-.6191,1.1551-.922.116,2.0271.4199,4.0665.2926,6.0786-.1119,1.7668-.6115,3.4778-2.2324,4.706-1.7158,1.3002-2.2789,2.9955-.98,5.0282.4459.6977.321,1.7139-.3822,2.0805-2.1719,1.1323-2.9749,3.0318-3.4679,5.2378-.0917.4101-.669.7116-1.0222,1.0632Z"/>
  <path class="cls-4" d="M279.0486,83.5663c-.2691-4.0169.5499-7.766,2.186-11.4777,1.59-3.607,2.7187-7.4265,3.0225-11.4216.0165-.2163.266-.4148.4069-.6216.1204.0438.2736.0545.3566.1363,3.5896,3.5414,3.7341,4.1731,1.505,8.6362-.7139,1.4293-1.1343,3.1419-3.0837,3.6489-.7747.2015-1.0822,1.0797-.9897,1.9012.1288,1.1428.3501,2.2752.5658,3.6248-1.4056.9987-2.5414,2.2894-2.8258,4.1926-.0756.5059-.7463.923-1.1436,1.3808Z"/>
  <path class="cls-1" d="M276.1381,42.8912c-.2086-.1969-.4172-.3937-.6253-.5907.4341-.7452.8678-1.4904,1.3213-2.2695,2.5805.087,4.8633.5991,6.9524,1.9914.7717.5143,1.4653,1.5386,2.6705.9668l-.0588-.0211c.146,1.6996,1.5438,2.58,2.5023,3.7268.6693.8009,1.3488,1.5119,1.0268,2.7122-1.6121-.7586-3.2016-1.5065-4.7911-2.2543-1.9225-1.0384-3.8195-2.1284-5.7777-3.0944-1.0178-.5021-2.1435-.7853-3.2204-1.1673Z"/>
  <path class="cls-1" d="M272.7933,48.5442c1.5714.319,3.1429.638,4.7143.9567,1.7631.7723,3.5263,1.5449,5.2894,2.3176,1.1067,1.0243,2.2187,2.043,3.3179,3.0753.6168.5793.6072.5896.5763,2.5538-2.4208-.9825-4.7174-2.1173-7.2521-2.4622,0,0,.1111-.0205.1108-.0207-.2556-.2906-.5109-.581-.7662-.8714-2.1853-1.1938-4.3707-2.3875-6.6596-3.6377.2585-.7384.4638-1.3249.6692-1.9113Z"/>
  <path class="cls-1" d="M278.353,35.6766c1.3625.162,2.7249.3241,4.0874.4875,0,.0013.0053-.1961.0052-.1956.3248.2101.6498.4199.9747.6296,0,0-.0637.0179-.0639.018,2.1321,1.5798,4.276,3.1441,6.3914,4.7459.9332.7067,1.6911,1.5561,1.6214,2.8537-.4504.0389-.9013.0776-1.3523.1162-.9149-.5709-1.8116-1.1758-2.7608-1.6824-.1786-.0953-.5666.2021-.8579.3185.0001.0002.0589.0212.0589.0212.4546-.7958-.124-1.2134-.6697-1.4675-2.5306-1.1785-5.0901-2.2945-7.5324-3.3851.0316-.7915.0649-1.6257.0981-2.46Z"/>
  <path class="cls-1" d="M274.1037,45.6843c.5818-.156,1.1635-.312,1.7453-.4679,1.4548.3688,2.9349.6603,4.3572,1.1278,1.4484.476,2.8399,1.1252,4.2563,1.6986,1.5788,1.5745,3.6875,2.6351,4.6884,4.7157-.2266.6534-.62.9134-1.1546.5983-1.5142-.8922-2.9997-1.8331-4.4963-2.7545-1.9622-1.0415-3.8986-2.1485-6.1564-2.447-1.1549-.5832-2.3098-1.1665-3.4622-1.748.0757-.2398.149-.4813.2222-.7228Z"/>
  <path class="cls-6" d="M291.4706,37.9826c.8446-.7373,1.6892-1.4746,2.5347-2.212,1.9626,1.4154,1.8913,3.4914,1.8132,5.5621-.0646.176-.0716.3652-.018.5591.1868.9327.3736,1.8653.5604,2.798,0,0-.0788.1075-.0792.1072-1.2252-1.3669-2.5338-2.6698-3.6404-4.1261-.5745-.7561-.792-1.7835-1.1708-2.6883Z"/>
  <path class="cls-4" d="M284.4625,48.0428c-1.4164-.5734-2.808-1.2226-4.2563-1.6986-1.4223-.4675-2.9024-.759-4.3572-1.1278-.1871-.8104-.4919-1.6354.2892-2.3252,1.0769.382,2.2026.6652,3.2204,1.1673,1.9582.966,3.8552,2.056,5.7777,3.0944-.2246.2965-.4492.5932-.6738.8899Z"/>
  <path class="cls-4" d="M290.0169,44.3319c.4509-.0387.9019-.0774,1.3523-.1162,1.5522.3959,2.8514,1.0871,3.0666,2.8774.0372.3099-.1625.6983-.3646.966-.1011.1338-.5384.1921-.6809.0884-1.4016-1.0203-2.9829-1.898-3.3734-3.8155Z"/>
  <path class="cls-6" d="M277.3437,48.1553c2.2578.2984,4.1942,1.4055,6.1564,2.447-.2346.4051-.469.8105-.7032,1.2161-1.763-.7725-3.5262-1.5451-5.2893-2.3174-.0546-.4483-.1093-.897-.1639-1.3457Z"/>
  <path class="cls-8" d="M330.205,11.0759c-.2457.0376-.5794-.0152-.7242.126-3.6335,3.5404-8.1052,5.7964-12.5185,8.1176-3.6202,1.9042-7.3187,3.6606-10.9998,5.4467-.658.3193-1.401.4634-2.2183.7246-.2974-.5823-.6063-1.0004-.732-1.4678-.3958-1.471-.1041-2.2188,1.1854-2.8366,1.4959-.7167,3.0106-1.4133,4.5677-1.9795,5.3105-1.9309,10.3362-4.4359,15.2136-7.2733,1.5331-.8919,3.1872-1.5756,4.8298-2.376.5695.6186.9851,1.0699,1.401,1.5212.0002,0-.0047-.0029-.0047-.0029Z"/>
  <path class="cls-3" d="M296.3609,44.6898c-.1868-.9327-.3736-1.8653-.5596-2.7902,1.2887.3867,1.5175-.7017,2.0012-1.4368,1.7896-.8722,1.1477-2.1259.556-3.6077-.9932,1.2286-.8099,2.41-.5677,3.6009-.6584.295-1.3168.5901-1.9752.8851.081-2.0791.1522-4.1551-1.8104-5.5706.5384-1.0848,1.6677-1.0373,2.6025-1.391.9298-.3518,1.2699-1.2843.8364-2.1964-.214-.4504-.5475-.847-.8468-1.2533-.2871-.3897-.5998-.7605-.9377-1.1855,1.7663-1.7637,4.7342-1.6271,5.6143-4.5307,1.5242,4.3159,2.1528,8.3828.7025,12.5281-1.0363,2.962-2.5754,5.5775-5.6155,6.9481Z"/>
  <path class="cls-7" d="M299.9423,21.6883c.5176-.112,1.0353-.2241,1.553-.3362.1003.5848.2005,1.1697.3118,1.8197-1.3934.186-1.5963-.6859-1.8649-1.4835Z"/>
  <path class="cls-7" d="M333.4831,3.0983c.1262-.6547-.0986-1.4563.7561-1.8061.1789.7824.0805,1.4488-.7561,1.8061Z"/>
  <path class="cls-7" d="M283.4203,36.598c-.3249-.2097-.6499-.4194-.9747-.6296.3249.2096.6498.4196.9747.6296Z"/>
  <path class="cls-1" d="M245.8661,89.2253c.183-.7232.2391-1.5111.5696-2.1591,2.1081-4.1341,4.2767-8.2373,6.4251-12.3509.4179-.8001.962-1.5602,1.2319-2.4076,2.0085-6.3062,5.5335-11.9119,8.192-17.9156.3573-.8069.5474-1.6879.8152-2.5333.7138-.9289,1.7101-1.119,2.7983-1.0682.0216.1566.0814.2972.1792.4216-.2348.3061-.5451.5798-.6928.9234-1.7246,4.011-3.3806,8.0521-5.1472,12.0442-1.1425,2.5818-2.3732,5.1295-3.6784,7.6331-2.1403,4.105-4.3513,8.1737-6.5783,12.2326-.8649,1.5764-1.8127,3.1126-2.8188,4.6022-.2247.3326-.8532.3923-1.2958.5776Z"/>
  <path class="cls-4" d="M278.353,35.6766c-.0333.8343-.0665,1.6685-.0981,2.46,2.4423,1.0906,5.0019,2.2067,7.5324,3.3851.5457.2541,1.1243.6717.6697,1.4675-1.2052.5718-1.8988-.4525-2.6705-.9668-2.0891-1.3923-4.3719-1.9044-6.9524-1.9914-.4535.7791-.8872,1.5242-1.3213,2.2695-1.9611-.4995-3.9218-.999-6.0898-1.5514.1594-.588.1422-1.2099.4358-1.4477.4468-.3616,1.1452-.6974,1.6727-.6181,1.3444.2021,2.5098,1.3018,4.0217.8377.456-.8111-.0826-1.3088-.6728-1.4609-1.4355-.37-2.9147-.5709-4.3394-.833-.228-.9379.4635-1.2532.934-1.5956.5025-.3658,1.1271-.7259,1.7225-.7712,1.7653-.1344,3.5781-.3283,5.1556.8164Z"/>
  <path class="cls-4" d="M266.0774,51.2123c-.0979-.1244-.1576-.265-.1792-.4216.4827-.1619.9653-.3239,1.5984-.5364-.0846-1.1465-.1709-2.3165-.3056-4.1427.8929.98,1.355,1.4872,1.7956,1.9709,1.2977.1573,2.5519.3093,3.8065.4616-.2051.5866-.4104,1.1731-.6689,1.9115,2.2889,1.2503,4.4742,2.444,6.6595,3.638-.243.3648-.486.7292-.7289,1.0936-2.0063-.823-4.0126-1.6461-6.0192-2.4689-1.8831-.91-3.8561-1.4631-5.9581-1.506Z"/>
  <path class="cls-6" d="M267.4833,36.0903c.0131-.3431-.0241-.6999.0634-1.0228.036-.133.3403-.1931.5226-.2863.035.1866.1617.4329.0868.5479-.183.281-.4591.5014-.6977.7459,0-.0002.0249.0152.0249.0152Z"/>
  <path class="cls-4" d="M274.1037,45.6843c-.0732.2415-.1465.483-.2222.7228.0724-.242.1473-.4825.2222-.7228Z"/>
  <path class="cls-6" d="M71.9198,105.8387c.5475.3523.4361.835.226,1.304-.3811.8504-.5159,1.6976-.0885,2.5703-.8295.2118-1.6568.6571-2.4938.0224.7854-1.2987,1.5709-2.5977,2.3564-3.8968Z"/>
  <path class="cls-1" d="M57.731,100.2918c.5739.2743,1.1888.4876,1.711.8388.6164.4146,1.1527.9485,1.725,1.4319-1.3317.617-2.2791-.6906-3.4957-.7503-.1508-.0074-.2599-.8662-.3882-1.3307.1519-.0576.3011-.1208.4479-.1898Z"/>
  <path class="cls-1" d="M66.447,72.717c4.9425.3214,8.2294,2.7298,11.8855,5.1181-1.1426.911-1.998.9107-2.9532.3428-.7572-.4502-1.5047-1.0527-2.3321-1.2257-3.8986-.8149-3.9079-.7705-6.6002-4.2352Z"/>
  <path class="cls-1" d="M90.4658,87.6c-.1265.0255-.2526.0704-.3795.0726-.2551.0043-.6578.0861-.7436-.0393-1.1037-1.612-3.2441-1.9671-4.3221-3.5283-.5491-.7952-.7359-1.8405-1.2197-3.1268,3.2285.4908,5.2008,2.3184,7.2522,3.9998-.196.8738-.3917,1.7479-.5874,2.622Z"/>
  <path class="cls-2" d="M90.4658,87.6c.1957-.8741.3914-1.7482.5874-2.622,1.0392.6962,1.939,1.4889,2.0924,3.1147-1.0153.2735-1.8774.2038-2.6798-.4927Z"/>
  <path class="cls-1" d="M66.8186,75.9573c-.7433.2344-1.4866.4688-2.23.704.0191-.2397-.0194-.5044.0691-.716.2167-.5184.2187-1.2914,1.0493-1.2426.7338.0431.937.6605,1.1115,1.2546Z"/>
  <path class="cls-2" d="M43.574,124.78c-.7102-.9179-1.4205-1.8357-2.1307-2.7539-.0229-.187-.0814-.3617-.1752-.5242.4775-.1647.9837-.5271,1.4273-.4622,2.5481.3733,4.4126-.7678,6.0488-2.5228.2469-.2648.5377-.4887.7753-.7021,1.2432.1682,1.7067,1.135,2.3083,1.9426.0009-.0002.0827-.008.0827-.008-.4766.1346-1.0541.1418-1.4127.4256-1.6574,1.3118-3.2539,2.7004-4.8722,4.0615-.6838.1812-1.3677.3623-2.0515.5435Z"/>
  <path class="cls-3" d="M40.7601,119.9896c-.2138-.4419-.6894-.9493-.5979-1.3147.5074-2.0259-.4653-2.8963-2.2696-3.2383-.2756-1.4903-.4856-3.0001-1.5498-4.1944.7121-.8695,1.4121-.3455,1.8477.1984,1.3777,1.7202,3.1567,3.1679,3.8243,5.3975.0683.2282.2598.4196.3905.627.1698.7974.3433,1.5958.5168,2.3943-.7207.0434-1.4414.0867-2.1621.1301Z"/>
  <path class="cls-3" d="M58.642,130.3108c-.1731.9582.1683,2.1289-1.1604,2.5924-1.0167.3547-1.8813-.0019-2.1389-.9464-.2795-1.025-.3057-2.0314.2024-3.0033,1.2397-.0214,2.4816-.0468,3.0968,1.3574Z"/>
  <path class="cls-1" d="M42.9222,119.8596c-.1735-.7985-.347-1.597-.5168-2.3943.2484.0179.5019-.0008.7364.0574,1.5404.3815,2.35,1.0092,2.028,1.5937-.4933.8953-1.3507.9373-2.2476.7432Z"/>
  <path class="cls-1" d="M54.2777,122.5816c-.6843-.4009-1.3687-.8017-2.0529-1.203-.1047-.5434-.2096-1.0862-.3144-1.629,0,0-.0818.0079-.0827.008,1.4117.07,2.2752,1.0962,3.2316,1.9247.1203.1042-.1128.6166-.1823.9399-.1952-.0831-.3949-.0967-.5993-.0406Z"/>
  <path class="cls-8" d="M266.0774,51.2123c2.102.0428,4.075.596,5.9581,1.506-2.3281,5.2984-4.6719,10.5903-6.973,15.9007-.5088,1.1741-.8187,2.4334-1.3063,3.6181-.5833,1.417-1.0305,2.9769-1.9544,4.1441-1.0707,1.3524-1.7385,2.8324-2.3872,4.3652-3.7096,8.7667-7.3687,17.5549-11.143,26.2936-1.734,4.0145-3.757,7.9034-5.5314,11.9014-2.4526,5.5261-4.7756,11.1096-7.1962,16.6501-.6105,1.3974-1.1415,2.891-2.5762,3.7403-.2478-.0283-.5089-.017-.741-.0936-2.9441-.9711-5.884-1.9549-8.821-2.9351-.1453-1.4795-.2577-2.9361.5385-4.3234.2158-.3759.0952-.9451.129-1.4255,0,0-.0542-.0364-.0547-.0365,2.1798-1.7165,3.0478-4.3415,4.4862-6.5659.6079-.94.8776-2.0987,1.3016-3.1592,1.7668-2.6547,3.555-5.2834,5.2031-8.0252,2.7876-4.6379,5.0208-9.5379,7.4814-14.3308.6535-.0672.6339-.5082.5475-.9863.0731-.1318.1414-.266.2051-.4026,1.7333-2.0411,2.4501-4.5111,2.9463-7.0656.0386-.1987-.1761-.4465-.273-.6715,0,0-.0495-.0864-.0501-.0858.442-.1847,1.0706-.2444,1.2953-.5769,1.0061-1.4896,1.9538-3.0258,2.8188-4.6022,2.227-4.0589,4.438-8.1276,6.5783-12.2326,1.3052-2.5036,2.536-5.0513,3.6784-7.6331,1.7666-3.9922,3.4226-8.0332,5.1472-12.0442.1477-.3436.458-.6172.6928-.9234Z"/>
  <path class="cls-1" d="M251.006,150.9227c-.376-.0131-.8144.0972-1.119-.0569-9.4411-4.7787-19.415-7.9635-29.7403-10.176-3.3724-.7226-6.6639-1.824-9.9904-2.7595-2.5891-.7281-5.1776-1.4582-7.7589-2.2132-.3476-.1017-.6511-.3541-.9751-.5369-.5792-.9511-1.5809-1.1899-2.5317-1.5443-.9466-.3529-1.4499-.9969-1.0524-2.0663,2.3957-.4108,4.3885,1.0456,6.6137,1.4369,1.373.2414,2.7181.6377,4.0863.9119.5458.1095.9671-.163,1.1525-.7218,0,0-.0618-.0268-.0615-.0267.0112.3195-.1074.8102.0532.9317,1.5845,1.199,3.4421,1.6847,5.3843,1.9066,2.4189.7624,4.8444,1.5044,7.2553,2.2915,4.5905,1.4987,9.1715,3.0267,13.7606,4.5296.3571.1169.7473.1327,1.1219.1955,2.1848,1.0332,4.3712,2.0637,6.5546,3.1002,2.6431,1.2547,5.3193,2.4609,7.2468,4.7977Z"/>
  <path class="cls-1" d="M224.0734,130.5542c-.0338.4804.0867,1.0496-.129,1.4255-.7962,1.3873-.6838,2.8439-.5385,4.3234-.7011-.2317-1.3982-.4631-2.2486-.7453.3302-2.2014.9228-3.9914,2.9162-5.0036Z"/>
  <path class="cls-7" d="M215.0667,136.0082c-1.9422-.2219-3.7998-.7076-5.3843-1.9066-.1606-.1215-.042-.6121-.0532-.9317.6136.0387,1.2527-.0176,1.836.137,1.1047.2926,2.1773.7061,3.2631,1.0694.1128.544.2256,1.088.3385,1.632Z"/>
  <path class="cls-1" d="M255.6023,154.4545c-1.1744-.5214-2.4199-.9597-2.806-2.4022,1.3065.367,2.2639,1.142,2.806,2.4022Z"/>
  <path class="cls-1" d="M252.8538,152.0895c-1.1549.4162-1.6033-.2878-1.9152-1.2082.9245-.0509,1.5969.2979,1.9152,1.2082Z"/>
  <path class="cls-1" d="M243.2435,97.0476c-.2262-.4957-.4524-.9915-.6788-1.4874-.0002-.0002,0,.069-.0001.0686.0347-.2025.0695-.4047.1043-.6068.9559-3.1014,1.3686-3.8273,3.2478-5.7116.0969.2249.3116.4728.273.6715-.4962,2.5545-1.2129,5.0245-2.9463,7.0656Z"/>
  <path class="cls-1" d="M45.441,87.1156c1.1515-.9083,2.3029-1.8167,3.4542-2.7253,1.6926-.5,3.3564-1.2263,5.0849-1.4477,2.8199-.3612,5.536.133,7.784,2.1106-.4905,1.9769-.9281,3.9693-1.4897,5.9262-.3828,1.334-.9389,2.6183-1.4873,4.1155-1.2583-.4524-2.3052-.8288-3.3508-1.2075-2.9128-1.5511-5.8076-3.1379-8.752-4.6267-.9594-.4852-1.2229-1.2023-1.2433-2.145Z"/>
  <path class="cls-3" d="M64.9582,160.5755c-.5102-.7958-.1487-1.4387.3606-2.0565.2316.7466.4137,1.4855-.3606,2.0565Z"/>
  <path class="cls-3" d="M64.3894,161.5003c-.152-.5249-.0111-.8724.5751-.9507-.1917.3168-.3834.6337-.5751.9507Z"/>
  <path class="cls-6" d="M98.6756,145.73c.5938.8145.6892,1.6539.1269,2.5256-.0423-.8423-.0846-1.684-.1269-2.5256Z"/>
  <path class="cls-3" d="M47.3587,159.7043c.5007-.1058,1.0014-.2117,1.5021-.3175-.4722.9923-.5156,1.0014-1.5021.3175Z"/>
  <path class="cls-6" d="M51.9104,119.7495c.1048.5428.2096,1.0857.3144,1.629-.0464.7704-.0288,1.551-.1548,2.3077-.165.9907-.4434,1.9626-.6724,2.9427-.2054-.4039-.4115-.8079-.6169-1.2101-.101-.4745-.1666-.9623-.3117-1.4252-.3711-1.1836-.7981-1.4033-1.8354-.9037-.4319.2079-.7971.5543-1.1926.8377-.6054.1033-1.2107.2066-1.8158.3095,1.6186-1.3615,3.2151-2.7501,4.8725-4.0619.3586-.2838.936-.291,1.4127-.4256Z"/>
  <path class="cls-3" d="M47.441,123.9275c.3955-.2834.7608-.6297,1.1926-.8377,1.0373-.4995,1.4644-.2798,1.8354.9037.1451.4629.2106.9507.3117,1.4252-.4205.7849-.8403,1.5718-1.2612,2.358-2.893-.8538-2.9623-.9823-2.0786-3.8493Z"/>
  <path class="cls-6" d="M242.5627,173.2986c-1.5609.6808-2.8057-.0248-3.7492-1.1165-.9944-1.1505-1.9468-2.4936-1.4614-4.1592.4253-1.4594.9524-2.9137,1.6407-4.2652.7693-1.5107,2.2602-2.0521,3.8699-2.0392,3.9052.0315,7.1886,3.611,6.9873,7.6214-.0187.3717-.5942.7154-.9111,1.0721l-.2859-.1652c-.0414-.7537-.0297-1.5148-.1351-2.2594-.2309-1.631-1.0759-2.7972-2.7021-3.3022-.8049-.1113-1.612-.2227-2.4191-.3342l-.2809-1.2611c-.7912.2708-1.7489.3007-2.1154.7815-.9772,1.2817-1.8956,2.6475-2.1732,4.33-.2305,1.3968.1645,2.5279,1.2443,3.3732.7891.6178,1.6797,1.1059,2.525,1.6519,0,0-.0338.0722-.0338.0722Z"/>
  <path class="cls-6" d="M248.2976,171.2872c.2656.8591-.0783,1.5669-.7402,2.0122-1.1926.8024-2.5551,1.2379-3.9964,1.0069-.377-.0604-.6682-.6567-.9985-1.0073.0003-.0005.0341-.0727.0339-.0723,2.0896-.0268,3.9176-.7648,5.5472-2.0419l.154.1024Z"/>
  <path class="cls-6" d="M248.9388,170.412c-.213.2923-.426.5845-.6401.876-.0011-.0008-.1551-.1032-.155-.1032.1698-.3127.3396-.6253.5093-.938,0,0,.2859.1652.2859.1652Z"/>
  <path class="cls-6" d="M73.6505,103.1031c.1053-.6771.2106-1.3543.3942-2.5347q.3537,1.4116-.4282,2.5161s.0341.0185.0341.0185Z"/>
  <path class="cls-4" d="M188.034,121.2248c-1.2565.587-2.4774.2257-3.6701-.1909-2.6086-.9111-5.1978-1.8776-7.806-2.7898-.457-.1599-.968-.1656-1.4534-.2431-1.0348-.4121-2.0446-.9217-3.1143-1.2027-.7932-.2083-1.6643-.1197-2.5008-.1632,0,0,.0661.032.0661.0318-.2015-1.0916-1.0963-1.0971-1.9145-1.2228,0,0,.0813.0432.081.0432-1.1647-.5053-2.3175-1.04-3.496-1.5103-3.309-1.3207-6.6287-2.6149-9.9441-3.9196.1996-.3222.3993-.6444.601-.9683,4.7759.6733,9.0263,2.926,13.4969,4.5075,5.5692,1.9701,11.1023,4.0435,16.6337,6.1183,1.0481.3932,2.0157,1.0011,3.0204,1.5099Z"/>
  <path class="cls-7" d="M209.6907,133.1966c-.1854.5588-.6067.8312-1.1525.7218-1.3682-.2742-2.7133-.6705-4.0863-.9119-2.2252-.3913-4.2179-1.8477-6.6148-1.4364-.9843-.2711-1.9674-.5427-2.9505-.8143-.5298-.3015-1.0259-.712-1.5946-.8875-6.0647-1.8709-12.1409-3.7046-18.2141-5.5485.1969-.7138.6345-1.0813,1.3961-.9227.6886.1434,1.2625.0743,1.5383-.6864.3821.0104.7939-.0693,1.1418.0451,4.0047,1.3165,7.9976,2.6688,11.9995,3.9939.5994.1985,1.2217.3913,1.8454.4432,5.8594.4877,11.012,3.1047,16.2757,5.3825.1923.0832.2797.4087.4161.6212Z"/>
  <path class="cls-7" d="M151.223,117.6237c2.4388-1.1518,4.8009.0796,7.1734.3246,1.4935.1542,2.9473.8385,4.3803,1.3859,1.0959.4187,2.0916,1.033,2.2538,2.3828-4.6026-1.3642-9.205-2.7288-13.8075-4.0933Z"/>
  <path class="cls-7" d="M165.0168,121.6801c2.5866-.7941,5.0705-.4364,7.4067.8194.4728.2542.6959.9727,1.0341,1.4774-2.8136-.7655-5.6272-1.5311-8.4408-2.2968Z"/>
  <path class="cls-1" d="M154.282,110.0575c3.3154,1.3047,6.6351,2.5989,9.9441,3.9196,1.1784.4703,2.3312,1.005,3.496,1.5103-2.4572.6999-4.7722.3445-7.062-.7629-2.0571-.9949-4.377-1.4122-6.2327-2.8722-.7214-.5675-1.401-1.1199-1.5428-2.095.4656.0993.9315.1997,1.3974.3002Z"/>
  <path class="cls-1" d="M169.4894,116.6352c.8364.0436,1.7076-.0451,2.5008.1632,1.0697.281,2.0795.7905,3.1143,1.2027-.0357.3486-.0707.6966-.1383,1.3677-1.9262-1.0312-4.0632-1.0688-5.4767-2.7336Z"/>
  <path class="cls-1" d="M145.2938,107.7318c1.3692-.6071,2.4565-.1036,3.4246.8698-.4729.0649-.9475.1201-1.4186.1968-.943.1535-1.6367-.1477-2.006-1.0665Z"/>
  <path class="cls-1" d="M167.641,115.4442c.8181.1257,1.713.1313,1.9145,1.2228-.9204.0345-1.6088-.2945-1.9145-1.2228Z"/>
  <path class="cls-1" d="M137.6222,105.4711c.8422.0922,1.6845.1845,2.5267.2767-.857.0426-1.7542.4525-2.5267-.2767Z"/>
  <path class="cls-1" d="M148.6373,108.5752c.6667.1328,1.3334.2655,2.002.3979-.7109.0932-1.4382.2602-2.002-.3979Z"/>
  <path class="cls-1" d="M142.6764,106.7317c.5858.148,1.1716.2961,1.7574.4442-.5858-.148-1.1716-.2961-1.7574-.4442Z"/>
  <path class="cls-1" d="M140.0655,105.7155c.6435-.0849,1.2977-.2115,1.7525.4458-.6716.1952-1.2978.2122-1.7525-.4458Z"/>
  <path class="cls-1" d="M135.9431,105.0441c.5899.1521,1.1797.3042,1.7696.4564-.5899-.1521-1.1797-.3042-1.7696-.4564Z"/>
  <path class="cls-1" d="M144.3563,107.1401c.3304.2107.6609.4215.9913.6323-.3305-.2107-.6609-.4215-.9913-.6323Z"/>
  <path class="cls-1" d="M141.7649,106.1349c.3267.2087.6535.4175.9803.6263-.3267-.2087-.6535-.4175-.9803-.6263Z"/>
  <path class="cls-4" d="M101.191,130.4069c-.31-.1075-.6296-.3251-.9282-.2995-.6209.0534-1.2365.3642-1.8438.3367-1.0943-.0495-2.1555-.939-2.3115-1.7477-.1681-.8711.6819-2.4382,1.5703-2.8954.7289-.375,2.1833.1666,2.5855,1.1282.2812.6725.3422,1.467.3592,2.2102.0125.5472.018.9925.605,1.2066.0008.0007-.0364.0609-.0364.0609ZM98.7356,128.7037c.0416-.1871.1134-.3958.1193-.6065.0018-.0628-.2393-.207-.2702-.1836-.162.123-.2922.2879-.4336.4383.1965.1184.3931.2367.5844.3519Z"/>
  <path class="cls-7" d="M278.0547,55.1872c.243-.3644.4859-.7289.7289-1.0936.2554.2901.5107.5805.7663.8711-.3628.9846-.9103.7294-1.4952.2225Z"/>
  <path class="cls-4" d="M297.8025,40.4628c-.4838.7351-.7125,1.8234-2.0013,1.4368-.0544-.2017-.0474-.3909.0172-.567.6555-.2866,1.3139-.5816,1.9723-.8766l.0118.0068Z"/>
  <path class="cls-4" d="M297.7908,40.456c-.2422-1.1909-.4255-2.3723.5677-3.6009.5917,1.4818,1.2336,2.7355-.556,3.6077,0,0-.0117-.0068-.0117-.0068Z"/>
  <path class="cls-1" d="M242.491,98.4365c-.1527-.5167-.0836-.9106.5483-.9893.0855.4811.1052.9221-.5483.9893Z"/>
  <path class="cls-5" d="M112.5254,142.5489c2.0703-2.1321,3.0965-4.2106,2.3657-6.9281-.1669-.6206.2024-1.5779.6395-2.1318,1.2696-1.6086,2.5731-3.2333,4.0991-4.5854,1.7026-1.5085,3.6349-1.9882,6.0509-1.1495,4.7471,1.648,9.614,2.9563,14.4518,4.3334,1.1728.3339,2.1206.8765,2.894,1.7944,1.5776,1.8723,3.1266,3.7715,4.7662,5.5884,2.765,3.0641,5.5969,6.0677,8.3868,9.1093.5081.554.9505,1.1684,1.6182,1.9968-3.5896,1.8636-7.0676,3.46-10.3265,5.4207-3.1877,1.918-6.152,4.2074-9.2028,6.3257-6.9925-2.0171-13.7951-3.9794-20.8429-6.0123-2.4219-4.084-3.4033-8.8877-4.8999-13.7617ZM126.2948,146.6199c.4867,2.5047-.5709,4.3947-.9383,6.4427,1.7112,1.6005,3.7716,1.3642,5.6945,1.5166,1.6543-1.8168.5905-4.5097,2.3736-6.0728,2.3131-.1647,4.3499,1.8797,6.9456.7159.3814-1.5472.7725-3.1335,1.1251-4.5639-1.8347-2.3795-5.2431-1.0255-6.8743-3.4241.3166-1.8156.6718-3.5746.9113-5.3492.1094-.8106-.2351-1.5703-1.0959-1.8166-1.2032-.3444-2.4384-.5772-3.62-.8485-1.6445,2.1835-.9378,5.1056-3.1481,6.9377-2.3037.1166-4.6016-.9377-6.9157-1.1076q-1.531,2.6053-1.4215,5.3375c2.2006.7054,4.4999,1.4425,6.9636,2.2322Z"/>
  <path class="cls-4" d="M247.1609,168.5173c-.8872,2.6852-1.0498,2.823-3.3503,2.6345-.6301-.0516-1.2534-.1859-1.7671-.265-2.1591-3.423-1.8926-4.6,1.3534-6.5357.8069.1114,1.614.2228,2.4189.3342.3018.453.6059.9061.9099,1.3593.1451.8243.2902,1.6486.4353,2.4728Z"/>
  <path class="cls-1" d="M98.7356,128.7037c-.1913-.1152-.3879-.2335-.5844-.3519.1413-.1503.2715-.3152.4335-.4383.0309-.0234.2719.1208.2702.1836-.0059.2107-.0777.4194-.1193.6065Z"/>
  <path class="cls-1" d="M247.1609,168.5173c-.1451-.8242-.2902-1.6485-.4353-2.4728,1.0307.6684,1.0182,1.5204.4353,2.4728Z"/>
</svg>