<?xml version="1.0" encoding="UTF-8"?>
<svg id="Layer_1" xmlns="http://www.w3.org/2000/svg" viewBox="0 0 223.0409 93.1452">
  <defs>
    <style>
      .cls-1 {
        fill: #141814;
      }

      .cls-2 {
        fill: #b0d359;
      }

      .cls-3 {
        fill: #b8d433;
      }

      .cls-4 {
        fill: #809e8f;
      }
    </style>
  </defs>
  <path class="cls-1" d="M27.4482,54.0953c-4.7154-7.4849-9.4308-14.9698-14.1462-22.4547-1.7566-3.1801-3.8438-6.2264-5.1974-9.5697C5.6728,16.0645.1539,11.501.0027,4.4432-.077.7261,1.6076-.4783,5.1971.1643c7.9265,1.4191,15.9101,2.5195,23.8704,3.7499,8.9401.1174,17.8805.2169,26.8202.3558,19.0538.2959,38.1072.6123,57.1608.9203,2.6649.5335,5.3298,1.0669,7.9945,1.599-.0001-.0013.1695-.0211.1695-.0211.6109.1408,1.2217.2816,1.8326.4224,6.2674,2.1888,12.5153,4.4357,18.8067,6.5533,10.3373,3.4793,20.215,7.7147,27.5606,16.2421,4.1133,4.7751,8.1753,9.5944,12.2604,14.3938,1.9299,4.376,4.2792,8.6242,5.6633,13.1665,1.2151,3.9876,3.4138,5.4094,7.3397,5.7879,7.5745.7302,15.1972,1.459,22.6304,3.0042,6.4568,1.3423,7.0756,3.7014,3.7741,9.5267-1.6749.4923-3.3498.9846-5.0247,1.4769-3.0049-.298-6.0099-.596-9.0149-.894-1.2693-.2526-2.5386-.5051-3.8079-.7577-5.7888-1.4471-11.5184-3.3522-17.3959-4.1123-2.2985-.2972-5.4678,1.4104-7.3206,3.1724-10.9618,10.4245-24.4988,14.1149-38.9556,15.349-13.718,1.171-27.4608,2.0883-41.2056,2.8988-17.9375,1.0578-34.4933-3.5614-48.3485-14.8941-7.8336-6.4072-14.0217-14.8259-20.9536-22.3361-.5239-.5677-1.0693-1.1156-1.6047-1.6727ZM41.1128,30.0707l.0826.0644c-2.2391-.8851-4.4783-1.7702-6.7175-2.6552-.3279.4165-.6559.8331-.9838,1.2496.8398,1.8504,1.6796,3.7008,2.5195,5.5511,0,0-.0077-.0331-.0077-.0331,1.3604,1.6451,2.7208,3.2903,4.0813,4.9354,4.2285-.4994,7.2638-2.2745,7.5131-7.0279-2.1625-.6948-4.325-1.3896-6.4875-2.0843ZM167.048,70.3094c-.6084.5088-1.2168,1.0176-1.8252,1.5264-13.184,8.1589-28.1832,8.0311-42.852,9.229-4.662.3807-8.7646,1.4678-12.1271,5.1373,8.3873,1.7719,16.5629.2037,24.752-.8992,1.3863-.0311,2.7725-.0622,4.1588-.0933,10.7253.3005,20.5079-2.525,29.2448-8.8187.5348-.3339,1.0696-.6677,1.6044-1.0016,2.3199-2.1072,4.6399-4.2145,7.3161-6.6454-5.0126-2.5656-8.462-3.6792-10.2719,1.5655ZM23.499,10.1357c-2.8041-3.7646-6.2214-1.2811-9.3779-1.4557-.2588.5377-.5176,1.0754-.7764,1.6131,3.8814,2.312,7.7628,4.6241,11.6441,6.9361,2.0173-.019,4.0346-.0379,6.0519-.0568.514-.2963,1.0279-.5926,1.5418-.8888.7181-.0476,1.4361-.0952,2.1542-.1429,5.0289-.6778,10.0579-1.3556,15.0868-2.0334.2361-.5187.4723-1.0375.7084-1.5562-1.3632-.8347-2.7105-2.357-4.092-2.3887-7.1316-.1635-14.2719.055-21.4091.1402-.5106-.0556-1.0212-.1112-1.5318-.1667ZM164.1042,53.8044c-3.2675-4.0335-6.5351-8.0671-9.8027-12.1007-.5607.2548-1.1215.5096-1.6822.7644v9.9857c-1.2625,2.5576-.4598,3.9038,2.3425,4.4208,2.2422.4137,4.396,1.3327,6.6428,1.6849,1.3984.2192,2.8969-.1991,4.3504-.3313-.617-1.4746-1.2339-2.9492-1.8509-4.4238ZM84.9907,38.2698c4.0469,1.7791,8.0939,3.5583,12.8239,5.6377-1.0833-6.4841-1.9446-11.6399-2.806-16.7956.1208-.2692.0963-.5245-.0736-.7658.6935-4.1268-.7791-6.1397-5.235-6.2484-6.1153-.1491-12.2132-.9207-18.329-1.1637-5.2027-.2067-10.4202-.0427-15.9274-.0427,0,2.126.1759,3.6149-.032,5.048-.7021,4.8381,1.3387,7.2289,6.105,8.2913,7.897,1.7603,15.6826,4.0203,23.5152,6.0699l-.0411-.0308ZM44.9619,54.5028c-5.608-7.7121-5.8497-7.7773-12.2276-2.8763,7.1977,9.855,14.512,19.5456,25.3558,25.7991.7161.4129,2.2624-.6137,3.4225-.9707,4.701-4.5722,4.512-5.6079-.9088-8.7559-2.2303-1.2952-4.1637-3.13-6.1422-4.8244-3.2056-2.7451-6.337-5.5767-9.4997-8.3718ZM111.6927,11.1438c-3.5109-.2755-7.0217-.551-10.5325-.8265h-3.2065c-1.0359,7.5658,4.9524,6.9409,9.0845,8.4066,9.5651,2.5793,19.1301,5.1586,28.6951,7.7379,3.2265,1.389,6.453,2.7779,9.6796,4.1669.4625-.3315.925-.663,1.3875-.9945-1.3773-3.1764-2.7545-6.3528-4.1317-9.5292l-.0547.0613c-5.3774-1.9429-10.6808-4.1366-16.1547-5.7534-4.8232-1.4246-9.837-2.2045-14.7666-3.2691ZM132.1019,67.7119c.7164-.7755,1.4329-1.551,2.1494-2.3264,2.0501-1.2361,4.1002-2.4723,6.3267-3.8148-1.7544-1.6613-2.7744-2.6272-3.7943-3.593-.4011-.5835-.6939-1.5414-1.2197-1.6934-6.0283-1.7428-12.0032-3.998-18.1681-4.8596-8.2184-1.1487-17.0891-4.78-23.8146,4.4029-2.2617,3.0881-6.1276,4.9921-9.2267,7.479-2.5988,2.0855-5.1487,4.2318-8.2994,6.8284,12.3049,5.2898,23.9468,6.7181,36.0466,6.6595,8.0238-.0389,13.5766-4.268,19.3627-8.6182.3289.005.5413-.1498.6375-.4643ZM95.2292,48.7244c-.0229-.6873-.0458-1.3746-.0687-2.0619-12.8203-3.9319-25.6335-7.8876-38.4784-11.7374-.7851-.2353-2.0674.0823-2.6999.6278-3.465,2.9888-6.7992,6.1292-11.0926,10.0531,9.1528,7.2872,17.7224,14.1795,26.4139,20.9146.8005.6204,2.8127.7946,3.5277.2359,7.5518-5.9009,14.9543-11.9928,22.398-18.0321ZM147.1516,54.7313c0-3.6666.0846-6.5978-.0158-9.5227-.3033-8.8323-.2911-9.0939-8.8319-11.8109-11.5181-3.6641-23.1553-6.9543-34.7506-10.3736-1.002-.2955-2.0731-.3565-4.0316-.6769.9115,6.6985,1.8794,12.7231,2.4923,18.7835.2975,2.9427,1.6788,3.7329,4.4066,4.2092,9.2988,1.6238,18.5632,3.4762,27.7837,5.5008,4.1646.9144,8.1948,2.4403,12.9474,3.8906ZM151.2318,23.1627c-.6713.3047-1.3425.6094-2.0139.914,1.2659,3.5177,1.4987,8.6995,3.9887,10.2453,7.8765,4.8897,12.8315,12.0611,17.3463,19.5082,3.0569,5.0425,6.8992,6.4026,12.8886,6.1387-7.9703-15.2579-17.1397-28.6269-32.2097-36.8062ZM106.3337,83.9396c-.2512-.3224-.5024-.6448-.7536-.9672-9.5665-2.3125-19.1811-4.4462-28.6817-7.0032-5.871-1.5802-8.6301-.6239-11.9543,5.4698,10.2729,3.9326,20.5309,7.9137,31.7852,6.1864,3.312-.5083,6.4089-2.4182,9.6044-3.6858ZM129.6126,75.8497c12.6235-.9895,25.2133-1.4073,36.6313-10.9523-5.9022-1.616-10.5872-2.9294-15.2974-4.1446-.5132-.1324-1.2831.1516-1.7474.4948-6.4402,4.7611-12.8478,9.5662-19.5865,14.6021ZM35.4187,43.9955c-2.4-4.5525-5.2882-8.6002-6.7369-13.1103-2.2458-6.992-7.9656-6.9575-14.2584-8.7624,4.6601,7.5661,8.9318,14.0674,12.7337,20.8327,2.3826,4.2395,4.7588,4.4462,8.2616,1.04ZM92.634,15.0621c.4088-.4543.8177-.9085,1.2266-1.3628-1.5383-1.1908-3.0485-3.3683-4.6193-3.4131-10.601-.3017-21.2153-.1896-31.8237-.0722-.8021.0089-1.5923,1.095-2.388,1.6803.8549.5195,1.6968,1.4594,2.567,1.4863,3.9653.1225,7.9503-.225,11.9065-.0079,7.718.4235,15.4214,1.1111,23.1309,1.6894ZM35.4095,21.9102c-.056.4349-.1121.8699-.1682,1.3048,5.0068,1.4588,10.0137,2.9175,15.7492,4.5885-.7319-3.7109,1.4737-8.1167-3.7536-8.1556-3.9366-.0293-7.8845,1.4529-11.8274,2.2623ZM200.3551,68.9064l-.2175,1.1744c5.5624.8464,11.1247,1.6927,16.6871,2.539.0765-.5334.153-1.0669.2296-1.6003-5.5664-.7044-11.1328-1.4087-16.6991-2.1131Z"/>
  <path class="cls-4" d="M95.2292,48.7244c-7.4437,6.0392-14.8463,12.1312-22.398,18.0321-.715.5587-2.7272.3845-3.5277-.2359-8.6915-6.7351-17.2611-13.6274-26.4139-20.9146,4.2934-3.9239,7.6276-7.0642,11.0926-10.0531.6325-.5455,1.9148-.8631,2.6999-.6278,12.8449,3.8498,25.6581,7.8055,38.4784,11.7374.0229.6873.0458,1.3746.0687,2.0619Z"/>
  <path class="cls-4" d="M147.1516,54.7313c-4.7526-1.4503-8.7828-2.9762-12.9474-3.8906-9.2205-2.0246-18.4849-3.877-27.7837-5.5008-2.7278-.4763-4.109-1.2664-4.4066-4.2092-.6129-6.0605-1.5808-12.0851-2.4923-18.7835,1.9586.3204,3.0296.3814,4.0316.6769,11.5953,3.4193,23.2325,6.7095,34.7506,10.3736,8.5408,2.717,8.5286,2.9786,8.8319,11.8109.1004,2.9249.0158,5.8561.0158,9.5227Z"/>
  <path class="cls-3" d="M136.7838,57.9777c1.02.9658,2.0399,1.9317,3.7943,3.593-2.2266,1.3426-4.2766,2.5787-6.3266,3.8147-.9053-.1095-1.8109-.2188-2.7164-.3281.189.8849.3779,1.7698.5668,2.6548-.0961.3145-.3086.4693-.6374.4638-1.3393.2384-2.7979.2167-3.9954.7653-3.4899,1.5987-6.7682,4.6252-10.3216,4.943-11.7274,1.0489-23.5267,1.0652-35.2881-5.1256,1.8688-1.7089,3.2455-3.2196,4.8652-4.3955,3.1791-2.3081,7.3395-3.794,9.5721-6.764,4.3505-5.7874,9.9314-5.8544,15.9472-5.2082,4.1954.4507,8.3483,1.2982,12.5181,1.9815.4806.0788,1.2574.1091,1.3749.3846,2.2822,5.3501,6.8555,2.9836,10.6468,3.2207Z"/>
  <path class="cls-3" d="M94.935,26.3462c.1699.2413.1944.4966.0737.7677.0001,4.2005.0001,8.399.0001,12.6892-3.8405-.5877-6.9293-1.0604-10.0182-1.5332,0,0,.0411.0308.041.0308-1.6148-1.3714-3.0293-3.4748-4.8806-3.9813-6.3875-1.7475-12.9714-2.7721-19.3754-4.4687-1.4225-.3768-2.7614-2.2076-3.4752-3.6887-.4183-.8681.2643-3.3128.8104-3.4342,4.4062-.9796,8.8886-2.0614,13.3661-2.1469,4.1649-.0796,8.3392,1.1661,12.5345,1.5625,2.7574.2605,5.5594.0493,8.3414.0493,1.9771,1.0092-1.3193,5.2765,2.5821,4.1535Z"/>
  <path class="cls-4" d="M151.2318,23.1627c15.07,8.1793,24.2394,21.5483,32.2097,36.8062-5.9894.2639-9.8317-1.0962-12.8886-6.1387-4.5148-7.447-9.4697-14.6184-17.3463-19.5082-2.49-1.5458-2.7228-6.7275-3.9887-10.2453.6713-.3047,1.3426-.6094,2.0139-.914Z"/>
  <path class="cls-4" d="M106.3337,83.9396c-3.1955,1.2676-6.2924,3.1774-9.6044,3.6858-11.2543,1.7273-21.5123-2.2538-31.7852-6.1864,3.3242-6.0938,6.0833-7.0501,11.9543-5.4698,9.5006,2.5571,19.1152,4.6908,28.6817,7.0032.2512.3224.5024.6448.7536.9672Z"/>
  <path class="cls-2" d="M136.7838,57.9777c-3.7913-.2371-8.3646,2.1294-10.6468-3.2207-.1175-.2755-.8943-.3059-1.3749-.3846-4.1698-.6833-8.3228-1.5308-12.5181-1.9815-6.0158-.6462-11.5967-.5792-15.9472,5.2082-2.2327,2.97-6.393,4.4559-9.5721,6.764-1.6197,1.1759-2.9964,2.6866-4.8652,4.3955,11.7614,6.1908,23.5607,6.1745,35.2881,5.1256,3.5534-.3178,6.8317-3.3443,10.3216-4.943,1.1975-.5486,2.6561-.527,3.9954-.7653-5.7862,4.3508-11.339,8.5798-19.3628,8.6187-12.0998.0587-23.7417-1.3696-36.0466-6.6595,3.1507-2.5966,5.7007-4.7429,8.2994-6.8284,3.0992-2.487,6.9651-4.3909,9.2267-7.479,6.7255-9.183,15.5963-5.5516,23.8146-4.4029,6.1649.8617,12.1398,3.1169,18.1681,4.8596.5258.152.8187,1.1099,1.2197,1.6934Z"/>
  <path class="cls-3" d="M135.7334,26.4618c-9.5651-2.5793-19.1301-5.1586-28.6959-7.7393-.7606-.8894-1.6105-1.7165-2.2613-2.6784-1.2645-1.869-2.4171-3.8135-3.616-5.7268,3.5109.2755,7.0217.551,10.537.8273-1.8192.0008-3.6428.0008-5.4665.0008-.0133.4602-.0267.9204-.04,1.3806,4.7881.5968,9.5821,1.1519,14.3592,1.8264.9216.1302,1.7445.8593,2.6685,1.0894,6.457,1.6076,12.9286,3.1566,19.3956,4.7244,0,0,.0547-.0613.0574-.0605.0933,2.0634.1839,4.1261.2609,5.8792-2.748.182-4.9734.3295-7.1989.4769Z"/>
  <path class="cls-2" d="M168.3994,76.3909c-8.7368,6.2936-18.5195,9.1192-29.246,8.8187.8436-.9442,1.6885-1.8884,2.1398-2.3927h-13.5065c-.0034.2303-.0068.4605-.0101.6907,2.4064.5984,4.8129,1.1968,7.2194,1.7952-8.1891,1.103-16.3647,2.6712-24.752.8992,3.3624-3.6694,7.465-4.7565,12.1271-5.1373,14.6688-1.1979,29.668-1.0701,42.8488-9.2242-1.621,1.9275-3.2388,3.8502-5.5349,6.5789,3.3765-.786,6.0456-1.4074,8.7146-2.0287Z"/>
  <path class="cls-4" d="M129.6126,75.8497c6.7387-5.0359,13.1463-9.841,19.5865-14.6021.4642-.3432,1.2341-.6272,1.7474-.4948,4.7103,1.2152,9.3952,2.5286,15.2974,4.1446-11.4181,9.545-24.0078,9.9628-36.6313,10.9523Z"/>
  <path class="cls-3" d="M44.9619,54.5028c3.1627,2.7951,6.2941,5.6267,9.4997,8.3718,1.9785,1.6943,3.9119,3.5291,6.1422,4.8244,5.4208,3.148,5.6099,4.1837.9069,8.7574-2.3135-1.3446-4.9523-2.3354-6.874-4.1049-5.2291-4.8146-10.2878-9.8354-15.1173-15.0494-1.3944-1.5054-1.7838-3.9417-2.8755-6.5222,3.6739,1.6444,5.996,2.6837,8.3181,3.723Z"/>
  <path class="cls-2" d="M94.935,26.3462c-3.9014,1.123-.605-3.1444-2.5821-4.1535-2.782,0-5.584.2112-8.3414-.0493-4.1953-.3964-8.3696-1.642-12.5345-1.5625-4.4775.0855-8.9598,1.1674-13.3661,2.1469-.5461.1214-1.2288,2.5661-.8104,3.4342.7138,1.4811,2.0527,3.3119,3.4752,3.6887,6.404,1.6966,12.9879,2.7212,19.3754,4.4687,1.8513.5065,3.2658,2.6099,4.8806,3.9813-7.8325-2.0495-15.618-4.3096-23.5151-6.0699-4.7663-1.0624-6.8071-3.4533-6.105-8.2913.2079-1.4331.032-2.922.032-5.048,5.5073,0,10.7247-.164,15.9274.0427,6.1158.2429,12.2137,1.0146,18.329,1.1637,4.4559.1087,5.9285,2.1216,5.235,6.2484Z"/>
  <path class="cls-4" d="M35.4187,43.9955c-3.5028,3.4062-5.879,3.1995-8.2616-1.04-3.8019-6.7653-8.0736-13.2666-12.7337-20.8327,6.2928,1.8049,12.0126,1.7705,14.2584,8.7624,1.4487,4.5101,4.3369,8.5578,6.7369,13.1103Z"/>
  <path class="cls-4" d="M92.634,15.0621c-7.7095-.5783-15.413-1.2659-23.1309-1.6894-3.9562-.2171-7.9412.1305-11.9065.0079-.8702-.0269-1.7121-.9668-2.567-1.4863.7957-.5853,1.5859-1.6714,2.388-1.6803,10.6084-.1174,21.2227-.2296,31.8237.0722,1.5709.0447,3.0811,2.2223,4.6193,3.4131-.4089.4543-.8177.9085-1.2266,1.3628Z"/>
  <path class="cls-2" d="M44.9619,54.5028c-2.3221-1.0393-4.6442-2.0787-8.3181-3.723,1.0917,2.5805,1.4811,5.0168,2.8755,6.5222,4.8295,5.214,9.8882,10.2348,15.1173,15.0494,1.9218,1.7695,4.5605,2.7603,6.874,4.1049-1.1582.3556-2.7045,1.3822-3.4206.9693-10.8439-6.2535-18.1581-15.944-25.3558-25.7991,6.3779-4.901,6.6196-4.8358,12.2276,2.8763Z"/>
  <path class="cls-2" d="M32.5826,16.2836c-.5139.2963-1.0278.5926-1.5417.8888.9753-.9683,1.8127-2.1775,2.9645-2.8375,1.1567-.6627,2.6268-.7782,3.9595-1.1335-3.0358-1.0205-5.8245-.8105-8.5592-1.1037-1.5051-.1613-2.9196-1.169-4.3749-1.7952,7.1373-.0852,14.2775-.3036,21.4091-.1402,1.3815.0317,2.7289,1.554,4.092,2.3887-.2361.5187-.4723,1.0375-.7084,1.5562-5.0289.6778-10.0579,1.3556-15.0833,2.0331-.7169.0475-1.4373.0954-2.1577.1432Z"/>
  <path class="cls-3" d="M152.6193,52.4538v-9.9857c.5607-.2548,1.1215-.5096,1.6822-.7644,3.2676,4.0336,6.5352,8.0672,9.8038,12.1024-3.8098,4.0833-6.3665,3.2884-10.3353-3.4956-.4495.8372-.8001,1.4902-1.1508,2.1433Z"/>
  <path class="cls-4" d="M35.4095,21.9102c3.9429-.8094,7.8907-2.2916,11.8274-2.2623,5.2273.0389,3.0217,4.4447,3.7536,8.1556-5.7355-1.671-10.7424-3.1298-15.7492-4.5885.0561-.4349.1122-.8699.1682-1.3048Z"/>
  <path class="cls-2" d="M142.614,20.1662c-6.4669-1.5678-12.9386-3.1168-19.3956-4.7244-.924-.23-1.7468-.9592-2.6685-1.0894-4.7771-.6746-9.5711-1.2297-14.3592-1.8264.0133-.4602.0267-.9204.04-1.3806,1.8237,0,3.6473,0,5.4665-.0008,4.9251,1.0638,9.9388,1.8437,14.7621,3.2683,5.4738,1.6167,10.7772,3.8105,16.1547,5.7534Z"/>
  <path class="cls-3" d="M47.6004,32.155c-.2493,4.7534-3.2846,6.5285-7.5134,7.0279-.9162-2.0125-.2283-5.3511-4.081-4.9354,0,0,.0077.0331.0077.033,1.0311-2.2521,1.9263-4.6741,5.1818-4.1455,0,0-.0826-.0644-.0821-.064,2.1627.6949,4.3249,1.3894,6.4871,2.084Z"/>
  <path class="cls-3" d="M25.0308,10.3025c1.4553.6261,2.8698,1.6338,4.3749,1.7952,2.7347.2932,5.5234.0832,8.5592,1.1037-1.3328.3553-2.8029.4708-3.9595,1.1335-1.1519.66-1.9892,1.8692-2.9645,2.8375-2.0174.0189-4.0347.0379-6.0513.057-.7401-1.3243-1.7363-2.5782-2.1295-3.9989-.2501-.9034.3952-2.0546.639-3.0947.5106.0556,1.0212.1112,1.5318.1667Z"/>
  <path class="cls-3" d="M168.3994,76.3909c-2.669.6213-5.3381,1.2427-8.7146,2.0287,2.296-2.7287,3.9139-4.6514,5.5349-6.5789.6116-.5136,1.22-1.0225,1.8291-1.5319,1.8298-.0007,3.6591-.0007,5.7618-.0007-1.1235,2.0339-1.9651,3.5575-2.8068,5.0812-.5348.3339-1.0696.6677-1.6044,1.0016Z"/>
  <path class="cls-2" d="M23.499,10.1357c-.2438,1.0401-.889,2.1913-.639,3.0947.3932,1.4207,1.3894,2.6746,2.1295,3.9989-3.8821-2.3122-7.7634-4.6243-11.6448-6.9363.2589-.5377.5176-1.0754.7764-1.6131,3.1565.1746,6.5738-2.3089,9.3779,1.4557Z"/>
  <path class="cls-2" d="M152.6193,52.4538c.3506-.6531.7013-1.3061,1.1508-2.1433,3.9688,6.784,6.5255,7.5789,10.3353,3.4956.6158,1.4729,1.2327,2.9475,1.8497,4.4221-1.4536.1322-2.952.5505-4.3504.3313-2.2468-.3522-4.4006-1.2712-6.6428-1.6849-2.8024-.5171-3.605-1.8633-2.3425-4.4208Z"/>
  <path class="cls-2" d="M84.9907,38.2698c3.0889.4727,6.1777.9454,10.0182,1.5332,0-4.2901,0-8.4887-.0001-12.6892.8612,5.1539,1.7226,10.3096,2.8058,16.7937-4.73-2.0795-8.777-3.8586-12.8239-5.6377Z"/>
  <path class="cls-2" d="M170.0038,75.3893c.8417-1.5237,1.6833-3.0473,2.8068-5.0812-2.1028,0-3.932,0-5.7618.0007,1.8091-5.2441,5.2586-4.1305,10.2712-1.5649-2.6762,2.4309-4.9962,4.5382-7.3161,6.6454Z"/>
  <path class="cls-2" d="M135.7334,26.4618c2.2255-.1474,4.4509-.2948,7.1989-.4769-.077-1.7531-.1675-3.8158-.2609-5.8792,1.3746,3.1756,2.7518,6.352,4.129,9.5284-.4625.3315-.925.663-1.3875.9945-3.2266-1.389-6.4531-2.7779-9.6796-4.1669Z"/>
  <path class="cls-2" d="M101.1602,10.3173c1.199,1.9133,2.3516,3.8579,3.616,5.7268.6508.9619,1.5007,1.789,2.2613,2.6784-4.1314-1.4643-10.1198-.8394-9.0838-8.4052h3.2065Z"/>
  <path class="cls-3" d="M134.9958,85.3029c-2.4064-.5984-4.8129-1.1968-7.2194-1.7952.0034-.2303.0067-.4605.0101-.6907h13.5065c-.4513.5043-1.2961,1.4485-2.1398,2.3927-1.385.0311-2.7712.0622-4.1575.0933Z"/>
  <path class="cls-2" d="M41.1954,30.1351c-3.2555-.5286-4.1507,1.8934-5.1818,4.1455-.8398-1.8503-1.6796-3.7007-2.5194-5.5511.3279-.4166.6558-.8331.9838-1.2496,2.2391.885,4.4783,1.7701,6.7175,2.6552Z"/>
  <path class="cls-2" d="M47.6004,32.155c-2.1622-.6946-4.3244-1.3891-6.4871-2.084,2.162.6944,4.3245,1.3892,6.4871,2.084Z"/>
  <path class="cls-2" d="M36.0059,34.2475c3.8527-.4157,3.1648,2.9229,4.081,4.9354-1.3602-1.6451-2.7206-3.2903-4.081-4.9354Z"/>
  <path class="cls-2" d="M132.1019,67.712c-.189-.8849-.3779-1.7698-.5668-2.6548.9055.1093,1.811.2186,2.7164.3281-.7166.7757-1.4331,1.5512-2.1495,2.3267Z"/>
  <path class="cls-3" d="M32.5826,16.2836c.7204-.0479,1.4407-.0957,2.1577-.1432-.7216.048-1.4396.0956-2.1577.1432Z"/>
</svg>