<?xml version="1.0" encoding="UTF-8"?>
<svg id="Layer_1" xmlns="http://www.w3.org/2000/svg" viewBox="0 0 280.5474 136.7057">
  <defs>
    <style>
      .cls-1 {
        fill: #f05361;
      }

      .cls-2 {
        fill: #f8ec26;
      }

      .cls-3 {
        fill: #f27fa1;
      }

      .cls-4 {
        fill: #793b96;
      }

      .cls-5 {
        fill: #393f45;
      }

      .cls-6 {
        fill: #b6b8b8;
      }

      .cls-7 {
        fill: #4a4a4a;
      }

      .cls-8 {
        fill: #f3f1f0;
      }

      .cls-9 {
        fill: #2a282a;
      }
    </style>
  </defs>
  <path class="cls-7" d="M102.4867,19.893c.6585-.3462,1.2893-.765,1.9796-1.0277,9.6567-3.6745,19.3528-7.2311,29.2705-10.162,4.9554-1.4644,9.9276-2.8209,14.9913-3.8716,4.2139-.8744,8.3894-1.9393,12.5679-2.9763,4.0033-.9936,8.1099-1.1577,12.182-1.3956,5.9105-.3455,11.841-.4201,17.764-.4577,4.3056-.0273,8.6123.2296,12.9194.2889,2.9077.0401,5.8171-.0762,8.7255-.0645,6.26.0253,12.4569.9456,18.6885,1.3593,6.9597.462,13.595,2.2973,20.0664,4.6771,4.8318,1.7768,9.6821,3.6416,13.9797,6.5868,1.5894,1.0892,3.0842,2.3243,4.5685,3.5574,3.9091,3.2475,6.412,7.5106,8.4178,12.073,1.4043,3.1943,1.8118,6.6534,1.9205,10.1003.1972,6.2494-1.144,12.2714-3.9289,17.8087-3.6724,7.3021-9.5105,12.368-17.2652,15.1859-2.794,1.0153-5.6086,1.4401-8.5556,1.1795-.6051-.0535-1.2253.0656-2.0691.12.3934,1.0103.6227,1.8269,1.0104,2.5597,3.7915,7.1668,5.0682,14.8085,4.3832,22.83-.165,1.9322-.2808,3.8703-.5115,5.7947-.3231,2.6948-1.2241,5.2397-2.2139,7.7495-1.5014,3.8071-2.9104,7.6639-5.4499,10.9527-.3222.4174-.7373.763-1.1094,1.1419-.3377-.1392-.8104-.4911-.988-.3784-.5676.3604-.1998.8184.0888,1.2131.058.0793.1159.1588.1738.2382-.2942.3522-.5884.7043-.8826,1.0565-.5335-.3524-1.0669-.7048-1.6003-1.0572,1.3026-2.0979,2.5596-4.2257,3.916-6.2882,4.776-7.2622,6.6456-15.2671,6.6362-23.9033-.0086-7.8999-2.2671-15.0352-6.2355-21.7483-.6085-1.0294-1.4647-1.4626-2.5694-1.7241-2.1963-.5199-4.3665-1.1493-6.5512-1.7191-3.0107-.7852-5.0226-2.7361-6.5408-5.373-1.2498-2.1707-1.0806-4.3356-.2308-6.518.5224-1.3415,1.6659-1.6282,2.8624-.8174,4.4741,3.0316,8.5904,6.4932,11.8995,10.7775,1.3709,1.7749,2.9747,2.5689,5.1117,2.9108,3.6512.5842,7.1054-.0057,10.4037-1.4582,6.2515-2.753,10.9319-7.1573,13.6668-13.5091.6808-1.5812,1.5011-3.1031,2.1606-4.6923,1.507-3.6314,2.2098-7.4139,1.9535-11.357-.0628-.9668-.1201-1.9356-.1276-2.9039-.0312-4.006-1.2842-7.6021-3.5635-10.8722-.9844-1.4124-1.9595-2.8335-2.8798-4.288-1.9432-3.0714-4.5819-5.3858-7.6527-7.2718-2.7616-1.6961-5.7235-2.9672-8.6505-4.333-5.6093-2.6173-11.536-4.1925-17.5484-5.3989-3.361-.6744-6.842-.7476-10.2677-1.1034-1.9196-.1994-3.8325-.4791-5.756-.6196-2.026-.148-4.0604-.1999-6.0921-.2474-7.6405-.1786-15.2807-.4032-22.9223-.4786-3.9779-.0393-7.9585.1969-11.9379.3093-2.6886.076-5.38.1005-8.0652.2409-5.2842.2764-10.4559,1.2366-15.5559,2.6393-3.6268.9975-7.2874,1.8535-11.0387,2.272-.9596.1071-1.9216.2987-2.8493.5664-3.2032.9242-6.3594,2.0304-9.593,2.8258-5.5683,1.3696-10.6723,4.0061-16.1201,5.6901-6.7981,2.1014-13.2366,5.1307-19.8412,7.732-.5976.2354-1.2198.4083-1.8306.6102.0269-.7593.5671-1.0292,1.174-1.2486,1.2349-.4464,2.4593-.9155,3.5045-1.7486-.1936-.4287-.3188-.706-.444-.9833.4124-.1973.8248-.3947,1.2373-.5919.3904.386.6437,1.1813,1.3764.6148.1394-.1077-.0984-.7032-.1621-1.0737ZM240.104,66.0001c-2.1582-2.5449-4.7651-4.507-7.6893-6.0499-.7589.9029-.8965,1.1959-.7355,1.5962.6622,1.6466,1.7847,2.9466,3.3288,3.7521,1.8789.9801,3.8575,1.769,5.7929,2.6407.4235.2934.8476.5811,1.4162.0823-.4547-.9408-1.0445-1.7175-2.1132-2.0214Z"/>
  <path class="cls-9" d="M82.3778,70.869c.2117.3522.4234.7043.6351,1.0563-.493.2447-1.0193.4197-1.4489-.0486-.7134-.7778-1.3689-1.6084-2.0603-2.4066-.3959-.4571-.9021-.484-1.4426-.3087-.3065-.2697-.613-.5398-.9194-.81.1657-.452.0003-.6272-.4628-.5539-1.0249-.264-2.0773-.4511-3.0698-.8059-3.6571-1.307-7.3306-2.2584-11.273-1.4328-1.1359.2379-2.3457.1145-3.5204.1791-.4897.027-.9762.1126-1.6587.1951.3442.6024.4838,1.0288.7669,1.312,1.5766,1.5771,2.3087,3.5648,2.8658,5.6526.164.6146.3874,1.2133.5835,1.8193-.2677,1.8185-.9207,3.4923-1.8332,5.0834-.6068,1.058-1.4086,1.9248-2.5338,2.3458-2.0522.7678-4.1539,1.0108-6.216-.008-.8584-.4241-1.6799-.9229-2.5182-1.3877-.5762-.7739-1.1459-1.5528-1.7306-2.3202-.5206-.6834-1.0782-1.3393-1.5824-2.0343-.5445-.7506-1.046-1.5323-1.6712-2.4553-1.5808,1.3755-3.0254,2.622-4.4582,3.8819-1.7703,1.5569-3.8742,2.236-6.1851,2.37-1.4682.0851-2.7975-.3476-3.8305-1.3764-1.8798-1.8721-3.2575-3.9037-2.6894-6.8492.33-1.7108.6357-3.393,1.57-4.8552,1.0362-1.6218,2.2012-3.1632,3.3471-4.7122.6274-.8481,1.3313-1.6395,2.1617-2.6531-.8289-.4539-1.4521-.7951-2.0753-1.1353-.7197-.5933-1.2017-1.7277-2.4659-1.0844-.2507-.023-.5015-.046-.7522-.069-.823-.2568-1.646-.5137-2.469-.7705-.2361-.0509-.4722-.1017-.7083-.1525,0,0-.2011-.0573-.2011-.0573-.4605-.45-.8317-1.0522-1.6169-.9486-.9779-.428-1.9614-.8439-2.9327-1.2863-3.878-1.7661-4.9054-7.8314-1.0343-11.1333,3.4455-2.9389,7.3377-3.8843,11.701-2.609,1.6452.4808,3.2422,1.1247,4.8694,1.6698.6805.228,1.3823.3923,2.1756.6138.375-1.7287-.2084-3.1525-.4175-4.6079.189-1.2188.3781-2.4376.5671-3.6564.4777-.8364.8814-1.7287,1.4573-2.4908.434-.5742,1.0129-1.1633,1.6581-1.4318,2.8221-1.1744,5.2775-.5804,7.2182,1.8232,3.0409,3.7663,5.0373,7.991,5.2424,12.9278.0208.5008.142.9975.2296,1.5828.5032-.0941.8541-.0632,1.0777-.2171,1.6819-1.1577,3.3233-2.3745,5.0072-3.5293,2.572-1.7639,5.094-3.618,7.7729-5.2047,3.2376-1.9176,6.6198-3.5907,9.9332-5.3809,1.3189-.7126,2.7545-1.2655,3.6659-2.5638.375-.42.544-.8702.2049-1.3952.0254-.2312.0508-.4623.0762-.6935.7091-.1656,1.118.1056,1.3681.7998.3577.9929.9614.8416,1.5958.2363,2.6241-1.4561,5.2483-2.9121,7.8724-4.3682.2014.5935.4028,1.187.6041,1.7804-.5824.2874-1.1647.5749-1.7471.8623q-1.255-.1234-1.6894,1.0459c-2.0254,1.3274-4.0686,2.6288-6.0654,3.9979-.5983.4102-1.0671,1.0092-1.5953,1.5217-.4101-.0141-.8229-.0632-1.2298-.0333-.4932.0363-.9815.1393-1.472.2134-6.0717,3.1672-11.8846,6.7757-17.6871,10.4001-1.4482.9046-2.8425,1.8965-4.2458,2.8709-.3875.2691-.5266.6473-.0321,1.2058,1.9944-1.1865,4.2006-1.882,6.5988-1.8.2998-.0117.5997-.0234.8996-.0351.7292-.0612,1.4983-.3017,2.1804-.1502,2.1332.4739,3.6659-.4495,5.1758-1.7825,2.4042-2.1228,4.4744-4.5358,6.4752-7.0213.5826-.3212.9386-.752.7093-1.4661.1896-.3368.3792-.6736.5688-1.0104.1895.2453.4121.4718.563.7389.8118,1.4372.8056,1.4407,2.6272.8533-.2003.453-.4006.9059-.6012,1.3583-.5026.3695-1.0048.7396-1.507,1.1096-2.0707,1.4695-4.106,2.9729-5.6903,5.0041-.3137.4022-.8185.6552-1.2352.9771-1.2331.22-2.319.5982-2.3112,2.1514l.0262-.0628c-.0601.1426-.1202.2853-.1803.4279.1539.001.3079.002.4618.003,0,0,.2394.1086.2394.1086,0,0,.1466.2183.146.2189.0764.5688.1535,1.1371.2305,1.7053-1.8977-.9963-3.5418-.8252-5.3603.5046-3.4312,2.509-7.3149,4.0445-11.6279,4.304-.2966.0178-.5854.1655-1.2591.3666,1.4251,2.4376.609,4.9787.4398,7.4932,3.3602,1.0006,6.5625,1.3978,9.9598.7973,2.9674-.5245,5.6044-1.3965,7.6209-3.7161.6317-.2635,1.1095-.6382,1.0247-1.4192.3134-1.6128.6268-3.2256.9402-4.8384.318-.0948.6359-.1896.9538-.2844.6889.0703.8276.602.846,1.1292.1025,2.9277-.6723,5.4605-3.3199,7.1105-.8217.5147-1.7718.8982-2.0303,1.9881.7482.5183,1.4964,1.0366,2.2446,1.5548.2997.0722.5994.1444.8991.2165l.0473-.0081c.3703.3835.7555.3074,1.147.0375.7467.1058,1.4934.2115,2.24.3173.6409.8101,1.2501,1.6487,1.9396,2.4151.2461.2736.6867.3722,1.0386.5506.3073.3083.6146.6166.9216.9245.4239.5391.8481,1.0785,1.2723,1.6179ZM55.6191,50.9143c-.2263.7773-1.7804.6711-1.2196,2.1197,3.4374-1.3568,7.1482-1.9665,10.9529-4.2657-1.158-.0316-1.6899-.161-2.1561-.0393-2.1843.5702-4.3505,1.2096-6.5233,1.8242l-1.0539.3611ZM43.0701,52.2978c-1.1118-1.8826-2.0023-3.603-3.1085-5.1713-.527-.7471-1.3944-1.3431-2.2299-1.7656-1.8226-.9218-3.6964-1.758-5.5989-2.5021-2.6739-1.0458-5.4382-1.4923-8.1503-.2029-1.3465.6402-2.6452,1.4593-3.8049,2.3963-1.8943,1.5306-1.9775,3.809-.3683,5.6774.8542.9918,1.8689,1.7246,3.101,2.2421,4.57,1.919,9.361,3.1646,14.0563,4.6995.4683.1531,1.0183.0558,1.699.0808.4938-2.537,2.5726-3.6909,4.4044-5.4541ZM49.3837,50.9355c3.5927-6.1738,1.9883-13.9079-3.5736-17.9129-1.813-1.3055-3.7441-1.0614-4.9951.7431-.9872,1.4239-1.7292,2.9165-1.2059,4.8038.398,1.4355.3939,2.9813.7795,4.4216.8716,3.2551,2.5881,6.0447,4.9811,8.553,1.4261-.2162,2.7847-.4222,4.014-.6086ZM37.6297,60.3006c-1.4323.341-2.2937,1.1847-3.2597,1.8303-3.1163,2.0829-4.7495,5.1837-5.8062,8.6463-.4174,1.368-.3364,2.7749.1143,4.1294.1636.4918.4029,1.0581.7883,1.3587,1.4999,1.1697,3.1559,1.7995,5.1058,1.1608,2.3064-.7554,4.2081-2.0689,5.8464-3.8539,1.3821-1.506,2.2309-3.1373,1.8705-5.2349q-3.2234-3.2386-4.6594-8.0368ZM52.482,56.3181c-.5004-.518-.986-.949-1.3861-1.4485-1.156-1.4431-2.6018-1.7236-4.3287-1.2742-2.0497.5335-3.7079,1.6644-5.1349,3.1711-1.7256,1.822-2.0085,3.984-1.2807,6.2909.7677,2.4333,3.8684,4.2003,6.1165,3.6213,3.0683-.7902,6.3699-4.8833,6.6188-7.6771.0896-1.0057-.0477-1.9219-.605-2.6834ZM44.9304,69.0723c-.0213.5159-.2112,1.0993-.0339,1.5325.6879,1.6802,1.329,3.4175,2.3013,4.9322.9125,1.4215,2.0974,2.7324,3.3815,3.8373,2.4756,2.1299,4.1806,1.9389,6.306-.5164.6225-.7191,1.1891-1.5362,1.5656-2.4022.2796-.6429.3806-1.4646.2689-2.1598-.6299-3.9191-3.0007-6.4503-6.4034-8.0264-1.2806.7092-2.344,1.4591-3.5224,1.9053-1.1781.4462-2.4714.5887-3.8636.8975Z"/>
  <path class="cls-1" d="M31.1282,58.61c.6231.3412,1.2463.6824,2.0752,1.1363-.8304,1.0135-1.5343,1.805-2.1617,2.6531-1.1459,1.549-2.3109,3.0904-3.3471,4.7122-.9342,1.4622-1.2399,3.1444-1.57,4.8552-.5681,2.9454.8096,4.9771,2.6894,6.8492,1.0331,1.0288,2.3623,1.4615,3.8305,1.3764,2.3109-.134,4.4147-.8131,6.1851-2.37,1.4327-1.26,2.8774-2.5064,4.4582-3.8819.6252.923,1.1267,1.7048,1.6712,2.4553.5042.6949,1.0618,1.3509,1.5824,2.0343.5847.7674,1.1544,1.5463,1.7314,2.3211-.2792.2989-.5592.5969-.8392.8949-.4808-.0728-.9616-.1456-1.311-.1985-.6465,1.7262-.9844,3.3637-1.8123,4.6969-2.229,3.5891-5.1976,6.5959-8.4913,9.191-2.9806,2.3484-6.5404,2.897-10.0362,1.3552-4.5619-2.0121-8.0661-5.286-10.0169-9.9881-.6089-1.4676-1.1928-2.9791-.9937-4.6376-.0724-.1114-.1449-.2229-.2173-.3343l.0469-1.0022c.0228-.238.0456-.4761.0685-.7141.0054-.605.0108-1.2101.0162-1.8151l-.0691-.1511s.1321-.1003.132-.1004c.3799-1.6761.7612-3.328,1.8415-4.7615.495-.6569.6729-1.5528.9946-2.3404,1.096-1.3753,2.192-2.7506,3.288-4.1259.1773-.1375.3547-.2749.532-.4124,1.6916-1.3302,3.3831-2.6603,5.0747-3.9905.1867-.1247.3734-.2494.56-.3741,1.2956-.754,2.6253-1.4701,3.269-2.9472.273-.1286.5461-.2572.8191-.3858Z"/>
  <path class="cls-5" d="M221.7122,101.755c.2283.0029.3823.1113.4621.3253.2449.1198.4897.2396.7345.3594.3303.2832.6607.5663.991.8495.6591.9498,1.5099,1.8225,1.9304,2.8681.5665,1.4087,1.4129,2.5698,2.3631,3.6975,0,0-.0025-.0065-.0025-.0066-.2692.6382.0116,1.1137.4563,1.5406.1688.0974.2215.2383.1583.4228.1251.4723.2503.9445.3754,1.4166.063.2081.126.4162.189.6243.0214.2588.0428.5176.0641.7764.0572.4946.1145.9891.1718,1.4837.0042.2841.0084.568.0126.8519.1582,3.7-1.2452,6.9157-3.1864,9.9262-1.0739,1.6655-2.5889,2.8621-4.5348,3.4324-.2782.0181-.5564.0362-.8347.0543.046.2687.0018.6241.1581.7869.2735.2847.6702.451,1.0148.6656-.7032.1905-1.4344.6148-2.104.5333-2.6247-.3197-5.2413-1.5392-8.0025-3.4953.6538-.5216,1.3076-1.0431,1.9614-1.5646,1.0248.2347,2.0437.4999,3.0754.698,2.5604.4916,4.8003.0873,6.5874-2.0751,1.1044-1.3364,2.0054-2.7372,2.4835-4.3911.4418-1.5284.8176-3.0758,1.2226-4.6148.0076-.207.0152-.414.0228-.621-.3826-1.704-.7651-3.4079-1.1476-5.1119-.1924-.4018-.3849-.8037-.5773-1.2055-.5703-.9127-1.1405-1.8254-1.7108-2.7381.0375-.8197-.3447-1.2986-1.1586-1.427-1.5496-1.3738-3.3606-2.289-5.284-3.0043-.3849-.1431-.7857-.3838-1.1698-.3671-3.4053.1481-6.5223,1.0829-9.2018,3.451.16.5757.253,1.0979.4476,1.579.9653,2.3874,2.0787,4.7225,2.9092,7.1548,1.0259,3.0047,1.2059,6.0734-.1682,9.072-.9324.1562-1.3668-.5122-1.8422-1.1128.0183-.3159.1097-.648.0438-.9452-.7412-3.3428-1.8856-6.552-3.2852-9.6717-.0674-.1503-.3005-.2263-.4571-.3366-.1038.1734-.2993.3483-.296.5194.0441,2.2531.3489,4.4559,1.2842,6.5402.3433.7649.6049,1.5664.9037,2.3513-.3473-.2029-.6946-.4058-1.0859-.6344-.1924.3878-.3084.6811-.4757.9415-.1578.2456-.3696.4566-.5408.6625-1.0585-.1764-1.3688-1.0089-1.8191-1.6951.4554.0781.9107.1561,1.4796.2537-1.7898-3.8038-2.1768-7.5538-1.2222-11.4025.4349-1.7535-.3672-2.8917-1.6039-3.8359-.5783-.4415-1.3137-.7162-2.017-.9477-2.1969-.7233-4.6703,1.2494-4.4646,3.5602.0832.9345.2932,1.8578.4455,2.7863-.9654.1767-1.3608-.4045-1.5581-1.2037-.2785-1.1279-1.0702-1.1792-1.9916-.9913-.2453-1.7646.2659-3.4229,1.0534-4.9123,1.4389-2.7215,4.1318-3.6137,7.715-2.8043.2463.0992.4927.1984.739.2975.307.2317.6139.4633.9211.6951.4039.3078.8078.6154,1.2116.923.3105.2894.6211.5788.9316.8682.294.4715.6553.8258,1.2742.7313,2.8917-2.2682,6.0653-3.7918,9.8219-3.9779,1.0795-.0535,2.089-.0377,3.0791.3894.3069.0675.6138.1351.9208.2026,0,0,.0209.0066.0208.0066.2461.0694.4923.1389.7385.2083.2259-.0423.3951.0367.5077.2371.2864.1166.5728.2332.8592.3498Z"/>
  <path class="cls-5" d="M14.6863,78.1992c-.0054.6051-.0108,1.2101-.0158,1.8145-.0227.2378-.0458.4763-.0688.7147-.0156.3341-.0313.6681-.047,1.002.0601.1194.1326.2309.2174.3345-.199,1.6585.3848,3.1701.9937,4.6376,1.9508,4.7022,5.455,7.9761,10.0169,9.9881,3.4958,1.5418,7.0556.9932,10.0362-1.3552,3.2937-2.5951,6.2623-5.6018,8.4913-9.191.8279-1.3331,1.1658-2.9707,1.8123-4.6969.3494.0529.8302.1257,1.3108.1982.9101,3.3416,3.2976,5.6842,5.5525,8.0942,1.4786,1.5803,3.3651,2.5603,5.344,3.4488,5.1725,2.3224,10.4022,2.0111,15.6771.5842,1.5489-.419,3.0475-1.0307,4.0793-2.3851.7604-.6788,1.5209-1.3576,2.2813-2.0364.2897-.4267.5795-.8535.8693-1.2802.2002-.2654.4004-.5308.6007-.7962.9036-1.1366,1.0367-2.476,1.0144-3.8563l.0119-.1096c.3653-1.0629.5268-2.1372.1786-3.2396.2576-4.257-1.074-7.8089-4.5971-10.3978-.1644-.1208-.2577-.3384-.3841-.511.5405-.1748,1.0466-.148,1.4425.3091.6915.7982,1.347,1.6288,2.0603,2.4066.4295.4683.9559.2934,1.4489.0486.3502.5347.7812,1.0334,1.037,1.6098,1.4383,3.2402,1.5908,6.6971,1.3861,10.1424-.08,1.3465-.6001,2.7702-1.2715,3.9602-3.0882,5.4738-7.4643,8.9774-14.069,9.3829-6.0323.3703-11.5233-.9877-16.6182-4.1458-2.1381-1.3253-3.6636-3.2972-5.3262-5.1208-.3507-.3847-.6454-.8203-1.1037-1.4096-.5754.7593-1.073,1.3016-1.4415,1.9209-2.307,3.8772-5.541,6.8378-9.193,9.393-4.1601,2.9107-8.5368,2.724-12.8167.5146-3.5993-1.8581-6.3759-4.7475-8.4962-8.2166-1.9405-3.1752-2.6203-7.5829-1.8377-12.0109.475.0847.9494.1694,1.4238.254Z"/>
  <path class="cls-5" d="M80.1839,68.3265c-.3518-.1785-.7924-.2771-1.0386-.5506-.6895-.7664-1.2987-1.605-1.9401-2.4155,3.7391-.2596,7.5055-.3228,11.2115-.8282,4.523-.6167,8.7778-2.1434,12.1756-5.3729,1.4709-1.398,2.7955-2.9631,4.0864-4.5346,2.6391-3.2127,4.0153-6.8245,3.1898-11.0543.2502-.8344-.3017-1.3484-.7591-1.9002-.1628-.1465-.2726-.3256-.3295-.5371q-.0487-1.2353-1.2446-1.471c-.7912-.5285-1.5554-1.1046-2.3805-1.5734-1.0153-.5769-2.0388-1.1878-3.1339-1.5667-3.0075-1.0404-6.1092-1.1134-9.1903-.4057-2.395.5501-4.747,1.2874-7.1181,1.9415-.216-.0029-.4091.0616-.5795.1933-.1513.1635-.3376.2587-.5588.2855-.1001-.1279-.2047-.2519-.3139-.3721.2003-.453.4006-.9059.6008-1.3589-.1258-.1617-.253-.3222-.3816-.4815,1.7624-1.1796,3.7768-1.6199,5.8176-1.9825.3011-.0196.6024-.0392.9036-.0588,4.4413-1.2117,8.7946-1.0713,13.0322.8517.3463.1866.6922.3726,1.0381.5585,1.0152.2265,1.8053.7685,2.3388,1.6695,1.1961,1.5732,2.3924,3.1466,3.5888,4.72,1.4232,1.7519.8803,3.8261.8457,5.7721-.0347,1.9527-.7743,3.7557-1.6692,5.5072-2.1687,4.2444-5.2706,7.4866-9.4916,9.7821-4.836,2.6299-10.0192,3.7762-15.4213,4.2277-.9593.0802-1.9253.1043-2.8763.2382-.1644.0231-.2695.467-.4021.7166Z"/>
  <path class="cls-7" d="M4.7766,35.3948c1.1272-2.4808,3.313-3.9401,5.4673-5.3022,3.7366-2.3626,7.7224-4.1553,12.2412-4.5469,2.8185-.2443,5.572.0372,8.2932.6431,1.556.3465,3.0481.9806,4.569,1.4846.6611-.2402.5193-.8369.6014-1.3388.3289-2.0115.5947-4.0366,1.0124-6.0296.6665-3.1796,2.3867-5.7,5.0295-7.5994,2.6205-1.8834,5.3182-3.6158,8.2811-4.9414,2.0592-.9212,4.1629-1.48,6.4106-1.5212.1277,1.1064-.7863,1.4771-1.4365,2.034-1.1216.3717-2.2693.6797-3.3599,1.1272-3.0965,1.2705-6.0828,2.7567-8.6755,4.9162-2.5753,2.1451-4.3064,4.7513-4.618,8.2082-.2421,2.6865-.5321,5.3575.0398,8.0336.178.8328-.0827,1.4789-.8288,1.9134-1.1953-.8903-2.2984-1.9544-3.6007-2.6403-5.0844-2.6777-10.3861-3.0645-15.8303-1.1594-.5113.073-1.0858.0207-1.5229.241-1.8826.9483-3.8013,1.8593-5.5608,3.0077-1.8567,1.2119-3.5476,2.678-5.311,4.033-.4005-.1876-.8009-.3752-1.2014-.5628Z"/>
  <path class="cls-9" d="M4.7766,35.3948c.4004.1876.8009.3752,1.2014.5626-.3609.5555-.7219,1.1113-1.0828,1.667-.2232.2351-.4465.4701-.6697.7051-1.1528,2.3192-1.8607,4.7873-2.3857,7.3084-.1499.7197-.2706,1.4959-.1642,2.2104.7722,5.1849,2.8516,8.3782,8.9721,10.0803,5.6023,1.558,11.4087,1.9049,17.1952.6795.4049-.0809.8127-.1615,1.2206-.2422.4152.2099.8304.4199,1.2456.6298-.6437,1.477-1.9734,2.1932-3.2689,2.9473-.0924-.0152-.2299-.076-.269-.0374-.1176.1163-.1969.2713-.2912.4113-1.6916,1.3302-3.3831,2.6603-5.0745,3.9907-.0936-.0121-.2388-.0678-.2719-.0286-.1087.1284-.1767.2913-.2603.4409-1.096,1.3753-2.192,2.7507-3.2887,4.1245-.2517-.633-.5029-1.2645-.754-1.896.8605-1.0471,1.7209-2.0942,2.5813-3.1414.7725.1865,1.0078-.1797.912-.8865.5162-.6248.7699-1.4022,1.6573-1.8011.7147-.3212,1.2065-1.1384,1.7974-1.7339.0605-.4761-.1597-.4464-.4681-.2574-3.3171-.149-6.6449-.1807-9.9482-.4821-2.9211-.2665-5.6239-1.3064-8.0475-3.0341-2.839-2.0238-4.8091-4.5587-5.0991-8.1598-.069-.4246-.1381-.8494-.2072-1.2741-.0029-.3417-.0058-.6834-.0087-1.0251.0188-.3018.0375-.6036.0563-.9054-.1077-.9797-.0897-1.9356.5236-2.7791.0539-.1822.1078-.3646.1617-.547.7777-2.8131,1.8719-5.4564,4.0349-7.5266Z"/>
  <path class="cls-5" d="M55.2459,8.277c.6502-.557,1.5642-.9276,1.4365-2.0341,1.0421-.702,2.1276-.2787,3.2028-.1233.3697.0063.7394.0125,1.1091.0187,3.3998.0584,6.5326.9557,9.4527,2.7466,2.7756,1.7023,5.2205,3.801,7.562,6.0182,3.8906,3.6842,5.6939,8.2641,5.5001,13.6621.2704.1339.5562.2755.842.4171-.6344.6052-1.2382.7565-1.5959-.2364-.2501-.6942-.659-.9654-1.3676-.8001-.1812-4.482-1.9798-8.2504-5.0485-11.4616-.2209-.2311-.3862-.5158-.609-.7446-2.8727-2.9507-6.1722-5.2807-10.1183-6.529-3.2689-1.0341-6.6125-1.6875-10.0607-.8465-.0893.0218-.2029-.0558-.3052-.0872Z"/>
  <path class="cls-9" d="M214.0905,127.3033c-.6538.5216-1.3076,1.0431-1.9632,1.5658-.1213.0143-.2253-.0199-.3138-.1013,0,0-.1933-.1659-.1933-.1659-.8704-.6747-1.7407-1.3495-2.6111-2.0243-.4413-.9444-1.1774-1.1912-2.1391-.9046l-2.376-.9007c-.1278-.104-.2743-.1628-.4394-.1764-.5244-.4365-1.0487-.8729-1.5731-1.3093-.405-.2283-.81-.4565-1.2151-.6847-.722-.5509-1.4439-1.1019-2.1659-1.6528-.2886-.3384-.5772-.6768-.8658-1.0152-.2375-.2666-.4749-.5331-.7124-.7996-.7125-.9366-1.4251-1.8733-2.1377-2.8099-.3148-.7257-.6297-1.4514-.9445-2.1771-.3168-.6718-.8002-.9708-1.5428-.6899-.2319-.1206-.4639-.2412-.6958-.3618-.1421-.8937-.2841-1.7874-.4261-2.6811.0477-.6247.0953-1.2494.143-1.874.9213-.1879,1.713-.1366,1.9916.9913.1974.7992.5927,1.3804,1.5581,1.2038.415,1.3096,1.0635,2.4783,1.8214,3.638,1.5168,2.3212,3.4223,4.2324,5.5612,5.948.4502.6863.7606,1.5187,1.8191,1.6951.1712-.206.383-.4169.5408-.6625.1673-.2604.2833-.5537.4757-.9415.3913.2286.7386.4315,1.0859.6347.5216.6087.8584,1.4336,1.8065,1.5423.4754.6005.9099,1.269,1.8422,1.1128-.1155.9623.2655,1.73.935,2.3845.2391.1261.4781.2521.7172.3782.6725.2794,1.3449.5587,2.0174.8381Z"/>
  <path class="cls-5" d="M235.1718,135.4138c.0774-1.1961-.7293-2.0561-1.9103-2.173-.7315-.0724-1.5026.0181-2.2273.171-1.0919.2304-2.1299.318-3.0997-.3599.581-.5059,1.162-1.0118,1.743-1.5176.7103-.0722,1.4206-.1444,2.131-.2165,1.0163.4351,2.0248.8899,3.0524,1.2965.4641.1837.9661.2715,1.4509.4029.0667.7715.1334,1.543.2001,2.3145.0719.458.1438.916.2157,1.374"/>
  <path class="cls-9" d="M236.3119,133.0172c-.4848-.1314-.9868-.2192-1.4509-.4029-1.0276-.4066-2.0361-.8614-3.0524-1.2965,2.0828-.7462,4.2473-1.3114,6.0322-2.7185,1.5152-.1484,1.5842-.2045,2.0044-1.6308.5883-.6645,1.1766-1.329,1.7648-1.9935.5334.3524,1.0668.7048,1.6003,1.0572-.7432.8136-1.4863,1.6273-2.2295,2.4409-.9303-.1684-1.4418.2051-1.5031,1.1614-.7331.6031-1.5173,1.1557-2.1808,1.8276-.4213.4267-.663,1.0306-.9852,1.5551Z"/>
  <path class="cls-5" d="M16.8307,68.9484c.2511.6315.5023,1.2631.754,1.896-.3211.789-.4989,1.685-.9939,2.3418-1.0804,1.4335-1.4617,3.0854-1.8415,4.7615-.1993.4606-.5148.563-.9277.3031.545-.8199.0645-1.3767-.4745-1.9183.3588-2.8401,1.8987-5.1227,3.4836-7.3841Z"/>
  <path class="cls-9" d="M100.0352,20.9439c.1252.2773.2504.5546.444.9833-1.0452.8331-2.2696,1.3022-3.5045,1.7486-.607.2194-1.1472.4893-1.1741,1.2485-.3763.2123-.7527.4247-1.129.637-.4129-.5304-.8258-1.0609-1.2387-1.5913,2.2008-1.0087,4.4016-2.0175,6.6023-3.0262Z"/>
  <path class="cls-7" d="M82.4796,36.3243c.1286.1593.2558.3199.3816.4815-1.8215.5874-1.8154.584-2.6271-.8533-.1509-.2671-.3735-.4937-.562-.7388-.2139-.4036-.4288-.8075-.6437-1.2113.4905-.0741.9788-.1771,1.472-.2134.4069-.0299.8196.0192,1.2298.0333-.1338.72-.2675,1.44-.4343,2.3373.398.0554.7909.11,1.1838.1647Z"/>
  <path class="cls-7" d="M228.1934,109.8548c-.9503-1.1278-1.7966-2.2888-2.3631-3.6975-.4205-1.0456-1.2713-1.9183-1.9304-2.8681.4211.2879.9407.4969,1.2465.8775,1.3667,1.7005,2.5563,3.5117,3.047,5.6882Z"/>
  <path class="cls-7" d="M229.6776,131.5343c-.581.5059-1.162,1.0118-1.7419,1.5166-.2384-.028-.4779-.055-.7175-.082-.3716-.0401-.7433-.0803-1.1149-.1204-.1049.0962-.2286.1434-.371.1418-.2668-.3174-.5336-.6348-.8004-.9522.03-.1827.0472-.3665.0516-.5516,1.5647.016,3.1293.0319,4.694.0478Z"/>
  <path class="cls-7" d="M222.2359,131.8314c-.345-.2159-.7417-.3823-1.0152-.667-.1563-.1628-.1121-.5182-.1581-.7869.2782-.0181.5565-.0362.8347-.0543.1681.5972.6241.8173,1.1828.8978.6342.0913,1.2692.1773,1.9037.2655-.0045.1849-.0218.3688-.0517.5514-.5924.1728-1.1849.3456-1.7774.5184-.3062-.2416-.6125-.4833-.9187-.725Z"/>
  <path class="cls-7" d="M93.4329,23.9701c.4129.5304.8259,1.0609,1.2387,1.5913-.6147.2777-1.2295.5554-1.8442.8331-.2014-.5935-.4027-1.1869-.6041-1.7804.4032-.2147.8064-.4293,1.2096-.644Z"/>
  <path class="cls-7" d="M109.1987,42.0826c-1.1963-1.5734-2.3927-3.1468-3.5888-4.72,1.6987,1.1916,3.0676,2.6335,3.5888,4.72Z"/>
  <path class="cls-7" d="M239.8453,126.9684c-.4203,1.4263-.4892,1.4824-2.0044,1.6308.6682-.5436,1.3363-1.0872,2.0044-1.6308Z"/>
  <path class="cls-7" d="M239.4778,129.6345c.0612-.9563.5728-1.3298,1.5031-1.1614-.501.3871-1.002.7742-1.5031,1.1614Z"/>
  <path class="cls-7" d="M89.3909,28.3028q.4345-1.1693,1.6894-1.0459c-.5631.3486-1.1263.6973-1.6894,1.0459Z"/>
  <path class="cls-9" d="M102.4867,19.893c.0638.3705.3015.966.1621,1.0737-.7327.5665-.986-.2288-1.3764-.6148.4047-.153.8095-.306,1.2143-.459Z"/>
  <path class="cls-9" d="M244.093,124.9756c-.0579-.0794-.1158-.1588-.1738-.2382-.2886-.3947-.6565-.8527-.0888-1.2131.1776-.1128.6504.2392.988.3784l-.7254,1.0729Z"/>
  <path class="cls-7" d="M20.324,64.9205c.0958.7068-.1396,1.073-.912.8865.304-.2955.608-.591.912-.8865Z"/>
  <path class="cls-5" d="M82.3778,70.869c-.4242-.5394-.8484-1.0788-1.2723-1.6179.8199.2285,1.2395.7711,1.2723,1.6179Z"/>
  <path class="cls-7" d="M13.347,76.3325c.539.5417,1.0194,1.0984.4745,1.9183-1.0166-.4778-1.017-.4829-.4745-1.9183Z"/>
  <path class="cls-7" d="M236.7277,136.7057c-.0719-.458-.1438-.9161-.2157-1.374.0719.458.1438.916.2157,1.374Z"/>
  <path class="cls-7" d="M205.7642,104.339c-.6188.0946-.9801-.2597-1.2742-.7313.4247.2437.8494.4875,1.2742.7313Z"/>
  <path class="cls-7" d="M.0087,48.178c.0691.4247.1381.8495.2072,1.2741-.0691-.4248-.1381-.8495-.2072-1.2741Z"/>
  <path class="cls-7" d="M203.5584,102.7395c-.4038-.3076-.8077-.6153-1.2116-.923.4037.3076.8077.6153,1.2116.923Z"/>
  <path class="cls-7" d="M229.1809,113.2282c-.1251-.4722-.2502-.9443-.3754-1.4166.1251.4721.2502.9444.3754,1.4166Z"/>
  <path class="cls-7" d="M228.6473,111.3889c-.4447-.4269-.7255-.9024-.4563-1.5406.1521.5136.3042,1.0271.4563,1.5406Z"/>
  <path class="cls-7" d="M.0563,46.2476c-.0188.3018-.0376.6036-.0563.9054.0188-.3018.0376-.6036.0563-.9054Z"/>
  <path class="cls-7" d="M.7417,42.9214c-.0539.1824-.1078.3648-.1617.547.054-.1824.1078-.3647.1617-.547Z"/>
  <path class="cls-4" d="M23.3107,61.1281c.3083-.1891.5286-.2188.4681.2574-.0002-.0016-.2917-.0242-.2917-.0242l-.1764-.2331Z"/>
  <path class="cls-7" d="M60.9943,6.1384c-.3697-.0062-.7394-.0124-1.1091-.0187.3697.0062.7394.0125,1.1091.0187Z"/>
  <path class="cls-7" d="M89.2008,34.2829c-.3012.0196-.6025.0392-.9036.0588.3013-.0196.6024-.0392.9036-.0588Z"/>
  <path class="cls-7" d="M103.2711,35.6932c-.3459-.186-.6918-.372-1.0381-.5585.3458.1858.6919.3722,1.0381.5585Z"/>
  <path class="cls-7" d="M201.4258,101.1213c-.2464-.0992-.4927-.1983-.739-.2975.2464.0992.4927.1983.739.2975Z"/>
  <path class="cls-7" d="M229.6184,116.9647c-.0042-.2839-.0084-.5679-.0126-.8519.0041.2839.0084.5679.0126.8519Z"/>
  <path class="cls-7" d="M229.434,114.629c-.0214-.2588-.0427-.5176-.0641-.7764.0214.2588.0427.5176.0641.7764Z"/>
  <path class="cls-7" d="M219.586,100.9532c-.3069-.0676-.6139-.1351-.9208-.2026.3069.0675.6138.1351.9208.2026Z"/>
  <path class="cls-7" d="M220.3453,101.1681c-.2462-.0694-.4924-.1389-.7385-.2083.2462.0694.4923.1389.7385.2083Z"/>
  <path class="cls-7" d="M221.7122,101.755c-.2864-.1166-.5727-.2332-.8591-.3498.2864.1166.5728.2332.8591.3498Z"/>
  <path class="cls-7" d="M222.9088,102.4397c-.2448-.1198-.4897-.2396-.7345-.3594.2448.1198.4897.2396.7345.3594Z"/>
  <path class="cls-8" d="M240.801,67.9392c-1.9355-.8716-3.914-1.6606-5.7929-2.6407-1.5442-.8055-2.6666-2.1055-3.3288-3.7521-.161-.4003-.0234-.6933.7355-1.5962,2.9242,1.5429,5.5311,3.505,7.6892,6.0499.2323.6464.4647,1.2927.697,1.939Z"/>
  <path class="cls-6" d="M240.801,67.9392c-.2324-.6463-.4647-1.2926-.697-1.939,1.0687.3039,1.6586,1.0805,2.1132,2.0213-.5686.4988-.9927.211-1.4162-.0823Z"/>
  <path class="cls-1" d="M55.2459,8.277c.1023.0313.2158.1089.3051.0872,3.4482-.841,6.7919-.1876,10.0607.8465,3.9461,1.2483,7.2456,3.5782,10.1183,6.529.2228.2289.3881.5135.609.7446,3.0687,3.2112,4.8673,6.9797,5.0485,11.4616-.0259.2314-.0513.4626-.0763.6946-.0682.4653-.1367.9299-.2053,1.3944-.9114,1.2982-2.347,1.8511-3.6659,2.5638-3.3135,1.7902-6.6956,3.4634-9.9332,5.3809-2.6789,1.5867-5.2009,3.4408-7.7729,5.2047-1.6839,1.1548-3.3253,2.3716-5.0072,3.5293-.2236.1539-.5745.1229-1.0777.2171-.0876-.5852-.2088-1.0819-.2296-1.5828-.2052-4.9367-2.2015-9.1614-5.2424-12.9278-1.9407-2.4036-4.3961-2.9976-7.2182-1.8232-.6452.2685-1.2241.8576-1.6581,1.4318-.5759.7621-.9796,1.6544-1.4583,2.49-.6392-.6703.0393-1.3636-.0381-2.0432.7455-.4345,1.0061-1.0806.8281-1.9134-.5719-2.6761-.2819-5.3471-.0398-8.0336.3116-3.4568,2.0427-6.0631,4.618-8.2082,2.5927-2.1595,5.579-3.6457,8.6755-4.9162,1.0905-.4474,2.2383-.7555,3.3598-1.1272Z"/>
  <path class="cls-1" d="M82.5743,38.5368c.2212-.0268.4074-.122.5587-.2856.1931-.0645.3863-.1289.5796-.1933,2.3711-.6541,4.7231-1.3914,7.1181-1.9415,3.0811-.7077,6.1828-.6347,9.1903.4057,1.0951.3788,2.1185.9898,3.1339,1.5667.8251.4688,1.5893,1.0449,2.3805,1.5734.4149.4903.8297.9807,1.2446,1.471.0569.2115.1667.3906.3297.5372-.1529.7955.2658,1.3627.759,1.9002.8255,4.2297-.5507,7.8416-3.1898,11.0543-1.2909,1.5715-2.6155,3.1366-4.0864,4.5346-3.3978,3.2295-7.6526,4.7562-12.1756,5.3729-3.706.5053-7.4724.5685-11.2115.8282-.7461-.1053-1.4928-.2111-2.2381-.3172-.3819-.0126-.7651-.0249-1.1484-.0372,0,0-.0473.0081-.0471.0089-.2996-.0719-.5995-.1446-.8993-.2173-.7482-.5183-1.4964-1.0366-2.2442-1.554.8323-.5039,1.6891-.9832,2.0299-1.989,2.6475-1.65,3.4223-4.1828,3.3199-7.1105-.0184-.5273-.1572-1.0589-.8465-1.1286-.0005.0006-.0482-.0649-.0482-.0649.0919-.0151.2151.0016.2693-.0518.1182-.1163.2013-.2683.2988-.4057-.1888-2.2148-1.3359-3.6787-3.4412-4.3918l-.1466-.2183s-.2394-.1086-.2393-.1081c-.0526-.1703-.1465-.3144-.2817-.4315,0,0-.0262.0628-.0268.0624.7702-.7173,1.541-1.4341,2.3118-2.151.4167-.3218.9215-.5749,1.2352-.9771,1.5843-2.0312,3.6196-3.5346,5.6897-5.0037.6069-.2455,1.2144-.4915,1.8219-.7374Z"/>
  <path class="cls-1" d="M4.8951,37.6244c.361-.5557.722-1.1115,1.0828-1.667,1.7633-1.3548,3.4542-2.8209,5.3109-4.0328,1.7595-1.1484,3.6782-2.0595,5.5608-3.0077.4371-.2202,1.0116-.1679,1.523-.2409.4515.5392,1.0002.6682,1.7087.6006,1.6928-.1615,3.3942-.2744,5.094-.3062,1.1536-.0216,1.5699.9322.8921,1.962-.2814.4275-.7979.7434-.2798,1.4652.8694-.0296,1.8236-.0916,2.7774-.0864.9567.0053,1.9343-.0337,2.8648.1447,1.6935.3247,3.3429.763,3.255,3.0876-.0167.4412.4136.9879.7808,1.3341.5355.5049,1.2006.8723,1.8105,1.2983.2091,1.4553.7925,2.8792.4175,4.6079-.7933-.2215-1.4951-.3858-2.1756-.6138-1.6272-.5451-3.2242-1.189-4.8694-1.6698-4.3633-1.2753-8.2554-.3298-11.701,2.609-3.8711,3.3019-2.8437,9.3672,1.0343,11.1333.9714.4424,1.9548.8582,2.9327,1.2863.3891.5717.7855,1.1312,1.617.9485,0,0,.2011.0573.2007.0577.236.051.4724.1016.7087.1521.823.2569,1.646.5137,2.4672.7703-.022.3835-.0423.7673-.0625,1.1511-5.7895,1.2251-11.5958.8782-17.1982-.6798-6.1205-1.7021-8.1999-4.8954-8.9721-10.0803-.1064-.7145.0143-1.4907.1642-2.2104.525-2.5211,1.2329-4.9892,2.3864-7.3101.4792.0079.7115-.2169.6689-.7034Z"/>
  <path class="cls-1" d="M81.8375,87.2751c-.2003.2654-.4005.5308-.6022.7976-.2903.4272-.579.853-.8677,1.2788-.7604.6788-1.5209,1.3576-2.2831,2.0382-1.6859-1.6021-3.4915-3.0424-5.5802-3.9225.0272-.3063.01-.4217.0509-.51.0878-.1895.2003-.3683.3122-.5456.9081-1.4383.6417-2.1027-.9767-2.3119-.7272-.094-1.4684-.0801-2.1395-.1121-.5226-.7853-.8583-1.6324-1.4755-2.1309-.7837-.6329-1.4095-1.2649-1.6818-2.2501-.0756-.2733-.3539-.6768-.5682-.696-1.6409-.1468-1.8048-1.6074-2.4792-2.6323-.5118-.7778-.935-1.7612-2.1734-1.5616-.1962-.606-.4195-1.2047-.5835-1.8193-.5571-2.0878-1.2892-4.0755-2.8658-5.6526-.2831-.2831-.4227-.7096-.7669-1.312.6826-.0825,1.169-.1681,1.6587-.1951,1.1747-.0647,2.3846.0588,3.5204-.1791,3.9424-.8255,7.6159.1258,11.273,1.4328.9925.3547,2.0449.5418,3.07.8062-.1553.4435.0019.6254.4626.5535.3065.2701.6129.5403.9194.81.1264.1722.2197.3898.3841.5106,3.5231,2.5889,4.8547,6.1408,4.5969,10.3984q-1.1708,1.4662-.1784,3.2389s-.0119.1096-.0119.11c-1.2837,1.0366-1.6617,2.3112-1.0143,3.8559Z"/>
  <path class="cls-3" d="M61.3731,74.7169c1.2385-.1996,1.6617.7837,2.1734,1.5616.6743,1.0249.8383,2.4856,2.4792,2.6323.2143.0192.4926.4227.5682.696.2723.9852.8981,1.6171,1.6818,2.2501.6172.4984.9528,1.3455,1.4755,2.1309.6711.032,1.4123.0181,2.1395.1121,1.6184.2092,1.8848.8736.9767,2.3119-.1119.1772-.2244.3561-.3122.5456-.041.0883-.0238.2037-.0509.51,2.0887.8801,3.8943,2.3203,5.5802,3.9225-1.03,1.3526-2.5286,1.9643-4.0775,2.3832-5.2749,1.4269-10.5046,1.7383-15.6771-.5842-1.9789-.8885-3.8653-1.8685-5.344-3.4488-2.255-2.41-4.6424-4.7525-5.5525-8.0942.2802-.2977.5602-.5957.8394-.8946.8374.4639,1.659.9627,2.5174,1.3868,2.0621,1.0187,4.1638.7757,6.216.008,1.1252-.421,1.927-1.2878,2.5338-2.3458.9125-1.5911,1.5655-3.2649,1.8332-5.0834Z"/>
  <path class="cls-3" d="M43.0701,52.2978c-1.8318,1.7632-3.9105,2.917-4.4044,5.4541-.6807-.0251-1.2307.0722-1.699-.0808-4.6954-1.5348-9.4863-2.7805-14.0563-4.6995-1.2322-.5174-2.2468-1.2502-3.101-2.2421-1.6092-1.8684-1.526-4.1468.3683-5.6774,1.1596-.937,2.4583-1.7561,3.8049-2.3963,2.712-1.2894,5.4764-.8428,8.1503.2029,1.9026.7441,3.7763,1.5803,5.5989,2.5021.8355.4226,1.7029,1.0185,2.2299,1.7656,1.1062,1.5683,1.9967,3.2887,3.1085,5.1713Z"/>
  <path class="cls-3" d="M74.178,53.2994c-.3134,1.6128-.6268,3.2256-.9403,4.8386-.3416.4731-.6831.946-1.0247,1.419-2.0165,2.3196-4.6535,3.1916-7.6209,3.7161-3.3973.6005-6.5996.2033-9.9598-.7973.1692-2.5145.9853-5.0556-.4398-7.4932.6737-.2011.9626-.3488,1.2591-.3666,4.313-.2594,8.1968-1.795,11.6279-4.304,1.8186-1.3298,3.4626-1.5009,5.3606-.5044.5794,1.164,1.1586,2.328,1.7378,3.4918Z"/>
  <path class="cls-3" d="M49.3837,50.9355c-1.2293.1864-2.5878.3924-4.014.6086-2.393-2.5084-4.1095-5.2979-4.9811-8.553-.3857-1.4403-.3815-2.9861-.7795-4.4216-.5233-1.8873.2187-3.3799,1.2059-4.8038,1.251-1.8045,3.1821-2.0486,4.9951-.7431,5.5619,4.0051,7.1664,11.7392,3.5736,17.9129Z"/>
  <path class="cls-3" d="M37.6297,60.3006q1.436,4.7982,4.6603,8.0371c.3594,2.0973-.4893,3.7286-1.8715,5.2346-1.6383,1.785-3.54,3.0985-5.8464,3.8539-1.9499.6387-3.6059.0089-5.1058-1.1608-.3854-.3006-.6247-.867-.7883-1.3587-.4507-1.3545-.5317-2.7614-.1143-4.1294,1.0566-3.4626,2.6899-6.5635,5.8062-8.6463.966-.6456,1.8274-1.4893,3.2597-1.8303Z"/>
  <path class="cls-2" d="M52.482,56.3181c.5573.7615.6946,1.6776.605,2.6834-.2489,2.7938-3.5505,6.8869-6.6188,7.6771-2.2481.579-5.3488-1.188-6.1165-3.6213-.7278-2.3069-.445-4.4689,1.2807-6.2909,1.427-1.5066,3.0852-2.6376,5.1349-3.1711,1.7269-.4494,3.1727-.169,4.3287,1.2742.4001.4995.8857.9305,1.3861,1.4485Z"/>
  <path class="cls-3" d="M44.9304,69.0723c1.3923-.3088,2.6855-.4513,3.8636-.8975,1.1784-.4463,2.2418-1.1961,3.5224-1.9053,3.4027,1.5761,5.7735,4.1073,6.4034,8.0264.1117.6952.0107,1.5169-.2689,2.1598-.3765.866-.9431,1.6831-1.5656,2.4022-2.1255,2.4553-3.8304,2.6463-6.306.5164-1.2842-1.1049-2.4691-2.4158-3.3815-3.8373-.9723-1.5147-1.6134-3.252-2.3013-4.9322-.1773-.4331.0126-1.0166.0339-1.5325Z"/>
  <path class="cls-1" d="M79.0284,34.0024c.2149.4038.4298.8077.6437,1.2113-.1906.3366-.3802.6734-.5694,1.0111-.2363.489-.473.9771-.7097,1.4653-2.0008,2.4855-4.071,4.8985-6.4752,7.0213-1.5099,1.3331-3.0426,2.2564-5.1758,1.7825-.6821-.1515-1.4512.089-2.1799.1509-.2997.012-.5999.0232-.9.0343-2.3981-.082-4.6044.6135-6.5987,1.8-.4945-.5585-.3555-.9367.0321-1.2058,1.4033-.9744,2.7977-1.9664,4.2458-2.8709,5.8025-3.6244,11.6154-7.2328,17.6871-10.4001Z"/>
  <path class="cls-3" d="M37.2761,38.1758c-.6098-.426-1.275-.7934-1.8105-1.2983-.3672-.3462-.7975-.8929-.7808-1.3341.0879-2.3246-1.5614-2.7629-3.255-3.0876-.9305-.1784-1.9081-.1395-2.8648-.1447-.9538-.0052-1.908.0568-2.7774.0864-.518-.7218-.0016-1.0377.2798-1.4652.6779-1.0297.2615-1.9835-.8921-1.962-1.6998.0318-3.4012.1448-5.094.3062-.7085.0676-1.2573-.0614-1.7087-.6006,5.4441-1.9052,10.7458-1.5185,15.8302,1.1593,1.3023.6858,2.4054,1.75,3.6007,2.6403.078.6796-.6005,1.3728.0387,2.0432-.1881,1.2196-.3772,2.4383-.5662,3.6571Z"/>
  <path class="cls-3" d="M56.673,50.5533c2.1727-.6146,4.3389-1.254,6.5233-1.8242.4663-.1217.9981.0077,2.1561.0393-3.8047,2.2992-7.5155,2.9089-10.9529,4.2657-.5608-1.4486.9933-1.3425,1.2201-2.1215.3514-.121.7024-.2401,1.0534-.3593Z"/>
  <path class="cls-5" d="M74.178,53.2994c-.5792-1.1639-1.1584-2.3278-1.7378-3.4918-.0772-.5684-.1543-1.1366-.2307-1.7055,2.1059.7125,3.253,2.1764,3.4401,4.3918-.2278.0008-.454.0009-.6801.0011.0379.1519.0758.3039.1137.4558,0,0,.0478.0656.0482.0649-.3175.0942-.6354.1889-.9534.2837Z"/>
  <path class="cls-7" d="M30.3091,58.9958c-.4152-.2099-.8304-.4199-1.2459-.631-.1339-.2802-.2674-.5593-.4009-.8383,1.2641-.6433,1.7461.4911,2.4659,1.0844-.2729.1276-.546.2562-.819.3848Z"/>
  <path class="cls-5" d="M73.8275,45.255c-.7708.7168-1.5416,1.4337-2.3118,2.151-.0071-1.5527,1.0787-1.9309,2.3118-2.151Z"/>
  <path class="cls-5" d="M72.658,61.2547c-.3407,1.0058-1.1976,1.4851-2.0298,1.989.258-1.0908,1.2082-1.4743,2.0298-1.989Z"/>
  <path class="cls-7" d="M82.5743,38.5368c-.6076.2459-1.2151.4918-1.8219.7374.5029-.3704,1.0052-.7405,1.5077-1.11.1095.1207.2141.2447.3142.3726Z"/>
  <path class="cls-4" d="M28.6622,57.5265c.1335.279.2671.5581.4009.8383-.4076.0818-.8154.1624-1.2203.2433.0232-.3835.0434-.7673.0654-1.1509.2525.0233.5032.0463.7539.0693Z"/>
  <path class="cls-5" d="M24.5316,56.4772c-.8315.1827-1.2278-.3768-1.617-.9485.7853-.1037,1.1564.4985,1.617.9485Z"/>
  <path class="cls-5" d="M77.1417,68.3513c-.4607.0718-.6178-.11-.4626-.5535.4629-.0738.6283.1015.4626.5535Z"/>
  <path class="cls-5" d="M73.8188,65.0061c.3832.0123.7665.0246,1.1484.0372-.3928.2702-.7781.3463-1.1484-.0372Z"/>
  <path class="cls-5" d="M81.1059,30.0348c.0686-.4645.1372-.9291.2053-1.3944.3387.5242.1697.9744-.2053,1.3944Z"/>
  <path class="cls-5" d="M72.213,59.557c.3416-.4729.6831-.9458,1.0247-1.419.0848.7808-.3929,1.1555-1.0247,1.419Z"/>
  <path class="cls-7" d="M78.3931,37.6901c.2367-.4881.4734-.9763.7097-1.4653.2289.7132-.127,1.1441-.7097,1.4653Z"/>
  <path class="cls-5" d="M25.4411,56.687c-.2364-.0506-.4727-.1012-.7087-.1521.2365.0505.4726.1013.7087.1521Z"/>
  <path class="cls-5" d="M56.673,50.5533c-.351.1192-.702.2384-1.0534.3593.3508-.1186.7021-.239,1.0534-.3593Z"/>
  <path class="cls-5" d="M72.8723,64.7977c.2999.0727.5997.1454.8993.2173-.2999-.0729-.5996-.1451-.8993-.2173Z"/>
  <path class="cls-7" d="M63.6622,46.6792c.3001-.0112.6003-.0224.9-.0343-.3003.0109-.6002.0226-.9.0343Z"/>
  <path class="cls-5" d="M71.5425,47.3435c.1352.1172.2291.2612.2817.4315-.1541-.0016-.3081-.0026-.462-.0036.0601-.1427.1202-.2853.1803-.4279Z"/>
  <path class="cls-7" d="M14.7721,82.0649c-.0848-.1035-.1573-.2151-.2174-.3345.0726.1116.145.223.2174.3345Z"/>
  <path class="cls-7" d="M14.6017,80.7284c.0231-.2385.0462-.4769.0688-.7147-.0232.2387-.046.4767-.0688.7147Z"/>
  <path class="cls-7" d="M20.8733,66.7199c.0836-.1496.1516-.3125.2603-.4409.0332-.0392.1783.0166.2719.0286-.1775.1373-.3549.2748-.5322.4122Z"/>
  <path class="cls-7" d="M26.48,62.317c.0942-.1399.1735-.295.2912-.4113.0391-.0387.1766.0222.269.0374-.1868.1245-.3735.2492-.5601.3739Z"/>
  <path class="cls-8" d="M202.8506,120.3215c-2.1389-1.7156-4.0444-3.6268-5.5612-5.948-.7578-1.1597-1.4064-2.3283-1.8214-3.638-.1523-.9285-.3623-1.8518-.4455-2.7864-.2057-2.3108,2.2676-4.2835,4.4646-3.5602.7033.2315,1.4387.5062,2.017.9477,1.2367.9442,2.0388,2.0824,1.6039,3.8359-.9547,3.8487-.5677,7.5988,1.2222,11.4025-.5689-.0976-1.0243-.1756-1.4796-.2537Z"/>
  <path class="cls-8" d="M208.5786,122.5897c-.9481-.1087-1.2849-.9336-1.8065-1.5423-.2989-.7852-.5605-1.5867-.9038-2.3516-.9353-2.0843-1.2401-4.2871-1.2842-6.5402-.0033-.1711.1922-.346.296-.5194.1566.1104.3897.1864.4571.3366,1.3995,3.1198,2.544,6.329,3.2852,9.6717.0659.2972-.0254.6293-.0438.9452Z"/>
  <path class="cls-7" d="M224.0465,107.244c-.3863-.4758-.7725-.9515-1.1587-1.4271.814.1285,1.1962.6074,1.1587,1.4271Z"/>
  <path class="cls-7" d="M226.3346,111.1876c-.1924-.4019-.3849-.8038-.5773-1.2056.1924.4019.3849.8038.5773,1.2056Z"/>
  <path class="cls-7" d="M227.4594,116.9204c.0076-.2071.0152-.4141.0228-.6211-.0076.2071-.0152.4141-.0228.6211Z"/>
  <path class="cls-3" d="M81.8375,87.2751c-.6474-1.5446-.2694-2.8193,1.0143-3.8559.0224,1.3799-.1107,2.7193-1.0143,3.8559Z"/>
  <path class="cls-3" d="M82.8637,83.3092q-.9924-1.7727.1784-3.2389c.3484,1.1018.1869,2.176-.1784,3.2389Z"/>
  <path class="cls-3" d="M80.3675,89.3515c.2887-.4258.5775-.8515.8677-1.2788-.2882.4253-.578.852-.8677,1.2788Z"/>
  <path class="cls-7" d="M107.8685,43.5705c-.4931-.5375-.9119-1.1047-.759-1.9002.4572.5518,1.0092,1.0658.759,1.9002Z"/>
  <path class="cls-7" d="M106.7799,41.1332c-.4149-.4903-.8297-.9807-1.2446-1.471q1.1959.2357,1.2446,1.471Z"/>
  <path class="cls-7" d="M83.7126,38.058c-.1932.0644-.3865.1288-.5796.1933.1704-.1317.3636-.1961.5796-.1933Z"/>
  <path class="cls-7" d="M4.8951,37.6244c.0425.4865-.1898.7113-.6689.7034.2225-.2333.4457-.4684.6689-.7034Z"/>
  <path class="cls-5" d="M197.5223,119.1343c-.8467.2527-1.4054-.1409-1.9038-.7834-.5017-.6468-.7393-1.2831-.2328-2.0262.7115.9364,1.4241,1.873,2.1366,2.8097Z"/>
  <path class="cls-5" d="M209.009,126.5777c-.962.2858-1.6097-.1714-2.1396-.9052.9622-.2861,1.6984-.0392,2.1396.9052Z"/>
  <path class="cls-5" d="M194.4401,114.1472c-.6971.1799-1.3169.1854-1.545-.6882.7448-.2825,1.2282.0164,1.545.6882Z"/>
  <path class="cls-5" d="M202.4814,123.2866c-.4053-.2283-.8107-.4566-1.2155-.6848.4055.2283.8105.4566,1.2155.6848Z"/>
  <path class="cls-5" d="M199.1005,120.9491c-.7508.0556-.9634-.3472-.8651-1.0152.288.3384.5765.6768.8651,1.0152Z"/>
  <path class="cls-5" d="M204.4939,124.7723l-.2873.054s-.1583-.2294-.1552-.2299c.1682.0131.3147.0719.4425.1759Z"/>
  <path class="cls-5" d="M211.8134,128.7679c-.0653-.056-.1306-.112-.1947-.167.0013.0011.1947.167.1947.167Z"/>
  <path class="cls-7" d="M211.3559,126.087c.2392.1261.4783.2521.7174.3782-.2392-.1261-.4783-.2521-.7174-.3782Z"/>
  <path class="cls-5" d="M225.7324,132.9902q-1.5159.623-2.5791-.4324c.5938-.1742,1.1863-.347,1.7787-.5198.2668.3174.5336.6348.8004.9522Z"/>
  <path class="cls-5" d="M227.2182,132.9688c-.3706-.0407-.7413-.0815-1.1134-.1213.3701.041.7418.0812,1.1134.1213Z"/>
  <path class="cls-9" d="M75.0831,52.9507c-.0379-.1519-.0758-.3039-.1137-.4558.2261-.0001.4523-.0003.6801-.0011-.0958.1368-.1789.2887-.2971.4051-.0542.0534-.1774.0367-.2693.0518Z"/>
</svg>