<?xml version="1.0" encoding="UTF-8"?>
<svg id="Layer_1" xmlns="http://www.w3.org/2000/svg" viewBox="0 0 208.0439 77.2677">
  <defs>
    <style>
      .cls-1 {
        fill: #161314;
      }

      .cls-2 {
        fill: #dfb3c0;
      }

      .cls-3 {
        fill: #e6eebd;
      }
    </style>
  </defs>
  <path class="cls-1" d="M1.5886,42.7836c-.4293-.4565-.8586-.913-1.2879-1.3695-.1002-.7161-.2005-1.4321-.3007-2.1482,6.2941-7.0075,14.8862-8.8365,23.5712-10.1911,16.3791-2.5546,32.3603.2875,48.2675,3.9339,4.6496,1.0659,8.7417.1073,13.5509-1.4485,14.294-4.6242,25.0482-15.9036,39.5482-19.7316,1.9498-.1959,3.8226-.5711,5.1495-2.2155.6931.4386,1.3708.648,1.9817-.1338,1.0735.1931,2.1104.2481,2.8658-.7596l-.2218-.4184s.1833.4366.1831.4362c2.2979.075,4.2674-.8336,6.1341-2.0498,1.1236-.394,2.2473-.788,3.3709-1.1821,1.1934.1741,2.1159-.3376,2.9185-1.1531.8416.1642,1.6498.1864,2.2826-.5371C161.4211.7074,173.4495-.3629,185.636.1051c5.8018.9097,10.8192,3.4217,15.1186,7.4007,3.9379,8.2315,1.766,12.4539-7.3897,13.6883-4.4175.5956-8.9302.446-13.385.8135-4.1021.3384-9.6912-1.3496-9.1036,6.1414.0519.6609-.7216,1.469-1.262,2.0745-.7713.8644-1.1379,1.8535-.207,2.5878,2.6226,2.0687,1.4339,5.0895,2.1837,7.3301,1.0955,3.2735,5.086,5.5567,5.1187,9.8194,1.1437-.0873,2.2961-.1127,3.4295-.2727,4.5879-.6477,9.1499-1.6058,13.7587-1.9508,7.8745-.5894,11.0836,1.5883,14.146,8.8811-.2711,9.0106-3.0646,12.0729-12.1809,13.7617-9.3216,1.7269-18.7496,1.4219-28.148,1.735-.7606-.0477-1.5212-.0954-2.2818-.1431-7.6613-.4026-15.3226-.8052-22.9839-1.2078-11.2022-1.4646-22.3053-3.4703-33.206-6.4526-6.6391-1.8164-12.8387-6.4196-20.2352-2.9262-1.372-1.0738-2.4126-.2125-3.5157.5547-3.0823,2.1437-6.1903,4.2506-9.2881,6.372-4.0106,1.527-8.0213,3.054-12.032,4.581-3.5958.7727-7.8391-.7384-10.5926,3.0052l-.2124.0794c-1.1809-1.0372-2.4537-.4822-3.6872-.1775-15.7729,3.8968-30.8095-.8361-45.9098-4.1421-3.8859-.8508-3.7067-4.2553.0606-7.9526,3.8003-1.2387,7.6005-2.4773,11.4006-3.7161,8.4048-1.7301,16.5796-4.2766,24.7022-7.0012.8821-.2959,2.1345-.4819,2.0589-1.7352-.0754-1.251-1.304-1.2591-2.2299-1.398-5.5123-.8267-10.8946-2.6645-16.5804-2.153-3.7095-.5094-7.4191-1.0188-11.1286-1.5282-.8479-.6898-1.803-1.0051-2.8985-.8297-1.6169-.4561-3.2338-.9122-4.8507-1.3683-.9053-.3974-1.8105-.7949-2.7158-1.1924ZM10.9337,38.873c-.2614.2885-.8006.717-.7376.842.332.659.8582.6193,1.3647.119,2.571,1.3264,5.3938,1.6908,8.1979,1.9076,8.9476.6917,17.9056,1.614,26.3909,4.5584,9.8249,3.4093,18.5583-.0079,27.4289-3.269,1.1813-.4343,2.8638-.8144,2.5146-2.559-.2746-1.3719-1.8406-1.2303-2.9221-1.437-7.7201-1.4758-15.2747-3.6599-23.2138-4.1851-13.2807-.8785-26.5213-2.2626-39.0234,4.0232ZM189.0672,7.098c-7.8056-1.824-16.5598-.8704-25.2751.1368-12.8359,1.4834-24.4125,7.4058-36.7343,10.7222-8.7742,2.3616-16.3156,7.1567-23.9748,11.8056-2.7543,1.6718-2.0562,3.362-1.087,5.36,1.2102,2.495,2.9309.8434,4.1788.1766,3.2019-1.7109,6.0953-3.9154,9.6004-5.1603,23.755-8.4371,48.0286-14.1756,73.3652-14.7761,2.4883-.059,6.4581.8057,6.9619-2.1661.4765-2.8107-3.4966-3.8828-5.6821-5.5371-.1283-.0971-.3045-.1309-1.3529-.5617ZM101.1451,55.521c4.1763,2.8752,8.7893,3.4178,13.0467,4.4481,20.7435,5.0203,41.9307,6.1565,63.1936,6.0231,7.1499-.0449,14.2875-.6194,21.1532-2.9128,2.5111-.8388,4.0213-2.4775,3.3181-5.2546-.6624-2.6163-2.0929-4.4899-5.2503-4.1356-2.6404.2963-5.316.327-7.9394.7197-11.9991,1.7959-24.0138,3.4883-36.1511,3.9159-14.9715.5274-29.2153-3.9939-43.5157-7.3238-5.5016-1.2811-6.0627,1.4069-7.8552,4.5201ZM16.6757,66.7947c6.8967,2.8786,14.0233,4.6151,20.9991,3.64,13.7273-1.919,27.7346-3.3015,40.1457-10.4369,1.405-.8078,4.3703-2.1133,2.1947-3.7839-2.3581-1.8107-.8456-7.8554-6.6759-5.8446-11.2881,3.8929-23.2326,5.4483-34.4234,9.9022-7.1469,2.8445-14.8091,4.3934-22.2403,6.5232ZM136.1012,51.117c-4.0817-6.0585,2.2788-8.9072,2.1192-13.5852-.1195-3.5015-2.7019-7.3707-6.3221-6.4122-9.4454,2.5008-18.7171,5.4685-27.2212,11.4034,9.4334,5.7127,20.182,5.186,31.4241,8.594ZM97.9078,48.4128c.9326-2.2148-1.339-12.5353-2.8607-12.997-3.8109-1.1562-11.1615,2.9257-12.7587,7.0851-1.6562,4.313,1.0399,9.6432,5.8803,11.6255,4.0966,1.6777,7.4567-.2936,9.7391-5.7136ZM139.961,46.6182c5.5965,7.0808,23.2445,7.8852,29.2708,2.2472.502-.4697,1.1042-.8254.7657-1.5602-.3952-.8578-1.2535-.9584-2.1097-1.0208-9.0686-.6607-18.1059-.227-27.9268.3337ZM164.8391,26.9868c-8.2782-3.4272-15.3772-.3543-22.5509.9855-.4829.0902-1.1757.8505-1.1891,1.3158-.0364,1.2667,1.1861,1.6423,2.073,1.6441,7.1959.0144,14.3075-.5155,21.667-3.9453ZM142.7916,39.9758c8.6761.976,15.8844,1.3952,22.5565-2.5683-7.3806-1.827-14.5896-2.2528-22.5565,2.5683Z"/>
  <path class="cls-3" d="M189.0672,7.098c1.0484.4308,1.2246.4645,1.3529.5617,2.1855,1.6543,6.1587,2.7264,5.6821,5.5371-.5038,2.9718-4.4736,2.1071-6.9619,2.1661-25.3366.6005-49.6102,6.339-73.3652,14.7761-3.5051,1.2449-6.3985,3.4494-9.6004,5.1603-1.2479.6668-2.9685,2.3184-4.1788-.1766-.9692-1.998-1.6674-3.6882,1.087-5.36,7.6592-4.649,15.2006-9.444,23.9748-11.8056,12.3218-3.3165,23.8984-9.2388,36.7343-10.7222,8.7154-1.0072,17.4696-1.9608,25.2751-.1368Z"/>
  <path class="cls-3" d="M101.1451,55.521c1.7924-3.1132,2.3535-5.8011,7.8552-4.5201,14.3004,3.3299,28.5441,7.8512,43.5157,7.3238,12.1373-.4275,24.1519-2.12,36.1511-3.9159,2.6235-.3926,5.299-.4233,7.9394-.7197,3.1574-.3543,4.5879,1.5193,5.2503,4.1356.7032,2.7771-.807,4.4159-3.3181,5.2546-6.8657,2.2933-14.0033,2.8679-21.1532,2.9128-21.2629.1334-42.4501-1.0028-63.1936-6.0231-4.2574-1.0303-8.8704-1.5729-13.0467-4.4481Z"/>
  <path class="cls-2" d="M16.6757,66.7947c7.4312-2.1298,15.0934-3.6787,22.2403-6.5232,11.1908-4.4539,23.1353-6.0093,34.4234-9.9022,5.8303-2.0108,4.3178,4.0339,6.6759,5.8446,2.1756,1.6706-.7898,2.9761-2.1947,3.7839-12.4111,7.1354-26.4184,8.5179-40.1457,10.4369-6.9758.9752-14.1024-.7614-20.9991-3.64Z"/>
  <path class="cls-2" d="M10.9289,38.8707c12.507-6.2835,25.7475-4.8994,39.0283-4.0208,7.9391.5252,15.4937,2.7093,23.2138,4.1851,1.0815.2067,2.6475.0651,2.9221,1.437.3493,1.7446-1.3332,2.1247-2.5146,2.559-8.8706,3.2611-17.604,6.6783-27.4289,3.269-8.4853-2.9444-17.4433-3.8667-26.3909-4.5584-2.8041-.2168-5.6269-.5812-8.1979-1.9076-.2106-.3211-.4213-.6422-.6319-.9633Z"/>
  <path class="cls-3" d="M97.9078,48.4128c-2.2824,5.42-5.6425,7.3913-9.7391,5.7136-4.8405-1.9824-7.5365-7.3125-5.8803-11.6255,1.5972-4.1594,8.9478-8.2413,12.7587-7.0851,1.5217.4617,3.7933,10.7822,2.8607,12.997Z"/>
  <path class="cls-2" d="M139.961,46.6182c9.8209-.5607,18.8582-.9944,27.9268-.3337.8562.0624,1.7145.163,2.1097,1.0208.3385.7348-.2637,1.0905-.7657,1.5602-6.0263,5.638-23.6743,4.8336-29.2708-2.2472Z"/>
  <path class="cls-2" d="M164.8391,26.9868c-7.3594,3.4298-14.4711,3.9598-21.667,3.9453-.8869-.0018-2.1094-.3774-2.073-1.6441.0133-.4653.7062-1.2256,1.1891-1.3158,7.1737-1.3398,14.2727-4.4127,22.5509-.9855Z"/>
  <path class="cls-2" d="M142.7916,39.9758c7.9668-4.8211,15.1759-4.3953,22.5565-2.5683-6.6721,3.9635-13.8804,3.5443-22.5565,2.5683Z"/>
</svg>