<?xml version="1.0" encoding="UTF-8"?>
<svg id="Layer_1" xmlns="http://www.w3.org/2000/svg" viewBox="0 0 297.9562 137.7501">
  <defs>
    <style>
      .cls-1 {
        fill: #1d1512;
      }

      .cls-2 {
        fill: #d45242;
      }

      .cls-3 {
        fill: #ebf0bd;
      }
    </style>
  </defs>
  <path class="cls-1" d="M1.7772,65.9505c.4598-5.7477.8943-11.4978,1.4193-17.2396.0512-.5603.5473-1.2226,1.0286-1.5775,2.9332-2.1626,5.6556-4.9562,8.9534-6.1988,5.1098-1.9253,7.0526-5.9287,9.0643-10.2898,4.2743-9.2663,10.819-16.9992,18.5045-23.3703,3.6789-3.0497,9.2934-4.7981,14.1755-5.1535,11.0731-.8062,22.2357-.4331,33.3619-.4437,7.4797-.0071,14.9628.0444,22.4383.2696,5.1188.1542,10.2273.6526,15.3404.9971,6.9829.1129,13.9716.0945,20.9463.3965,3.2828.1422,6.5295.9865,9.811,1.3426,1.6108.1748,3.2813.1012,4.8938-.1038,3.7475-.4765,7.4584-1.3253,11.2158-1.6249,13.1578-1.0492,26.3212-2.0715,39.4996-2.7927,4.2632-.2333,8.5832.7842,12.8694.7185C234.7755.7351,244.2466.0029,253.7199,0c10.1044-.0031,20.2141.4426,30.3118.9044,10.579.4838,11.0006,4.955,11.8829,12.6289.6616,5.7547.0222,11.648.2896,17.4645.1082,2.3545,1.1716,4.6524,1.6304,7.0092.205,1.0536.1288,2.2135-.0636,3.2812-.3113,1.7275-1.3123,3.4634-1.1613,5.1171.4836,5.2951-1.3596,9.3432-5.6044,12.4049-4.9023,1.1653-9.8047,2.3305-14.7071,3.4958-6.7469,1.5858-13.494,3.1716-20.2409,4.7574-2.6617.679-5.3233,1.3579-7.985,2.0369-2.5867.6555-5.1394,1.5406-7.7656,1.9294-17.3571,2.5701-34.7298,5.0335-52.0975,7.5317-1.8684-.5857-3.7267-1.2068-5.6075-1.7493-3.3826-.9757-6.7399-2.091-10.179-2.8061-4.527-.9413-5.7913,2.021-4.8942,5.4909.8107,3.136-.6666,4.5922-2.5701,6.2262-9.5372,4.7825-19.0743,9.565-28.6115,14.3475-1.6861.6626-3.4146,1.2347-5.0519,2.0016-20.4644,9.5845-40.9155,19.1971-61.37,28.8026-1.8018.7465-3.5689,1.5955-5.4121,2.2198-4.9359,1.6718-9.8591,4.406-14.87,4.6019-8.491.3319-17.0456-.963-25.5734-1.574-3.6207-1.1862-7.2413-2.3725-10.862-3.5587-1.7983-1.1349-3.614-2.2433-5.3915-3.4099C3.3972,126.2538-.2678,122.8573.0154,116.9462c1.0037-2.6681,2.0073-5.3363,3.011-8.0044.975-2.2478,1.95-4.4957,2.925-6.7435,2.6239-5.4354,5.3518-10.8252,7.7695-16.3509.4039-.923-.1696-2.7818-.9377-3.6048-1.6429-1.7601-3.7088-3.1253-5.6014-4.6522-.3771-.1622-.7542-.3243-1.1313-.4865l-.124-.134c-2.8697-.9744-4.7607-2.5563-3.705-5.9678-.001-.7068-.002-1.4135-.003-2.1203-.147-.9772-.2941-1.9543-.4412-2.9315ZM58.1861,110.0205s-.0328.0439-.0328.044c1.2997-3.8764,2.5994-7.7528,4.0945-12.212-9.5648-.4541-17.8164-.8459-26.0681-1.2377-6.3322-1.62-12.6644-3.2401-19.3206-4.943-3.3638,7.4521-6.8868,15.4139-10.5526,23.3094-1.7338,3.7342-.5062,6.4317,2.5914,8.5351,7.6948,5.225,16.2009,7.5979,25.4852,8.72,10.174,1.2295,15.933-3.0561,19.5698-11.7727.1264-.3029.2031-.6266.3029-.9406.2661-.8502.5322-1.7005.7983-2.5507.1868-.2172.2319-.4606.1351-.7303.999-2.0738,1.998-4.1476,2.9969-6.2214ZM141.9022,16.6085c-2.2821-.1545-4.5642-.309-6.8463-.4635-4.3583.5124-8.7167,1.0249-13.075,1.5373-1.3077.1318-2.6155.2636-3.9232.3954-.8523.1971-1.7045.3943-2.5568.5914v14.3244c3.0012-.1421,4.7712-.2258,6.5413-.3096.7217-.0303,1.4434-.0607,2.1652-.091,6.5527-.8629,13.093-1.8413,19.6622-2.5501,4.7456-.512,6.0543-3.5643,5.9814-7.5855-.0786-4.3337-2.9714-5.5162-6.7617-5.3918-.3957-.1524-.7914-.3047-1.1871-.4571ZM28.564,85.3109c-.7271.9103-1.7662,2.2112-2.9559,3.7008,1.0006.4787,1.4117.8214,1.8524.8648,10.2079,1.0069,20.4099,2.1175,30.6401,2.8037,1.4112.0947,2.9409-1.9814,4.4617-2.9826,1.1111-.7315,2.8503-2.2089,3.3631-1.8796,3.9651,2.5458,7.5023.4723,10.8943-.901,10.1575-4.1124,20.2123-8.4829,30.2413-12.9021,1.1696-.5154,2.6964-1.9241,2.7555-2.9908.5703-10.2915.9398-20.5973,1.0956-30.9031.0136-.9008-1.956-2.6786-2.9113-2.6165-10.0899.656-20.1927,1.3379-30.2279,2.5453-9.7947,1.1785-19.438,1.8338-29.1187-.899-6.8358-1.9297-13.8218-3.3274-21.2152-5.0747-.3421,5.5004-4.4265,6.9349-8.2376,8.8408-1.4402.7202-2.4312,2.3386-3.6269,3.5476.1744.4091.3488.8182.5233,1.2273,7.8618-.379,13.6832,2.2553,15.5812,10.2688,2.5956,10.9584-2.9667,17.1957-13.2396,20.5876.0612.5316.1224,1.0632.1836,1.5948,3.248,1.6886,6.4962,3.3771,9.9412,5.1681ZM180.911,38.5287c.2016,2.1101,1.0746,6.2599.8683,10.3553-.2568,5.0975,2.2465,5.8175,6.3475,5.4219,12.8917-1.2434,25.8904-1.7601,38.6666-3.7319,20.2878-3.1311,40.4407-7.1516,60.6078-11.019,1.3813-.2649,3.4231-2.3807,3.4323-3.6482.06-8.2839-.3404-16.5717-.6238-24.8571-.1174-3.4303-1.8994-5.0573-5.3843-5.1084-13.6349-.1999-27.2679-.6432-40.9028-.6885-10.35-.0344-20.7115.193-31.0493.689-7.6359.3664-15.2354,1.8065-22.8636,1.9198-6.0761.0903-7.6036.6513-7.9901,6.7053-.4656,7.2949-.6886,14.6053-1.1088,23.9618ZM52.8451,132.3461c.1702.424.3405.848.5107,1.272,36.2717-17.342,72.5434-34.6841,108.7493-51.9946v-23.2954c-4.3675,2.0733-6.8705,4.1904-5.9461,9.2638.9454,5.1887-1.3353,9.4438-6.0873,12.0302-4.9246,2.6803-9.793,5.5259-14.9256,7.7449-5.7573,2.489-11.7133,4.5837-17.7134,6.4249-5.041,1.5469-9.2729.9416-9.3688-5.6251-.0399-2.732-.0066-5.4651-.0066-8.8381-2.4775.8121-4.3695,1.3152-6.1711,2.0421-10.553,4.2573-21.1222,8.4796-31.5791,12.9628-1.4001.6003-2.726,2.4528-3.1796,3.9926-1.8489,6.2755-2.7062,12.9164-5.1617,18.9183-2.2001,5.3776-6.0171,10.0938-9.1207,15.1017ZM113.1064,90.0731c9.9207-3.693,18.6207-6.7815,27.1842-10.211,2.5635-1.0266,5.1265-2.651,6.9906-4.6525,1.723-1.8499,3.2058-4.479,3.5328-6.933.4095-3.0736-.6928-6.3149-.7467-9.4905-.1342-7.91-.0441-15.8238-.0441-24.3256-12.0859,1.4485-23.1886,2.7792-35.0446,4.2001,1.597,11.506-2.3644,23.1286,1.9694,34.4955.3357.8807-.0427,2.6916-.731,3.1983-4.5814,3.3728-2.5776,7.9618-3.1106,13.7188ZM290.574,44.1617c-18.2474,3.3067-36.0786,7.1586-54.0992,9.6289-17.9725,2.4638-36.1349,3.5429-54.3485,5.2416.3646,2.673.6881,4.963.9875,7.256.7861,6.0214,1.9366,7.0658,8.0916,6.5324,5.2828-.4579,10.5865-.9563,15.7989-1.8932,16.5384-2.9726,33.08-5.9566,49.5368-9.3423,9.0811-1.8683,17.9379-4.8123,27.0021-6.7815,7.4285-1.6138,8.2058-2.3301,7.0309-10.6419ZM162.9959,52.9736c-1.56-12.765-2.8577-25.4553-4.8854-38.0279-.3567-2.2116-3.468-4.9405-5.839-5.6478-3.8856-1.1591-8.2026-1.0301-12.3457-1.1403-17.4605-.4647-34.9241-.8151-52.3862-1.2176-.6619-.0153-1.324-.2184-1.9815-.1969-11.7314.3826-23.4724.6156-35.1846,1.3247-2.4486.1482-4.7897,2.0699-7.1804,3.1743,6.9744,1.86,13.6163,2.2088,19.9133,3.8677,6.6165,1.7432,12.8702-.653,19.3439-.5256,13.5393.2666,27.1184-1.604,40.685-2.5404,5.9653-.4117,12.0634-1.6084,17.8851-.8311,12.3549,1.6496,14.0016,5.0316,13.4376,14.7926-.563,9.7423-.1235,19.5425-.1235,29.9712,3.2857-1.1392,5.294-1.8354,8.6615-3.003ZM175.5767,50.5965c.251-.6559.4589-.9545.4686-1.2595.358-11.2784.7361-22.5565,1.0048-33.8372.0495-2.0806-.2081-5.9566-.571-5.9863-4.3204-.3537-8.6877-.1356-13.0426-.0673.1431,2.2638.2631,4.5294.4391,6.7906.0896,1.151.3132,2.2911.4203,3.4414.9872,10.6,1.962,21.2011,2.9929,32.3697,3.1311-.5483,5.7953-1.0148,8.2879-1.4513ZM79.6647,20.5273c-.4572,5.0736-.8538,9.4755-1.2399,13.7603,10.8597-.6786,21.6429-1.3524,32.1667-2.01v-14.758c-10.4897,1.0201-20.5007,1.9937-30.9269,3.0077ZM75.1005,21.5808c-6.6026-.8624-12.6124-1.8019-18.6581-2.3263-1.4717-.1276-3.8084.6739-4.4621,1.7966-2.2668,3.8931-3.9677,8.1157-6.6089,13.7633,10.3755.582,19.3262,1.0841,28.2561,1.5851.5619-5.6525,1.0256-10.3172,1.473-14.8187ZM17.1922,52.4866c-5.0668.1289-10.3354,6.4048-10.1216,12.0565.1763,4.6595,4.8116,7.9519,11.1891,7.9477,4.9099-.0033,9.6006-5.1412,9.4165-10.3141-.2355-6.6163-3.7465-9.8614-10.484-9.6901ZM41.4278,33.1039c2.5405-5.3404,4.8375-10.1692,7.1638-15.0592-10.4597-1.6241-15.4333,1.1728-19.7642,11.433,4.1411,1.1918,8.2134,2.3637,12.6003,3.6263ZM178.2565,69.794c-.4839-5.1052-.928-9.7915-1.4193-14.9743-3.0931.5316-5.8817,1.0109-8.5513,1.4698v13.5046h9.9705Z"/>
  <path class="cls-2" d="M28.564,85.3109c-3.4451-1.791-6.6932-3.4796-9.9412-5.1681-.0612-.5316-.1224-1.0632-.1836-1.5948,10.2729-3.3919,15.8352-9.6292,13.2396-20.5876-1.8981-8.0136-7.7195-10.6479-15.5812-10.2688-.1744-.4091-.3488-.8182-.5233-1.2273,1.1957-1.209,2.1867-2.8274,3.6269-3.5476,3.8112-1.9058,7.8955-3.3403,8.2376-8.8408,7.3934,1.7473,14.3795,3.1449,21.2152,5.0747,9.6807,2.7328,19.324,2.0775,29.1187.899,10.0352-1.2074,20.138-1.8893,30.2279-2.5453.9553-.0621,2.9249,1.7158,2.9113,2.6165-.1558,10.3058-.5253,20.6116-1.0956,30.9031-.0591,1.0667-1.5859,2.4754-2.7555,2.9908-10.029,4.4193-20.0838,8.7898-30.2413,12.9021-3.392,1.3733-6.9291,3.4469-10.8943.901-.5128-.3292-2.252,1.1481-3.3631,1.8796-1.5208,1.0012-3.0505,3.0773-4.4617,2.9826-10.2303-.6861-20.4323-1.7968-30.6401-2.8037-.4406-.0435-.8517-.3861-1.8524-.8648,1.1898-1.4896,2.2289-2.7905,2.9559-3.7008Z"/>
  <path class="cls-2" d="M180.911,38.5287c.4202-9.3564.6431-16.6669,1.1088-23.9618.3865-6.0541,1.9139-6.615,7.9901-6.7053,7.6282-.1133,15.2277-1.5534,22.8636-1.9198,10.3378-.496,20.6993-.7234,31.0493-.689,13.6348.0453,27.2679.4886,40.9028.6885,3.4849.0511,5.2669,1.6781,5.3843,5.1084.2834,8.2854.6838,16.5733.6238,24.8571-.0092,1.2675-2.051,3.3833-3.4323,3.6482-20.1672,3.8674-40.32,7.8879-60.6078,11.019-12.7762,1.9718-25.7749,2.4885-38.6666,3.7319-4.101.3955-6.6042-.3244-6.3475-5.4219.2064-4.0954-.6667-8.2451-.8683-10.3553ZM269.1876,31.1083c2.4951,0,4.9937.0858,7.4845-.0176,5.3843-.2236,7.7769-2.7057,8.3522-8.5018.7977-8.0362-.7224-11.4832-6.36-12.4636-4.6223-.8038-9.4116-1.0965-14.1057-.9484-11.5746.3652-23.1318,1.3983-34.7062,1.6165-8.8456.1668-17.767-1.2929-26.5484-.6272-16.0047,1.2133-17.8096,3.7563-17.5261,18.7035.0765,4.03,1.582,6.7822,5.4785,6.835,10.7085.1451,21.5018.5593,32.1176-.532,15.2578-1.5685,30.1903-6.5196,45.8137-4.0646Z"/>
  <path class="cls-3" d="M52.8451,132.3461c3.1036-5.008,6.9205-9.7241,9.1207-15.1017,2.4555-6.0018,3.3127-12.6428,5.1617-18.9183.4536-1.5398,1.7795-3.3923,3.1796-3.9926,10.4569-4.4833,21.0261-8.7055,31.5791-12.9628,1.8016-.7268,3.6936-1.23,6.1711-2.0421,0,3.373-.0333,6.1061.0066,8.8381.0959,6.5667,4.3278,7.172,9.3688,5.6251,6.0001-1.8412,11.9561-3.9359,17.7134-6.4249,5.1326-2.2189,10.001-5.0646,14.9256-7.7449,4.7521-2.5864,7.0327-6.8415,6.0873-12.0302-.9244-5.0735,1.5786-7.1905,5.9461-9.2638v23.2954c-36.2059,17.3106-72.4776,34.6526-108.7493,51.9946-.1702-.424-.3405-.848-.5107-1.272Z"/>
  <path class="cls-2" d="M113.1064,90.0731c.533-5.7569-1.4708-10.3459,3.1106-13.7188.6883-.5067,1.0667-2.3176.731-3.1983-4.3339-11.367-.3724-22.9895-1.9694-34.4955,11.856-1.421,22.9587-2.7516,35.0446-4.2001,0,8.5018-.0901,16.4156.0441,24.3256.0539,3.1756,1.1563,6.4169.7467,9.4905-.327,2.454-1.8098,5.0831-3.5328,6.933-1.8641,2.0016-4.4271,3.6259-6.9906,4.6525-8.5635,3.4295-17.2635,6.518-27.1842,10.211Z"/>
  <path class="cls-3" d="M54.2557,119.5229c-.0998.314-.1765.6377-.3029.9406-3.6367,8.7165-9.3958,13.0022-19.5698,11.7727-9.2843-1.1221-17.7904-3.4949-25.4852-8.72-3.0976-2.1034-4.3251-4.8009-2.5914-8.5351,3.6658-7.8954,7.1888-15.8572,10.5526-23.3094,6.6563,1.7029,12.9884,3.323,19.3206,4.943,1.0264.7651,1.9829,2.0387,3.0935,2.1914,2.4511.337,4.9799.1089,7.477.112q11.139.014,11.403,11.1463s.0328-.0439.0328-.044c-.999,2.0738-1.998,4.1476-2.9969,6.2215.0967.2697.0517.5131-.1351.7299-.2661.8501-.5322,1.7006-.7983,2.551Z"/>
  <path class="cls-3" d="M290.574,44.1617c1.1749,8.3118.3976,9.0282-7.0309,10.6419-9.0643,1.9692-17.921,4.9132-27.0021,6.7815-16.4568,3.3857-32.9984,6.3697-49.5368,9.3423-5.2124.9369-10.5161,1.4353-15.7989,1.8932-6.155.5335-7.3055-.5109-8.0916-6.5324-.2994-2.2931-.6229-4.583-.9875-7.256,18.2136-1.6987,36.376-2.7778,54.3485-5.2416,18.0206-2.4704,35.8519-6.3222,54.0992-9.6289Z"/>
  <path class="cls-2" d="M162.9959,52.9736c-3.3675,1.1675-5.3758,1.8638-8.6615,3.003,0-10.4287-.4395-20.2289.1235-29.9712.564-9.761-1.0827-13.143-13.4376-14.7926-5.8217-.7773-11.9198.4193-17.8851.8311-13.5666.9364-27.1457,2.807-40.685,2.5404-6.4736-.1275-12.7274,2.2687-19.3439.5256-6.2969-1.659-12.9389-2.0078-19.9133-3.8677,2.3907-1.1044,4.7318-3.0261,7.1804-3.1743,11.7122-.7091,23.4532-.942,35.1846-1.3247.6575-.0214,1.3196.1817,1.9815.1969,17.4622.4025,34.9257.7529,52.3862,1.2176,4.1431.1103,8.4601-.0188,12.3457,1.1403,2.371.7073,5.4823,3.4362,5.839,5.6478,2.0276,12.5726,3.3254,25.2629,4.8854,38.0279Z"/>
  <path class="cls-2" d="M175.5767,50.5965c-2.4926.4365-5.1568.903-8.2879,1.4513-1.0309-11.1686-2.0057-21.7697-2.9929-32.3697-.1072-1.1502-.3307-2.2903-.4203-3.4414-.1761-2.2612-.296-4.5268-.4391-6.7906,4.3549-.0682,8.7222-.2864,13.0426.0673.3629.0297.6205,3.9057.571,5.9863-.2686,11.2807-.6468,22.5588-1.0048,33.8372-.0096.305-.2175.6036-.4686,1.2595Z"/>
  <path class="cls-3" d="M17.1922,52.4866c6.7375-.1713,10.2485,3.0738,10.484,9.6901.1841,5.1728-4.5067,10.3108-9.4165,10.3141-6.3775.0042-11.0128-3.2882-11.1891-7.9477-.2139-5.6517,5.0548-11.9276,10.1216-12.0565Z"/>
  <path class="cls-1" d="M269.1876,31.1083c-15.6234-2.455-30.5559,2.4962-45.8137,4.0646-10.6158,1.0913-21.4091.677-32.1176.532-3.8965-.0528-5.402-2.805-5.4785-6.835-.2835-14.9472,1.5214-17.4902,17.5261-18.7035,8.7814-.6657,17.7028.794,26.5484.6272,11.5745-.2183,23.1316-1.2513,34.7062-1.6165,4.6942-.1481,9.4835.1446,14.1057.9484,5.6376.9803,7.1577,4.4273,6.36,12.4636-.5754,5.796-2.968,8.2781-8.3522,8.5018-2.4908.1035-4.9894.0176-7.4845.0176ZM211.0749,31.832c0-5.2363-.0353-9.3527.0114-13.4682.0358-3.1458-1.5438-4.0234-4.4332-3.5126-4.9973.8834-10.0134,1.6609-15.0906,2.4942-.4738,2.7922-.8387,5.3939-1.3681,7.9617-.9279,4.5005,1.1882,6.4399,5.4271,6.5067,4.942.0779,9.886.0182,15.4535.0182ZM236.5112,15.5929h-20.4267v15.8794c6.3298-.9699,12.0294-1.7588,17.6823-2.8012.8392-.1547,1.982-1.4419,2.0863-2.3127.4066-3.396.4518-6.8353.6581-10.7655ZM261.2966,14.9035c-7.0574.3588-13.4407.6834-20.0267,1.0182v11.5239c6.5273-.6324,12.7186-1.2323,19.2513-1.8653.252-3.4697.4897-6.7428.7754-10.6768ZM264.7833,26.1349c4.3539,0,8.2693.1442,12.1609-.0967,1.0335-.064,2.5277-1.1007,2.9011-2.0489,2.4169-6.1376.2654-9.5053-6.2769-9.9761-2.6039-.1874-5.2327-.0308-8.174-.0308-.2038,4.0516-.3851,7.6576-.6111,12.1525Z"/>
  <path class="cls-3" d="M169.6025,67.6804c.6711-2.8694,1.2831-5.758,2.1833-8.5536.0464-.1443,3.4547.1151,3.775.8501,1.8303,4.2006-1.5029,6.108-4.1095,8.2494-.6163-.1819-1.2325-.3639-1.8488-.5458Z"/>
</svg>