<?xml version="1.0" encoding="UTF-8"?>
<svg id="Layer_1" xmlns="http://www.w3.org/2000/svg" viewBox="0 0 146.0813 129.0936">
  <defs>
    <style>
      .cls-1 {
        fill: #141814;
      }

      .cls-2 {
        fill: #b0d359;
      }

      .cls-3 {
        fill: #b8d433;
      }

      .cls-4 {
        fill: #809e8f;
      }
    </style>
  </defs>
  <path class="cls-1" d="M39.5503,90.9184c-2.1662,2.6507-4.0403,4.3723-5.1921,6.4872-1.7388,3.1927-2.4425,6.3094,1.2627,9.2137,3.9527,3.0982,6.2234,7.465,5.6529,12.6731-.1973,1.8014-1.0795,4.5479-2.3094,4.9793-1.8885.6623-4.77.3728-6.4892-.7001-6.1426-3.8335-8.1834-10.6626-5.9957-18.0843-5.2078,2.0301-5.8106,2.9581-5.2289,8.0492.8072,7.0648-1.7165,12.4246-6.9728,14.6226-3.748,1.5673-7.8553,1.3246-9.9146-1.9723-1.3178-2.1098-.9217-6.0297.0632-8.6225.9174-2.4152,3.4125-4.4294,5.5976-6.1244,4.8685-3.7764,9.9773-7.2433,14.9881-10.8363-.1834-.4324-.3668-.8648-.5502-1.2972-1.6283.434-3.3674.634-4.8653,1.3434-5.7421,2.7198-11.4123,2.4956-16.4713-1.1127C1.3509,98.2717-.0016,95.3066,0,93.1187c.0008-1.1221,3.2868-2.8134,5.303-3.2456,4.4297-.9496,8.4628.2628,12.0103,3.3558,4.5145,3.9362,11.4977,3.3044,15.3766-1.0203,2.0756-2.3141,4.2999-4.495,6.0535-7.5353-1.23.4807-2.5608.7951-3.6735,1.4695-6.8226,4.135-13.9033,3.7486-20.4197.0205-2.5591-1.4641-5.1138-5.2464-5.249-8.0882-.1965-4.1288,4.4981-5.0299,7.5455-4.5708,5.5948.8428,11.7203,1.7406,16.3361,4.6556,6.7029,4.2331,12.6544,3.3194,16.9557-3.1872-2.6244.1472-4.8413.3419-7.061.383-7.0909.1313-13.6407-4.4072-14.8546-10.2311-1.3495-6.4748,1.9846-9.8406,8.6265-8.6833.9767.1702,1.9323.4613,3.2212.7753.4892-2.0893.9942-4.0803,1.4186-6.0882,1.6197-7.663,4.3486-9.991,11.9822-9.4704,16.5744,1.1302,33.1326,2.4956,49.7057,3.6471,4.8819.3392,9.7913.2839,14.6881.4094.134-.4882.2679-.9765.4019-1.4647-1.5527-2.0906-3.1053-4.1812-4.1962-5.6502-5.4233.989-10.2657,1.881-15.1137,2.742-.4816.0855-.999.0058-1.4961-.0382-5.3984-.4768-11.1977-5.2178-11.126-9.0873.0609-3.2897,5.7423-6.7403,11.4621-6.6966,5.3469.0409,10.1221,1.7042,13.7926,5.9534.4012-4.4038-2.1332-7.6236-6.1328-7.9056-1.329-.0937-2.6641-.2003-3.9935-.1702-9.8543.2231-15.0832-5.2326-17.7236-14.1302-1.6763-5.6487.5046-8.9024,6.5107-9.2348,9.0515-.5009,16.1056,4.8617,18.8009,13.9301.9889,3.3271,2.6302,6.4603,5.1041,9.3275.0646-2.5205-.1752-5.0981.2837-7.5446.4172-2.2247,1.0534-4.8893,2.5752-6.3017,1.8165-1.6859,6.0493-3.7227,6.8206-3.0066,2.0257,1.8807,4.1275,5.4001,3.7242,7.8612-1.3348,8.1469-3.6967,16.1319-5.7991,24.1437-.907,3.456.9879,6.1142,4.491,5.8915,2.9911-.1902,5.9807-.5152,8.9734-.546,6.9347-.0713,10.7527,3.8492,10.757,10.8588.0043,6.9621-3.7304,10.5921-10.8128,10.6181-17.1446.0628-34.2893.1387-51.4337.2587-5.3337.0373-10.9674-.7758-15.8975.6966-3.5161,1.0501-6.1491,5.2109-8.9209,8.2189-.1675.1818,1.695,2.7701,3.0016,3.6813,5.5321,3.8578,9.0822,8.8378,8.9149,15.7401-.0456,1.8804-1.1358,5.0226-2.3031,5.3078-2.1158.5169-5.037-.0674-6.936-1.2728-5.5305-3.5103-6.44-9.616-7.5449-15.4699-.171-.906-.1506-1.8481-1.4692-3.436-2.8168,3.8064-5.6337,7.6129-8.7567,11.8331,6.8817,2.3017,10.4385,6.4478,11.6119,12.0031.5127,2.4274-.327,6.4316-2.0555,7.7519-2.9098,2.2226-6.8018.7585-8.587-2.422-1.9852-3.5368-3.0604-7.6023-4.3662-11.4932-.5054-1.5059-.5566-3.1641-.9757-5.7432ZM89.8877,7.4114c.2336,1.4797.4672,2.9594.7009,4.4391,3.0626,5.8571,6.6949,7.3995,13.8011,5.8602-1.2073-8.3736-6.5939-13.3483-13.7063-12.5463-.8108.0914-1.5538.7846-2.3282,1.1989l1.5325,1.0481ZM57.8587,59.3614c8.1627.2092,16.0801.3616,23.9932.6381,3.4855.1218,5.0381-1.8075,4.7638-4.848-.205-2.2732-1.2612-6.3191-2.1868-6.3913-9.1296-.7122-18.311-.7583-27.6555-.9978.3301,3.5277.6358,6.7951,1.0853,11.5991ZM118.7325,51.0835c-9.7397-.7723-18.6385-1.4779-27.5662-2.1858l-.2831,11.0468c7.9914.2048,16.2235.5259,24.4542.493,1.0795-.0043,2.8146-1.668,3.0868-2.8338.5378-2.3033.2642-4.796.3083-6.5202ZM123.6051,49.6156l-.2795,10.9058c4.3858.1124,8.3349.2806,12.2846.2951,3.5995.0132,6.4-3.1224,5.9611-6.7819-.4592-3.8283-2.5664-5.981-6.6567-5.5894-3.6043.3451-7.2035.7432-11.3095,1.1704ZM48.0442,69.5214c-5.3681-3.0745-8.0659-9.3551-15.247-8.3444.1637,7.8633,6.4124,11.5489,15.247,8.3444ZM31.3231,82.5177c-5.4084-4.7494-11.073-4.8113-17.5008-3.6639,4.1586,5.5998,10.5963,6.9028,17.5008,3.6639ZM91.8141,32.6367c4.6045,5.0496,8.9169,5.5234,15.4574,1.9783-4.1781-4.8696-9.1287-5.5697-15.4574-1.9783ZM47.1391,61.0765c6.5672-3.4407,7.5061-8.3851,2.4995-13.1632-4.013,2.492-5.0532,7.9704-2.4995,13.1632ZM16.7154,114.2753c-5.7389.3998-8.0599,3.9059-9.7089,8.4003,6.4925,3.0071,9.5801.3634,9.7089-8.4003ZM58.0417,81.783c1.1267,6.0863,2.359,11.35,8.595,13.8681.208-6.8184-2.8552-11.8446-8.595-13.8681ZM31.1223,109.4383c-.6528.3917-1.3055.7833-1.9583,1.175,1.9654,3.2342,3.9308,6.4684,5.8961,9.7025.5161-.3074,1.0323-.6149,1.5484-.9223-.3167-4.1518-1.1637-8.0114-5.4863-9.9552ZM122.2362,10.8844c-4.72,4.2599-4.9476,7.5228-.3169,12.3648l.3169-12.3648ZM50.7756,65.3571c1.4752,2.1773,2.8306,4.5653,3.0632,4.4605,2.1567-.9713,4.1198-2.3722,6.1391-3.6484-.1957-.3969-.3915-.7938-.5872-1.1907-2.3911.1051-4.7823.2102-8.6152.3786ZM6.0937,93.8698c-.234.8572-.468,1.7145-.702,2.5717,2.8466.6588,5.6931,1.3176,8.5397,1.9764.1971-.7804.3941-1.5608.5912-2.3412-2.8096-.7356-5.6192-1.4713-8.4289-2.2069Z"/>
  <path class="cls-4" d="M57.8587,59.3614c-.4495-4.8039-.7552-8.0713-1.0853-11.5991,9.3444.2395,18.5259.2855,27.6555.9978.9256.0722,1.9817,4.1181,2.1868,6.3913.2743,3.0405-1.2783,4.9698-4.7638,4.848-7.9131-.2764-15.8305-.4289-23.9932-.6381Z"/>
  <path class="cls-4" d="M118.7325,51.0835c-.0442,1.7243.2294,4.217-.3083,6.5202-.2723,1.1658-2.0074,2.8294-3.0868,2.8338-8.2307.0329-16.4628-.2882-24.4542-.493l.2831-11.0468c8.9277.7079,17.8265,1.4135,27.5662,2.1858Z"/>
  <path class="cls-4" d="M123.6051,49.6156c4.106-.4272,7.7052-.8253,11.3095-1.1704,4.0903-.3916,6.1975,1.7611,6.6567,5.5894.4389,3.6596-2.3616,6.7951-5.9611,6.7819-3.9497-.0145-7.8989-.1827-12.2846-.2951l.2795-10.9058Z"/>
  <path class="cls-2" d="M48.0442,69.5214c-8.8347,3.2045-15.0834-.4811-15.247-8.3444,7.1812-1.0107,9.879,5.2699,15.247,8.3444Z"/>
  <path class="cls-2" d="M89.8877,7.4114c-.5108-.3494-1.0217-.6988-1.5325-1.0481.7744-.4142,1.5174-1.1074,2.3282-1.1989,7.1123-.8019,12.499,4.1727,13.7063,12.5463-7.1061,1.5393-10.7385-.0031-13.7996-5.8573,2.9295,1.4491,5.8575,2.8952,9.9841,4.9334-.4887-2.6362-.242-5.4794-1.2713-6.0598-2.8541-1.6094-6.2396-2.2763-9.4151-3.3157Z"/>
  <path class="cls-2" d="M31.3231,82.5177c-6.9045,3.2389-13.3422,1.9359-17.5008-3.6639,6.4278-1.1474,12.0924-1.0855,17.5008,3.6639Z"/>
  <path class="cls-2" d="M91.8141,32.6367c6.3287-3.5914,11.2793-2.8913,15.4574,1.9783-6.5404,3.545-10.8529,3.0713-15.4574-1.9783Z"/>
  <path class="cls-2" d="M47.1391,61.0765c-2.5537-5.1929-1.5135-10.6713,2.4995-13.1632,5.0066,4.7781,4.0677,9.7225-2.4995,13.1632Z"/>
  <path class="cls-2" d="M16.7154,114.2753c-.1289,8.7638-3.2164,11.4074-9.7089,8.4003,1.649-4.4944,3.97-8.0006,9.7089-8.4003Z"/>
  <path class="cls-2" d="M58.0417,81.783c5.7397,2.0235,8.803,7.0497,8.595,13.8681-6.236-2.5181-7.4683-7.7818-8.595-13.8681Z"/>
  <path class="cls-3" d="M89.8877,7.4114c3.1755,1.0394,6.561,1.7063,9.4151,3.3157,1.0293.5804.7826,3.4235,1.2713,6.0598-4.1266-2.0381-7.0546-3.4843-9.9841-4.9334-.2351-1.4826-.4687-2.9624-.7024-4.4421Z"/>
  <path class="cls-2" d="M31.1223,109.4383c4.3226,1.9438,5.1695,5.8034,5.4863,9.9552-.5161.3075-1.0323.6149-1.5484.9223-1.9654-3.2342-3.9307-6.4684-5.8961-9.7025.6528-.3917,1.3055-.7833,1.9583-1.175Z"/>
  <path class="cls-2" d="M122.2362,10.8844l-.3169,12.3648c-4.6307-4.8421-4.4032-8.1049.3169-12.3648Z"/>
  <path class="cls-4" d="M6.0937,93.8698c2.8096.7356,5.6192,1.4712,8.4289,2.2069-.1971.7804-.3941,1.5608-.5912,2.3412-2.8466-.6588-5.6931-1.3176-8.5397-1.9764.234-.8572.468-1.7145.702-2.5717Z"/>
</svg>