<?xml version="1.0" encoding="UTF-8"?>
<svg id="Layer_1" xmlns="http://www.w3.org/2000/svg" viewBox="0 0 344.844 92.7974">
  <defs>
    <style>
      .cls-1 {
        fill: #92b63e;
      }

      .cls-2 {
        fill: #b0c486;
      }

      .cls-3 {
        fill: #737a73;
      }

      .cls-4 {
        fill: #d1e3db;
      }

      .cls-5 {
        fill: #f0eb97;
      }

      .cls-6 {
        fill: #9daeae;
      }

      .cls-7 {
        fill: #50803b;
      }

      .cls-8 {
        fill: #97873b;
      }

      .cls-9 {
        fill: #4c6744;
      }

      .cls-10 {
        fill: #88c15f;
      }

      .cls-11 {
        fill: #3c4b3e;
      }
    </style>
  </defs>
  <path class="cls-9" d="M130.7857,18.9738c.4747-.4966.9494-.9931,1.4241-1.4897.4614.0223.9228.0446,1.3842.067-.0426.4696-.0853.9392-.1279,1.4088-.1438.4989-.2876.9977-.4314,1.4966.0768,1.4888-.219,3.0082.2041,4.5572,1.7389-1.1025,4.6299-3.5937,5.0756-4.4939.2519-.5087.4356-1.1325.3984-1.6877-.1144-1.7093.3686-3.2831.8886-4.8619.2033-.2519.4237-.4921.6061-.7584.3388-.4945.6506-.4431.9681.0109-.1323,1.8146-1.5782,3.5251-.5977,5.3991.2819.0713.4449.1655.5065.1206,3.1203-2.2729,6.2075-4.5665,6.6423-8.8673.0589-.5827.3495-1.1419.5329-1.712.2231.3314.4425.6653.6703.9934.2223.3202.4533.6344.681.953.9395.1206,1.6035-.388,2.1179-1.0531.5016-.6486.9917-1.3466,1.2942-2.1003.5849-1.4573,1.6643-1.8907,3.0995-1.7885.0463.5246.0927,1.0492.139,1.5738-.2388,1.2496-1.1913,2.0026-1.9737,2.8841-.5995.6754-1.1285,1.4135-1.9239,2.4215,1.0478.1962,1.6957.3175,2.3436.4388-.2546.4492-.5093.8985-.764,1.3477-1.2021.4968-2.369,1.1336-3.6172,1.4461-.9976.2498-1.7244.7404-2.3967,1.4338-.9139.9425-1.8604,1.8547-2.7441,2.8244-.3454.379-.5586.8784-.8923,1.4209,1.4691.3917,2.6192.3068,3.7735-.1349,1.2228-.4679,2.4707-.87,3.7077-1.3008l1.1772.3087c-.0461.2469-.1688.4467-.3683.5996-.2105.2827-.4209.5653-.6313.8479,0,0,.0008.0022.0007.0021-.1921.2679-.3841.5359-.576.8039,0,0-.0594.0793-.0595.079-.5618-.0777-1.1233-.155-1.685-.2324-1.403.2457-2.8396.8134-4.2021.671-2.9782-.3112-5.0998.7698-6.7306,3.1562-.3338.4884-.8451.8516-1.2309,1.3093-.3719.4411-.8582.8785-.3723,1.7872,2.0926.3845,4.3137.3983,6.5375-.0249.3283-.0625.61-.3698.9133-.5638.3015.5519.603,1.1038.9045,1.6557,0,0-.0259.0433-.0259.0431-.5236.2089-1.047.4179-1.5705.6269-.3064.1803-.6127.3606-.9188.5409-1.0454.3778-2.091.7557-3.1366,1.1336.2259-.4679.4519-.9359.7761-1.6073-1.7378-.068-3.1651-.0679-4.581-.1943-1.5282-.1364-2.4652.5401-3.1259,1.8538-.4803.9549-1.0934,1.8424-1.6324,2.7686-.3115.5354-.4926,1.0816.1013,1.5794,1.6947-.2413,3.1339-1.0098,4.5189-1.9984,1.2516-.8934,2.6311-1.6077,3.9543-2.4009.267.6936.6719,1.2214,1.5119.9917.6509-.178,1.2779-.4437,1.9155-.6704,5.5136-1.221,11.0273-2.4411,16.5404-3.6643.5873-.1303,1.2189-.1787,1.7478-.4347,3.2406-1.5686,6.7242-1.5375,10.205-1.7965,5.5202-.4107,11.0338-.6649,16.5685-.5978,1.4321.0174,2.8673-.2633,4.3019-.3992,1.5417-.1461,3.0843-.2831,4.6265-.424-.3903,1.2629-.2554,1.583.6174,1.6263,1.151.057,1.6483-.541,1.7366-1.6067.6884.0206,1.3768.0411,2.0652.0617.0898.9272.513,1.5457,1.5203,1.5653,1.5196.0296,3.0405.0726,4.5593.0404,1.1968-.0254,2.329.1197,3.3575.7733q2.4563,1.0859,3.5291,2.5695c3.6229.5503,7.2542,1.0904,10.8815,1.6564,3.282.5121,6.5605,1.0459,9.8381,1.5851.7084.1165.91.6814,1.0107,1.2989-3.6623-.5339-7.3213-1.0922-10.9882-1.5925-2.1225-.2896-4.2567-.496-6.3879-.7171-.5931-.0615-1.2135.0476-1.7893-.0737-5.2255-1.1-10.4961-.0581-15.7458-.3494-5.1299-.2847-10.2844-.1293-15.4282-.1543-.5964-.0029-1.1931.0757-1.7876.1162-.6984-.0568-1.399-.1134-2.0996-.17-.4883-.6946-.9478-.6273-1.3842.0523-.4527.0231-.9055.0461-1.359.0691-.6998-.8672-1.6872-.707-2.6309-.7717-4.7702-.3268-9.4818.3981-14.2118.7763-1.0886.0871-2.0881.4746-2.7569,1.433-.0026.1802-.0118.3601-.0273.5412-.4341.7516-.8683,1.5017-1.3024,2.2518-.0436-.4498-.0872-.8996-.1308-1.3494.0598-.5003-.0934-.7529-.6387-.5492-4.8486,1.3662-9.7355,2.6112-14.5371,4.1263-7.7733,2.4529-15.6146,4.7621-23.0305,8.1932-3.8064,1.7611-7.4235,3.9307-11.1353,5.8983-.9479.5024-1.8935,1.2226-2.904,1.3549-3.6861.4825-6.7802,2.302-9.9288,4.0372-1.6653.318-3.0946,1.0969-4.343,2.2282,0,0,.0839-.0468.0839-.0468-.3764.088-.7528.1761-1.1292.2641-.3185-.0313-.6371-.0626-.9557-.0938-.2396-.5221-.4793-1.0442-.7493-1.6323.767-.5363,1.402-.9804,2.1732-1.5197-.7072-1.1621-.9248-2.471-2.3162-2.9333.529-.4342,1.0001-1.1272,1.5965-1.2608,3.9254-.8793,7.276-3.031,10.8002-4.7773,5.883-2.9151,11.7397-5.8709,18.0862-7.6905.4534-.13.8647-.4067,1.2955-.615.7545-.1693,1.5092-.3389,2.2638-.5085,3.097-.8201,3.0899-1.7527,2.9921-4.2073-.0231-.5806-.0173-1.1623-.0248-1.7436-.0234-.226-.0467-.452-.0701-.678-.0465-.9498-.0931-1.8996-.1396-2.8494.0974-.5515.1947-1.1029.3502-1.9836.4559,1.0838.7813,1.8574,1.1068,2.631.2519.6728-.2347,1.7658.8739,1.858,3.1946-2.3837,4.0345-5.5061,3.3184-9.1624.0794-.9392.1588-1.8784.2381-2.8176.7499-1.0487-.3132-1.0922-.805-1.4525Z"/>
  <path class="cls-11" d="M88.9034,54.2312c1.3914.4623,1.609,1.7713,2.3162,2.9333-.7713.5393-1.4063.9834-2.1732,1.5197.27.5882.5096,1.1103.7481,1.6312.0227.4912.0466.9837.0704,1.4761-.2942.4409-.5883.8817-.8825,1.3226-.7121-.1729-1.3492-1.1307-2.166-.2067-1.4402.4326-2.0661,1.7526-3.6806,3.0282,1.38-.098,2.0549-.146,2.7297-.1939,1.1718.9339,1.1483.9212.5768,1.98-.2125.3936-.2866.8619-.4235,1.2954-.702-.4365-1.3794-.9209-2.1128-1.2958-.9045-.4625-1.6116-.0158-2.017,1.1982-.0753.2254-.1158.4623-.1724.6939-.621-.477-1.3516-.8627-1.8401-1.4499-1.0339-1.2428-2.2535-1.4952-3.7119-1.0234-.3291.1065-.6474.2464-.9707.3709-1.3751-.2434-2.5237.2916-3.6071,1.0501-1.0578.2824-2.1156.5648-3.1736.8468-.695-.4246-1.326-.391-1.8707.2609-1.547.3928-3.094.7856-4.6411,1.178-.7234-.5558-1.3741-.467-1.9574.2202-1.1763.1842-2.3526.3684-3.5289.5526-1.6973-.8522-3.0302-.0403-4.3246.9473-1.5445.3602-3.0891.7203-4.6339,1.0799-1.7943-.8484-3.543-.0272-5.3078.156-.0686.0071-.1193.1865-.1783.2856-1.4465.1481-2.893.2962-4.3393.4442-.4211-.188-.8394-.5302-1.2638-.538-2.1386-.0392-4.2794-.0101-6.418.0468-.3162.0084-.6252.2925-.9375.4491-1.4623.0132-2.9247.0265-4.387.0397-1.9762-1.2855-3.516-.2614-5.021.9482-2.9732-1.2501-5.7242-2.8015-8.355-4.7403-2.9599-2.1813-5.6188-4.8489-9.0849-6.3344-.3454-.148-.4889-.7673-.726-1.1678-.2541-.2726-.5083-.5452-.7624-.8178-.2252-.2305-.4504-.461-.6755-.6914.1379-.1494.2745-.3.4098-.4518,1.1112.166,2.2224.332,3.3334.498,1.1278,1.0182,2.4471.5745,3.7198.4869,1.6232.2084,3.2464.4167,4.8696.625,1.0373,1.4909,2.2976,1.039,3.5781.4108,1.4569.1328,2.9137.2655,4.3706.3982,1.6017,1.416,3.3063,1.0515,5.0338.2909,2.7834.0067,5.567.0008,8.3502.0331.4492.0052.8965.18,1.3458.2775,1.5097.6548,2.7918-.3977,4.1924-.5549,1.1523-.0353,2.305-.0708,3.4577-.1063,1.1444-.0142,2.2888-.0283,3.4332-.0425.9311.1627,1.8678.388,2.8693-.3268.0316-.6773.0676-1.4496.1009-2.1636,2.122-.5853,1.2052,1.5817,2.0845,2.2898.3911-.7091.6721-1.2184.9531-1.7278,2.9101,1.0883,5.8051.6208,8.6977-.0839.3583.0232.7172.0728,1.0749.0655,2.9256-.0593,5.5981-1.0613,8.2249-2.2286.9771.3349,1.9369,1.3957,2.9539.071.5502-.1063,1.1003-.2125,1.6518-.3177.4148-.1232.8282-.2475,1.2417-.3718,2.164-.743,4.328-1.486,6.492-2.229,1.3913.0508,2.831.2332,3.6264-1.335,0,0,.1828-.0449.1823-.0449.9563-.069,2.0629.3074,2.6403-.8889l.0157-.0685ZM66.8688,62.626c-.5654-.1015-.9209-.2644-1.2349-.2057-2.227.4159-4.4318.9731-6.6707,1.2978-2.3602.3422-4.6691,1.1602-7.1158.8444-.4605-.0594-.9969-.0072-1.4166.1785-1.498.6627-3.0668.4782-4.6214.5119-2.2802.0494-4.5628.0579-6.8395.1763-2.358.1227-4.7084.4748-7.0656.5136-3.8291.0629-7.6335-.0918-11.469-.5695-3.6664-.4566-7.3525-.7585-10.9981-1.4298-1.4733-.2713-2.9831-.3441-5.1364-.5793,1.1377.8634,1.7062,1.5903,2.418,1.7805,2.3025.6151,4.6448,1.1105,6.997,1.499,1.5082.2491,3.0857.4453,4.5873.2733,1.817-.2081,3.5442-.3206,5.3271.2295.8922.2753,1.8979.2432,2.8525.2456,6.4942.0163,12.9887.0355,19.4825-.0237,1.2966-.0118,2.6069-.2812,3.8816-.5638,2.8979-.6424,5.6436-1.9217,8.7394-1.7378,1.2759.0758,2.6131-.28,3.8691-.6307,1.4562-.4066,3.0597-.5494,4.4136-1.8099ZM72.8892,61.1693c.0503.1487.1006.2974.1509.446.5405-.0891,1.0903-.1452,1.6145-.2923.1202-.0337.2588-.4264.1966-.5711-.0676-.157-.4091-.3478-.545-.2964-.4919.1862-.9476.4681-1.417.7138Z"/>
  <path class="cls-9" d="M310.6505,45.7095c1.7043.749,3.4294,1.4556,5.1,2.2736.4845.2373.8128.7938,1.2122,1.2039-.9336-.1055-1.874-.1679-2.7982-.3257-1.7519-.2991-3.4822-.7946-5.2441-.9474-2.125-.1843-4.2574-.0036-6.3727-.6216-1.1008-.3216-2.4443-.3439-3.5434-.0297-2.3503.6719-4.7172.5525-7.0919.6336-1.7725.0606-1.7714.0908-3.8346,1.4548,1.7586,1.6767,3.8435,2.7299,6.0199,3.6374.737.3752,1.5652.6379,2.1934,1.1473,1.6685,1.353,3.5517,1.6995,5.6352,1.6746,2.9553-.0354,5.9124.0909,8.8688.1481-.0037.1644-.0078.3288-.0124.4932-2.7624.0801-5.5248.1594-8.2871.2431-.1181.0036-.2684.0124-.343.083-.0748.0707-.0733.222-.1726.582,1.5561.9154,3.238,1.7802,4.7796,2.8475,1.456,1.0081,2.9863,1.4928,4.7291,1.3933.4797.209.9594.4181,1.4392.6271-.3564.1849-.7128.3698-1.2901.6694,1.3408.8997,2.3756,1.6853,3.4983,2.3139.7001.392,1.516.6297,2.3096.7907,1.6155.3276,3.251.5564,4.8782.8259.0037.2226.0071.4452.0104.6678-.7762.0402-1.5524.0804-2.8615.1482,1.3719,1.1433,2.3644,1.9293,3.3106,2.7675,1.9738,1.7486,4.1576,3.0804,6.7869,3.5755.0006.23.0034.46.0085.6899-.047.7577.2994,1.3394.8781,1.7667,1.2912.9533,2.605,1.8763,4.2643,2.0761.4412.1347.8838.2711,1.3263.4074.9682.0215,1.9364.043,2.9046.0645.2558.2389.4743.5518.7743.7031.9566.4824,1.3987,1.2315,1.3568,2.2862-1.8647-.9168-3.5255-2.4483-6.2444-2.0216.9166.9911,1.6354,1.7404,2.3225,2.5176,1.0921,1.2353,2.163,2.4892,3.2429,3.7352-.5453-.1331-1.2062-.1145-1.6154-.4263-1.5015-1.1442-2.9176-2.4003-4.3699-3.6094-.4462-.3715-.8763-.8256-1.7541-.3597-.0667,1.6349-.1381,3.3832-.2096,5.1316-.2007-.0271-.3957-.0765-.5851-.1481-.3198-1.3926-.935-2.7949-.8897-4.1754.0664-2.0242-.6408-3.4799-2.1454-4.6761-.983-.7815-1.607-2.0725-3.2786-2.3895-.1172.7215-.256,1.2746-.2874,1.8338-.0605,1.0786-.0342,2.1621-.0968,3.2406-.0291.5013-.262.9079-1.0909.7986-.1185-.734-.3162-1.5209-.3581-2.316-.0696-1.3197-.0606-2.6449-.0448-3.9673.0157-1.3191-.4906-2.3452-1.6344-3.0023-1.3294-.7637-2.6853-1.4813-3.9922-2.1983-.2551.2682-.4959.4062-.5531.5987-1.0434,3.5163-1.3077,7.055-.347,10.6472.3708,1.3865.6072,2.8091.9045,4.2156-.238.2488-.4755.4972-.7131.7457l-.1557.0955c-1.2373-3.8951-2.5106-7.7903-2.1496-11.9643.1234-1.4265.4322-2.836.6019-4.2598.1135-.9527.2932-2.0363-.5839-2.692-1.5342-1.1469-3.0678-2.3877-4.7935-3.1604-1.9119-.856-3.2384-.2105-3.6171,2.0562-.0789.472-.0883.9584-.0973,1.4387-.0743,3.9677-.213,7.9361-.1866,11.9033.02,3.002.5277,5.9536,1.5471,8.7975.0335.2395.0669.4791.1004.7186-.5577.0435-1.1154.087-1.6731.1306,0,0-.0112-.0003-.0112-.0004-.0801-.767-.1602-1.5339-.2403-2.3009-.6145-1.6003-1.2692-3.1915-1.1094-4.9649-.0082-.3207-.0165-.6415-.0247-.9622-.0074-.8446-.0148-1.6891-.0221-2.5337-.0018-.623-.0036-1.2459-.0055-1.8689-.0028-.8233-.0056-1.6467-.0084-2.47-.0011-.3865-.0022-.773-.0034-1.1595-.007-1.5025-.014-3.0049-.0211-4.5074.284-2.3208.568-4.6416.8715-7.1213-2.0627-1.0522-3.9331-2.0667-5.8568-2.9671-1.3451-.6296-2.2318-.2863-2.8647,1.1449-.8153,1.8434-1.3275,3.7886-1.4185,5.8223-.0546,4.1954.1738,8.3559,1.3135,12.4307.5784,2.0679,1.0367,4.1693,1.5493,6.2556-.5207.0576-1.0414.1151-1.562.1727,0,0-.0179-.0086-.0178-.0087.0249-.8162.3123-1.693-.5327-2.3087-.2367-.4742-.4732-.9482-.7097-1.4221-.6207-2.9134-1.7261-5.7299-1.5776-8.7939.1508-3.1126.195-6.2305.2859-9.346.3688-1.3705.7795-2.7313,1.0956-4.1139.3752-1.6412.0489-2.3417-1.5616-3.1952-2.233-1.1833-4.499-2.3058-6.7693-3.4166-.6209-.3038-1.3079-.4723-1.8299-.6556-1.5802.8542-2.2653,2.1413-2.6094,3.5564-.3942,1.621-.5707,3.2949-.8418,4.9459.0113,1.9452.0225,3.8904.0338,5.8357-.0656.7479.1671,1.5829-.6198,2.1199-.3541-1.432-.7078-2.8639-1.0614-4.2958-.0223-.7211-.0447-1.4423-.0669-2.1634.0037-.4612.0075-.9223.0113-1.3835.692-3.2368,1.384-6.4737,2.098-9.8135-3.0353-1.7473-5.8617-3.7775-9.4887-4.0221-.4313-.0291-.9515-.3098-1.2378-.6407-1.0844-1.2535-2.6466-1.5643-4.0448-2.2012-.5315.2689-1.0629.5379-1.5944.8068,0,0-.0977-.0362-.097-.0354.0059-.961.0111-1.9228.0181-2.8855.538-.0331,1.0743-.0653,1.6106-.0975.4743-.0226.9748.0458,1.4189-.082,3.8238-1.1006,7.7635-1.9195,11.6911-1.7876,5.3534.1799,10.7811.2577,15.976,1.9408-.7477.9354-1.7974.7464-2.794.7542-7.3786-1.3294-14.7417-1.2348-22.589.1198.6733.5785.9761,1.0648,1.3285,1.1038,1.881.2082,3.2457,1.3267,4.8055,2.2455,3.021,1.7796,6.3594,2.8383,9.9813,2.0347,3.5164-.7802,7.0538-1.3703,10.6726-1.3021,3.4966.1623,7.0281-.379,10.4883.619.7582.2187,1.6526.1668,2.257-.5907Z"/>
  <path class="cls-7" d="M159.7473,34.0001c.0156-.1796.0247-.3594.0273-.5398,1.1206.2065,2.2415.4132,3.5323.6512,1.1896-.4377,2.3098-1.8594,3.9746-1.0179.0107,1.3203.3152,1.8895,1.0327,1.6999,1.4817-.3916,2.9279-.9175,4.3888-1.3882.8263.0816,1.7794-.1894,2.2722.8184-1.4768.2696-2.9972.4519-4.1022,1.9425.5642.4906.9488.9819,1.4529,1.2372,2.6975,1.3662,5.6123,1.4934,8.3664.5678,2.8613-.9616,5.7796-1.3925,8.7143-1.8698.0113.3041.0226.6081.0339.9122-1.8032.5653-3.6195,1.0931-5.4016,1.7184-.5443.191-.9985.6478-.7623,1.4021.8167.7147,1.7752.4593,2.6771.3121,3.5005-.5711,6.9811-1.2732,10.5505-1.3079.5766-.0056,1.151-.2372,1.7264-.3644,1.3535.0756,2.7071.1512,4.0606.2269,1.7319.3372,1.8343.2878,2.318-1.1192,1.1709.4642,2.3418.9283,3.513,1.3926-.0467.164-.0673.3312-.0606.5022-.5921.0378-1.199.009-1.7745.1295-.6715.1406-1.3157.4116-1.9718.626-2.4541-.6401-4.9008-.7633-7.3964-.139-1.0231.256-2.1307.334-3.1858.2681-2.0555-.1283-3.9472.3778-6.0667,1.1336,3.0121.8655,5.8365,1.04,8.6918,1.0376,2.7391-.0023,5.4783.0793,8.2174.124l-.028,1.0619c-.4945-.0144-.9891-.0289-1.4836-.0433-.2148-.1013-.4296-.2025-.6444-.3038-.9492.0062-1.8984.0124-2.8476.0186q-3.0551-.1617-4.7999.6634c.9185,1.1878,2.1246,1.9911,3.4681,2.4159,2.7327.864,5.5124,1.5898,8.2993,2.2624.4912.1185,1.1117-.2986,1.6725-.4684,1.4165-.0215,2.8411.0399,4.2464-.0971.7867-.0767,1.5413-.4824,2.3103-.7398l4.839.1897c.264.2531.528.5063.7929.7591-.5279.1969-1.0566.3941-1.5853.5913-2.1381.1024-4.2768.1945-6.413.3266-.1734.0107-.33.2951-.4734.4322-.2941.9496.3524,1.3131.9748,1.6809,2.7622,1.6322,5.7961,2.1268,8.947,2.1264.0173.3622.0347.7243.052,1.0865-.0115.2875-.1487.7267-.0142.8383.9468.7854,1.9494,1.5034,2.9342,2.2429-1.0051.0676-2.0102.1352-2.9892.2011v2.0895c-.6784-.2987-1.3569-.5973-2.0353-.896-.6637-.6697-1.2224-1.5205-2.0095-1.9774-3.2202-1.8691-6.6267-3.3543-10.1867-4.4598-.8259-.2565-1.6978-.3647-2.7206-.5769.2049.6479.3108.9829.4167,1.3179-.5427-.1516-1.1694-.179-1.612-.4784-1.2617-.8537-2.3931-1.9057-3.6778-2.7184-1.904-1.2047-3.9125-2.2135-6.2978-1.8583-.0573-.0591-.1146-.1181-.1719-.177.0669.0499.1337.0998.2005.1496,2.3187,2.7077,4.6005,5.4484,6.9744,8.1068.9471,1.0606,2.1534,1.8974,2.5198,3.3808-.3261.0343-.6522.0687-.9777.1034-.9106-.7467-1.8218-1.4939-2.733-2.241-2.3851-2.8181-4.9198-5.5252-7.1153-8.484-2.4207-3.2625-5.3902-4.9687-9.4859-4.5164-.1131-.0967-.2256-.1941-.3381-.2915.0905.1196.1809.2392.2714.3588.0133.4764.0265.9527.0397,1.4291-.7153-.588-1.5319-1.0888-2.1268-1.7804-1.7401-2.0231-3.8553-2.9698-6.523-2.5998-.1144-.0991-.2283-.1987-.3422-.2984.0946.119.1893.238.2839.357-.1169.3785-.2338.757-.3854,1.2482q-4.1178-3.7568-8.1065-3.2821c.2043,1.8687.4087,3.7378.6131,5.6068-.2446.017-.4892.034-.7338.0509-.5633-1.546-1.1688-3.0781-1.6803-4.641-.8527-2.6052-2.1306-4.9386-4.1233-6.8497l-.023-.2729ZM220.3544,57.0851c.0858-.0217.1715-.0435.2573-.0652-.0215-.0693-.0391-.1955-.0654-.1973-.084-.0059-.1712.0343-.2572.0568.0217.0686.0435.1372.0652.2058Z"/>
  <path class="cls-7" d="M52.1017,61.6629c-.2809.5093-.5618,1.0186-.9529,1.7277-.8793-.7081.0375-2.8751-2.0845-2.2898-.0333.714-.0693,1.4863-.1009,2.1636-1.0015.7148-1.9381.4895-2.8677.3283.0057-1.3264.0098-2.6543.0139-3.9822.3062-.2484.6124-.4968.9188-.7461,1.6385-.3782,2.0786-1.9131,2.7896-3.0839,1.2894-2.1229,2.3636-4.3765,3.3888-6.3133-.8978-2.8582-1.7172-5.4667-2.5365-8.0752.0555-.7367.111-1.4734.1944-2.5813.5398,1.1255.8824,1.8395,1.2249,2.5535.4579,1.3501.8614,2.722,1.3894,4.044.4916,1.2306,1.6678,1.3512,2.524.3077,1.504-1.8329,2.9882-3.6822,4.4462-5.4821-.3552-2.533-.7014-5.0015-1.0476-7.4699.1061-.4942.2122-.9884.3183-1.4826.4336-.2812.8784-.7847,1.2548.0637.0388.666.0624,1.3333.12,1.9976.0868,1.0017.1974,2.0013.2978,3.0018.0224.2296.0449.4591.0673.6887.154.5488.1432,1.2243,1.1432,1.2787,2.3685-1.6811,3.8907-4.1798,5.3275-6.4325-.7871-2.293-1.4782-4.3065-2.1693-6.3199.0473-.7562.1921-1.4354,1.1584-1.4664.4672,1.577.8768,3.1741,1.4241,4.7224.2686.7598.7139,1.516,1.7077,1.5814.4543-.0628,1.0445.0347,1.3396-.2157,1.3427-1.1396,2.6975-2.2893,3.5836-3.6299-.7693-2.1831-1.4349-4.1912-2.2109-6.1557-.1292-.3272-.739-.4645-1.1267-.6895-.0038-.2431-.0076-.4862-.0115-.7293.3882-.2849.7763-.5699,1.1651-.855.3271.3122.6537.6246.9803.9371.4381,1.4623.7105,3.0035,1.3587,4.3658.7091,1.49,2.0389,1.7204,3.2253.6819,1.8369-1.6081,4.0055-2.9498,4.802-5.4863.1346-.4289.3835-.8218.5415-1.1519-.4536-1.0191-.8396-1.8864-1.2257-2.7536v-2.0727c.6376.9255,1.0131,1.4706,1.3889,2.0158.3659.5223.8087.6799,1.4103.368.4893-.2537,1.0092-.4483,1.5156-.6691q1.356-.0434,1.6851,1.3475c.0259.1096.0616.217.0927.3254-.0129.7191-.0258,1.4383-.0386,2.1574-.6905.2786-.932.8341-.9438,1.5311-2.1907,1.754-3.9215,3.8232-4.553,6.6458.0834.1135.1667.2269.25.3404.4904.0552.9807.1104,1.4711.1656-.0028.2809-.0056.5618-.0083.8427-1.049.164-2.2511.0587-3.1141.5496-1.6476.9373-3.2325,2.0802-4.5896,3.3989-.8658.8413-1.9153,1.7425-2.272,3.2756,3.2697,1.1521,6.4427,2.0416,9.8104,2.0946.0439.2372.0628.4764.0565.7177-1.4179.0879-2.8356.1756-4.2533.2634-1.5138-.3609-3.1092-.5291-4.5219-1.1284-2.0673-.877-3.7635-.2588-5.4211.8357-1.1971.7905-2.3813,1.6272-3.4366,2.5908-.35.3195-.2809,1.0981-.4035,1.6669-.0065.5072-.013,1.0143-.0195,1.5215-.8997.2367-2.0165.2156-2.6592.7572-2.1173,1.7842-4.0564,3.7779-5.631,6.1953.4817.2171.7971.3592,1.1124.5014.2939.1737.5879.3474.8818.5212.4049.0331.8097.0662,1.2146.0993.0075.4645.015.9291.0226,1.3936-1.6181-.2769-3.2361-.5538-4.836-.8276-2.0135,2.7311-3.3988,5.6687-4.8147,8.5848-.1081.2228.1468.6219.2329.939Z"/>
  <path class="cls-7" d="M236.3441,34.8421c-.1007-.6174-.3024-1.1823-1.0107-1.2989-3.2776-.5392-6.5562-1.0731-9.8381-1.5851-3.6273-.5659-7.2586-1.106-10.8815-1.6564q-1.0729-1.4836-3.5293-2.5703c.9561-.0217,1.9123-.0533,2.8688-.0606,1.0763-.0082,2.1571.0666,3.2276-.0102.801-.0574,1.7284.4393,2.3997-.4298q-2.7166-.4556-4.3107-1.969c.7047-.4013,1.4392-.7607,2.1041-1.2207.5541-.3833,1.2089-.7895,1.502-1.351,1.0202-1.9546,1.9024-3.9812,2.8371-5.9804.781-.6954,1.562-1.3908,2.3431-2.0861.3557,1.5657-.4898,2.7402-1.2957,3.9168-.7896,1.1529-1.5348,2.3189-1.9039,3.9071,1.8286.1551,3.1813-.2117,4.1105-1.7186.4344-.7045.8902-1.4166,1.4574-2.0094.2745-.2869.8282-.3067,1.2555-.4474-.0398.6435-.0796,1.2869-.121,1.9559,2.8714-.1649,5.1721-.9175,6.4883-3.5976.3907-.7956,1.1878-1.4921,2.3123-1.2584-.2846.8687-.5692,1.7374-.8994,2.7452,3.0771.2758,5.6151-.2153,7.4009-3.0476.7834-1.2425,1.8255-2.5575,3.6197-2.5928.2812,1.5461-2.1442,1.6192-1.7299,3.383.6533,0,1.4107.1992,1.9954-.0341,2.6662-1.0642,5.5673-1.2519,8.2278-2.4168,1.5918-.697,3.4798-.7175,5.2346-1.0422.485.245.9699.4901,1.4549.7351-.4722.3263-.9443.6527-1.4165.9775-3.4064-.3535-6.2299,1.5918-9.4069,2.292.4818.6904,1.7545.4036,1.6426,1.6416-.277.1486-.5805.3114-.8841.4742-.6986.0568-1.3972.1136-2.0958.1704-2.6949-.0732-5.3899-.1861-8.0848-.1844-.5043.0003-1.0083.4599-1.7508.8246,1.8625.6152,3.9162.1967,4.7948,2.1974-2.7157-.6253-5.25-.173-7.9834,1.2384,1.1443.5335,1.9708.9189,2.797,1.3043.0146.31.0294.6199.0443.9299-.7492-.1118-1.4985-.2237-2.2477-.3355-2.772-.9406-4.453-.7683-7.9754.8175-1.2568.2973-2.5174.5804-3.7647.9135-.1279.0342-.1759.3677-.3503.7667,1.1463.8124,2.468,1.1714,3.8709,1.238,1.7684.0839,3.5404.0926,5.3108.1337.1091.7908.2183,1.5817.36,2.6083,1.4143.0493,2.6916.0939,3.9689.1384.5801.1038,1.1592.2139,1.7406.3102,2.3168.384,4.6344.7637,6.9516,1.145,5.0955,1.9812,10.191,3.9623,15.2848,5.9427.0301.0898.0574.2556.0946.2578.1613.0098.3254-.0281.4885-.0487.4462.0335.8924.0671,1.3387.1005.0501.3331.1002.6664.1502.9997-.9428-.0905-1.946-.0054-2.8167-.3053-2.378-.8189-4.684-1.8442-7.0479-2.7073-4.2844-1.5644-8.5873-3.084-13.2674-2.7713-.1404-.1559-.2555-.3712-.4304-.4457-.1076-.0458-.3067.1237-.4648.1965.0907.0545.1754.1369.2733.1577.2067.0439.4203.0556.6311.0805.4543.7222,1.5878.9744,1.4547,2.1031-2.1763-.4739-4.3527-.9478-6.529-1.4218Z"/>
  <path class="cls-7" d="M86.0185,69.0177c.1372-.4342.2113-.9025.4238-1.2961.5715-1.0588.595-1.0461-.576-1.9788.4118-.5565.8366-1.1045,1.2296-1.6746.3244-.4705.1753-.8608-.2796-1.1608.8167-.924,1.4539.0338,2.1661.2065.3542,1.2899.6927,1.5425,1.4783,1.051.6792-.4249,1.1321-1.2704,2.1182-1.1061.138.6659.2759,1.3319.4487,2.1656.7104-.1731,1.3088-.2137,1.8047-.4603,1.2738-.6335,2.5168-1.3332,3.7444-2.0537,1.2488-.7329,2.5254-1.324,4.0199-1.231,0,0,.1155.1703.1155.1703-.8782.5875-1.8129,1.1085-2.6124,1.7886-.4425.3764-1.3365.6526-.8971,1.6182,1.3001.0988,2.5351.1453,3.7707-.5567,2.2612-1.2847,4.6104-2.4145,6.9228-3.6089.2659-.4263.5317-.8527.7976-1.2791.4296-.0008.8591-.0015,1.2895-.0025.0032.447.0056.8941.0079,1.3412-1.6533.956-3.31,1.9063-4.958,2.8713-.4854.2842-1.0948.5263-.7471,1.2998,2.4101.517,4.6973.233,6.6139-1.0724.6605.4958,1.1034,1.1052,1.5924,1.1449,1.6604.1346,3.3525.2033,5.0003.0151.7147-.0816,1.3509-.8505,2.0228-1.3072.8213-.6044,2.2715-.5885,2.1211-2.1514,1.8648-.186,3.5012.5258,5.1208,1.3033-.8186-.0349-1.6614-.2098-2.4499-.0723-1.2139.2117-2.4251.5912-3.035,2.2371,1.3963,0,2.5622.1016,3.7018-.0279,1.1957-.1359,1.8769-.8804,1.7469-2.1781,1.5638-.3095,2.941.2691,4.3058.9045-.0005,0-.0522.1771-.0522.1771l.0304.182c-1.0864.2644-2.4793-.2296-3.2325,1.4352.8056.0883,1.4834.2424,2.1514.2078.4479-.0232.93-.2456,1.306-.5086.2662-.1862.3805-.5895.5626-.8959.0897-.1562.1081-.3203.0554-.4925.6637.1087,1.3274.2175,1.9898.326-.0032.2955.1181.7443-.0275.8615-.8141.6556-1.7639,1.1729-1.925,2.4156.4228.3704.8549.7489,1.287,1.1274-.3791.1001-.7583.2002-1.1375.2999-.3244.1801-.6486.3605-.9729.541-.7335.1972-1.467.3945-2.2001.5917-.4035-1.9809-1.8091-1.1781-3.001-1.2661.3022.8209.534,1.4507.7659,2.0806-.3164.0975-.6328.195-.9499.2923-.3962-.1107-.7917-.2213-1.1872-.3318-2.8065-2.1251-5.8952-3.1389-9.4249-2.6233,0,.3399-.0413.5294.006.5549,1.863,1.0062,3.7342,1.9974,5.6042,2.9906l.9122,1.3284c-.435.1329-.8699.2658-1.3052.3987-.0994-.7715-.5797-1.1332-1.3141-1.2215-1.0431-.1986-2.0857-.3975-3.1284-.5965-.6616-.3081-1.3232-.6162-1.9849-.9244-.9323-.5071-1.8683-1.0073-2.7961-1.5225-2.5232-1.4012-4.5059-1.5718-7.7287-.6055,1.0543,1.4064,2.5419,2.0903,4.0028,2.8107,1.2886.555,2.5772,1.1101,3.8658,1.6652.5658.5136,1.1317,1.0272,1.6975,1.5408-.5524.5924-1.1791.6544-1.9179.3527-.5332-.2177-1.1101-.3283-1.6671-.4865-.7038-.2452-1.4082-.4907-2.1126-.7361-2.1926-1.4275-4.3282-2.9556-6.6006-4.2421-1.2202-.6908-2.6607-1.0187-4.0316-1.404-.5584-.1569-1.2029-.0442-1.3874.7899.8557.9025,1.73,1.8245,2.6041,2.7465-1.4056.4014-2.4307-.6408-3.6459-.9612-.36-1.389-1.4361-1.7904-2.6877-1.9468-.9954-.1244-1.5167.5354-1.0237,1.5034.4082.8012.5846,1.294-.5178,1.4563-.7776-.9818-1.5552-1.9635-2.3328-2.9452,1.2757-.854.9122-1.9649.6087-3.2039q-1.1583,1.0913-1.0859,3.0643c-.3884.1988-.7768.3977-1.2647.6475.8469,1.793,1.6348,3.4612,2.4228,5.1294-.4068-.0134-.8137-.0267-1.2205-.0401-.8599-1.9013-2.73-3.2446-3.0167-5.4626Z"/>
  <path class="cls-7" d="M329.5789,74.6767c-.0051-.2299-.008-.4599-.0087-.6904,1.9695-.1625,3.9867.3892,6.156-.2304-.3087-.9392-.81-1.4221-1.4101-1.7957-2.3533-1.4652-4.864-2.5431-7.5723-3.1959-1.4835-.3576-3.0917-.325-4.4095-1.2688-.0032-.2226-.0067-.4452-.0104-.6686,2.7977.6066,5.5872,1.2589,8.402,1.7724.4156.0758,1.1111-.3954,1.3924-.8078.3957-.5802-.0271-1.2624-.5679-1.4858-1.2316-.5088-2.2899-1.1177-3.1689-2.1931-.471-.5763-1.4346-.9138-2.2253-1.034-2.3585-.3585-4.7361-.6377-7.1163-.792-2.03-.1316-4.074-.0475-6.1119-.0589-.4797-.209-.9594-.4181-1.4392-.6269,1.9203-1.0947,3.9995-.6848,5.9344-.3133,1.9239.3694,3.7868.3566,5.6913.209.7186.0124,1.441.0768,2.1546.023.7602-.0573,1.6289.4038,2.4345-.4841-1.2329-1.5281-2.744-2.2613-4.6429-2.2512-.9382-1.0211-2.223-1.3393-3.4903-1.4926-2.9203-.3533-5.8573-.5687-8.7875-.84.0046-.1644.0087-.3288.0121-.4939,1.5568-.0275,3.114-.0506,4.6711-.0826.7179-.0148,1.456.0451,2.1453-.1077.3832-.0849.8878-.4918.9657-.8374.0764-.3393-.2131-.9523-.5275-1.1496-.7-.4392-1.588-.5856-2.2721-1.0421-3.2118-2.1429-6.8011-2.7808-10.5625-2.8053-1.4382-.0094-2.8805.0601-4.3139-.0246-2.3184-.137-4.4706.4311-6.6736,1.2346-.0472.6729-.0883,1.2592-.1293,1.8454-2.1764-.9074-4.2613-1.9607-6.0199-3.6374,2.0632-1.364,2.0622-1.3942,3.8346-1.4548,2.3747-.0811,4.7416.0383,7.0919-.6336,1.0991-.3142,2.4426-.2919,3.5434.0297,2.1153.6179,4.2477.4373,6.3727.6216,1.7619.1528,3.4922.6483,5.2441.9474.9242.1578,1.8646.2201,2.7982.3257,3.2525,1.4404,5.6428,4.0134,8.1797,6.3587,2.3715,2.1924,4.3588,4.7173,6.1412,7.4521,3.5403,5.4319,6.751,11.0531,9.9274,16.6927,1.4034,2.4918,2.4335,5.1939,3.633,7.8005-.0562.3384-.1124.6768-.1686,1.0152-1.7268-1.8833-3.1848-3.9146-3.5926-6.5244.0423-1.0558-.3998-1.8049-1.3564-2.2873-.3-.1513-.5185-.4642-.7743-.7033-.323-1.9956-1.5498-2.9077-3.5156-2.9339-.4992-.2384-.9761-.5895-1.5018-.6934-1.441-.2847-2.9025-.4653-4.3559-.6872Z"/>
  <path class="cls-3" d="M88.5654,16.0295c-.0311-.1084-.0667-.2157-.0927-.3254q-.3295-1.3909-1.6863-1.3448c.2675-.3756.4687-.8405.8194-1.1134.6374-.4961.9392-1.0609.7771-1.8573.6373-.2635,1.3153-.5394,1.2225-1.3883-.0589-.5393-.9521-.3632-1.9519.4216-.1743.1368-.3012.3339-.4499.5032-2.8709.7813-3.0866,1.0222-3.342,3.7325-.3755-.5451-.7511-1.0902-1.3886-2.0157,0,.9586,0,1.5156-.0003,2.0719-.1815-.088-.3698-.155-.5654-.2018-.4179-.0481-.9125-.2661-1.2413-.1173-2.453,1.1096-4.6445,2.6152-6.5112,4.5716-.1348.0019-.2627.0327-.3836.0923-.3266-.3124-.6531-.6249-.9803-.9371.7654-.5615,1.4935-1.1862,2.3037-1.6746,5.0169-3.0239,10.0461-6.0275,15.09-9.0061.5696-.3363,1.2565-.4739,2.1122-.7847-.3876,2.6338-.2496,4.9701.0414,7.3446.2739,2.2353.132,4.5479-.0568,6.8073-.2879,3.4487-.4738,6.9507-1.2536,10.3019-.9135,3.9263-2.0065,7.8961-4.7836,11.0714-.3419-.0858-.6839-.1714-1.0259-.257.4837-1.2395,1.3841-2.3266,1.487-3.8941-.7545-.1024-1.4129-.1918-2.0712-.2812.006-.2412-.0129-.4804-.0563-.7174.0639-.1515.1203-.3057.1699-.4624,1.0434-.1436,2.0868-.2872,3.1523-.4339,1.0818-2.7507,2.0771-5.3828,2.3096-8.5811-.8765.277-1.4982.4735-2.1198.6699-1.1157-.1705-2.2315-.341-3.3472-.5115.0028-.2809.0056-.5618.0071-.8424,1.3968-.2388,2.813-.4039,4.1878-.7387,1.2883-.3138,2.0148-1.2583,2.0881-2.5861.0721-1.3061.0516-2.6182.0456-3.9275-.0041-.9068-.6891-1.1496-1.3986-1.3465,1.7504-2.7049,1.8506-3.4715.7665-5.895-1.358.8439-1.1565,2.4851-1.8737,3.6531Z"/>
  <path class="cls-3" d="M111.3103,74.6222c.5574.1584,1.1344.2689,1.6676.4867.7388.3017,1.3655.2397,1.9185-.3528,1.1378-.2831,2.2821-.5409,3.4102-.8567,1.0046-.2813,2.085-.4624,2.6617-1.5114.734.0888,1.2142.4504,1.3137,1.2219-5.951,2.4708-12.1509,3.6121-18.5853,3.3451-4.1909-.1739-8.3824-.4037-12.5628-.7415-4.8521-.3921-9.383-1.8565-13.5769-4.3751-1.9448-1.1679-3.9774-2.1893-5.9702-3.2772,1.0836-.7587,2.2322-1.2937,3.6081-1.0508-.0682.9287.3986,1.5928,1.111,2.0872,1.7418,1.209,3.6479,2.0611,6.0888,2.9093-.32-.9763-.49-1.4948-.66-2.0134.3305-.0589.661-.1177.9915-.1766.4894.6536.9889,1.3,1.4663,1.9623,1.1965,1.6601,2.7237,2.5784,4.8428,2.2011.4068.0134.8137.0267,1.2174.0399q2.2836.9949,4.1333.26c-.842-1.0028-1.6602-1.9773-2.4784-2.9518,1.1023-.1623.9259-.6551.5178-1.4563-.493-.968.0284-1.6277,1.0237-1.5034,1.2516.1564,2.3277.5577,2.6882,1.9483-.4571.5217-.9147,1.042-1.3168,1.4992.372,2.3693,1.9023,3.2917,3.9443,3.6421,1.8509.3176,3.6873.2646,5.4981.0474.0818-1.0164-.5197-1.2453-1.0098-1.5363-1.1177-.6638-2.2502-1.3029-3.3766-1.952.4166-.2109.8332-.4219,1.2499-.6328,1.0784.6694,2.1421,1.3642,3.2399,2.0001.8932.5173,1.8272.964,2.7431,1.4421.9513.073,1.9023.1945,2.8541.2012.597.0042,1.1847-.1794,1.3469-.9058Z"/>
  <path class="cls-3" d="M202.2553,60.2061c.3261-.0343.6522-.0686.9777-.1031-.0006,0-.092.0271-.092.0271.0437.1069.1065.3098.1282.3055.1715-.034.3352-.1075.5012-.1689.1772.0318.3559.0471.536.0458.2289.93.8089,1.357,1.7764,1.298.4648-.0283.9346.0265,1.4022.0437-.0019.317-.0037.634-.0056.951-11.1001-.0282-21.6415-2.4914-31.6395-7.2931-3.4743-1.6686-6.6918-3.7462-9.7109-6.1482-3.2836-2.6124-5.5552-5.958-7.1356-9.7821-.3947-.9551-.3767-2.0807-.5484-3.1282.4341-.7503.8683-1.5004,1.3024-2.2521,0-.0015.0229.2714.023.2707-.4962,4.6588,1.7491,8.2083,4.6648,11.4777.3287.3686.7531.5944,1.1388.0137.2446-.017.4892-.034.7338-.0509l-.0317-.0161c-.0133,1.0125.3699,1.7754,1.3578,2.1577l.2032.0747c-.2503.9837.2899,1.5924,1.04,2.0395,2.0297,1.2096,4.1549,2.2747,6.1021,3.6027,2.4845,1.6943,5.3316,2.5223,8.0329,3.6982.2671.1163.6582-.0527,1.1274-.1041-.1508-.5259-.2772-.9665-.4038-1.4067.1711-.1778.3426-.3559.514-.5341.5636.4332,1.2695.7648,1.6645,1.3184,1.2573,1.7619,3.046,2.5041,5.0448,2.9461.9274.2051,1.8385.4972,2.7732.6507.3965.0651.8348-.1243,1.5137-.2438-.8015-1.795-2.1712-2.7963-3.1711-4.0739-.4951-.6327-.8676-1.3613-1.2955-2.0465.6257.264,1.3821.3864,1.8515.8198,1.2021,1.1099,2.2764,2.3582,3.4018,3.5511.4347.3877,1.0211.6948,1.2776,1.1773,1.0848,2.041,2.92,2.019,4.8502,2.0904.0409-.5213.0679-.8649.0949-1.2084Z"/>
  <path class="cls-3" d="M265.8827,43.6726c.5315-.2689,1.0629-.5378,1.5939-.8069.1325.8088.1164,1.6802.4247,2.4156,1.1872,2.832,2.4782,5.6205,3.7305,8.4252.2742.3453.5484.6907.8226,1.036,0,0-.0278.2993-.0278.2994.2519.2745.5037.5489.7556.8233,0,0-.0073.0146-.0073.0146.0024.12-.0334.2577.0128.3574,1.9236,4.1501,4.888,7.6186,7.4645,11.3406.0366.0529.4031-.1227.6157-.1916.7865-.5372.5538-1.3722.6193-2.1204.4379,1.1546.8758,2.3095,1.3138,3.4645-.1719.4134-.5687.8953-.4681,1.2258.2001.6578.5877,1.3083,1.048,1.8291,3.4604,3.9151,7.3386,7.3648,11.6987,10.2532.1811.12.5895-.1032.892-.1666.8447.6155.5574,1.4922.5325,2.3085-3.2535-1.3846-5.8312-3.7482-8.5306-5.9267-3.6819-2.9715-6.5573-6.6886-9.2979-10.4853-3.2332-4.4793-6.2887-9.0872-9.4124-13.6453-.2702-.3943-.5458-.8092-.6984-1.2558-1.0453-3.0586-2.0584-6.1283-3.0819-9.1944Z"/>
  <path class="cls-2" d="M224.0562,14.6236c-.781.6954-1.5621,1.3908-2.3422,2.087-1.3365.0594-1.3502-1.6345-2.5945-1.8826-1.1382.1024-2.0792.7904-3.0093,1.5799-.5193.4408-1.2061.6841-1.8174,1.0163.019-.6653-.083-1.3629.0837-1.9889.2949-1.1077-.2626-1.4187-1.165-1.5429,4.3785-3.8776,9.2303-6.8554,15.0812-7.9357.0793,1.3622.0903,1.3746,1.5287,1.4017.0837.9878-.5374,1.4795-1.3247,1.8117-.8812.3718-1.6861.7933-1.8878,1.8471-1.457.0232-1.7714,1.0055-1.8408,2.1936l.0198-.0273c-.6932.2629-.8709.7875-.7442,1.4666,0,0,.0125-.0264.0125-.0264Z"/>
  <path class="cls-10" d="M242.8731,36.2639c.1331-1.1287-1.0004-1.3809-1.4547-2.1031l-.0091.011c4.6802-.3127,8.9831,1.2069,13.2674,2.7713,2.3638.8631,4.6699,1.8885,7.0479,2.7073.8707.2998,1.874.2147,2.8167.3053l-.0176-.0153c.1503.7049.6935.7913,1.2783.8123-.0052.9618-.0105,1.9236-.0164,2.8846-.2348-.0355-.5028-.0079-.6981-.1141-5.0576-2.7513-10.6213-3.9328-16.1371-5.2925-2.0621-.5083-4.0536-1.3027-6.0773-1.9667Z"/>
  <path class="cls-3" d="M141.1755,13.2227c-.3175-.4541-.6293-.5054-.9681-.0109-.1824.2662-.4029.5064-.6065.7583-.1537-.3632-.307-.7263-.5459-1.2923-1.9721,1.7598-3.7165,3.3165-5.4609,4.8733-.4614-.0223-.9228-.0446-1.3842-.067.5434-.78.9634-1.6966,1.6508-2.317,3.6374-3.2826,7.3867-6.5074,11.753-8.7237,3.2156-1.6322,6.3924-3.2199,9.1469-5.5649.5643-.4804,1.1661-.8501,1.953-.542-1.2944,1.1688-2.5086,2.4463-3.9032,3.4806-2.1497,1.5944-3.1381,3.6825-3.2,6.2905-.2272-.3168-.4582-.631-.6805-.9512-.2278-.3281-.4472-.662-.6706-.9933-.3897-.1836-.9229-.632-1.1464-.5105-2.4542,1.3337-5.0117,2.5965-5.9374,5.57Z"/>
  <path class="cls-2" d="M203.9264,24.7379c2.0233-2.5685,4.0137-5.1642,6.0917-7.6877.567-.6885,1.398-1.1597,2.108-1.731.6579.9859,1.0373,1.8922.6272,3.2254-.7009,2.2788-.7096,4.6164,1.0738,6.571l.0153.1893c-.3293.6061-.875.7109-1.491.6328-1.2716-.1613-2.6284-.6881-3.7923-.408-1.5874.382-2.5682-.9208-3.9343-.8682-.2334.009-.4656.0501-.6984.0764Z"/>
  <path class="cls-10" d="M310.6505,45.7095c-.6044.7575-1.4989.8094-2.257.5907-3.4601-.998-6.9917-.4567-10.4895-.6187-.0352-.9818-.2183-1.8398-1.2273-2.3676-1.0285-.538-1.9833-1.217-2.9704-1.8343.9965-.0078,2.0463.1812,2.794-.7542,5.0517.7143,9.8962,2.0107,14.1502,4.9841Z"/>
  <path class="cls-3" d="M229.7594,5.7708c3.0811-1.0546,6.2724-1.1421,9.4707-.9834,5.8416.2898,11.5528,1.2265,16.9125,3.7279-.0902.122-.1829.2409-.2789.3573-1.6986-.0262-3.3971-.0525-5.095-.078-.2051-.399-.3077-1.0023-.6326-1.1671-3.4362-1.743-5.2711-1.349-7.967,1.6117-.0777.0854-.1288.1951-.1923.2934-.909.7413-1.8181,1.4827-2.7271,2.224-.2222-1.9975,1.2091-2.9985,2.4821-4.081.4501-.3827,1.0281-.6608.6665-1.4093-2.2743-.9746-4.1684.149-6.0919,1.1071-.1179-.5627-.1518-1.2749-.8832-1.3246-1.8502-.1257-3.7557-.4819-5.4097.7896-.0847-.3559-.1694-.7117-.2542-1.0676Z"/>
  <path class="cls-3" d="M130.7857,18.9738c.4918.3603,1.5549.4038.805,1.4526-2.2664,1.2596-3.5129,3.4397-4.8678,5.5009-.137.2085.2725.7764.4283,1.1775.003,1.1478.006,2.2956.009,3.4434-.3254-.7736-.6508-1.5473-1.1068-2.631-.1555.8807-.2528,1.4322-.3497,1.9835-.3059-.1337-.6122-.2672-1.0301-.4494-.4799,1.1481-1.0483,2.1915-1.3542,3.3069-.5937,2.165-.9584,4.3748-.3738,6.6209-.7547.1696-1.5093.3391-2.2638.5085.1583-1.181.3409-2.359.4706-3.5429.7824-7.14,4.4483-12.6757,9.6333-17.3709Z"/>
  <path class="cls-4" d="M247.1845,32.7036c-2.3173-.3813-4.6348-.761-6.9516-1.145-.5814-.0963-1.1604-.2065-1.74-.3101-.2315-.4973-.4637-.9947-.751-1.6105,2.9569-1.406,5.7792-2.4394,8.8507-2.6807.8487.3949,1.6973.7898,2.7735,1.2907-.2792.6663-.3803,1.4236-.8124,1.8182-.6552.5984-1.5405.9448-2.3496,1.4107.4051.5069.6928.8668.9804,1.2267Z"/>
  <path class="cls-9" d="M47.0284,58.8654c-.3062.2484-.6124.4968-.9173.7442-1.5214-.4758-1.9758-1.8868-2.7016-3.0671-.4526-.736-.7812-1.6419-2.0767-1.8114-.0401.839-.0719,1.5023-.1036,2.1657-.5232.579-1.286,1.0748-1.5217,1.7536-.5651,1.627-1.0133,3.3284-.5036,5.0895-1.4009.1574-2.683,1.21-4.1927.5551.7375-.33,1.4763-.6589,2.1527-.9601,1.1006-3.1474,2.2004-6.2473,3.2604-9.3608.2235-.6565.3462-1.357.4336-2.0476.0968-.7648.7435-.8163,1.2343-1.0843.1579.0539.3133.0474.4678-.0197.0434.4917.0852.9838.1271,1.4759.1667.234.3333.468.4999.702.0973.236.1947.472.2919.7079,1.1832,1.719,2.3664,3.438,3.5496,5.157Z"/>
  <path class="cls-3" d="M152.9516,19.8314c-.3924-.1029-.7848-.2058-1.1774-.3075.8976-1.5094,1.8332-3,2.6519-4.5523.1215-.2304-.308-.7516-.4826-1.1383.2547-.4492.5094-.8985.764-1.3477,1.1563-.3683,1.5056-1.4123,1.8241-2.378.3801-1.1527.5659-2.3695.8729-3.7217-.5188.1612-.8309.2582-1.1431.3552-.0463-.5246-.0927-1.0492-.1392-1.5735-.0002.0002-.0043.0768-.0043.0768.2461-.2469.4922-.4938.7383-.7406l-.023.0146c1.6368-.9871,1.6804-1.1512.6364-2.3985.0897-.5596.1793-1.1192.2689-1.6788.4247-.122.8494-.244,1.536-.4412.2126,1.8715.301,3.4825-.0839,5.116-1.2401,5.2625-2.8883,10.3493-6.2391,14.7154Z"/>
  <path class="cls-3" d="M135.1723,68.753c-.4321-.3785-.8642-.757-1.287-1.1274.1611-1.2427,1.1108-1.76,1.925-2.4156.1456-.1172.0243-.566.0275-.8615.2304-.0444.4781-.1695.6857-.1215,2.8337.6549,5.6619,1.3337,8.5103,2.4064-1.1123.1951-2.2397.3293-3.3323.603-1.0294.2578-2.0035.7426-3.0357.9814-1.1445.2648-2.3273.364-3.4934.5353Z"/>
  <path class="cls-3" d="M221.903,54.9185c-.0174-.3622-.0347-.7243-.052-1.0874.2871-.0654.574-.1299.8609-.1944.7926,0,1.5852,0,2.8069,0-.6781-1.1107-1.0833-1.9113-1.6175-2.6137-.625-.8218-1.3624-1.5579-2.0511-2.3312.1588-.1505.3108-.3077.4559-.4715.8264.6676,1.8472,1.1952,2.4462,2.0267,2.8046,3.8929,5.3741,7.9384,7.1471,12.4302.1689.428.2168.9039.3515,1.4913-1.1948.6476-2.0281-.7337-3.0575-.4682.1985-.697,1.0796-1.3946-.0022-2.0907-.0382-.246-.0759-.4919-.1132-.7377.5517-.1059.9254-.5527.6276-.9597-.5378-.7351-1.2846-1.3172-1.9442-1.9632-.1866-1.8746-1.6526-2.3761-3.1123-2.7605-.8783-.2313-1.8285-.1892-2.7464-.2699Z"/>
  <path class="cls-8" d="M263.1412,16.0995c-3.4563,3.7084-7.3261,6.8649-11.9335,9.0655-1.4142.6754-2.8086,1.342-4.4239,1.3085-.1064-.0865-.1945-.1875-.2658-.3031.9111-.4946,1.803-1.0305,2.7401-1.4696.6383-.2991.7684-.8212.8654-1.4063,2.4248.0642,4.1068-1.2362,5.6049-2.8226-.248-.6222-.4201-1.0539-.5921-1.4856,1.783.3184,3.2887-.2687,4.6238-1.4152.7264-.6239,1.419-1.2955,2.1953-1.8495.4333-.3092.9019-.1049,1.1858.378Z"/>
  <path class="cls-3" d="M110.6938,59.6118c-.2658.4264-.5317.8527-.7976,1.2792-.6423-1.0163-1.6011-.8009-2.4993-.5717-1.5724.4013-3.1243.8826-4.6848,1.3304,0,0-.1155-.1703-.1132-.1664-.0763-.3389-.1548-.6818-.2685-1.1777-3.4062-.4608-6.4353.2487-8.9111,2.8164-.269-.2383-.538-.4765-.807-.7148-.6765-1.2736-1.7646-.71-2.7475-.6157-.0238-.4924-.0477-.9849-.0704-1.4761.3197.0325.6383.0637.9566.095.4777.3457.8216.1177,1.1295-.2641l-.0839.0468c1.6006-.0079,3.2749.2228,4.3893-1.3575,2.7989.9039,5.6575.5685,8.4967.3503,2.036-.1565,4.0412-.2013,6.0111.4258Z"/>
  <path class="cls-3" d="M66.919,24.0929c-.9655.0311-1.1103.7103-1.1571,1.4661-.5321.1752-1.1183.2611-1.588.5419-1.9715,1.1786-2.408,3.3257-3.1991,5.244-.3763-.8484-.8212-.3448-1.2548-.0636-.8676.0698-1.2998.492-1.1325,1.3994l-.0165.0158c-.7726-.2668-1.2823.1757-1.7957.6467-.8297.7612-1.6746,1.5058-2.5131,2.2574-.0912-.1134-.1824-.2268-.2739-.34.6209-.8638,1.1736-1.7878,1.874-2.5813,3.6286-4.111,7.7508-7.6935,12.0421-11.0873.3646-.2883.8111-.4729,1.22-.7052.1114.0913.2206.1841.328.279-.8445.9756-1.6889,1.9513-2.5334,2.9269Z"/>
  <path class="cls-2" d="M263.1412,16.0995c-.2839-.4828-.7525-.6872-1.1858-.378-.7763.554-1.4689,1.2257-2.1953,1.8495-1.3351,1.1465-2.8408,1.7336-4.6238,1.4152l.0104.0077c-.1825-.5367-.365-1.0734-.5931-1.7441,1.4473-.4319,2.6832-.8288,3.9352-1.1657,1.0529-.2834,1.6437-.9214,1.7583-2.0033.4722-.3263.9443-.6527,1.4158-.9783,1.1621-.2248,2.3179-.5037,3.4901-.6574.82-.1075,1.3258.4038,1.5742,1.1676-.8309,1.3546-2.3001,1.7883-3.5859,2.4868Z"/>
  <path class="cls-3" d="M42.5582,50.8229c-.1529.0667-.3084.0732-.4663.0193,1.4457-3.4743,3.8492-6.3137,6.1121-9.2486.7175-.9306,1.7115-1.6945,1.7961-3.0286.0185-.2912.291-.639.5449-.8301,1.1289-.85,2.2935-1.6525,3.4442-2.4732.0904.1123.1817.2256.2728.339-.5148.7829-1.0352,1.5623-1.5431,2.3497-.5267.8165-.8489,1.6844-.6078,2.6776-.0072.2454-.0144.4908-.0215.7361-.3425-.714-.6851-1.4281-1.2249-2.5535-.0834,1.1079-.1389,1.8446-.1944,2.5813-.2639.141-.5279.2821-.7918.4231-2.0655,1.8362-3.5577,4.1243-5.012,6.4332-.6292.9988-1.0567,2.1467-2.3083,2.5746Z"/>
  <path class="cls-2" d="M157.7386.4412c-.0897.5596-.1793,1.1192-.2689,1.6804-.5409.7126-.9522,1.4582-.6364,2.397,0,0,.023-.0146.0229-.0146-.2461.2469-.4922.4938-.7382.7406,0,0,.0041-.0765.0043-.0768-1.435-.1024-2.5144.331-3.0993,1.7883-.3025.7537-.7925,1.4516-1.2942,2.1003-.5144.6651-1.1784,1.1737-2.1179,1.0531.0613-2.6098,1.0497-4.6979,3.1994-6.2923,1.3946-1.0343,2.6087-2.3119,3.9032-3.4806.3413.0348.6832.0697,1.0251.1047Z"/>
  <path class="cls-3" d="M266.7271,13.6127c-.2484-.7639-.7542-1.2752-1.5742-1.1676-1.1722.1537-2.328.4327-3.4901.6574-.4842-.2457-.9692-.4908-1.4548-.735.2996-.3177.5997-.6363,1.038-1.1015-2.0482-.4961-3.9611-.9309-5.3823-2.3935.0959-.1164.1887-.2352.2789-.3573,2.6526.7051,5.2744,1.5767,7.9658,2.0663,2.3225.4225,4.7241.4103,7.4857.6203-.5425.4863-.8084.8716-1.1718,1.0236-1.2129.5075-2.4608.9314-3.6952,1.3873Z"/>
  <path class="cls-11" d="M203.9264,24.7379c.2328-.0263.465-.0674.6984-.0764,1.3661-.0526,2.3469,1.2503,3.9343.8682,1.1638-.2801,2.5207.2467,3.7923.408.616.0781,1.1618-.0266,1.4918-.6322.4759-.0147.9511-.03,1.4262-.0453q1.5945,1.5152,4.3111,1.9708c-.6713.8691-1.5987.3723-2.3997.4298-1.0706.0767-2.1513.002-3.2276.0102-.9564.0073-1.9126.0389-2.8688.0606-1.0283-.6528-2.1605-.7979-3.3573-.7725-1.5189.0322-3.0397-.0108-4.5593-.0404-1.0073-.0196-1.4305-.6381-1.5203-1.5653.3433-.0695.6917-.1203,1.0286-.2131.4217-.1161.8339-.2667,1.2502-.4023Z"/>
  <path class="cls-9" d="M61.5194,52.9668c-.0076-.4645-.0151-.9291-.0225-1.394,1.697.1876,3.3938.3755,5.0906.5638,2.935.1435,5.8584.2282,8.759-.4702.8931-.215,1.8634-.1091,2.7984-.1501.2183.2153.4366.4306.655.6459-.5685.5958-1.1369,1.1916-1.7058,1.7868-.1381-.0788-.2702-.1654-.3968-.2605-.3641-.7443-1.0282-.8688-1.7286-.7294-.8881.1767-1.7566.4528-2.6335.6861-3.6052-.2262-7.2105-.4523-10.8157-.6785Z"/>
  <path class="cls-3" d="M246.5926,26.9574c-3.0715.2414-5.8938,1.2748-8.8507,2.6808.2874.6158.5195,1.1132.751,1.6105-1.2779-.0447-2.5552-.0893-3.9695-.1386-.1417-1.0266-.2508-1.8174-.3601-2.6087,2.5467-.3197,5.0528-.7946,7.5771-1.7639-.4725-.5318-.7771-.8747-1.0818-1.2176,1.9532.2168,3.9063.4337,5.8594.6505.0713.1156.1594.2166.2658.3031-.0256.1762-.0899.3375-.1913.484Z"/>
  <path class="cls-3" d="M189.4405,37.0136c-.0113-.3041-.0226-.6081-.0342-.9099.0545-.3153.1093-.6329.183-1.0606-2.6193-.3331-5.1505-.633-7.6723-.9972-.4256-.0614-.8111-.3998-1.2152-.6103,1.4228-.0341,2.8456-.0682,4.2684-.1024.5913.0207,1.2143.1728,1.7682.0389,2.2128-.535,4.1901.2563,6.1938.9585.5452.6781,1.0904,1.3564,1.6353,2.0351-.0286.232-.0968.4513-.2049.6581-1.6407-.0034-3.2814-.0069-4.9221-.0103Z"/>
  <path class="cls-6" d="M229.192,61.6096c1.0812.6961.2001,1.3937.0016,2.0907-3.5171-.6531-7.0664-.6308-10.6225-.5385-1.0604.0275-2.1241-.0684-3.1863-.1078.0489-.2994.0978-.5988.1474-.897,1.4819-.1775,2.9615-.3699,4.4448-.5287.682-.073,1.4055.0084,1.8266-.7132.5171.0438,1.0334.0868,1.5497.1298,1.2918.9249,2.8558.9781,4.3284,1.2501.446.0824,1.0038-.44,1.5103-.6854Z"/>
  <path class="cls-6" d="M194.5679,36.3654c-.5453-.6783-1.0905-1.3566-1.6357-2.0347,3.679.2924,7.0639,1.7314,10.5585,2.7367.4161.1197.7472.5354,1.118.814-.4833,1.4071-.5857,1.4566-2.3174,1.1196-.1458-.3132-.2191-.8254-.4487-.9093-2.3535-.8598-4.648-2.0126-7.2747-1.7263Z"/>
  <path class="cls-3" d="M78.7999,52.1623c-.2183-.2153-.4366-.4306-.6552-.6459,1.7165-2.2796,3.4349-4.558,5.1485-6.84.3251-.433.3704-.8483-.1427-1.1884-.0126-.372-.0253-.744-.0379-1.116.4941-.0772.9881-.1544,1.4821-.2316-.0445.6026.0748,1.1219.7035,1.3818-.0036.233.0828.5237-.0241.6906-1.8549,2.8951-3.9522,5.5963-6.4741,7.9496Z"/>
  <path class="cls-9" d="M213.8271,25.1156c-1.7834-1.9546-1.7747-4.2922-1.0738-6.571.41-1.3331.0307-2.2395-.6272-3.2253.3616-.4754.7233-.9511,1.0852-1.4268.9025.1241,1.46.4351,1.1651,1.5428-.1666.626-.0647,1.3236-.0851,1.9897-.3938,1.9753-.4046,3.9441.1614,5.887.2273.7801.035,1.3592-.6256,1.8037Z"/>
  <path class="cls-3" d="M145.4515,29.922c-.3015-.5519-.603-1.1038-.9044-1.6548,1.7202-2.0912,3.8167-3.881,5.085-6.3357.5616.0774,1.1232.1547,1.685.2324-1.2047,1.5767-2.2797,3.2806-3.6597,4.6848-.9226.9388-1.4936,2.0354-2.2059,3.0733Z"/>
  <path class="cls-2" d="M123.6366,61.7507c.1505,1.5629-1.2998,1.547-2.1209,2.1508-1.4869-.5119-2.9738-1.0231-4.4608-1.5344.06-.2244.1113-.4507.154-.679.9569-.2669,1.9137-.5337,2.8706-.8006,0,0-.0618-.0334-.0615-.0336.0612.0982.1294.2836.1815.2791.1887-.0161.3719-.0959.5571-.1517,1.0535-.0936,2.127-.2621,2.8801.7693Z"/>
  <path class="cls-9" d="M213.9733,42.0969c.7449.4383,1.4899.8766,2.2349,1.315-.0306.334-.0612.6679-.0919,1.0017-.4505.0119-.9009.0238-1.3514.0358-2.8885-.5728-5.8054-.744-8.7419-.6229-.2401-.3075-.4815-.6134-.723-.9194,0,0-.0125-.2875-.0125-.2875.9567.0003,1.9134.0005,2.8701.0008,1.2451.0811,2.4923.2381,3.7345.206.4974-.0128.9841-.4419,1.4757-.6815.2067.045.4086.0289.6056-.0481Z"/>
  <path class="cls-3" d="M29.0118,74.4903c.3123-.1566.6212-.4407.9375-.4491,2.1387-.0569,4.2794-.086,6.418-.0468.4244.0078.8427.35,1.2638.538-2.8757.5139-5.751.9515-8.6193-.0421Z"/>
  <path class="cls-9" d="M73.0532,59.487c-1.0171,1.3247-1.9768.2638-2.9538-.0709,1.8151-1.651,3.6233-3.3098,5.4512-4.9465.3415-.3058.7624-.5229,1.1466-.781.1266.095.2587.1817.3967.2605-.67,1.694-2.2649,2.5577-3.4188,3.8174-.4403.4807-1.1184.8934-.622,1.7204Z"/>
  <path class="cls-3" d="M216.1164,44.4137c.0307-.3339.0613-.6678.0918-1.0018,2.1505,1.454,4.4637,2.7019,6.0973,4.8102-.1445.1619-.2964.3191-.4549.4691-.4834-.0057-.9671-.011-1.4508-.0162-.264-.2531-.528-.5063-.7907-.7597-.392-.5141-.7313-1.0838-1.191-1.5288-.7247-.7016-1.5304-1.3194-2.3017-1.9727Z"/>
  <path class="cls-3" d="M120.0794,60.8875c-.9569.2669-1.9137.5337-2.8707.8-.332-.0003-.6638,0-.9957.0003-.4696-.2758-.9187-.7319-1.4134-.7886-.9221-.1056-1.8708.0212-2.8083.0513-.0024-.4471-.0048-.8943-.0079-1.3412.5681-.0575,1.2243-.3272,1.69-.135,1.7224.711,3.333.938,5.1294.1019.7956-.3703,1.1302.5812,1.2767,1.3113Z"/>
  <path class="cls-6" d="M207.4794,62.6053c.0019-.317.0038-.634.0051-.9511.9302-.001,1.861.0008,2.7917-.0036.6186-.0029,1.1382-.1802,1.3774-.8226.2906.035.5812.0701.8718.1051,0,0-.0316-.0409-.0316-.0409.2763.6884.5527,1.3767.829,2.0651-1.9764.3569-3.9366.4443-5.8435-.352Z"/>
  <path class="cls-3" d="M213.9733,42.0969c-.197.0771-.3989.0931-.607.0478-.7771-.2467-1.5529-.4932-2.3286-.7396-.9923-.5431-1.9846-1.0862-2.9769-1.6293-.0059-.1705.0147-.3376.0614-.5017,2.2597.2988,4.2193,1.221,5.8511,2.8227Z"/>
  <path class="cls-10" d="M184.9702,33.3333c-1.4228.0341-2.8456.0682-4.2684.1024,0,0,.0329.019.0328.019-.4515-.4534-.9029-.9067-1.3542-1.3601,0,0-.0054-.0716-.0054-.0716.4527-.0231.9055-.0461,1.3582-.069.4614-.0174.9229-.0349,1.3843-.0525.7006.0566,1.4012.1131,2.0996.17.2496.4208.5014.8414.7532,1.2619Z"/>
  <path class="cls-3" d="M41.9705,74.0882c.0591-.0991.1098-.2785.1783-.2856,1.7648-.1832,3.5135-1.0043,5.3078-.156-1.7805.745-3.5761,1.3054-5.4861.4415Z"/>
  <path class="cls-4" d="M96.186,58.8356c-1.1144,1.5803-2.7888,1.3496-4.3893,1.3575,1.2484-1.1314,2.6777-1.9102,4.343-2.2282.0153.2903.0308.5805.0463.8707Z"/>
  <path class="cls-3" d="M52.0906,72.5667c1.2944-.9876,2.6273-1.7995,4.3246-.9473-1.413.4463-2.7353,1.3064-4.3246.9473Z"/>
  <path class="cls-6" d="M139.7997,32.2665c1.0456-.3779,2.0912-.7558,3.1366-1.1336.1004.4853.2011.9706.3019,1.4558-.6375.2267-1.2645.4924-1.9154.6704-.84.2297-1.2449-.2981-1.5122-.9918-.0004,0-.0108-.0007-.0108-.0007Z"/>
  <path class="cls-3" d="M126.4896,70.9605c.3955.1105.7909.221,1.1872.3318-1.1637,1.0631-2.5408,1.6726-4.089,1.9188-.3047-.4427-.6088-.8855-.9108-1.3282,1.337-.0401,2.6698-.0885,3.8126-.9224Z"/>
  <path class="cls-11" d="M199.5824,25.2916c-.0883,1.0657-.5857,1.6637-1.7366,1.6067-.8728-.0433-1.0077-.3634-.6174-1.6263.7847.0066,1.5693.0131,2.354.0196Z"/>
  <path class="cls-3" d="M128.6268,71c-.2319-.6299-.4637-1.2597-.7659-2.0806,1.1918.0881,2.5975-.7147,3.001,1.2661-.7453.2715-1.4902.543-2.2351.8145Z"/>
  <path class="cls-9" d="M213.3229,62.9573c-.2764-.6884-.5527-1.3768-.8292-2.065.4062.0247.8126.0493,1.2189.074.6063.3965,1.2125.7929,1.8188,1.1894-.0489.2994-.0978.5988-.1467.8982-.6873-.0322-1.3745-.0644-2.0618-.0965Z"/>
  <path class="cls-9" d="M86.0651,55.2334c-.7954,1.5682-2.2351,1.3858-3.6264,1.335,1.0481-.8816,2.2753-1.2766,3.6264-1.335Z"/>
  <path class="cls-3" d="M71.6259,18.9766c.0038.2431.0077.4862.0112.7293-.0396.2557-.0788.5112-.1181.7668-.2218.2129-.4436.4258-.6654.6387l-.0422-.0275c-.453.0273-.906.0547-1.3589.082-.1074-.0949-.2166-.1877-.328-.279.8335-.6371,1.6675-1.2738,2.5015-1.9104Z"/>
  <path class="cls-10" d="M264.5413,39.9556c-.0501-.3333-.1001-.6666-.1502-.9997,1.1207-.5236,1.75.1615,2.3373.9506-.7347.0113-1.4697.0226-2.2047.0338,0,0,.0176.0153.0176.0153Z"/>
  <path class="cls-9" d="M88.8877,54.2997c-.5774,1.1963-1.684.8199-2.6403.8889.8804-.2963,1.7604-.5926,2.6403-.8889Z"/>
  <path class="cls-7" d="M264.5237,39.9404c.735-.0112,1.47-.0225,2.2047-.0338.2286.2493.4573.4987.686.7478-.5364.032-1.0728.0642-1.6107.0973-.5865-.02-1.1297-.1064-1.28-.8113Z"/>
  <path class="cls-3" d="M66.5425,69.6688c.5446-.6519,1.1756-.6856,1.8707-.2609-.5694.4757-1.1762.6832-1.8707.2609Z"/>
  <path class="cls-7" d="M229.7594,5.7708c.0847.3559.1694.7117.2534,1.0672-.1179.172-.1881.3619-.2112.5691l.0199-.0492c-1.4386-.0266-1.4496-.039-1.529-1.4012.4884-.0618.9776-.1238,1.4668-.1859Z"/>
  <path class="cls-3" d="M59.9441,71.0669c.5833-.6872,1.234-.7759,1.9574-.2202-.6036.5088-1.261.5383-1.9574.2202Z"/>
  <path class="cls-9" d="M85.2981,43.522c-.6287-.2598-.7479-.7791-.7031-1.3819.2078-.0731.4154-.1449.6234-.2158.342.0856.684.1712,1.0259.257-.3155.4471-.6309.8939-.9463,1.3407Z"/>
  <path class="cls-3" d="M143.8551,30.592c.5235-.209,1.047-.418,1.5705-.6269-.2942.7838-.9102.7611-1.5705.6269Z"/>
  <path class="cls-9" d="M75.9467,58.7974c-.4134.1243-.8268.2486-1.2417.3718.413-.1247.8273-.2482,1.2417-.3718Z"/>
  <path class="cls-3" d="M157.6753,34.3549c.5453-.2037.6985.0488.6387.5492-.2129-.183-.4258-.3661-.6387-.5492Z"/>
  <path class="cls-3" d="M151.952,21.2789c.2104-.2826.4209-.5651.6313-.8479-.2104.2825-.4209.5652-.6313.8479Z"/>
  <path class="cls-3" d="M151.3766,22.0849c.192-.268.3839-.536.576-.8039-.192.268-.384.5359-.576.8039Z"/>
  <path class="cls-10" d="M263.0524,38.8555c-.1631.0206-.3273.0585-.4885.0487-.0372-.0023-.0645-.1681-.0946-.2578.2524-.0885.4462-.019.5831.2092Z"/>
  <polygon class="cls-3" points="144.268 73.2444 144.2838 73.2442 144.2509 73.012 144.268 73.2444"/>
  <path class="cls-3" d="M141.6098,74.217c-.2364.0797-.4727.1594-.7076.2386.2369-.0798.4722-.1592.7076-.2386Z"/>
  <path class="cls-3" d="M133.0051,64.2764l-.0304-.182s.0517-.1771.0522-.1771c.2744.0355.5483.071.8216.1058.0521.1715.0336.3357-.0561.4917-.2625-.0795-.5249-.159-.7873-.2385Z"/>
  <path class="cls-3" d="M133.0619,69.5939c.3243-.1805.6485-.361.9729-.541-.3242.1806-.6485.3608-.9729.541Z"/>
  <path class="cls-3" d="M120.7565,60.9814c-.1853.0558-.3685.1356-.5571.1517-.052.0044-.1203-.181-.1815-.2792.246.0426.4923.085.7386.1274Z"/>
  <path class="cls-10" d="M149.6322,21.9315c-1.2684,2.4546-3.3648,4.2445-5.085,6.3356-.3034.1932-.5851.5005-.9134.563-2.2238.4232-4.4449.4094-6.5375.0249-.4859-.9087.0004-1.3461.3723-1.7872.3858-.4577.8971-.8209,1.2309-1.3093,1.6308-2.3863,3.7524-3.4674,6.7306-3.1562,1.3625.1424,2.7991-.4253,4.2021-.671Z"/>
  <path class="cls-10" d="M141.1755,13.2227c.9257-2.9735,3.4832-4.2363,5.9374-5.57.2235-.1215.7567.3269,1.1464.5105-.1831.57-.4737,1.1292-.5326,1.7118-.4347,4.3008-3.522,6.5944-6.6423,8.8673-.0617.0449-.2246-.0492-.5065-.1206-.9805-1.874.4654-3.5844.5977-5.3991Z"/>
  <path class="cls-10" d="M133.594,17.5511c1.7444-1.5567,3.4889-3.1134,5.4609-4.8732.2389.566.3922.9291.5459,1.2923-.5196,1.5788-1.0026,3.1526-.8882,4.862.0372.5551-.1465,1.179-.3984,1.6877-.4456.9002-3.3367,3.3914-5.0756,4.4939-.4231-1.549-.1273-3.0684-.2041-4.5574.1438-.4989.2877-.9976.4315-1.4963.0426-.4696.0852-.9392.1279-1.4088Z"/>
  <path class="cls-10" d="M153.9436,13.8334c.1746.3867.6041.9078.4826,1.1383-.8187,1.5523-1.7542,3.0429-2.6519,4.5523-1.2368.4297-2.4848.8318-3.7076,1.2997-1.1542.4417-2.3044.5266-3.7735.1349.3337-.5425.5469-1.0419.8923-1.4209.8837-.9696,1.8303-1.8818,2.7441-2.8244.6723-.6934,1.3992-1.1841,2.3967-1.4338,1.2482-.3125,2.4152-.9493,3.6172-1.4461Z"/>
  <path class="cls-10" d="M139.7997,32.2665s.0105.0006.0108.0007c-1.3228.7933-2.7023,1.5076-3.9539,2.401-1.3849.9886-2.8241,1.7571-4.5189,1.9984-.5939-.4978-.4128-1.044-.1013-1.5794.539-.9262,1.1521-1.8137,1.6324-2.7686.6607-1.3137,1.5977-1.9902,3.1259-1.8538,1.4159.1264,2.8432.1263,4.581.1943-.3242.6715-.5502,1.1394-.7761,1.6073Z"/>
  <path class="cls-11" d="M167.2815,33.0936c-1.6648-.8415-2.785.5802-3.9746,1.0179-1.2908-.238-2.4116-.4447-3.5323-.6512.6689-.9582,1.6683-1.3458,2.757-1.4328,4.73-.3782,9.4416-1.1032,14.2118-.7763.9437.0647,1.9311-.0955,2.6309.7717.0008,0,.0062.0716.0054.0713-.2782-.025-.5557-.0496-.8332-.0743-.2443.2096-.4885.4192-.7328.6288-1.6912.0695-3.3825.139-5.0737.2084-1.8195.0788-3.639.1577-5.4585.2365Z"/>
  <path class="cls-10" d="M127.1602,30.5483c-.003-1.1478-.006-2.2956-.0087-3.4445.899-.0985,1.3417-.743,1.8802-1.3828.7246-.8608,1.0368-2.1392,2.3209-2.4772.7161,3.6564-.1238,6.7787-3.3184,9.1624-1.1087-.0922-.622-1.1852-.8739-1.858Z"/>
  <path class="cls-2" d="M122.9457,39.3791c-.5846-2.2461-.2199-4.4559.3738-6.6209.3059-1.1154.8742-2.1588,1.3542-3.3069.4179.1822.7242.3157,1.0301.4494.046.95.0926,1.8997.139,2.849-.0002-.0005-.0177.3445-.0177.3445l.088.3341c.0075.5812.0017,1.163.0248,1.7436.0978,2.4545.1049,3.3871-2.9921,4.2073Z"/>
  <path class="cls-10" d="M156.2615,6.7413c.3121-.097.6242-.194,1.1431-.3552-.307,1.3522-.4929,2.569-.8729,3.7217-.3185.9657-.6678,2.0097-1.8241,2.378-.6479-.1213-1.2958-.2426-2.3436-.4388.7954-1.0081,1.3244-1.7461,1.9239-2.4215.7823-.8814,1.7349-1.6345,1.9737-2.8841Z"/>
  <path class="cls-2" d="M131.3525,23.2439c-1.2841.338-1.5963,1.6164-2.3209,2.4772-.5385.6398-.9812,1.2843-1.8802,1.3828-.1562-.4001-.5656-.968-.4286-1.1765,1.3549-2.0613,2.6015-4.2413,4.8678-5.5009-.0794.9391-.1588,1.8783-.2381,2.8175Z"/>
  <path class="cls-3" d="M133.4661,18.9599c-.1438.4987-.2877.9974-.4315,1.4963.1439-.4986.2877-.9975.4315-1.4963Z"/>
  <path class="cls-4" d="M91.8806,60.1463c-.3079.3819-.6518.6099-1.1295.2641.3766-.0881.7531-.1761,1.1295-.2641Z"/>
  <path class="cls-11" d="M182.1174,31.9014c-.4614.0175-.9229.0351-1.3843.0525.4364-.6797.896-.7471,1.3843-.0525Z"/>
  <path class="cls-3" d="M125.9129,33.4283l-.088-.3341s.0176-.345.0177-.3445c.0235.2265.0469.4525.0703.6785Z"/>
  <path class="cls-10" d="M61.5194,52.9668c3.6052.2262,7.2105.4523,10.8157.6787-.8834,2.3983-2.5488,3.613-5.1562,3.696-1.2918.0411-2.5973.3732-3.8458.7446-.6278.1868-1.3053.6452-1.6662,1.1796-.4482.6636-.5921,1.5329-.8673,2.3133-2.8927.7047-5.7876,1.1721-8.6977.0839-.0863-.317-.3413-.7161-.2331-.9389,1.4159-2.9161,2.8012-5.8537,4.8147-8.5848,1.5999.2738,3.2179.5507,4.836.8276Z"/>
  <path class="cls-9" d="M66.8688,62.626c-1.3539,1.2605-2.9574,1.4033-4.4136,1.8099-1.256.3507-2.5933.7065-3.8691.6307-3.0958-.1839-5.8415,1.0954-8.7394,1.7378-1.2747.2826-2.5851.552-3.8816.5638-6.4938.0592-12.9883.04-19.4825.0237-.9546-.0024-1.9604.0297-2.8525-.2456-1.7829-.5501-3.5101-.4376-5.3271-.2295-1.5016.172-3.0791-.0242-4.5873-.2733-2.3522-.3885-4.6945-.8839-6.997-1.499-.7118-.1902-1.2802-.9171-2.418-1.7805,2.1533.2352,3.6631.308,5.1364.5793,3.6456.6714,7.3317.9732,10.9981,1.4298,3.8355.4777,7.6399.6324,11.469.5695,2.3572-.0387,4.7075-.3909,7.0656-.5136,2.2767-.1185,4.5593-.127,6.8395-.1763,1.5547-.0337,3.1234.1508,4.6214-.5119.4196-.1856.956-.2379,1.4166-.1785,2.4468.3158,4.7556-.5022,7.1158-.8444,2.239-.3246,4.4437-.8818,6.6707-1.2978.314-.0586.6695.1043,1.2349.2057Z"/>
  <path class="cls-2" d="M60.7996,61.579c.2753-.7804.4191-1.6497.8673-2.3133.3609-.5343,1.0384-.9928,1.6662-1.1796,1.2485-.3714,2.554-.7034,3.8458-.7446,2.6074-.0831,4.2728-1.2978,5.1562-3.696.8769-.2334,1.7454-.5095,2.6335-.6863.7005-.1394,1.3645-.0149,1.7286.7294-.3842.258-.805.4752-1.1465.7809-1.8279,1.6367-3.6361,3.2955-5.4512,4.9465-2.6269,1.1672-5.2994,2.1692-8.225,2.2285-.3577.0073-.7165-.0423-1.0749-.0655Z"/>
  <path class="cls-10" d="M41.229,56.8967c.0318-.6633.0635-1.3266.1036-2.1657,1.2956.1695,1.6242,1.0754,2.0767,1.8114.7258,1.1803,1.1802,2.5914,2.7016,3.0671-.0054,1.3289-.0095,2.6568-.0153,3.9831-1.146.0127-2.2904.0268-3.4346.0417-.1439-.7849-.2671-1.575-.4364-2.355-.3178-1.464-.6623-2.9221-.9958-4.3827Z"/>
  <path class="cls-10" d="M89.0352,74.4803c-2.1192.3774-3.6463-.541-4.8428-2.2011-.4774-.6623-.9769-1.3087-1.4688-1.9623-.3443-.2438-.6862-.4877-1.0281-.7315l.0211.0279c.0566-.2316.0971-.4686.1724-.6939.4055-1.2141,1.1125-1.6607,2.017-1.1982.7334.375,1.4108.8593,2.1128,1.2958.2864,2.2187,2.1565,3.5619,3.0164,5.4633Z"/>
  <path class="cls-2" d="M81.7346,70.4935c.1699.5186.3399,1.0372.66,2.0134-2.4408-.8482-4.3469-1.7003-6.0888-2.9093-.7124-.4944-1.1792-1.1585-1.111-2.0872.3223-.124.6407-.2639.9698-.3704,1.4585-.4718,2.6781-.2194,3.7119,1.0234.4885.5872,1.2191.9729,1.8401,1.4499,0,0-.0211-.0279-.0211-.0279.013.3027.026.6054.0391.908Z"/>
  <path class="cls-2" d="M41.229,56.8967c.3334,1.4606.6779,2.9187.9958,4.3827.1693.78.2926,1.5701.4364,2.355-1.1529.0349-2.3056.0703-3.4579.1056-.5093-1.7613-.0611-3.4627.504-5.0897.2358-.6789.9986-1.1746,1.5217-1.7536Z"/>
  <path class="cls-2" d="M89.8649,61.7915c.9829-.0944,2.071-.658,2.7475.6154,0-.0003-.114.3308-.114.3308l.058.3454.0226-.0244c-.9861-.1642-1.439.6813-2.1182,1.1062-.7857.4915-1.1242.2389-1.4783-1.051.294-.4406.5882-.8815.8824-1.3223Z"/>
  <path class="cls-10" d="M86.8164,62.9073c.4549.3.6039.6903.2796,1.1608-.3929.5701-.8178,1.1181-1.2296,1.6746-.6757.0468-1.3506.0947-2.7306.1928,1.6145-1.2756,2.2404-2.5956,3.6806-3.0282Z"/>
  <path class="cls-9" d="M72.8892,61.1693c.4694-.2457.9251-.5276,1.417-.7138.136-.0515.4774.1394.545.2964.0622.1447-.0763.5374-.1966.5711-.5242.1471-1.074.2032-1.6145.2923-.0503-.1487-.1006-.2974-.1509-.446Z"/>
  <path class="cls-10" d="M307.9083,88.3699c-1.0194-2.8439-1.5271-5.7955-1.5471-8.7975-.0264-3.9672.1123-7.9355.1866-11.9033.009-.4803.0185-.9667.0973-1.4387.3787-2.2667,1.7053-2.9122,3.6171-2.0562,1.7257.7727,3.2593,2.0135,4.7935,3.1604.8771.6557.6975,1.7394.5839,2.692-.1697,1.4238-.4785,2.8333-.6019,4.2598-.3609,4.174.9123,8.0691,2.1499,11.9641-.8088.4372-1.6178.8745-2.5173,1.3608-.6719-.2969-1.3996-.6186-2.1146-.9345-.3485.6165-.6318,1.1177-.9571,1.6932h-3.6905Z"/>
  <path class="cls-10" d="M318.0567,85.409c-.2976-1.4061-.534-2.8287-.9048-4.2152-.9607-3.5922-.6964-7.1309.347-10.6472.0572-.1925.298-.3305.5531-.5987,1.3069.717,2.6628,1.4345,3.9922,2.1983,1.1438.6571,1.6501,1.6833,1.6344,3.0023-.0157,1.3224-.0248,2.6476.0448,3.9673.0419.7951.2396,1.582.3581,2.316.8289.1093,1.0618-.2973,1.0909-.7986.0626-1.0784.0363-2.162.0968-3.2406.0314-.5591.1702-1.1123.2874-1.8338,1.6716.317,2.2956,1.608,3.2786,2.3895,1.5046,1.1962,2.2118,2.6519,2.1454,4.6761-.0453,1.3806.5699,2.7829.8893,4.1756-1.2529.8084-.7549,2.1136-.9091,3.2297-.1474,1.0674-.7116,1.7269-1.7903,1.8753-.5831.0802-1.1756.092-1.7642.134-.3523.2523-.7044.5053-1.0565.7583-.6138-1.6535-1.3154-3.2811-1.8148-4.9685-.4328-1.4624-.6063-3.0001-.971-4.4857-.0614-.2499-.5586-.6083-.7709-.5587-.387.0904-.8506.3767-1.0255.7143-.2011.3881-.1035.9235-.1704,1.3899-.2843,1.9818-.5619,3.9671-1.5866,5.745-.1889-.4202-.4053-.8305-.5617-1.2624-.4765-1.3162-.9299-2.6409-1.3923-3.9622Z"/>
  <path class="cls-2" d="M306.0841,86.9178c-1.0783.5247-2.0558.1318-2.9966-.3701-1.5449-.8242-3.0701-1.6855-4.6037-2.5313-.5127-2.0864-.971-4.1879-1.5494-6.2557-1.1397-4.0748-1.3681-8.2353-1.3136-12.4315,1.1748-.4232,2.5091.1422,3.6495-.9017,1.0492-.9604,1.8364-.7772,2.6866.1889.4549.5169.7292,1.1885,1.1526,1.7383.5587.7256,1.1836,1.4001,1.7801,2.0965.007,1.5025.014,3.0049.0212,4.5093-.3545.3881-.3633.7733.0032,1.1576.0028.8233.0056,1.6467.0086,2.4718-.5289.625-.5318,1.2468.0053,1.8671.0074.8446.0148,1.6891.0223,2.535-.3293.3297-.3592.6505.0245.9609-.1599,1.7734.4949,3.3646,1.1094,4.9649Z"/>
  <path class="cls-10" d="M283.2009,68.7302c-.438-1.1549-.8759-2.3099-1.3138-3.4645-.0112-1.9449-.0225-3.8901-.0336-5.8352,2.2476-.1772,4.4949-.3545,6.9672-.5495.3939.327.9119.8329,1.5061,1.2226.37.2427.9521.5475,1.2725.4167,1.853-.7569,2.3442.4311,2.7704,1.7891-.0909,3.1155-.1351,6.2334-.2859,9.346-.1484,3.0641.9569,5.8805,1.5772,8.7934-3.02-2.4651-5.7952-5.1599-8.1818-8.264-1.1279-1.4669-2.1613-3.1641-4.2783-3.4547Z"/>
  <path class="cls-10" d="M271.6317,53.7065c-1.2523-2.8047-2.5432-5.5932-3.7305-8.4252-.3083-.7354-.2922-1.6068-.4247-2.4156,1.3986.637,2.9609.9478,4.0452,2.2013.2862.3309.8064.6116,1.2378.6407,3.6271.2446,6.4534,2.2748,9.4887,4.0221-.714,3.3399-1.406,6.5767-2.0969,9.8132-2.2165-.0588-4.0743-.714-5.167-2.8632-.3308-.6506-1.0553-.8709-1.8095-.8,0,0,.0073-.0146.0072-.0145-.2519-.2744-.5037-.5489-.7555-.8234,0,0,.0278-.2993.0273-.3012-.2744-.346-.5482-.6901-.8221-1.0342Z"/>
  <path class="cls-7" d="M293.7063,41.4796c.9871.6173,1.9418,1.2963,2.9704,1.8343,1.009.5278,1.1921,1.3859,1.2273,2.3676-3.6176-.0685-7.1549.5216-10.6714,1.3018-3.6219.8036-6.9604-.255-9.9813-2.0347-1.5598-.9188-2.9245-2.0374-4.8055-2.2455-.3523-.039-.6552-.5252-1.3285-1.1038,7.8473-1.3546,15.2104-1.4492,22.589-.1198Z"/>
  <path class="cls-10" d="M294.0977,52.9885c.0411-.5862.0822-1.1725.1293-1.8454,2.2031-.8035,4.3553-1.3716,6.6736-1.2346,1.4334.0847,2.8757.0153,4.3139.0246,3.7614.0246,7.3508.6624,10.5625,2.8053.6841.4565,1.5721.6029,2.2721,1.0421.3144.1972.604.8102.5275,1.1496-.0779.3456-.5825.7525-.9657.8374-.6893.1527-1.4273.0929-2.1453.1077-1.557.0321-3.1142.0552-4.6711.0826-2.9561-.0565-5.9132-.1828-8.8685-.1474-2.0835.0249-3.9667-.3216-5.6352-1.6746-.6282-.5094-1.4564-.7721-2.1934-1.1473Z"/>
  <path class="cls-7" d="M294.3698,62.3095c-.4261-1.358-.9173-2.546-2.7704-1.7891-.3204.1309-.9025-.174-1.2725-.4167-.5942-.3898-1.1122-.8956-1.5061-1.2226-2.4723.1951-4.7197.3724-6.9672.5495.2709-1.6511.4475-3.325.8417-4.946.3441-1.4151,1.0292-2.7022,2.6094-3.5564.522.1833,1.209.3519,1.8299.6556,2.2703,1.1107,4.5363,2.2332,6.7693,3.4166,1.6105.8534,1.9367,1.554,1.5616,3.1952-.3161,1.3825-.7268,2.7434-1.0956,4.1139Z"/>
  <path class="cls-10" d="M310.7827,56.4517c2.9302.2713,5.8672.4867,8.7875.84,1.2673.1533,2.5521.4714,3.4903,1.492.0179.9039.0359,1.8084.0538,2.7128-1.9044.1477-3.7674.1605-5.6913-.209-1.9349-.3715-4.014-.7814-5.9344.3133-1.7427.0993-3.273-.3854-4.729-1.3935-1.5416-1.0674-3.2235-1.9322-4.7796-2.8475.0992-.36.0978-.5112.1726-.582.0746-.0706.2249-.0794.343-.083,2.7623-.0837,5.5247-.163,8.2871-.2431Z"/>
  <path class="cls-10" d="M312.9279,62.2277c2.0378.0113,4.0818-.0728,6.1119.0589,2.3802.1543,4.7578.4335,7.1163.792.7907.1202,1.7543.4577,2.2253,1.034.879,1.0754,1.9373,1.6843,3.1689,2.1931.5407.2234.9635.9056.5679,1.4858-.2812.4124-.9767.8836-1.3924.8078-2.8148-.5135-5.6043-1.1657-8.402-1.7724-1.6272-.2688-3.2627-.4975-4.8782-.8252-.7935-.1609-1.6095-.3987-2.3096-.7907-1.1227-.6286-2.1575-1.4142-3.4983-2.3139.5773-.2995.9337-.4845,1.2901-.6694Z"/>
  <path class="cls-7" d="M304.8896,68.4512c-.5965-.6965-1.2214-1.371-1.7801-2.0965-.4233-.5498-.6977-1.2214-1.1526-1.7383-.8502-.9661-1.6374-1.1493-2.6866-.1889-1.1404,1.0438-2.4747.4785-3.6495.9017.0911-2.0329.6033-3.978,1.4186-5.8214.6329-1.4312,1.5196-1.7745,2.8647-1.1449,1.9237.9004,3.7941,1.9148,5.8568,2.9671-.3035,2.4797-.5875,4.8005-.8715,7.1213Z"/>
  <path class="cls-10" d="M322.3343,67.4955c1.3178.9438,2.926.9112,4.4095,1.2688,2.7082.6528,5.219,1.7307,7.5723,3.1959.6001.3736,1.1014.8566,1.4101,1.7957-2.1692.6196-4.1865.0679-6.156.2304-2.6292-.4947-4.813-1.8265-6.7868-3.5751-.9462-.8383-1.9388-1.6243-3.3106-2.7675,1.3091-.0678,2.0853-.108,2.8615-.1482Z"/>
  <path class="cls-2" d="M283.2009,68.7302c2.117.2906,3.1505,1.9878,4.2783,3.4547,2.3866,3.1041,5.1618,5.7989,8.1818,8.264.2369.4745.4734.9485.7101,1.4227-.3023.0636-.7106.2868-.8917.1668-4.3601-2.8884-8.2383-6.3382-11.6987-10.2532-.4603-.5208-.8479-1.1713-1.048-1.8291-.1005-.3305.2962-.8124.4681-1.2258Z"/>
  <path class="cls-2" d="M273.1749,55.8798c.7542-.0709,1.4788.1494,1.8095.8,1.0927,2.1492,2.9506,2.8044,5.167,2.8632-.0049.4615-.0086.9226-.0112,1.3833-.5998.7395-.5781,1.461.0657,2.1639.3536,1.4319.7073,2.8638,1.0614,4.2958-.2121.0691-.5786.2447-.6152.1918-2.5765-3.722-5.5409-7.1905-7.4645-11.3406-.0462-.0997-.0104-.2374-.0128-.3574Z"/>
  <path class="cls-1" d="M344.6754,88.5062c.0282.3974.0565.7949.0845,1.1935-.4953-.2021-.9904-.4054-1.4856-.6088,0,0,.0167.0156.0166.0156-.2462-.2464-.4924-.4927-.7386-.7391,0,0,.0166.0165.0165.0165-.2461-.2448-.4922-.4895-.7383-.7343,0,0,.0109.0118.0109.0118-.1618-.8099-.6576-1.2874-1.4561-1.4636,0,0,.0187.0141.0187.014-1.0799-1.2461-2.1508-2.5-3.2429-3.7353-.6871-.7772-1.4059-1.5265-2.3225-2.5176,2.7189-.4267,4.3797,1.1048,6.2444,2.0216.4074,2.611,1.8654,4.6423,3.5922,6.5256Z"/>
  <path class="cls-10" d="M329.5789,74.6767c1.4534.2218,2.9149.4025,4.3559.6872.5257.1038,1.0026.455,1.5008.6933.1878.8354.3765,1.6708.5653,2.5062-.4261-.0141-.8522-.0282-1.2783-.0423-1.6606-.2014-2.9744-1.1244-4.2656-2.0777-.5787-.4273-.9251-1.009-.8781-1.7667Z"/>
  <path class="cls-1" d="M336.0009,78.5634c-.1888-.8354-.3775-1.6709-.5653-2.5062,1.9667.0262,3.1935.9383,3.5166,2.9339-.9682-.0213-1.9364-.0428-2.9041-.0638-.0036-.1226-.0195-.244-.0472-.3639Z"/>
  <path class="cls-10" d="M280.206,63.0902c-.6438-.7029-.6655-1.4243-.0657-2.1639.0211.7216.0434,1.4427.0657,2.1639Z"/>
  <path class="cls-7" d="M336.0009,78.5634c.0277.1199.0437.2414.0472.3639-.4431-.1368-.8856-.2731-1.3268-.4079.4274.0157.8535.0298,1.2796.0439Z"/>
  <path class="cls-7" d="M304.9279,78.457c-.5371-.6203-.5342-1.2421-.0053-1.8671.0016.6212.0035,1.2441.0053,1.8671Z"/>
  <path class="cls-7" d="M304.9747,81.9528c-.3837-.3103-.3539-.6311-.0245-.9609.008.3194.0163.6401.0245.9609Z"/>
  <path class="cls-7" d="M304.914,74.1181c-.3665-.3843-.3577-.7695-.0032-1.1576.001.3846.0021.7711.0032,1.1576Z"/>
  <path class="cls-10" d="M166.3077,45.7128c-.2044-1.869-.4088-3.7381-.6131-5.6068q3.9887-.4748,8.1065,3.2821c.1517-.4912.2686-.8697.3854-1.2482l.0588-.0592c2.6673-.3694,4.7825.5773,6.5226,2.6004.5948.6916,1.4115,1.1924,2.1268,1.7804,0,0-.0233-.0233-.0233-.0233.2505.2505.501.501.7514.7516,0,0-.0297-.0262-.0297-.0262.7613.9345,1.5226,1.8689,2.2838,2.8034q-2.7098.1583-3.094,2.2839c-.2144-.0461-.4288-.0463-.6433-.0007l.0087.007q-.1768-1.3372-1.4561-1.4588s.0241.0174.0241.0174c-.2451-.2462-.4902-.4923-.7352-.7385.0382-.6182-.0815-1.1618-.6959-1.4712-.2419-.2384-.4837-.477-.7255-.7157-.2942-.6427-.8565-.7212-1.4673-.6975-.0892-.069-.1784-.138-.2676-.207.0997.059.1994.118.2991.177.4726.2486.9451.4971,1.4179.7455.2376.2428.475.4858.7124.7289.2525.4709.5049.9419.7572,1.413-.0108.2538-.0215.5075-.0322.7611-1.6699.203-3.066-.2442-4.1564-1.6043-.5238-.6535-1.1311-1.2681-1.7978-1.7715-.7583-.5727-1.5795-1.1173-2.4564-1.4638-1.0842-.4284-2.1348-.243-2.8748.812-.2737.3902-.5704.7642-.8567,1.1456,0,0-.2032-.0747-.2028-.0744.1452-1.0954-.4891-1.7007-1.3582-2.1581l.0317.0161Z"/>
  <path class="cls-2" d="M204.3064,60.3126c-.1801.0013-.3587-.014-.5357-.0459-.1834-.1671-.3934-.2126-.6298-.1365,0,0,.0914-.0272.092-.0271-.3659-1.4833-1.5721-2.3201-2.5192-3.3807-2.3739-2.6584-4.6557-5.3991-6.9744-8.1068l-.0286.0275c2.3853-.3552,4.3937.6535,6.2978,1.8582,1.2846.8128,2.4161,1.8648,3.6778,2.7184.4426.2995,1.0694.3268,1.6119.4786-.0001.0002-.0423-.0302-.0423-.0302l.7593.7603-.0345-.0342c.2519.2523.5037.5046.7556.7568,0,0-.0336-.0327-.0337-.0326.0874.2574.1748.5148.2623.7722.5203.479,1.0216.9808,1.5655,1.4313.6879.5698,1.0438,1.2811,1.0743,2.1655-1.9897-1.1608-3.7271-.7012-5.2984.8252Z"/>
  <path class="cls-10" d="M196.0326,58.1468c-1.1254-1.1929-2.1998-2.4412-3.4018-3.5511-.4694-.4334-1.2258-.5558-1.8508-.8202.0007-.0003.012-.0916.012-.0916-.2301-.2309-.4601-.4619-.6902-.6928,0,0-.0249-.0252-.0249-.0252-.2325-.2323-.465-.4647-.6974-.6971,0,0-.0263-.0171-.0263-.017-.4898-.9115-.7201-2.0718-2.0693-2.1595-.9484-1.3317-1.8495-2.7228-3.6908-2.9288,0,0,.0297.0262.0296.0262-.2504-.2505-.5009-.501-.7514-.7515,0,0,.0233.0233.0233.0233-.0133-.4763-.0265-.9527-.0397-1.4291l.0673-.068c4.095-.4516,7.0645,1.2546,9.4853,4.5171,2.1955,2.9589,4.7301,5.6659,7.1154,8.4842-1.1634.0605-2.3269.1208-3.4904.1811Z"/>
  <path class="cls-10" d="M180.7018,33.4357c.404.2104.7896.5488,1.2152.6103,2.5219.3641,5.053.664,7.6723.9972-.0737.4278-.1285.7454-.183,1.0606-2.9345.475-5.8528.9059-8.714,1.8675-2.7541.9256-5.6689.7984-8.3664-.5678-.504-.2553-.8886-.7465-1.4529-1.2372,1.1049-1.4906,2.6253-1.6729,4.1019-1.943.5508.1187,1.4238.5164,1.6008.3117,1.1761-1.3594,2.7005-1.032,4.159-1.0804,0,0-.0329-.019-.0329-.019Z"/>
  <path class="cls-2" d="M206.0216,43.828c2.9379-.1227,5.8549.0486,8.7431.6212.0012,1.0921.0027,2.1844.0042,3.2768-.7691.2574-1.5236.6631-2.3103.7398-1.4053.137-2.8299.0756-4.2468.0976-.8196-.4684-1.597-1.0455-2.4673-1.3824-1.5651-.6058-3.1895-1.0571-4.7822-1.5935-.895-.3014-1.3551-.9514-1.3901-1.8979.9492-.0062,1.8984-.0124,2.8466-.0194.2144.101.4299.2028.6454.3047.4945.0144.9891.0289,1.4834.0455.4912-.0627.9826-.1275,1.474-.1923Z"/>
  <path class="cls-10" d="M213.7127,60.9663c-.4064-.0246-.8127-.0492-1.2189-.0739.0001-.0001.0317.0408.0316.0408-.5673-1.3907-.6375-1.4363-2.2223-1.4461l.0148.0176c.1024-2.1161-.9755-3.253-2.9938-3.6095-.2071-.2589-.4142-.5178-.6213-.7767,0,0,.0336.0327.0336.0327-.2519-.2523-.5037-.5046-.7556-.7569,0,0,.0345.0342.0344.0342-.2531-.2534-.5062-.5069-.7593-.7603,0,0,.0422.0303.0423.0302-.1058-.3352-.2117-.6701-.4166-1.318,1.0229.2122,1.8947.3205,2.7206.5769,3.56,1.1055,6.9665,2.5908,10.1867,4.4598.7872.4569,1.3458,1.3077,2.0093,1.9775-1.6405-.0593-3.2807-.1188-5.0767-.184-.312.543-.6604,1.1494-1.0088,1.7558Z"/>
  <path class="cls-10" d="M204.5758,42.9563c-2.7391-.0447-5.4783-.1264-8.2174-.124-2.8553.0024-5.6798-.1721-8.6918-1.0376,2.1195-.7558,4.0112-1.2619,6.0667-1.1336,1.0551.0658,2.1627-.0122,3.1858-.2681,2.4956-.6243,4.9423-.5011,7.3978.139.3245.6959.6476,1.3919.9706,2.0878,0,0,.0125.2875.0126.2868-.2414.0161-.4828.033-.7242.0499Z"/>
  <path class="cls-10" d="M222.7119,53.6367c-.2869.0645-.5739.129-.8609.1944-3.151.0014-6.1849-.4932-8.9471-2.1254-.6224-.3678-1.2689-.7313-.9748-1.6809.1433-.1371.2999-.4214.4734-.4322,2.1362-.1321,4.2749-.2242,6.4142-.3265.5287.4566,1.0051,1.2139,1.5931,1.3138,1.8358.3117,2.2365,1.5133,2.3021,3.0568Z"/>
  <path class="cls-10" d="M189.4405,37.0136c1.6407.0034,3.2814.0069,4.9223.0104.474.2562.9336.5445,1.4248.761.8035.3542,1.6276.6617,2.443.9889-.5754.1271-1.1498.3588-1.7264.3644-3.5694.0347-7.05.7368-10.5505,1.3079-.9019.1471-1.8604.4026-2.6771-.3121-.2363-.7543.2179-1.2111.7623-1.4021,1.7821-.6253,3.5984-1.1531,5.4016-1.7184Z"/>
  <path class="cls-10" d="M199.5722,43.6896c.035.9465.4951,1.5965,1.3901,1.8979,1.5927.5364,3.2171.9877,4.7822,1.5935.8703.3369,1.6477.914,2.4673,1.3824-.5604.1693-1.1809.5865-1.6721.4679-2.7869-.6726-5.5666-1.3984-8.2993-2.2624-1.3434-.4248-2.5495-1.2281-3.4681-2.4159q1.7449-.8251,4.7999-.6634Z"/>
  <path class="cls-2" d="M165.5739,45.7637c-.3857.5808-.8101.3549-1.1388-.0137-2.9157-3.2693-5.1609-6.8189-4.6648-11.4777,1.9926,1.9117,3.2705,4.2451,4.1232,6.8503.5115,1.5629,1.117,3.095,1.6803,4.641Z"/>
  <path class="cls-5" d="M213.7127,60.9663c.3484-.6064.6968-1.2128,1.0088-1.7558,1.7961.0651,3.4363.1246,5.0767.184.6787.2985,1.3572.5972,2.0356.8958,0,0,.0238-.0741.0239-.074-.0183.2327-.0366.4653-.0549.6979-.4203.7224-1.1438.641-1.8258.714-1.4833.1588-2.9629.3512-4.4448.5287-.607-.3977-1.2133-.7941-1.8195-1.1906Z"/>
  <path class="cls-5" d="M222.7119,53.6367c-.0657-1.5435-.4663-2.7451-2.3021-3.0568-.588-.0998-1.0644-.8572-1.5931-1.3138.5274-.1973,1.0561-.3945,1.584-.5914.4828.0055.9665.0108,1.4499.0165.6883.7738,1.4258,1.51,2.0507,2.3317.5342.7025.9394,1.5031,1.6175,2.6137h-2.8069Z"/>
  <path class="cls-2" d="M205.2875,42.6197c-.3231-.6959-.6461-1.3919-.9706-2.0878.6546-.2144,1.2988-.4854,1.9704-.626.5755-.1205,1.1824-.0917,1.7745-.1295.9914.5426,1.9837,1.0857,2.9763,1.6287-.4573.2344-.9031.4966-1.3757.6955-.4881.2054-1.0021.3492-1.5048.5199l-2.8701-.0008Z"/>
  <path class="cls-5" d="M198.2306,38.7739c-.8154-.3272-1.6395-.6347-2.443-.9889-.4912-.2165-.9508-.5048-1.4248-.761.1079-.207.1761-.4262.2047-.6583,2.6271-.2866,4.9216.8662,7.2751,1.726.2297.0839.3029.5962.4487.9093-1.3536-.0759-2.7072-.1515-4.0607-.2271Z"/>
  <path class="cls-5" d="M196.0326,58.1468c1.1635-.0603,2.327-.1207,3.4904-.1811.9111.747,1.8222,1.4941,2.7328,2.2408-.0275.3432-.0545.6867-.0954,1.208-1.9302-.0715-3.7654-.0495-4.8502-2.0904-.2565-.4825-.8429-.7895-1.2776-1.1773Z"/>
  <path class="cls-5" d="M214.7689,47.726c-.0015-1.0923-.003-2.1846-.0042-3.2768.4507-.0118.9011-.0237,1.3516-.0356.7715.6534,1.5771,1.2713,2.3018,1.9728.4598.4451.799,1.0147,1.191,1.5288-1.6143-.0629-3.2273-.1261-4.8403-.1893Z"/>
  <path class="cls-2" d="M221.903,54.9185c.9179.0807,1.8681.0386,2.7464.2699,1.4597.3844,2.9257.8859,3.1123,2.7605-.1077.102-.2138.2057-.3182.3111-.8806-.0908-1.7612-.1816-2.6417-.2724,0,0,.0212.0122.0212.0121-.9848-.7395-1.9874-1.4576-2.9342-2.243-.1345-.1116.0027-.5507.0142-.8383Z"/>
  <path class="cls-10" d="M167.2815,33.0936c1.8195-.0788,3.639-.1577,5.4583-.2372.0069.1838-.0053.367-.0369.5489-1.4608.4707-2.9071.9966-4.3888,1.3882-.7175.1896-1.022-.3796-1.0327-1.6999Z"/>
  <path class="cls-3" d="M172.7029,33.4053c.0316-.1819.0438-.3651.0369-.5489,1.6914-.0688,3.3827-.1383,5.0739-.207.2443-.2093.4885-.4194.7328-.6295.2775.0246.555.0493.8332.0743.4521.4537.9035.907,1.355,1.3604-1.4584.0483-2.9828-.279-4.1589,1.0804-.177.2046-1.05-.1931-1.6008-.3117-.4925-1.0073-1.4457-.7364-2.272-.818Z"/>
  <path class="cls-1" d="M221.8338,60.2903v-2.0895c.979-.0659,1.984-.1335,2.9892-.2011,0,0-.0212-.0121-.0212-.0121.468.7461.9359,1.4923,1.4038,2.2384-.9277-.0217-1.8554-.0435-2.7831-.0652-.5216.0185-1.0433.0369-1.5649.0554l-.0238.0741Z"/>
  <path class="cls-3" d="M204.5758,42.9563c.2414-.0169.4828-.0337.7242-.0499.2414.3067.4829.6126.7229.9201-.4928.0663-.9842.1312-1.4754.1938.0095-.3561.0189-.7101.0282-1.064Z"/>
  <path class="cls-1" d="M220.3544,57.0851c-.0217-.0686-.0435-.1372-.0652-.2058.086-.0224.1732-.0627.2572-.0568.0263.0018.0438.1281.0653.1973-.0858.0217-.1715.0435-.2573.0652Z"/>
  <path class="cls-3" d="M203.0642,43.9749c-.2155-.1018-.431-.2037-.6454-.3047.2158.1021.4306.2034.6454.3047Z"/>
  <path class="cls-2" d="M193.7393,48.6155c-.0668-.0499-.1337-.0998-.2005-.1496.0573.059.1146.118.1719.177,0,0,.0286-.0274.0286-.0274Z"/>
  <path class="cls-10" d="M174.1865,42.1399c-.0946-.119-.1892-.238-.2839-.357.1139.0996.2278.1993.3422.2984.0005-.0006-.0583.0587-.0583.0587Z"/>
  <path class="cls-10" d="M182.855,45.0324c-.0905-.1196-.1809-.2392-.2714-.3588.1125.0974.225.1948.3381.2915.0006-.0007-.0667.0673-.0667.0673Z"/>
  <path class="cls-10" d="M66.5875,52.1363c-1.6969-.188-3.3937-.3759-5.0906-.5635-.405-.0327-.8098-.0658-1.217-.099-.2947-.1737-.5872-.3474-.8796-.5211-.3154-.1421-.6307-.2842-1.1124-.5014,1.5746-2.4174,3.5137-4.4111,5.631-6.1953.6427-.5416,1.7595-.5206,2.659-.7567,1.8146.6842,3.6908.8972,5.6208.786,2.725-.157,5.4519-.2809,8.178-.419-.1277,1.7556-.959,2.9866-2.7553,3.2553-2.2349.3343-4.4865.5904-6.74.7524-1.128.0811-2.0884.3029-2.9165,1.1275-.8852.8815-1.6196,1.7801-1.3774,3.1348Z"/>
  <path class="cls-10" d="M49.8785,41.8151c.2639-.141.5278-.2821.7918-.4231.8194,2.6085,1.6388,5.217,2.5366,8.0753-1.0253,1.9369-2.0995,4.1905-3.3888,6.3133-.7111,1.1708-1.1511,2.7057-2.7896,3.0839-1.1833-1.7181-2.3665-3.4371-3.5499-5.1567.9333.0043,1.5774-.4496,2.0313-1.2431,1.0092-1.7644,1.8797-3.6354,3.0913-5.2492,1.263-1.6823,1.5791-3.4285,1.2774-5.4004Z"/>
  <path class="cls-10" d="M84.7427,27.7126c1.1157.1705,2.2315.341,3.3481.5126.0009.5842.0009,1.1673.0009,1.6221-.3732.2645-.5579.5069-.7561.5186-1.8899.1112-2.808,1.0845-2.8787,2.9814-.0214.5756-.501,1.1528-.4608,1.7067.0378.5205.4847,1.0113.7516,1.5152-.0496.1567-.1061.3109-.1699.4624-3.3682-.0532-6.5412-.9427-9.8109-2.0948.3566-1.5331,1.4062-2.4343,2.272-3.2756,1.3572-1.3187,2.942-2.4616,4.5896-3.3989.8631-.491,2.0651-.3856,3.1141-.5496Z"/>
  <path class="cls-10" d="M60.9748,31.3449c.7911-1.9183,1.2276-4.0654,3.1991-5.244.4697-.2808,1.0559-.3667,1.588-.5419.6907,2.0138,1.3818,4.0273,2.1688,6.3203-1.4368,2.2527-2.959,4.7514-5.3275,6.4325-1.0001-.0543-.9892-.7299-1.1429-1.2782.0087-.2325-.014-.4623-.0677-.6891-.1004-1.0005-.211-2.0001-.2978-3.0018-.0576-.6643-.0812-1.3316-.12-1.9976Z"/>
  <path class="cls-2" d="M85.2184,41.9243c-.208.0709-.4156.1427-.6234.2158-.4945.0774-.9885.1546-1.4828.2311-.4846.0078-.969.0163-1.4534.0248l-.7201.1982c-.9259-.0044-1.8517-.0088-2.7776-.0133-.5186-.4755-1.0102-.4536-1.4741.08-1.4284.0258-2.8569.0516-4.2853.0774.4981-3.2794,2.1934-4.6192,5.1569-4.0467.4526.0874.8727.3474,1.3256.4299.8572.1562,1.2766-.3613,1.4964-1.109,1.4177-.0877,2.8353-.1755,4.2533-.2634.6587.0892,1.3171.1786,2.0715.2811-.1028,1.5675-1.0033,2.6547-1.487,3.8941Z"/>
  <path class="cls-10" d="M52.0897,41.3642c.0071-.2454.0143-.4908.0215-.7357,1.3332.2616,2.3365-.312,3.1461-1.2933,1.6132-1.9554,2.8366-4.1124,3.3136-6.6386,0,0,.0165-.0158.0165-.0158.2714.0277.5428.0554.8142.0831.3462,2.4685.6924,4.9369,1.0476,7.4699-1.4581,1.8-2.9422,3.6492-4.4462,5.4821-.8563,1.0434-2.0324.9229-2.524-.3077-.5281-1.322-.9316-2.6939-1.3894-4.044Z"/>
  <path class="cls-2" d="M89.6727,18.2714c.7094.1968,1.3944.4397,1.3986,1.3465.006,1.3093.0265,2.6214-.0456,3.9275-.0733,1.3278-.7998,2.2723-2.0881,2.5861-1.3748.3349-2.791.4999-4.1878.7387-.4891-.0555-.9794-.1108-1.4693-.1641-.049-.1378-.1326-.2525-.2504-.3422.6316-2.8226,2.3623-4.8918,4.5522-6.6457.9835-.0748,1.7956-.3988,2.1014-1.4546l-.0109.0078Z"/>
  <path class="cls-10" d="M73.7712,19.0586c.1209-.0596.2488-.0904.385-.0927.9409.0898,1.8945.1069,2.8173.2843,2.342.4503,2.2816.4393,3.6845-1.4923.7263-1.0001,1.1763-2.0312,1.2494-3.246.1955.0468.3839.1138.5654.2018.3863.8681.7723,1.7353,1.226,2.7544-.158.33-.4069.723-.5415,1.1519-.7965,2.5365-2.9651,3.8782-4.802,5.4863-1.1864,1.0385-2.5162.808-3.2253-.6819-.6482-1.3623-.9206-2.9034-1.3587-4.3658Z"/>
  <path class="cls-10" d="M80.3806,38.0125c-.2198.7477-.6392,1.2652-1.4964,1.109-.4529-.0825-.8729-.3424-1.3256-.4299-2.9635-.5724-4.6588.7674-5.1574,4.0471-2.0328.4932-3.8724-.4834-5.8036-.7613.1226-.5687.0535-1.3473.4035-1.6669,1.0553-.9636,2.2395-1.8003,3.4366-2.5908,1.6576-1.0945,3.3538-1.7127,5.4211-.8357,1.4126.5993,3.0081.7675,4.5219,1.1284Z"/>
  <path class="cls-2" d="M69.4524,21.166c.453-.0273.906-.0547,1.3597-.0815.0867,1.0725-.0717,2.2428.3116,3.1951.7159,1.7791.2815,3.2581-.5803,4.7758-.2319.4085-.3315.8921-.4917,1.3413-.9939-.0654-1.4391-.8216-1.7078-1.5814-.5473-1.5483-.9569-3.1454-1.4241-4.7224.8437-.9757,1.6881-1.9514,2.5326-2.927Z"/>
  <path class="cls-10" d="M70.0516,30.3968c.1603-.4492.2598-.9328.4917-1.3413.8618-1.5178,1.2962-2.9967.5803-4.7758-.3832-.9523-.2248-2.1226-.3116-3.1951-.0008-.0006.0414.0269.0415.0271.3102-.0506.6205-.1014.9306-.1523-.0884-.1622-.1768-.3244-.2653-.4866.0392-.2556.0785-.5112.1181-.7668.388.225.9978.3623,1.127.6894.776,1.9645,1.4415,3.9727,2.2109,6.1557-.8862,1.3406-2.2409,2.4903-3.5836,3.6299-.2951.2504-.8853.153-1.3396.2157Z"/>
  <path class="cls-9" d="M66.5976,41.9773c1.9313.2779,3.7708,1.2545,5.8036.7613,1.4289-.0262,2.8574-.0519,4.2843-.0767.4909-.0263.9832-.0537,1.4756-.0811.9259.0044,1.8517.0088,2.7769.0148.2398-.0656.4803-.1326.7209-.1997.4844-.0085.9688-.0171,1.4534-.0248.0129.3728.0255.7448.0381,1.117-.9246.1262-1.8491.2522-2.7736.3783-2.7261.1381-5.453.262-8.178.419-1.93.1112-3.8062-.1018-5.6208-.786.0067-.5077.0132-1.0148.0197-1.522Z"/>
  <path class="cls-2" d="M88.3829,11.3887c.1621.7964-.1396,1.3612-.7771,1.8573-.3507.2729-.552.7378-.8194,1.1134-.5051.2181-1.025.4127-1.5143.6664-.6015.3119-1.0444.1543-1.4103-.368.2552-2.7104.4708-2.9512,3.3429-3.7325.3935.1545.7858.309,1.1782.4635Z"/>
  <path class="cls-2" d="M88.5654,16.0295c.7172-1.168.5157-2.8092,1.8737-3.6531,1.0842,2.4236.9839,3.1901-.7665,5.895,0,0,.0109-.0078.0108-.0078-.3856-.0256-.7711-.0511-1.1567-.0767l.0386-2.1574Z"/>
  <path class="cls-3" d="M88.5268,18.1869c.3856.0256.7711.0511,1.1567.0767-.3058,1.0558-1.1178,1.3798-2.1013,1.4546.0126-.6972.2541-1.2527.9446-1.5313Z"/>
  <path class="cls-2" d="M59.4017,32.7639c-.2714-.0277-.5428-.0554-.8142-.0831-.1673-.9074.2649-1.3296,1.1325-1.3994-.106.4941-.2121.9883-.3182,1.4825Z"/>
  <path class="cls-3" d="M83.03,26.3639c.1179.0897.2015.2044.2504.3422-.0838-.1153-.1671-.2288-.2504-.3422Z"/>
  <path class="cls-3" d="M61.3926,36.3444c.0537.2268.0763.4567.0677.6891-.0228-.23-.0452-.4596-.0677-.6891Z"/>
  <path class="cls-9" d="M59.4003,50.9527c.2924.1737.5849.3473.8796.5211-.2917-.1736-.5857-.3474-.8796-.5211Z"/>
  <path class="cls-10" d="M226.6089,11.0171c.2017-1.0538,1.0066-1.4753,1.8878-1.8471.7872-.3322,1.4084-.8238,1.3247-1.8117.0002-.0004-.0197.0487-.0196.0488,1.466.0068,2.806.3159,3.755,1.5642-.2654.6853-.5308,1.3705-.7962,2.0558,0,0-.0313.0334-.0313.0334-1.5116.7033-1.7984,2.139-2.1236,3.5518,0,0-.0256.036-.0256.036-.2499.2495-.4998.4989-.7497.7484,0,0,.0369-.0432.0369-.0432-.9276.4397-1.5683,1.0706-1.4648,2.1977,0,0,.0099-.0115.0099-.0115-.2411.2411-.4822.4822-.7234.7233,0,0-.0087.0092-.0087.0092-.4273.1407-.981.1604-1.2555.4474-.5672.5928-1.023,1.3049-1.4574,2.0094-.9292,1.5069-2.2819,1.8737-4.1105,1.7186.3691-1.5882,1.1143-2.7542,1.9039-3.9071.8058-1.1766,1.6514-2.351,1.2957-3.9168,0,0-.0125.0264-.0125.0263.7756-.2211.7724-.8375.7442-1.4665,0,0-.0198.0273-.0198.0273,1.1918-.2458,1.338-1.3694,1.8408-2.1936Z"/>
  <path class="cls-10" d="M236.3057,7.3727c1.9242-.9574,3.8184-2.081,6.0926-1.1064.3615.7485-.2164,1.0266-.6665,1.4093-1.2729,1.0825-2.7043,2.0834-2.4821,4.081l-.0108.0127c-1.0217-.0319-1.668.5086-2.099,1.3774-.373.7065-1.0591,1.3026-.789,2.2361l.0086-.0106c-1.1245-.2336-1.9215.4628-2.3123,1.2584-1.3162,2.68-3.6169,3.4327-6.4883,3.5976.0414-.669.0812-1.3124.121-1.9559,0,0,.0087-.0092.0087-.0091.2411-.2411.4822-.4822.7234-.7234,0,0-.0099.0115-.0099.0115,1.0976-.3263,1.5632-1.0739,1.4648-2.1977,0,0-.0369.0432-.0368.0431.2499-.2495.4998-.4989.7496-.7484,0,0,.0256-.036.0252-.0355,1.3769-.7836,2.2739-1.8549,2.124-3.5523,0,0,.0313-.0334.0313-.0333,1.393-.0548,2.0198-.8555,2.1153-2.1735,0,0,.0203-.0121.0203-.0121.4792-.4788.9585-.9577,1.4378-1.4365,0,0-.0281-.0324-.0281-.0324Z"/>
  <path class="cls-10" d="M255.8637,8.8725c1.4212,1.4626,3.3341,1.8974,5.3823,2.3935-.4383.4652-.7384.7838-1.038,1.1015-1.7543.3237-3.6422.3443-5.234,1.0413-2.6606,1.165-5.5617,1.3527-8.2278,2.4168-.5848.2334-1.3421.0341-1.9954.0341-.4143-1.7638,2.0111-1.8369,1.7299-3.383,0,0-.0192.0217-.0192.0217.5151-.4879,1.0302-.9757,1.5452-1.4636.4522-.4806.9044-.9612,1.3566-1.4417,0,0-.0046.0042-.0046.0041.473-.2478.9461-.4956,1.4191-.7434l-.0098-.0602c1.6986.0262,3.3971.0525,5.0957.0787Z"/>
  <path class="cls-10" d="M239.2497,11.7565c.909-.7413,1.818-1.4827,2.7283-2.2235,1.67.0822,3.3209.2251,4.9618-.3956.7529-.2848,1.6504-.1872,2.4824-.263-.0212.241-.0424.482-.0635.723,0,0,.0046-.0042.0046-.0041-.9834.0795-1.7278.5162-2.1485,1.4372-.2511.4894-.5022.9788-.7533,1.4681,0,0,.0192-.0217.0192-.0217-1.7942.0353-2.8363,1.3503-3.6197,2.5928-1.7857,2.8322-4.3237,3.3234-7.4009,3.0476.3302-1.0078.6148-1.8765.8994-2.7452,0,0-.0086.0106-.0086.0106,1.1444-.2687,1.4006-1.2462,1.7285-2.1666.8001-.1507,1.1279-.68,1.1595-1.4469,0,0,.0108-.0127.0108-.0128Z"/>
  <path class="cls-10" d="M213.8271,25.1156c.6605-.4445.8528-1.0236.6256-1.8037-.566-1.9428-.5552-3.9117-.1614-5.887.6127-.333,1.2996-.5763,1.8188-1.0171.9301-.7895,1.8712-1.4775,3.0093-1.5799,1.2443.2481,1.258,1.942,2.5944,1.8826-.9355,1.9984-1.8178,4.025-2.838,5.9796-.2931.5616-.9479.9677-1.502,1.351-.6649.46-1.3994.8194-2.1041,1.2207-.4755.0136-.9507.0289-1.4266.0436-.0008-.0006-.0161-.1899-.0161-.1899Z"/>
  <path class="cls-10" d="M246.518,26.1703c-1.9532-.2168-3.9063-.4337-5.8594-.6505,0,0,.0257.0097.0257.0097-.4695-.4972-.9389-.9944-1.4084-1.4916-.8265-.3854-1.653-.7707-2.7973-1.3043,2.7335-1.4114,5.2678-1.8637,7.9804-1.2417,1.7001,1.149,3.6043,1.6758,5.6351,1.8083l.0299-.006c-.0974.5853-.2276,1.1074-.8658,1.4065-.9371.4391-1.829.975-2.7401,1.4696Z"/>
  <path class="cls-2" d="M240.6586,25.5198c.3047.3429.6093.6858,1.0818,1.2176-2.5243.9693-5.0304,1.4442-7.5771,1.7639-1.7703-.0407-3.5423-.0493-5.3107-.1332-1.403-.0666-2.7247-.4256-3.8709-1.238.1744-.399.2224-.7325.3503-.7667,1.2473-.3331,2.5079-.6162,3.7651-.9133.1318.7461.4487,1.2974,1.2974,1.4049,2.1459.2718,4.1693-.2379,6.1226-1.0252.2975-.1199.3755-.7846.555-1.1973.7492.1118,1.4985.2237,2.2465.3342.4544.1868.91.3749,1.3656.563,0,0-.0257-.0097-.0257-.0097Z"/>
  <path class="cls-2" d="M255.1363,18.9862c.1721.4317.3441.8634.5921,1.4856-1.4981,1.5865-3.1801,2.8868-5.6049,2.8226.0005-.0002-.0294.0058-.0294.0058-.6671-1.6932-2.659-1.5294-3.8203-2.5288.8668-1.2215,2.6926-.6474,3.229-2.1138.6986-.0568,1.3972-.1136,2.0936-.1717,1.0964.7657,2.3478.466,3.5502.508,0,0-.0104-.0077-.0104-.0077Z"/>
  <path class="cls-8" d="M249.5029,18.6577c-.5363,1.4664-2.3621.8923-3.229,2.1138,1.1613.9994,3.1531.8356,3.8203,2.5288-2.0308-.1325-3.935-.6593-5.6351-1.8083-.8755-1.9974-2.9292-1.5789-4.7917-2.1941.7425-.3647,1.2465-.8242,1.7508-.8246,2.6949-.0018,5.3899.1111,8.0848.1844Z"/>
  <path class="cls-8" d="M255.1467,18.9939c-1.2024-.042-2.4538.2577-3.5502-.508.3057-.1615.6093-.3244.8862-.4729.1119-1.2381-1.1609-.9512-1.6426-1.6416,3.177-.7002,6.0006-2.6455,9.4069-2.292-.1145,1.0834-.7054,1.7214-1.7583,2.0048-1.252.3369-2.4878.7338-3.9352,1.1657.228.6706.4106,1.2073.5931,1.7441Z"/>
  <path class="cls-10" d="M237.0722,24.6323c-.1795.4127-.2575,1.0774-.555,1.1973-1.9534.7874-3.9767,1.2971-6.1226,1.0252-.8487-.1075-1.1656-.6588-1.2974-1.4049,3.5221-1.586,5.2031-1.7583,7.975-.8177Z"/>
  <path class="cls-3" d="M240.6843,25.5295c-.4556-.1881-.9112-.3762-1.3656-.563-.0136-.3087-.0285-.6186-.043-.9286.4698.4972.9392.9944,1.4087,1.4916Z"/>
  <path class="cls-10" d="M241.4184,34.1608c-.2108-.0249-.4243-.0366-.6311-.0805-.0978-.0208-.1826-.1032-.2733-.1577.1581-.0728.3572-.2423.4648-.1965.175.0745.2901.2898.4304.4457,0,0,.0091-.011.0091-.011Z"/>
  <path class="cls-10" d="M111.9912,60.9505c.9376-.0301,1.8863-.1569,2.8083-.0513.4947.0567.9438.5127,1.4158.7875-.5027.3347-1.0077.6705-1.5128,1.0063.0679.1358.1357.2717.2036.4075.7162-.2445,1.4325-.489,2.1487-.7335,1.487.5112,2.974,1.0225,4.4608,1.5344-.6721.4573-1.3082,1.2262-2.0229,1.3078-1.6478.1882-3.3399.1195-5.0003-.0151-.489-.0396-.9319-.649-1.5924-1.1449-1.9166,1.3054-4.2038,1.5894-6.6139,1.0724-.3476-.7736.2617-1.0156.7471-1.2998,1.648-.965,3.3046-1.9154,4.958-2.8713Z"/>
  <path class="cls-10" d="M107.1093,75.3267c-.9159-.478-1.8499-.9247-2.7431-1.4421-1.0978-.6359-2.1615-1.3308-3.239-2.0011-.4528-.0429-.9064-.0848-1.36-.1267,0,0,.0156.0197.0156.0197-.8743-.922-1.7485-1.8441-2.6042-2.7465.1844-.8341.829-.9468,1.3874-.7899,1.371.3853,2.8114.7133,4.0316,1.404,2.2724,1.2865,4.4081,2.8145,6.6006,4.2421-.6964.4802-1.3926.9603-2.0889,1.4405Z"/>
  <path class="cls-2" d="M99.8765,72.5174c1.1265.6491,2.2589,1.2882,3.3766,1.952.49.291,1.0916.5198,1.0098,1.5363-1.8108.2172-3.6472.2702-5.4981-.0474-2.042-.3504-3.5722-1.2729-3.9443-3.6421.4022-.4572.8597-.9775,1.3168-1.4992,1.2148.3189,2.2398,1.3611,3.6454.9597,0,0-.0155-.0196-.0155-.0196.0364.2535.0729.507.1093.7605Z"/>
  <path class="cls-2" d="M102.7122,61.6496c1.5605-.4478,3.1125-.9291,4.6848-1.3304.8982-.2292,1.8569-.4446,2.4993.5717-2.3125,1.1943-4.6617,2.3241-6.9228,3.6088-1.2356.702-2.4705.6555-3.7707.5567-.4395-.9656.4545-1.2418.8971-1.6182.7994-.6801,1.7341-1.2012,2.6124-1.7886Z"/>
  <path class="cls-2" d="M93.4193,63.122c2.4759-2.5678,5.505-3.2772,8.9111-2.8164.1137.496.1923.8388.2685,1.1777-1.4968-.097-2.7735.4941-4.0223,1.227-1.2275.7205-2.4706,1.4203-3.7444,2.0537-.4959.2466-1.0943.2872-1.8047.4603-.1727-.8338-.3107-1.4997-.4487-2.1656,0,0-.0226.0243-.0226.0243.2877.013.5753.0259.863.0389Z"/>
  <path class="cls-10" d="M109.3325,71.5502c-1.4609-.7204-2.9485-1.4043-4.0028-2.8107,3.2227-.9663,5.2055-.7957,7.7287.6055.9278.5152,1.8638,1.0154,2.7951,1.5236-1.516.0613-3.0344.0797-4.5445.2006-.6674.0534-1.3183.3143-1.9766.481Z"/>
  <path class="cls-10" d="M126.4896,70.9605c-1.1428.8339-2.4756.8823-3.8126.9224-1.8722-.9933-3.7433-1.9846-5.6063-2.9908-.0472-.0255-.006-.215-.006-.5549,3.5297-.5157,6.6184.4982,9.4249,2.6233Z"/>
  <path class="cls-2" d="M91.9076,71.8282c.8182.9745,1.6364,1.949,2.4784,2.9518q-1.8498.7349-4.1333-.26c-.7849-1.668-1.5729-3.3362-2.4197-5.1292.4879-.2498.8763-.4486,1.2633-.647.1489.08.3089.1263.4786.1391.7776.9817,1.5552,1.9635,2.3328,2.9452Z"/>
  <path class="cls-2" d="M109.3325,71.5502c.6583-.1667,1.3092-.4276,1.9766-.481,1.5101-.1208,3.0285-.1393,4.5445-.2005.6626.307,1.3242.6151,1.9859.9231-1.3699,1.0519-3.0573,1.0692-4.6412,1.4236-1.2886-.5551-2.5772-1.1101-3.8658-1.6652Z"/>
  <path class="cls-5" d="M113.1983,73.2154c1.5839-.3544,3.2713-.3717,4.6412-1.4236,1.0426.199,2.0852.398,3.1283.5966-.5764,1.0486-1.6567,1.2297-2.6613,1.511-1.1281.3158-2.2724.5736-3.4102.8567-.5663-.5135-1.1322-1.0271-1.698-1.5407Z"/>
  <path class="cls-10" d="M128.7211,63.0128c.13,1.2977-.5512,2.0422-1.7469,2.1781-1.1396.1295-2.3055.0279-3.7018.0279.6099-1.6459,1.8211-2.0253,3.035-2.2371.7885-.1375,1.6313.0374,2.4499.0723,0,0-.0363-.0411-.0363-.0411Z"/>
  <path class="cls-2" d="M133.0051,64.2764c.2624.0795.5248.159.7873.2385-.182.3064-.2963.7097-.5625.8959-.376.263-.8581.4854-1.306.5086-.668.0346-1.3457-.1195-2.1514-.2078.7532-1.6648,2.1461-1.1708,3.2325-1.4352Z"/>
  <path class="cls-11" d="M89.5749,68.883c-.1697-.0129-.3297-.0591-.4786-.1391q-.071-1.9735,1.0873-3.0648c.3035,1.2391.667,2.35-.6087,3.2039Z"/>
  <path class="cls-4" d="M107.1093,75.3268c.6963-.4802,1.3925-.9604,2.0889-1.4405.7044.2454,1.4088.4909,2.1126.7361-.1626.7262-.7503.9098-1.3474.9056-.9518-.0067-1.9028-.1282-2.8541-.2012Z"/>
  <path class="cls-1" d="M323.1143,61.4966c-.018-.9044-.0359-1.8089-.0538-2.7128,1.899-.0097,3.4101.7235,4.643,2.2517-.8056.8879-1.6744.4268-2.4345.4841-.7136.0538-1.436-.0106-2.1546-.023Z"/>
  <path class="cls-2" d="M84.7478,36.5691c-.2669-.5039-.7138-.9947-.7516-1.5152-.0402-.5539.4393-1.1311.4608-1.7067.0706-1.8969.9887-2.8701,2.8787-2.9814.1982-.0117.3828-.254.7561-.5186,0-.4548,0-1.0379-.0009-1.6221.6207-.1975,1.2424-.394,2.1189-.671-.2325,3.1983-1.2279,5.8304-2.3096,8.5811-1.0655.1466-2.1089.2903-3.1523.4339Z"/>
  <path class="cls-2" d="M81.9074,14.512c-.0731,1.2148-.5231,2.2459-1.2494,3.246-1.4028,1.9315-1.3425,1.9426-3.6845,1.4923-.9228-.1774-1.8764-.1945-2.8173-.2843,1.8654-1.9561,4.0568-3.4617,6.5098-4.5713.3288-.1487.8235.0692,1.2413.1173Z"/>
  <path class="cls-4" d="M88.3829,11.3887c-.3923-.1545-.7846-.309-1.1782-.4635.1476-.1693.2744-.3664.4487-.5032.9998-.7848,1.893-.9609,1.9519-.4216.0928.8489-.5852,1.1248-1.2225,1.3883Z"/>
  <path class="cls-7" d="M99.8765,72.5174c-.0364-.2535-.0729-.507-.1093-.7605.4536.0419.9072.0838,1.36.1267-.4175.2119-.8341.4228-1.2507.6338Z"/>
  <path class="cls-11" d="M81.7346,70.4935c-.0131-.3027-.0261-.6053-.0391-.908.3419.2438.6837.4876,1.0281.7315-.328.0589-.6586.1177-.989.1766Z"/>
  <path class="cls-2" d="M167.837,47.9291c.2862-.3814.583-.7555.8567-1.1456.7401-1.055,1.7906-1.2404,2.8748-.812.8769.3465,1.6981.8911,2.4564,1.4638.6667.5035,1.2739,1.1181,1.7978,1.7715,1.0904,1.3601,2.4865,1.8074,4.1565,1.6041.2458.0014.4915.003.7371.0047l-.0241-.0174c.0486.9224.325,1.6173,1.4561,1.4588,0,0-.0087-.007-.0086-.007-.4005,1.594.8023,2.4582,1.5963,3.5085.1263.4405.2527.8811.4035,1.407-.4692.0514-.8604.2203-1.1274.1041-2.7014-1.176-5.5485-2.0039-8.0329-3.6982-1.9472-1.328-4.0725-2.3931-6.1021-3.6027-.7502-.4471-1.2903-1.0558-1.04-2.0395Z"/>
  <path class="cls-2" d="M182.783,52.2507q.3842-2.1256,3.0935-2.2833c.2189.0737.4416.1342.6678.1822.6834,1.0388,1.3641,2.0811,2.809,2.1021,0,0,.0263.0171.0262.0171.2325.2324.465.4647.6975.697,0,0,.0249.0252.0249.0253.23.2309.4601.4618.6902.6927,0,0-.0113.0913-.012.0916.4272.6855.7997,1.4141,1.2948,2.0468.9998,1.2776,2.3696,2.2789,3.1711,4.0739-.6789.1194-1.1172.3089-1.5137.2438-.9347-.1535-1.8458-.4456-2.7732-.6507-1.9988-.4421-3.7875-1.1842-5.0448-2.9461-.395-.5535-1.1009-.8852-1.6641-1.3186-.4888-.9914-.9779-1.9826-1.467-2.9738Z"/>
  <path class="cls-5" d="M204.3064,60.3126c1.5713-1.5264,3.3088-1.986,5.2983-.8253.2376.0057.4754.0115.7132.0174,0,0-.0148-.0176-.0148-.0176.4502.447.9003.894,1.3505,1.341-.2393.6424-.7588.8197-1.3774.8226-.9307.0044-1.8615.0026-2.7917.0036-.467-.0171-.9369-.0719-1.4016-.0436-.9676.059-1.5475-.368-1.7764-1.298Z"/>
  <path class="cls-7" d="M182.783,52.2507c.4891.9912.9783,1.9824,1.467,2.9738-.1718.1783-.3432.3565-.5143.5343-.7937-1.0506-1.9965-1.9149-1.596-3.5088.2145-.0456.4289-.0454.6433.0007Z"/>
  <path class="cls-7" d="M166.276,45.6967c.8691.4574,1.5034,1.0626,1.3582,2.1581-.9883-.3826-1.3714-1.1456-1.3582-2.1581Z"/>
  <path class="cls-7" d="M203.1409,60.1302c.2363-.0761.4464-.0306.6298.1365-.1664.0615-.33.135-.5015.1691-.0217.0043-.0845-.1986-.1282-.3055Z"/>
  <path class="cls-2" d="M272.4265,55.0419c.2518.2745.5036.549.7555.8234-.2518-.2745-.5036-.549-.7555-.8234Z"/>
  <path class="cls-2" d="M271.6317,53.7065c.2739.3441.5477.6883.8221,1.0342-.2737-.3435-.5479-.6889-.8221-1.0342Z"/>
  <path class="cls-7" d="M226.6089,11.0171c-.5028.8242-.649,1.9478-1.8408,2.1936.0694-1.188.3838-2.1704,1.8408-2.1936Z"/>
  <path class="cls-7" d="M224.7879,13.1834c.0282.6291.0313,1.2454-.7442,1.4665-.1266-.679.051-1.2036.7442-1.4665Z"/>
  <path class="cls-2" d="M249.4222,8.8744c-.8319.0758-1.7295-.0217-2.4824.263-1.6409.6207-3.2919.4778-4.9618.3956.0622-.0989.1134-.2085.1911-.2939,2.6959-2.9607,4.5308-3.3547,7.967-1.6117.3249.1648.4275.7681.6326,1.1671-.0007-.0007.0091.0595.0091.0596-.4519.0068-.9037.0136-1.3555.0203Z"/>
  <path class="cls-2" d="M233.5567,8.9714c-.9489-1.2484-2.289-1.5574-3.755-1.5642.0231-.2073.0932-.3971.2111-.5692,1.6547-1.2711,3.5603-.9149,5.4104-.7892.7313.0497.7653.7618.8832,1.3246-.0008-.0007.0273.0317.0273.0316-.9501.0075-1.4816.434-1.4377,1.4366,0,0-.0203.0121-.0203.0121-.4397.0393-.8794.0785-1.319.1177Z"/>
  <path class="cls-2" d="M49.8785,41.8151c.3017,1.9719-.0144,3.7181-1.2774,5.4004-1.2116,1.6138-2.0821,3.4848-3.0913,5.2492-.4538.7934-1.098,1.2474-2.0313,1.2431-.0971-.2355-.1944-.4714-.2908-.7073-.1663-.2339-.3336-.4681-.5009-.7022-.0419-.4921-.0837-.9842-.1271-1.4759,1.2502-.4275,1.6776-1.5754,2.3068-2.5742,1.4544-2.3089,2.9465-4.597,5.012-6.4332Z"/>
  <path class="cls-3" d="M42.6869,52.2984c.1673.2341.3346.4682.5009.7022-.1676-.2342-.3342-.4682-.5009-.7022Z"/>
  <path class="cls-9" d="M156.8333,4.5185c-.3158-.9388.0955-1.6844.6364-2.397,1.044,1.2458,1.0004,1.4099-.6364,2.397Z"/>
  <path class="cls-9" d="M156.118,5.2445c.246-.2469.4921-.4938.7382-.7406-.246.2469-.4921.4938-.7382.7406Z"/>
  <path class="cls-2" d="M223.4225,60.1608c.9277.0217,1.8554.0435,2.7833.0648.4976-.0099.995-.0194,1.4923-.0289l-.0337-.0252c.2214.7385.8314.6936,1.4148.7022,0,0-.0014-.0021-.0014-.0021.0376.2459.0752.4919.1135.7379-.5059.2454-1.0637.7678-1.5097.6854-1.4727-.2721-3.0367-.3252-4.3283-1.2512.0232-.295.0462-.589.0692-.8829Z"/>
  <path class="cls-2" d="M227.7617,57.9489c.6595.646,1.4064,1.2281,1.9442,1.9632.2977.407-.076.8538-.6276.9597-.0003-.0002.0011.0019.0015.0022-.337-.5051-.7246-.9091-1.4153-.7024,0,0,.0337.0252.0337.0253-.0849-.6456-.1697-1.2912-.2546-1.9368.1044-.1054.2104-.2091.3182-.3111Z"/>
  <path class="cls-7" d="M93.4193,63.122c-.2877-.013-.5753-.0259-.863-.0389,0,0-.058-.3454-.058-.3454,0,0,.114-.3311.114-.3308.269.2386.538.4768.807.7151Z"/>
  <path class="cls-2" d="M58.571,32.6966c-.477,2.5261-1.7005,4.6831-3.3136,6.6386-.8096.9813-1.8129,1.5549-3.1461,1.2933-.2411-.9936.0811-1.8615.6078-2.678.5079-.7874,1.0283-1.5668,1.5431-2.3497.8385-.7516,1.6835-1.4962,2.5131-2.2574.5134-.471,1.0231-.9135,1.7957-.6467Z"/>
  <path class="cls-2" d="M80.3768,43.8664c.9245-.126,1.8491-.2521,2.7736-.3783.5132.3399.4679.7553.1428,1.1883-1.7137,2.282-3.4321,4.5603-5.1485,6.84-.9347.041-1.9051-.0649-2.7981.1501-2.9005.6984-5.8239.6137-8.759.4702-.2421-1.3551.4923-2.2536,1.3775-3.1351.8281-.8246,1.7885-1.0464,2.9165-1.1275,2.2536-.162,4.5052-.418,6.74-.7524,1.7963-.2687,2.6276-1.4997,2.7553-3.2553Z"/>
  <path class="cls-7" d="M223.4225,60.1608c-.023.294-.046.5879-.0692.8829-.5164-.042-1.0327-.085-1.5498-.1288.0175-.2335.0359-.4661.0541-.6988.5216-.0185,1.0432-.0369,1.5649-.0554Z"/>
  <path class="cls-7" d="M117.0549,62.3671l-2.1487.7335c-.0679-.1358-.1357-.2717-.2036-.4075.5051-.3358,1.0101-.6716,1.5128-1.0063.3295.0008.6613.0005.9933.0008-.0425.2289-.0938.4552-.1538.6796Z"/>
  <path class="cls-10" d="M208.1576,42.6205c.5027-.1708,1.0167-.3145,1.5048-.52.4725-.1989.9184-.4611,1.3757-.6955.7755.2465,1.5512.4929,2.3283.7397-.4902.2399-.9769.6689-1.4743.6818-1.2422.0321-2.4893-.1249-3.7345-.206Z"/>
  <path class="cls-9" d="M211.6536,60.828c-.4502-.447-.9003-.894-1.3505-1.341,1.5848.0098,1.6549.0554,2.2223,1.4461-.2906-.035-.5812-.0701-.8718-.1051Z"/>
  <path class="cls-2" d="M71.519,20.4728c.0884.1622.1768.3244.2653.4866-.3102.0508-.6204.1016-.9306.1523.2217-.2131.4435-.426.6653-.6389Z"/>
  <path class="cls-9" d="M178.5465,32.0199c-.2443.2101-.4885.4202-.7328.6295.2443-.2103.4885-.4199.7328-.6295Z"/>
  <path class="cls-7" d="M186.5443,50.1496c-.2262-.048-.4489-.1086-.6678-.1822-.7608-.935-1.522-1.8695-2.2833-2.8039,1.8413.206,2.7424,1.5971,3.69,2.9284-.2468.019-.4928.0384-.7388.0577Z"/>
  <path class="cls-7" d="M182.1483,52.2571c-1.1311.1585-1.4075-.5364-1.4561-1.4588q1.2793.1216,1.4561,1.4588Z"/>
  <path class="cls-7" d="M177.0923,47.1928c.6109-.0237,1.1731.0548,1.4673.6975l-.0181.0181c-.4726-.2486-.9451-.4971-1.4177-.7457l-.0315.0301Z"/>
  <path class="cls-7" d="M180.0114,50.0499c-.2524-.4709-.5049-.9419-.7569-1.4132.0004-.0003.0308-.031.0308-.031.6142.3096.7339.8531.6958,1.4713,0,0,.0302-.0272.0302-.0272Z"/>
  <path class="cls-7" d="M182.8714,46.4381c.2505.2505.5009.501.7514.7515-.2504-.2505-.5009-.501-.7514-.7515Z"/>
  <path class="cls-7" d="M177.1239,47.1627c-.0997-.059-.1994-.118-.2991-.177.0892.069.1784.138.2676.207,0,0,.0315-.03.0315-.03Z"/>
  <path class="cls-7" d="M178.5597,47.8903c.2418.2386.4836.4772.7255.7157.0002-.0002-.0303.0305-.0307.0308-.2378-.2427-.4752-.4857-.7128-.7285-.0002.0002.0179-.0179.0179-.0179Z"/>
  <path class="cls-7" d="M180.7163,50.8156c-.2457-.0016-.4914-.0033-.7371-.0047.0106-.2535.0213-.5071.0321-.7609.0001-.0001-.03.027-.0301.027.245.2462.4901.4924.7352.7386Z"/>
  <path class="cls-9" d="M210.3179,59.5046c-.2378-.0058-.4756-.0117-.7132-.0174-.0305-.8842-.3863-1.5955-1.0742-2.1653-.5439-.4505-1.0452-.9523-1.5677-1.4317.1191-.0082.2402-.0065.3612.0049,2.0183.3565,3.0962,1.4934,2.9938,3.6095Z"/>
  <path class="cls-7" d="M205.2559,53.6681c.2531.2534.5061.5069.7593.7603-.253-.2535-.5061-.5069-.7593-.7603Z"/>
  <path class="cls-7" d="M205.9808,54.3942c.2518.2523.5037.5046.7556.7569-.2518-.2523-.5037-.5046-.7556-.7569Z"/>
  <path class="cls-7" d="M207.3241,55.8951c-.121-.0114-.2421-.0131-.3612-.0049-.0852-.2569-.1727-.5143-.2601-.7718.2071.2588.4142.5177.6213.7766Z"/>
  <path class="cls-3" d="M186.5443,50.1496c.246-.0194.492-.0387.7388-.0577,1.35.0881,1.5803,1.2483,2.0701,2.1598-1.4448-.021-2.1255-1.0633-2.8089-2.1021Z"/>
  <path class="cls-3" d="M190.792,53.6838c-.2301-.2309-.4602-.4618-.6902-.6927.2301.2309.4601.4618.6902.6927Z"/>
  <path class="cls-3" d="M190.0769,52.9658c-.2325-.2323-.465-.4646-.6975-.697.2325.2323.465.4646.6975.697Z"/>
  <path class="cls-7" d="M227.4435,58.26c.0849.6456.1698,1.2912.2546,1.9368-.4974.0095-.9947.019-1.4923.0289-.4682-.7457-.9361-1.4919-1.4041-2.238.8806.0908,1.7612.1816,2.6417.2724Z"/>
  <path class="cls-3" d="M78.1611,42.5809c-.4923.0274-.9847.0547-1.4756.0811.4654-.5346.957-.5565,1.4756-.0811Z"/>
  <path class="cls-3" d="M81.6589,42.396c-.2406.0671-.4811.1341-.7209.1997.2408-.0676.4808-.1336.7209-.1997Z"/>
  <path class="cls-3" d="M232.7291,11.0605c.1499,1.6975-.7471,2.7688-2.124,3.5523.3256-1.4133.6124-2.8491,2.124-3.5523Z"/>
  <path class="cls-3" d="M233.5567,8.9714c.4397-.0392.8793-.0784,1.319-.1177-.0955,1.318-.7223,2.1187-2.1153,2.1735.2654-.6853.5309-1.3705.7963-2.0558Z"/>
  <path class="cls-7" d="M229.8671,15.3535c.0984,1.1237-.3672,1.8714-1.4648,2.1977-.1035-1.1271.5373-1.758,1.4648-2.1977Z"/>
  <path class="cls-7" d="M230.5799,14.6483c-.2499.2494-.4997.4989-.7496.7484.2498-.2494.4997-.4989.7496-.7484Z"/>
  <path class="cls-7" d="M228.4121,17.5397c-.2412.2411-.4823.4823-.7234.7234.2412-.2412.4823-.4823.7234-.7234Z"/>
  <path class="cls-3" d="M239.2389,11.7692c-.0316.7668-.3594,1.2961-1.1628,1.4469-.3143-.0232-.6252-.0463-.9361-.0695.4309-.8688,1.0772-1.4092,2.099-1.3774Z"/>
  <path class="cls-7" d="M237.1399,13.1466c.3109.0232.6219.0464.9361.0695-.3245.9203-.5807,1.8979-1.7252,2.1665-.2701-.9335.416-1.5295.789-2.2361Z"/>
  <path class="cls-3" d="M234.896,8.8416c-.0439-1.0026.4876-1.4291,1.4377-1.4366-.4792.4789-.9585.9577-1.4377,1.4366Z"/>
  <path class="cls-3" d="M247.2147,11.0304c.4207-.921,1.1651-1.3577,2.1485-1.4372-.4522.4806-.9044.9611-1.3575,1.4418-.2643-.0015-.5276-.0031-.791-.0046Z"/>
  <path class="cls-7" d="M247.2147,11.0304c.2633.0016.5267.0031.791.0046-.5141.4878-1.0292.9756-1.5443,1.4635.2511-.4894.5022-.9787.7533-1.4681Z"/>
  <path class="cls-3" d="M249.4222,8.8744c.4518-.0068.9036-.0135,1.3555-.0203-.473.2478-.946.4955-1.4191.7433.0212-.241.0424-.482.0635-.723Z"/>
  <path class="cls-7" d="M227.6644,60.1715c.6907-.2067,1.0783.1973,1.4153.7024-.5839-.0088-1.1939.036-1.4153-.7024Z"/>
</svg>