<?xml version="1.0" encoding="UTF-8"?>
<svg id="Layer_1" xmlns="http://www.w3.org/2000/svg" viewBox="0 0 259.5559 75.6472">
  <defs>
    <style>
      .cls-1 {
        fill: #101311;
      }

      .cls-2 {
        fill: #e6eebd;
      }
    </style>
  </defs>
  <path class="cls-1" d="M241.8993,59.0926c-.925.4074-1.8498.8149-2.7747,1.2225-2.4016.2917-4.2315,1.786-6.2162,2.9548-2.9889,1.4381-5.9778,2.876-8.9667,4.3141l-7.6987,3.2657c-5.1185.9726-9.9539,2.8355-14.7887,4.7005-4.2452.5241-7.738-1.1342-11.0439-3.6032-3.3233-2.4822-7.2699-4.3094-10.0986-7.2395-8.0085-8.2957-17.7999-10.2466-28.6469-9.1878-17.8922,1.7466-35.8279.9103-53.7485.9918-4.1783.0191-8.2387.8296-12.2904,1.7925-2.9654.7047-5.3694,1.7594-7.4181,4.3962-3.1432,4.0453-8.2211,4.6193-12.9675,5.4788,0,0-.1512.0536-.1519.0567-.5153.0279-1.0298.0528-1.5442.0777-11.5543.9566-23.1243,1.7599-34.6558,2.9384-5.3101.5428-10.5521.8418-15.8236-.0168-9.8637-1.6063-15.2359-10.3369-12.2339-19.8447,2.6368-3.3542,6.7375-4.0632,10.3189-5.7105,1.8844.2245,3.616-.3225,5.3119-1.0506,5.3419-.7084,10.9063-.0096,15.9629-2.5222,7.9842,1.1352,15.8971-.2935,23.7988-.931,5.3671-.433,10.4855-.4932,15.4655,1.7111,1.9049,1.5088,3.8098,3.0176,5.7147,4.5264.9347,1.3836,2.0637,2.24,3.8153,1.4068.8202.4022,1.5623.1453,2.2856-.2706,10.8781-.7151,21.7561-1.4301,32.6342-2.1452,14.5418.2521,29.0759-.8795,43.6256-.1197,8.4383.4406,8.4915.2918,9.7698-8.3474.8931-6.036,1.0804-12.2799,5.6823-17.0692,7.3174-3.5495,15.1528-5.5988,22.8895-7.9467,10.7023-3.2477,21.7215-5.4794,32.0411-9.9576.8421.2792,1.4737-.024,1.9667-.7107,2.2002.0557,3.8647-1.3808,5.7939-2.08.7984.4802,1.5507.2872,2.286-.156l.2161-.0174c.7589.3284,1.5178.6568,2.2767.9852.1209.8426.6655,1.2775,1.437,1.4941.2106.276.4212.5521.6317.8281.6428,1.9674,1.4687,3.8316,2.9901,5.3036,3.3781,9.9266,7.3126,19.6301,11.695,29.1539.0386,2.2733.0771,4.5464.1156,6.8197-1.1022,1.8187-2.2045,3.6373-3.3068,5.456-1.8477,1.4355-3.6954,2.871-5.5432,4.3064-2.8357,1.7671-6.3574,2.2614-8.8067,4.7456ZM194.4335,24.7443c-1.2481-1.2642-.3245-3.2238-2.5386-3.2226-7.8052.004-13.9027,6.5564-16.3022,13.8748-4.118,12.5599.9213,19.0389,11.0641,25.8967,8.4447,5.7096,15.4937,8.7172,24.6609,3.4655.1369-.0783.3119-.107.4727-.1239,4.192-.4421,2.9316-2.4724,1.3129-4.5658-1.6184-2.0928-3.5271-4.0055-4.872-6.2578-5.6137-9.4013-10.7188-19.0664-13.7977-29.0668ZM71.5106,59.3462c2.5117-1.1517,1.2651-4.0392,1.5295-6.5472.3507-3.3281-1.9427-4.2672-4.2326-5.1538-2.6778-1.0368-5.539-1.0307-8.3618-.7637-11.8798,1.1239-23.7507,2.3439-35.6347,3.4184-4.8247.4362-9.5203,1.465-14.1409,2.7903-3.237.9285-5.2085,2.8755-3.5128,6.6258,1.9559,4.3258,5.9684,5.317,9.9278,5.2728,17.2437-.1923,34.3019-2.8977,51.4664-4.227.7646-.0592,1.4849-.6901,2.9592-1.4156ZM215.262,52.8101c1.4155,2.2398,3.1396,4.1434,7.6041,1.7595,7.991-4.2669,16.5852-7.404,24.9259-11.0165,1.25-.5414,2.5826-1.0921,1.9524-2.8609-.5943-1.6683-1.393-2.895-3.6426-2.347-10.4914,2.5561-20.8495,5.4517-30.5045,10.4562-1.6212.8402-2.5879,1.572-.3353,4.0086ZM240.0815,31.8032c1.1823-.8262,3.4564-1.0095,2.1631-3.4861-1.0947-2.0961-2.2047-2.6818-4.7075-1.6613-9.0365,3.6842-18.2328,6.9748-27.3223,10.5326-1.1103.4345-3.443.3713-2.4464,2.7704.6915,1.6648,1.7495,2.6858,3.87,2.0065,9.5889-3.0717,19.5737-5.0134,28.4431-10.1621ZM202.889,23.5218c-1.767.2454-1.9689,1.5062-1.3797,3.1996.6914,1.9872,1.866,2.2446,3.8636,1.6352,9.3378-2.8485,18.2433-6.999,27.8047-9.1717,1.5896-.3612,4.1762-.1343,3.0528-3.1264-.8314-2.2144-2.0865-3.5277-4.912-2.4988-9.3377,3.4006-18.7524,6.59-28.4295,9.9621Z"/>
  <path class="cls-2" d="M194.4335,24.7443c3.0789,10.0004,8.184,19.6656,13.7977,29.0668,1.3449,2.2523,3.2536,4.165,4.872,6.2578,1.6187,2.0933,2.8792,4.1237-1.3129,4.5658-.1609.0169-.3358.0457-.4727.1239-9.1671,5.2517-16.2161,2.2442-24.6609-3.4655-10.1428-6.8578-15.182-13.3368-11.0641-25.8967,2.3995-7.3184,8.497-13.8709,16.3022-13.8748,2.2141-.0012,1.2905,1.9584,2.5386,3.2226Z"/>
  <path class="cls-2" d="M71.5106,59.3462c-1.4743.7256-2.1946,1.3565-2.9592,1.4156-17.1645,1.3293-34.2226,4.0347-51.4664,4.227-3.9594.0441-7.9719-.947-9.9278-5.2728-1.6957-3.7504.2758-5.6974,3.5128-6.6258,4.6207-1.3253,9.3162-2.3541,14.1409-2.7903,11.8841-1.0744,23.755-2.2945,35.6347-3.4184,2.8228-.267,5.684-.2731,8.3618.7637,2.2899.8866,4.5833,1.8257,4.2326,5.1538-.2643,2.508.9823,5.3955-1.5295,6.5472Z"/>
</svg>