<?xml version="1.0" encoding="UTF-8"?>
<svg id="Layer_1" xmlns="http://www.w3.org/2000/svg" viewBox="0 0 216.7161 87.8713">
  <defs>
    <style>
      .cls-1 {
        fill: #809f8e;
      }

      .cls-2 {
        fill: #b8d334;
      }

      .cls-3 {
        fill: #121312;
      }

      .cls-4 {
        fill: #141625;
      }

      .cls-5 {
        fill: #161614;
      }

      .cls-6 {
        fill: #e5b3c1;
      }

      .cls-7 {
        fill: #64525a;
      }

      .cls-8 {
        fill: #aed150;
      }

      .cls-9 {
        fill: #4681c3;
      }
    </style>
  </defs>
  <path class="cls-3" d="M196.851,45.0579c2.6412.2397,5.2782.2369,7.9088-.1375.649.2873,1.28.3498,1.8661-.1493.6094-.0346,1.2187-.0692,1.8281-.1038.4374-.0272.8747-.0544,1.3121-.0815.6945-.1447,1.4083-.2298,2.0795-.4469,1.3037-.4217,2.6284-1.5524,3.9-.11,1.377,1.562,1.0258,3.5028.5418,5.2266-.5521,1.9665-2.6342,2.0952-4.0001.3551-.7002-.8921-.9005-2.1086-2.6456-1.8082-7.0775,1.2186-14.1832.3143-21.287.1038-6.6713-.1977-6.7831-.003-8.428,6.4267-.4019,1.571-.7527,3.1321-1.5489,4.5572-2.8388,4.3051-3.217,9.5446-5.3593,14.1141-.7845,2.6921-2.4867,4.915-3.7606,7.3569-.7683.9773-1.5366,1.9545-2.3049,2.9318-.692.4202-1.3839.8404-2.0759,1.2606-4.0745.051-8.1489.1019-12.2234.1529-2.8332-.6446-5.6925-.7945-8.5778-.4539-.4686-.1152-.9435-.2599-1.276.2695-1.7174.2002-3.4674.2526-5.147.6237-14.5424,3.2131-29.2935,2.0117-43.9835,2.1977-10.4057.1317-20.7683-1.2525-31.1786-.7611-2.6614.0071-5.3229.0142-7.9843.0213-1.6355.0008-3.2709.0017-4.9064.0025-4.5533-.9519-8.932,1.3515-13.5147.6433-3.9919-.617-7.9638.6821-12.0681.2657-4.4953-.4561-9.1024.1901-13.6608.356-3.2392-.4791-6.7267.1852-9.5781-2.0801-.9747-1.9167-1.0767-3.9141-.0642-5.7798,1.285-2.368,1.6035-4.9245,1.9095-7.5108.9768-2.4966,1.9535-4.9932,2.9303-7.4898.3658-.3399,1.2692-.5039.4075-1.2455.0129-.6023.0453-1.205.0351-1.8069-.0293-1.7378,1.538-3.5659-1.0385-5.1433-.9849-.6029.4348-1.7113,1.7367-1.5277.5026.5916.9886.4173,1.4091-.0763.3598-.4225.3174-.8538-.1409-1.209.5205-5.1177,2.5472-9.8636,3.6816-14.8317.4002-1.7529,1.1382-3.4306,2.3565-4.8286,1.1123.0138,2.3198-.1608,2.6746,1.352l-.067.0272c-1.9408.0628-1.1775,1.4965-1.2663,2.4982-.0779.3562-.1559.7125-.2338,1.0687-.6962,2.2041,1.0038,1.6972,2.0706,1.7663,2.552.1656,5.0775-.522,7.6772-.0282,1.7543.3332,3.5808-.0866,5.0879-1.2689l-.0707.0534c.2458-.1596.4916-.3191.7374-.4787l.0426-.0535c.1512-.2478.3023-.4956.4535-.7434l-.043-.0276c.6584.0488,1.3168.0976,1.9752.1463.3403.1567.6807.3134,1.021.4701,3.0482,1.0014,6.2048.2579,9.299.5642,1.0804.1069,1.1966-.8931,1.4464-1.6529,1.0928-.208,2.6799-1.1673,2.0106,1.3359-.0217.0811.5996.3342.9212.5071,0,0,.0217.0235.0217.0235-.1691,1.4722,1.7692,1.6215,1.845,2.94-2.3192-.3084-3.7805.5383-4.2719,2.9573-.1516.7463-.7159,1.4088-1.0912,2.1097-1.7275-1.2959.1323-3.6178-1.4194-4.9639-.4571-.102-.9141-.204-1.3712-.3059-2.4051.1363-4.7271-1.6831-7.1849-.3055-.4161-.0026-.8322-.0052-1.2483-.0079-.3942.185-.7886.37-1.1829.5551-.0048.1516-.0821.2398-.2317.2645-1.0421-.0763-2.0842-.1527-3.1264-.2291-.7398-.0821-1.4796-.1642-2.2194-.2463-.4238-.3958-.813-.3644-1.1675.0946-3.133.1754-6.2654.3638-9.3995.5175-.8396.0411-1.6078.0334-1.8779,1.0917-.8002,3.135-1.5494,6.2883-2.5102,9.3748-.5087,1.6343.7147,1.5492,1.5093,1.9757-.5948,1.0576-2.8531.4215-2.4939,2.4502l-.1042.0553c-1.2497.0401-2.4133.46-2.2486,1.8844.3925,3.3938-.5758,6.3477-2.3628,9.1522-.2194.3443-.0299.9491-.0299,2.011,1.244-1.3509,2.4963-.7828,3.5967-1.0918,1.4384-.4038,2.4562-.3424,2.4073,1.5187-.3101.0457-.6203.0915-.9304.1372-1.3986.1616-2.9039-.6545-4.1988.4581.9456,2.868-.7339,5.0615-1.9424,7.3504-.4887.9256-1.0596,1.7174-.335,2.7843,1.2742,1.876,6.8233,1.6181,8.1937-.4075,1.4759-.0704,1.7719,1.6589,2.9996,1.967l-.0498-.0367c.0412.5191.1638,1.2247.722,1.1468,1.7757-.2477,3.5203.3981,5.1347.3406,2.0576-.0733,4.9936,2.0071,6.3125-1.4956l-.0473.0355c.3211-.0556.5048-.1825.273-.5254-.0945-.5023-.0739-.9657.4284-1.2659.8481-.8285,1.6578-1.6142,2.007-2.8708.2729-.9822.8473-.3801,1.2021.1539-.3762,1.4422-.7524,2.8844-1.1377,4.3614q8.5352.1528,10.9108-7.6551c.0296-.0974.0665-.1926.0958-.2901.4594-1.5285,1.7681-3.6852,1.1996-4.4548-1.1752-1.5908-3.5794-.6761-5.4687-.8694-1.2567-.1286-1.9653.1599-2.3152,1.622-.3702,1.547-1.2948,2.9614-1.9773,4.4335-.0899-1.8578-.1797-3.7154-.2695-5.573l-.0837-.1442.0516-.1586c-1.2394-.9019-2.4342-2.5195-4.0912-1.6115-1.4714.8062-2.8902.7223-4.3838.8058-.9482.053-2.128-.3581-2.4876,1.0788-.4031.0477-.8061.0954-1.2092.1431-1.3263.0125-2.6527.025-3.979.0376-.2731.0027-.5462.0054-.8193.008-.4672-.1274-1.2453-.1429-1.3395-.4047-.2214-.615.4497-.8212.9112-.8153,2.8026.0352,5.1669-1.6136,7.8551-1.994,1.3768-.1496,2.8044.2943,4.1384-.3543,2.1295-.0912,4.2591-.1824,6.3886-.2737,1.0218.0036,2.0436.0072,3.0654.0107.1428-.0339.2505.0129.3231.1405,1.7952,2.3311,4.8335.5934,6.9398,2.0532.1492.1034.3681-1.0078.3312-1.6052l-.0366.0726c.6183-.2124.7232-.7034.6888-1.2699-.0193-.5397.0665-1.0415.5097-1.4145,1.1397,1.6257,1.9556-.9367,3.0239-.2339-1.2407,2.774-.1013,3.468,2.6015,3.263,2.3267-.1765,4.6913-.0664,7.0234.117,1.4875.1169,2.2985-.4457,2.7944-1.7423.5815-1.5204,1.1982-3.0274,1.7784-4.5483.3938-1.0323.0713-1.4824-1.0893-1.4547-3.8649.0923-7.7312.1224-11.5969.1763.4081-2.7533-1.8391-.9128-2.7215-1.5132-2.5342-1.7244-5.1915-.7817-7.7792.1113l.0104-.0066c-1.0699-.0051-2.1399-.0101-3.2098-.0151l-.1183-.1061.0592-.1475c1.8344-1.8848,3.6852-3.7516,5.8499-5.2696-1.472,2.5974-.3416,3.336,2.2117,3.1909.8942-.0508,1.8025.1637,2.7054.2445.7378.0661,1.1757-.0011,1.5022-.9538,1.3742-4.0105,2.9227-7.962,4.4445-11.9208.3078-.8008.7723-1.5384-.5859-1.7196.0674-.1899.1064-.5295.2061-.5483,5.5184-1.0448,5.6275-5.9199,6.9708-9.8884.2621-.7744-.4365-1.0075-1.0994-1.0618l.0315.0116c-1.2862-.4361-2.3492-2.9595-3.0154-2.1286-1.4211,1.7724-2.6815,1.2097-4.2375.9362-.904-.1589-1.2425.5-1.2318,1.3381-.0768.601.0571,1.271-.5557,1.6964-.955-.045-1.9101-.0899-2.8651-.1349-.0262-.6483.4804-1.3964-.3546-1.8931-.3909-.4487-.901-.4657-1.435-.3966-1.0058-.0364-2.083.147-3.0037-.1518-2.4261-.7872-3.3523.4952-4.2141,2.4419-.8918,2.0145-2.1051,3.8867-3.1777,5.8211-.3417-.0768-.6833-.1537-1.025-.2305-.4443-.758-.6917-1.567-.6368-2.4544.1125-.2271.225-.4542.3376-.6813.687-.1375.8598-.6065.7928-1.2302l-.0056-.041c1.8658-.0605,1.1888-1.4596,1.2892-2.4494-.0279-.2221.0502-.3969.2343-.5243.03-.1693.06-.3387.09-.5081-.0818-.2734-.1637-.5467-.2455-.8201-.5566-1.1345-1.3114-1.8742-2.7326-1.7296-.9565.0974-2.0475.1661-2.2018-1.2592,2.0325-.0229,4.0649-.0458,6.0973-.0686.8451.0034.7936-.508.624-1.0872l.7702-2.4732c1.6093.0344.6063,2.5243,2.316,2.4642.033.5908.0659,1.1818.0988,1.7728-.031.2225-.0621.4449-.093.6674-.0428.079-.0856.158-.1285.237.0446-.0772.0892-.1545.1339-.2318,1.8408.4694,3.6854,2.9444,5.5197-.0105.7871-.0283,1.5742-.0567,2.3613-.0851.2159-.1999.4317-.3999.6476-.5998l-.0351-.0569c1.1473.3919,1.7838-2.7503,3.205-.4633,1.125,2.7778,3.4712.8828,5.2053,1.2978,2.4426.5846,3.9261-.6865,4.8822-2.987,1.0039-2.4154,2.23-4.7559,3.8317-6.8614,1.6414-1.5619,3.1539-3.3589,5.7607-3.1612,2.0279.0295,4.0578.0158,6.0831.1056,1.1156.0495,1.8903-.1399,2.3554-1.3351,1.6419-4.2197,3.3781-8.4027,5.0913-12.6312-4.228-.4688-7.6254.3997-9.188,4.753-1.3355-.7478-.0617-2.679-1.5272-3.3678l.0012-.0957c.0508-.9074.1015-1.8148.1523-2.7222h46.6161c.0029.9292-.4742,1.5244-1.3041,1.8739-4.4405-.886-8.9447-.6384-13.4284-.7461-.7085-.017-1.3756-.0057-1.7829.8307-2.1156,4.3452-4.4824,8.5773-6.0357,13.1373,4.3963,0,8.5822-.0953,12.7602.0454,1.7477.0589,2.512-.6845,3.1071-2.1511,1.495-3.6846,3.2659-7.238,5.439-10.5791.5952,3.3231-1.6726,5.7168-2.9374,8.3574-.9292,1.94-.921,3.7873-.4754,5.5779.3715,1.4928,2.1716.4878,3.2282.9557.3479.1541.6167.4869.9217.738-.9946,1.153-2.2735.3437-3.4105.4517-.83.0788-1.5768-.03-2.0104.9351-1.0314,2.2953-2.1368,4.5574-3.2123,6.833-3.1379,1.2591-4.8295,3.4045-4.2513,6.9403l-.0004.0149c-.9647-.1289-1.9788-.048-2.8279-.6664q1.4405-3.0934-2.0295-3.0966c-3.0538.0007-6.1077.0246-9.1614.0115-1.0392-.0045-1.9556-.0176-2.5335,1.1586-1.3422,2.7318-2.8251,5.394-4.2124,8.1042-.6456,1.2611-.2901,1.8429,1.2179,1.7817,2.1341-.0868,4.3127-.2841,6.4041.0256,4.604.6819,7.8335-.4692,8.903-5.464.1811-.8456.8677-1.5828,1.3208-2.3701.3912,1.497.4404,2.8141-.3633,4.3664-1.9307,3.729-.4967,5.8631,3.6268,5.868,1.2251.0015,2.459-.0895,3.6728.028,1.248.1208,3.0766-.7631,3.2311,1.6301.1308,2.0265-1.9176,5.3586-3.4716,5.5726.6867-1.9415,1.3733-3.883,2.0947-5.9229-2.9883-.1927-5.7256-.3964-8.4662-.5304-.8776-.0429-1.9373-.2637-2.3945.8429-1.7655,4.2727-3.4948,8.5603-5.282,12.9515,3.5104.5051,6.6781-.2266,9.7863.6031,1.0204.2724,1.5555-.6752,1.7111-1.6687,1.3378-.06.9699,1.9316,2.285,1.8991.083.9811.3452,1.7996,1.5742,1.756,2.7035-.0959,5.4089.2015,8.116-.2026,2.0497-.306,3.0231-1.2855,2.7177-3.3879.8442-.0082,1.6884-.0164,2.5326-.0246.1405.6787-.8402,1.2577-.1763,1.983-1.3223,2.5954-4.4004,3.1788-6.1087,5.332-.135-.1857-.27-.3715-.4049-.5573.0329-.7028,1.7222-1.9834-.5821-1.8823-3.029.1328-6.0696-.4859-9.0869.1598-3.1893-1.4672-6.4397-3.6133-9.9812-2.4524-1.953.6402-5.7462-.5988-5.6032,3.5984l-.0065.0313c-1.4213-.5748-2.1286,1.2446-3.4434,1.0272.9837-2.1124.8524-3.1574-2.0061-2.859-3.0213.3154-6.0992.0797-9.1521.1068-.7682.0069-1.638-.2753-2.0722.7777-.8643,2.0961-1.7871,4.168-2.8249,6.5724,3.4598,0,6.5277-.2441,9.5374.0699,2.9057.3032,4.8664-.4813,5.9433-3.229.018,4.1054,2.9544,6.535,6.802,6.0697,2.1567-.2608,4.4817-.4683,6.6804.3301-.328,1.0849-1.2193.1403-1.5635.752-3.2426-.1926-6.4862-.3686-9.7272-.5855-1.3409-.0897-2.4694.0557-2.6582,1.7112-.9868,1.0916-1.4665,2.4246-1.8179,3.8187-.2115.3352-.4652.6512-.628,1.0086q-2.7331,5.9995,4.1403,5.6675c3.0128.6441,5.3684.0796,6.2154-3.3351.0681-.2746.339-.4989.5156-.7466.3356,1.0199.0481,1.98-.22,2.9646-.1935.7103-.0632,1.2896.7236,1.7565,3.4375,2.0394,10.0496,1.7889,13.39-.5929,3.1406-.0167,6.2839-.1182,9.4206-.0167,1.7447.0565,2.5457-.716,3.0344-2.2659,1.0322-3.2736,2.1642-6.5158,3.2553-9.7709.6858-2.6358,2.9051-3.5234,5.0823-4.4589-.0127,1.0026.6576,1.0942,1.4296,1.1051,1.8272.0259,3.6539.09,5.4811.1152q7.0082.0966,8.8408-6.8343c.0227-.086-.0374-.1938-.1067-.5087-3.0829-.0759-6.1722,1.038-9.2885.5772-3.1079-.4596-5.2765.275-5.7238,3.7564-1.9889-1.9067-1.2556-5.2899-3.7528-6.921,2.3869.2115,3.6214-1.0194,4.364-3.1865.6547-1.9108,1.6039-3.7209,2.4299-5.5725q2.2088-4.9513-3.1376-5.3526c-.0009-.567-.0018-1.1339-.0028-1.7009,3.5028-.0244,7.0638.4397,10.3705-1.2338,2.8106,1.2331,5.8095.1443,8.6448.6689,3.7838.7001,5.6048-.9527,6.9919-4.3226,2.714-6.5936,2.8734-6.6192-4.2298-6.418-2.3373.0662-4.896-.8063-7.0035,1.025-1.1662-1.1628-1.8554-2.5405-1.8958-4.2104,2.2519-2.4843,3.8071-5.3079,4.2285-8.6837,1.4925-1.8713,3.5013-2.9671,5.6919-3.7898,3.7003,1.2429,7.3328-.3962,11.0109-.3159.3418.0075.8013-.8291,1.0394-1.35,1.6087-3.5189,3.5969-6.8025,5.9054-9.9046.4602-.6183,1.3581-1.2171,1.0055-2.0768-.4093-.9978-1.4358-.3638-2.1718-.4046-1.6238-.09-3.3011.199-4.8741-.1002-3.3794-.6429-5.0669,1.0207-6.0726,3.9031-.3472.3427-.6944.6853-1.0417,1.028-.1342-1.1867-.7755-2.1908.2223-3.5657,1.0371-1.4291-.1687-2.0579-1.6876-1.8039-.1499.0761-.2776.0488-.3833-.0819.0027-.4352.0054-.8703.0081-1.3055h39.869c2.4402,2.2852,2.473,4.6054.4641,7.288-1.322,1.7653-2.1054,3.8996-2.5748,6.0978-.755.8069-.2045,1.3782.3516,1.9485-1.9223,2.5189-2.2091,5.721-3.5368,8.4784-1.6622,3.4522-2.2729,7.3814-4.7548,10.4563-.6125,1.9059-1.9751,3.5094-2.2388,5.5559-1.1557.721-1.5461,1.8821-1.7966,3.1238-.4594.2768-.5597.7199-.5597,1.2094-.4056,1.4848.4363,1.0801,1.2007.7929,2.2337-.0616,4.4675-.1231,6.7012-.1847.3919.3493.8151.3524,1.2601.114.3838.0329.7676.0657,1.1514.0985.8322.3752,1.6771.3446,2.5293.0791ZM105.3737,26.6149c.4363-.0219.8726-.0438,1.3089-.0657.07.0514.1759.1616.2041.1444.1328-.0811.2442-.1971.3633-.3007,1.2468-2.0899,2.5055-4.1729,3.7361-6.2724.7346-1.2534.4229-1.8424-1.1065-1.7893-1.8288.0635-3.6619.0058-5.4931.0027q-8.3859-.0143-11.2115,7.9895c.254.6403.6473.7114,1.1623.2843,3.5064.001,7.0129.0021,10.5193.0032.0507.0528.1122.1571.15.1491.127-.0268.2455-.0937.3672-.1452ZM91.6554,43.3348c-.0005.0971-.001.1943-.0016.2914-1.9301,0-3.8602-.0083-5.7902.0036-.9463.0058-1.6436.1676-2.0699,1.3033-1.4282,3.8053-3.0381,7.5422-4.5689,11.3092-.5507,1.3553-.3122,2.0567,1.388,2.0124,3.4602-.0903,6.9247-.0549,10.3867-.0133,1.6298.0195,2.542-.6086,3.1205-2.2219.9928-2.7689,2.2609-5.4395,3.426-8.146q1.9399-4.5066-2.8359-4.5377c-1.0182-.0067-2.0365-.001-3.0547-.001ZM61.7143,43.355q-5.4523-.0192-7.284,5.214c-.4696,1.339-.9082,2.6931-1.461,3.998q-2.1758,5.1356,3.2703,5.1392,8.6433.0156,10.438-8.5405,1.2143-5.7889-4.9633-5.8107ZM79.6468,71.1671c-1.8325,0-3.6651.0049-5.4976-.0019-.9627-.0036-1.8331.1626-2.2836,1.1545-1.3847,3.049-2.7823,6.0924-4.1285,9.1583-.1959.4462-.5916.9663.4667,1.2821,3.7861,1.1296,7.6759.66,11.5096.9872,1.074.0917,1.5379-.2983,1.9659-1.3461,1.3029-3.1901,2.7861-6.3084,4.2598-9.426.6016-1.2726.4579-1.8776-1.1003-1.8244-1.7287.0591-3.461.0135-5.1918.0163ZM94.087,1.1173c-4.3316-1.4659-6.7612,1.1525-8.2125,5.6002-.7832,2.4001-1.9592,4.6702-2.9069,7.0195-.3082.7642-.5924,1.6908.8009,1.6735,3.4555-.0431,7.1187.556,10.2895-.425,1.9626-.6072,2.131-4.127,3.1654-6.3108.3049-.6438.599-1.2934.9238-1.9271q2.8576-5.5745-4.0602-5.6302ZM148.1983,45.3505c-1.5253,0-3.0507.0073-4.576-.0027-.952-.0062-1.6998.0988-2.1728,1.1957-1.403,3.2533-2.9403,6.449-4.4458,9.6575-.7779,1.6578-.0808,2.2526,1.5383,2.2396,1.9318-.0155,3.8638-.012,5.7952-.0477q4.9765-.0921,6.7515-4.7138c.2924-.7562.6843-1.4743,1.0357-2.2074q2.938-6.1284-3.9263-6.1212ZM47.6477,71.6648c-1.367-.7622-1.8433.1941-2.1789,1.1792-.9185,2.6966-1.7325,5.4288-2.6599,8.1222-.7201,2.0914.1745,2.5494,2.049,2.2596,2.3976-.3707,4.801-.7091,7.2086-1.0076.6624-.0821,1.0363-.2601,1.3459-.9361,1.1855-2.589,2.4512-5.143,3.7516-7.6769.7708-1.5019.3186-1.9901-1.2768-1.9564-2.7454.0578-5.4929.016-8.2396.016ZM126.9741,83.1754c.6779,0,.9698.025,1.2556-.006.4042-.0439.8056-.1973,1.2051-.1868,6.5206.1723,10.9288-2.5363,12.9616-8.9857.5265-1.6705.5638-2.2368-1.2702-2.2403-2.7566-.0052-5.5146-.0237-8.269-.121-1.5035-.0532-2.231.7267-2.6632,2.0171-1.0317,3.0811-2.0805,6.1566-3.2199,9.5227ZM75.9742,43.6637c-4.8482.0252-4.8827.0158-6.1481,4.663-.4518,1.6589-.6596,3.3827-1.0348,5.0644-.9298,4.1676-.9161,3.9588,3.3392,4.5104,2.5995.3369,3.6459-.5912,4.3082-2.8968.6992-2.4338,1.6691-4.794,2.5925-7.1584,1.6465-4.216,1.6691-4.2072-3.0569-4.1826ZM167.5536,46.1484c-2.6648-.2178-4.9785-.4341-7.2965-.5839-1.0109-.0653-2.0769-.0982-2.6372,1.0394-1.4781,3.0007-3.283,5.8549-4.2178,9.099-.2029.7043-1.0729,1.8991.6909,1.9564,2.7467.0891,5.6343.2918,8.1385-.6962,1.7311-.683,1.8807-3.1888,2.6554-4.9229.8203-1.8361,1.6576-3.6646,2.6666-5.8917ZM190.9037,2.2932c-1.116.5376-2.484-.9589-3.2701.8703-1.3245,3.0823-2.7818,6.1084-4.2168,9.1421-.8643,1.8272-.4319,2.3456,1.6595,2.3467,6.975.0038,7.069.1295,9.5877-6.2938.6491-1.6553,3.1675-3.3056,1.6844-4.8982-1.0521-1.1297-3.6295-.8387-5.4447-1.1671ZM186.5975,17.6951c-1.7085.5524-4.3939-1.1239-5.706,1.6146-1.0883,2.2714-1.9348,4.661-2.8357,7.0185-.296.7745-.4422,1.4807.7353,1.8873,7.0334,2.4284,8.8079,1.6168,11.3948-5.379.0352-.0952.0557-.1958.0903-.2913q1.8056-4.9786-3.6787-4.8501ZM178.3635,31.2505c-.8339.1379-1.9786-.5164-2.4751.9528-1.1418,3.3784-2.3802,6.724-3.551,10.0928-.3521,1.0131-.2263,1.6172,1.1169,1.8735,6.0574,1.1554,6.0462,1.2062,8.5484-4.3638.2506-.5579.5394-1.0986.7968-1.6536,2.8723-6.1936,2.5652-6.6793-4.4359-6.9017ZM58.5131,39.8349c3.2775.9062,6.6505.547,9.9831.6843.8585.0354,1.2904-.4246,1.6105-1.1293,1.0503-2.3125,2.1679-4.5964,3.1456-6.9389.3245-.7775.6683-1.6668-.9609-1.8116-8.7217-.7752-11.0412.6523-13.7085,8.7365-.0315.0955-.0318.2012-.0697.4589ZM156.9476,28.3019q6.4995-.0708,8.0449-6.5049c.0713-.2965.169-.5885.2782-.8735.5116-1.336.0326-1.7705-1.3638-1.8876-2.0811-.1745-4.0487.7872-6.0603.551-2.4514-.2878-3.6041.7553-4.597,2.9006-2.7455,5.9317-2.8451,5.8856,3.698,5.8144ZM87.4487,29.5961c-2.9799.2052-5.782.3996-8.5843.5901-.8235.056-1.7341.0737-1.966,1.0682-.6319,2.7106-2.238,4.975-3.3128,7.4799-.6375,1.4857-.6146,2.6689,1.5297,2.2703,1.907-.3546,3.8154-.5782,5.7538-.4744.9128.0489,1.49-.2916,1.8959-1.1644,1.488-3.2001,3.0455-6.3679,4.6836-9.7697ZM141.8807,81.0088c3.796,0,7.1226-.0461,10.4467.0254,1.1425.0246,1.5501-.5166,1.97-1.4537q3.5457-7.912-5.0345-7.878c-1.205.0072-2.4796-.2409-3.1919,1.1624-1.3128,2.5862-2.6524,5.1588-4.1904,8.1439ZM159.9002,43.0666c2.7251,0,5.0317-.0419,7.3358.0173,1.1977.0308,1.8532-.404,2.2359-1.5705.9842-2.9993,2.0768-5.9629,3.12-8.943.1954-.5581.5313-1.138-.0942-1.6519-.8441-.6936-7.4451.5727-7.9197,1.6059-1.515,3.2982-2.9511,6.6326-4.6779,10.5422ZM68.6404,28.0431c7.6474-.1537,6.1905-.1494,8.1601-6.2783.2177-.6774.49-1.3379.6931-2.0193.2043-.6855.0153-1.0219-.7816-1.257-4.6392-1.3679-8.0103.0276-10.2985,4.3719-.1422.2699-.2853.5394-.4253.8104q-2.2546,4.3648,2.6522,4.3723ZM181.4174,1.8348c-.9512.1522-2.2473-.4744-3.0073.6968-2.3818,3.6706-4.7134,7.3742-7.033,11.0846-.4072.6514-.539,1.2821.4902,1.6595,3.1244,1.1456,7.7926-.8584,8.8288-3.9835.7123-2.1482,1.7778-4.108,2.7728-6.1134,1.6175-3.2603,1.6036-3.2792-2.0514-3.344ZM64.5288,71.6816c-2.3576-.7191-3.9664.6109-5.0202,3.0631-.4812,1.1197-1.1929,2.1381-1.7558,3.2254q-2.828,5.4621,3.1411,5.3831c.6131-.0083,1.2345-.0707,1.838.0049,1.1331.1418,1.5405-.3919,1.892-1.4232.7876-2.3107,1.7703-4.5551,2.6802-6.8239q1.3825-3.4469-2.7753-3.4294ZM78.6796,26.7322c9.0138.9493,10.7835.1631,13.1965-5.8001.0766-.1894.1443-.3827.2282-.5688.538-1.1942.526-1.8567-1.1563-1.7741-2.7504.135-5.5129.0839-8.2683.0212-.9663-.022-1.6101.2712-1.8715,1.1763-.67,2.3196-1.8939,4.4796-2.1285,6.9455ZM171.1266,57.0268c1.1013-.3832,3.11.814,4.0098-.4984,1.6025-2.3373,2.3583-5.1583,2.7768-8.0004.1044-.7092-.3579-1.0455-1.0291-1.2711-4.5758-1.538-6.1638-.8705-8.2941,3.5645-.265.5517-.5163,1.1106-.755,1.6743-2.2294,5.2654-2.304,4.5092,3.2917,4.531ZM164.7633,71.668c-1.7218.7184-4.1909-1.1939-5.3595,1.4655-.8124,1.8488-1.3407,3.8205-2.0769,5.7056-.5976,1.5301-.2802,2.1111,1.4761,2.3322,3.9844.5018,6.961-.6293,8.6069-4.4669.6261-1.4598,2.336-2.9039,1.6056-4.3756-.749-1.5092-2.7873-.1794-4.2521-.6609ZM177.968,18.2592c-1.6195.0877-2.7342.1228-3.8444.2126q-5.2073.4212-6.6514,5.5074c-1.1684,4.11-1.166,4.1864,3.185,4.0475,1.3544-.0432,3.162.9437,3.9734-1.1715,1.0495-2.7357,2.1199-5.4633,3.3373-8.5959ZM161.4383,68.7351c2.2186,0,4.0607-.1977,5.8427.045,2.8852.3929,4.1121-.8025,4.8335-3.5386,1.4695-5.5745,1.6068-5.5983-4.3835-4.9563-1.2584.1349-2.9912-.5203-3.6777,1.376-.8198,2.2646-1.6688,4.5187-2.6149,7.0739ZM156.2505,60.7408c-.3053.0136-.6105.0298-.9159.0404-3.0338.1049-6.4633,4.0635-6.086,7.0537.0322.2549.248.6927.3899.6973,2.5354.0826,5.0771.2196,7.6078.1142,1.738-.0724,1.7064-1.8462,2.1889-2.9747,2.0987-4.9087,1.929-5.1272-3.1846-4.9309ZM73.8352,61.0298c-8.343-.707-9.6718.2653-10.3087,7.4141,6.0544,1.4347,9.0621-1.6735,10.3087-7.4141Z"/>
  <path class="cls-5" d="M14.0011,34.3418c2.4686-5.3416,4.9242-10.6891,7.4156-16.0201.5619-1.2023,1.4528-2.3608-.6498-2.9833-.721-.2135-1.3101-.8234-1.0477-1.598.2641-.7795,1.1354-.8747,1.8374-.7074,1.2994.3097,2.5694.773,3.3816-.8198,1.5201-.1113,2.4209-1.3119,3.0006-2.3516,1.2982-2.3285,2.713-4.5824,4.8861-6.0546,1.5797-1.0703,1.7322-2.248,1.4461-3.8071h39.869c-.0507.9074-.1015,1.8148-.152,2.7225-1.6931-.5443-3.4372-.2704-5.1553-.2735q-9.234-.0162-12.1874,8.779c-.0973.2893-.1896.5803-.2925.8675-.6873,1.9184-.499,3.0679,2.0266,2.8489,2.1214-.1839,4.279-.121,6.4086.0172,1.4894.0967,2.5078-.273,3.2534-1.6321,1.9362-3.5288,3.9577-7.0108,5.9451-10.5115,1.4655.6888.1917,2.62,1.5272,3.3678-.9741,3.2615-3.5655,5.7518-4.3417,9.1077-2.6068-.1977-4.1193,1.5993-5.7607,3.1612-3.2892-1.3905-6.7253-.3763-10.0867-.5877-1.1597-.073-.9586,1.1398-1.1483,1.8109-.7107,2.5141-1.3842,5.0323-2.6842,7.3274-1.4212-2.287-2.0577.8553-3.205.4636.4292-1.347.8583-2.6944,1.2875-4.0417.9182-1.2741,1.0553-2.8173,1.4171-4.2705.6324-2.5401-.7285-1.2894-1.6526-.8231-1.8997.0195-3.7993.0389-5.699.0584-.8339-.1221-2.1483-.5807-2.0641.6924.1038,1.5696-1.1216,2.7203-.8748,4.2188-.606.7128-.0935,1.8412-.9186,2.4725-1.7097.06-.7067-2.4299-2.316-2.4643-.2644-.8497.1141-1.6094.369-2.3709.7399-2.2106.4192-3.3386-2.3604-3.2243-2.5153.1034-5.0569-.3925-7.5845-.6484-.7968-.0806-1.6762-.4439-2.1438.5473-1.4089,2.9862-3.4776,5.6873-4.1533,9.1915,2.9231.0824,5.6666-.369,8.3814.1339.1543,1.4253,1.2453,1.3566,2.2018,1.2592,1.4211-.1446,2.176.5951,2.7326,1.7297-2.6224-.017-5.2684.1829-7.8621-.0987-4.6802-.5081-8.5545.1099-9.9386,5.4622-.0415.1604-.284.2687-.4328.4013-.3548-1.5127-1.5623-1.3381-2.6746-1.352ZM38.5426,14.1008c2.5354-2.1663,2.3542-5.5817,3.8003-8.2392.9055-1.6641.2463-2.3648-1.3082-2.7469-2.1737-.3282-4.2754-.1624-6.2446.9115-2.9658,2.3008-4.6977,5.531-6.5021,8.697-.3173.5567-.8317,1.661.244,1.6793,3.1647.0539,6.3916,1.4423,9.505-.2626.1779.1093.3464.0963.5055-.039ZM56.7752,2.9964c-1.9741,0-3.478.0021-4.9819-.0004-4.9853-.0082-5.1292-.0598-6.81,4.6853-.819,2.3122-3.2732,5.3904-1.7798,6.8903,1.6368,1.644,5.203.3414,7.9279.3399.7697-.0004,1.3356-.2915,1.5557-1.1468.9299-3.6141,2.362-7.0591,4.088-10.7682Z"/>
  <path class="cls-4" d="M143.3963,41.7087c-3.3067,1.6735-6.8677,1.2094-10.3706,1.2337,0-.0001-.0168-.0158-.0166-.0157.0373-.4592.0745-.9185.1116-1.3778,1.423.0873,2.8472.1581,4.2686.2669,1.2861.0984,2.3902.0134,3.0343-1.4143,1.1303-2.5055,2.3967-4.9493,3.5814-7.4307.2359-.4942.7527-1.0306-.0818-1.5324-2.2827-1.3725-6.9136.2228-7.9347,2.7445-.9525,2.3526-1.9252,4.6969-2.889,7.0449.0081-2.1624-.6094-4.3871.9562-6.3636.455-.5745.1325-1.362-.578-1.8025-.1761-.827,1.2896-1.9555-.4579-2.494-.9687-2.1591-2.8673-.779-4.3118-1.1091-1.9642-.449-4.7048-.5175-4.113-3.283.5334-2.4931,1.9389-4.9946,3.5604-7.0087,1.8887-2.346,9.7652-2.9566,12.2961-1.2062,2.4516,1.6954,2.4684.3198,2.3332-1.559l5.2312-10.1796c.1279-.2264.2557-.4528.3836-.6792.6852-1.117,1.8506-1.9832,2.0299-3.6699-3.4228.5495-6.6626.7411-9.8609.4695-2.7018-.2295-4.4145.5441-5.1705,3.1833-2.5058,1.2431-3.8799,4.6933-3.2739,8.2204,0,0-.0266.0867-.0273.0863-.499-.1647-1.1611-.268-1.2944.2955-.7018,2.9663-2.8536,3.2101-5.3339,3.0753-1.0506-.0571-2.259-.3374-2.9916.8568-.7428-.0067-1.4855-.0134-2.2283-.02-.305-.2511-.5738-.5839-.9217-.738-1.0566-.4679-2.8567.5371-3.2282-.9557-.4456-1.7906-.4539-3.6379.4754-5.5779,1.2648-2.6406,3.5327-5.0343,2.9374-8.3575,0,0-.0829-.2626-.0829-.2626l.0235-.2744c.8299-.3495,1.307-.9447,1.3041-1.8739h38.0289c-.0027.4352-.0054.8703-.0081,1.3054-1.6624.9601-4.1134-.5853-5.3667,1.8603-1.8033,3.5187-3.8727,6.9025-5.6257,10.4442-.3931.7942-2.3063,2.0912-.2756,2.9049,1.6736.6706,4.0782,1.3315,5.0087-1.0301,1.3498-3.4258,3.3508-6.4514,5.0473-9.6632.7254-1.3733,2.1286-2.5811,1.5952-4.4341,1.5189-.254,2.7246.3748,1.6876,1.8039-.9977,1.3749-.3565,2.379-.2222,3.5656.0126.2354.0252.4709.0378.7063-.1326.0113-.2638.0024-.3937-.0265-1.2-.1341-1.8373.7258-2.3113,1.548-.3508.6085.3866.7253.8494.8457-.9945,2.0492-1.989,4.0985-2.9835,6.1477-2.1906.8227-4.1994,1.9185-5.6918,3.7898-2.2112.8009-5.0388-1.6848-6.8614,1.394-1.3176,2.2256-3.1687,4.1521-3.8293,6.9932,2.2659.104,4.364.2002,6.4622.2965.0404,1.6699.7296,3.0475,1.8958,4.2103-.7438,3.368-3.4699,5.771-4.4033,9.0467ZM122.8966,2.0616c.2369-.0244-.6411-.3421-.8235.6808-.6755,3.789-3.0625,6.8174-4.5251,10.2558-.5995,1.4094-.6847,2.1558,1.2496,2.3657,9.5099,1.0321,9.5052,1.0779,12.9138-7.9035.0721-.1899.1126-.3916.1808-.5831,1.5754-4.4257,1.5754-4.4025-3.2439-4.4648-1.6207-.021-3.2395-.192-5.7518-.3509ZM133.9501,19.0967c-3.5666-.0258-6.8492,3.0757-7.2448,6.8107-.0439.4149-.1831.8733.3397.9512,2.5918.3862,5.1926.9807,7.7882.9708,1.5416-.0059,1.8527-1.9653,2.5297-3.1669q3.1044-5.5103-3.4129-5.5658Z"/>
  <path class="cls-4" d="M34.2709,0c.2861,1.5591.1336,2.7368-1.4461,3.8071-2.1731,1.4722-3.5879,3.7261-4.8861,6.0546-.5797,1.0397-1.4805,2.2403-3.0006,2.3516,1.8818-4.8028,5.2905-8.5153,8.7194-12.2133h.6134Z"/>
  <path class="cls-4" d="M119.5304,63.7953c1.7083-2.1531,4.7864-2.7366,6.1085-5.332,1.2617-.1257,2.5113-.0939,3.7332.2918,2.4973,1.6311,1.764,5.0143,3.7529,6.921-.1174.6294.0501,1.3596-.6326,1.7891-2.1772.9355-4.3965,1.8231-5.0822,4.4591-2.9164-.6295-5.8599-.0043-8.7843-.1924-1.3088-.0842-1.6857.7906-2.1209,1.7613-1.5729,3.5077-3.1991,6.9915-4.8051,10.4844-3.3404,2.3818-9.9525,2.6322-13.39.5929-.7868-.4668-.9171-1.0461-.7236-1.7565.2681-.9846.5556-1.9448.22-2.9646.8047-2.7838,3.7929-4.4203,3.9601-7.5389.3442-.6117,1.2354.333,1.5635-.752-2.1987-.7985-4.5237-.5909-6.6804-.3301-3.8476.4653-6.7839-1.9643-6.802-6.0696-.0432-.5734.1301-1.0602.5746-1.4389,1.3148.2175,2.022-1.6019,3.4433-1.028.0875.853-.2797,1.5718-.6266,2.3181-1.5513,3.337-1.5252,3.262,2.0123,3.8862,1.8236.3218,3.6325.4426,5.4661.4182,2.0832-.0276,6.0342-5.6032,5.3427-7.5597-.083-.2348-.3525-.442-.5844-.5799-1.9499-1.1596-9.7166-.1545-11.6035,1.4866-.1429-4.1972,3.6502-2.9582,5.6032-3.5984,3.5415-1.1609,6.7919.9852,9.9811,2.4525-.5885,1.6714-1.177,3.3426-1.7655,5.014-.6747.648-1.2663,1.4327-.7622,2.3361.329.5895,1.0469.3093,1.5742-.0345,1.6295-.0513,3.259-.1027,4.8884-.154.8518.0403,1.8112.5066,2.3734-.5995.521-.6431,1.042-1.2862,1.563-1.9292,1.9887.3922,2.3416-.7476,2.2003-2.3501l.0023-.003ZM98.5972,83.8631c1.0554.0733,1.5687.0553,2.0598.1513,5.6552,1.1053,9.154-.7598,11.2377-6.5188,1.955-5.4033,2.41-5.3796-3.1819-5.2412-1.4198.0351-3.1881-.6834-4.1698,1.007-1.9602,3.3756-3.8252,6.8064-5.9458,10.6017ZM123.4676,68.7115c.7993,0,1.3082.0176,1.8157-.0029,3.2991-.1335,5.8727-2.6004,5.1188-5.5906-.6146-2.4378-3.2538-1.5373-5.118-1.7513-2.4712-.2837-2.7427,1.9781-3.782,3.3109-.7973,1.0224-2.12,2.3604-1.6238,3.3928.6634,1.3803,2.543.4523,3.5894.6411Z"/>
  <path class="cls-6" d="M91.6554,43.3348c1.0182,0,2.0365-.0058,3.0547.001q4.7799.0316,2.8359,4.5377c-1.165,2.7065-2.4331,5.3771-3.426,8.146-.5785,1.6133-1.4906,2.2414-3.1205,2.2219-3.462-.0416-6.9266-.0769-10.3867.0133-1.7003.0443-1.9388-.6571-1.388-2.0124,1.5308-3.767,3.1407-7.504,4.5689-11.3092.4263-1.1357,1.1235-1.2974,2.0699-1.3033,1.93-.0119,3.8602-.0036,5.7902-.0036.0005-.0971.001-.1943.0016-.2914Z"/>
  <path class="cls-5" d="M28.4762,42.9158c1.0421.0764,2.0842.1527,3.1264.2288-.6429,1.9218-1.3116,3.8355-1.9245,5.767q-2.6001,8.1934,6.2665,7.5205c1.038-.0793,1.7032-.3508,2.1382-1.3297,1.7685-3.9801,3.7997-7.855,4.7387-12.1579,1.5517,1.3461-.308,3.668,1.4195,4.9639-.0353.9552-.4196,1.7709-1.0018,2.5076-.6167.031-1.505-.4161-1.7348.4011-.2174.7732.6876.6634,1.1752.8313-.0996.8556-.2851,1.6782-.8978,2.3366-2.1647,1.5181-4.0155,3.3848-5.8498,5.2697-2.5826-.4133-5.1765-.3094-7.7711-.17-.9288-.2319-1.899-.5625-2.1189.8913-1.0235,2.2656-2.3263,4.4127-2.9096,6.8649-.5076.2724-.3124.7428-.325,1.1546-2.6882.3804-5.0525,2.0292-7.8551,1.994-.4615-.0058-1.1326.2003-.9112.8153.0942.2617.8722.2772,1.3395.4046-1.1881.7826-2.5312.3721-3.8051.4944.0488-1.8611-.9689-1.9225-2.4073-1.5187-1.1004.309-2.3527-.2591-3.5967,1.0918,0-1.0619-.1895-1.6667.0299-2.011,1.7871-2.8045,2.7553-5.7584,2.3628-9.1522-.1647-1.4244.9989-1.8443,2.2487-1.8844-.4383,2.3687-.7722,4.7626-1.3384,7.1003-.9636,3.9785-1.0191,3.3866,3.0298,3.4273,5.5967.0562,9.2389-1.7274,10.4985-7.3892.0211-.0948.0989-.1771.1506-.2649,1.0667-1.8125.5173-2.5488-1.5498-2.5763-3.5631-.0474-7.1245-.2278-10.6866-.3524-.3591-2.0287,1.8992-1.3926,2.4939-2.4502,3.1278.0328,6.2614-.0353,9.3813.1402,1.618.091,2.3414-.5584,2.7807-1.9771,1.1354-3.6671,2.3315-7.3154,3.5033-10.9712Z"/>
  <path class="cls-4" d="M110.8742,58.3399c-1.3145.032-.9466-1.9596-2.2844-1.8996.8502-2.0919,1.7004-4.1837,2.5505-6.2756,1.554-.214,3.6024-3.5461,3.4716-5.5726-.1545-2.3932-1.9831-1.5093-3.2311-1.6301-1.2138-.1175-2.4478-.0265-3.6728-.028-4.1235-.0049-5.5576-2.1391-3.6268-5.868.8037-1.5523.7545-2.8694.3633-4.3664l.0909-.1513c.8492.6187,1.8634.5378,2.8279.6662-.8043,1.9644-1.577,3.9429-2.4246,5.8888-.5063,1.1622-.6245,1.911,1.0521,1.8905,10.5483-.1295,8.9063,1.8905,13.2376-7.3338,1.8699-3.9824,1.7458-4.19-2.6018-4.1861-3.5751.0032-7.5775-.9986-9.2628,3.7262-.5782-3.5359,1.1133-5.6812,4.2512-6.9404.3899.0745.7799.1491,1.1698.2237.0627.0633.1426.1899.185.1784.1489-.0402.285-.1281.426-.1979,2.0431.0705,4.0862.141,6.1294.2115-.0807.9768.5838,1.2968,1.2959,1.7802,1.3484.9152,1.7734,2.9264.9692,3.7548-2.63,2.7093-2.2333,6.9622-5.1681,9.3961-.3332.2763-.577.6926-.1954,1.0002.2584.2083.7705.2622,1.1141.1731.898-.233,1.0609-1.133,1.4469-1.8216.9994.1116,1.9989.2233,2.9983.3349-.068,1.4066.7829,1.7644,1.9567,1.6337,3.3017-.3676,6.1239-.1722,5.6381,4.3656-.0205.1914.3893.4287.5987.6447-.1669.4115-.3339.8231-.5008,1.2346-2.9152.643-3.0348,2.7602-2.6984,5.118-.2024.8292-.4881,1.614-1.1651,2.1907-.8442.0082-1.6884.0164-2.5326.0246l-.2034-.1693c.1321-1.3618.8927-2.4444,1.5165-3.6087,1.1459-2.139,2.2112-4.3247,3.2198-6.5321.4891-1.0705.4407-2.0024-1.1615-1.9947-2.8442.0134-5.6889.0007-8.5328-.0433-1.1271-.0174-1.6553.7243-2.0382,1.5526-1.8706,4.0468-3.5974,8.1541-4.9725,12.4009-.0784.0769-.1573.1535-.2365.2296Z"/>
  <path class="cls-6" d="M61.7143,43.355q6.1775.0218,4.9633,5.8107-1.7947,8.5561-10.438,8.5405-5.4609-.0099-3.2703-5.1392c.5528-1.3048.9914-2.659,1.461-3.998q1.8349-5.2321,7.284-5.214Z"/>
  <path class="cls-6" d="M79.6468,71.1657c1.7308-.0014,3.463.0442,5.1918-.0149,1.5583-.0532,1.7019.5518,1.1003,1.8244-1.4737,3.1176-2.9569,6.2359-4.2598,9.426-.428,1.0479-.8919,1.4378-1.9659,1.3461-3.8337-.3272-7.7235.1424-11.5096-.9872-1.0582-.3157-.6626-.8359-.4667-1.2821,1.3463-3.0659,2.7438-6.1093,4.1285-9.1583.4505-.992,1.321-1.1581,2.2836-1.1545,1.8325.0068,3.6651.0019,5.4976.0005Z"/>
  <path class="cls-6" d="M94.087,1.1173q6.9195.0567,4.0602,5.6302c-.3248.6337-.6189,1.2832-.9238,1.9271-1.0344,2.1838-1.2028,5.7037-3.1654,6.3108-3.1708.981-6.834.3819-10.2895.425-1.3934.0173-1.1091-.9093-.8009-1.6735.9477-2.3493,2.1238-4.6194,2.9069-7.0195,1.4513-4.4476,3.8809-7.0661,8.2125-5.6002Z"/>
  <path class="cls-7" d="M148.1983,45.3485q6.8646-.005,3.9263,6.1232c-.3514.7331-.7434,1.4511-1.0357,2.2074q-1.7829,4.612-6.7515,4.7138c-1.9314.0357-3.8635.0323-5.7952.0477-1.6192.013-2.3163-.5818-1.5383-2.2396,1.5055-3.2085,3.0428-6.4042,4.4458-9.6575.473-1.0969,1.2208-1.2019,2.1728-1.1957,1.5252.0099,3.0506.0027,4.576.0007Z"/>
  <path class="cls-6" d="M47.6477,71.6648c2.7466,0,5.4941.0418,8.2396-.016,1.5954-.0336,2.0476.4545,1.2768,1.9564-1.3004,2.5339-2.5661,5.088-3.7516,7.6769-.3096.6761-.6835.854-1.3459.9361-2.4076.2985-4.811.6369-7.2086,1.0076-1.8745.2898-2.769-.1683-2.049-2.2596.9273-2.6934,1.7414-5.4257,2.6599-8.1222.3355-.9851.8119-1.9414,2.1789-1.1792Z"/>
  <path class="cls-7" d="M126.9741,83.1754c1.1395-3.3661,2.1882-6.4416,3.2199-9.5227.4321-1.2904,1.1597-2.0703,2.6632-2.0171,2.7544.0973,5.5124.1158,8.269.121,1.834.0035,1.7967.5698,1.2702,2.2403-2.0327,6.4494-6.441,9.158-12.9616,8.9857-.3995-.0105-.8009.1429-1.2051.1868-.2858.0311-.5777.006-1.2556.006Z"/>
  <path class="cls-6" d="M106.6826,26.5492c-.4363.0219-.8726.0438-1.3085.0657-.1711-.1587-.3437-.16-.5175-.0039-3.5064-.0011-7.0129-.0022-10.5192-.0032-.3874-.0948-.7749-.1896-1.1625-.2843q2.8256-8.0035,11.2115-7.9895c1.8312.0031,3.6642.0608,5.4931-.0027,1.5294-.0532,1.8411.5359,1.1065,1.7893-1.2305,2.0995-2.4892,4.1825-3.7359,6.2723-.1891.0521-.3783.1042-.5675.1564Z"/>
  <path class="cls-7" d="M186.5975,17.6951q5.4844-.1284,3.6787,4.8501c-.0346.0955-.0551.1961-.0903.2913-2.5868,6.9958-4.3613,7.8074-11.3948,5.379-1.1775-.4066-1.0313-1.1128-.7353-1.8873.9009-2.3574,1.7474-4.7471,2.8357-7.0185,1.3121-2.7385,3.9976-1.0623,5.706-1.6146Z"/>
  <path class="cls-7" d="M156.9476,28.3019c-6.5431.0712-6.4435.1173-3.698-5.8144.9929-2.1452,2.1455-3.1884,4.597-2.9006,2.0116.2362,3.9792-.7255,6.0603-.551,1.3964.1171,1.8754.5516,1.3638,1.8876-.1091.285-.2069.577-.2782.8735q-1.5463,6.4339-8.0449,6.5049Z"/>
  <path class="cls-6" d="M87.4487,29.5961c-1.6381,3.4018-3.1956,6.5696-4.6836,9.7697-.4059.8729-.9831,1.2133-1.8959,1.1644-1.9384-.1039-3.8469.1198-5.7538.4744-2.1443.3987-2.1672-.7845-1.5297-2.2703,1.0747-2.5049,2.6808-4.7693,3.3128-7.4799.2319-.9945,1.1425-1.0122,1.966-1.0682,2.8023-.1906,5.6044-.385,8.5843-.5901Z"/>
  <path class="cls-7" d="M159.9002,43.0666c1.7268-3.9096,3.1629-7.244,4.6779-10.5422.4746-1.0332,7.0756-2.2995,7.9197-1.6059.6254.5139.2895,1.0938.0942,1.6519-1.0432,2.98-2.1358,5.9437-3.12,8.943-.3827,1.1665-1.0382,1.6013-2.2359,1.5705-2.3041-.0592-4.6107-.0173-7.3358-.0173Z"/>
  <path class="cls-2" d="M33.0172,42.3253c.4161.0026.8322.0052,1.2484.0079,2.1455,1.0174,4.4673.2682,6.6747.6658.2879,3.7603-2.2574,6.5652-3.3641,9.8553-.2082.6189-.8137,1.1958-1.3782,1.5862-1.8322,1.267-4.1451,1.3395-5.7001.2334-1.1743-.8354-.6654-2.8779.1287-4.4711,1.1254-2.2577,2.0765-4.6358,1.9621-7.2624.1428-.205.2856-.41.4284-.615Z"/>
  <path class="cls-6" d="M68.6404,28.0431q-4.9067-.0075-2.6522-4.3723c.14-.271.2831-.5405.4253-.8104,2.2881-4.3443,5.6593-5.7397,10.2985-4.3719.7969.235.9859.5715.7816,1.257-.2031.6814-.4754,1.3418-.6931,2.0193-1.9695,6.1289-.5126,6.1246-8.1601,6.2783Z"/>
  <path class="cls-7" d="M181.4174,1.8348c3.655.0647,3.669.0837,2.0514,3.344-.995,2.0054-2.0605,3.9652-2.7728,6.1134-1.0362,3.1251-5.7044,5.1291-8.8288,3.9835-1.0292-.3774-.8974-1.0081-.4902-1.6595,2.3197-3.7104,4.6512-7.414,7.033-11.0846.76-1.1713,2.0561-.5446,3.0073-.6968Z"/>
  <path class="cls-7" d="M171.1266,57.0268c-5.5957-.0218-5.5211.7343-3.2917-4.531.2387-.5637.49-1.1226.755-1.6743,2.1303-4.4351,3.7184-5.1025,8.2941-3.5645.6713.2256,1.1336.5619,1.0291,1.2711-.4185,2.8421-1.1743,5.6631-2.7768,8.0004-.8999,1.3125-2.9085.1152-4.0098.4984Z"/>
  <path class="cls-9" d="M159.1602,1.3874c.5334,1.8531-.8698,3.0608-1.5952,4.4341-1.6965,3.2118-3.6975,6.2374-5.0473,9.6632-.9306,2.3616-3.3352,1.7007-5.0087,1.0301-2.0308-.8137-.1175-2.1107.2756-2.9049,1.753-3.5418,3.8224-6.9255,5.6257-10.4442,1.2533-2.4456,3.7043-.9002,5.3667-1.8603.1056.1308.2334.1581.3833.082Z"/>
  <path class="cls-7" d="M164.7633,71.668c1.4648.4815,3.5031-.8484,4.2521.6609.7305,1.4717-.9795,2.9159-1.6056,4.3756-1.6459,3.8375-4.6225,4.9687-8.6069,4.4669-1.7563-.2212-2.0737-.8022-1.4761-2.3322.7363-1.8851,1.2645-3.8568,2.0769-5.7056,1.1686-2.6595,3.6377-.7471,5.3595-1.4655Z"/>
  <path class="cls-2" d="M49.5745,23.427c-.4292,1.3473-.8583,2.6947-1.2875,4.0417,0-.0003.0351.0566.035.0568-.2159.2-.4317.3998-.6474.5997-.7871.0283-1.5742.0567-2.3613.0851-1.8107-.2207-3.6213-.4414-5.432-.6621-.0329-.591-.0658-1.182-.0988-1.7728.8251-.6312.3126-1.7596.9189-2.4729.7611-.0166,1.5767-.2124,1.4731-1.1005-.1844-1.5823.9757-2.5468,1.4656-3.8102,1.8997-.0194,3.7993-.0389,5.7004-.0593.079,1.6975.1565,3.3961.2341,5.0946Z"/>
  <path class="cls-7" d="M156.2505,60.7409c5.1137-.1964,5.2833.0221,3.1846,4.9308-.4825,1.1285-.4509,2.9023-2.1889,2.9747-2.5307.1054-5.0724-.0316-7.6078-.1142-.1419-.0046-.3577-.4424-.3899-.6973-.3773-2.9902,3.0522-6.9488,6.086-7.0537.3054-.0106.6106-.0268.9159-.0403Z"/>
  <path class="cls-8" d="M16.6758,35.6938c.1488-.1326.3913-.2409.4328-.4013,1.3841-5.3523,5.2584-5.9703,9.9386-5.4622,2.5937.2816,5.2397.0817,7.8621.0987.0818.2733.1636.5467.2455.8194-.1111.1548-.1411.3246-.09.5087-.1841.1274-.2622.3022-.2342.5242-.4297.8165-.8595,1.6329-1.2893,2.4494,0,0,.0056.041.006.041-.5195.2453-.6873.7177-.7932,1.2301-.1125.2271-.2251.4542-.3375.6812-.4507.7747-.9015,1.5496-1.3523,2.3244,0,0,.043.0276.0432.028-.1511.2479-.3024.4955-.4537.743,0,0-.0426.0535-.0426.0534-.2458.1596-.4916.3192-.7374.4788,0,0,.0707-.0534.0706-.0531-2.6246-.3025-5.237-.0695-7.8627.0588-2.323.1135-4.7501.9098-6.9729-.5284.0779-.3562.1559-.7125.2337-1.0688.4221-.8327.8443-1.6655,1.2664-2.4982,0,0,.067-.0272.067-.0272ZM18.2654,37.1285c-.3611.8733.3596.9157.9393.921,3.0654.0279,6.1313.0165,9.1969.0011.6292-.0032,1.3818-.1259,1.4458-.8448.1895-2.1282,3.722-2.9656,2.326-5.517-1.2531-2.2903-3.6659-.703-5.3271-.6588-1.7276.0459-3.6827-.6888-5.2803.213-2.1689,1.2243-2.8077,3.5484-3.3007,5.8856Z"/>
  <path class="cls-8" d="M28.1358,82.1926c-.5024.3003-.523.7636-.4284,1.2659-.1569.1409-.2479.3161-.273.5255,0,0,.0473-.0355.0473-.0353-4.0559.7456-8.1128-.0252-12.1692.008,0,0,.0498.0367.0492.0367-.7927-5.1771,2.2237-8.9239,4.8173-12.8294.4031-.0477.8061-.0954,1.2092-.1431,3.6491-.2959,7.2923-.8286,10.9627-.2732l-.0516.1586s.0837.1442.0838.1443c-1.4904,3.6856-3.6114,7.1308-4.2471,11.1422ZM25.1221,72.3642c-4.0968.0216-6.0608,1.7859-7.4699,5.5232-1.167,3.0952-1.441,4.9386,2.7514,4.4708.4049-.0452.85.4949,1.3103.6785,1.4306.5705,2.565.235,3.9057-.6653,1.9856-1.3335,1.7117-3.546,2.6357-5.2638,2.5412-4.7245,2.4586-4.7689-2.8287-4.7499-.1015.0004-.203,0-.3046.0066Z"/>
  <path class="cls-8" d="M73.9865,2.8179c-1.9875,3.5007-4.009,6.9827-5.9451,10.5115-.7457,1.3591-1.764,1.7288-3.2534,1.6321-2.1296-.1382-4.2872-.2012-6.4086-.0172-2.5256.219-2.7139-.9305-2.0266-2.8489.1029-.2872.1952-.5782.2925-.8675q2.9534-8.7787,12.1874-8.779c1.7181.003,3.4622-.2708,5.1553.2735-.0003-.0003-.0015.0954-.0015.0954ZM71.44,3.8534c-3.4763,0-6.8171-.5084-9.8711.2072-1.61.3773-1.2876,3.4754-2.274,5.1836-2.0676,3.5804-1.652,4.3318,2.4835,4.22,1.6307-.0441,3.982.9617,4.7705-.8139,1.3339-3.004,3.7831-5.368,4.8912-8.797Z"/>
  <path class="cls-6" d="M73.8352,61.0298c-1.2466,5.7407-4.2543,8.8489-10.3087,7.4141.6369-7.1488,1.9657-8.1211,10.3087-7.4141Z"/>
  <path class="cls-8" d="M32.5887,42.9403c.1144,2.6265-.8368,5.0047-1.9621,7.2624-.7941,1.5932-1.303,3.6357-.1287,4.4711,1.555,1.1061,3.8678,1.0336,5.7001-.2334.5645-.3904,1.17-.9673,1.3782-1.5862,1.1067-3.2901,3.652-6.095,3.3653-9.8552.1705-.1201.3398-.2403.5091-.3604.4571.102.9141.2039,1.3712.3059-.9391,4.3029-2.9702,8.1778-4.7387,12.1579-.435.9789-1.1002,1.2504-2.1382,1.3297q-8.8438.676-6.2665-7.5205c.6129-1.9315,1.2816-3.8453,1.9245-5.767.1496-.0245.2268-.1127.2315-.2641.2514.02.503.0399.7545.0598Z"/>
  <path class="cls-8" d="M49.1285,33.1814c.6128-.4254.4789-1.0954.5556-1.6964,2.8214-.4448,5.6544-.2184,8.4847-.1457,0,0-.0315-.0116-.0316-.0117-.2409.7629-.4359,1.5441-.7298,2.2862q-2.5856,6.5283-9.6482,6.2878s-.0217-.0234-.0216-.0234c-.0662-2.3423,1.0143-4.4464,1.3908-6.6968ZM53.1765,33.0631c-1.2525.1413-2.9636-.1588-2.6289,1.8669.2053,1.2427-.351,3.2943,2.1834,3.1343,2.391-.1508,2.3527-2.3673,2.7621-3.6755.5125-1.6377-1.3713-1.1015-2.3166-1.3257Z"/>
  <path class="cls-8" d="M45.156,65.3548c-.4432.373-.5291.8748-.5096,1.4143-.2295.4233-.4592.8466-.6889,1.2701,0,0,.0366-.0726.0368-.0723-2.4586.4185-4.8291-.5968-7.2713-.4482-.0726-.1276-.1803-.1744-.3233-.1405.3314-2.8331,1.7529-5.2774,2.8013-7.8547,0,0-.0104.0066-.0104.0066.8977.1508,1.7944.3084,2.6934.4515q4.6943.7469,3.2721,5.3733ZM42.1648,61.3964c-2.7891-.6764-2.8542,2.0027-3.3658,3.4729-.5608,1.6113,1.2277,1.3612,2.2525,1.3964,2.124.073,3.4124-.8455,3.5908-3.104.1487-1.8818-1.0603-1.8493-2.4775-1.7653Z"/>
  <path class="cls-5" d="M20.1789,71.1639c-2.5936,3.9056-5.61,7.6523-4.8173,12.8294-1.2271-.3081-1.523-2.0375-2.9989-1.9671.4544-2.9994,1.6418-5.7333,3.0033-8.4116.3846-.7566,1.262-1.3682.8345-2.4134,1.3257-.0123,2.6521-.0248,3.9784-.0373Z"/>
  <path class="cls-5" d="M47.7593,39.9015q7.0574.2385,9.6482-6.2878c.2939-.742.4889-1.5232.7298-2.2862.663.0544,1.3616.2875,1.0995,1.0619-1.3433,3.9685-1.4525,8.8436-6.9708,9.8884-.0997.0188-.1387.3584-.2061.5483-.8185.0051-1.6371.0102-2.4556.0153-.0757-1.3185-2.0141-1.4678-1.8449-2.94Z"/>
  <path class="cls-5" d="M45.156,65.3548q1.4225-4.6277-3.2721-5.3733c-.899-.1431-1.7957-.3006-2.6934-.4515,2.5878-.8929,5.2451-1.8357,7.7793-.1113.8824.6005,3.1296-1.24,2.7215,1.5132-.0619,1.5558-.7797,2.8749-1.5114,4.189-1.0683-.7028-1.8842,1.8595-3.0239.2339Z"/>
  <path class="cls-4" d="M123.2828,56.5049c.3054,2.1024-.668,3.0819-2.7177,3.3879-2.7071.4041-5.4125.1067-8.116.2026-1.229.0435-1.4912-.7749-1.5742-1.756.0786-.0756.1575-.1521.2358-.229,2.7428.0516,5.4889.0408,8.2276.1777,1.6921.0845,2.9413-.4431,3.7413-1.9525l.2034.1693Z"/>
  <path class="cls-5" d="M39.2009,59.5234c-1.0484,2.5774-2.4699,5.0217-2.8013,7.8547-1.0216-.0036-2.0433-.0072-3.0652-.0108.1225-.3728.245-.7456.3675-1.1184,1.0579-.7764,2.6467-1.3645,1.0886-3.0689.0308-.6769.0317-1.3629.5686-1.8874.9149-.102,1.6869-.2661.5488-1.2615-.1053-.1954-.0776-.3698.0832-.5229,1.0699.0051,2.1398.0101,3.2098.0152Z"/>
  <path class="cls-5" d="M28.1358,82.1926c.6358-4.0114,2.7567-7.4566,4.2471-11.1422.0897,1.8575.1795,3.7151.2694,5.5729-.4359.9509-.8718,1.9015-1.3076,2.8524-.3547-.5339-.929-1.136-1.2019-.1538-.3492,1.2566-1.1589,2.0423-2.007,2.8708Z"/>
  <path class="cls-5" d="M15.3124,83.9566c4.0564-.0332,8.1133.7377,12.1692-.008-1.3189,3.5024-4.2549,1.4221-6.3125,1.4954-1.6143.0575-3.359-.5883-5.1347-.3406-.5583.0779-.6808-.6277-.722-1.1468Z"/>
  <path class="cls-5" d="M15.1086,39.288c2.2228,1.4381,4.6499.6419,6.9729.5284,2.6257-.1283,5.2381-.3613,7.8627-.0588-1.5071,1.1821-3.3336,1.6018-5.0879,1.2686-2.5997-.4939-5.1252.1937-7.6772.0282-1.0669-.0692-2.7668.4378-2.0706-1.7663Z"/>
  <path class="cls-5" d="M49.1285,33.1814c-.3765,2.2504-1.457,4.3545-1.3908,6.6967-.3216-.173-.9429-.426-.9213-.5071.6693-2.5032-.9178-1.5439-2.0106-1.3359.2397-.8583.4794-1.7166.7191-2.5749.4396-.0073,1.0235.2005,1.2079-.3464.2287-.6785-.4275-.634-.8267-.7638-.069-.486-.0436-.9462.3572-1.3034.955.045,1.9101.0899,2.8651.1349Z"/>
  <path class="cls-5" d="M32.3508,70.7475c-3.6703-.5554-7.3136-.0227-10.9627.2732.3596-1.4369,1.5395-1.0258,2.4877-1.0788,1.4935-.0835,2.9124.0004,4.3838-.8058,1.657-.908,2.8518.7095,4.0912,1.6115Z"/>
  <path class="cls-5" d="M58.1688,31.3393c-2.8303-.0727-5.6633-.2992-8.4847.1457-.0106-.838.3278-1.4969,1.2318-1.3381,1.556.2735,2.8164.8362,4.2375-.9362.6662-.8309,1.7291,1.6924,3.0154,2.1286Z"/>
  <path class="cls-5" d="M36.7229,67.5187c2.4422-.1485,4.8127.8667,7.2713.4482.0367.5971-.1823,1.7084-.3315,1.6049-2.1063-1.4598-5.1446.2779-6.9398-2.0532Z"/>
  <path class="cls-5" d="M39.8813,27.5482c1.8107.2207,3.6213.4414,5.432.6621-1.8343,2.9549-3.6789.4799-5.5196.0105l-.0054-.0052c.031-.2225.0621-.4449.0931-.6674Z"/>
  <path class="cls-5" d="M41.4505,42.6386c-.1693.1202-.3386.2404-.5091.3604-2.2086-.3977-4.5303.3515-6.6759-.666,2.4579-1.3776,4.7798.4418,7.1849.3055Z"/>
  <path class="cls-5" d="M31.0643,38.5075c.4508-.7749.9016-1.5497,1.3523-2.3244-.0549.8876.1925,1.6966.6367,2.4547,0,0-.0138.0161-.0138.0161-.6584-.0488-1.3168-.0976-1.9752-.1464Z"/>
  <path class="cls-5" d="M6.695,55.2874c.4227-.4284.8454-.8568,1.2681-1.2853.4584.3552.5007.7865.1409,1.209-.4205.4936-.9065.6679-1.4091.0763Z"/>
  <path class="cls-5" d="M10.6452,71.841c-1.3269.8195-2.7726.5496-4.1988.4581,1.2949-1.1126,2.8002-.2965,4.1988-.4581Z"/>
  <path class="cls-5" d="M16.6087,35.721c-.4222.8327-.8444,1.6655-1.2664,2.4982.0889-1.0017-.6744-2.4354,1.2664-2.4982Z"/>
  <path class="cls-5" d="M33.5412,34.2307c.4298-.8165.8596-1.6329,1.2893-2.4494-.1005.9899.5765,2.3889-1.2893,2.4494Z"/>
  <path class="cls-4" d="M133.0285,44.6434c-.4126.0362-.8251.0723-1.2377.1084-.0101-.8862.0489-1.7262,1.2181-1.8252,0,0,.0167.0157.0168.0158.001.567.0019,1.134.0028,1.7009Z"/>
  <path class="cls-5" d="M5.5541,65.0108c-.0664-.4814-.0113-.923.4075-1.2455.8617.7416-.0417.9056-.4075,1.2455Z"/>
  <path class="cls-5" d="M26.2568,42.6695c-.3892.0316-.7784.0631-1.1675.0947.3545-.4591.7437-.4905,1.1675-.0947Z"/>
  <path class="cls-5" d="M45.9087,31.1535c-.5373.0813-1.0794.1798-1.435-.3966.5339-.0692,1.0441-.0521,1.435.3966Z"/>
  <path class="cls-5" d="M43.9574,68.0392c.2297-.4234.4594-.8468.6889-1.2701.0343.5667-.0706,1.0577-.6889,1.2701Z"/>
  <path class="cls-4" d="M93.1749,26.3235c.3875.0948.7751.1896,1.1625.2843-.5152.427-.9085.356-1.1625-.2843Z"/>
  <path class="cls-5" d="M32.5887,42.9403c-.2516-.0199-.5031-.0397-.7545-.0598.3945-.1853.7888-.3704,1.1831-.5554-.1429.2051-.2857.4101-.4286.6151Z"/>
  <path class="cls-1" d="M36.0722,26.8715c.208-.3627.4161-.7253.6241-1.0876.1695.5796.221,1.091-.6241,1.0876Z"/>
  <path class="cls-5" d="M32.754,35.5019c.1059-.5123.2737-.9848.7932-1.2301.0666.6235-.1062,1.0926-.7932,1.2301Z"/>
  <path class="cls-4" d="M106.6826,26.5492c.1892-.0522.3784-.1043.5675-.1564-.1192.1036-.2307.2197-.3634.3008-.0281.0172-.134-.093-.2041-.1444Z"/>
  <path class="cls-5" d="M34.0783,38.8681s-.018.2557-.018.2557c-.3402-.1567-.6805-.3134-1.0209-.4701,0,0,.0137-.016.0137-.0161.3418.0768.6834.1536,1.0251.2304Z"/>
  <path class="cls-5" d="M35.0647,31.2571c-.0511-.1841-.0211-.3539.09-.5087-.03.17-.06.3394-.09.5087Z"/>
  <path class="cls-4" d="M104.8565,26.611c.1738-.1561.3464-.1547.5175.004-.1221.0515-.2406.1183-.3676.1452-.0378.008-.0993-.0963-.15-.1491Z"/>
  <path class="cls-5" d="M39.7936,28.2208c-.0446.0772-.0892.1545-.1339.2318.0428-.079.0857-.158.1285-.237,0,0,.0054.0052.0054.0052Z"/>
  <path class="cls-4" d="M118.7844,63.7614c.1138-.1748.2276-.3495.3412-.5239.1348.1862.2697.372.4047.5577,0,0-.0023.003-.0023.003-.2479-.0123-.4958-.0246-.7437-.0368Z"/>
  <path class="cls-5" d="M30.6538,39.2784c.1513-.2475.3026-.4951.4537-.743-.1513.2474-.3025.4952-.4537.743Z"/>
  <path class="cls-5" d="M47.6746,28.1252c.2158-.1999.4315-.3998.6474-.5997-.2157.1999-.4316.3998-.6474.5997Z"/>
  <path class="cls-5" d="M27.4343,83.9839c.0252-.2094.1162-.3846.273-.5255.2317.343.048.4699-.273.5255Z"/>
  <path class="cls-5" d="M29.8737,39.8107c.2458-.1596.4916-.3192.7374-.4788-.2458.1596-.4916.3192-.7374.4788Z"/>
  <path class="cls-2" d="M34.7902,4.0261c1.9691-1.0738,4.0708-1.2397,6.2443-.9115-.1116,1.6882-.3598,3.2774-.9039,4.9575-.623,1.9239-2.0404,3.7858-1.588,6.0287-.1591.1353-.3276.1483-.5064.0389-1.7296-1.2858-3.7126-.3591-5.5572-.6381-.8456-.1279-1.9566.31-2.3438-.8549-.3006-.9043.6016-1.3883.9612-2.0729,1.1667-2.221,3.576-3.7442,3.6938-6.5477Z"/>
  <path class="cls-8" d="M34.7902,4.0261c-.1177,2.8035-2.5271,4.3267-3.6938,6.5477-.3596.6846-1.2618,1.1686-.9612,2.0729.3873,1.1649,1.4982.727,2.3438.8549,1.8446.279,3.8276-.6477,5.5572.6381-3.1125,1.705-6.3394.3166-9.5041.2627-1.0757-.0183-.5614-1.1226-.244-1.6793,1.8044-3.166,3.5364-6.3962,6.5021-8.697Z"/>
  <path class="cls-8" d="M38.5426,14.1008c-.4524-2.2429.965-4.1047,1.588-6.0287.5441-1.6801.7922-3.2693.9039-4.9575,1.5547.3821,2.2139,1.0828,1.3084,2.7469-1.4461,2.6575-1.2649,6.073-3.8003,8.2392Z"/>
  <path class="cls-8" d="M49.5745,23.427c-.0776-1.6985-.1551-3.397-.2341-5.0946.9227-.4653,2.2837-1.7159,1.6512.8241-.3618,1.4532-.4989,2.9964-1.4171,4.2705Z"/>
  <path class="cls-8" d="M43.64,18.3918c-.4899,1.2634-1.65,2.228-1.4656,3.8102.1035.8881-.7121,1.0839-1.4731,1.1005-.247-1.498.9784-2.6487.8746-4.2183-.0842-1.2731,1.2302-.8145,2.0641-.6924Z"/>
  <path class="cls-9" d="M122.8966,2.0616c2.5123.1589,4.1311.33,5.7518.3509,4.8193.0623,4.8192.0392,3.2439,4.4648-.0682.1916-.1088.3932-.1808.5831-3.4086,8.9814-3.4039,8.9356-12.9138,7.9035-1.9342-.2099-1.8491-.9563-1.2496-2.3657,1.4626-3.4384,3.8496-6.4668,4.5251-10.2558.1823-1.023,1.0604-.7052.8235-.6808Z"/>
  <path class="cls-5" d="M133.0197,30.5678c-1.6207-.1215-3.3013-.0119-4.8497-.4128-3.1728-.8216-4.5739.6784-5.6205,3.4024-.9787,2.5471-2.3585,4.9399-3.5617,7.4007-.3861.6886-.549,1.5886-1.4469,1.8216-.3436.0891-.8557.0352-1.1141-.1731-.3815-.3076-.1378-.7239.1954-1.0002,2.9347-2.4339,2.538-6.6867,5.1681-9.3961.8042-.8285.3793-2.8396-.9692-3.7548-.7122-.4834-1.3766-.8034-1.2959-1.7802,2.7694-.1885,6.5348-4.0565,6.7567-6.8264.0772-.9631-.5464-.8133-1.077-1.0486-.883-.3917-2.095.4793-2.7282-.7403.7326-1.1942,1.941-.9139,2.9916-.8568,2.4803.1349,4.6322-.109,5.3339-3.0753.1333-.5636.7954-.4602,1.2944-.2955-.3119,1.2333-.6146,2.2499,1.4135,2.2164,3.0887-.0509,6.1826.2192,9.2744.353.1352,1.8787.1184,3.2544-2.3332,1.559-2.531-1.7504-10.4074-1.1398-12.2961,1.2062-1.6215,2.0141-3.027,4.5157-3.5604,7.0087-.5917,2.7655,2.1488,2.834,4.113,3.283,1.4445.3302,3.3431-1.0499,4.3118,1.1092Z"/>
  <path class="cls-9" d="M133.9501,19.0967q6.5022.047,3.4129,5.5658c-.677,1.2016-.9881,3.161-2.5297,3.1669-2.5956.01-5.1964-.5846-7.7882-.9708-.5229-.0779-.3837-.5363-.3397-.9512.3956-3.735,3.6781-6.8365,7.2448-6.8107Z"/>
  <path class="cls-9" d="M133.0995,41.2278c.9638-2.348,1.9365-4.6923,2.889-7.0449,1.0211-2.5217,5.652-4.117,7.9347-2.7445.8345.5018.3177,1.0382.0818,1.5324-1.1847,2.4814-2.4511,4.9252-3.5814,7.4307-.6441,1.4277-1.7482,1.5127-3.0343,1.4143-1.4213-.1088-2.8456-.1796-4.2687-.267,0-.0001.0329-.1634.0329-.1634,0,0-.054-.1576-.0541-.1576Z"/>
  <path class="cls-5" d="M133.0995,41.2278l.054.1576s-.033.1633-.0329.1634c-.037.4594-.0742.9187-.1115,1.3779-1.1694.0988-1.2285.9389-1.2183,1.8251-.537,1.0617-1.0741,2.1234-1.6111,3.1852-.2094-.216-.6192-.4533-.5987-.6447.4859-4.5378-2.3364-4.7332-5.6381-4.3656-1.1739.1307-2.0247-.2271-1.9567-1.6337.5045-.0254,1.0104-.0881,1.5134-.0708q6.5518.2258,8.8936-6.0369c.2776-.7394.719-1.4173,1.0845-2.1236.7105.4405,1.033,1.228.578,1.8025-1.5656,1.9765-.9481,4.2012-.9562,6.3636Z"/>
  <path class="cls-5" d="M135.3979,5.5258c-.8613,2.8316-1.6759,5.6818-3.2746,8.2198-.6053-3.5265.7688-6.9766,3.2746-8.2198Z"/>
  <path class="cls-3" d="M160.2696,7.4367c-.2236.9589-.7533,1.7309-1.4619,2.3937-.4629-.1203-1.2003-.2372-.8495-.8456.474-.8222,1.1113-1.6821,2.3113-1.548Z"/>
  <path class="cls-9" d="M98.5972,83.8631c2.1207-3.7953,3.9856-7.2262,5.9458-10.6017.9817-1.6904,2.75-.9719,4.1698-1.007,5.5919-.1384,5.1369-.1621,3.1819,5.2412-2.0836,5.759-5.5824,7.6241-11.2377,6.5188-.4911-.096-1.0045-.078-2.0598-.1513Z"/>
  <path class="cls-9" d="M93.872,62.6614c1.8869-1.6411,9.6536-2.6461,11.6035-1.4866.2319.1379.5014.3451.5844.5799.6916,1.9565-3.2594,7.532-5.3427,7.5597-1.8336.0243-3.6425-.0964-5.4661-.4182-3.5375-.6243-3.5636-.5492-2.0123-3.8862.3469-.7463.7142-1.4652.6266-2.3181,0,.0009.0065-.0304.0065-.0304Z"/>
  <path class="cls-9" d="M123.4676,68.7115c-1.0465-.1889-2.926.7392-3.5894-.6411-.4962-1.0324.8265-2.3704,1.6238-3.3928,1.0393-1.3327,1.3108-3.5946,3.782-3.3109,1.8642.214,4.5034-.6865,5.118,1.7513.7539,2.9902-1.8196,5.4571-5.1188,5.5906-.5074.0205-1.0164.0029-1.8157.0029Z"/>
  <path class="cls-3" d="M118.7844,63.7614c.2479.0122.4958.0245.7437.0368.1413,1.6026-.2116,2.7424-2.2003,2.3502.2162-.9602.7408-1.732,1.4567-2.387Z"/>
  <path class="cls-8" d="M10.3171,58.174c3.5621.1246,7.1235.3051,10.6866.3524,2.0671.0275,2.6166.7638,1.5498,2.5763-.0517.0879-.1295.1701-.1506.2649-1.2597,5.6618-4.9018,7.4455-10.4985,7.3892-4.049-.0408-3.9934.5512-3.0298-3.4273.5662-2.3377.9001-4.7316,1.3384-7.1003-.0001,0,.1041-.0553.1041-.0553ZM15.9094,60.1091c-3.9567-.0041-5.8862,2.0314-5.5399,5.5737.0589.6029-.0041,1.4889.6462,1.5447,2.2617.1942,4.8249,1.0828,6.6791-.5716,1.477-1.3178,3.2415-3.3402,2.7677-5.3209-.5554-2.3215-3.152-.7903-4.5531-1.2258Z"/>
  <path class="cls-3" d="M43.2393,50.416c-.1865.4108-.3731.8216-.5596,1.2324-.4876-.1679-1.3926-.0581-1.1752-.8313.2298-.8172,1.1181-.3701,1.7348-.4011Z"/>
  <path class="cls-9" d="M123.0795,56.3356c-.8,1.5094-2.0492,2.037-3.7413,1.9525-2.7387-.1369-5.4847-.1261-8.2276-.1777,1.3752-4.2468,3.102-8.3542,4.9726-12.401.3829-.8283.9111-1.57,2.0382-1.5526,2.8439.044,5.6886.0567,8.5328.0433,1.6022-.0076,1.6506.9243,1.1615,1.9947-1.0086,2.2075-2.0738,4.3932-3.2198,6.5321-.6237,1.1643-1.3844,2.2469-1.5165,3.6087Z"/>
  <path class="cls-9" d="M107.3638,33.2001c1.6853-4.7248,5.6877-3.723,9.2628-3.7262,4.3476-.0039,4.4717.2038,2.6018,4.1861-4.3313,9.2244-2.6893,7.2043-13.2376,7.3338-1.6766.0206-1.5584-.7283-1.0521-1.8905.8477-1.9459,1.6203-3.9244,2.4246-5.8888.0001.0004.0005-.0145.0005-.0145Z"/>
  <path class="cls-5" d="M129.6789,49.1715c-.6528,1.836-1.4821,3.579-2.6984,5.1179-.3364-2.3576-.2168-4.4749,2.6984-5.1179Z"/>
  <path class="cls-5" d="M112.7848,26.4835c.2036-.0066.4072-.0131.6109-.0196-.1408.0698-.2769.1577-.4258.1979-.0425.0115-.1223-.1151-.185-.1783Z"/>
  <path class="cls-3" d="M45.9062,34.35c.3992.1298,1.0554.0853.8267.7638-.1844.547-.7683.3392-1.2079.3464.1271-.3701.2542-.7402.3812-1.1102Z"/>
  <path class="cls-3" d="M34.7905,63.1801c1.5581,1.7045-.0307,2.2925-1.0886,3.0689.3629-1.023.7257-2.046,1.0886-3.0689Z"/>
  <path class="cls-3" d="M35.908,60.0312c1.138.9954.366,1.1595-.5488,1.2615.183-.4205.3659-.841.5488-1.2615Z"/>
  <path class="cls-2" d="M18.2654,37.1285c.493-2.3372,1.1317-4.6613,3.3007-5.8856,1.5976-.9018,3.5527-.167,5.2803-.213,1.6611-.0442,4.074-1.6314,5.3271.6588,1.3959,2.5514-2.1365,3.3888-2.326,5.517-.064.7189-.8166.8416-1.4458.8448-3.0656.0155-6.1315.0268-9.1969-.0011-.5797-.0053-1.3004-.0477-.9393-.921Z"/>
  <path class="cls-2" d="M25.1221,72.3609c.1015-.0033.203-.0029.3046-.0033,5.2873-.0191,5.3699.0253,2.8287,4.7499-.924,1.7179-.6501,3.9304-2.6357,5.2638-1.3407.9003-2.4752,1.2358-3.9057.6653-.4603-.1835-.9054-.7237-1.3103-.6785-4.1923.4678-3.9183-1.3756-2.7514-4.4708,1.409-3.7373,3.373-5.5015,7.4699-5.5265Z"/>
  <path class="cls-2" d="M71.44,3.8534c-1.1081,3.429-3.5573,5.793-4.8912,8.797-.7884,1.7756-3.1397.7698-4.7705.8139-4.1355.1118-4.5512-.6396-2.4835-4.22.9864-1.7082.6641-4.8064,2.274-5.1836,3.054-.7156,6.3948-.2072,9.8711-.2072Z"/>
  <path class="cls-2" d="M53.1765,33.0631c.9452.2243,2.8291-.312,2.3166,1.3257-.4094,1.3082-.3711,3.5247-2.7621,3.6755-2.5344.16-1.9781-1.8917-2.1834-3.1343-.3347-2.0257,1.3764-1.7256,2.6289-1.8669Z"/>
  <path class="cls-2" d="M42.1648,61.3964c1.4173-.084,2.6262-.1165,2.4775,1.7653-.1785,2.2585-1.4668,3.177-3.5908,3.104-1.0248-.0352-2.8133.2149-2.2525-1.3964.5116-1.4701.5768-4.1492,3.3658-3.4729Z"/>
  <path class="cls-2" d="M15.9094,60.1091c1.4011.4356,3.9977-1.0957,4.5531,1.2258.4739,1.9807-1.2907,4.0031-2.7677,5.3209-1.8542,1.6544-4.4174.7659-6.6791.5716-.6503-.0558-.5873-.9418-.6462-1.5447-.3463-3.5422,1.5832-5.5777,5.5399-5.5737Z"/>
</svg>