<?xml version="1.0" encoding="UTF-8"?>
<svg id="Layer_1" xmlns="http://www.w3.org/2000/svg" viewBox="0 0 154.6005 76.547">
  <defs>
    <style>
      .cls-1 {
        fill: #141814;
      }

      .cls-2 {
        fill: #b0d359;
      }

      .cls-3 {
        fill: #b8d433;
      }

      .cls-4 {
        fill: #809e8f;
      }
    </style>
  </defs>
  <path class="cls-1" d="M130.7928,13.7422c3.7821.3073,6.5156.6505,9.2556.7141,2.2146.0515,4.5475.1472,6.6307-.4569,3.3346-.9669,6.3427-.6189,7.5604,2.6132,1.2723,3.3769-.9774,5.4368-4.2638,6.4914-1.296.4159-2.6905,1.1915-3.5386,2.2178-3.2582,3.9427-6.3132,8.0533-9.1243,11.688,4.0588,2.0863,9.2158,4.6185,14.2236,7.4173.9346.5223,1.8406,2.1927,1.7045,3.1892-.1102.8076-1.7411,1.5282-2.8111,2.0579-1.9632.9718-4.1707,1.5239-5.9938,2.6922-7.0191,4.4981-14.9548,5.5351-22.9489,6.2802-9.0971.8479-18.2131,1.4988-27.3258,2.1692-1.8058.1328-3.6411-.1492-5.4493-.0319-2.0909.1357-4.3343.082-6.222.8357-11.6706,4.6594-22.9398,10.7593-34.9899,13.8778-7.8353,2.0276-16.9369.7474-25.1687-.733-11.0244-1.9826-12.0479-9.0693-3.2311-19.1708-7.3781-2.1095-13.6028-5.6798-16.8895-12.8885-.8188-1.7961-1.5684-3.6961-1.9072-5.6261-1.3702-7.8048,1.9095-11.0525,9.5842-9.6651,1.7314.313,3.4527.6825,5.1542,1.0211.2098-.6751.4347-1.001.3718-1.256-.984-3.9922-3.0383-8.4295.606-11.7075,4.7375-4.2614,10.8396-3.5557,16.654-2.6533,10.9172,1.6943,20.8832,7.0479,29.4636,12.838,7.7517,5.2308,14.1888,2.1723,20.0287.7272,6.4318-1.5915,11.9952-7.4307,17.4681-11.9831,7.8463-6.5264,15.9969-11.929,26.6716-12.0742.7946-.0108,1.5222-1.1127,2.3768-1.3287,1.8343-.4637,3.7313-.6799,5.6025-.9974-.0337,2.2422.3664,4.6044-.2122,6.6959-.7067,2.5552-2.2346,4.8832-3.2802,7.0463ZM117.2163,23.1958c-1.3597.4322-2.7193.8644-4.0789,1.2966-2.6046.3944-5.2935.5016-7.7976,1.2376-7.1602,2.1045-14.1039,5.4853-21.3918,6.4951-12.2921,1.7031-24.8163,1.6565-37.1779,2.9613-6.6196.6988-13.6262-1.4368-19.9227,2.5197-.9105.5721-2.8334-.2489-4.2101-.6758-5.3615-1.6625-10.6915-3.4259-16.2019-5.2062-1.1234,8.3307,3.827,14.4311,11.9182,17.5875,16.0926,6.278,32.288,1.4192,48.3105.4622,12.4792-.7454,24.7965-4.2596,37.1692-6.6301,1.0494-.2011,1.973-1.0587,2.9551-1.6113,4.8201-1.7396,9.6401-3.4793,14.4601-5.2189,5.113-2.5907,10.2259-5.1813,15.3389-7.7719.2515.0064.4741-.0708.6675-.2317,1.3818-2.5662,2.7637-5.1324,4.1455-7.6985-1.6588-.8342-3.3879-2.4898-4.9638-2.3549-5.6431.4832-11.2507,1.4842-16.8286,2.5222-.9094.1692-1.6,1.5151-2.3917,2.3171ZM85.643,53.2136c-14.1854,1.5426-26.8917,3.1472-39.6429,4.2155-6.2421.523-12.5676.0208-18.8553.0374-3.4863.0092-9.8924,4.7176-9.2657,7.515.433,1.9332,3.244,4.5277,5.1971,4.7173,7.9478.7713,16.3655,2.3728,23.8772.5867,10.2908-2.4469,19.9556-7.6004,29.801-11.7996,2.7872-1.1888,5.2687-3.0947,8.8888-5.2722ZM88.765,57.0939c11.7217-1.0619,22.2781-1.661,32.719-3.0993,6.1648-.8492,12.1803-2.9138,18.181-4.7063,1.1457-.3423,2.1517-1.8562,2.7083-3.0659.1826-.3968-1.1229-2.0232-1.981-2.2673-6.4647-1.8389-12.7647-4.2163-19.7303-1.0476-5.6921,2.5895-11.74,4.8233-17.862,5.9169-5.6695,1.0128-9.2031,4.4272-14.035,8.2696ZM55.8658,29.431c.0862-.3925.1723-.785.2584-1.1775-4.5842-2.2615-8.9884-5.0757-13.7987-6.6435-5.9099-1.9261-12.1207-3.0566-18.2811-4.0213-2.3416-.3666-5.407.3262-4.7247,4.0488.58,3.1644-.3373,7.6797,4.8992,7.7508,10.5473.1433,21.0978.0426,31.647.0426ZM100.1793,20.475c.0973.4699.1945.9399.2917,1.4099,6.8118-2.2771,13.5389-4.8738,20.4673-6.7115,4.1632-1.1042,5.1321-3.6974,5.9268-7.6257-11.5459-.1541-18.9045,6.82-26.6859,12.9273Z"/>
  <path class="cls-3" d="M137.2548,28.4099c-.1934.1609-.416.2381-.6667.231-4.3542,1.5796-8.7589,3.0416-13.0278,4.8277-1.0053.4206-1.5534,1.9342-2.3118,2.9449-4.82,1.7396-9.6401,3.4793-14.4611,5.2189-2.4112-.2318-4.9442-1.0603-7.2108-.594-10.9572,2.2545-21.7605,5.3537-32.7797,7.1803-8.9334,1.4808-18.0873,1.9224-27.1603,2.1514-4.6669.1178-9.442-2.0848-14.0395-1.7001-5.3058.4439-8.0798-3.2759-11.7845-5.3319-1.976-1.0966-3.0299-3.8547-4.5-5.8629.3764-.5422.7527-1.0843,1.1291-1.6265,2.4331.7936,4.8268,1.7541,7.309,2.3402,3.4203.8078,6.9854,2.1298,10.3486,1.8011,5.7405-.5611,11.3506-3.1307,17.0539-3.2684,15.8029-.3814,31.6389.0849,47.0456-4.2998,6.0976-1.7353,12.1292-3.7135,18.1408-5.73,1.0593-.3554,1.8715-1.4476,2.7979-2.1996,1.3596-.4322,2.7192-.8644,4.0778-1.2951,4.4095-.3435,8.95-.1413,13.2028-1.1511,8.0092-1.9017,8.0801-2.0737,6.8375,5.8682-.0253.1613-.0015.3302-.0006.4955Z"/>
  <path class="cls-2" d="M113.1374,24.4923c-.9263.752-1.7385,1.8442-2.7979,2.1996-6.0117,2.0165-12.0432,3.9947-18.1408,5.73-15.4067,4.3847-31.2427,3.9184-47.0456,4.2998-5.7032.1377-11.3134,2.7072-17.0539,3.2684-3.3632.3287-6.9283-.9933-10.3486-1.8011-2.4821-.5862-4.8759-1.5467-7.309-2.3402-.3763.5422-.7527,1.0843-1.1291,1.6265,1.4701,2.0082,2.524,4.7663,4.5,5.8629,3.7047,2.056,6.4787,5.7758,11.7845,5.3319,4.5975-.3847,9.3726,1.818,14.0395,1.7001,9.0731-.229,18.2269-.6706,27.1603-2.1514,11.0192-1.8266,21.8225-4.9258,32.7797-7.1803,2.2665-.4663,4.7996.3622,7.2108.594-.9811.5526-1.9047,1.4102-2.9541,1.6113-12.3727,2.3704-24.6899,5.8847-37.1692,6.6301-16.0225.957-32.218,5.8158-48.3105-.4622-8.0911-3.1564-13.0415-9.2569-11.9182-17.5875,5.5104,1.7803,10.8405,3.5437,16.2019,5.2062,1.3767.4269,3.2996,1.2479,4.2101.6758,6.2966-3.9565,13.3031-1.8209,19.9227-2.5197,12.3616-1.3048,24.8858-1.2582,37.1779-2.9613,7.2879-1.0098,14.2316-4.3906,21.3918-6.4951,2.5042-.736,5.1931-.8432,7.7976-1.2376Z"/>
  <path class="cls-4" d="M88.765,57.0939c4.832-3.8424,8.3655-7.2568,14.035-8.2696,6.122-1.0936,12.1699-3.3274,17.862-5.9169,6.9656-3.1687,13.2656-.7913,19.7303,1.0476.8582.2441,2.1636,1.8705,1.981,2.2673-.5566,1.2098-1.5626,2.7237-2.7083,3.0659-6.0007,1.7925-12.0162,3.8571-18.181,4.7063-10.4409,1.4383-20.9973,2.0374-32.719,3.0993Z"/>
  <path class="cls-4" d="M55.8658,29.431c-10.5492,0-21.0997.1006-31.647-.0426-5.2365-.0712-4.3192-4.5864-4.8992-7.7508-.6823-3.7226,2.3832-4.4154,4.7247-4.0488,6.1605.9646,12.3712,2.0951,18.2811,4.0213,4.8103,1.5677,9.2145,4.3819,13.7987,6.6435-.0861.3925-.1722.785-.2584,1.1775Z"/>
  <path class="cls-2" d="M137.2548,28.4099c-.0009-.1653-.0247-.3343.0006-.4955,1.2426-7.9419,1.1717-7.7699-6.8375-5.8682-4.2528,1.0098-8.7933.8076-13.2028,1.1511.7928-.8034,1.4833-2.1493,2.3928-2.3186,5.5778-1.0379,11.1854-2.0389,16.8286-2.5222,1.5759-.1349,3.305,1.5206,4.9638,2.3549-1.3818,2.5662-2.7637,5.1323-4.1455,7.6985Z"/>
  <path class="cls-2" d="M121.2485,36.4135c.7584-1.0108,1.3065-2.5243,2.3118-2.9449,4.2689-1.7861,8.6736-3.2481,13.0278-4.8277-5.1138,2.5914-10.2267,5.182-15.3397,7.7727Z"/>
</svg>