<?xml version="1.0" encoding="UTF-8"?>
<svg id="Layer_1" xmlns="http://www.w3.org/2000/svg" viewBox="0 0 289.2478 220.3326">
  <defs>
    <style>
      .cls-1 {
        fill: #c3c3c1;
      }

      .cls-2 {
        fill: #fff;
      }

      .cls-3 {
        fill: #998847;
      }

      .cls-4 {
        fill: #f3f1f0;
      }

      .cls-5 {
        fill: #f284b5;
      }

      .cls-6 {
        fill: #d3d3d1;
      }

      .cls-7 {
        fill: #b0b0ad;
      }

      .cls-8 {
        fill: #a39568;
      }
    </style>
  </defs>
  <path class="cls-5" d="M237.1193,148.2116c-.9263.0266-1.8613.1466-2.7775.0626-2.9502-.2709-5.8913-.6395-8.8401-.9273-2.5826-.252-5.1686-.5858-7.7573-.6289-2.9888-.0497-5.9022-.5089-8.8287-1.012-1.8226-.3133-3.6702-.495-5.5123-.6778-2.4901-.2472-4.9874-.4211-7.4784-.6593-2.6744-.2558-5.3509-.5044-8.0155-.8426-1.854-.2353-3.7168-.464-5.5298.0171-1.2978.3444-2.1506-.0342-2.8643-1.0461-.166-.399-.2345-.8964-.5183-1.1725-.5097-.4959-1.1486-.8589-1.7336-1.2774,0,0,.0175.0299.0174.0298-.2082-.3737-.4163-.7473-.6244-1.1208,0,0,.0138.0381.0139.0381.0515-.7386.529-1.1336,1.1348-1.4438.5825-.2983,1.1608-.6172,1.1313-1.4133l-.0148.0187c1.3839-1.0915,1.4101-1.4453.1682-2.2673,0,0-.1205-.1324-.1206-.1305.0562-1.1177-1.2891-1.2513-1.5326-2.0793.1692-1.7638,1.2542-2.6392,2.8268-3.3762.3173.5058.7943.9235.8257,1.3725.1869,2.6719.9679,5.2939.6789,8.0061-.0487.4571.0053.9266.0291,1.3895.0216.4195.2099.6818.8255.6106.0759-.4841.206-1.0049.2321-1.5308.1756-3.5364-.2109-7.0163-1.1054-10.4409,2.3559-.5512,4.7553-.5883,7.1569-.6317.4531-.0082.901-.1901,1.3552-.2698,1.4543-.255,2.9024-.6325,4.3675-.7214,3.319-.2014,6.6402-.0178,9.9702-.5004,2.7242-.3947,5.5176-.2276,8.2909-.5521,2.139-.2502,4.3407-.7513,6.5497-.3725.1051.018.2565-.2347.3864-.3614,1.8569.0098,3.716-.0344,5.5701.0428,2.4309.1013,4.7943-.3027,7.1576-.7684.5433-.107,1.0888-.2771,1.6349-.2837,3.8075-.0468,7.6156-.0898,11.4232-.0662,1.6207.0101,2.3412.5762,2.6771,2.2485.4717,2.3479.7813,4.7294,1.1185,7.1024.0467.3286-.1453.6913-.2393,1.091-1.249.4047-2.4538.2013-3.6415.2079-.1731-.7129-.3456-1.4259-.5193-2.1387-.2576-1.0569-.516-2.1137-.8037-3.292-2.1666-.064-4.1711-.1232-6.2601-.1848-.1801-.6614-.266-1.199-.4712-1.6863-.4899-1.1631-1.4116-1.7114-2.6346-1.5792-1.2957.14-1.6237,1.0403-1.6117,2.1727-.4014.1182-.9611.1305-.8798.7211.0385.2799.3392.6111.6081.7479.2817.1433.6677.0814,1.0081.1092,1.363.2437,2.7288.4733,4.0881.7365.8161.158,1.648.2981,2.4215.5848.3876.1437.8191.541.9548.922.3963,1.1122.6538,2.2739.9575,3.3864-1.1971.6718-1.532.6715-1.8795-.0225-.2481-.4955-.3926-1.042-.6287-1.5445-.5723-1.2176-1.9133-1.3533-2.5918-.2024-.3603.6112-.4606,1.3758-.6908,2.1114.5529.7008,1.0594,1.3428,1.4028,1.778,1.9144-.0847,3.5667-.1557,5.2187-.232.4626-.0214.9268-.0381,1.386-.0926.6352-.0754.9426-.5213,1.1291-1.0805,1.1627.0003,2.3624-.3016,3.5604.3611.5493,3.5156-.8557,6.712-1.431,10.0033-.2156,1.2331-.9387,2.3775-1.4304,3.5623-.8406-.0463-1.6812-.0926-2.5229-.1385-.378-.4655-.7795-.5085-1.2088-.0695-1.4587-.1641-2.9174-.3281-4.3773-.4919-.3653-.4442-.7609-.5281-1.2009-.1048ZM228.1879,139.4622c.2092.2369.4184.4739.6275.7108l.0641.161s-.0134.1727-.0145.1752c-1.8124.9854-3.8014.6084-5.7242.7424-.1784-.5248-.3033-1.0759-.5456-1.5692-.634-1.2907-1.6676-1.9592-3.1408-1.8049-.5341.0559-1.062.17-1.7743.2874-.1239,1.6277.5041,2.9385.9634,4.2186.7871.3592,1.4642.6532,2.1279.9747.9524.4614,1.8948.5196,2.9608.3269,2.194-.3965,4.4174-.3517,6.6278.014.4447.0736.9215.155,1.3533.0731,2.6499-.5024,2.9557-1.2795,1.5223-3.7345-.4015-1.3065-.7679-2.6252-1.2167-3.9152-.2998-.8617-.8972-1.6527-1.0424-2.5283-.2769-1.67-1.2579-2.0934-2.7334-1.9502-.9771-.7925-2.1464-.4821-3.225-.48-1.8756.0035-3.7019-.1454-5.4037-.8496-.6527-1.0359-1.2844-2.0386-1.9091-3.0302-1.0006,0-1.8406-.0806-2.6527.0345-.3962.0562-.8805.3964-1.0833.7476-.7124,1.2341-.2144,2.8623.9573,3.6179,1.3041.8409,2.6968,1.223,4.2421.9951.7444.0313,1.4933.0214,2.2324.1018,1.9034.2072,3.5608.8164,4.3299,2.8033.2472.6388.6733,1.1137,1.4038,1.2147,0,0-.0213.2009-.0212.2009.2048.6458.4096,1.2916.6122,1.9376.154.1748.308.3496.462.5244ZM199.6587,132.7372l.0561-.001c-.1891.994.3377,1.7925.7147,2.6335.424.9458.6648,1.8915-.0402,2.9894-.8097-.3753-1.5344-.7111-2.259-1.047-.0833-.5407-.1666-1.0815-.2499-1.6222.0693-.6472.1718-1.3026-.5904-1.9039-1.3544.2522-2.9959-.1319-4.2927,1.3684.0572.7377.1133,1.5572.1864,2.3751.0693.7752.1566,1.5488.2504,2.4646h2.5829l7.6726.6599c1.1829.9013,2.3665.5288,3.4767.1874.8179-2.4511-.2957-4.7222.0934-6.9888-.5776-.7948-.7114-1.8657-1.537-2.4971-.1109-.0848-.3539.0031-.5357.0109-2.6827-.1067-5.3655-.2134-8.1023-.3222-.4848-.9461-.9334-1.8539-1.4115-2.746-.5226-.9753-1.4166-1.1137-2.3973-.9884-.7116.091-1.2408.4719-1.3716,1.1894-.1869,1.0259-.3016,2.2317.7102,2.7822,1.3258.7215,2.6065,1.8925,4.3563,1.3084.8959.0491,1.7918.0982,2.6877.1473ZM182.6341,141.2479c-.1903.2621-.3808.5246-.5713.7871.1532.0906.3044.2531.4601.2576.4033.0118.7415-.1486.6646-.6319-.0194-.1215-.266-.2068-.5534-.4128Z"/>
  <path class="cls-7" d="M50.5631,120.9468c.2425,1.9171.3923,3.8254.991,5.7105.4944,1.5568.4565,3.2827.6521,4.9339-.5507.1343-.814.5115-.8933,1.0471-.2026.2179-.4054.4342-.6082.6504-.3216.1969-.6432.3937-.9647.5907-.3192-1.2806-.6383-2.5612-.9587-3.8418.2899-.281.6546-.5182.8541-.8537.2621-.4409.394-.9592.582-1.4442-.3539-1.3195-.7078-2.6389-1.0618-3.9584.45-1.3648.4534-1.3898-.6026-1.8972-.3212-.1544-.6913-.2072-1.039-.3066-.247-.6975-.494-1.395-.8075-2.2803-1.2701-.5275-2.6472-1.0704-3.9988-1.6706-.9683-.4301-1.7333-1.4462-3.0286-.8734-.2138.0946-.658-.2557-.9618-.4527-3.1165-2.0216-6.2328-4.0436-9.3306-6.0936-.5378-.356-1.007-.8243-1.4762-1.2739-1.7466-1.6738-3.5682-3.2814-5.1914-5.0686-1.368-1.5062-2.669-3.1273-3.6985-4.8751-1.7451-2.9627-3.427-5.988-4.8193-9.1273-2.0451-4.6106-3.4601-9.4277-3.499-14.5485-.0092-1.2173-.1033-2.3358-1.0897-3.3214-.9533-.9526-.9316-2.4105-1.0675-3.6741-.3176-2.953-.4926-5.9225-.6708-8.8886-.052-.8658-.1804-1.6366-.783-2.3124-.8039-.9016-1.4647-1.9461-2.3411-2.7641-1.3211-1.2333-2.2856-2.7061-3.091-4.2711-.6303-1.2247-1.0919-2.5283-1.0424-3.9924.0817-2.4087.2456-4.8208-.4628-7.2084-.2517-.8484-.1685-1.8895.058-2.766.4045-1.5649.3824-3.1336.4112-4.713.027-1.4815-.1321-2.972.3914-4.4214.1504-.4164.1977-.9751.048-1.3776-.8363-2.2476-.0677-4.4349.2425-6.6139.2122-1.4907.4377-2.9099.0425-4.411-.1804-.6849.0217-1.4704.0484-2.2102.4335.0297.8689.0593,1.3043.0889.0203.9216.0405,1.8433.0608,2.7649.0061.3986.0123.7972.0185,1.1957-.0372.732-.0744,1.4641-.1116,2.1961-.553,1.3321-1.1281,3.8466-1.0924,4.7838.007.1854-.0273.3904.0392.5528.708,1.7261.5432,3.4334.0111,5.1717-.1568.5122-.0408,1.1076-.0525,1.6648-.033,1.5713.1274,3.1531-.4321,4.6873-.1501.4118-.1236.9292-.0471,1.3756.3898,2.277.7692,4.5585,1.2682,6.8127.1866.8428.2751,1.5937.0222,2.44-.5413,1.8108.1639,3.4576.9714,5.0089.1928.3703.9474.448,1.4437.6603.8257.7123,1.1981,1.8722,2.3798,2.2648.362.1203.6729.6362.8441,1.04.3953.9324.6606,1.8908,1.607,2.51.251.1642.2769.8621.2088,1.283-.1164.7189-.4466,1.3664-.2586,2.1668.2301.9797.3034,2.0065.3477,3.0171.0652,1.486.0081,2.9774.0717,4.4635.0568,1.3291.1117,1.3451,1.9372,2.3873.1034-.3664.2786-.7002.2793-1.0344.0068-3.2553.0059-6.5111-.0481-9.7659-.0105-.6328-.1125-1.3492-.4257-1.8765-1.0257-1.7272-.8149-3.1635.7321-4.4304.1346-.1102.1931-.3133.2869-.4733.1836-.1846.3673-.3693.5509-.5539.2001-.1725.4002-.3451.6003-.5176,1.5462-.2766,2.1993-1.4206,2.6082-2.758.0527-.1726-.2156-.4433-.3352-.6685,1.0238-1.0034,1.5612-2.2153,1.568-3.6557.003-.6417.0105-1.2833.0159-1.925.1588-.5315.3802-1.0535.4617-1.5966.1213-.8083.3319-1.6662-.4159-2.3332.0158-.3652.0316-.7303.0474-1.0954.5976-.4565.5056-1.0891.4381-1.7155.0255-.7455.051-1.4911.0765-2.2367-.0126-.3681-.0252-.7361-.0378-1.1042-.0026-.5585-.0052-1.117-.0078-1.6755.9317-1.4706.7118-2.9769.139-4.4941l-.0052-1.6282c.1386-.4878.3253-.968.4041-1.4653.1083-.6844.1349-1.3816.1965-2.0734.6532.3909.7263,1.0374.7428,1.7037.044,1.7712.1223,3.5426.1155,5.3138-.0129,3.3544-.0147,6.7109-.1371,10.0623-.1018,2.7876-.3243,5.5735-.5872,8.3512-.1044,1.1031-.4679,2.1661-1.1647,3.0968-1.3282,1.774-2.4805,3.6878-4.3981,4.9477-.8643.5678-1.0581,1.4452-.9394,2.4624.2045,1.7528.3027,3.5179.4919,5.2728.1692,1.5699.2088,3.19.6515,4.6856.6161,2.0816.3511,3.855-1.1281,5.4031.721,4.2306,1.4456,8.3462,2.116,12.4704.3623,2.2286,1.1991,4.2974,1.9887,6.3858.131.3466.2753.7188.5154.9883,1.1793,1.3236,1.9759,2.9573,3.1364,4.2454,2.6769,2.971,5.0528,6.2321,8.132,8.8268,1.2068,1.017,2.4647,1.9849,3.7714,2.8687,1.8496,1.2511,3.7646,2.4055,5.6553,3.5956.2359.1485.4869.2784.743.3888,2.6482,1.1418,5.2976,2.2811,7.9527,3.4066.1559.0661.3643.0086.5595.0086.71-.8041.9492-1.7619.9263-2.8317-.032-1.4915.0371-2.986-.0238-4.4756-.0416-1.0183.3759-1.7845,1.0222-2.4872,1.1881-.2092,1.8747-.9547,2.1847-2.08.143-.5191.5321-.6673.9911-.744-.6469,3.3585-1.345,6.7085-1.9152,10.0801-.214,1.2653-.1693,2.581-.1661,3.8736.0016.6513.534.9201,1.1095,1.0613-.2481.2608-.4937.5239-.7448.7817-.4459.4577-.508.9402-.1053,1.4578Z"/>
  <path class="cls-7" d="M121.9192,159.171c2.2851-1.4752,4.8366-1.2072,7.3023-.9099,2.9588.3566,5.8618,1.0665,8.5318,2.5111.8984.4861,1.8492.8853,2.802,1.2578,1.3207.5163,2.6051,1.0384,3.2271,2.4708.1039.2391.3425.4475.5655.603,2.9818,2.0796,4.8727,5.0876,6.7902,8.0555.4876.7546.6835,1.6988,1.0065,2.5585.8501,2.2631,1.7372,4.5134,2.5289,6.7968.4853,1.3997.9028,2.8344,1.2005,4.2843.2588,1.2602.2736,2.5282.1297,3.8592-.2686,2.4838-.2954,5.015.2802,7.5764-1.2162,1.0002-1.612,2.4565-2.0132,3.8774-1.1284,3.9963-3.0512,7.5678-5.5792,10.8381-.279.3609-.497.7807-.6832,1.1998-.7512,1.6909-2.003,2.8559-3.6723,3.6107-.4201.1899-.8451.3946-1.2151.6647-1.1146.8136-2.3764,1.031-3.7087.9934-2.3432-.0662-4.6496.1596-6.9189.7741-.4308.1166-.9485.2057-1.3521.0764-1.4083-.451-2.7841-1.0035-4.1726-1.5158-.0127-.6113-.025-1.2241-.0373-1.838.9215.1291,1.8431.2592,2.7647.3892.4093.18.8045.4668,1.2302.5232,3.2124.4257,6.2781-.3561,9.2738-1.3525,1.4258-.4742,2.6219-1.4096,2.9341-3.0678.5802-.6016,1.1314-1.2349,1.7464-1.7985,1.4705-1.348,2.6127-2.8649,3.0941-4.8648.2812-1.1685.7661-2.2943,1.2265-3.4117.9873-2.3966,2.2153-4.7188,2.0767-7.4306-.009-.177.1113-.3566.136-.5398.4211-3.1278.8524-6.2544,1.2382-9.3866.0664-.5388.0391-1.1364-.1271-1.6474-.4308-1.3245-.8846-2.6525-1.4709-3.9131-1.4114-3.0345-3.002-5.989-4.3242-9.0603-.7082-1.6452-1.8429-2.8345-3.2332-3.7344-2.42-1.5664-4.9708-2.9305-7.4664-4.3799-.9909-.5755-2.0602-.9044-3.2036-.8269-2.9645.201-5.9794.1751-8.8742.7466-2.9884.5899-5.9757,1.4029-8.7933,2.6639-.2249-.0949-.4498-.1898-.6569-.2772.599-1.5844,2.1678-1.2239,3.1874-1.6994.2103-.6153.3785-1.1074.5547-1.6228,1.6698.4525,3.0751.241,4.2947-.8154.5034-.4361.4957-1.0324-.0259-1.6665-.1734-.2107-.3945-.3821-.5938-.5715ZM127.6229,160.3549q-1.1748-.6679-2.5281-.2513c.9764.0971,1.7523.1742,2.5281.2513Z"/>
  <path class="cls-1" d="M49.74,133.8794c.3216-.1969.6432-.3938.9657-.5902.6239,2.5884,1.538,5.0642,2.8432,7.3893.0546.4014.1085.8035.1802,1.3379.6361-.6699.3356-1.0534-.085-1.4171-.0733-2.8603-.7448-5.5455-2.3312-7.9626.0795-.534.3429-.9112.8936-1.0455.2692.356.6547.6749.7809,1.0754.4178,1.3264.8415,2.6648,1.0813,4.0304.4809,2.7387,1.5232,5.3509,1.7489,8.1505.057.707.4951,1.39.7906,2.0698.738,1.698,1.5115,3.3806,2.2318,5.0859.1759.4163.1699.9057.3029,1.3447.5091,1.6809,1.0281,3.359,1.5741,5.0281.113.3453.2959.711.5513.9596,1.8641,1.814,3.6588,3.7171,5.6608,5.3672,2.7184,2.2405,5.5871,4.2933,8.142,6.7395,1.0009.9583,2.1323,1.7981,3.2844,2.5729.5953.4004,1.3622.7485,2.0573.7593,2.1274.0335,4.2662.272,6.3865-.2419,2.0693-.5016,4.1601-.9185,6.2504-1.3264.6332-.1235,1.2965-.0931,1.9461-.133.0657.249.0504.6219.2103.7261.9483.6183.6577,1.4444.4612,2.2688-.4528.0851-.9066.2488-1.3581.2423-2.602-.0374-5.15.2203-7.6496,1.0141-.6732.2138-1.5026.2201-2.1871.0414-.8457-.221-1.5812-.2331-2.4186.0221-.4718.1438-1.1009-.0038-1.5934-.1921-2.0608-.7876-4.0967-1.6404-6.1419-2.4689-.0645-1.0481-.7551-1.6536-1.5746-2.1226-.7994-.4574-1.739-.7195-2.4415-1.2855-1.1805-.9511-2.4641-1.1556-3.8844-.9902-.9104-.3359-1.9437-.5054-2.2477-1.6617.7793-.169,1.7168.2532,2.3063-.6198.3081-.1118.6162-.2236,1.1029-.4002-1.1138-1.3848-2.6151-1.3971-3.9167-1.8295-.1984-.0163-.3967-.0326-.5951-.0489-.5033-1.6875-.823-1.8516-2.146-1.1012-.1921.0057-.3842.0115-.5763.0173-1.5754-2.207-2.7741-4.6149-3.2248-7.2842-.5609-3.3216-1.6136-6.4533-3.0478-9.4792-.1973-.4161-.3492-.8558-.4965-1.2931-1.1257-3.3422-2.2717-6.6781-3.3481-10.0363-.278-.8672-.3314-1.8065-.488-2.7128ZM60.8447,161.3613c.0705.7002-.0909,1.5016.9347,1.9084.3928-1.0009-.1226-1.5272-.8751-1.9599-.0263-.1732-.0391-.35-.0848-.5179-.0208-.0766-.1063-.1355-.1626-.2025-.0623.1382-.2031.3028-.1678.4083.0486.1447.2307.2445.3556.3636Z"/>
  <path class="cls-1" d="M105.3701,146.8503c-.085-.5419-.17-1.0839-.2383-1.5193,2.0798-2.0459,4.0837-3.9729,6.0328-5.9539.9346-.9498,1.9587-1.6815,3.2496-2.0558.6189-.1795,1.2053-.4756,1.7989-.7361.4249-.1865.8176-.4775,1.2584-.5921,4.6307-1.2038,9.1118-2.9902,14.0014-3.1624,2.849-.1003,5.6784-.6807,8.5253-.9545.9996-.0961,2.0268.0563,3.0382.1359.7372.058,1.4665.2232,2.2038.2707,3.9732.2563,7.9478.4908,11.9218.7315-.4776.8763-.3452,1.6466.3983,2.3166.0607.0547.08.1555.1185.2349-3.2867-.8251-6.6351-.6231-9.9727-.5989-.3717.0027-.7607-.0582-1.1122.0291-3.1142.7741-6.2852.4736-9.4284.4473-4.5066-.0376-8.812.8418-13.0893,2.1831-3.6423,1.1421-7.0569,2.8225-10.615,4.1554-.5811.2177-1.1164.6724-1.5571,1.1293-1.348,1.3973-2.8925,2.6046-3.9211,4.3187-.348.5799-1.1287.9-1.7121,1.3383-.0102-.579-.0199-1.1575-.0302-1.7365,1.2112-.6021,1.212-.6082.0465-1.423-.0502.5005-.0923.9192-.1343,1.3378-.2609.0346-.5218.0692-.7827.1038Z"/>
  <path class="cls-1" d="M50.5631,120.9468c-.4027-.5176-.3407-1.0001.1053-1.4578.2511-.2578.4967-.521.7443-.781,1.1828.2216,2.4114.3078,3.5404.6893,3.1154,1.0526,6.3624,1.3435,9.5817,1.5979,4.687.3703,9.2485-.393,13.5714-2.3667,1.1444-.5225,2.0472-1.1896,2.5942-2.3835.5001-1.0915,1.076-2.1878,1.8216-3.1192,1.7837-2.2284,3.0416-4.6408,3.2751-7.529.0211-.2613.2221-.508.3395-.7614,1.9354-.8545,2.0289-1.501.4097-2.8338-.1362-.8889-.2442-1.7832-.4161-2.6651-.1902-.9756-.439-1.9398-.6623-2.909.6785-.3638.9867-1.3561,1.9881-1.1717.1132.5706.2265,1.1412.3392,1.7118-.3226.1032-.6446.2064-1.1422.3658.6053,1.105.2446,2.3335,1.0437,3.536.4767-.9085.8245-1.5715,1.1724-2.2346.1709.9084.4611,1.8131.4891,2.7258.0681,2.2191.0397,4.4238.4723,6.6341.352,1.7983-.2862,3.4483-1.551,4.8398-1.2431,1.3678-2.3404,2.8775-3.6555,4.1681-1.5131,1.4849-3.161,2.8404-4.8226,4.1612-.555.4412-1.3094.7594-2.0124.8622-2.0092.2937-4.0357.4885-6.0615.643-1.405.1071-2.7853.2586-3.948,1.1208-.7526.5582-1.5666.5781-2.3861.3916-2.167-.4931-4.3499-.8368-6.5569-1.1128-1.3521-.1691-2.6632-.7394-3.967-1.202-1.4004-.497-2.7685-1.0889-4.3063-.9198ZM60.9287,121.8923c1.1655.0338,2.1184,1.2113,3.4558.5729-1.0538-1.0809-2.2796-.8192-3.4558-.5729Z"/>
  <path class="cls-7" d="M105.3701,146.8503c.2609-.0346.5218-.0692.7827-.1038,0,0,.0884.0858.0885.0858.0097.5785.0194,1.1569.0296,1.7359-.6015,1.348-1.1991,2.6973-1.8061,4.0423-1.1079,2.4551-2.3403,4.8621-3.3026,7.3728-1.2262,3.1994-2.0597,6.5092-1.7426,10.1816.6605.0401,1.1808.0717,1.7015.1035.3033.1586.7729.2474.8742.49.2001.4795-.1819.8243-.6125,1.0155-.2398.1064-.5133.1638-.7765.1858-1.4201.1192-1.7401,1.0437-1.6814,2.2571-.0274,2.7793-.0015,5.5605-.0949,8.3377-.1348,4.0087.2251,7.9468,1.3875,11.7968-.6343.0118-1.2686.0235-1.903.0352-.9389-1.7107-1.5767-3.5366-2.1011-5.4099-.2756-.9848-.4496-1.8812-.0747-2.9566.3175-.9106.148-2.0173.0826-3.0299-.149-2.3078-.3663-4.6111-.5551-6.9191.1973-.8272.4879-1.6534-.4604-2.2716-.1599-.1042-.1446-.4772-.2103-.7261.7986-.4334,1.1665-1.0778,1.2764-2.0092.1514-1.2827.3878-2.5758.7731-3.8064,1.0567-3.3757,2.1697-6.7302,2.7022-10.245.0965-.6373.2799-1.294.5744-1.8635,1.4904-2.8813,2.7624-5.9007,5.0485-8.2988Z"/>
  <path class="cls-8" d="M2.7005,12.4567c-.4354-.0296-.8708-.0592-1.3043-.0889-.1317-.0502-.2182-.1438-.2582-.2788.0232-.531.047-1.0643.0673-1.5216.8954-.4166,1.7586-.6287,2.364-1.1439.9305-.7918,1.9901-.8937,3.0889-1.0124,1.2671-.0165,2.6239.2496,3.7796-.1177,1.6175-.514,3.0207-.2316,4.4859.2949.9806.6749,1.9885,1.3141,2.9334,2.0358.7843.5992,1.1127,1.3386.7858,2.416-.654,2.1557-.2685,4.3817-.1841,6.5794.0086.2249.293.4393.4494.6585.0524.5165.1048,1.0329.1579,1.549-.0609.6913-.0875,1.3886-.1958,2.0729-.0787.4973-.2655.9775-.4051,1.465-.6082-.548-1.132-1.2654-1.8378-1.613-2.5521-1.257-5.0412-2.8125-8.1047-2.3642-.3598.0526-.7458.002-1.1081-.0642-.2581-.0471-.4968-.2006-1.0623-.443,1.1393-.4692,1.717-.7071,2.2268-.917.2588-.6701.4789-1.2399.738-1.9108.512.1595.9085.1844,1.177.3827,1.6349,1.2075,3.6036,1.7642,5.3381,2.7786.5499.3216,1.2412.4262,1.8296-.4226-.1779-.4104-.3604-.921-.6148-1.3927-.2548-.4726-.5816-.9064-.8275-1.282,1.2264-2.2502,1.5156-4.0931,1.004-6.1677-1.7393.1088-2.8363,1.1832-3.6705,2.5141q-2.726-.5214-4.2178-1.7034c-.6739.8492-1.3178,1.7194-2.0286,2.531-.3423.3908-.7925.4424-1.2237-.2048.7869-1.7876.692-3.4783-1.3343-4.7788-.6922.7264-1.3702,1.438-2.0483,2.1496Z"/>
  <path class="cls-1" d="M98.3144,194.3865c.6343-.0117,1.2686-.0234,1.9015-.0353.2371.277.589.516.6966.837.982,2.9289,2.5322,5.5749,4.1956,8.1347.9983,1.5365,2.2331,2.9574,3.5479,4.2391,1.2516,1.22,2.7132,2.236,4.1386,3.2637,3.2549,2.3468,6.7013,4.2649,10.7557,4.9166,1.1599.1865,2.2558.7716,3.381,1.1739.0123.6128.0246,1.2256.0372,1.8369-1.5233.4968-2.9498-.1893-4.3889-.4423-2.2784-.4004-4.4179-1.1814-6.5467-2.2134-3.9515-1.9158-7.1931-4.5983-10.0826-7.8121-.5604-.6232-1.1614-1.2104-1.7506-1.8073-.6561-.6649-1.0391-1.42-1.3898-2.3261-.696-1.7984-1.7895-3.4466-2.756-5.1356-.8317-1.4534-1.8018-2.8445-1.7396-4.6298Z"/>
  <path class="cls-7" d="M246.4292,149.0162c.4917-1.1848,1.2148-2.3292,1.4304-3.5623.5753-3.2913,1.9803-6.4877,1.431-10.0033-1.1981-.6627-2.3977-.3608-3.562-.3611-.0684-.4049-.1351-.8098-.2019-1.2147,1.1878-.0066,2.3925.1968,3.6415-.2079.0939-.3997.286-.7623.2393-1.091-.3371-2.373-.6468-4.7545-1.1185-7.1024-.336-1.6724-1.0565-2.2384-2.6771-2.2485-3.8075-.0236-7.6157.0194-11.4232.0662-.5461.0067-1.0916.1767-1.6349.2837-2.3633.4657-4.7266.8697-7.1576.7684-1.8541-.0772-3.7132-.033-5.5706-.0419.5406-.3185,1.0818-.6379,1.623-.9573,1.2068-.061,2.4131-.1436,3.6207-.1771,1.3005-.0361,2.5977.0089,3.8264-.5746.4024-.1911.8997-.2212,1.3582-.2488,3.3351-.2011,6.671-.3905,10.0075-.567,1.4852-.0785,2.9784-.0565,4.4563-.2006.8074-.0787,1.5903-.4089,2.3847-.6251.48.3094.9596.6183,1.4372.9245.1246.4792.2511.9611.3776,1.4431.0018.9543-.2739,2.0396,1.1056,2.3435l.5754.4218c.024.5396.0481,1.0792.0721,1.6189-.5637.3015-.7513.6696-.2067,1.1675.1702.3028.2927.8237.5183.873,1.5061.3293,1.5281,1.3187,1.2348,2.4965l.0266-.0303c-.2696.0665-.579.0719-.7987.215-.2752.1793-.6407.4499-.6765.7197-.0777.5863.4292.7239.9096.7936.0191.3851.0382.7701.0573,1.1552-.0113.1511-.0165.3024-.0154.4538-.0158.554-.0317,1.108-.0475,1.6619-.1747.943.4116,1.3994,1.1314,1.7705l-.0266-.0287c.2009,1.3304-.3055,2.2925-1.5779,2.7274-.6446.2203-1.1321.4871-1.271,1.1907-.6328,1.1851-.5837,1.3488.6736,2.2473-.0796.2552-.0797.6348-.2521.7451-.9725.6226-1.0841,1.5715-1.0953,2.5799l-2.6781.6962-.1471-.1211Z"/>
  <path class="cls-8" d="M159.3907,132.2653c.9209-.0266,1.8417-.0532,2.7628-.0796.162.4129.3483.4713.5684.0394.5473.0245,1.0945.0491,1.6419.0733.234.3774.4296.3079.6004-.0517,1.8537.0077,3.7073.0154,5.5611.023.3873.5176.7731.5077,1.1575-.0032.912.0138,1.824.0277,2.7362.0414.1335.4508.3505.8365.8634.9144,1.2276.1866,2.4577.357,3.6869.5339,0,0,.1205.1324.1187.1324-.0567.7557-.1116,1.5116-.1665,2.2673,0,0,.0149-.0187.0148-.0186-2.0141.528-3.9612,1.3613-6.108,1.2937-.2074-.0066-.4248.3063-.6376.4709-2.1915.0056-4.3748.6035-6.5736.0933-.1871-.1909-.354-.5219-.5643-.5524-1.1525-.1668-2.3283-.4609-3.4386.1954-.3443-.0853-.6886-.1705-1.0331-.2547-.293-.5167-.7443-.693-1.316-.61-.3573-.3647-.7145-.7295-1.0718-1.0945-.0112-.9996-.033-1.9871.9354-2.6644.1759-.1231.179-.4932.2619-.7493Z"/>
  <path class="cls-1" d="M98.9247,174.2169c-.0587-1.2134.2613-2.138,1.6814-2.2571.2632-.0221.5367-.0794.7765-.1858.4307-.1912.8126-.536.6125-1.0155-.1013-.2426-.5709-.3314-.8742-.49.2643-.3536.4571-.8179.8047-1.0428,2.7804-1.7982,5.4938-3.7376,8.4249-5.2519,1.9274-.9958,3.6626-2.4157,5.8795-2.896.966-.2092,1.8491-.8214,2.7563-1.2774.9269-.466,1.8826-.7549,2.9323-.6298.1998.1898.4209.3612.5943.5719.5216.6341.5293,1.2304.0259,1.6665-1.2196,1.0564-2.6249,1.2679-4.2947.8154-.1762.5154-.3444,1.0075-.5547,1.6228-1.0195.4755-2.5884.115-3.1874,1.6994.207.0874.432.1823.6568.2772-2.0934,2.0518-4.6039,3.3604-7.3945,4.1851-.7999.2364-1.6212.4494-1.7446,1.5406-.0318.2812-.4348.6461-.7424.7498-2.0962.7067-4.0404,1.931-6.3527,1.9178Z"/>
  <path class="cls-1" d="M52.3845,103.6924c-.4585.0766-.8476.2249-.9906.7439-.3101,1.1253-.9966,1.8708-2.1847,2.08-.2857-1.514-.0023-2.8798.68-4.2957.8783-1.8224,1.399-3.8133,2.1776-5.6885,1.1723-2.8233,2.5327-5.5741,4.474-7.946.8548-1.0443,2.0541-1.8283,3.1775-2.6156.2937-.2058.8886.0184,1.3438.044.3421.1159.7079.1916,1.0235.3608.3795.2035.7162.4867,1.0715.7354-.3713.388-.7207.8002-1.1173,1.1603-3.3022,2.9979-6.2618,6.1833-7.6343,10.6315-.5,1.6203-.8937,3.3892-2.0208,4.79Z"/>
  <path class="cls-7" d="M18.9083,20.278c-.1564-.2193-.4408-.4336-.4494-.6585-.0844-2.1977-.4699-4.4236.1841-6.5794.3268-1.0774-.0015-1.8168-.7858-2.416-.9448-.7218-1.9528-1.3609-2.9327-2.0363.0108-1.3877.0198-2.775.0314-4.1622.008-.9606-.2158-1.8189-1.1392-2.5173-1.1825,0-2.47-.0987-3.7351.0278-1.2596.126-2.4967.4779-3.8224.7467-.474,2.0001-.3134,3.8788.3991,5.7284-1.0988.1187-2.1583.2206-3.0889,1.0124-.6054.5152-1.4686.7273-2.364,1.1439-.0204.4573-.0442.9906-.0673,1.5216-.8347-.37-.5809-1.2431-.8649-1.8667.6361-1.762,2.1584-2.1184,3.8445-2.2768.7141-2.2118.188-4.4687.5326-6.6377.8091-.7711,1.8024-.2847,2.6742-.4698.882-.1872,1.7385-.4948,2.9071-.838,1.9667.5679,4.4472.4892,6.5816,1.5211,1.2152,2.3058-.693,4.4454-.0639,6.8175.6849.2452,1.4426.5164,2.1583.7726,1.0469,1.7571,1.0253,3.6063.8688,5.4719-.1318,1.5709-.2669,3.1421-.4468,4.7078-.0392.3407-.2755.6586-.421.987Z"/>
  <path class="cls-1" d="M246.5763,149.1373c.8927-.2321,1.7854-.4641,2.6804-.6964.0023-.0002.1753.1562.1754.1552-.1627.6476-.3256,1.2963-.4884,1.9449.3923,1.0593.5829,2.2927,2.0738,2.4035q.1019,1.4024,1.1864,1.6405c.0825.7618.43,1.3101,1.1339,1.6903.5411.2922,1.001.7346,1.497,1.1102.6149.6724,1.3451.854,2.1711.4544.7733-.3742.8183-1.0996.8086-1.8355-.0012-.0892.0081-.1786.0125-.2679.564.1861,1.128.3722,1.692.5583.0234.7412-.0216,1.493.0919,2.2201.0908.5814.5363,1.0391,1.141,1.0739,1.7471.1007,3.5103.3206,5.1447-.1796.6326-.885.2711-1.7407.321-2.5546.8166.2387,1.1786,1.3851,2.245,1.125.3686.0008.7371.0016,1.1057.0024.8808.6725.9359.646,1.1467-.5531l-.0041.0039c1.0735.0841,2.1378.1016,3.2452-.4118.0314-.6242.0622-1.2367.093-1.8491.8463.566,1.7606.7801,2.7637.5341.2054.2038.4108.4077.6162.6115-.4221.1813-.9471.2596-1.249.5612-1.495,1.4939-3.3133,2.3167-5.3317,2.7911-.6319.1485-1.2766.2953-1.869.5507-3.1333,1.3509-6.3734.814-9.5116.2978-3.152-.5185-5.9546-2.0154-8.1698-4.4519-.6175-.6792-1.3724-1.2334-2.2546-2.0131.1827-1.9594-1.5756-3.2164-2.4671-4.9161Z"/>
  <path class="cls-7" d="M63.157,87.1105c-.3552-.2487-.692-.5319-1.0715-.7354-.3156-.1692-.6814-.2449-1.0235-.3608,1.9061-1.4943,4.3036-2.4724,6.2484-2.5231.8338-.0217,1.6686-.0037,2.503-.0035.2902.1406.5913.4181.8681.3956.8648-.0704,1.7204-.2542,2.5796-.394.3282.1467.6565.2934.9846.4377.2945.5617.6246.9408,1.1653.221.193-.0313.3861-.0626.579-.0936.3366.801.9135,1.1973,1.8009,1.0711,1.8514.6428,3.1983,2.0941,4.8635,3.0349.3644.6342.7555,1.2558,1.0857,1.9081.3587.7085.9955.747,1.6515.7844.3514.4936.7028.9873,1.0512,1.4818-.5113.2457-.9582.5498-.7818,1.2124.1421.5337.6178.566,1.0655.6035.1783.0149.3576.0182.5364.0267.0635.3593.127.7187.1918,1.0782-1.0001-.1842-1.3083.8081-1.9867,1.1718-.3661-.6454-.763-1.2755-1.0937-1.9385-2.3319-4.6765-1.7613-3.8296-5.9913-6.6743-2.0827-1.4007-4.3762-1.9397-6.8116-2.1891-2.9573-.3027-5.7314.3008-8.4144,1.485Z"/>
  <path class="cls-1" d="M221.4485,123.3442c-.5412.3194-1.0824.6388-1.623.9573-.1293.1257-.2807.3785-.3858.3605-2.209-.3788-4.4107.1222-6.5497.3725-2.7732.3244-5.5666.1573-8.2909.5521-3.33.4826-6.6512.299-9.9702.5004-1.4651.0889-2.9132.4664-4.3675.7214-.4542.0797-.9021.2616-1.3552.2698-2.4016.0434-4.801.0804-7.1571.6322.173-.4476.3461-.8957.5192-1.3438.3653-.2371.7118-.6335,1.0997-.6794.9168-.1086,1.8536-.039,2.7818-.0623,1.7588-.0443,3.534.0895,5.2481-.471.1726-.0564.3667-.0541.5517-.065,3.6048-.2128,7.2076-.5339,10.8152-.6038,3.7137-.072,7.3873-.3684,11.0454-1.001.9964-.1723,2.039-.0588,3.0566-.1312,1.2899-.0918,2.5746-.2599,3.8648-.344.2307-.0151.4775.2174.7169.3356Z"/>
  <path class="cls-1" d="M248.5415,121.8782c-.4796-.3089-.9591-.6178-1.4391-.9272.2766-1.7703,1.5339-2.9506,2.6853-4.1048,2.7601-2.7666,6.2536-4.2437,9.9826-5.1905,1.5202-.386,3.0669-.6725,4.6106-.9551.207-.0379.4671.2144.7028.3321-.3727.3633-.7456.7269-1.1184,1.0902-.6413.0675-1.5365-.2767-1.4851.9155-1.0141.06-2.0282.1199-3.0424.1799-.5797.0512-1.193.2098-1.3535.795-.5646,2.0589-1.8946,3.7089-2.8793,5.5385-.5508,1.0235-.809,2.0426-.7228,3.1763-.5635-.0005-1.1269-.001-1.6904-.0015-.04-.7262-.3806-1.153-1.1486-1.1543-.134-.1232-.2504-.2778-.4049-.3645q-1.2697-.7134-2.3297.2634c-.1337.1233-.2453.2707-.3672.407ZM252.7425,118.411c.3554-.2672.6884-.5735,1.0711-.7931.7051-.4046,1.0617-.9666.9977-1.7804-1.6903-.5203-2.0968-.3855-2.5467.8983-.12.3425-.1259.725-.1842,1.0892-.0905-.0198-.1881-.072-.2701-.0538-.3355.0744-.8046.0723-.9569.2877-.1337.1891-.0147.7216.1769.9424.4188.4825.9219.9116,1.4519,1.2725.5478.3731,1.0653.1977,1.4035-.3654.2214-.3687.3864-.7712.5656-1.136-.6936-.1467-1.2013-.2541-1.7089-.3614Z"/>
  <path class="cls-1" d="M266.2319,111.0003c.4025-.4893.9582-.5224,1.5194-.4773,4.4013.3543,8.126,2.2994,11.5025,4.9966.4691.3747.6964,1.0521,1.035,1.5895-.2121.0054-.4235.0108-.6349.0162-.1812-.0177-.3627-.0231-.5448-.0161-.2573-.4899-.6827-.5744-1.1786-.4885-.1425-1.4268-1.1432-1.6211-2.3438-1.6944-.8955,1.4937-2.2983,2.6086-2.6087,4.3986-.0124.1968-.0247.3935-.0371.5903-.3798-.0024-.7596-.0048-1.1392-.007-.1862.0026-.3725.0074-.5587.0145.0036-.556.0072-1.112.0109-1.668.0032-.2058.0064-.4116.0097-.617,1.2927.0277,1.8511-.7372,2.1815-2.0469-.6204-.0528-1.1192-.0954-1.6181-.1379q-.0923-2.0696-2.0995-2.327c-.0914-.0117-.182-.0295-.273-.0444-.0046-.5025-.1495-.9472-.7255-.971-.8222-.0338-1.6476.0098-2.4717.0203-.0085-.3768-.017-.7536-.0255-1.1304ZM273.8991,114.7847c.2288-.1327.3662-.2124.5036-.292-.1085-.1839-.2018-.3814-.3414-.5375-.0214-.0239-.3733.1489-.3697.2204.0102.2002.1265.395.2075.6091Z"/>
  <path class="cls-6" d="M277.429,156.3176c-.2054-.2038-.4108-.4077-.6158-.6112.0091-.3426.0178-.6854.0265-1.0283,1.194-.3069,1.774-1.0714,1.72-2.3086.5312.2499,1.0624.4997,1.5936.7496q.5986-.9996.6305-2.4213s-.0173.0169-.0173.0169c.6222.2645,1.2321.7647,1.8693.0008.5315-.6372.0607-1.1329-.1858-1.6672.7631-.7632,1.5261-1.5264,2.2892-2.2896.625-.4144.3224-.874.1174-1.3819-.2101-.5207-.872-1.0252-.1973-1.6619.5691-.0834,1.1382-.1667,1.7073-.2501.1821.3572.3643.7145.5464,1.0717.223,1.5822-.5792,2.8631-1.2798,4.149-.831,1.5255-2.2001,2.7024-2.8641,4.3555-.1182.2941-.5336.4843-.836.6862-1.4432.9637-2.7001,2.2544-4.5042,2.5905Z"/>
  <path class="cls-7" d="M182.2685,126.3665c-.1732.4481-.3463.8962-.5192,1.3438.8947,3.4241,1.2813,6.904,1.1056,10.4404-.0261.5259-.1562,1.0466-.2321,1.5308-.6156.0713-.8039-.1911-.8255-.6106-.0238-.4629-.0779-.9324-.0291-1.3895.289-2.7123-.492-5.3343-.6789-8.0061-.0314-.449-.5084-.8667-.8257-1.3725-1.5726.7371-2.6576,1.6124-2.8268,3.3762.2435.828,1.5888.9616,1.5326,2.0793-1.229-.1789-2.4591-.3493-3.6868-.5359-.5129-.0779-.7299-.4636-.8634-.9144.5744-.2105,1.149-.4211,1.7235-.6317.1525-.2339.3049-.4677.4574-.7016.0978-.5368.1243-1.0996.3084-1.605.3847-1.0563.9443-1.9425,2.2111-2.1777,1.0641-.1975,2.1004-.5446,3.149-.8255Z"/>
  <path class="cls-1" d="M287.9957,127.7771c1.6543,3.6444,1.4742,7.3847.5834,11.1622-.2168.0015-.4339.0029-.6509.0043.5247-1.3914-.8813-1.5684-1.4592-2.1723-.0399-.8431-.0747-1.5783-.1094-2.3133,1.1377.3592,1.345.2939,1.5758-.5895.09-.3445.0784-.7156.1131-1.0746-.1915-.1794-.383-.3588-.5745-.5382l.0008-.2451c-.0058-.969-.0116-1.938-.0174-2.907-.0004-.449-.0009-.898-.0013-1.3471.18.0039.3599.0108.5397.0206Z"/>
  <path class="cls-6" d="M287.9957,127.7771c-.1798-.0099-.3597-.0168-.5393-.0206q-1.0195-1.0341-2.2085-.5548c.1151-.8097.2303-1.6194.3592-2.5263-.433.1266-.682.1993-.9309.2721-.1824-.7166-.3647-1.4332-.5471-2.1497-.2417-.5435-.4426-1.1104-.7374-1.6234-.258-.449-.6213-.8374-.9381-1.2525.0181-.2133.0362-.4266.0542-.6398.2612.0918.5951.1102.7726.2863,2.3205,2.3019,4.42,4.7399,4.7152,8.2087Z"/>
  <path class="cls-6" d="M66.4178,170.3289c1.4203-.1653,2.7038.0391,3.8844.9902.7024.566,1.6421.8281,2.4415,1.2855.8195.469,1.51,1.0745,1.5746,2.1226-2.5326-.7828-5.0227-1.6664-7.1374-3.331-.3299-.2597-.5123-.7068-.763-1.0673Z"/>
  <path class="cls-1" d="M47.514,121.5775c.3477.0993.7177.1522,1.039.3066,1.056.5074,1.0526.5324.6023,1.898-.8809,1.7177-.7606,2.6434.5318,3.8376.1153.1065.3506.0831.5302.12-.1879.485-.3199,1.0033-.582,1.4442-.1995.3355-.5642.5728-.8541.8537-.9688-1.6027-.9825-3.4446-1.2331-5.2118-.1507-1.063-.0319-2.1642-.0342-3.2483Z"/>
  <path class="cls-6" d="M66.4764,168.0474c-.5896.873-1.527.4507-2.3063.6198-.0006.0002.0434-.0101.0433-.0102-.1498-.4198-.3298-.4433-.5424-.0417-1.3353-1.1181-2.8553-2.0798-3.326-3.93.1923-.0059.3844-.0117.576-.0171.7145.3684,1.1726,1.2379,2.1465,1.1009.1984.0163.3967.0326.5952.0489.4405.4024.8605.8305,1.327,1.2.4716.3735.9892.6888,1.4867,1.0297Z"/>
  <path class="cls-7" d="M266.2319,111.0003c.0085.3768.017.7536.0253,1.13-.6921,1.467-1.3936,2.93-2.0713,4.4039-.2751.5984-.5665,1.1433-1.3318,1.1649-.3415-1.2223.5257-2.2353.586-3.3881l-.0197.0281q1.1416-.919.5447-2.2159c.3729-.3636.7458-.7272,1.1185-1.0905.3827-.0106.7655-.0215,1.1483-.0324Z"/>
  <path class="cls-7" d="M172.1909,137.902c.2128-.1646.4302-.4775.6376-.4709,2.1468.0677,4.0939-.7657,6.108-1.2937.0295.796-.5487,1.1149-1.1313,1.4132-.6058.3103-1.0833.7052-1.1348,1.4438-.9271-.41-1.8489-.7727-2.9088-.7344-.5185.0187-1.0468-.2302-1.5706-.358Z"/>
  <path class="cls-1" d="M286.9131,144.5364c-.1821-.3572-.3643-.7144-.5463-1.072-.0202-.9169-.0404-1.8335-.0607-2.7501.6688-.1264,1.1445-.4483,1.2055-1.1904.2339.0019.4678.0038.7017.0057-.0848.8328-.1871,1.6642-.2499,2.4986-.0721.9582-.3405,1.8227-1.0502,2.5082Z"/>
  <path class="cls-6" d="M88.8691,98.6348c-.3479.663-.6957,1.3261-1.1724,2.2346-.7991-1.2025-.4384-2.431-1.0437-3.536.4976-.1594.8196-.2626,1.1422-.3658.6824.347.9965.9309,1.0739,1.6672Z"/>
  <path class="cls-7" d="M161.6143,137.6383c1.1103-.6563,2.2862-.3622,3.4386-.1954.2103.0305.3772.3615.5643.5524-1.3782.375-2.7512.6922-4.0029-.357Z"/>
  <path class="cls-7" d="M159.3907,132.2653c-.0829.2561-.086.6263-.2619.7493-.9684.6774-.9466,1.6648-.9354,2.6644-.1833.016-.3548-.0218-.5146-.1131-.0385-.0796-.0578-.1803-.1185-.235-.7434-.67-.8758-1.4403-.3983-2.3166.7429-.2488,1.4858-.4989,2.2287-.7491Z"/>
  <path class="cls-1" d="M85.3916,90.853c-.656-.0373-1.2928-.0758-1.6515-.7844-.3302-.6524-.7212-1.2739-1.0857-1.9081,1.5427.2565,2.4238,1.1856,2.7371,2.6925Z"/>
  <path class="cls-1" d="M87.2629,94.1774c-.1788-.0086-.3581-.0118-.5364-.0267-.4477-.0374-.9234-.0698-1.0655-.6035-.1764-.6626.2706-.9667.7818-1.2124,1.3338.6038,1.3478.6355.8201,1.8427Z"/>
  <path class="cls-1" d="M73.2611,83.4894c-.8592.1399-1.7147.3236-2.5796.394-.2768.0225-.578-.255-.8681-.3956.6579-.3075,1.2906-.7074,1.981-.896.6976-.1906,1.2651.1274,1.4668.8976Z"/>
  <path class="cls-7" d="M177.2634,140.0474c.5849.4185,1.2238.7815,1.7336,1.2774.2838.2761.3523.7734.5183,1.1725-1.0741-.518-2.2858-.9113-2.2518-2.4498Z"/>
  <path class="cls-1" d="M282.5079,119.2821c-.0181.2133-.0362.4266-.0542.6398-.384-.0069-.768-.0139-1.1519-.0209-.1719.005-.3438.0117-.5155.0203.0008-.5594.0016-1.1188.0024-1.6782.2089-.0193.4177-.0387.6266-.058.3643.3657.7285.7313,1.0928,1.097Z"/>
  <path class="cls-6" d="M281.4151,118.1851c-.2089.0193-.4177.0387-.6267.058-.3783-.3726-.7564-.7452-1.1346-1.1177.2114-.0054.4228-.0107.6349-.0162.6783.042.9983.4585,1.1263,1.0759Z"/>
  <path class="cls-1" d="M77.791,85.1256c-.8874.1263-1.4643-.27-1.8009-1.0711.8052.0123,1.4856.2345,1.8009,1.0711Z"/>
  <path class="cls-1" d="M75.411,84.1481c-.5407.7198-.8708.3407-1.1653-.221.4596-.3039.8386-.1812,1.1653.221Z"/>
  <path class="cls-7" d="M159.2652,136.7736c.5717-.083,1.023.0933,1.316.61-.7056.3735-1.0989.0722-1.316-.61Z"/>
  <path class="cls-1" d="M237.1193,148.2116c.44-.4233.8356-.3394,1.2009.1048-.4495.5406-.8572.586-1.2009-.1048Z"/>
  <path class="cls-1" d="M242.6975,148.8082c.4293-.439.8307-.396,1.2088.0695-.4356.5612-.8406.5687-1.2088-.0695Z"/>
  <path class="cls-6" d="M288.2133,139.5296c-.2339-.0019-.4678-.0038-.7019-.0058.1388-.1935.2778-.3868.4168-.5801.2171-.0014.4341-.0028.6509-.0043-.1221.1967-.2439.3935-.3658.5902Z"/>
  <path class="cls-7" d="M171.6829,132.2666c-.3844.511-.7702.5208-1.1575.0032.3858-.001.7716-.0021,1.1575-.0032Z"/>
  <path class="cls-7" d="M176.6564,138.9563c.2081.3736.4162.7471.6244,1.1208-.2081-.3735-.4162-.7472-.6244-1.1208Z"/>
  <path class="cls-1" d="M63.671,168.6153c.2127-.4015.3927-.378.5424.0417-.1821.0034-.3629-.0106-.5424-.0417Z"/>
  <path class="cls-1" d="M176.6001,130.9746c-.1525.2339-.305.4677-.4574.7016.1525-.2338.305-.4677.4574-.7016Z"/>
  <path class="cls-7" d="M164.9642,132.2468c-.1708.3596-.3664.4291-.6004.0517.2001-.017.4002-.0344.6004-.0517Z"/>
  <path class="cls-7" d="M162.7219,132.2252c-.2201.4318-.4064.3735-.5684-.0395.1894.013.3789.0262.5684.0395Z"/>
  <path class="cls-8" d="M196.9709,132.5899c-1.7498.5841-3.0305-.5869-4.3563-1.3084-1.0118-.5506-.8972-1.7563-.7102-2.7822.1308-.7175.66-1.0985,1.3716-1.1894.9807-.1253,1.8747.0132,2.3973.9884.478.892.9267,1.7998,1.4115,2.746,2.7368.1088,5.4195.2155,8.1028.3198-.0275,1.086-.1809,2.1898-.0498,3.2588.1448,1.1806.5552,2.328.841,3.492.4727,1.9253.327,2.1278-1.7401,2.4593-.1825.0293-.3659.0534-.5489.08-2.5575-.22-5.115-.4399-7.669-.6591-.4344-.5881-.9555-1.1338-1.2888-1.777-.3992-.7702-.4264-1.6832.1134-2.3737.5555-.7106,1.3785-.8699,2.2461-.413.2415.1272.5249.1746.7891.2587.0833.5408.1666,1.0815.2486,1.6216-.0013.4341-.0013.869-.0013,1.2834q2.3357.4972,4.1058-.0984c-.25-1.8359-1.1194-3.6036-.7551-5.5918-.6831-.0652-1.2233-.1168-1.7636-.1684,0,0-.0561.001-.056.0013-.8642-.6248-1.7653-.5813-2.6878-.1476Z"/>
  <path class="cls-8" d="M245.5266,133.8748c.0668.4049.1335.8098.2019,1.2147-.1849.5591-.4923,1.0051-1.1275,1.0805-.4592.0545-.9234.0712-1.386.0926-1.652.0763-3.3043.1474-5.2187.232-.3434-.4353-.8499-1.0773-1.4028-1.778.2303-.7357.3305-1.5003.6908-2.1114.6785-1.1509,2.0195-1.0152,2.5918.2024.2361.5024.3806,1.0489.6287,1.5445.3474.694.6823.6942,1.8795.0225-.3037-1.1125-.5612-2.2742-.9575-3.3864-.1357-.381-.5672-.7783-.9548-.922-.7735-.2868-1.6055-.4269-2.4215-.5848-1.3593-.2632-2.725-.4928-4.0891-.7356-.2458-.5257-.4906-1.0524-.7354-1.5791-.0121-1.1325.316-2.0327,1.6117-2.1727,1.223-.1322,2.1447.4161,2.6346,1.5792.2052.4873.2911,1.0249.4712,1.6863,2.089.0617,4.0935.1209,6.2601.1848.2877,1.1783.5461,2.2351.8037,3.292.1737.7128.3463,1.4258.5193,2.1387Z"/>
  <path class="cls-3" d="M228.2432,131.6441c1.4754-.1431,2.4564.2802,2.7334,1.9502.1452.8756.7426,1.6666,1.0424,2.5283.4487,1.29.8152,2.6087,1.2165,3.9154-.0127.2702-.0089.542-.0403.8097-.2223,1.8929-.7993,2.2738-2.684,1.76-.2574-.0702-.4948-.2138-.7409-.3232.0223-.1574.0373-.3157.0455-.4747-.1216-.2147-.2433-.4294-.3649-.6441-.1714-.089-.3429-.178-.5143-.267.0285-.14.005-.2707-.0704-.392l.0134-.1727s-.0641-.161-.0646-.1623c-.1767-.4388-.3529-.8764-.5292-1.3138-.0529-.8325-.3615-1.5035-1.1721-1.8575,0,0,.0213-.2009.0207-.2021-.0792-1.241-.1578-2.4809-.2316-3.6449-.7769-.3293-1.4359-.6085-2.0948-.8877.4027-.1858.7908-.4748,1.2114-.5344.7307-.1036,1.4815-.0656,2.2239-.087Z"/>
  <path class="cls-8" d="M229.7697,142.2843c.2467.1096.4841.2533.7415.3234,1.8847.5137,2.4617.1328,2.684-1.76.0314-.2677.0276-.5395.0403-.8097,1.4335,2.4547,1.1278,3.2318-1.5222,3.7343-.4317.0819-.9085.0004-1.3533-.0731-2.2104-.3657-4.4337-.4106-6.6278-.014-1.0661.1926-2.0084.1344-2.9608-.3269-.6638-.3215-1.3409-.6155-2.1279-.9747-.4593-1.2802-1.0874-2.591-.9634-4.2186.7123-.1174,1.2403-.2315,1.7743-.2874,1.4733-.1543,2.5068.5142,3.1408,1.8049.2423.4934.3672,1.0445.5456,1.5685.0857.6002.3838,1.0097,1.0302,1.0199,1.5258.0242,3.0521.0247,4.5781.0347l1.0205-.0212Z"/>
  <path class="cls-8" d="M228.2432,131.6441c-.7424.0214-1.4932-.0167-2.2239.087-.4206.0596-.8087.3487-1.2113.5342-1.3684-.0061-2.7384-.0513-4.1046.0021-.5161.0202-1.0233.268-1.5346.4121-1.5453.2279-2.938-.1541-4.2421-.9951-1.1717-.7556-1.6697-2.3838-.9573-3.6179.2027-.3513.6871-.6915,1.0833-.7476.8122-.1151,1.6521-.0345,2.6527-.0345.6247.9916,1.2565,1.9943,1.9091,3.0302,1.7018.7042,3.5281.8531,5.4037.8496,1.0786-.002,2.2479-.3125,3.225.48Z"/>
  <path class="cls-6" d="M203.6896,140.654c.183-.0265.3663-.0507.5489-.08,2.0672-.3315,2.2128-.534,1.7401-2.4593-.2858-1.164-.6963-2.3114-.841-3.492-.1311-1.0689.0223-2.1728.0498-3.2588.1813-.0054.4243-.0933.5352-.0085.8256.6313.9593,1.7022,1.537,2.4971-.389,2.2667.7246,4.5377-.0934,6.9888-1.1102.3414-2.2938.7139-3.4767-.1874Z"/>
  <path class="cls-6" d="M197.8804,135.6899c-.2642-.084-.5476-.1315-.7891-.2587-.8675-.4569-1.6905-.2977-2.2461.413-.5398.6905-.5126,1.6035-.1134,2.3737.3333.6431.8544,1.1889,1.2888,1.777-.8275-.0008-1.6515-.0008-2.5865-.0008-.0939-.9158-.1811-1.6894-.2504-2.4646-.0731-.8179-.1292-1.6374-.1864-2.3751,1.2968-1.5003,2.9383-1.1162,4.2927-1.3684.7621.6013.6596,1.2567.5904,1.9039Z"/>
  <path class="cls-1" d="M199.7148,132.7363c.5403.0516,1.0805.1032,1.7636.1684-.3643,1.9882.5051,3.7559.7551,5.5918q-1.7701.5956-4.1058.0984c0-.4144,0-.8493.0013-1.2834.7259.3366,1.4505.6724,2.2603,1.0477.705-1.0978.4643-2.0435.0402-2.9894-.377-.841-.9038-1.6395-.7147-2.6335Z"/>
  <path class="cls-1" d="M219.1689,132.6794c.5113-.1441,1.0185-.3919,1.5346-.4121,1.3661-.0534,2.7362-.0083,4.1046-.0021.6588.2795,1.3177.5587,2.0947.888.0738,1.1641.1525,2.4039.2316,3.6449-.7299-.0999-1.156-.5748-1.4032-1.2135-.769-1.9869-2.4264-2.5962-4.3299-2.8033-.739-.0805-1.488-.0706-2.2324-.1019Z"/>
  <path class="cls-6" d="M228.7492,142.3055c-1.526-.01-3.0523-.0106-4.5781-.0347-.6465-.0102-.9446-.4197-1.0302-1.0199,1.9228-.1333,3.9118.2437,5.7248-.743.076.1201.0995.2507.0698.3921-.0628.4693-.1245.9374-.1862,1.4055Z"/>
  <path class="cls-7" d="M178.9216,136.156c.0549-.7558.1098-1.5116.1665-2.2673,1.2437.822,1.2174,1.1759-.1665,2.2673Z"/>
  <path class="cls-6" d="M233.226,127.1665c.2448.5267.4896,1.0534.7354,1.5791-.3394-.0288-.7254.0331-1.0071-.1102-.2689-.1368-.5696-.468-.6081-.7479-.0813-.5906.4784-.6028.8798-.7211Z"/>
  <path class="cls-1" d="M227.1137,137.0003c.8106.3541,1.1192,1.0251,1.1721,1.8575l-.1657.1503c-.1291-.0322-.2597-.0557-.3919-.0705-.2048-.6458-.4096-1.2916-.6145-1.9374Z"/>
  <path class="cls-1" d="M196.9709,132.5899c.9225-.4336,1.8236-.4772,2.6878.1476-.896-.0494-1.7919-.0986-2.6878-.1476Z"/>
  <path class="cls-4" d="M182.6341,141.2479c.2874.2061.534.2913.5534.4128.0769.4832-.2612.6436-.6646.6319-.1558-.0045-.3069-.1671-.4601-.2576.1905-.2625.3811-.5249.5713-.7871Z"/>
  <path class="cls-1" d="M228.2858,138.8578c.1762.4375.3524.875.5292,1.3138-.2087-.2355-.4179-.4725-.6271-.7088-.0184-.1518-.041-.3036-.0677-.4547l.1657-.1503Z"/>
  <path class="cls-6" d="M228.1201,139.0082c.0267.1511.0493.3029.0678.4547-.1539-.1754-.3079-.3502-.4608-.5251.1333.0147.264.0382.3931.0704Z"/>
  <path class="cls-2" d="M63.157,87.1105c2.6831-1.1843,5.4572-1.7878,8.4144-1.485,2.4354.2493,4.7289.7884,6.8116,2.1891,4.2299,2.8448,3.6593,1.9978,5.9913,6.6743.3307.6631.7276,1.2931,1.0937,1.9385.2231.9692.4719,1.9334.6622,2.909.1719.8819.2799,1.7762.4166,2.6651-.7707.8526-.4269,1.8669-.4102,2.8338-.1174.2535-.3184.5002-.3395.7614-.2334,2.8882-1.4914,5.3005-3.2751,7.529-.7456.9315-1.3215,2.0277-1.8216,3.1192-.547,1.1939-1.4499,1.8611-2.5942,2.3835-4.3229,1.9737-8.8844,2.737-13.5714,2.3667-3.2193-.2543-6.4662-.5453-9.5817-1.5979-1.129-.3815-2.3576-.4676-3.5404-.6893-.5751-.142-1.1075-.4108-1.1091-1.0621-.0032-1.2925-.0478-2.6083.1661-3.8736.5701-3.3716,1.2683-6.7216,1.9152-10.0801,1.1267-1.4007,1.5204-3.1697,2.0204-4.79,1.3725-4.4482,4.3321-7.6336,7.6343-10.6315.3966-.3601.746-.7723,1.1173-1.1603Z"/>
  <path class="cls-3" d="M2.7005,12.4567c.6781-.7116,1.3562-1.4232,2.0483-2.1496,2.0262,1.3004,2.1212,2.9912,1.3343,4.7788.4312.6472.8815.5956,1.2237.2048.7108-.8115,1.3547-1.6817,2.0286-2.531q1.4917,1.1821,4.2178,1.7034c.8343-1.3309,1.9312-2.4053,3.6705-2.5141.5116,2.0746.2224,3.9175-1.004,6.1677.246.3756.5727.8094.8275,1.282.2544.4717.4369.9823.6148,1.3927-.5884.8488-1.2797.7442-1.8296.4226-1.7345-1.0144-3.7032-1.5711-5.3381-2.7786-.2685-.1983-.6649-.2232-1.177-.3827-.2591.6708-.4792,1.2407-.738,1.9108-.5098.2099-1.0875.4478-2.2268.917.5655.2424.8042.3959,1.0623.443.3623.0662.7483.1168,1.1081.0642,3.0635-.4483,5.5526,1.1072,8.1047,2.3642.7058.3476,1.2295,1.065,1.8378,1.613.0028.543.0045,1.0858.0054,1.6286-.906,1.5033-.9409,2.6447-.1381,4.494.0026.5585.0052,1.117.0078,1.6755-.2852.1501-.7819.2625-.8165.4571-.108.6075.4384.5903.8542.6471-.0255.7455-.051,1.4911-.0761,2.2368-1.2229.5228-1.2687.7019-.4385,1.7154-.0158.3652-.0316.7303-.0476,1.0955-.7707,1.465-.781,2.3514-.0456,3.9298-.0054.6417-.0129,1.2833-.0159,1.925-.0068,1.4404-.5441,2.6522-1.5685,3.6558-1.0213.9674-2.2504,1.7966-2.2725,3.4265-.2001.1725-.4002.3451-.6003.5174-.1836.1846-.3673.3693-.5509.554-.0938.16-.1524.3631-.2869.4733-1.547,1.2669-1.7578,2.7032-.7321,4.4304.3131.5273.4152,1.2437.4257,1.8765.054,3.2548.055,6.5105.0481,9.7659-.0007.3342-.1759.668-.2793,1.0344-1.8255-1.0422-1.8804-1.0582-1.9372-2.3873-.0636-1.4861-.0064-2.9775-.0717-4.4635-.0443-1.0107-.1176-2.0374-.3477-3.0171-.188-.8004.1422-1.4479.2586-2.1668.0681-.4209.0422-1.1187-.2088-1.283-.9463-.6192-1.2116-1.5776-1.607-2.51-.1712-.4039-.4822-.9197-.8441-1.04-1.1818-.3926-1.5541-1.5525-2.3789-2.2659.4479-1.4673-.7254-2.1429-1.6503-3.0896.1189-1.0477.1559-2.1584.3871-3.2271.3433-1.5863.2776-3.0503-.3316-4.6038-.899-2.2927-1.0138-4.6465.5324-6.9183-.2205-.5389-.4319-1.1493-.7151-1.7241-.3623-.7355-.3923-1.4148.1503-2.07.3792-.4578.417-.9296.3115-1.5387-.3276-1.8924-.7586-3.805.669-5.5418.2733-.3326.2872-1.3635.0287-1.5624-.9876-.7599-.6678-2.1191-1.5148-2.881.0372-.732.0745-1.4641.1109-2.1963.2588-.2023.5184-.4044.7779-.6065-.2652-.1963-.5305-.3927-.7957-.589-.0203-.9216-.0406-1.8433-.0608-2.7649Z"/>
  <path class="cls-8" d="M2.6682,18.6134c.847.762.5272,2.1212,1.5148,2.881.2585.1989.2446,1.2298-.0287,1.5624-1.4275,1.7368-.9965,3.6494-.669,5.5418.1054.6091.0677,1.0809-.3115,1.5387-.5427.6552-.5127,1.3345-.1503,2.07.2833.5749.4946,1.1852.7151,1.7241-1.5462,2.2718-1.4314,4.6256-.5324,6.9183.6091,1.5535.6749,3.0175.3316,4.6038-.2312,1.0687-.2683,2.1793-.3871,3.2271.9249.9467,2.0982,1.6223,1.6503,3.0896-.4972-.2112-1.2519-.2889-1.4446-.6592-.8076-1.5512-1.5127-3.198-.9714-5.0089.2529-.8463.1644-1.5972-.0222-2.44-.499-2.2542-.8784-4.5357-1.2682-6.8127-.0765-.4464-.103-.9638.0471-1.3756.5595-1.5342.3991-3.116.4321-4.6873.0117-.5572-.1043-1.1526.0525-1.6648.5321-1.7383.6969-3.4456-.0111-5.1717-.0665-.1624-.0322-.3674-.0392-.5528-.0357-.9372.5394-3.4517,1.0924-4.7838Z"/>
  <path class="cls-6" d="M53.5482,140.6791c-1.3045-2.3256-2.2187-4.8014-2.8425-7.3898.2019-.2168.4047-.433.6073-.6509,1.5862,2.4155,2.2577,5.1006,2.331,7.961l-.0957.0798Z"/>
  <path class="cls-8" d="M18.3326,31.4875c-.8027-1.8493-.7679-2.9907.1381-4.494.5737,1.5171.7936,3.0234-.1381,4.494Z"/>
  <path class="cls-8" d="M13.9133,52.2519c.0221-1.6299,1.2512-2.4591,2.2725-3.4265.1201.2252.3884.4959.3357.6685-.4089,1.3375-1.062,2.4815-2.6082,2.758Z"/>
  <path class="cls-6" d="M50.2173,127.7397c-.1796-.0369-.4149-.0135-.5302-.12-1.2924-1.1942-1.4127-2.1199-.5318-3.8376.3542,1.3187.7081,2.6381,1.062,3.9576Z"/>
  <path class="cls-8" d="M17.7703,43.2447c-.7354-1.5785-.7251-2.4649.0456-3.9298.748.667.5375,1.5249.4161,2.3332-.0815.5431-.3029,1.0652-.4617,1.5966Z"/>
  <path class="cls-8" d="M17.8635,38.2194c-.8302-1.0135-.7844-1.1926.4385-1.7154.067.6263.159,1.2589-.4385,1.7154Z"/>
  <path class="cls-8" d="M2.7613,15.2216c.2652.1963.5305.3927.7957.589-.2596.2021-.5191.4041-.7779.6065-.0054-.3983-.0116-.7969-.0178-1.1955Z"/>
  <path class="cls-8" d="M18.3781,34.2672c-.4158-.0568-.9622-.0396-.8542-.6471.0346-.1946.5313-.307.8165-.4571.0125.368.0251.7361.0377,1.1041Z"/>
  <path class="cls-8" d="M12.7621,53.3234c.1837-.1847.3673-.3695.5509-.554-.1836.1848-.3673.3694-.5509.554Z"/>
  <path class="cls-2" d="M98.9247,174.2169c2.3123.0133,4.2565-1.2111,6.3527-1.9178.3076-.1036.7106-.4686.7424-.7498.1234-1.0912.9446-1.3042,1.7446-1.5406,2.7906-.8246,5.3011-2.1332,7.3945-4.185,2.8177-1.261,5.805-2.074,8.7934-2.6639,2.8948-.5715,5.9096-.5456,8.8742-.7466,1.1434-.0775,2.2127.2514,3.2036.8269,2.4957,1.4494,5.0465,2.8135,7.4664,4.3799,1.3903.8999,2.5249,2.0892,3.2332,3.7344,1.3221,3.0713,2.9128,6.0258,4.3242,9.0603.5863,1.2606,1.04,2.5886,1.4709,3.9131.1663.5111.1935,1.1086.1271,1.6474-.3858,3.1322-.8172,6.2587-1.2382,9.3866-.0247.1832-.145.3629-.136.5398.1386,2.7118-1.0894,5.034-2.0767,7.4306-.4604,1.1174-.9452,2.2433-1.2265,3.4117-.4814,2-1.6236,3.5169-3.0941,4.8648-.6149.5637-1.1662,1.197-1.7464,1.7985-1.1557.5359-2.3953.9451-3.4457,1.6404-1.2846.8503-2.5945,1.2683-4.1251,1.2238-2.0164-.0586-3.9467.4857-5.8672,1.0329-.9216-.1301-1.8431-.2602-2.7647-.3892-1.1252-.4013-2.2211-.9863-3.381-1.1728-4.0543-.6517-7.5008-2.5699-10.7557-4.9166-1.4254-1.0277-2.887-2.0437-4.1386-3.2637-1.3148-1.2817-2.5496-2.7025-3.5479-4.2391-1.6634-2.5599-3.2136-5.2058-4.1956-8.1347-.1076-.321-.4595-.56-.6966-.837-1.161-3.8499-1.5208-7.788-1.386-11.7967.0934-2.7771.0675-5.5583.0949-8.3377Z"/>
  <path class="cls-1" d="M129.696,217.3044c1.9205-.5472,3.8508-1.0915,5.8672-1.0329,1.5306.0445,2.8405-.3735,4.1251-1.2238,1.0504-.6953,2.2899-1.1045,3.4457-1.6404-.3121,1.6583-1.5082,2.5936-2.934,3.0679-2.9957.9964-6.0614,1.7782-9.2738,1.3525-.4257-.0564-.8209-.3432-1.2302-.5232Z"/>
  <path class="cls-1" d="M127.6229,160.3549c-.7758-.0771-1.5517-.1543-2.5281-.2513q1.3533-.4166,2.5281.2513Z"/>
  <path class="cls-7" d="M66.4764,168.0474c-.4974-.3409-1.0151-.6562-1.4867-1.0297-.4665-.3695-.8865-.7976-1.327-1.2,1.3015.4323,2.8028.4446,3.9166,1.8295-.4867.1766-.7948.2884-1.1029.4002Z"/>
  <path class="cls-7" d="M63.0675,165.769c-.9738.137-1.432-.7326-2.1465-1.1009,1.3235-.7507,1.6432-.5866,2.1465,1.1009Z"/>
  <path class="cls-7" d="M60.9052,161.3089c.7516.4335,1.267.9598.8742,1.9608-1.0256-.4068-.8641-1.2082-.9347-1.9084l.0605-.0524Z"/>
  <path class="cls-6" d="M53.6439,140.5993c.4207.3637.7212.7472.085,1.4171-.0717-.5344-.1256-.9364-.1802-1.3379-.0006.0005.0951-.0793.0951-.0793Z"/>
  <path class="cls-7" d="M60.8447,161.3613c-.1249-.1191-.307-.2189-.3556-.3636-.0353-.1055.1055-.2701.1678-.4083.0562.067.1418.1259.1626.2025.0457.1679.0586.3447.0853.5175.0005-.0004-.06.0519-.06.0519Z"/>
  <path class="cls-7" d="M106.1528,146.7465c.042-.4187.0841-.8373.1343-1.3378,1.1655.8149,1.1647.8209-.0465,1.423.0006.0006-.0878-.0852-.0878-.0852Z"/>
  <path class="cls-6" d="M86.1366,104.8353c-.0167-.9668-.3605-1.9811.4102-2.8338,1.6186,1.3328,1.5252,1.9793-.4102,2.8338Z"/>
  <path class="cls-4" d="M60.9287,121.8923c1.1761-.2463,2.4019-.508,3.4558.5729-1.3373.6384-2.2903-.5391-3.4558-.5729Z"/>
  <path class="cls-5" d="M6.6582,8.4111c-.7125-1.8496-.8731-3.7283-.3991-5.7284,1.3257-.2688,2.5628-.6207,3.8224-.7467,1.2651-.1265,2.5526-.0278,3.7351-.0278.9234.6984,1.1473,1.5568,1.1392,2.5173-.0116,1.3873-.0206,2.7745-.0314,4.1622-1.4659-.5261-2.8691-.8085-4.4866-.2944-1.1557.3673-2.5125.1012-3.7796.1177Z"/>
  <path class="cls-4" d="M259.5191,156.2948c-.564-.1861-1.128-.3722-1.692-.5583,0,0,.0128.0157.0128.0157-.0197-.3632-.0393-.7264-.059-1.0896-.3544-.9523-1.3857-1.6568-1.0474-2.8628.6605.3081,1.3126.6369,1.9862.9132.2377.0975.5281.0667.8813.1035.4699-.4944.9542-1.004,1.471-1.5478-.5944-1.2321-1.3953-1.8124-2.6601-1.5569-1.1263.2275-1.8093.8437-1.6726,2.0964-.3757-.1723-.7585-.3308-1.1251-.5207-.3726-.193-.7292-.417-1.0928-.6274.2503-1.3652-.7173-1.7871-1.7009-2.1966-.2052-.3714-.3585-.866-.9117-.6942-.1288.04-.1377.466-.2017.7144-.7584.0378-1.5168.0756-2.2752.1133,0,0-.173-.1564-.1753-.1562.0089-1.0082.1205-1.9571,1.093-2.5797.1723-.1103.1724-.4899.2518-.7451.367-.3351.7342-.6701,1.1568-1.0556-.7304-.478-1.9103.1104-1.8302-1.1917.1389-.7036.6263-.9704,1.271-1.1907,1.2724-.4349,1.7788-1.397,1.578-2.7273.3826.0027.765.0054,1.1474.008l-.0146-.0142c.0692.7093.1383,1.4187.2292,2.3504.598-.2203,1.0922-.2587,1.355-.5253.9007-.9137,1.728-1.9008,2.5682-2.8729.547-.6329,1.2346-.7447,2.0058-.6119.1846.5663.3692,1.1329.5538,1.6994-.7204.11-1.4931.0915-2.1498.3583-1.1734.4768-1.293,1.7007-.2401,2.3638.5142.3239,1.2011.3735,1.8098.5473-.3791,1.0179-1.0192,1.7027-2.1872,1.714-.0534-.6998-.4073-1.0931-1.1314-1.1085-.0292-.0672-.0462-.1448-.0917-.198-.0285-.0333-.0998-.0301-.1519-.0432.0751.0865.1503.1731.2253.2596.031.7066.3892,1.0948,1.1043,1.1357-.2317,2.0479-.4571,2.306-2.4021,2.7496.1073-.2516.2137-.5036.3219-.7547.2496-.579.6929-1.2852.0172-1.7097-.4643-.2916-1.2005-.2298-1.805-.186-.3213.0233-.6986.2822-.9107.547-.2631.3285-.5714.8075-.5083,1.1581.0627.3483.5134.7646.8815.8863.4973.1644,1.0782.0759,1.6232.0959.1034.5035.2067,1.0071.3552,1.7306,1.2177-.7714,2.2204-1.4066,3.1738-2.0106.7119.296,1.3808.5741,2.0501.8519.1866.3716.3728.7436.559,1.1156.1217,1.0154.6066,1.6558,1.7102,1.6576.0092,2.6154-.0004,2.6057-1.9384,4.5117-.5193.5108-.9606,1.101-1.4376,1.6548,0,0,.0197-.0164.0197-.0164Z"/>
  <path class="cls-4" d="M252.7919,122.7266c.5635.0005,1.1269.001,1.6904.0015,0,0-.0179-.0152-.0179-.0152.3341.7275.8847,1.1308,1.7008,1.1367l-.022-.0212c.1951.1953.3903.3906.5854.5859l-.0223-.0221c.116.5208.4833,1.1635.301,1.5396-.5563,1.1473-1.2295,2.27-2.0392,3.2522-.6774.8217-1.7431,1.3146-1.8373,2.5857-.0132.1784-.5953.3145-.9141.4702.2933-1.1778.2713-2.1673-1.2348-2.4965-.2256-.0494-.3481-.5703-.5177-.8727.1824-.1681.3638-.3369.5459-.5051.679-.6274-.0304-.5425-.3398-.6627-.024-.5397-.0481-1.0793-.0724-1.619.7521-.2235,1.5046-.447,2.257-.6704-.072.1788-.144.3577-.216.5365-.4271.4409-.4955.87.0423,1.279l.0731.0985c1.1538,1.1803,1.1931,1.1788,2.3324-.0863.4989-.3768.7091-.9301.4181-1.4355-.1947-.3382-.6981-.6382-1.0952-.685-.504-.0594-1.0403.155-1.5626.2513-.0144-.8869-.0288-1.7737-.0432-2.6606l-.0119.0153Z"/>
  <path class="cls-1" d="M252.2167,132.2399c.3188-.1557.9009-.2918.9141-.4702.0942-1.2711,1.1599-1.764,1.8373-2.5857.8097-.9822,1.4829-2.1049,2.0392-3.2522.1823-.3761-.185-1.0188-.3009-1.5396.7509.0004,1.5018.0008,2.2527.0011.2445.555.4018,1.1738.751,1.6524.837,1.1469,1.7642,2.2278,2.6545,3.3359-.0005.0005-.1213.1201-.1213.1201-.9173-.0562-1.4078-.7625-2.0103-1.3068-.5875-.5307-1.198-1.0358-1.8113-1.5632-1.1616.7508-1.5615,1.712-1.6838,2.8363l.0129-.0122c-.3028.1867-.7152.3022-.8902.5719-.9184,1.4153-1.7768,2.8697-2.656,4.3105-.4899.2517-.9798.5033-1.4697.7549-.0191-.3851-.0382-.7701-.0573-1.1554.1885-.5761.3771-1.1521.5656-1.7281l-.0266.0303Z"/>
  <path class="cls-4" d="M251.7351,135.0931c.4899-.2516.9798-.5032,1.4713-.7536.113.1027.2216.207.3274.3142-.413,1.5316.5588,2.0492,1.6732,2.4888.9953-.5705,1.6301-1.2858,1.9298-2.283.4238.2508.7569.5857.6662,1.1127-.191,1.1099-1.1939,1.6098-1.8503,2.3701-.5507.6379-1.2748.6969-2.0428.6023l.0146.0142c-.3596-1.38-1.144-2.4852-2.2048-3.4118-.001-.1515.0041-.3028.0154-.4538Z"/>
  <path class="cls-4" d="M251.6433,121.5723c.768.0013,1.1087.4281,1.1487,1.1543,0,0,.0119-.0153.0119-.0153-1.213.7138-2.0945,1.7403-2.781,2.9507-1.3795-.3039-1.1038-1.3892-1.106-2.3438,1.3667.1339,2.2229-.5305,2.7265-1.7459Z"/>
  <path class="cls-8" d="M251.6433,121.5723c-.5036,1.2155-1.3598,1.8799-2.7265,1.7459-.1261-.4816-.2526-.9636-.3772-1.4428.1237-.1335.2354-.2809.3691-.4043q1.0566-.9745,2.3297-.2634c.1545.0867.2708.2413.4049.3645Z"/>
  <path class="cls-1" d="M250.0228,125.6621c.6865-1.2104,1.5679-2.2369,2.781-2.9508.0144.8869.0288,1.7737.0428,2.6588-.0004-.0018.0083.0433.0083.0433-.7524.2235-1.5049.4469-2.257.6704-.1915-.1405-.3833-.2812-.5751-.4218Z"/>
  <path class="cls-1" d="M251.7196,135.547c1.0608.9266,1.8453,2.0318,2.2048,3.4118-.3824-.0027-.7649-.0053-1.1474-.008-.0001-.0001.0265.0286.0264.0285.0128-.8396-.4524-1.3733-1.1313-1.7703.0158-.554.0317-1.108.0475-1.6619Z"/>
  <path class="cls-1" d="M249.9281,142.8688c-.0801,1.3021,1.0998.7137,1.8302,1.1917-.4226.3855-.7898.7205-1.1568,1.0556-1.2571-.8985-1.3062-1.0622-.6734-2.2473Z"/>
  <path class="cls-4" d="M252.2433,132.2096c-.1885.576-.3771,1.152-.5656,1.7281-.4804-.0695-.9874-.2071-.9096-.7934.0357-.2698.4013-.5404.6765-.7197.2197-.1431.5292-.1485.7987-.215Z"/>
  <path class="cls-1" d="M250.6703,127.7028c.3094.1203,1.0188.0353.3398.6627-.182.1682-.3635.3369-.5459.5051-.5452-.4982-.3576-.8663.2061-1.1678Z"/>
  <path class="cls-4" d="M251.6721,137.2089c.679.397,1.1441.9308,1.1313,1.7703-.7198-.3709-1.3061-.8273-1.1313-1.7703Z"/>
  <path class="cls-4" d="M287.9282,138.9436c-.139.1933-.278.3867-.4168.5801-.0608.7422-.5365,1.0642-1.2052,1.1903-.3249.1284-.7665.1654-.9533.4029-.5879.747-.882,1.6203-.6934,2.598-.6747.6367-.0128,1.1412.1973,1.6619.205.508.5075.9675-.1178,1.3821-.3126-.1503-.6433-.4566-.9336-.4221-.8774.1043-1.7757.2581-2.352.8576-.2615,1.0794.3542,1.4748.9967,1.8539.2465.5343.7173,1.03.1858,1.6672-.6372.7639-1.2471.2638-1.8693-.0008-.0198-.7954-.3832-1.3624-1.1173-1.6833-.1956-1.4593.2877-2.6925,1.2347-3.7827.4191-.4825.7116-1.1429,1.2236-1.4638,1.3944-.8739,1.7029-2.2739,2.0525-3.6863.8531-.0452,1.1652-.6899,1.4427-1.3415.231-.5425-.1287-.7923-.5674-.971.0495-.2686.1134-.5355.1455-.8061.0792-.6689-.0071-1.2944-.6623-1.6557-.6905-.3807-1.4191-.3908-2.0624.0738-.7345.5305-1.4347,1.1234-1.4712,2.2494.9016.715,1.756,1.5645,3.1115,1.0053.0041.4651.0081.9303.0122,1.3954-.7528.2755-1.5057.551-2.4384.8922.2678.7322-.0433,1.4084-.6002,2.0581-.7039.8212-1.3461,1.7029-1.9426,2.6062-.439.6649-1.0488.6059-1.6829.5908-.0927-.0756-.1851-.1516-.2774-.2277.0732.0952.1464.1905.2196.2858.1535,1.0715-.1604,1.9084-1.1958,2.383-.0261-.7107.2513-1.508-.4795-2.0339-.6498-.4675-1.8025-.3616-2.2918.1651-.4782.5148-.6543,1.7104-.3436,2.333.2376.4761,1.1431.6981,2.0099.3833.4128-.1499.7509-.5059,1.1228-.7686.0647.5139.1293,1.0278.2193,1.7429,1.171-.5772,1.8905-1.8081,3.2345-1.439q.0871,1.3316,1.1211,1.6781-.032,1.4217-.6306,2.4214c-.5312-.2499-1.0624-.4997-1.5937-.7495-.7562-.1208-1.4162.0321-1.8723.6987-.3906.5709-.517,1.1321.1524,1.6099-.0087.3429-.0174.6857-.0265,1.0283-1.0035.2457-1.9178.0315-2.7641-.5344,0,0,.025.0252.025.0252-.013-.5782-.026-1.1563-.039-1.7345.4974-.4746,1.0061-.9385,1.4782-1.437.0612-.0646-.0204-.3546-.1208-.4565-.0968-.0983-.3779-.1735-.4491-.1113-.3195.2794-.5929.6113-.883.9242-.8616.2524-1.5501-.1768-2.2474-.5713l.0234.0236c-.4245-.7122-.6207-1.6533-1.7064-1.7025,0,0,.0254.033.0254.033-.1937-.3848-.3873-.7695-.581-1.1543,0,0,.0211.0265.0211.0265-.1855-.8395.1737-1.5457.55-2.2477.938-.8541,1.9101-1.6744,2.8024-2.5739.6368-.6419,1.3316-.9196,2.2111-.7605.1908.1801.3814.3606.5719.541.0235.1753.0335.3541.0767.5244.0197.0778.1051.1389.1607.2076.0599-.1382.2011-.3109.1606-.4066-.0602-.1421-.249-.2299-.3831-.3406-.1789-.1918-.3578-.3837-.5366-.5757-.1877-1.2683.1724-2.3287,1.1655-3.1688.7336-.6205,1.1869-1.3804,1.0574-2.3904.7424.1806,1.4847.3613,2.227.542.1845.1888.3691.3776.5537.5663.0185.1749.0232.353.0617.5233.0175.0776.102.14.1562.2093.0618-.1345.2057-.3046.1665-.3954-.0615-.1423-.2468-.2311-.3797-.3425-.1885-.1846-.3771-.3692-.5656-.5538-.2767-2.4592,1.2766-4.0816,2.7253-5.6919.3395-.3774,1.1605-.3213,1.7599-.4646,0,0-.0088-.0072-.0088-.0072.1884,1.3139.8659,2.1378,2.2533,2.2505l-.0221-.0244c.0348.7352.0696,1.4704.1096,2.3135.5779.604,1.9838.7809,1.4591,2.1723ZM279.8587,142.1993c-.1195-.1913-.2131-.4788-.4108-.6315-.5679-.4386-1.221-.4029-1.785.0283-.4502.3442-.7516,1.2137-.4251,1.4444.3356.2371.8392.3917,1.2383.3405.4165-.0534.8125-.3713,1.1823-.6249.1177-.0807.1229-.3255.2003-.5568Z"/>
  <path class="cls-4" d="M268.4626,157.9797c-1.0664.2601-1.4284-.8863-2.245-1.125l.019.0228c-.1733-.7115-.195-1.5119-.5497-2.117-.9094-1.5511-.7209-2.8007.6704-3.9163.3603-.2889.688-.631.9801-.9897.5973-.7334,1.3874-.8722,2.2582-.8173,0,0-.0211-.0265-.0211-.0264.1937.3848.3873.7695.581,1.1543,0,0-.0254-.033-.0253-.0329.0079.5139.0158,1.0278.0236,1.5416-.4513-.0273-.9518-.1936-1.3443-.0546-.9874.3495-1.3071,1.3145-.872,2.2852.1798.4011.8949.731,1.1614.4902.7516-.6793,1.5515-1.355,1.2795-2.5551.486-.0016.972-.0032,1.458-.0049,0,0-.0234-.0236-.0234-.0236.0115.9397.023,1.8794.0344,2.8191-1.1283,1.1165-2.2566,2.2331-3.3848,3.3497Z"/>
  <path class="cls-4" d="M266.2176,156.8547c-.0499.8139.3117,1.6697-.321,2.5546-1.6344.5001-3.3976.2802-5.1447.1796-.6047-.0348-1.0503-.4925-1.141-1.0739-.1135-.7271-.0685-1.4789-.0919-2.2201,0,0-.0197.0164-.0197.0164q1.4117.0636,1.762,1.119c-.0256.5807.1079,1.1768.6357,1.4093.4651.2049,1.0723.2688,1.5723.17.7508-.1484,1.3023-.7323,1.4658-1.4588.0812-.361-.2661-.8185-.4195-1.2323-.5458-1.018-1.7406-.1715-2.4122-.8335q.8178-1.1381,2.0035-1.3264c.9442.7203.9159,2.2076,2.1297,2.7191l-.019-.0228Z"/>
  <path class="cls-7" d="M254.8348,157.3855c-.496-.3756-.956-.818-1.497-1.1102-.7039-.3802-1.0514-.9284-1.1336-1.6899.0206-.5407.041-1.0818.0613-1.623,0,0-.0106.0111-.0106.0111,1.1093.0882,2.2186.1764,3.3279.2645l.7494,2.0486c-.2455.4719-.4555.9676-.7495,1.407-.1837.2745-.4942.4641-.7479.6918Z"/>
  <path class="cls-6" d="M252.8208,148.4636c.9834.4096,1.951.8314,1.7,2.1974-.0007.0006-.0755.0782-.0755.0782-1.3647.1224-2.1201.8424-2.1904,2.2345,0,0,.0106-.0111.0106-.0111-.416-.006-.832-.012-1.2481-.0179-1.4909-.1108-1.6815-1.3442-2.0747-2.4016,2.0353.5256,2.8921.1058,3.1969-2.0533.227-.0087.454-.0174.681-.0262Z"/>
  <path class="cls-7" d="M252.1397,148.4897c-.3048,2.1591-1.1616,2.5789-3.1969,2.0533.1637-.6506.3265-1.2992.4893-1.9469.7583-.0368,1.5167-.0745,2.2748-.1125.144.0095.2884.0116.4329.0061Z"/>
  <path class="cls-4" d="M274.0491,155.172c-.0308.6125-.0616,1.2249-.093,1.8491-1.1073.5134-2.1717.4959-3.2451.4118.5552-.757,1.1104-1.5139,1.6656-2.2709.5659.0117,1.1317.0235,1.6976.0352l-.025-.0252Z"/>
  <path class="cls-4" d="M254.8349,157.3855c.2536-.2277.5641-.4173.7479-.6918.294-.4394.504-.9351.7483-1.4076.3149-.0364.6311-.0723.9473-.1081.1872.1914.3744.3828.5616.5742,0,0-.0128-.0157-.0128-.0157-.0044.0893-.0137.1786-.0125.2678.0097.7359-.0353,1.4613-.8086,1.8355-.826.3997-1.5563.2181-2.1711-.4544Z"/>
  <path class="cls-6" d="M272.3765,155.162c-.5552.757-1.1104,1.5139-1.6656,2.2709,0,0,.004-.0039.004-.0039-.3823.1844-.7645.3687-1.1467.5531-.3685-.0008-.7371-.0016-1.1057-.0024,1.1283-1.1166,2.2565-2.2332,3.3846-3.3498.1763.1773.3528.3546.5294.532Z"/>
  <path class="cls-4" d="M251.0175,152.9446c.416.0059.832.0119,1.248.0179-.0203.5411-.0406,1.0822-.0613,1.623q-1.0849-.2385-1.1868-1.6409Z"/>
  <path class="cls-4" d="M269.5683,157.9822c.3822-.1844.7645-.3687,1.1467-.5531-.2108,1.1991-.2659,1.2256-1.1467.5531Z"/>
  <path class="cls-4" d="M258.959,124.3933c-.7509-.0004-1.5018-.0007-2.2527-.0011,0,0,.0222.022.0222.022-.1952-.1953-.3903-.3906-.5854-.5858,0,0,.022.0212.022.0212q-.3429-1.0867-1.7008-1.1366s.0179.0152.0179.0152c-.0863-1.1336.172-2.1527.7228-3.1762.9847-1.8297,2.3146-3.4796,2.8793-5.5385.1605-.5852.7738-.7438,1.3541-.795.0132.1851-.0054.3789.0432.5541.4726,1.706,1.3769,2.1193,2.803,1.2813.3944-.2318.7709-.4943,1.1555-.7426-.0603,1.1528-.9275,2.1658-.5859,3.388,0-.0001.006-.0056.006-.0056-.6841.2338-1.3682.4676-2.1012.7181-.1265,1.322-.2126,2.5216-1.0542,3.5138-.2473.2915-.1344.8887-.1866,1.3458l-.0003-.0002c-.521.2135-.6318.6328-.5708,1.1383l.0119-.0161ZM259.6638,119.3383c.05-.7661-.9234-1.4421-1.5311-.9704-.7074.5492-1.3068,1.2626-1.8521,1.9814-.178.2347-.0759.7134-.0372,1.0735.0515.4795.5778.807,1.0222.6837,1.172-.325,2.3255-1.6566,2.3981-2.7683Z"/>
  <path class="cls-7" d="M263.4401,114.3111c-.3847.2484-.7611.5109-1.1555.7426-1.4261.838-2.3304.4247-2.803-1.2813-.0485-.1752-.03-.369-.0432-.5541,1.0135-.0599,2.0277-.1198,3.0405-.1785.7424.1219.9048.665.9415,1.2994l.0197-.0281Z"/>
  <path class="cls-4" d="M252.7425,118.411c.5076.1074,1.0153.2147,1.7089.3614-.1792.3648-.3443.7673-.5656,1.136-.3382.5631-.8556.7385-1.4035.3654-.5299-.3609-1.033-.7899-1.4519-1.2725-.1917-.2208-.3106-.7533-.1769-.9424.1523-.2154.6214-.2133.9569-.2877.082-.0182.1797.034.2709.0532.2209.1951.4411.3908.6612.5866Z"/>
  <path class="cls-7" d="M252.7425,118.411c-.2201-.1957-.4403-.3915-.6612-.5866.0574-.3635.0633-.7461.1833-1.0886.4499-1.2838.8564-1.4186,2.5467-.8983.064.8138-.2926,1.3757-.9977,1.7804-.3827.2196-.7157.5259-1.0711.7931Z"/>
  <path class="cls-4" d="M263.4204,114.3392c-.0367-.6345-.1991-1.1775-.9415-1.2994-.0501-1.1934.8451-.8493,1.4864-.9168q.5967,1.2972-.5449,2.2162Z"/>
  <path class="cls-4" d="M262.3651,129.381c-.8908-1.1076-1.818-2.1885-2.655-3.3353-.3493-.4786-.5065-1.0973-.751-1.6524,0,0-.0119.0161-.012.0161.49-.229.6103-.6436.5709-1.1383,0,0,.0003.0002.0003.0002,1.628-.6299,1.7373-2.7053,3.3419-3.279v-2.2988s-.0059.0055-.006.0056c.7652-.0215,1.0566-.5664,1.3317-1.1648.6777-1.4739,1.3791-2.9369,2.0713-4.4039.8243-.0102,1.6497-.0538,2.4719-.02.576.0237.7208.4685.7262.9718-.1862.3948-.3732.7887-.5602,1.1826-.778-.0729-1.5561-.1458-2.3207-.2175-.3081.779.2512,1.0592.6945,1.3176.9972.5813,1.7752,1.2879,1.8479,2.5269-.3953-.128-.79-.254-1.1847-.3799-1.5066-1.2689-1.8556-1.2275-2.7397.3252-.2371,1.725.4635,2.8621,2.1276,3.395.0714.0518.168.1626.2097.1448.1449-.062.2709-.1685.404-.2582.1315-.0823.2745-.1305.429-.1446.4079.0233.8158.0466,1.2237.07,0,0-.0044-.0054-.0044-.0054-.2544.5357-.4777,1.0892-.7725,1.6016-.2574.4475-.5953.8487-.8976,1.2703-.3658.0163-.7316.0325-1.0974.0488-.1673-.5336-.5816-.696-1.086-.723,0,0-.0175-.0196-.0175-.0196-.0554-.2506-.0388-.5611-.1846-.7366-.1807-.2176-.496-.3233-.7532-.4773-.0773.2325-.1547.465-.232.6975-.2738.0065-.5483.0018-.8212.0214q-2.1683.155-2.888,2.4614c1.3717,1.5136,1.372,1.5276,2.9453,1.5035.6371-.0098,1.2731-.0954,1.9095-.1464l.096.0708c-.2602.5503-.5291,1.0968-.7789,1.6518-.5365,1.1917-1.4765,1.4132-2.6388,1.1181Z"/>
  <path class="cls-4" d="M272.9781,119.3249c.3103-1.79,1.7132-2.9049,2.6087-4.3986,1.2005.0733,2.2013.2676,2.3438,1.6944l-.0651.0874c-.5267-.0248-1.0534-.0496-1.6118-.0759-.5279.7923-1.0141,1.5223-1.4906,2.2375.3131.5924.5636,1.0662.8141,1.54-1.6416.8749-1.7584,1.375-.4854,2.3943.3239.2594.8028.3252,1.2105.4799,0,0-.0073-.0072-.0073-.0072.003.3599.0079.7198.0087,1.0796.0018.773-.4169,1.1407-1.1575,1.1956-.1468-1.5408-1.5046-2.1921-2.1877-3.2709-2.1808.7343-2.187.7342-2.2335,2.3752-.013.4603.022.922.035,1.383-.7535-.1733-1.5071-.3465-2.261-.5198.0017-.3719.0038-.7438.0059-1.1158,1.1155-.8725,1.8757-1.9775,2.2025-3.3663l-.0081.0092c.3674-.3795.7348-.759,1.1022-1.1385.3798.0024.7596.0048,1.1394.0072.1762.2154.4048.408.4613-.0322.0212-.1652-.2735-.3709-.4242-.5581Z"/>
  <path class="cls-4" d="M279.6539,117.1253c.3782.3726.7563.7451,1.1346,1.1177-.0007.5594-.0015,1.1189-.0024,1.6783-.9788.3106-1.1429,1.3368-1.7353,1.9881-.7491.8236-1.5138,1.5612-2.7556,1.3673,0,0,.0073.0072.0072.0071-.1697-.8842-.3394-1.7683-.5092-2.6525.5522.2865,1.1044.5731,1.7617.9141.6958-.6858,1.3288-1.3097,1.9817-1.9532-.2819-.7814-.5281-1.4638-.7743-2.1462.116-.112.2316-.2243.3469-.337.1819-.0068.3635-.0014.5446.0163Z"/>
  <path class="cls-6" d="M269.1174,117.8939c-.0733-1.2411-.8513-1.9477-1.8485-2.5291-.4433-.2584-1.0025-.5386-.6945-1.3176.7646.0717,1.5426.1446,2.3217.2177.4314.4132.8619.8261,1.2923,1.2391-.182.9836.8025,1.3789,1.0752,2.1331-.0032.2058-.0064.4116-.0094.6171-.6302-.0352-1.2606-.07-1.891-.1048-.0883-.0791-.1703-.1642-.2458-.2556Z"/>
  <path class="cls-7" d="M270.1884,115.5041c-.4305-.4129-.8609-.8259-1.2923-1.2391.186-.3941.373-.788.5592-1.1828.0902.0141.1809.0318.2722.0436q2.0072.2576,2.0995,2.327c-.5462.0171-1.0924.0342-1.6386.0513Z"/>
  <path class="cls-4" d="M270.1884,115.5041c.5462-.0171,1.0924-.0343,1.6386-.0513.4989.0426.9977.0851,1.6181.138-.3304,1.3098-.8888,2.0746-2.1815,2.0469-.2727-.7547-1.2572-1.15-1.0752-2.1336Z"/>
  <path class="cls-4" d="M269.3632,118.1494c.6304.0348,1.2609.0697,1.891.1048-.0039.5564-.0075,1.1123-.0109,1.6683-.1812.3746-.3625.7493-.5439,1.1239,0,0,.0081-.0092.0081-.0092-.3752.0005-.7504.0009-1.1256.0014,0,0,.0044.0054.0043.0053-.0277-.4153-.0553-.8305-.0829-1.2457-.0467-.5496-.0934-1.0993-.1402-1.6489Z"/>
  <path class="cls-4" d="M273.8991,114.7847c-.081-.2141-.1973-.4089-.2075-.6091-.0037-.0715.3483-.2444.3697-.2204.1396.1561.2329.3536.3414.5375-.1374.0797-.2748.1594-.5036.292Z"/>
  <path class="cls-6" d="M270.6994,121.0465c.1814-.3747.3627-.7493.5439-1.1239.186-.0071.3723-.0119.5585-.0145-.3676.3794-.735.7589-1.1024,1.1384Z"/>
  <path class="cls-6" d="M272.9781,119.3249c.1507.1872.4454.3929.4242.5581-.0565.4403-.285.2476-.4613.0322.0123-.1968.0247-.3936.0371-.5903Z"/>
  <path class="cls-4" d="M277.9305,116.6207c.4959-.0859.9212-.0014,1.1786.4885-.1152.1125-.2308.2248-.3454.3355-.2985-.2464-.5983-.4915-.8982-.7366l.0651-.0874Z"/>
  <path class="cls-7" d="M282.4501,149.0482c-.6425-.3791-1.2582-.7745-.9967-1.8539.5763-.5995,1.4746-.7533,2.352-.8576.2903-.0345.6211.2718.9336.4221-.7627.763-1.5258,1.5262-2.2889,2.2894Z"/>
  <path class="cls-8" d="M276.8398,154.6781c-.6694-.4778-.543-1.039-.1524-1.6099.4561-.6666,1.1161-.8195,1.8723-.6987.0541,1.2371-.5259,2.0017-1.7199,2.3086Z"/>
  <path class="cls-8" d="M284.6595,143.7149c-.1885-.9777.1056-1.8509.6934-2.598.1869-.2375.6284-.2744.9533-.4029.0201.9169.0404,1.8335.0606,2.7504-.5692.0837-1.1382.1671-1.7073.2504Z"/>
  <path class="cls-4" d="M285.2478,127.2018q1.189-.4793,2.2085.5548c0,.449.0005.898.0012,1.3455-1.3954.077-1.8071.2732-1.9742,1.2199-.1035.5865.042,1.2169.0743,1.828-.4774.0275-.9534.0546-1.4294.0817,0,0,.0088.0072.0088.0072-.4744-.9589-.6562-1.8313.1364-2.8064.4955-.6095.6659-1.4834.9822-2.2387l-.0078.0079Z"/>
  <path class="cls-8" d="M285.5591,132.1496c-.0337-.6107-.1793-1.2412-.0757-1.8276.1671-.9467.5788-1.1428,1.9742-1.2199.0056.9705.0114,1.9395.017,2.9097-.5622.0599-1.1242.1186-1.6863.1774l-.2292-.0396Z"/>
  <path class="cls-4" d="M285.7883,132.1892c.562-.0588,1.1241-.1175,1.6863-.1774.0002-.0012-.0006.2439-.0005.2437.1915.1793.383.3589.5744.5384-.0347.359-.0231.7301-.1131,1.0746-.2308.8834-.4381.9488-1.5758.5895-.0001-.0002.022.0242.022.0242-.4095-.7096-.7198-1.4447-.5933-2.293Z"/>
  <path class="cls-6" d="M288.0485,132.7938c-.1914-.1795-.3829-.359-.5744-.5384.1914.1796.3829.359.5744.5384Z"/>
  <path class="cls-7" d="M284.1291,122.7979c.1824.7166.3647,1.4332.5472,2.1498-1.6849,1.9845-1.9929,2.06-4.4393,1.0883.0001.0003.0079.0372.0079.0372-.0016-1.1144-.0032-2.2288-.0048-3.3432,0,0-.0039.0299-.0039.0299,1.2976.0126,2.5953.0253,3.8929.0381Z"/>
  <path class="cls-4" d="M280.2369,126.0357c2.4465.972,2.7545.8965,4.4394-1.0881.2488-.0728.4977-.1456.9308-.2722-.129.9069-.2441,1.7166-.3592,2.5263,0,0,.0078-.0079.0078-.0079-.3739.2122-.7986.3683-1.1097.6499-.4592.4157-.8376.9209-1.3255,1.4728-.9181-.7699-1.7418-1.4608-2.5656-2.1516l-.018-1.1293Z"/>
  <path class="cls-4" d="M284.1291,122.7979c-1.2976-.0127-2.5953-.0254-3.8928-.0384.3552-.953.7103-1.9057,1.0655-2.8584.384.007.768.0139,1.1519.0209.3168.4152.6801.8036.9381,1.2525.2947.513.4957,1.0799.7374,1.6234Z"/>
  <path class="cls-6" d="M281.3017,119.901c-.3551.9527-.7102,1.9054-1.0655,2.8585-.0001.0003.0038-.0295.0038-.0295-.767.3288-1.3315.8452-1.58,1.6762.247.8361.7989,1.3612,1.5848,1.6669,0,0-.0078-.0369-.0079-.0372.0059.3762.0119.7526.0179,1.129,0,0-.0854.0774-.0854.0774-.5544-.281-1.1126-.5548-1.6624-.8445-.888-.4681-1.5032-.316-2.0716.5393-.6484.9757-1.3487,1.924-1.9084,2.9487-.287.5254-.3168,1.1914-.4629,1.7938-.7642-.0637-1.4677.0335-2.0376.6327-.5737.6034-1.205,1.1528-1.7672,1.7661-.8759.9555-.9189,1.3922-.0745,2.3908.6113.7228,1.2268,1.3923,1.1415,2.4214l-.1558.13c-.6153-.5651-1.2222-1.1395-1.8478-1.693-.9307-.8234-1.4838-.8391-2.3777.1146-.8223.8774-1.4922,1.8966-2.2999,2.7894-.5592.6181-.5963,1.3316-.6423,2.0738-2.0347.0238-3.2756,1.2688-4.3872,2.665.3867.886.7095,1.6255,1.0322,2.3648l-.0423.0365c-.6689-.2781-1.3379-.5563-2.0497-.8523-.9534.604-1.9561,1.2391-3.1738,2.0106-.1485-.7235-.2519-1.2271-.3551-1.7307.1237-.0438.2504-.056.3801-.0367,1.945-.4437,2.1705-.7018,2.4025-2.75.0004-.0003.0452-.0455.0452-.0455,1.1677-.011,1.8078-.6958,2.1869-1.7137,0,0,.0056.0402.0056.0402q1.6911-.5742,1.6716-2.7573l.0753-.0683c2.2526.0303,2.3087-.0071,2.7712-1.8475.375-.4952.7499-.9904,1.1249-1.4856.5483-.042,1.0707-.1822,1.0459-.8522-.0242-.6533-.5224-.8058-1.0904-.7881l-.0214.0155c-.1607-.4692-.2428-.9885-.5019-1.395-.3202-.5025-.7873-.9113-1.1909-1.3606.3864-.0265.7728-.0529,1.1592-.0794.6987.5888,1.3864,1.1912,2.0988,1.763.9677.7768,1.8785.4972,2.3243-.739.1194-.3311.0625-.7257.0866-1.0912.3021-.2159.6042-.4319.9063-.6478.2489.2998.5576.5143.8906.1847.6952-.6879.4837-1.2219-.6215-1.6601-.2223-.2287-.4446-.4574-.6668-.6861-.2919-1.5209-1.1469-2.4673-2.727-2.6735-.0165-.2096-.033-.4192-.0494-.6285.389.0078.7779.0153,1.1668.0228.7535.1732,1.5071.3465,2.2599.52-.0007.0002-.0381.0217-.0381.0217.2152,1.5125,1.091,2.5239,2.2933,3.2797.9521-.5459,1.5941-1.133,1.5909-2.1734l-.0111.0291c.5548-.2765.579-.7854.5724-1.3078-.0375-.1104-.0443-.2227-.0204-.3369.7406-.0549,1.1593-.4225,1.1575-1.1956-.0008-.3599-.0057-.7198-.0087-1.0796,1.2418.194,2.0065-.5436,2.7556-1.3673.5924-.6514.7565-1.6776,1.7353-1.9881.1719-.0085.3438-.0153.5157-.0203Z"/>
  <path class="cls-1" d="M228.7492,142.3055c.0617-.4681.1234-.9362.1862-1.4056.1726.0877.344.1768.5147.2657.1214.2147.2435.4294.3657.6442-.0082.159-.0232.3173-.0455.4747-.3407.0069-.6809.0139-1.0211.021Z"/>
  <path class="cls-8" d="M229.8157,141.8099c-.1221-.2147-.2443-.4294-.3657-.6441.1224.2147.244.4294.3657.6441Z"/>
  <path class="cls-1" d="M265.0909,131.6751c-.3864.0265-.7728.0529-1.1588.0787-1.5694.8501-2.5038,2.3136-3.4534,3.725-.3171.4713-.2724,1.1863-.3931,1.7898l-.0176.0163c-.7711-.1329-1.4587-.0211-2.0057.6118-.8402.9721-1.6675,1.9592-2.5682,2.8729-.2628.2666-.757.305-1.355.5253-.0909-.9318-.1601-1.6411-.2292-2.3504.768.0946,1.4921.0356,2.0428-.6023.6564-.7603,1.6592-1.2602,1.8503-2.3701.0907-.527-.2423-.8619-.6648-1.1113-.3238-.3049-.6491-.6111-.9743-.9174.1004-.2819.2008-.5637.3086-.8667,1.0757.5274,1.4525,1.7027,2.7373,1.8145.7251-.8463,1.4263-1.8074,2.2743-2.6142.8552-.8136.9377-1.7331.7592-2.7754,0,0,.1208-.1196.1213-.1201,1.1628.2945,2.1028.073,2.6393-1.1187.2499-.555.5187-1.1014.7773-1.6512.0178-.0911.0371-.1827.0565-.2743-.0503.0676-.1006.1353-.1509.2029-.6365.051-1.2724.1366-1.9095.1464-1.5734.0242-1.5736.0102-2.9453-1.5035q.7198-2.3049,2.888-2.4614c.2728-.0195.5474-.0148.8213-.0212.2554.4772.6797.5713,1.1697.5162,0,0,.0175.0196.0169.02-.0814.8003.369,1.1493,1.0817,1.2756.1744.328.3488.6559.5231.9839.0165.2096.033.4192.0492.6284-.4999.985-.9756,1.9835-1.5064,2.9517-.4481.8173-.9807,1.5933-.7845,2.5987Z"/>
  <path class="cls-1" d="M266.2366,156.8775c-1.2138-.5115-1.1855-1.9989-2.1297-2.7191q-1.1856.1883-2.0035,1.3264c.6717.662,1.8665-.1845,2.4125.8334-1.2733-.1817-2.3331.2625-3.2546,1.112q-.3503-1.0554-1.762-1.119c.477-.5538.9183-1.144,1.4376-1.6548,1.9379-1.9061,1.9475-1.8963,1.9384-4.5117,0,0-.0066.0058-.0066.0058.4963.3283.9926.6568,1.5524,1.0272.7876-.8465,1.7848-1.3635,1.9411-2.5579,1.0518-.226,1.0778-1.0047.9919-1.8436,0-.2114.0002-.4229.0002-.6343.7264.5882,1.4738.6904,2.2511.097.18.1836.36.3671.54.5506-.3763.702-.7354,1.4081-.5499,2.2477-.8707-.0549-1.6609.0839-2.2581.8173-.2922.3588-.6198.7009-.9801.9897-1.3913,1.1157-1.5798,2.3653-.6704,3.9163.3547.605.3764,1.4055.5497,2.117Z"/>
  <path class="cls-7" d="M256.7394,151.8083c-.1367-1.2527.5463-1.8689,1.6726-2.0964,1.2647-.2555,2.0656.3248,2.6601,1.5569-.5168.5438-1.0011,1.0533-1.471,1.5478-.3532-.0368-.6436-.006-.8813-.1035-.6736-.2763-1.3257-.6051-1.9862-.9131,0,0,.0058.0084.0058.0084Z"/>
  <path class="cls-7" d="M255.4071,146.7628c-.1297-.0193-.2564-.0071-.3801.0367-.5451-.0199-1.126.0687-1.6232-.0958-.3681-.1216-.8188-.538-.8815-.8863-.0631-.3506.2452-.8295.5083-1.1581.212-.2648.5894-.5237.9107-.547.6045-.0438,1.3408-.1056,1.805.186.6757.4245.2324,1.1307-.0172,1.7097-.1083.2511-.2147.5031-.3219.7547Z"/>
  <path class="cls-7" d="M260.0418,142.2536c-.6087-.1738-1.2956-.2234-1.8098-.5473-1.0529-.6631-.9333-1.8871.2401-2.3638.6568-.2668,1.4294-.2482,2.1498-.3583l-.0212-.0278c.1785,1.1727-.3555,2.2272-.5533,3.3374l-.0056-.0402Z"/>
  <path class="cls-6" d="M257.2783,155.178c-.3162.0358-.6323.0717-.9473.1081-.2486-.6822-.4983-1.3651-.7482-2.0486-.3792-.8332-.7583-1.6658-1.1375-2.4983,0,0,.0748-.0776.0755-.0782.3643.2098.7209.4337,1.0935.6267.3666.1899.7494.3484,1.1251.5207,0,0-.0058-.0083-.0058-.0084-.3383,1.2058.693,1.9104,1.0478,2.8623-.1674.1717-.3352.3437-.5031.5158Z"/>
  <path class="cls-6" d="M260.6219,138.9842c-.1846-.5665-.3692-1.133-.5538-1.6994,0,.0001.0175-.0161.0173-.0161,1.3809.1022,1.6948,1.0342,1.7089,2.1993,0,0-.0753.0683-.0749.068-.3726-.1934-.7457-.3866-1.1187-.5797,0,0,.0212.0278.0212.0278Z"/>
  <path class="cls-6" d="M262.8754,150.1447c-1.1036-.0017-1.5885-.6422-1.7102-1.6576l.0543-.0481c1.0583.0802,1.562.6951,1.6492,1.7115l.0066-.0058Z"/>
  <path class="cls-6" d="M256.7233,142.859c.724.0156,1.0779.4088,1.1313,1.1087.0003-.0003-.0446.0448-.0449.0452-.7155-.0405-1.0738-.4287-1.1047-1.1353l.0183-.0185Z"/>
  <path class="cls-1" d="M252.1397,148.4897c-.1445.0055-.2889.0035-.4329-.0061.0643-.2482.0733-.6743.202-.7142.5532-.1719.7065.3228.9117.6942-.2268.0087-.4538.0174-.6808.0261Z"/>
  <path class="cls-6" d="M261.1652,148.4871c-.1862-.372-.3724-.744-.559-1.1156-.0004.0004.0419-.0361.0417-.036.1904.3679.3811.7357.5717,1.1034,0,0-.0543.0481-.0543.0481Z"/>
  <path class="cls-1" d="M257.2783,155.178c.1678-.172.3357-.3441.5031-.5158.0192.3636.0389.7268.0586,1.09-.1872-.1914-.3744-.3828-.5616-.5742Z"/>
  <path class="cls-6" d="M256.7049,142.8774c-.0751-.0865-.1502-.1731-.2253-.2596.0521.0132.1234.0099.1519.0432.0455.0533.0625.1308.0917.198.0001-.0002-.0182.0183-.0182.0183Z"/>
  <path class="cls-7" d="M252.8549,125.4134s-.0088-.0451-.0083-.0433c.5228-.0945,1.059-.3089,1.5631-.2495.3971.0468.9005.3468,1.0952.685.291.5054.0808,1.0587-.4185,1.4352-.7776.0287-1.5548.0577-2.332.0866,0,0-.0731-.0985-.0723-.0985-.0138-.4264-.0284-.8526-.0431-1.2789.072-.1788.144-.3577.216-.5365Z"/>
  <path class="cls-1" d="M252.7543,127.3274c.7772-.029,1.5544-.058,2.332-.0866-1.1389,1.2655-1.1782,1.2669-2.332.0866Z"/>
  <path class="cls-1" d="M254.4644,122.7129q1.3578.0499,1.7008,1.1366c-.816-.0059-1.3667-.4092-1.7008-1.1366Z"/>
  <path class="cls-1" d="M252.6389,125.95c.0147.4263.0293.8526.0431,1.2789-.5386-.409-.4702-.838-.0431-1.2789Z"/>
  <path class="cls-1" d="M256.1431,123.8283c.1951.1952.3902.3905.5854.5858-.1951-.1952-.3903-.3905-.5854-.5858Z"/>
  <path class="cls-4" d="M262.2433,129.5017c.1785,1.0422.0961,1.9618-.7592,2.7754-.848.8068-1.5492,1.7679-2.2743,2.6142-1.2849-.1118-1.6616-1.2871-2.7373-1.8145-.1079.303-.2083.5848-.3087.8665-.8767.2367-1.7533.4736-2.63.7104-.1058-.1072-.2145-.2115-.3275-.3142.8776-1.4421,1.7359-2.8964,2.6544-4.3118.175-.2697.5873-.3852.8901-.5718.0268.3635.0649.7266.0783,1.0906.0356.9692.6232,1.4889,1.4407,1.8624.5947.2717,1.0802.1149,1.5327-.2768.6183-.535.8578-1.2008.6298-2.0006-.1799-.631-.7235-.9055-1.2698-.9141-.8067-.0126-1.6162.158-2.4245.2506.1223-1.1243.5222-2.0856,1.6838-2.8363.6133.5274,1.2238,1.0325,1.8113,1.5632.6025.5442,1.093,1.2506,2.0103,1.3068Z"/>
  <path class="cls-7" d="M253.5338,134.6538c.8766-.2369,1.7532-.4738,2.63-.7104.3253.3064.6506.6127.9744.9176-.3011.9959-.9359,1.7111-1.9312,2.2817-1.1144-.4396-2.0862-.9572-1.6732-2.4888Z"/>
  <path class="cls-6" d="M280.2549,127.165c.8238.6908,1.6476,1.3817,2.5656,2.1516.4879-.552.8663-1.0571,1.3255-1.4728.3111-.2816.7358-.4376,1.1097-.6499-.3163.7553-.4867,1.6292-.9822,2.2387-.7926.9751-.6108,1.8475-.1364,2.8064-.5995.1433-1.4204.0873-1.7599.4646-1.4487,1.6103-3.002,3.2327-2.7253,5.6918,0,0,.0072-.0073.0072-.0073-.7424-.1807-1.4847-.3613-2.2273-.5422-.0002-.0002-.0243-.0209-.0243-.0209.0015-.7456.0029-1.4912.0044-2.2367q2.0145-.246,2.5691-2.5474c-.3314-.1174-.6723-.2382-1.0131-.3589-.0087-1.0313.3976-1.6988,1.5218-1.7371.3174.2866.5911.8272,1.1064.3969.4227-.3531.325-.8868-.0008-1.2238-.2949-.3049-.7559-.449-1.1437-.664-.1911-.0191-.2848-.1276-.281-.3253-.0004-.6288-.0008-1.2575-.0012-1.8863l.0854-.0774Z"/>
  <path class="cls-6" d="M270.1455,146.7895c-.18-.1835-.36-.367-.5401-.5507.3154-.4216.6056-.8654.953-1.2587.4236-.4796.7967-.9567.6604-1.6504-.0003,0,.0035.0778.0035.0778.6918.0659,1.2067-.2253,1.5304-.8199.283-.5198.1895-1.0259-.2063-1.4573-.4106-.4475-.8004-.0508-1.1951.0584-.2904-.27-.5808-.54-.8712-.8099.4835-.3238.7757-.7449.6906-1.358,0,0,.1558-.13.1547-.129,1.2348-.0278,1.6267,1.3787,2.7267,1.6194,1.002-.2371,1.1757-.9764,1.1292-1.8528.0366-.1084.104-.192.2021-.2508.6747-.1941,1.3495-.3882,2.0242-.5824,0,0,.0241.0207.0243.0209.1297,1.0102-.3235,1.7701-1.0572,2.3906-.9931.8401-1.3532,1.9005-1.1659,3.1691-.0005.0004-.05.0498-.05.0498-.8792-.1595-1.5739.1182-2.2108.7601-.8923.8995-1.8644,1.7198-2.8024,2.5739Z"/>
  <path class="cls-6" d="M276.1911,148.6366c1.0354-.4746,1.3493-1.3115,1.1958-2.383l.0581-.0586c.6337.0156,1.2434.0746,1.6825-.5903.5965-.9034,1.2387-1.785,1.9426-2.6062.557-.6498.868-1.326.6002-2.0581.9327-.3413,1.6855-.6168,2.4387-.8919.0003.0003.0515.0505.0515.0505-.35,1.4119-.6585,2.8119-2.0529,3.6858-.512.3209-.8045.9813-1.2236,1.4638-.947,1.0902-1.4303,2.3234-1.2347,3.7827l.0135-.0118c-1.3441-.369-2.0636.8618-3.2346,1.439-.09-.7151-.1546-1.229-.218-1.7402.0013.0027-.0193-.0817-.0193-.0817Z"/>
  <path class="cls-7" d="M284.0966,138.6528c-1.3555.5592-2.2099-.2903-3.1115-1.0053.0365-1.1261.7367-1.719,1.4712-2.2494.6433-.4646,1.372-.4545,2.0624-.0738.6552.3613.7414.9868.6623,1.6557-.032.2706-.096.5375-.143.8066-.5365.0443-.8672.3154-.9413.8662Z"/>
  <path class="cls-7" d="M276.1911,148.6366s.0206.0844.0193.0817c-.3733.2599-.7113.6159-1.1242.7658-.8668.3149-1.7723.0929-2.0099-.3833-.3107-.6227-.1346-1.8182.3436-2.333.4893-.5267,1.6419-.6326,2.2918-.1651.7308.5258.4534,1.3232.4795,2.0339Z"/>
  <path class="cls-8" d="M279.8587,142.1993c-.0773.2313-.0826.476-.2003.5568-.3698.2536-.7658.5715-1.1823.6249-.3991.0512-.9027-.1034-1.2383-.3405-.3265-.2307-.0251-1.1002.4251-1.4444.564-.4312,1.2172-.4669,1.785-.0283.1977.1527.2912.4402.4108.6315Z"/>
  <path class="cls-1" d="M272.3765,155.162c-.1765-.1774-.353-.3548-.5293-.532-.0113-.9396-.0227-1.8793-.0342-2.819.6973.3944,1.3858.8235,2.2474.5712-.0084.3602-.0169.7203-.0253,1.0805.013.5782.026,1.1563.039,1.7345-.5658-.0117-1.1317-.0234-1.6975-.0352Z"/>
  <path class="cls-6" d="M285.7883,132.1892c-.1265.8482.1838,1.5834.5933,2.293-1.3874-.1126-2.0649-.9365-2.2533-2.2504.476-.0271.952-.0542,1.4294-.0817.0014-.0004.2306.0392.2306.0392Z"/>
  <path class="cls-6" d="M284.0966,138.6528c.0742-.5508.4048-.8219.9413-.8662.4363.1782.7959.428.565.9705-.2775.6516-.5897,1.2963-1.4427,1.3415.0005.0004-.0507-.0497-.051-.05-.0044-.4655-.0085-.9306-.0125-1.3957Z"/>
  <path class="cls-6" d="M274.0351,153.4627c.0085-.3602.0169-.7203.0253-1.0805.2901-.313.5635-.6449.883-.9243.0711-.0622.3523.0129.4491.1113.1004.1019.182.3918.1208.4565-.4721.4986-.9808.9624-1.4782,1.437Z"/>
  <path class="cls-1" d="M271.8364,151.8345c-.486.0016-.972.0032-1.4559.0048-.1168.0053-.1931-.0499-.2268-.1656-.0079-.5138-.0157-1.0277-.0236-1.5416,1.0856.0491,1.2818.9902,1.7063,1.7024Z"/>
  <path class="cls-6" d="M279.6494,149.0313c.734.3209,1.0975.8879,1.1173,1.6833,0,0,.0171-.0168.0172-.0168q-1.0339-.3466-1.121-1.6782s-.0135.0117-.0135.0117Z"/>
  <path class="cls-1" d="M270.1554,150.165c-.1937-.3847-.3873-.7695-.581-1.1543.1937.3847.3873.7695.581,1.1543Z"/>
  <path class="cls-6" d="M275.7458,143.9808c.134.1109.3228.1986.383.3408.0405.0957-.1007.2683-.1606.4066-.0556-.0687-.1409-.1298-.1607-.2076-.0432-.1703-.0532-.3491-.0767-.5244,0,0,.0149-.0153.0149-.0153Z"/>
  <path class="cls-6" d="M280.2174,138.9492c.1329.1115.3182.2002.3797.3425.0393.0908-.1047.2609-.1665.3954-.0541-.0693-.1386-.1317-.1562-.2093-.0385-.1704-.0432-.3484-.0617-.5233,0,0,.0047-.0053.0047-.0053Z"/>
  <path class="cls-6" d="M280.2128,138.9545c-.1846-.1888-.3691-.3776-.5537-.5663,0,0-.0072.0072-.0072.0072.1885.1846.377.3693.5655.5538,0,0-.0046.0053-.0046.0053Z"/>
  <path class="cls-6" d="M275.7309,143.9961c-.1906-.1804-.3811-.3609-.5719-.541-.0003.0004.0493-.0491.0498-.0494.1793.1916.3581.3835.537.5753,0-.0001-.0148.0152-.0148.0152Z"/>
  <path class="cls-6" d="M277.3869,146.2536c-.0732-.0952-.1464-.1905-.2196-.2858.0923.0761.1846.1522.2774.2277.0004-.0005-.0577.058-.0577.058Z"/>
  <path class="cls-8" d="M270.1537,151.6737c.0337.1157.11.1709.2268.1656.2699,1.2002-.53,1.8758-1.2817,2.5552-.2665.2408-.9816-.0891-1.1614-.4902-.4351-.9707-.1154-1.9357.872-2.2852.3925-.1389.893.0273,1.3443.0546Z"/>
  <path class="cls-7" d="M261.2614,157.4302c.9215-.8495,1.9813-1.2937,3.2546-1.112.1531.414.5004.8715.4192,1.2325-.1635.7266-.715,1.3104-1.4658,1.4588-.5.0988-1.1073.035-1.5723-.17-.5278-.2325-.6612-.8285-.6357-1.4093Z"/>
  <path class="cls-4" d="M254.4453,150.7392c.3791.8326.7583,1.6651,1.1375,2.4983-1.1092-.0875-2.2185-.1757-3.3278-.2639.0703-1.392.8257-2.112,2.1904-2.2344Z"/>
  <path class="cls-7" d="M259.6638,119.3383c-.0726,1.1117-1.2261,2.4432-2.3981,2.7683-.4444.1233-.9707-.2043-1.0222-.6837-.0387-.3601-.1409-.8388.0372-1.0735.5453-.7188,1.1447-1.4322,1.8521-1.9814.6076-.4718,1.5811.2043,1.5311.9704Z"/>
  <path class="cls-6" d="M262.8601,117.6935v2.2988c-1.6046.5737-1.714,2.6492-3.3419,3.279.0522-.4572-.0607-1.0543.1865-1.3459.8417-.9922.9277-2.1918,1.0542-3.5138.7329-.2505,1.4171-.4843,2.1012-.7181Z"/>
  <path class="cls-1" d="M259.5179,123.2711c.0394.4947-.0808.9092-.5709,1.1383-.061-.5055.0499-.9248.5709-1.1383Z"/>
  <path class="cls-8" d="M269.3632,118.1494c.0467.5496.0934,1.0993.1407,1.6497-.7188.0627-1.0714.4812-1.1412,1.1749-.1545.0141-.2975.0623-.4291.1442-.2046.0376-.4091.0757-.6135.1138-1.6641-.5329-2.3647-1.67-2.1279-3.3958.9131-.1086,1.8266-.2165,2.74-.3244.3947.1259.7894.2518,1.1847.3799.0761.0934.158.1786.2464.2577Z"/>
  <path class="cls-6" d="M269.582,121.0387c.3752-.0005.7504-.0009,1.1256-.0014-.3268,1.3888-1.0871,2.4938-2.2028,3.3663-.1978-.1644-.3954-.3287-.5929-.493.3023-.4216.6402-.8229.8976-1.2703.2948-.5124.5182-1.0659.7725-1.6016Z"/>
  <path class="cls-7" d="M267.9118,123.9106c.1976.1643.3951.3286.5929.493-.0018.372-.0039.7439-.0056,1.1158-.3885-.0074-.7774-.0149-1.1664-.0227-.1745-.3283-.3489-.6563-.5234-.9857.0285-.1846.0302-.368.005-.5515.3658-.0163.7316-.0326,1.0974-.0488Z"/>
  <path class="cls-6" d="M267.9321,117.5119c-.9134.1078-1.8268.2157-2.74.3244.8844-1.5518,1.2333-1.5932,2.74-.3244Z"/>
  <path class="cls-6" d="M265.7109,123.2169c-.49.0551-.9142-.0389-1.1697-.5162.0773-.2327.1546-.4651.2319-.6977.2572.154.5725.2597.7532.4773.1458.1755.1292.486.1846.7366Z"/>
  <path class="cls-6" d="M268.3626,120.9741c.0698-.6938.4224-1.1122,1.1412-1.1749.0271.4144.0548.8296.0824,1.2449-.4079-.0233-.8158-.0466-1.2236-.0699Z"/>
  <path class="cls-6" d="M266.8144,123.9595c.0252.1836.0235.3669-.0051.5515-.7126-.1248-1.1629-.4738-1.0815-1.2741.505.0266.9193.1889,1.0866.7226Z"/>
  <path class="cls-6" d="M267.32,121.2321c.2045-.0381.4089-.0761.6135-.1138-.133.0901-.2589.1966-.4039.2586-.0416.0178-.1382-.093-.2097-.1448Z"/>
  <path class="cls-8" d="M277.8655,116.7081c.2998.2451.5997.4903.8982.7366.2448.6836.491,1.366.7729,2.1474-.6529.6435-1.2859,1.2674-1.9817,1.9532-.6572-.341-1.2095-.6276-1.7618-.9122-.0192-.1225-.0911-.1976-.2158-.2235-.2505-.4738-.5009-.9476-.8141-1.54.4764-.7152.9627-1.4451,1.4906-2.2375.5584.0263,1.0851.0511,1.6118.0759Z"/>
  <path class="cls-7" d="M275.1463,125.5519c-.0239.1141-.0171.2264.0203.3388-.1908.4366-.3816.8712-.5723,1.3059,0,0,.0111-.0291.0111-.0291-1.4521.1839-2.6808-.4166-3.8841-1.1063,0,0,.0374-.0215.0381-.0217-.0123-.4613-.0474-.9229-.0343-1.3833.0465-1.641.0527-1.6408,2.2335-2.3752.6831,1.0788,2.0409,1.7301,2.1877,3.2709Z"/>
  <path class="cls-6" d="M275.5772,120.4097c.1248.0259.1967.101.2158.2235.1698.8824.3395,1.7665.5093,2.6507-.4077-.1547-.8866-.2205-1.2105-.4799-1.273-1.0193-1.1563-1.5194.4854-2.3943Z"/>
  <path class="cls-4" d="M280.2449,126.0731c-.7859-.3057-1.3378-.8308-1.5848-1.6669.2485-.831.8131-1.3474,1.58-1.6762.0016,1.1143.0032,2.2287.0048,3.3431Z"/>
  <path class="cls-2" d="M271.1706,139.0207c.0851.6131-.2071,1.0342-.69,1.3568-.7308-.0492-1.4616-.1135-2.1938-.1415-1.2885-.0494-1.7221.8185-1.2751,2.0509.2448.6749.7957.9765,1.4572,1.1229.1676.4585.3562.4866.5684.0277.7273-.0359,1.4546-.0718,2.1818-.1077.136.6937-.2372,1.1708-.6607,1.6504-.3474.3934-.6376.8372-.953,1.2587-.7771.5935-1.5245.4913-2.251-.096-.1871-.1613-.3742-.3234-.5613-.4856,0,0,.0046.0037.0046.0037-.1535-.218-.307-.4359-.4605-.6538-.11-1.1177-.3752-2.1067-1.7817-2.1488l.0022.0075c-.19-.19-.38-.38-.57-.57,0,0,.0154.0098.0154.0098.0459-.7422.0831-1.4557.6422-2.0738.8077-.8928,1.4775-1.912,2.2999-2.7894.8938-.9538,1.447-.938,2.3777-.1146.6256.5534,1.2325,1.1279,1.8478,1.693Z"/>
  <path class="cls-4" d="M277.4075,137.8251c-.6747.1941-1.3495.3883-2.0213.5815.0877-.1651.1902-.3227.2545-.4946.5448-1.4572.3863-2.1238-.8318-2.7313-.6403-.3193-1.3831-.4952-2.0981-.581-.4856-.0582-.8443.3474-.9261.8541-.1627,1.0079.295,1.7904.9693,2.4819.6759.6931,1.3844,1.2671,2.4273.7226.0465.8764-.1272,1.6157-1.1292,1.8528-1.1-.2407-1.4919-1.6472-2.7267-1.6194.0864-1.0301-.5291-1.6996-1.1404-2.4224-.8444-.9986-.8014-1.4352.0745-2.3908.5622-.6133,1.1935-1.1627,1.7672-1.7661.5699-.5992,1.2734-.6964,2.0376-.6327l-.0096-.0096c.1899.19.3798.3799.5698.5699,0,0-.0091-.0078-.0091-.0078.5952,1.408,1.4834,2.5717,2.8089,3.3708,0,0-.0122-.0146-.0122-.0146-.0015.7456-.0029,1.4912-.0044,2.2367Z"/>
  <path class="cls-4" d="M261.2195,148.439c-.1906-.3678-.3813-.7355-.5717-1.1034-.3225-.7395-.6453-1.479-1.032-2.365,1.1115-1.3962,2.3525-2.6411,4.3872-2.665,0,0-.0154-.0098-.0153-.0098.19.19.38.38.57.57,0,0-.0022-.0075-.0021-.0075.1814.7554.3628,1.5107.5441,2.266-.5176-.174-1.024-.4269-1.5555-.502-.6832-.0965-1.2748.1804-1.5758.8503-.2527.5624-.0454,1.0581.296,1.531.978,1.3549,2.2966,1.7207,3.8728,1.3739.0782.0787.1537.16.2264.2439-.1576,1.1927-1.1548,1.7096-1.9424,2.5562-.5598-.3704-1.0561-.6988-1.5524-1.0272-.0872-1.0164-.5909-1.6313-1.6493-1.7115Z"/>
  <path class="cls-4" d="M265.0909,131.6751c-.1963-1.0054.3364-1.7814.7845-2.5987.5308-.9682,1.0065-1.9667,1.5064-2.9517,1.5804.2067,2.4354,1.153,2.7275,2.6744-.881.1641-1.7781.2734-2.6341.5234-.2686.0785-.6184.5562-.5905.8144.0423.3923.2998.9597.612,1.0832.6506.2574,1.3969.2729,2.1039.3878-.0241.3655.0328.7601-.0866,1.0912-.4458,1.2361-1.3567,1.5157-2.3243.739-.7123-.5718-1.4001-1.1742-2.0988-1.763Z"/>
  <path class="cls-4" d="M261.7943,139.4681c-.0141-1.1651-.328-2.0971-1.7089-2.1993.1209-.6036.0762-1.3186.3933-1.7899.9496-1.4114,1.884-2.8749,3.4534-3.725.4032.45.8704.8588,1.1906,1.3613.2591.4065.3412.9258.5026,1.3944-.5489-.0177-1.1068-.1028-1.6464-.0371-.985.1199-1.9785.965-1.9527,1.6503.0342.908.8297,1.1488,1.4817,1.438.3021.1339.7021.0467,1.0577.0598-.4625,1.8404-.5186,1.8778-2.7712,1.8475Z"/>
  <path class="cls-4" d="M280.1694,127.2424c.0004.6287.0008,1.2575.0014,1.8852-1.0113-.5412-2.051-.3037-3.0891-.1138-.7459.083-.8254.4379-.406.9961.1173.7695.2347,1.5391.3511,2.3088-.8045-.0288-1.6081-.0577-2.4116-.0867,0,0,.0091.0078.0091.0078-.1899-.1899-.3799-.3799-.5698-.5698l.0096.0096c.1461-.6024.1759-1.2684.4629-1.7938.5597-1.0247,1.26-1.973,1.9084-2.9487.5684-.8553,1.1836-1.0073,2.0716-.5393.5498.2898,1.108.5636,1.6624.8445Z"/>
  <path class="cls-8" d="M269.6005,131.608c-.707-.1149-1.4533-.1304-2.1039-.3878-.3122-.1236-.5697-.691-.612-1.0832-.0278-.2582.322-.7359.5905-.8144.856-.25,1.7531-.3593,2.6341-.5234.2221.2283.4444.4569.6661.6852-.0899.4916-.1792.9837-.2686,1.4758-.3021.2159-.6042.4319-.9063.6478Z"/>
  <path class="cls-7" d="M264.5655,137.6206c-.3556-.013-.7557.0741-1.0577-.0598-.652-.2891-1.4475-.53-1.4817-1.438-.0258-.6853.9678-1.5304,1.9527-1.6503.5395-.0657,1.0974.0194,1.6464.0371-.0007.0006.0207-.015.0207-.015.0148.5468.0297,1.0936.0445,1.6403-.375.4952-.7499.9904-1.1249,1.4856Z"/>
  <path class="cls-4" d="M270.7213,126.0611c1.2033.6898,2.4321,1.2903,3.8841,1.1063.0033,1.0404-.6387,1.6274-1.5909,2.1734-1.2022-.7558-2.0781-1.7672-2.2933-3.2797Z"/>
  <path class="cls-4" d="M260.6007,138.9564c.3731.1932.7461.3863,1.1187.5797q.0191,2.1834-1.672,2.7577c.1978-1.1102.7318-2.1647.5533-3.3374Z"/>
  <path class="cls-4" d="M270.5068,130.9602c.0893-.4921.1787-.9842.2685-1.4758,1.1058.4387,1.3173.9726.6221,1.6605-.333.3295-.6418.1151-.8906-.1847Z"/>
  <path class="cls-4" d="M265.6904,136.1349c-.0148-.5468-.0296-1.0935-.0445-1.6403.568-.0178,1.0662.1348,1.0904.7881.0248.6701-.4977.8103-1.0459.8522Z"/>
  <path class="cls-4" d="M274.5943,127.1966c.1908-.4346.3815-.8693.5723-1.3059.0066.5205-.0176,1.0293-.5723,1.3059Z"/>
  <path class="cls-6" d="M265.6869,126.5403c.0503-.0676.1006-.1353.1509-.2029-.0194.0916-.0388.1832-.0565.2743.0016-.0005-.0943-.0714-.0944-.0714Z"/>
  <path class="cls-4" d="M267.3541,146.7762c.0858.8389.0599,1.6175-.9919,1.8436-.0714-.0822-.1468-.1635-.2242-.2414.0313-.9023.0618-1.8055.0923-2.7087.1891-.003.3782-.0059.5674-.0089l-.0046-.0037c.187.373.374.746.561,1.119Z"/>
  <path class="cls-6" d="M267.3541,146.7762c-.187-.373-.374-.746-.561-1.119.1871.1622.3742.3243.5613.4856,0,.2105-.0002.422-.0002.6334Z"/>
  <path class="cls-8" d="M256.738,129.4681c.8083-.0926,1.6178-.2633,2.4245-.2506.5463.0086,1.0899.2831,1.2698.9141.228.7998-.0115,1.4656-.6298,2.0006-.4526.3916-.938.5485-1.5327.2768-.8176-.3735-1.4051-.8932-1.4407-1.8624-.0134-.364-.0516-.7271-.0783-1.0906.0001,0-.0128.0121-.0128.0122Z"/>
  <path class="cls-8" d="M277.0278,132.3186c-.1173-.7695-.2347-1.5391-.351-2.3084.1356-.332.2703-.6642.405-.9964,1.038-.1899,2.0778-.4274,3.089.1138-.0039.1988.0897.3073.2811.3265.0128.497.0253.9939.0379,1.4908-1.1242.0383-1.5305.7058-1.5213,1.7376-.6538-.1222-1.3081-.2449-1.9624-.3677l.0217.0038Z"/>
  <path class="cls-4" d="M277.0061,132.3148c.6543.1228,1.3086.2455,1.9624.3677.3403.1202.6811.241,1.0126.3584q-.5547,2.3014-2.5691,2.5474s.0122.0146.0122.0145c-.1167-.5884-.2626-1.173-.3409-1.7664-.0663-.5018-.0544-1.014-.0771-1.5216Z"/>
  <path class="cls-4" d="M280.4898,130.945c-.0126-.4969-.0251-.9938-.0379-1.4908.3876.2149.8486.359,1.1435.6639.3259.337.4236.8707.0008,1.2238-.5153.4304-.789-.1103-1.1064-.3969Z"/>
  <path class="cls-7" d="M275.1812,138.6582c-1.0428.5446-1.7514-.0294-2.4273-.7226-.6743-.6915-1.1319-1.4739-.9693-2.4819.0818-.5067.4405-.9123.9261-.8541.7151.0858,1.4578.2616,2.0981.581,1.218.6075,1.3766,1.274.8318,2.7313-.0643.1719-.1668.3295-.2545.4946-.1011.0597-.1684.1433-.205.2516Z"/>
  <path class="cls-8" d="M268.4688,143.4098c-.6614-.1463-1.2124-.4479-1.4572-1.1229-.4469-1.2325-.0133-2.1003,1.2751-2.0509.7322.028,1.463.0924,2.1938.1415.2898.2711.5802.5411.8702.811-.0431.7396-.0858,1.4792-.1285,2.2189,0,0-.0039-.0779-.0035-.0778-.7269.036-1.4542.0719-2.1816.1077-.1895-.0092-.3789-.0184-.5683-.0276Z"/>
  <path class="cls-2" d="M271.2222,143.4075c.0427-.7396.0854-1.4793.1285-2.2189.3951-.1092.785-.5058,1.1955-.0583.3959.4314.4893.9375.2063,1.4573-.3237.5946-.8387.8858-1.5304.8199Z"/>
  <path class="cls-6" d="M265.0997,145.1244c-.1814-.7554-.3628-1.5107-.5441-2.2661,1.4064.0421,1.6716,1.0311,1.7805,2.1499-.0012.0011-.1474.1383-.1469.1377-.3651-.0109-.7308-.0212-1.0965-.0315l.007.0099Z"/>
  <path class="cls-6" d="M268.4688,143.4098c.1894.0092.3788.0184.5683.0276-.2121.459-.4007.4309-.5683-.0276Z"/>
  <path class="cls-6" d="M264.5576,142.8658c-.19-.19-.38-.38-.57-.57.19.19.38.38.57.57Z"/>
  <path class="cls-6" d="M266.7976,145.6609c-.1891.003-.3782.0059-.5674.0089l-.0046-.0053c-.0153-.1725-.0277-.3452-.0371-.5181,0,0,.1462-.1371.1474-.1383.1547.2168.3082.4347.4616.6527Z"/>
  <path class="cls-6" d="M277.0061,132.3148c.0227.5076.0108,1.0198.0771,1.5216.0784.5935.2243,1.178.3409,1.7664-1.3254-.799-2.2137-1.9627-2.8088-3.3707.8035.0289,1.6071.0579,2.4116.0867.0009-.0002-.0207-.0039-.0207-.0039Z"/>
  <path class="cls-6" d="M274.0545,131.6701c.1899.1899.3798.3799.5698.5698-.1899-.1899-.3799-.3798-.5698-.5698Z"/>
  <path class="cls-1" d="M266.2303,145.6698c-.0305.9032-.061,1.8063-.0923,2.7087-1.577.346-2.8957-.0199-3.8737-1.3748-.3413-.4729-.5486-.9686-.296-1.531.3009-.6699.8926-.9468,1.5758-.8503.5315.0751,1.0379.328,1.5555.502,0,0-.007-.0099-.0069-.0099.3777.1834.7553.3667,1.133.5501l.0046.0053Z"/>
  <path class="cls-6" d="M277.0817,129.0139c-.1347.3322-.2694.6644-.405.9964-.4204-.5585-.341-.9133.405-.9964Z"/>
  <path class="cls-4" d="M266.2257,145.6645c-.3777-.1833-.7553-.3667-1.133-.5501.3657.0103.7313.0206,1.0965.0315.0089.1734.0213.3461.0366.5186Z"/>
</svg>