<?xml version="1.0" encoding="UTF-8"?>
<svg id="Layer_1" xmlns="http://www.w3.org/2000/svg" viewBox="0 0 265.112 136.0867">
  <defs>
    <style>
      .cls-1 {
        fill: #fff;
      }
    </style>
  </defs>
  <path d="M100.4043,71.5479c-2.9733.5061-5.3401,1.3518-7.6123,1.1474-1.6453-.148-4.1104-1.4075-4.4906-2.6836-.4305-1.4449.5529-4.3172,1.8126-5.0619,3.1942-1.8882,6.8054-3.54,10.419-4.0247,1.49-.1999,5.1037,3.2744,4.8318,4.3144-.9124,3.4898.8404,4.0324,3.1671,5.5525,3.4375,2.2457,6.8937,5.0548,9.0562,8.444,1.3645,2.1386,1.5126,6.5627.1434,8.5161-1.4044,2.0033-5.3574,3.1843-8.1316,3.0777-7.3496-.2825-13.2637-11.1746-9.1955-19.2818ZM105.9839,76.1746c-.5435.4086-1.087.8172-1.6305,1.2257,1.5468,2.3594,2.9148,4.8759,4.7594,6.9736.493.5606,2.4423-.159,3.7231-.2909-.4413-1.0108-.6526-2.2434-1.3702-2.988-1.6994-1.7633-3.6392-3.295-5.4818-4.9204Z"/>
  <path d="M39.803,120.0238c2.1141-4.497,3.5316-9.5352,6.5065-13.3635,4.4047-5.6684,12.3037-3.6213,14.1392,3.347.8933,3.3918,1.1821,7.0192,1.2165,10.5451.0764,7.8423-4.4691,13.0303-10.8959,12.8867-6.7696-.1512-9.8606-4.2544-10.9662-13.4152ZM55.4276,119.801c-.1186-2.234.0067-3.6644-.3185-4.984-.3595-1.4588-1.1315-2.8159-1.7238-4.2173-1.321.6802-3.5704,1.1341-3.8012,2.0802-.9662,3.9621-1.4561,8.0624-1.7495,12.1388-.0374.5194,2.1933,1.7955,3.222,1.6503,1.3303-.1878,3.0234-1.1811,3.6236-2.3208.7731-1.4678.6181-3.4244.7474-4.3472Z"/>
  <path d="M79.1649,91.4887c9.0448-.0042,17.403,10.9277,15.1281,19.787-1.1618,4.5247-6.2276,6.7333-11.0219,4.8056-6.6295-2.6656-11.8187-11.9487-10.5847-19.0587.6209-3.5772,2.5283-5.783,6.4785-5.5338ZM88.934,109.1611c-.1063-5.4061-4.2663-10.7793-8.1184-11.3956-.9445-.1511-2.8203.704-3.0003,1.4167-.8026,3.1775,4.0593,10.6476,7.3898,11.2345,1.2642.2228,2.766-.9026,3.7289-1.2556Z"/>
  <path d="M20.5376,99.6287c7.4524-3.1555,12.0004.237,11.0981,8.2784-.8355,7.4461-7.5621,14.7288-13.9944,15.1514-5.4027.355-8.8383-3.2042-6.8514-8.1783,2.1009-5.2598,5.5326-9.988,8.3831-14.9484.4549-.101.9097-.202,1.3646-.3031ZM24.2149,104.0651c-.8302.2492-1.1158.2468-1.1864.3689-2.2084,3.8193-4.396,7.6507-6.5867,11.4803.7155.3834,1.9817,1.1964,2.0664,1.0879,2.5621-3.2841,5.1069-6.5954,7.3479-10.0986.2849-.4454-1.1145-1.9677-1.6413-2.8386Z"/>
  <path d="M164.2021,96.7409c4.1544-.624,7.05-1.2559,9.9688-1.3931,1.0561-.0496,2.1678,1.0856,3.2542,1.6802-.6993,1.0758-1.2675,2.9556-2.1195,3.0945-4.874.7942-9.8088,1.2813-14.7405,1.5961-.879.0561-1.8409-1.1862-2.7645-1.829.7492-1.0335,1.4984-2.067,1.4364-1.9816-1.8595-2.6756-5.5299-5.6678-5.0837-7.7977.8906-4.2505,3.8-9.0783,9.0177-8.8222,3.2162.1579,7.9427,2.3211,9.1027,4.8886,2.5513,5.6469-3.5236,7.2615-8.0716,10.5643ZM159.9776,89.2092c.2056.4964.4112.9927.6168,1.4891,1.6942-.696,3.3885-1.392,5.0828-2.088-.2729-.4682-.6978-1.3738-.7959-1.3396-1.6586.5769-3.2767,1.2706-4.9037,1.9385Z"/>
  <path d="M85,42.1575c-1.54-.8597-4.3618-2.4351-7.1836-4.0105,2.8227-.5473,5.6272-1.2492,8.4748-1.5847,1.7443-.2055,3.6744-.2028,5.3039.3484,1.8425.6233,3.4417,1.9656,5.1467,2.9952-1.5305,1.1428-3.061,2.2855-4.5551,3.401,1.0062.7433,2.9869,1.4913,3.6356,2.8671.8076,1.713,1.2291,5.3861.5785,5.7077-3.2197,1.5915-6.9448,3.3992-10.3024,3.0882-2.7599-.2555-6.2495-2.8209-7.6489-5.3426-2.4999-4.5051.7373-7.2308,6.5506-7.4697ZM83.8106,47.2059c-.2792.68-.5583,1.3601-.8375,2.0401,2.5768.3545,5.1535.709,7.7302,1.0636l.274-1.6092c-2.3889-.4981-4.7778-.9964-7.1667-1.4945Z"/>
  <path d="M149.1593,44.7725c.1541-8.8397,4.9193-11.6859,10.3597-7.9882,3.0108,2.0464,5.8693,4.7863,7.7908,7.8452,2.3513,3.7432,1.3507,7.5896-2.2786,10.5135-3.5445,2.8555-7.1015,1.7675-9.5711-.9611-2.9189-3.2251-4.9195-7.2812-6.3008-9.4093ZM156.1978,41.7127c-.4531.379-.9063.7581-1.3595,1.1371.8706,1.8701,1.4546,3.9734,2.7174,5.5242.7774.9548,2.5913,1.0661,3.9398,1.5562-.1652-1.3846.1271-3.1131-.5977-4.0771-1.2287-1.6342-3.0993-2.7859-4.7-4.1404Z"/>
  <path d="M122.8817,123.3059c-5.0423-1.4776-7.455-3.4383-7.2917-7.5695.2536-6.4148,3.5494-11.4949,8.6783-14.7678,1.5776-1.0068,7.1597.6504,7.3761,1.77.7747,4.0089,1.0941,8.7619-.4436,12.3686-1.4123,3.3128-5.4424,5.5099-8.3192,8.1987ZM127.8779,107.2473l-2.5249-1.077c-1.3745,3.0398-2.7491,6.0796-4.1236,9.1194.8343.3739,1.6686.7479,2.5029,1.1219,1.3819-3.0548,2.7638-6.1096,4.1457-9.1643Z"/>
  <path d="M140.9995,72.2229c-9.8471,2.0762-17.8925-6.576-15.245-16.3948,1.0507-3.8967,4.3337-5.3205,8.4137-3.6488,7.9517,3.2579,10.7637,11.8377,6.6358,20.2468l.1955-.2033ZM138.9492,65.7519c-2.9314-3.4185-4.6157-5.3827-6.3-7.3469-.4595.6357-1.4548,1.5736-1.2937,1.8593,1.2807,2.2711,2.7154,4.4689,4.3048,6.5339.1806.2346,1.61-.4919,3.2888-1.0462Z"/>
  <path d="M216.4355,20.0557c.2257,4.2869-1.4195,6.95-6.0793,6.975-6.445.0345-12.1361-6.2785-12.2678-13.7672-.0745-4.2379,1.5647-7.5469,6.1871-8.0129,5.5245-.557,12.0188,7.5429,12.16,14.8052ZM212.2476,18.9673c-2.8959-3.0698-5.2477-5.5629-7.5996-8.0561-.4876.9092-1.6276,2.2386-1.3566,2.6592,1.7115,2.6568,3.7175,5.1275,5.7477,7.5582.06.0718,1.4623-.9773,3.2084-2.1614Z"/>
  <path d="M56.4091,62.0688c-.4415,2.1738-.2375,5.0351-1.5573,6.6568-1.535,1.8861-4.3662,3.5421-6.7092,3.6475-1.4856.0668-3.9855-2.6467-4.4748-4.5196-.8805-3.37-1.3658-7.238-.5455-10.5318.6487-2.6048,3.5005-4.6612,5.3739-6.9611,2.2873,1.8782,4.9351,3.472,6.7264,5.7416,1.0732,1.3596.8073,3.7759,1.1864,5.9667ZM48.6345,65.786c.6065-.0241,1.2131-.048,1.8196-.072-.1312-2.5683-.2623-5.1367-.3934-7.705-.4754.0173-.9508.0346-1.4262.0519v7.7251Z"/>
  <path d="M86.7598,19.3017c-.5113-.9632-1.6012-3.0165-2.6911-5.0699,2.2289.9517,4.4744,1.8672,6.6814,2.8673,1.6277.7376,3.2811,1.4653,4.7873,2.4131,2.2616,1.4231,5.58,2.9437.4078,5.0441-.3325.135-.6497.3077-.9741.4629.39.6808.9177,1.3181,1.148,2.0492,1.6932,5.3756-.6248,8.0861-6.2838,7.2688-1.5576-.225-3.1258-.6906-4.5708-1.3183-3.4013-1.4777-7.1944-3.5078-5.5412-7.7488.9425-2.4179,4.4094-3.8521,7.0364-5.9684ZM84.7238,25.5091l-.6378,1.5641c2.1138.8587,4.2275,1.7174,6.3413,2.5761.1998-.4893.3996-.9786.5994-1.468-2.101-.8908-4.2019-1.7815-6.3029-2.6722Z"/>
  <path d="M191.3563,31.9658c-1.6245,2.1412-2.8296,5.345-4.9666,6.1882-3.7118,1.4649-7.7707.4068-9.3276-3.9544-1.2477-3.4951-2.1851-7.2439-2.3998-10.9302-.2976-5.1086,2.9695-7.1488,7.6605-5.0193,5.4282,2.4642,7.9808,6.9322,9.0334,13.7156ZM180.5264,24.0726c-.3244.262-.6488.5241-.9733.7861.2169.9014.2792,1.8796.682,2.6884.9169,1.8413,1.9936,3.6038,3.0727,5.3568.02.0326,1.3066-.5589,1.2771-.6742-.5572-2.1829-1.0954-4.3897-1.937-6.4705-.2948-.7289-1.3912-1.1338-2.1216-1.6867Z"/>
  <path d="M140.577,125.8916c.2629-6.3885,3.7419-11.489,7.6256-11.1797,3.3408.2659,6.7032,6.2045,6.5564,11.5802-.1522,5.5802-3.3968,9.7618-7.5996,9.7945-4.1489.0322-6.8323-4.1238-6.5825-10.1949ZM148.3196,121.9602c-.44.0086-.88.017-1.32.0256v7.2905c.44-.0178.88-.0355,1.32-.0532v-7.2628Z"/>
  <path d="M222.5912,72.5624c.497-3.7661,1.6484-7.0574,6.8179-6.8844,4.8171.1614,10.4935,5.7911,10.5391,11.0532.0327,3.7705-1.4902,6.7251-5.6391,7.1613-4.5595.4797-11.6187-6.3182-11.7179-11.3301ZM235.5217,77.1835c-2.6112-2.49-4.3322-4.1582-6.122-5.7488-.0801-.0711-.7865.5623-1.2013.8677,1.4487,1.6996,2.8794,3.4154,4.3742,5.0735.1472.1633.6869-.0269,2.9491-.1924Z"/>
  <path d="M242.6161,12.1902c-.1189,6.119-3.6531,10.8816-8.1042,10.9213-4.2762.0381-6.9675-3.4462-6.7809-8.7792.2157-6.1674,4.6138-12.0666,8.8522-11.8736,3.4871.1588,6.1359,4.4314,6.0329,9.7314ZM237.1037,9.6787c-.9016-.212-1.8033-.424-2.705-.636-.3174,2.2329-.6812,4.4619-.8685,6.7056-.0158.1895,1.1501.4776,1.767.7199.6022-2.2632,1.2044-4.5264,1.8065-6.7895Z"/>
  <path d="M9.2984,93.454c-4.7336.1936-8.3545-1.4158-9.1761-6.4632-.864-5.3074,2.9913-6.8937,7.1108-7.6145,2.2371-.3915,4.7171-.3543,6.9131.1911,3.8357.9527,7.1867,2.9888,6.9676,7.5969-.2224,4.6758-4.1401,5.2514-7.675,5.9436-1.3509.2645-2.7586.2393-4.1404.3461ZM16.0627,87.2264c-2.0522-1.7365-2.9994-3.1901-4.1164-3.335-1.813-.2353-3.7747.2526-5.5847.7553-.3838.1066-.6062,2.3083-.5304,2.3316,1.6125.4952,3.2665,1.0065,4.9377,1.1107,1.286.0802,2.6067-.394,5.2938-.8627Z"/>
  <path d="M253.1358,39.1526c-2.9429-.5277-6.8414-.7751-7.0973-5.6739-.2587-4.9513,7.0001-11.8427,12.2801-11.0465,3.5583.5366,6.6813,2.9112,6.6582,7.2134-.0278,5.1791-5.3973,9.605-11.8409,9.507ZM257.2706,27.8364c-1.7792,1.431-3.2931,2.6073-4.6899,3.9092-.0615.0574.9468,1.2619,1.4567,1.9322,1.6237-1.2657,3.2474-2.5315,4.871-3.7972-.441-.5505-.8821-1.101-1.6378-2.0441Z"/>
  <path d="M177.2938,116.5181c-.1913,3.1095-2.0696,5.6734-6.5229,5.6811-4.888.0085-10.2197-5.5725-10.168-10.5944.0397-3.8583,3.4926-7.2557,7.1921-7.0763,5.3602.2599,9.6339,5.1719,9.4988,11.9897ZM169.6037,117.5018c1.0679-1.3107,2.1612-2.343,2.0282-2.5378-1.1493-1.6822-2.498-3.2338-3.8988-4.7192-.0585-.062-1.8302,1.2458-1.7711,1.3546.9906,1.8233,2.1459,3.5572,3.6417,5.9024Z"/>
  <path d="M257.4571,62.7515c-9.0079-.1924-14.5536-3.1977-14.2598-7.2563.3832-5.2947,4.24-6.0636,8.6242-5.9154,7.3165.2476,11.1965,2.7748,10.9641,7.4116-.2149,4.2878-2.962,5.7512-5.3285,5.7601ZM256.5614,56.9531c.0094-.6907.0187-1.3816.0281-2.0723-2.2258-.1371-4.4516-.2742-6.6773-.4113-.0494.5512-.0989,1.1022-.1483,1.6534,2.2658.2767,4.5317.5534,6.7976.8302Z"/>
  <path d="M35.2028,65.2517c-.9744,5.651-4.4702,8.1657-9.0244,6.5452-5.1115-1.8189-8.7735-9.4139-7.5155-14.6537,1.1786-4.9089,4.7703-5.3143,7.5098-3.0445,3.6112,2.9923,6.0737,7.3706,9.03,11.153ZM24.6749,57.5607c-.6667.4514-1.3333.9027-2,1.3541.2275,1.0705.1359,2.3969.7474,3.1596,1.3774,1.718,3.1031,3.157,4.6871,4.7095-.6126-2.0307-1.1595-4.0845-1.864-6.0828-.3861-1.0952-1.0383-2.0966-1.5705-3.1403Z"/>
  <path d="M64.1611,77.4743c-.1015-4.0934,5.7999-12.7115,9.5625-12.3094,2.2121.2363,5.0473,3.8249,5.7946,6.4251,1.114,3.8763-4.6177,10.5868-8.7088,11.4688-3.6144.7792-6.5516-1.6879-6.6482-5.5844ZM69.8523,75.7787l1.3354,1.1606c.9904-1.5942,1.9809-3.1883,2.9713-4.7824-.3917-.2498-.7834-.4997-1.1751-.7495-1.0439,1.4571-2.0878,2.9142-3.1316,4.3713Z"/>
  <path d="M140.8041,72.4262c1.6006-.6398,3.1857-1.7452,4.8058-1.7993,1.9407-.0649,4.9304.1594,5.6407,1.3484,1.1953,2.001,1.197,4.5405,4.531,3.1547.5143,1.2389,1.7988,3.1906,1.4184,3.6014-2.535,2.7382-5.3654,5.221-8.2618,7.5887-.4695.3839-1.7448-.2177-2.6477-.3637.834-4.6669-2.8936-3.1926-5.1052-4.1814-1.2239-.5472-2.131-3.0517-2.1514-4.6868-.0202-1.6133,1.2575-3.2428,1.9658-4.8652l-.1955.2033Z"/>
  <path d="M212.5433,80.13c-.0188,5.8924-2.3103,9.3303-6.1775,9.2682-3.982-.064-7.2993-4.0813-7.1732-8.6869.1361-4.9707,3.4564-10.256,6.4407-10.2521,3.8948.005,6.9273,4.2492,6.91,9.6707ZM206.9327,77.0326c-.6762-.0007-1.3523-.0014-2.0285-.0021,0,1.9963-.0053,3.9927.0676,5.9862.0008.022,1.491.057,1.4969.0015.2131-1.9889.3319-3.9879.4639-5.9855Z"/>
  <path d="M138.5692,34.6693c-2.9075-2.2891-5.5186-3.4466-6.4805-5.4112-.6651-1.3586.4706-4.2043,1.6554-5.7169,1.6612-2.1205,3.8823-4.4719,6.2999-5.1348,2.2344-.6127,5.5573.2144,7.4104,1.6689,1.1488.9017,1.4064,4.9005.3899,6.2046-2.391,3.0675-5.7862,5.3526-9.2751,8.3895ZM136.9109,26.849c.6219.6494,1.2437,1.2987,1.8656,1.948.8495-1.9007,1.699-3.8015,2.429-5.4346-1.2691,1.0303-2.7818,2.2584-4.2946,3.4866Z"/>
  <path d="M188.7506,70.4251c-.0534,7.9874-3.997,13.4176-8.077,13.0921-4.1731-.3331-5.7121-3.2539-5.7703-6.9879-.0773-4.9588,4.7574-12.1907,7.8384-11.1812,2.7508.9012,4.7885,3.9787,6.0089,5.0771ZM183.9546,72.048c-.6826-.3029-1.3652-.6056-2.0478-.9085-.5578,1.9731-1.1155,3.9462-1.6732,5.9192.5879.178,1.1757.3561,1.7635.5341.6525-1.8483,1.3051-3.6965,1.9576-5.5448Z"/>
  <path d="M126.4236,17.3505c-3.0226.6481-6.4131,2.3934-8.935,1.5482-1.6093-.5394-3.1428-5.2292-2.5524-7.4961.9146-3.5109,3.6722-6.5419,5.6483-9.7764,2.2145,1.4626,5.9415,2.6122,6.3227,4.4542.7505,3.6253-.3568,7.635-.6956,11.4857,0,0,.2119-.2156.2119-.2156ZM122.8194,8.0057c-.7793-.1707-1.5585-.3414-2.3378-.5121-.3716,2.3016-.7433,4.6031-1.115,6.9046.6478.1311,1.2956.2621,1.9433.3932.5031-2.2619,1.0063-4.5238,1.5094-6.7857Z"/>
  <path d="M107.7018,112.1841c-.5861-1.3606-2.0522-3.5053-1.6316-3.9805,4.8224-5.4489,9.8805-10.6956,15.0486-15.8221.4842-.4802,2.5163-.1433,3.1484.4919.554.5566.6264,2.4877.0944,3.0891-4.59,5.1897-9.3527,10.2276-14.1107,15.2666-.3601.3815-1.0797.4236-2.5491.9551Z"/>
  <path d="M92.4472,5.9883c.6752-.6644,2.1517-3.3575,4.1181-3.782,3.5667-.7699,8.5454,5.9208,8.3637,10.5521-.1215,3.0977-.6352,6.1352-4.7414,6.1177-4.4273-.0189-7.7993-4.8368-7.7405-12.8878ZM98.6082,13.6377c.6108-.244,1.2216-.4881,1.8324-.7321-.8904-1.843-1.7807-3.686-2.671-5.529-.4806.2063-.9611.4126-1.4416.6189.7601,1.8807,1.5202,3.7615,2.2803,5.6422Z"/>
  <path d="M89.5219,77.6862c1.9705,1.0557,2.6465,1.2071,2.9809,1.6291,4.1687,5.2598,8.3956,10.4818,12.2987,15.9345.5588.7807-.5093,2.7255-.8245,4.1315-1.2262-.2759-2.984-.13-3.5923-.8963-3.9249-4.9442-7.7508-9.987-11.2297-15.2484-.7179-1.0858.1642-3.2292.367-5.5504Z"/>
  <path d="M121.5816,46.1645c-.9058.7393-1.7039,1.8347-2.7387,2.1476-2.5731.7783-5.254,1.2-7.8916,1.7648-.2992-2.9103-1.4669-6.0822-.6877-8.6676,1.0836-3.5952,4.5944-6.1967,8.3144-4.5306,1.7715.7933,2.24,4.6422,3.1241,7.1681.2294.6553-.1982,1.5404-.324,2.3199,0,0,.2035-.2023.2035-.2023ZM115.0256,44.4915c.616-.5593,1.1813-.8542,1.35-1.2994.1203-.3174-.2926-.8368-.4676-1.266-.416.3337-.9847.5925-1.1972,1.026-.1555.3171.1569.8637.3148,1.5395Z"/>
  <path d="M167.3451,70.0377c-1.0795.4595-2.1426.9634-3.2417,1.3701-3.1497,1.1653-6.9798,1.8882-8.0293-1.8924-.6356-2.2895.916-6.3703,2.8591-7.8914,2.4289-1.9015,6.2695-2.0003,9.5006-2.8773-.269,3.2745-.5215,6.5505-.8225,9.822-.0526.5717-.3088,1.1247-.471,1.6863l.2047-.2173ZM164.2534,65.1029c-.5689-.4973-1.0668-1.1007-1.2065-1.0269-.7877.4167-1.5167.9666-2.17,1.574-.0538.0501.6049.8664.9325,1.3266.7203-.5522,1.4405-1.1044,2.444-1.8737Z"/>
  <path d="M77.4284,120.1655c-.5884.8492-1.0387,2.2013-1.8815,2.522-.8801.3347-2.7317.0458-3.1376-.606-3.5246-5.6604-6.868-11.4369-10.1074-17.2665-.3248-.5845.1274-2.0722.7068-2.5531.5643-.4685,2.319-.5645,2.5864-.1701,3.9724,5.8581,7.7843,11.8252,11.8333,18.0738Z"/>
  <path d="M128.9922,76.5853c-.7388,1.1239-1.1544,2.4668-2.0044,2.8526-.8788.3988-2.6558.2974-3.2182-.326-3.581-3.9693-7.1098-8.017-10.2338-12.3435-.7306-1.0119.1645-3.1972.3116-4.8426,1.515.5525,3.4049.7129,4.4726,1.7333,2.864,2.7373,5.4278,5.7987,8.0019,8.8241.9988,1.1738,1.7051,2.5965,2.6704,4.102Z"/>
  <path d="M32.5094,128.2649c1.1195-6.9496,1.9562-12.8669,3.1227-18.7185.2101-1.054,1.7774-1.8374,2.718-2.7458.4223,1.1647,1.2407,2.3433,1.2002,3.4917-.2038,5.777-.4716,11.5636-1.0972,17.3054-.1509,1.3845-1.7475,2.6113-2.6792,3.9107-1.2016-1.1939-2.4031-2.3878-3.2644-3.2436Z"/>
  <path d="M41.9108,67.9512c-.6973.9636-1.6724,2.311-2.6475,3.6585-.9475-1.2463-2.4629-2.3777-2.7424-3.7592-1.096-5.4183-1.9466-10.9-2.5323-16.396-.1184-1.111,1.3133-2.3872,2.0304-3.5872.8291.9511,2.151,1.7873,2.4041,2.8727,1.2527,5.3722,2.223,10.8103,3.4877,17.2112Z"/>
  <path d="M57.0736,71.9252c1.8183-4.9951,3.2699-9.5135,5.1757-13.8315.4551-1.0312,2.4245-1.3943,3.6974-2.0646.5394,1.5227,1.8421,3.2643,1.4797,4.5286-1.2457,4.3454-2.9145,8.5964-4.788,12.7171-.4927,1.0837-2.3058,1.5673-3.5124,2.3265-.6985-1.2512-1.3971-2.5024-2.0524-3.6761Z"/>
  <path d="M263.0246,41.9662c.2323.2148,2.044,1.1396,2.0866,2.1395.0431,1.0148-1.5457,2.8674-2.6185,3.0283-4.6746.701-9.4177,1.0795-14.1451,1.1928-1.0897.0262-2.2156-1.4571-3.3249-2.2457,1.022-1.0377,1.9399-2.8219,3.0843-2.9812,4.4969-.6264,9.0651-.7411,14.9177-1.1337Z"/>
  <path d="M130.701,127.6039c1.9524-5.1822,3.5741-9.8562,5.5317-14.3848.4135-.9567,2.0571-1.3818,3.1339-2.0518.4735,1.3409,1.572,2.8207,1.3103,3.9983-1.0294,4.6308-2.3218,9.2247-3.9003,13.6968-.3995,1.1318-2.2183,1.7629-3.385,2.624-.8965-1.2937-1.7931-2.5873-2.6906-3.8824Z"/>
  <path d="M257.2334,15.5495c-1.8467,2.4407-2.59,3.8947-3.7435,4.8575-3.184,2.6575-6.439,5.2608-9.8875,7.5523-1.0561.7017-2.829.3252-4.2736.4425.2998-1.4353.1092-3.3912.9846-4.2154,3.7281-3.5103,7.6633-6.8343,11.7976-9.8497.768-.5601,2.8016.6143,5.1224,1.2128Z"/>
  <path d="M164.4228,26.0235c1.8375,1.3704,2.7619,1.7949,3.3049,2.5091,2.8656,3.7692,5.8169,7.4977,8.3197,11.5021.6923,1.1078-.049,3.1114-.1325,4.704-1.2668-.2019-3.1217.0572-3.7018-.6828-3.0321-3.8682-5.9506-7.8673-8.4247-12.1034-.6819-1.1674.2976-3.3048.6345-5.929Z"/>
  <path d="M20.5376,99.6287c-.4548.101-.9097.2021-1.3646.3031-4.2336,2.0491-8.4079,4.2388-12.735,6.0666-1.4041.5931-3.2084.2394-4.8296.3187.764-1.358,1.1978-3.2066,2.3528-3.9839,3.7534-2.5261,7.7114-4.7727,11.7182-6.8848,1.4369-.7575,3.2368-.8267,4.871-1.2102-.0043,1.7968-.0086,3.5937-.0129,5.3904Z"/>
  <path d="M139.3511,44.5543c1.6045.7993,2.294.9254,2.6188,1.3383,3.4146,4.3402,6.8729,8.6547,10.0418,13.1708.5229.7451.118,3.0057-.6039,3.5203-.7492.5341-3.0103.2627-3.5629-.4585-3.2387-4.2267-6.2998-8.6086-9.0958-13.1386-.5502-.8914.3216-2.6602.602-4.4322Z"/>
  <path d="M234.4035,60.6936c1.5979-.4768,3.4835-1.6064,4.0837-1.1271,4.1528,3.3168,8.1268,6.8783,11.9162,10.6072.5892.5798.2593,2.5846-.2791,3.5919-.236.4414-2.4448.4873-3.1066-.066-3.7942-3.1719-7.416-6.5526-11.0321-9.9313-.5321-.4971-.7219-1.3604-1.582-3.0747Z"/>
  <path d="M165.1275,127.4026c-.832,1.1488-1.3387,2.571-2.1521,2.7759-.8775.221-2.6279-.4169-2.9852-1.1641-2.1395-4.4741-4.0879-9.0498-5.8328-13.692-.2877-.7654.5195-2.2666,1.2586-2.9636.3999-.3772,2.2858-.0659,2.546.4329,2.477,4.7505,4.7493,9.6079,7.1656,14.6109Z"/>
  <path d="M10.5332,67.2672c4.1295,2.5511,8.4648,5.1475,12.6672,7.9438.4536.3018.4793,2.3603.1105,2.5721-1.0474.6015-2.7302,1.289-3.5794.8399-3.9797-2.1048-7.8046-4.5174-11.5731-6.9903-.5739-.3766-.9832-1.8327-.7082-2.4521.3038-.6844,1.4828-.9804,3.083-1.9133Z"/>
  <path d="M197.0531,71.3622c-.9563,4.3984-1.4245,7.7907-2.5127,10.9709-.4601,1.3443-2.2248,2.2424-3.3965,3.3434-.6079-1.4477-1.8664-2.9779-1.6954-4.3269.4235-3.3391,1.2859-6.6724,2.4259-9.845.432-1.2023,2.1092-1.9574,3.2189-2.9164.8093,1.1455,1.6187,2.2911,1.9598,2.774Z"/>
  <path d="M86.3002,63.3241c-.8263-.4669-1.775-1.0032-2.7238-1.5393.5787-.8793.9686-2.2492,1.7675-2.5564,4.4309-1.7042,8.9168-3.3105,13.4883-4.5722,1.1493-.3172,2.6818.7541,4.0382,1.1872-.8672,1.0827-1.5246,2.7412-2.6384,3.1468-4.4565,1.6226-9.0546,2.8561-13.9319,4.334Z"/>
  <path d="M142.0518,41.0742c-1.4215-1.0955-2.5154-1.5197-2.7272-2.2133-.237-.776.0146-2.186.5913-2.6452,3.2265-2.5695,6.55-5.0351,9.9997-7.2927.7632-.4995,2.3241-.3252,3.2197.1278.5321.2691.9471,2.2298.623,2.508-3.7838,3.2483-7.7182,6.3211-11.7065,9.5154Z"/>
  <path d="M126.2117,17.566c1.9407-2.3683,3.7372-4.8797,5.8846-7.0429,1.0294-1.0369,2.723-1.4148,4.1158-2.0912.0837,1.4312.7328,3.1768.1444,4.2343-1.7139,3.0808-3.7454,6.0365-6.0244,8.726-.9163,1.0814-2.8019,1.3417-4.2464,1.9758.0139-1.4305.0015-2.8619.0543-4.291.0214-.5782.1848-1.1513.2836-1.7267l-.2119.2156Z"/>
  <path d="M214.7464,78.5022c0-1.3372-.1634-1.9891.0295-2.5087.6819-1.8367,1.4857-3.6282,2.2434-5.4367.9336,1.7323,2.2548,3.3691,2.7108,5.2191.7005,2.8418,1.0704,5.8334,1.033,8.7544-.0148,1.1522-1.5007,2.2854-2.3168,3.4273-.9339-.8592-2.4092-1.5701-2.6934-2.6073-.6693-2.443-.7706-5.0415-1.0064-6.8481Z"/>
  <path d="M197.8022,28.9319c-.993-.6834-1.9368-.9806-2.2275-1.5895-2.0549-4.3042-4.0473-8.6429-5.8619-13.0519-.2714-.6596.2894-1.9259.8579-2.5589.2998-.3337,1.9578-.1525,2.1356.2153,2.3835,4.9306,4.6571,9.917,6.7891,14.9609.1484.3511-1.0366,1.2657-1.6932,2.0241Z"/>
  <path d="M70.5064,91.9401c-.4622-2.14-1.1566-3.7753-.8179-4.0283,3.9282-2.9351,8.0124-5.6614,12.0552-8.443.7537,1.2055,2.2299,3.4203,2.1576,3.472-4.0102,2.8696-8.1498,5.5586-13.3949,8.9994Z"/>
  <path d="M167.1405,70.255c1.6476-1.9196,3.1851-3.954,5.0016-5.6978.6515-.6254,1.976-.5501,2.9934-.7945.1224.9135.6662,2.079.2959,2.6976-1.8047,3.0154-3.6893,6.019-5.9071,8.7313-.756.9245-2.5676.986-3.897,1.4418.0398-1.3789-.1051-2.7981.1837-4.1228.1947-.8933,1.0013-1.6533,1.5341-2.4729l-.2047.2173Z"/>
  <path d="M226.7988,11.7091c-1.232,2.7108-2.4999,5.5004-3.7677,8.29-.5457-3.1546-1.5999-6.3297-1.474-9.4573.0982-2.4394,1.6635-4.8197,2.5768-7.2262.8114,2.5557,1.6228,5.1115,2.6648,8.3935Z"/>
  <path d="M121.3781,46.3669c2.2611-.8977,4.5223-1.7955,6.7833-2.6932-.892,2.4382-1.6797,4.9222-2.7235,7.2936-.4637,1.0536-1.2931,2.0999-2.2341,2.7447-.8578.5876-2.0909.6278-3.1586.9093-.2076-1.228-.7899-2.5411-.5346-3.6639.3794-1.6682,1.3512-3.2019,2.071-4.7928l-.2035.2023Z"/>
  <path d="M110.6463,13.5566c-.452.6915-1.1284,1.7264-1.8048,2.7612-.8641-.9046-2.2726-1.6935-2.494-2.7347-.7724-3.6331-1.2499-7.3437-1.5601-11.0482-.0666-.7947,1.0367-1.6873,1.6011-2.5349.6514.6334,1.7055,1.1696,1.8858,1.9166.8745,3.6221,1.5145,7.3008,2.3721,11.64Z"/>
  <path class="cls-1" d="M105.9839,76.1746c1.8426,1.6254,3.7824,3.1571,5.4818,4.9204.7176.7446.9289,1.9772,1.3702,2.988-1.2808.1319-3.2301.8515-3.7231.2909-1.8446-2.0977-3.2126-4.6142-4.7594-6.9736.5435-.4086,1.087-.8172,1.6305-1.2257Z"/>
  <path class="cls-1" d="M55.4276,119.801c-.1293.9228.0257,2.8794-.7474,4.3472-.6002,1.1397-2.2933,2.1331-3.6236,2.3208-1.0287.1452-3.2594-1.1309-3.222-1.6503.2934-4.0764.7834-8.1767,1.7495-12.1388.2308-.9461,2.4802-1.4,3.8012-2.0802.5923,1.4014,1.3643,2.7586,1.7238,4.2173.3252,1.3196.1999,2.75.3185,4.984Z"/>
  <path class="cls-1" d="M88.934,109.1611c-.9628.353-2.4647,1.4784-3.7289,1.2556-3.3306-.5869-8.1924-8.057-7.3898-11.2345.18-.7126,2.0558-1.5678,3.0003-1.4167,3.8521.6163,8.0121,5.9895,8.1184,11.3956Z"/>
  <path class="cls-1" d="M24.2149,104.0651c.5268.8708,1.9262,2.3932,1.6413,2.8386-2.241,3.5031-4.7858,6.8145-7.3479,10.0986-.0847.1085-1.351-.7045-2.0665-1.0879,2.1907-3.8296,4.3783-7.661,6.5867-11.4803.0706-.122.3562-.1197,1.1864-.3689Z"/>
  <path class="cls-1" d="M159.9776,89.2092c1.627-.6679,3.245-1.3616,4.9037-1.9385.0981-.0342.523.8713.7959,1.3396-1.6943.696-3.3885,1.392-5.0828,2.088-.2056-.4964-.4112-.9927-.6168-1.4891Z"/>
  <path class="cls-1" d="M83.8106,47.2059c2.3889.4981,4.7778.9964,7.1667,1.4945l-.274,1.6092c-2.5767-.3545-5.1535-.7091-7.7302-1.0636.2792-.6801.5583-1.3601.8375-2.0401Z"/>
  <path class="cls-1" d="M156.1978,41.7127c1.6007,1.3545,3.4713,2.5062,4.7,4.1404.7248.964.4326,2.6925.5977,4.0771-1.3485-.49-3.1624-.6013-3.9398-1.5562-1.2628-1.5509-1.8468-3.6542-2.7174-5.5242.4531-.379.9063-.7581,1.3595-1.1371Z"/>
  <path class="cls-1" d="M127.8779,107.2473c-1.3819,3.0548-2.7638,6.1096-4.1457,9.1643-.8343-.374-1.6686-.748-2.5029-1.1219,1.3745-3.0399,2.7491-6.0796,4.1236-9.1194l2.5249,1.077Z"/>
  <path class="cls-1" d="M138.9492,65.7519c-1.6788.5544-3.1083,1.2808-3.2888,1.0462-1.5894-2.0649-3.0241-4.2628-4.3048-6.5339-.1612-.2857.8342-1.2236,1.2937-1.8593,1.6843,1.9642,3.3686,3.9284,6.3,7.3469Z"/>
  <path class="cls-1" d="M212.2476,18.9673c-1.7461,1.1841-3.1484,2.2332-3.2084,2.1614-2.0302-2.4307-4.0362-4.9014-5.7477-7.5582-.271-.4206.869-1.75,1.3566-2.6592,2.3518,2.4931,4.7037,4.9863,7.5996,8.0561Z"/>
  <path class="cls-1" d="M48.6345,65.786v-7.7251c.4754-.0173.9508-.0346,1.4262-.0519.1311,2.5683.2622,5.1367.3934,7.705-.6065.024-1.2131.048-1.8196.072Z"/>
  <path class="cls-1" d="M84.7238,25.5091c2.101.8907,4.2019,1.7814,6.3029,2.6722-.1998.4893-.3996.9786-.5994,1.468-2.1138-.8587-4.2275-1.7174-6.3413-2.5761l.6378-1.5641Z"/>
  <path class="cls-1" d="M180.5264,24.0726c.7303.5529,1.8267.9578,2.1216,1.6867.8415,2.0808,1.3798,4.2876,1.937,6.4705.0295.1153-1.2571.7068-1.2771.6742-1.0791-1.7531-2.1558-3.5156-3.0727-5.3568-.4028-.8088-.4651-1.7871-.682-2.6884.3244-.262.6488-.5241.9733-.7861Z"/>
  <path class="cls-1" d="M148.3196,121.9602v7.2628c-.44.0178-.88.0355-1.32.0532v-7.2905c.44-.0086.88-.017,1.32-.0256Z"/>
  <path class="cls-1" d="M235.5217,77.1835c-2.2621.1655-2.8018.3557-2.9491.1924-1.4948-1.6581-2.9255-3.3739-4.3742-5.0735.4148-.3053,1.1212-.9388,1.2013-.8677,1.7898,1.5906,3.5108,3.2588,6.122,5.7488Z"/>
  <path class="cls-1" d="M237.1037,9.6787c-.6021,2.2632-1.2043,4.5263-1.8065,6.7895-.6169-.2423-1.7829-.5304-1.767-.7199.1873-2.2438.5511-4.4728.8685-6.7056.9017.212,1.8034.424,2.705.636Z"/>
  <path class="cls-1" d="M16.0627,87.2264c-2.6871.4688-4.0078.9429-5.2938.8627-1.6712-.1042-3.3252-.6155-4.9377-1.1107-.0758-.0233.1466-2.225.5304-2.3316,1.81-.5027,3.7717-.9906,5.5847-.7553,1.117.1448,2.0643,1.5984,4.1164,3.335Z"/>
  <path class="cls-1" d="M257.2706,27.8364c.7557.9432,1.1968,1.4937,1.6379,2.0442-1.6237,1.2657-3.2474,2.5315-4.8711,3.7972-.5099-.6702-1.5182-1.8748-1.4567-1.9322,1.3968-1.3019,2.9107-2.4782,4.6899-3.9092Z"/>
  <path class="cls-1" d="M169.6037,117.5018c-1.4958-2.3452-2.6511-4.0791-3.6417-5.9024-.0591-.1087,1.7126-1.4166,1.7711-1.3546,1.4008,1.4855,2.7494,3.037,3.8988,4.7192.1331.1948-.9603,1.2271-2.0282,2.5378Z"/>
  <path class="cls-1" d="M256.5614,56.9531c-2.2659-.2767-4.5318-.5534-6.7976-.8302.0494-.5512.0989-1.1022.1483-1.6534,2.2258.1371,4.4516.2742,6.6773.4113-.0094.6907-.0187,1.3816-.0281,2.0723Z"/>
  <path class="cls-1" d="M24.6749,57.5607c.5322,1.0438,1.1844,2.0452,1.5705,3.1403.7045,1.9983,1.2513,4.0521,1.864,6.0828-1.5839-1.5525-3.3097-2.9915-4.6871-4.7095-.6115-.7627-.5199-2.089-.7474-3.1596.6666-.4514,1.3333-.9027,2-1.3541Z"/>
  <path class="cls-1" d="M69.8523,75.7787c1.0439-1.4571,2.0877-2.9142,3.1316-4.3713.3917.2498.7834.4997,1.1751.7495-.9904,1.5941-1.9809,3.1882-2.9713,4.7824l-1.3354-1.1606Z"/>
  <path class="cls-1" d="M206.9327,77.0326c-.132,1.9976-.2508,3.9966-.4639,5.9855-.006.0556-1.4961.0205-1.4969-.0015-.0729-1.9935-.0676-3.9899-.0676-5.9862.6762.0007,1.3523.0015,2.0285.0021Z"/>
  <path class="cls-1" d="M136.9109,26.849c1.5128-1.2282,3.0255-2.4563,4.2946-3.4866-.7299,1.6332-1.5795,3.5339-2.429,5.4346-.6219-.6494-1.2437-1.2987-1.8656-1.948Z"/>
  <path class="cls-1" d="M183.9546,72.048c-.6525,1.8483-1.305,3.6965-1.9576,5.5448-.5878-.178-1.1756-.356-1.7635-.5341.5577-1.9731,1.1154-3.9462,1.6732-5.9192.6826.3029,1.3652.6056,2.0478.9085Z"/>
  <path class="cls-1" d="M122.8194,8.0057c-.5031,2.2619-1.0063,4.5238-1.5094,6.7857-.6477-.1311-1.2955-.2621-1.9433-.3932.3716-2.3015.7433-4.603,1.115-6.9046.7792.1707,1.5585.3414,2.3378.5121Z"/>
  <path class="cls-1" d="M98.6082,13.6377c-.7601-1.8807-1.5202-3.7615-2.2803-5.6422.4805-.2063.9611-.4126,1.4416-.6189.8903,1.843,1.7806,3.686,2.671,5.529-.6108.244-1.2216.488-1.8324.7321Z"/>
  <path class="cls-1" d="M115.0256,44.4915c-.1579-.6758-.4703-1.2224-.3148-1.5395.2126-.4334.7812-.6923,1.1972-1.026.175.4293.5879.9486.4676,1.266-.1687.4452-.734.7402-1.35,1.2994Z"/>
  <path class="cls-1" d="M164.2534,65.1029c-1.0035.7693-1.7238,1.3215-2.444,1.8737-.3276-.4602-.9863-1.2765-.9325-1.3266.6533-.6074,1.3823-1.1573,2.17-1.574.1396-.0738.6376.5296,1.2065,1.0269Z"/>
</svg>