<?xml version="1.0" encoding="UTF-8"?>
<svg id="Layer_1" xmlns="http://www.w3.org/2000/svg" viewBox="0 0 277.6299 92.1768">
  <defs>
    <style>
      .cls-1 {
        fill: #1d1512;
      }

      .cls-2 {
        fill: #d45242;
      }

      .cls-3 {
        fill: #ebf0bd;
      }
    </style>
  </defs>
  <path class="cls-1" d="M181.4507,88.4258c-4.1293-1.4958-7.742-.9286-12.0833.64-16.538,5.9755-31.9511,3.4104-45.5229-8.2815-.882-.7598-2.3112-1.288-3.4679-1.2569-5.6441.1517-11.282.5301-16.9222.8282-4.3361-.2784-8.6721-.5567-13.0082-.835-3.3138.0058-6.6564-.2694-9.9363.0665-13.4557,1.378-26.7597,1.1929-39.7677-3.0618-.2501-.289-.5478-.3515-.8931-.1875l-.0218-.036c-9.3994-5.748-18.7536-11.5729-28.2489-17.1579-1.3623-.8013-3.4053-.4451-5.1334-.6245-6.8647-1.4561-8.1481-5.733-4.3155-14.9996,1.9467.1,3.9941.2052,5.0493.2594,1.7497-3.8297,3.2043-7.0137,5.3851-11.7869-1.4545-5.1068-3.4948-12.2054-5.4958-19.315C5.1569,5.8869,6.1675,3.5961,12.4496.2753c19.6353-1.2641,23.4336,1.4708,30.1497,15.6661.2739.5789.766,1.0546,1.1564,1.5783.5587,1.3747,1.419,2.7054,1.6275,4.1314,1.395,9.5429,7.6742,10.5552,15.7072,9.7693,8.7431-.8553,17.5624-.9315,26.3484-1.3474,2.6763.0439,5.3525.0877,8.0288.1316,12.6523-.4278,25.3046-.8556,37.957-1.2834,18.6777-.8652,37.3553-1.7305,56.033-2.5957,5.721.1402,11.4421.2804,17.1631.4206,3.2661-.0999,6.5321-.1999,9.7982-.2999,3.677.2753,7.3541.5505,11.0311.8258,1.9988.3039,3.9975.6078,5.9963.9117,4.2765.8497,8.5529,1.6995,12.8293,2.5492,8.3146,4.7489,16.6293,9.4979,24.9439,14.2468,2.1368,2.7961,4.2736,5.5921,6.4104,8.3882-1.2943,3.3691-2.0389,7.1275-4.0603,9.9818-1.5643,2.2088-4.7266,3.2859-7.1785,4.8661-2.1598.806-4.2734,1.7807-6.4879,2.3869-7.1325,1.9523-14.3022,3.7686-21.4576,5.6374-12.374.3284-24.7487.6372-37.1207,1.0279-.8521.0269-2.0857.4244-2.465,1.0561-3.9643,6.6016-10.5213,8.6133-17.409,10.1018ZM220.4132,72.1895c10.2938-1.3635,20.7199-2.1182,30.8326-4.3154,6.2112-1.3495,12.1229-4.5773,17.7791-7.6739,1.6817-.9207,3.2737-4.6512,2.7167-6.3942-.8336-2.608-3.2879-4.2546-7.0808-2.7984-3.8536,1.4795-8.2026,1.7587-12.3683,2.3088-3.9123.5167-7.8636.8711-11.8068.9866-4.6507.1362-9.332.1937-13.9614-.1862-4.5038-.3696-7.0298-3.8793-6.7679-8.5485.2494-4.444,2.3729-6.2111,7.5311-6.2213,6.3944-.0127,12.7888-.0031,19.8085-.0031-2.8456-4.7056-6.6617-5.6801-10.8768-5.9168-6.304-.354-12.6036-.9779-18.9103-1.0547-17.9955-.2192-35.9967-.4447-53.9893-.2002-7.5885.1031-15.1472,1.7938-22.7433,2.0454-26.2438.8694-52.4963,1.5072-78.7492,2.0569-11.3012.2367-22.6125-.0384-33.9171.0923-3.2963.0381-6.7203.2328-9.8333,1.183-2.2651.6914-4.1151,2.7425-6.1502,4.1874.2667.4532.5334.9064.8002,1.3596.7815-.045,1.5871.0176,2.3408-.1515,9.2474-2.075,18.4725-.5578,27.6577.3629,5.867.5881,8.4784,5.0977,5.187,9.1766-1.7441,2.1614-5.5228,3.4922-8.4871,3.6979-7.4008.5135-14.8611.1693-23.5151.1693,1.4995,1.9021,1.8562,2.717,2.4781,3.0902,13.6833,8.2108,27.334,16.354,44.2084,15.9339,18.298-.4556,36.6071-.4623,54.9062-.8865,1.7571-.0407,3.4777-1.6508,5.2153-2.5324-.2118-.5789-.4235-1.1579-.6353-1.7369-2.261-.2826-4.5153-.6476-6.7843-.8313-5.4495-.4413-10.9299-.6026-16.3498-1.2678-2.8455-.3492-4.8985-2.039-4.5262-5.4646.3585-3.2994,2.6481-3.7768,5.3306-3.9669,3.7971-.2691,7.5795-.7425,11.3757-1.0287,10.5824-.7979,21.161-2.0025,31.7556-2.179,10.1048-.1684,20.2272,1.0846,30.3432,1.1059,9.736.0206,19.4172-1.8631,29.1287,1.4333,4.209,1.4287,5.956,3.0771,5.0645,7.325-2.9767,1.0648-5.9535,2.1297-10.4062,3.7225,2.4601,1.5333,3.967,3.2524,5.5374,3.3126,5.9427.2276,11.9059-.0829,17.8615-.192ZM201.3961,62.6021c-6.7279-3.4108-82.8455-2.7026-91.2371.4721,6.2536,3.3729,70.1697,3.1303,91.2371-.4721Z"/>
  <path class="cls-3" d="M207.4205,65.3464c.8915-4.2479-.8556-5.8963-5.0645-7.325-9.7115-3.2965-19.3927-1.4128-29.1287-1.4333-10.1159-.0214-20.2383-1.2743-30.3432-1.1059-10.5946.1765-21.1732,1.3812-31.7556,2.179-3.7962.2862-7.5786.7596-11.3757,1.0287-2.6825.1901-4.9721.6675-5.3306,3.9669-.3722,3.4256,1.6807,5.1154,4.5262,5.4646,5.4199.6652,10.9003.8265,16.3498,1.2678,2.269.1837,4.5233.5487,6.7843.8313.2118.5789.4235,1.1579.6353,1.7369-1.7375.8816-3.4582,2.4917-5.2153,2.5324-18.2991.4241-36.6081.4308-54.9062.8865-16.8744.4201-30.5251-7.7231-44.2084-15.9339-.6219-.3732-.9786-1.1881-2.4781-3.0902,8.6539,0,16.1142.3442,23.5151-.1693,2.9643-.2057,6.743-1.5365,8.4871-3.6979,3.2915-4.0789.68-8.5885-5.187-9.1766-9.1851-.9208-18.4103-2.4379-27.6577-.3629-.7536.1691-1.5593.1065-2.3408.1515-.2667-.4532-.5334-.9064-.8002-1.3596,2.0351-1.4449,3.8851-3.496,6.1502-4.1874,3.113-.9502,6.537-1.1449,9.8333-1.183,11.3047-.1307,22.6159.1443,33.9171-.0923,26.2529-.5498,52.5054-1.1876,78.7492-2.0569,7.5961-.2516,15.1548-1.9423,22.7433-2.0454,17.9926-.2445,35.9938-.019,53.9893.2002,6.3067.0768,12.6063.7007,18.9103,1.0547,4.215.2367,8.0312,1.2112,10.8768,5.9168-7.0196,0-13.4141-.0096-19.8085.0031-5.1582.0102-7.2817,1.7773-7.5311,6.2213-.262,4.6692,2.264,8.1789,6.7679,8.5485,4.6294.3799,9.3107.3224,13.9614.1862,3.9432-.1155,7.8945-.47,11.8068-.9866,4.1657-.5501,8.5147-.8293,12.3683-2.3088,3.7929-1.4562,6.2473.1904,7.0808,2.7984.557,1.743-1.035,5.4735-2.7167,6.3942-5.6562,3.0966-11.5679,6.3244-17.7791,7.6739-10.1127,2.1973-20.5388,2.952-30.8326,4.3154-6.0581-.4654-12.1162-.9308-18.2564-1.4025,1.0016-3.1305,7.1585-.0089,5.2637-5.4406ZM116.8331,41.3719c-13.1608,0-23.643-.2209-34.1086.0995-4.7537.1455-9.5788.9944-14.1559,2.2874-1.6825.4753-3.5079,3.0234-3.8131,4.8669-.1954,1.1805,2.0682,3.7229,3.5814,4.0561,4.9401,1.0877,10.0464,2.0053,15.0801,1.9631,11.0992-.093,22.1935-.8029,33.289-1.2795,7.3018-.3136,14.6046-.6156,21.9025-1.0068,4.4544-.2387,8.9025-.9248,13.3496-.8923,5.949.0435,11.8918.7648,17.8422.8505,3.4436.0496,6.8916-.7565,10.3472-.8625,6.4025-.1962,12.8196-.0042,19.2142-.3129,2.058-.0993,4.1433-1.0994,6.0587-2.0162.8539-.4088,1.9426-1.7415,1.8153-2.4576-.1957-1.1007-1.147-2.4319-2.1453-2.9328-1.2529-.6287-2.8707-.5983-4.3419-.7114-5.2514-.4036-10.5162-.6524-15.7599-1.1341-10.0475-.923-20.0872-2.7947-30.1242-2.7553-13.5598.0533-27.1139,1.5372-38.0312,2.2379Z"/>
  <path class="cls-2" d="M201.3961,62.6021c-21.0674,3.6024-84.9835,3.845-91.2371.4721,8.3916-3.1747,84.5092-3.8829,91.2371-.4721Z"/>
  <path class="cls-1" d="M116.8331,41.3719c10.9173-.7007,24.4714-2.1846,38.0312-2.2379,10.037-.0394,20.0768,1.8323,30.1242,2.7553,5.2437.4817,10.5085.7305,15.7599,1.1341,1.4712.1131,3.089.0827,4.3419.7114.9983.5009,1.9496,1.8321,2.1453,2.9328.1273.7161-.9613,2.0488-1.8153,2.4576-1.9154.9168-4.0007,1.9169-6.0587,2.0162-6.3947.3087-12.8118.1167-19.2142.3129-3.4557.1059-6.9036.912-10.3472.8625-5.9504-.0856-11.8932-.807-17.8422-.8505-4.4471-.0325-8.8951.6536-13.3496.8923-7.2979.3911-14.6007.6932-21.9025,1.0068-11.0955.4766-22.1898,1.1864-33.289,1.2795-5.0338.0422-10.1401-.8753-15.0801-1.9631-1.5132-.3332-3.7768-2.8755-3.5814-4.0561.3052-1.8435,2.1306-4.3916,3.8131-4.8669,4.5771-1.293,9.4022-2.1419,14.1559-2.2874,10.4656-.3204,20.9478-.0995,34.1086-.0995Z"/>
</svg>