<?xml version="1.0" encoding="UTF-8"?>
<svg id="Layer_1" xmlns="http://www.w3.org/2000/svg" viewBox="0 0 199.0694 87.938">
  <defs>
    <style>
      .cls-1 {
        fill: #141814;
      }

      .cls-2 {
        fill: #b0d359;
      }

      .cls-3 {
        fill: #b8d433;
      }

      .cls-4 {
        fill: #809e8f;
      }
    </style>
  </defs>
  <path class="cls-1" d="M36.2082,33.5707c-1.6064-12.3863,2.6605-21.8106,11.6545-29.196,3.2111-2.6369,6.7085-2.9221,10.7087-1.1081,3.7049,1.68,7.8882,2.2729,11.6927,3.7712,13.3843,5.2709,16.7719,13.6176,11.1543,26.9317-.3058.7247-.5603,1.471-.877,2.3084.6922.2278,1.1436.5021,1.5951.5023,1.637.0009,3.274-.0902,5.2316-.1575-.2203-1.8265-.4119-3.4206-.6049-5.0145C84.9995,17.0429,97.4775.8806,112.1397.0434c5.347-.3053,11.6271,1.0045,16.1132,3.785,6.7869,4.2065,12.6465,10.0733,18.3725,15.7655,3.3848,3.3647,3.7801,8.0205,1.6087,12.2525,9.244-.5967,18.2688-1.4494,27.3094-1.6811,7.8904-.2022,15.0256,2.0387,20.607,8.197,3.2317,3.5659,3.6856,7.4579,1.828,11.5064-4.7152,10.2757-13.1495,16.9256-23.4502,20.3828-21.7128,7.2872-43.6028,13.9626-66.8625,14.7169-12.2601.3976-24.4716,2.8473-36.7184,2.964-17.3574.1655-34.1852-3.3875-48.8471-13.2672-6.529-4.3995-12.3778-9.9452-18.0073-15.5053-5.9776-5.904-5.2543-13.5777,1.1695-18.8698,7.4879-6.1687,16.7872-5.6053,25.6212-6.6977,1.6205-.2004,3.2875-.0246,5.3247-.022ZM166.3649,66.899c-2.0033.1689-4.0067.3378-6.01.5067.2432.8425.4865,1.685.7298,2.5274,1.7454-1.0408,3.4907-2.0816,5.2358-3.1229.1685-.1572.3371-.3145.5056-.4717-.1537.1868-.3075.3736-.4612.5605ZM65.542,45.3461s.3458.005.3458.005c5.2748.0738,10.5496.1476,15.8244.2213,5.5916.3048,11.1929.4911,16.7725.9446,6.9981.5688,14.0297,2.2476,20.9548,1.8487,11.4208-.6578,22.793-2.4231,34.1362-4.0643,6.4488-.933,12.551-3.091,17.4458-8.2932-5.664-.3126-11.4522-.6205-16.5887,1.0617-15.3881,5.0397-31.0492,6.3916-47.089,5.7703-9.395-.3639-18.8169-.0381-28.2233-.0223-4.2435-.0724-8.4871-.1447-12.7306-.2171-14.5011-1.6206-28.9901-3.4932-44.818-2.7384,1.509,1.3498,1.9836,2.1499,2.5693,2.2419,8.9607,1.4058,17.9061,3.0225,26.9219,3.9101,3.7908.3732,7.7378-.8406,11.6138-1.333.955.2215,1.91.4431,2.865.6647ZM82.4462,63.0112c-11.4055-1.6832-22.8037-3.4194-34.2224-5.0072-2.4326-.3382-4.9402-.1371-7.4132-.1844-.9862-.1906-1.9724-.3811-2.9586-.5717l-.3518.1048c-7.1774-1.4627-14.3547-2.9253-21.5321-4.3879-3.1736-1.2511-6.3472-2.5022-9.5207-3.7533-.1667,2.3905.2323,4.9299,1.6014,5.6667,3.4228,1.8421,7.2857,2.8661,10.9721,4.2185,3.6619.612,7.3238,1.224,10.9856,1.836,8.1333,2.4601,16.2665,4.9202,24.3998,7.3802l.3442.1228c1.9658.0573,3.9315.1146,5.8972.1718l.2567.13.2854-.0378c1.5666.1304,3.1332.2608,4.6997.3913,2.0021.1162,4.0042.2324,6.0063.3486,1.3833-.0537,2.7666-.1074,4.1499-.1611l.0108.0791c3.1325-.1083,6.2651-.2166,9.3977-.3248l-.0546.007c9.8276.0219,19.6726.4163,29.4776-.0439,8.9506-.4201,17.9003-1.4738,26.7744-2.7687,15.0995-2.2034,30.1701-4.7132,44.3241-10.8296,4.6499-2.0093,6.5771-5.8182,7.114-11.3848-2.9291,1.3667-5.1293,2.4518-7.3756,3.4309-8.1686,3.5605-15.7622,8.2186-25.0626,9.2742-13.786,1.5646-27.4421,4.2725-41.1535,6.4938-2.4235-.2591-4.8469-.5181-7.2704-.7771-9.9352.1804-19.8705.3607-29.8057.541l.0244.0356ZM128.0165,10.2029c-8.7744-5.0963-18.8938-.8017-23.7491,5.5088-4.2726,5.5534-5.5728,11.8082-3.2261,18.7343,1.7632,5.204,6.0584,2.6048,8.8063,2.6321,9.3422.0929,18.7245-.4815,28.0297-1.4169,4.8865-.4912,7.473-5.6157,5.7163-10.5802-2.5255-7.1373-8.0901-11.4164-15.5772-14.8782ZM189.4349,40.0116c-2.1524-2.9381-4.2086-3.2318-7.6643-1.7844-9.1546,3.8347-18.3735,8.019-27.9916,10.115-11.6412,2.537-23.7031,3.2319-35.6159,4.3828-3.9208.3788-7.9603-.1396-11.9176-.5299-15.7009-1.5489-31.3403-3.8705-47.2171-2.3427-4.5829.441-9.3279.4012-13.8776-.2557-11.2638-1.6261-22.4523-3.7704-33.6911-5.5819-.8246-.133-1.8101.7329-3.8612,1.6372,3.6573,1.3177,6.0552,2.5696,8.597,3.0341,15.6554,2.8608,31.2514,6.4072,47.0415,8.0878,24.9701,2.6577,50.1037,2.2698,75.0449-.6969,17.788-2.116,35.5174-5.2043,51.153-16.0654ZM17.0901,63.093c10.4875,9.5654,22.6505,14.8803,36.1703,17.5529,10.9594,2.1664,21.7841.881,32.7171.1391,18.8773-1.2812,37.8073-1.9691,56.2525-6.7184,5.6073-1.4438,11.1258-3.2324,15.7746-4.5961-18.8751,1.2852-38.4571,2.8586-58.0674,3.8915-23.2122,1.2227-46.4905,2.9144-68.6053-7.3022-4.2888-1.9814-9.4715-2.0279-14.2418-2.9669ZM74.3142,37.3632c1.1831-2.6469,2.426-4.8459,3.1643-7.2028,1.4613-4.6649,3.0183-10.2665-1.4862-13.3638-4.6885-3.2239-10.5603-5.2026-16.194-6.3266-2.0723-.4135-5.5445,2.7111-7.3183,5.0318-3.3008,4.3181-3.4272,9.5714-2.1415,14.7789.7361,2.9816,2.3346,4.9745,5.7534,5.2453,5.9217.469,11.8242,1.1785,18.2224,1.8373ZM99.3582,13.1126c-7.0718,3.5148-9.8867,14.0232-6.896,21.724.4288,1.1041,2.0664,1.7386,3.1445,2.5905.3882-.1914.7765-.3827,1.1647-.5741-3.5314-8.497-1.7057-16.2673,2.5867-23.7404ZM46.8204,34.6163c-3.1256-7.8106-2.3954-15.5156,1.1986-23.1225-4.9805,5.7228-8.0747,12.0115-6.6097,19.7357.5145,2.7128,1.8728,4.6644,5.4112,3.3868ZM99.8902,11.5414c.2929.2522.5859.5044.8789.7567.7849-.8653,1.5698-1.7305,2.3548-2.5957-.2684-.239-.5366-.478-.8049-.717-.8096.852-1.6191,1.7041-2.4287,2.5561Z"/>
  <path class="cls-4" d="M189.4349,40.0116c-15.6356,10.8611-33.365,13.9494-51.153,16.0654-24.9412,2.9668-50.0748,3.3546-75.0449.6969-15.7901-1.6806-31.3861-5.227-47.0415-8.0878-2.5418-.4645-4.9397-1.7164-8.597-3.0341,2.0511-.9044,3.0367-1.7702,3.8612-1.6372,11.2388,1.8116,22.4273,3.9558,33.6911,5.5819,4.5498.6568,9.2947.6967,13.8776.2557,15.8768-1.5277,31.5162.7939,47.2171,2.3427,3.9574.3903,7.9968.9088,11.9176.5299,11.9129-1.151,23.9747-1.8459,35.6159-4.3828,9.6181-2.0961,18.837-6.2803,27.9916-10.115,3.4556-1.4474,5.5119-1.1537,7.6643,1.7844Z"/>
  <path class="cls-4" d="M17.0901,63.093c4.7703.939,9.953.9855,14.2418,2.9669,22.1148,10.2166,45.3931,8.5248,68.6053,7.3022,19.6104-1.033,39.1923-2.6063,58.0674-3.8915-4.6488,1.3637-10.1674,3.1523-15.7746,4.5961-18.4452,4.7494-37.3752,5.4373-56.2525,6.7184-10.933.7419-21.7577,2.0273-32.7171-.1391-13.5198-2.6726-25.6828-7.9876-36.1703-17.5529Z"/>
  <path class="cls-2" d="M119.4979,63.2116c13.7113-2.2212,27.3675-4.9291,41.1535-6.4938,9.3004-1.0556,16.894-5.7138,25.0626-9.2742,2.2464-.9791,4.4465-2.0642,7.3756-3.4309-.5369,5.5666-2.4641,9.3755-7.114,11.3848-14.154,6.1163-29.2246,8.6261-44.3241,10.8296-8.8741,1.295-17.8238,2.3486-26.7744,2.7687-9.8049.4602-19.65.0658-29.4775.0439,2.498-3.7355-.8471-4.6016-2.9778-6.0641,9.9352-.1803,19.8705-.3607,29.8078-.5402-.0699,4.5539.822,4.923,8.92,3.6904-.5507-.9713-1.1012-1.9428-1.6517-2.9142ZM188.2268,50.1235c-.1964-.4828-.3927-.9656-.589-1.4484-4.1655,2.2716-8.331,4.5432-13.1305,7.1606,5.3708,1.6438,10.9507-.9858,13.7195-5.7122Z"/>
  <path class="cls-2" d="M79.1172,42.8177c9.4098-.0156,18.8316-.3414,28.2266.0226,16.0398.6213,31.7009-.7306,47.089-5.7703,5.1365-1.6822,10.9247-1.3744,16.5887-1.0617-4.8949,5.2022-10.997,7.3602-17.4458,8.2932-11.3431,1.6412-22.7154,3.4065-34.1362,4.0643-6.9251.3989-13.9567-1.28-20.9548-1.8487-5.5796-.4535-11.1809-.6398-16.7715-.9446-.8647-.9182-1.7303-1.8365-2.596-2.7548Z"/>
  <path class="cls-3" d="M82.4218,62.9756c2.1307,1.4625,5.4758,2.3286,2.9778,6.0641,0,0,.0545-.0071.0544-.0071-3.2054-1.9996-6.3684-2.7716-9.3976.3248,0,0-.0108-.0791-.0107-.0792-1.3833.0537-2.7666.1074-4.1499.1612-2.0021-.1162-4.0042-.2324-6.0067-.3485-1.5667-.1304-3.133-.2609-4.6993-.3913l-.2854.0378s-.2567-.13-.2579-.1285c-1.6731-.651-3.3354-1.334-5.0424-1.8757-.0949-.0301-.5605,1.108-.8536,1.7023,0,0-.3442-.1228-.3476-.1239-2.8645-1.2961-5.6211-2.962-8.6099-3.8036-5.1865-1.4604-10.5166-2.411-15.7865-3.5755-3.6619-.612-7.3238-1.224-10.9895-1.8371-2.4124-1.2757-4.8209-2.5504-7.1547-3.7855,1.4813-.8461,2.7936-1.5957,4.1059-2.3452,7.1774,1.4627,14.3547,2.9253,21.5344,4.3877.3036.4367.6048.8736.9061,1.3106.1554-.1263.3108-.2526.4663-.3788l-1.023-1.0363c.9862.1906,1.9724.3811,2.9615.5724,5.947,1.599,11.826,3.5352,17.8543,4.6976,5.6725,1.0938,11.4909,1.5665,17.269,1.9061,2.1347.1255,4.3376-.9079,6.5094-1.4127l-.0244-.0356Z"/>
  <path class="cls-2" d="M62.677,44.6815c-3.876.4924-7.823,1.7061-11.6138,1.333-9.0159-.8875-17.9613-2.5043-26.9219-3.9101-.5857-.092-1.0604-.8921-2.5693-2.2419,15.8278-.7548,30.3169,1.1178,44.819,2.7381-.167.9167-.3351,1.8336-.5032,2.7505,0,0-.3458-.005-.3452-.0066-.9548-.222-1.9102-.4426-2.8656-.6631Z"/>
  <path class="cls-4" d="M99.3582,13.1126c-4.2924,7.4731-6.1182,15.2435-2.5867,23.7404-.3882.1914-.7765.3827-1.1647.5741-1.0781-.8519-2.7157-1.4864-3.1445-2.5905-2.9907-7.7008-.1759-18.2092,6.896-21.724Z"/>
  <path class="cls-2" d="M82.4462,63.0112c-2.1718.5048-4.3747,1.5382-6.5094,1.4127-5.7781-.3396-11.5965-.8123-17.269-1.9061-6.0283-1.1623-11.9073-3.0986-17.8543-4.6976,2.4702.0466,4.9777-.1546,7.4103.1837,11.4187,1.5879,22.8169,3.324,34.2224,5.0072Z"/>
  <path class="cls-4" d="M46.8204,34.6163c-3.5383,1.2776-4.8967-.674-5.4112-3.3868-1.465-7.7243,1.6292-14.0129,6.6097-19.7357-3.594,7.6069-4.3241,15.3119-1.1986,23.1225Z"/>
  <path class="cls-2" d="M30.0064,60.9325c5.2699,1.1644,10.6,2.115,15.7865,3.5755,2.9888.8416,5.7454,2.5076,8.6099,3.8036-8.1299-2.4589-16.2631-4.919-24.3964-7.3791Z"/>
  <path class="cls-4" d="M65.8878,45.3512c.168-.917.3361-1.8339.5032-2.7506,4.2425.0726,8.486.145,12.7279.2173.864.9182,1.7296,1.8364,2.5943,2.7546-5.2757-.0738-10.5505-.1475-15.8253-.2213Z"/>
  <path class="cls-3" d="M119.4979,63.2116c.5505.9714,1.1011,1.9429,1.6518,2.9142-8.098,1.2326-8.9899.8635-8.92-3.6904,2.4213.2582,4.8448.5172,7.2682.7762Z"/>
  <path class="cls-2" d="M76.0564,69.3575c3.0292-3.0964,6.1921-2.3244,9.3976-.3248-3.1324.1082-6.265.2165-9.3976.3248Z"/>
  <path class="cls-4" d="M166.3208,66.8109c-1.7454,1.0407-3.4907,2.0815-5.2361,3.1223-.2433-.8425-.4865-1.6849-.7298-2.5274,2.0033-.1689,4.0067-.3378,6.01-.5067,0,0-.0442-.0881-.0442-.0882Z"/>
  <path class="cls-2" d="M54.7504,68.4355c.2931-.5943.7587-1.7324.8536-1.7023,1.7071.5416,3.3693,1.2246,5.0424,1.8757-1.9645-.0588-3.9302-.1161-5.896-.1734Z"/>
  <path class="cls-4" d="M99.8902,11.5414c.8096-.852,1.6191-1.7041,2.4287-2.5561.2683.239.5366.478.8049.717-.7849.8652-1.5698,1.7305-2.3548,2.5957-.293-.2522-.5859-.5044-.8789-.7567Z"/>
  <path class="cls-2" d="M71.8958,69.4395c1.3833-.0538,2.7666-.1075,4.1499-.1612-1.3834.0539-2.7666.1075-4.1499.1612Z"/>
  <path class="cls-4" d="M62.677,44.6815c.9554.2205,1.9108.4411,2.8656.6631-.9556-.22-1.9106-.4415-2.8656-.6631Z"/>
  <path class="cls-2" d="M61.1897,68.6996c1.5663.1305,3.1326.2609,4.6993.3913-1.5661-.1305-3.1327-.2609-4.6993-.3913Z"/>
  <path class="cls-4" d="M166.3649,66.899c.1537-.1868.3075-.3736.4612-.5605-.1685.1572-.3371.3145-.5055.472.0001.0003.0443.0885.0443.0885Z"/>
  <path class="cls-3" d="M188.2268,50.1235c-2.7688,4.7264-8.3487,7.356-13.7195,5.7122,4.7995-2.6174,8.965-4.889,13.1305-7.1606.1963.4828.3927.9656.589,1.4484Z"/>
  <path class="cls-2" d="M37.8519,57.2479l1.023,1.0363c-.1555.1263-.3109.2525-.4663.3788-.3013-.4369-.6026-.8738-.9061-1.3106-.0024.0002.3494-.1045.3494-.1045Z"/>
</svg>