<?xml version="1.0" encoding="UTF-8"?>
<svg id="Layer_1" xmlns="http://www.w3.org/2000/svg" viewBox="0 0 206.9244 143.9066">
  <defs>
    <style>
      .cls-1 {
        fill: #e4dfe2;
      }

      .cls-2 {
        fill: #101311;
      }

      .cls-3 {
        fill: #7e9e8d;
      }
    </style>
  </defs>
  <path class="cls-2" d="M198.5596,115.3454c-.0756.5905-.2388,1.1848-.2133,1.7709.2284,5.2307-.6315,10.0656-5.6463,12.8869-4.8577,2.7329-8.748-.1898-12.6409-2.6328-1.8391-5.0507-4.7516-1.1679-7.2334-.8695-1.6102-.0499-3.2204-.0998-4.8307-.1497-4.6771-2.8828-5.1142-7.9859-6.504-12.5592-.9633-3.1696-1.8468-5.4023-6.1795-5.7892-7.7839-.6949-11.5566-6.8572-10.1395-14.6366.4634-2.5438.7682-5.1162,1.16-7.6733.3776-2.4653-.5831-3.3939-3.1413-3.884-6.3611-1.2185-6.5668,3.0224-6.3489,7.0658.6862,12.7325-2.5563,25.0357-3.759,37.5557-.5421,5.6441-3.7048,8.1432-9.6238,8.4467-7.3191.3753-14.5829,1.8318-21.8706,2.8212-5.1586.6743-10.3172,1.3486-15.4758,2.0229-2.818.2843-5.6361.5685-8.4541.8528-.8065.0996-1.613.1993-2.4195.299-1.1777.1733-2.3555.3466-3.5332.5199-8.8527-.2775-17.7061-.588-26.5298.5453-1.6021.1118-3.2042.2236-4.8063.3355-.8319.0567-1.6637.1135-2.4956.1703-1.6224-.3841-3.1973-.2784-4.7113.4564-.8793-.4415-1.6934-.3999-2.4153.3259-11.3307,1.8048-15.0349.2405-17.9452-7.3822-5.097-13.3496-9.7283-26.8321-12.1732-40.9675-.6967-5.2295-.7892-10.4745-.4039-15.7318.5352-1.5821,1.0703-3.1642,1.6055-4.7463l.4144-.281-.0422-.4967c1.7436-2.6179,3.04-5.6123,6.0337-7.1756-.0029.0001.0313-.0017.0313-.0017,13.4205-5.0326,27.7848-4.7467,41.6292-7.3905.8876.4724,1.7246.4237,2.5017-.2426,1.5833-.1553,3.1666-.3106,4.7499-.4659,4.9644.8175,9.6638-.7695,14.4472-1.5934.418-.1124.836-.2248,1.2541-.3372,4.4276-.9423,9.5178,1.6889,13.3477-2.4762,2.085-8.4099,5.8756-16.422,5.9027-25.312,2.7809-8.4369,5.5618-16.8738,8.3428-25.3106,4.9484-2.4777,10.059-4.088,15.6865-2.9346,1.9746,1.4109,3.9492,2.8219,5.9237,4.2329,4.1141,8.0789,7.6591,16.3769,9.718,25.2472,1.0772,6.8285,2.1544,13.657,3.2315,20.4855-.3692.8877-.2009,1.6741.4469,2.37.035,4.7232,1.0293,8.3546,7.491,6.2726-3.1463-5.1032-5.0721-11.3848.8227-14.2012,7.7753-3.7148,9.7055-9.22,9.6446-16.6962-.0077-.9521.5138-1.9085.7901-2.8629l.4298-.0871.1078-.4251c.8413-.6252,1.6826-1.2505,2.5239-1.8757,5.4565.4856,9.906-4.4995,15.5734-2.8681,7.0424,3.4486,12.6512,7.643,11.0811,16.9394-1.472,8.716-6.0015,11.7063-14.3861,8.9629-1.4448-.4727-3.282-2.7636-4.5209-.0131-1.075,2.3867-1.3601,5.2535-.242,7.5923.7887,1.6498,3.0232.6251,4.3131.0468,7.5001-3.3624,15.6339-2.9436,23.4876-4.1111,6.2618-.9309,10.2816,1.7207,12.8291,7.5599,1.5833,3.6292,1.5713,7.4027,1.5097,11.2164-.3525.7745-.7049,1.5489-1.0574,2.3234-6.4837,8.1136-16.8785,6.8233-20.9845-2.7574-.6004-1.401-.9973-2.333-2.2277-1.3846-2.4448,1.8846-7.7232,1.1169-7.0652,5.7956.6904,4.9092.1309,9.0641-3.1129,12.7909-1.1703,1.3445-.3536,2.5424.0898,3.8628.8853,2.6363,1.7578,5.2933,2.3692,8.0019,1.1569,5.1265,1.6348,9.3567,9.5543,7.7816,6.9607-1.3843,11.5058,4.3328,14.0893,10.7653ZM91.2835,117.7855c3.8136,0,7.6313-.1097,11.4397.0312,3.7412.1384,4.6181-1.3567,3.3376-4.751-5.6528-14.9852-11.297-29.9744-16.8068-45.0125-1.7955-4.9003-5.121-6.2145-9.9141-5.2858-3.9206.7596-7.8599,1.4796-11.8222,1.9573-15.8575,1.9116-31.7271,3.7237-47.5927,5.5676-2.0829.2421-3.9233.2833-3.2237,3.5014,2.9708,13.6661,4.5156,27.6307,9.2521,40.9314,1.4569,4.0913,3.4363,5.3274,7.7444,5.4835,19.2756.6983,38.3861-1.8184,57.5856-2.4231ZM119.8284,82.7714c.9292,9.3175-3.4624,19.0671-3.2623,29.3427.1688,8.6736-3.4255,13.3037-12.0661,12.7977-22.6267-1.3251-45.0535,4.4408-67.679,1.4071-2.5555-.3426-5.2961-.4224-7.7883.1214-4.7338,1.0328-4.6362,5.3106-4.2536,8.7152.4514,4.0169,3.7412,1.6601,5.6972,1.3773,6.1159-.8841,12.1771-2.0958,18.41-1.8847,9.8311.3329,19.5885-.6182,29.3272-1.8321,14.475-1.8042,28.936-3.7411,43.4385-5.2878,3.5488-.3785,3.9623-2.0917,4.4941-4.971,2.8324-15.3367,2.7365-30.9761,4.9922-46.3671.3612-2.4645,2.2378-5.8241-2.5013-6.453-5.7056-.7571-8.5827,1.1744-8.7939,6.0038-.0876,2.002-.0146,4.011-.0146,7.0307ZM104.5205,18.1049c-5.0708,7.5769-4.4802,16.6468-7.6072,24.5667-3.6803,9.3212-5.358,18.2884.4808,27.331.6243.9668.637,2.3095,1.0479,3.436,3.5296,9.6751,7.0855,19.3405,11.0183,30.0571,1.8768-7.8518,3.4384-14.3734,3.1486-21.2512-.2419-5.7419-1.0107-11.6982,3.0665-16.738,1.0442-1.2906.1914-2.7-.3543-3.9715-5.9408-13.8444-9.6711-28.2352-10.8006-43.4301ZM129.9911,60.3188c-2.6949-9.4245-4.1253-19.1098-5.5925-28.761-1.1376-7.4826-4.0358-14.1737-7.5771-20.7044-1.0298-1.8992-2.4754-3.5156-4.6971-3.0262-3.1463.6931-.8755,2.9238-.7103,4.3575.6399,5.551,1.5757,11.0671,2.3052,16.6089,1.4258,10.8293,4.994,20.9876,9.2046,31.0037,1.1777,2.8016,3.0298,2.7649,5.2424,2.72,1.3939-.0283,2.3533-.5365,1.8247-2.1985ZM17.7825,127.7965c1.6536-2.9608,3.7853-4.5042,2.5425-7.6831-4.593-11.7477-7.1254-24.0319-8.9972-36.4731-.2693-1.7902-1.0568-3.5024-1.6044-5.2507-.5697.1478-1.1393.2955-1.709.4433-1.659,16.9862,3.4173,32.6713,9.768,48.9636ZM159.7302,78.8514c-2.8964,1.2242-4.3114,2.7242-2.9454,6.6769,3.6688,10.6159,10.0563,20.082,12.8418,31.0502.3215,1.266,1.2466,2.8885,3.0476,1.7461,1.9199-1.2177,1.5338-3.154.7417-4.8412-5.2654-11.2167-6.5214-23.984-13.6858-34.632ZM189.2133,61.7886c.8901,3.4668,1.1597,7.8167,6.4573,7.5152,3.2129-.1829,5.2233-2.2666,4.6817-5.6145-.6013-3.7185-1.2995-7.4895-6.61-7.5192-4.1336-.0232-4.2518,2.6199-4.529,5.6185ZM177.2086,35.4192c.079-5.4343-3.0087-7.8397-7.3263-8.26-3.9993-.3894-3.2587,3.1957-3.3917,5.6101-.2903,5.2711,3.6385,6.9743,7.6201,7.4648,3.5213.4338,2.3908-3.2974,3.0978-4.8149ZM191.2294,118.5809c-.3172-3.9028-2.0087-6.5007-6.129-6.8637-2.428-.2139-3.7363.8782-3.8088,3.4135-.0968,3.3856,4.348,8.9831,7.0579,8.58,3.0464-.4531,2.3201-3.2192,2.8799-5.1299ZM147.2278,68.1713c-2.7601,1.087-7.356-1.3964-7.721,3.4905-.3806,5.0982,4.6852,1.2547,6.7787,3.3287,1.3145,1.3022,4.6097,1.3706,6.4899-.7493,1.1156-1.258,1.3196-3.1337.6518-4.5259-1.3782-2.8733-4.2049-.9961-6.1995-1.5439ZM181.9417,58.7296l-.5225-1.3685c-6.529,1.9561-13.058,3.912-19.5868,5.8687-1.784.5346-1.9171,1.6964-1.3148,3.2416.7573,1.9427,2.0749,1.4508,3.3862.8316,6.02-2.8423,12.0264-5.713,18.0378-8.5735ZM151.1338,47.8822c-2.6201,1.216-4.6251,2.0681-4.5616,4.3928.0532,1.953,1.269,3.5071,3.8177,4.1156.2459-2.8126.45-5.1464.7439-8.5084ZM155.5278,101.3248c.6979-2.7065-1.0746-4.344-2.2767-6.9369-2.2279,3.8141-1.921,5.9733,2.2767,6.9369Z"/>
  <path class="cls-1" d="M201.7228,108.1334l-.4616-.2612c.1558.0851.3116.1702.4675.2553,0,0-.0059.0058-.0059.0058Z"/>
  <path class="cls-3" d="M91.2835,117.7855c-19.1996.6047-38.31,3.1214-57.5856,2.4231-4.3081-.1561-6.2875-1.3922-7.7444-5.4835-4.7365-13.3008-6.2813-27.2653-9.2521-40.9314-.6995-3.2181,1.1408-3.2593,3.2237-3.5014,15.8657-1.8439,31.7352-3.656,47.5927-5.5676,3.9623-.4777,7.9016-1.1976,11.8222-1.9573,4.7931-.9287,8.1186.3854,9.9141,5.2858,5.5098,15.0381,11.1539,30.0273,16.8068,45.0125,1.2804,3.3943.4036,4.8894-3.3376,4.751-3.8084-.1409-7.6261-.0312-11.4397-.0312Z"/>
  <path class="cls-3" d="M119.8284,82.7714c0-3.0197-.073-5.0287.0146-7.0307.2113-4.8294,3.0883-6.7609,8.7939-6.0038,4.7391.6289,2.8626,3.9885,2.5013,6.453-2.2557,15.391-2.1598,31.0304-4.9922,46.3671-.5319,2.8793-.9453,4.5925-4.4941,4.971-14.5025,1.5467-28.9635,3.4837-43.4385,5.2878-9.7388,1.2138-19.4961,2.165-29.3272,1.8321-6.2328-.2111-12.2941,1.0006-18.41,1.8847-1.9561.2828-5.2458,2.6396-5.6972-1.3773-.3826-3.4046-.4803-7.6824,4.2536-8.7152,2.4922-.5437,5.2328-.464,7.7883-.1214,22.6255,3.0337,45.0523-2.7322,67.679-1.4071,8.6406.506,12.2349-4.1241,12.0661-12.7977-.2-10.2756,4.1915-20.0252,3.2623-29.3427Z"/>
  <path class="cls-3" d="M104.5205,18.1049c1.1295,15.1949,4.8598,29.5856,10.8006,43.4301.5456,1.2715,1.3984,2.6809.3543,3.9715-4.0772,5.0398-3.3084,10.9961-3.0665,16.738.2898,6.8778-1.2718,13.3993-3.1486,21.2512-3.9328-10.7166-7.4887-20.382-11.0183-30.0571-.4109-1.1265-.4237-2.4692-1.0479-3.436-5.8388-9.0426-4.161-18.0098-.4808-27.331,3.127-7.9199,2.5365-16.9898,7.6072-24.5667Z"/>
  <path class="cls-3" d="M129.9911,60.3188c.5286,1.662-.4308,2.1701-1.8247,2.1985-2.2126.045-4.0647.0817-5.2424-2.72-4.2106-10.0161-7.7788-20.1744-9.2046-31.0037-.7295-5.5417-1.6653-11.0578-2.3052-16.6089-.1652-1.4338-2.436-3.6644.7103-4.3575,2.2217-.4894,3.6673,1.127,4.6971,3.0262,3.5413,6.5308,6.4395,13.2218,7.5771,20.7044,1.4672,9.6511,2.8976,19.3365,5.5925,28.761Z"/>
  <path class="cls-3" d="M17.7825,127.7965c-6.3507-16.2924-11.427-31.9775-9.768-48.9636.5696-.1478,1.1393-.2955,1.709-.4433.5476,1.7483,1.3351,3.4605,1.6044,5.2507,1.8717,12.4412,4.4042,24.7254,8.9972,36.4731,1.2428,3.1788-.889,4.7223-2.5425,7.6831Z"/>
  <path class="cls-3" d="M159.7302,78.8514c7.1644,10.648,8.4204,23.4153,13.6858,34.632.7921,1.6872,1.1781,3.6235-.7417,4.8412-1.8011,1.1424-2.7261-.4802-3.0476-1.7461-2.7855-10.9682-9.1731-20.4343-12.8418-31.0502-1.366-3.9527.049-5.4527,2.9454-6.6769Z"/>
  <path class="cls-3" d="M189.2133,61.7886c.2772-2.9987.3954-5.6417,4.529-5.6185,5.3106.0298,6.0087,3.8007,6.61,7.5192.5416,3.3479-1.4688,5.4316-4.6817,5.6145-5.2976.3015-5.5672-4.0484-6.4573-7.5152Z"/>
  <path class="cls-3" d="M177.2086,35.4192c-.707,1.5176.4235,5.2487-3.0978,4.8149-3.9816-.4905-7.9104-2.1937-7.6201-7.4648.1329-2.4145-.6077-5.9996,3.3917-5.6101,4.3175.4203,7.4052,2.8257,7.3263,8.26Z"/>
  <path class="cls-3" d="M191.2294,118.5809c-.5597,1.9106.1666,4.6767-2.8799,5.1299-2.71.4031-7.1548-5.1944-7.0579-8.58.0726-2.5353,1.3808-3.6274,3.8088-3.4135,4.1202.363,5.8118,2.9609,6.129,6.8637Z"/>
  <path class="cls-3" d="M147.2278,68.1713c1.9946.5478,4.8213-1.3294,6.1995,1.5439.6678,1.3923.4638,3.2679-.6518,4.5259-1.8802,2.12-5.1754,2.0515-6.4899.7493-2.0936-2.074-7.1593,1.7695-6.7787-3.3287.365-4.8869,4.9609-2.4034,7.721-3.4905Z"/>
  <path class="cls-3" d="M181.9417,58.7296c-6.0113,2.8605-12.0178,5.7312-18.0378,8.5735-1.3113.6192-2.6289,1.1111-3.3862-.8316-.6024-1.5452-.4692-2.707,1.3148-3.2416,6.5288-1.9566,13.0578-3.9126,19.5868-5.8687l.5225,1.3685Z"/>
  <path class="cls-3" d="M151.1338,47.8822c-.294,3.362-.498,5.6957-.7439,8.5084-2.5487-.6085-3.7644-2.1626-3.8177-4.1156-.0635-2.3247,1.9415-3.1767,4.5616-4.3928Z"/>
  <path class="cls-3" d="M155.5278,101.3248c-4.1977-.9636-4.5046-3.1228-2.2767-6.9369,1.2021,2.5929,2.9746,4.2304,2.2767,6.9369Z"/>
</svg>