<?xml version="1.0" encoding="UTF-8"?>
<svg id="Layer_1" xmlns="http://www.w3.org/2000/svg" viewBox="0 0 257.9404 147.5878">
  <defs>
    <style>
      .cls-1 {
        fill: #e0dcde;
      }

      .cls-2 {
        fill: #131211;
      }

      .cls-3 {
        fill: #7e9e8d;
      }

      .cls-4 {
        fill: #161314;
      }

      .cls-5 {
        fill: #dfb3c0;
      }

      .cls-6 {
        fill: #e7e5e6;
      }

      .cls-7 {
        fill: #e6eebd;
      }

      .cls-8 {
        fill: #d4d2d5;
      }
    </style>
  </defs>
  <path class="cls-2" d="M234.5774,86.2476c5.2733-.3681,10.5435-.7962,15.8216-1.0736,1.9845-.1043,4.4889-.1164,4.5677,2.5788.0748,2.5611-2.2394,2.7066-4.3195,3.0065-20.1494,2.9051-40.2304,6.2107-60.0702,10.8293-1.29.3003-3.5584-.1501-3.4014,1.9941.1658,2.265,2.3687,2.0158,3.9543,1.9087,12.9094-.8726,25.8271-1.4646,38.7682-1.5745,4.7957-.0407,9.5647.1061,14.3204.7669,2.7523.3824,5.0999-1.2401,7.6541-1.6991,1.8013-.3237,4.2527-2.6979,5.6455.2353,1.3854,2.9177-.8895,4.4375-3.1911,5.6269-4.3641,1.0694-8.7283,2.1388-13.0924,3.2081-3.6674-.3222-7.2609.0061-10.7539,1.22-2.5623-.3374-4.844.5053-7.0478,1.6752.0264.3287.0528.6575.0793.9862l-.0627-.0618c-.5113-.988-1.3249-.7144-2.1364-.531-7.6139,1.7206-15.1519,4.0372-22.8603,5.0275-17.6088,2.2622-32.9107-1.4252-33.8841-24.733-.0893-2.1371-.8165-2.533-2.7339-2.1633-5.8831,1.1344-11.8736.8927-18.3194.9794,2.7285,6.8607-1.0415,11.4883-5.0418,15.7182-12.6925,13.4208-25.8012,26.3841-42.7462,34.5698-.6067.3322-1.2134.6645-1.8201.9967-.5869.2741-1.1738.5483-1.7606.8224-8.1271,2.3189-10.4312,1.0409-13.1181-7.2777-1.1963-3.7036-1.3762-7.8926-4.9885-10.4419-.1422-.6241-.2845-1.2482-.4267-1.8723-.0117-.7333-.0234-1.4665-.0351-2.1998.4457-7.5323-2.344-14.721-2.3606-22.2019-.0041-1.8381-.9772-2.123-2.5809-2.0096-6.1129.4325-12.2327.77-18.3511,1.1216-5.1481.2959-9.8696.9539-9.5293,7.9668.0665,1.3712-.9126,2.793-1.4095,4.1914-2.2637,3.1618-5.7336,4.6383-8.9796,6.4275-2.5273.4859-5.0547.9718-7.582,1.4577-5.5876.0743-9.3622-2.6153-12.9534-6.8894-5.8273-6.9355-8.0827-15.0485-9.8318-23.5211.5067-1.1162.5724-2.2442.0902-3.3868.7375-5.0436,4.2955-7.4588,8.4959-9.4983,12.3708-6.0064,18.5417-4.9717,27.4387,5.0764,1.1351,1.282,2.2292,1.1172,3.5286.9645,9.8558-1.1583,19.7055-2.3724,29.5708-3.4429,2.6392-.2863,3.958-1.2983,3.4217-4.0684,1.1154-6.81,3.208-13.1921,8.0438-18.3724.7862-.2262,1.3773-.6303,1.4096-1.5447.3359-.3621.6719-.7241,1.0076-1.0863,3.3981-3.0623,7.2164-5.3941,11.6311-6.6889.8466-.5345,1.6932-1.069,2.5399-1.6035,2.8515-.7575,5.0153.255,7.1365,2.2333,3.9375,3.6725,6.8606,8.2148,10.8007,12.706,2.2788-6.9521,7.4495-11.5721,9.9135-17.6834,2.6009-6.4507,6.5141-12.4258,7.4212-19.5226l.0033-.1093c2.0511-.3066,1.7823-2.0772,2.1671-3.4353,1.0053-.8201,1.4999-1.9075,1.6587-3.1707,2.805-4.6755,4.4138-10.0101,7.8854-14.3183.594-.3094,1.188-.6187,1.782-.9281,1.1878-.6022,2.3757-1.2045,3.5636-1.8067.9372-.2861,1.8744-.5721,2.8116-.8582l2.0267-.768c2.4641.4638,4.9282.9277,7.3923,1.3915.5171,1.1137,1.3798,1.8569,2.4956,2.3288,2.0451,3.4525,4.0902,6.905,6.1353,10.3575.6873,5.3511-3.0684,8.6587-5.7321,12.4686-6.5528,5.0617-12.368,10.7868-16.3411,18.1692-6.9184,8.4262-14.0431,16.7269-16.8194,27.6716-1.1829,1.2122-2.5329,2.3385-2.4506,4.4951,4.401-.7501,8.6744.0844,12.7983-1.1029,5.7506.1123,11.2747-2.1193,17.0602-1.6465,1.9396.8384,3.2141.487,3.2571-1.8924.0675-3.7404.7922-7.4715.1656-11.222.1934-1.8094.3868-3.6187.5802-5.4281,2.022-4.3047,4.0696-8.6277,9.2974-9.8503,1.6032-.3749,3.1945-.6152,4.4231-1.8264,0,0-.0365.0071-.0365.0071,1.5016,1.5902,3.2409,1.1529,4.9954.5866,7.0596.406,14.1192.812,21.1787,1.2179,3.8534,1.0342,7.7314.9718,11.6239.2622,3.1314-.14,6.2625-.2894,9.3945-.4172,2.561-.1045,5.1686-1.0107,7.2356,1.7532,1.146,1.5325,3.1137.0704,4.7078.0532,2.6778-.029,4.9206.1824,3.5025,3.8307-15.7221,4.3476-31.5885,7.8259-48.0114,7.9291-3.5148.0221-6.9735.4086-10.2781,1.6621-2.1133.8016-2.4713,2.6641-2.1336,4.5346.3497,1.9372,1.9551,1.3158,3.2229,1.0929,15.3278-2.6939,30.8517-.6006,46.2401-1.8694,1.7712-.1461,3.7578-.4594,5.2309.9865,1.8621,1.8277,3.872,1.4624,5.9758.6677,2.5235.8684,7.0721-.8945,6.966,3.3732-.0887,3.5686-4.2085,1.83-6.5312,2.4618-1.0978.2986-2.2271.4816-3.3421.717-1.7607.2588-3.5214.5176-5.2821.7763-1.5814-.5064-2.6296.9344-4.0264,1.1021-.8411-.2932-1.4691.0934-2.0464.6415-13.9247,2.1881-27.8502,4.3714-41.7727,6.5739-1.0719.1695-2.5656-.0885-2.6058,1.609-.0378,1.5958.6605,3.056,2.2088,3.5484,1.215.3864,2.6214.3049,3.9318.2324,5.1379-.284,10.271-.91,15.4066-.9179,7.4523-.0114,14.959-1.7121,22.3035-.2244,3.1469.6374,5.9615,1.5455,9.0247.2322.2946-.0297.5892-.0594.8838-.089ZM213.7586,71.0044c-1.8615-.0943-3.723-.1886-5.5845-.2829-9.3053.0349-18.5984.0036-27.8134,1.775-3.5977.6916-5.9628-1.1827-6.9132-4.8487-1.7588-6.7845,1.2706-12.0352,8.4679-12.9603,8.4226-1.0826,16.9496-1.3527,25.4314-1.9753-10.6216-1.6968-21.2313-2.7557-31.9005-1.761-3.7415.3488-6.2124,2.8371-6.6248,6.4668-.6553,5.7691-1.6323,11.7254-.8266,17.3677.6706,4.6964-1.2569,5.1593-4.5438,5.3812-3.9768.2685-7.9605.4735-11.9446.588-4.2467.1221-2.6337,3.3349-2.9309,5.4706-.3978,2.8594,1.7647,2.2449,3.2925,2.12,4.3077-.3523,8.6081-.8026,12.9051-1.272,5.1929-.5673,5.8968.1163,5.0977,5.124-1.1899,7.4567,3.0185,18.2454,8.3491,20.4835,11.4408,4.8034,22.5568,1.6498,34.1642-1.4483-2.0438-1.5153-3.721-.868-5.3231-.809-5.9837.2204-11.9664.6822-17.9484.6642-4.6425-.014-7.5781-3.0272-7.9009-7.3826-.3529-4.7602,1.9556-6.9247,6.6394-7.3471,4.5544-.4108,8.9252-1.7673,13.5328-3.395-1.2415-1.1843-2.0417-.7433-2.8489-.7282-5.6265.105-11.2323,1.5788-16.8769.3473-4.9785-1.0861-6.4563-4.6911-6.592-9.2686-.1095-3.6951,1.5915-6.4979,5.1622-6.8015,9.7832-.8319,19.2623-3.7587,29.1111-3.988,1.7268.4535,2.9887-.6518,4.384-1.3063.4139.0302.8278.0674,1.242.0723.023.0003.0492-.2665.0738-.4089-.4269.0411-.8538.0822-1.2808.1233ZM11.4099,104.3786c.2959.7351.5918,1.4701.8878,2.2052.2205.3911.441.7821.6614,1.1731,3.3046,4.6779,7.0695,8.3326,13.4947,6.0719,5.9816-1.2929,8.5579-5.215,8.3059-11.097-.1543-3.6013,1.607-4.7901,4.9365-5.3127,8.1585-1.2805,16.3124-2.2716,24.5891-2.3506,2.221-.0212,4.9236.6649,6.5526-1.858l.2789.0488c1.959,1.6967,3.8983.4333,5.8429-.0378,1.5249.2488,2.9463-.1266,4.3319-.7178,4.1173-.453,8.2959-1.5964,12.341-1.2365,15.5288,1.3815,30.7341-1.407,46.0673-2.7089,3.5676-.3029,2.8594-2.233,3.1586-4.2323.4518-3.0189-1.528-2.6487-3.4101-2.6313-5.1423.0474-10.3476,1.7063-15.2479,1.3521-16.4433-1.1885-32.286,2.9623-48.4286,4.2189-1.7589.1127-3.5178.2254-5.2768.3382-9.6958,1.1027-19.4665,1.7827-29.057,3.4801-5.0666.8967-8.0791-.3-10.7423-4.4588-2.8895-4.5121-7.1565-6.0657-12.3959-4.2343-11.7124,3.1755-12.7401,5.0677-9.1992,16.5953.582,1.8949.8916,3.8701,2.3093,5.3922ZM99.2864,134.7939c5.5521-3.5003,12.7691-5.2265,14.227-13.2634.2613-1.4404,1.9564-2.6229,2.9963-3.919,2.2885-2.8524,4.7228-5.6011,6.8336-8.5793,2.2032-3.1085-1.2589-11.5108-5.012-11.8531-3.438-.3135-7.0898-.3336-10.38.5324-2.0711.5451-2.5822,3.6487-3.8177,5.5901-1.4339,2.2531-3.1594,4.9959-6.2136,3.4338-2.7645-1.4141-2.0935-4.2988-.7701-6.6044,1.8434-3.2116.3702-3.7063-2.467-3.3887-1.4876.1665-2.9847.3666-4.4763.3574-3.6992-.0231-5.4665,1.3798-5.0512,5.4158.4277,4.156-.4855,8.2569-1.4103,12.3312-1.6161,7.1194-1.4675,14.2168.9759,21.1533,2.0071,5.6975,2.0748,5.6878,7.5912,2.6978,2.342-1.2695,4.6505-2.6006,6.9743-3.9038ZM114.4534,75.7801c6.5264,1.4969,11.395-2.605,10.4756-8.0197-.3488-2.0542.1366-3.67,1.3145-5.0781,11.4582-13.6962,19.626-30.1282,34.2227-41.2214.6441-.4894,1.0879-1.2424,1.6253-1.8723,1.8042-2.1145,2.2658-4.2753.6536-6.8035-1.8583-2.9141-3.0883-6.9115-7.1666-6.8565-4.756.0642-8.3676,2.8272-10.2946,7.278-7.823,18.0679-15.222,36.3246-24.9437,53.5169-1.6769,2.9654-2.5505,6.3847-5.887,9.0566ZM94.1544,64.1535c-1.5526,4.5503-2.8031,8.3244-4.1321,12.0706-.8309,2.342-.0499,3.0344,2.2826,2.5698,4.6093-.9182,9.233-1.7631,14.2895-2.7215-3.3741-4.9344-8.0327-7.6058-12.44-11.9189ZM88.4849,59.2919c-5.6681,4.4653-9.3457,10.0806-9.7983,17.4328-.0761,1.2355-1.4543,3.1569,1.1802,3.4461,1.6722.1835,3.1061-.5451,3.2463-2.3238.5153-6.5363,3.8184-12.2117,5.3718-18.555ZM111.2551,70.4899c1.0779-1.1564.1885-2.1804-.4855-3.0073-2.79-3.423-5.5949-6.8431-8.5876-10.0858-.8456-.9162-1.7824-3.6837-3.6527-1.2306-1.1507,1.5092-2.8148,3.2861.1895,5.2669,3.5689,2.3531,6.721,5.3453,10.0068,8.1162.7521.6342,1.2734,1.5931,2.5294.9406ZM132.7398,100.6636c1.5519-1.3798,4.4317-2.0146,3.8155-5.0362-.2869-1.4068-8.2151-1.2161-10.4214.0761-.9587.5615-1.2012,1.6293-.4822,1.8912,2.4234.8825,2.4837,7.1253,7.0882,3.0689ZM78.1127,111.3138c1.6944-3.4642,1.1852-6.6839,1.6145-9.7577.1466-1.0501.6888-2.6076-1.0069-2.6695-1.4693-.0536-2.3786,1.2367-2.2797,2.7231.2058,3.089.0472,6.2585,1.6721,9.7041ZM214.3435,110.3379c-.34.0568-.6477.0757-.9267.1752-.0819.0292-.082.2875-.1195.4408.2644.0266.5666.1412.7802.0495.148-.0635.1737-.4116.2661-.6655Z"/>
  <path class="cls-5" d="M99.2864,134.7939c-2.3237,1.3031-4.6323,2.6343-6.9743,3.9038-5.5164,2.9901-5.5841,2.9998-7.5912-2.6978-2.4434-6.9365-2.592-14.0339-.9759-21.1533.9248-4.0743,1.838-8.1752,1.4103-12.3312-.4153-4.0359,1.3519-5.4389,5.0512-5.4158,1.4916.0093,2.9887-.1908,4.4763-.3574,2.8372-.3176,4.3105.1771,2.467,3.3887-1.3234,2.3056-1.9945,5.1903.7701,6.6044,3.0542,1.5621,4.7797-1.1807,6.2136-3.4338,1.2356-1.9414,1.7467-5.045,3.8177-5.5901,3.2902-.866,6.942-.8459,10.38-.5324,3.7531.3423,7.2152,8.7446,5.012,11.8531-2.1108,2.9782-4.5451,5.7269-6.8336,8.5793-1.0399,1.2961-2.7349,2.4786-2.9963,3.919-1.4579,8.0369-8.6749,9.7631-14.227,13.2634Z"/>
  <path class="cls-3" d="M209.3395,72.524c-9.8488.2293-19.3278,3.1562-29.1111,3.988-3.5707.3036-5.2717,3.1064-5.1622,6.8015.1357,4.5775,1.6135,8.1824,6.592,9.2686,5.6446,1.2315,11.2505-.2423,16.8769-.3473.8072-.0151,1.6073-.4561,2.8489.7282-4.6076,1.6277-8.9784,2.9843-13.5328,3.395-4.6838.4224-6.9923,2.5869-6.6394,7.3471.3228,4.3554,3.2585,7.3687,7.9009,7.3826,5.982.018,11.9647-.4438,17.9484-.6642,1.602-.059,3.2792-.7063,5.3231.809-11.6074,3.0981-22.7234,6.2517-34.1642,1.4483-5.3306-2.238-9.539-13.0267-8.3491-20.4835.7991-5.0077.0952-5.6913-5.0977-5.124-4.297.4694-8.5974.9197-12.9051,1.272-1.5277.1249-3.6903.7394-3.2925-2.12.2971-2.1357-1.3158-5.3485,2.9309-5.4706,3.9841-.1145,7.9678-.3194,11.9446-.588,3.2869-.222,5.2144-.6848,4.5438-5.3812-.8056-5.6423.1713-11.5986.8266-17.3677.4123-3.6297,2.8833-6.118,6.6248-6.4668,10.6692-.9947,21.2789.0642,31.9005,1.761-8.4818.6226-17.0088.8928-25.4314,1.9753-7.1973.9251-10.2268,6.1758-8.4679,12.9603.9504,3.666,3.3155,5.5403,6.9132,4.8487,9.215-1.7714,18.5081-1.7402,27.8131-1.7748.3884.6009.777,1.2016,1.1657,1.8023Z"/>
  <path class="cls-6" d="M18.2998,82.3911c5.2394-1.8314,9.5063-.2778,12.3959,4.2343,2.6633,4.1588,5.6757,5.3555,10.7423,4.4588,9.5905-1.6974,19.3612-2.3774,29.057-3.4801,2.0332,4.1572,3.6816,2.3237,5.2768-.3382,16.1425-1.2566,31.9853-5.4074,48.4286-4.2189,4.9003.3542,10.1057-1.3047,15.2479-1.3521,1.882-.0174,3.8619-.3876,3.4101,2.6313-.2992,1.9994.409,3.9295-3.1586,4.2323-15.3332,1.3019-30.5384,4.0903-46.0673,2.7089-4.0451-.3598-8.2237.7836-12.341,1.2365-.769-.9095-.8658-2.8164-2.541-2.3899-1.3139.3345-1.7974,1.7142-1.791,3.1077-1.9446.4711-3.884,1.7346-5.8436.0352.0667-.2621.1342-.5214.2016-.7808-.7903-.167-.3281.4844-.4798.7347-1.629,2.5229-4.3316,1.8368-6.5526,1.858-8.2767.079-16.4306,1.0701-24.5891,2.3506-3.3295.5226-5.0908,1.7114-4.9365,5.3127.252,5.882-2.3243,9.8041-8.3059,11.097.4223-2.302-2.0388-2.3117-2.8733-3.6145,6.0822-3.0155,7.5618-6.2147,6.0935-13.1747-1.2347-5.8527-5.2235-9.2213-11.3311-9.5691,1.1225-1.7026-2.007-3.3698-.0431-5.0794Z"/>
  <path class="cls-3" d="M114.4534,75.7801c3.3365-2.6718,4.2102-6.0911,5.887-9.0566,9.7217-17.1923,17.1207-35.449,24.9437-53.5169,1.9271-4.4508,5.5386-7.2138,10.2946-7.278,4.0783-.0551,5.3083,3.9424,7.1666,6.8565,1.6122,2.5282,1.1506,4.689-.6536,6.8035-.5375.6299-.9813,1.3828-1.6253,1.8723-14.5967,11.0932-22.7645,27.5251-34.2227,41.2214-1.178,1.4081-1.6633,3.024-1.3145,5.0781.9194,5.4148-3.9492,9.5167-10.4756,8.0197Z"/>
  <path class="cls-4" d="M18.3428,87.4705c6.1076.3478,10.0964,3.7164,11.3311,9.5691,1.4682,6.9601-.0114,10.1592-6.0935,13.1747-2.9136-.284-5.7271-.716-7.9638-2.9651-.8321-.8367-2.2206-1.9551-2.6575.5078-.2205-.3911-.4409-.7821-.662-1.174,2.1601-.3601,2.1648-.3892.4849-2.9743-2.672-9.4619-1.449-13.011,5.5609-16.1382ZM23.6092,97.3796c-1.2792-1.7779-2.2849-4.0349-4.3924-2.7113-2.7409,1.7214-.8518,4.1676.0297,6.1411.5554,1.2434,1.6695,3.0436,3.3507,1.9023,2.0366-1.3825,2.1267-3.5483,1.0121-5.3321Z"/>
  <path class="cls-5" d="M94.1544,64.1535c4.4073,4.3131,9.0659,6.9845,12.44,11.9189-5.0565.9584-9.6803,1.8033-14.2895,2.7215-2.3325.4646-3.1135-.2278-2.2826-2.5698,1.329-3.7462,2.5796-7.5203,4.1321-12.0706Z"/>
  <path class="cls-8" d="M18.3428,87.4705c-7.0099,3.1271-8.2328,6.6763-5.5609,16.1382-.4573.2567-.9147.5133-1.3721.77-1.4177-1.5222-1.7273-3.4973-2.3093-5.3922-3.5409-11.5276-2.5132-13.4199,9.1992-16.5953-1.964,1.7096,1.1655,3.3768.0431,5.0794Z"/>
  <path class="cls-8" d="M88.4849,59.2919c-1.5534,6.3433-4.8564,12.0187-5.3718,18.555-.1402,1.7787-1.5741,2.5073-3.2463,2.3238-2.6344-.2891-1.2562-2.2106-1.1802-3.4461.4526-7.3522,4.1301-12.9674,9.7983-17.4328Z"/>
  <path class="cls-7" d="M111.2551,70.4899c-1.2559.6525-1.7773-.3063-2.5294-.9406-3.2858-2.7709-6.4379-5.7631-10.0068-8.1162-3.0044-1.9809-1.3402-3.7577-.1895-5.2669,1.8702-2.453,2.8071.3144,3.6527,1.2306,2.9927,3.2427,5.7976,6.6628,8.5876,10.0858.674.827,1.5634,1.851.4855,3.0073Z"/>
  <path class="cls-7" d="M132.7398,100.6636c-4.6045,4.0565-4.6648-2.1863-7.0882-3.0689-.719-.2618-.4765-1.3297.4822-1.8912,2.2063-1.2922,10.1346-1.4829,10.4214-.0761.6163,3.0215-2.2636,3.6564-3.8155,5.0362Z"/>
  <path class="cls-1" d="M12.9591,107.7569c.4369-2.4629,1.8254-1.3445,2.6575-.5078,2.2367,2.2491,5.0503,2.6811,7.9638,2.9651.8345,1.3028,3.2956,1.3125,2.8733,3.6145-6.4252,2.2608-10.19-1.3939-13.4947-6.0719Z"/>
  <path class="cls-5" d="M78.1127,111.3138c-1.6249-3.4456-1.4662-6.6151-1.6721-9.7041-.099-1.4863.8103-2.7766,2.2797-2.7231,1.6956.0618,1.1535,1.6194,1.0069,2.6695-.4292,3.0738.0799,6.2935-1.6145,9.7577Z"/>
  <path class="cls-1" d="M76.9595,93.2216c-.0064-1.3935.4771-2.7731,1.791-3.1077,1.6751-.4265,1.772,1.4804,2.541,2.3899-1.3856.5911-2.807.9665-4.3319.7177Z"/>
  <path class="cls-1" d="M75.7717,87.2659c-1.5952,2.6619-3.2436,4.4953-5.2768.3382,1.7589-.1127,3.5179-.2254,5.2768-.3382Z"/>
  <path class="cls-4" d="M209.3395,72.524c-.3887-.6007-.7774-1.2014-1.1657-1.8023,1.8618.0941,3.7233.1884,5.5848.2827l-.0344.2122c-1.396.6556-2.6579,1.7609-4.3848,1.3074Z"/>
  <path class="cls-1" d="M11.4099,104.3786c.4573-.2567.9147-.5133,1.3721-.77,1.6799,2.5851,1.6752,2.6142-.4849,2.9743-.2953-.7342-.5913-1.4693-.8872-2.2043Z"/>
  <path class="cls-4" d="M213.7586,71.0045c.4269-.0411.8538-.0822,1.2807-.1233-.0247.1424-.0508.4092-.0739.4089-.4142-.0049-.8281-.0421-1.2416-.0729.0004-.0006.0347-.2128.0347-.2127Z"/>
  <path class="cls-1" d="M70.8377,93.2107c.1517-.2503-.3105-.9016.4798-.7347-.0674.2594-.1349.5188-.2016.7808.0007.0026-.2782-.0462-.2782-.0462Z"/>
  <path class="cls-6" d="M156.9193,72.0543c-.1453-.0003-.2906-.0006-.436-.001.1451.0013.2902.0027.4352.004l.0007-.0031Z"/>
</svg>