<?xml version="1.0" encoding="UTF-8"?>
<svg id="Layer_1" xmlns="http://www.w3.org/2000/svg" viewBox="0 0 218.115 121.8755">
  <defs>
    <style>
      .cls-1 {
        fill: #1d1512;
      }

      .cls-2 {
        fill: #d45242;
      }

      .cls-3 {
        fill: #ebf0bd;
      }
    </style>
  </defs>
  <path class="cls-1" d="M164.3398,28.4324c3.0182.3531,6.0365.7061,9.0545,1.0592.5615.0289,1.1231.0579,1.6848.0869,2.6925.8284,5.5827,1.2812,8.0318,2.5715,3.8448,2.0256,8.0114,4.0382,10.8935,7.1275,2.9642,3.1773,5.8126,5.452,10.1081,6.431,2.9857.6806,5.8324,2.3432,8.5011,3.9628,5.0299,3.0524,6.3009,6.7166,5.0576,13.2256-2.5076,1.8727-5.0339,3.7212-7.5147,5.6288-1.1633.8945-2.2389,1.9031-3.3542,2.86-16.5106,7.6152-34.1703,9.5354-52.0227,10.5344-1.4672.0821-2.9174.468-4.3755.7127-4.5557.3277-9.1114.6553-13.6672.983-9.0955,1.0874-18.3661,1.4138-27.2417,3.4562-10.9191,2.5126-21.5231,6.4116-32.2259,9.8287-1.6707.5334-3.1425,1.6901-4.7062,2.5586-7.2119,5.2415-14.8047,10.0398-21.5442,15.8311-9.5007,8.1642-20.2027,7.0622-31.134,5.4437-5.1774-.7665-7.6636-4.2182-8.0582-9.3285-1.4338-18.5679-2.5647-37.1671-4.4587-55.6881-1.0098-9.8749-3.4592-19.5961-5.0486-29.4207C1.3412,20.2496.7597,14.1383,0,8.0559c.3941-1.5145.7881-3.0289,1.1822-4.5434C3.6491,2.3796,6.0229.68,8.6062.2555c3.3046-.543,6.7782-.0583,10.1789-.0165,3.0182,1.4329,6.0365,2.8659,9.0547,4.2988.5234.5047,1.0468,1.0095,1.5702,1.5142,7.232,7.1658,14.4574,14.3384,21.7091,21.4843.5675.5593,1.2663,1.2074,1.9942,1.348,9.3873,1.8139,18.7909,3.5432,28.1904,5.2938,1.6416.9093,3.3995,2.7634,4.9062,2.5778,11.6751-1.4375,23.3016-3.269,34.9432-4.9785,11.3423-1.0318,22.6875-2.0337,34.0234-3.1312,1.515-.1467,2.9831-.7772,4.473-1.1836,1.5635.3232,3.1269.6465,4.6904.9697ZM24.7786,9.1427c-4.734-4.5222-10.5643-5.1593-16.5562-4.0707-1.3242.2406-3.3476,2.9049-3.1665,4.1873,1.7905,12.679,3.9778,25.3019,6.0528,37.9406,1.0337.8435,1.9442,2.1401,3.1204,2.4601,11.1677,3.0377,22.3642,1.5895,33.4935-.2846,2.551-.4296,4.9805-1.8185,7.3536-2.993,1.9665-.9734,2.1879-1.9508.6888-4.1953-8.5183-12.7537-20.0927-22.566-30.9863-33.0444ZM13.2992,74.2568c9.3926-.4897,18.2347-1.8958,26.9091-1.2028,17.1674,1.3714,34.2501,3.8389,51.3505,5.9905,5.7519.7237,11.469,2.7197,17.1705,2.6024,7.561-.1556,15.0754-1.9537,22.6376-2.7973,17.8151-1.9874,35.6458-3.8351,53.4718-5.7239,9.3008-.9855,17.2779-5.4844,25.2206-9.8419,3.2933-1.8067,3.958-5.8967.7264-7.8674-4.7244-2.8811-10.1625-4.7782-15.5199-6.3162-1.521-.4367-3.7706,1.94-5.7717,2.8353-3.0183,1.3504-6.012,2.9402-9.19,3.7186-17.3277,4.2441-34.9107,6.568-52.7862,6.5702-6.9786.0008-13.9563.371-20.9359.4569-3.6502.0449-7.3396.1252-10.9458-.3299-4.1484-.5236-6.2264-4.7791-6.1316-10.5307.0608-3.6884,2.8278-3.4481,4.8645-3.5626,12.7238-.7154,25.4823-.9039,38.1875-1.8368,12.7184-.9339,25.4133-2.3372,38.0633-3.9639,3.7115-.4773,7.235-2.4173,10.8446-3.687-.0697-.6774-.1394-1.3548-.2091-2.0322-6.2907-.9108-12.6352-2.8515-18.8615-2.5265-14.7422.7697-29.4345,2.5531-44.1347,4.0477-9.8811,1.0046-19.7252,2.3949-29.6156,3.2805-8.5704.7675-17.1826,1.0677-26.0064,1.588-1.1627,8.2479-7.7746,10.1332-14.0493,11.5029-11.7177,2.5579-23.625,3.0887-36.4317.2823.3919,6.6349.7486,12.6727,1.1427,19.3439ZM13.3657,79.1958c1.0961,10.6342,2.0321,21.674,3.5648,32.6303.2514,1.7971,3.0517,4.5089,4.8054,4.6145,10.0414.6047,20.3846,1.6938,28.2903-6.9019,1.3326-1.4489,3.2525-2.3435,4.6733-3.7279,9.9197-9.6652,21.8491-15.4104,35.2485-18.4152,1.6334-.3663,3.144-1.2802,4.7115-1.9403-27.1751-3.1635-53.6849-11.8884-81.2938-6.2596ZM190.9054,45.0322c.1017-.5883.2034-1.1767.3051-1.765-1.7357-.4456-3.9336-1.8062-5.1372-1.1983-15.8456,8.0038-33.3244,7.0271-50.1602,8.8197-13.7206,1.4609-27.6946.5413-41.5376.6771-.5813,4.6129.75,6.199,4.5637,6.0701,21.3546-.7221,42.7726.4134,63.9943-3.5969,9.8025-1.8523,19.5908-3.1254,27.972-9.0068Z"/>
  <path class="cls-2" d="M13.2992,74.2568c-.3941-6.6711-.7507-12.709-1.1427-19.3439,12.8067,2.8064,24.7139,2.2756,36.4317-.2823,6.2747-1.3697,12.8865-3.2549,14.0493-11.5029,8.8238-.5203,17.436-.8205,26.0064-1.588,9.8904-.8856,19.7345-2.2759,29.6156-3.2805,14.7002-1.4946,29.3925-3.278,44.1347-4.0477,6.2262-.325,12.5707,1.6156,18.8615,2.5265.0697.6774.1394,1.3548.2091,2.0322-3.6096,1.2696-7.1331,3.2097-10.8446,3.687-12.65,1.6267-25.3449,3.03-38.0633,3.9639-12.7052.9329-25.4637,1.1214-38.1875,1.8368-2.0367.1145-4.8037-.1257-4.8645,3.5626-.0948,5.7516,1.9831,10.0071,6.1316,10.5307,3.6062.4552,7.2956.3749,10.9458.3299,6.9796-.0859,13.9573-.4561,20.9359-.4569,17.8755-.0022,35.4585-2.3261,52.7862-6.5702,3.178-.7784,6.1716-2.3682,9.19-3.7186,2.001-.8953,4.2506-3.272,5.7717-2.8353,5.3574,1.5381,10.7955,3.4352,15.5199,6.3162,3.2315,1.9707,2.5668,6.0607-.7264,7.8674-7.9427,4.3575-15.9198,8.8564-25.2206,9.8419-17.826,1.8888-35.6567,3.7365-53.4718,5.7239-7.5622.8436-15.0766,2.6417-22.6376,2.7973-5.7015.1174-11.4186-1.8787-17.1705-2.6024-17.1004-2.1516-34.1832-4.6191-51.3505-5.9905-8.6744-.693-17.5165.7131-26.9091,1.2028Z"/>
  <path class="cls-3" d="M13.3657,79.1958c27.6089-5.6288,54.1187,3.096,81.2938,6.2596-1.5675.6601-3.0781,1.574-4.7115,1.9403-13.3994,3.0049-25.3288,8.75-35.2485,18.4152-1.4208,1.3844-3.3407,2.279-4.6733,3.7279-7.9057,8.5957-18.2489,7.5066-28.2903,6.9019-1.7537-.1056-4.554-2.8175-4.8054-4.6145-1.5328-10.9563-2.4688-21.9961-3.5648-32.6303ZM41.7923,86.8361c-6.3831-2.9163-13.9078,4.5649-14.5422,9.9864-.3498,2.9896-1.4373,4.3632-3.9417,5.5395-1.1017.5175-1.6743,2.1614-2.4871,3.2938,1.4276.504,2.8199,1.2059,4.2906,1.4684,2.6166.4672,5.458.185,7.8899,1.0767,5.9039,2.1649,16.5789-1.1347,17.9224-6.6364.8895-3.6427,2.3999-5.6788,5.6566-6.9165.733-.2785,1.5736-.8972,1.8659-1.5746.5136-1.1905.6423-2.5472.9322-3.8342-1.1534-.181-2.6333-.9113-3.4061-.452-4.3268,2.5717-8.1774,2.1317-11.8992-1.1057-.4659-.4053-1.2279-.4702-2.2813-.8454Z"/>
  <path class="cls-1" d="M41.7923,86.8361c1.0534.3753,1.8153.4402,2.2813.8454,3.7219,3.2374,7.5724,3.6774,11.8992,1.1057.7728-.4593,2.2527.271,3.4061.452-.2899,1.2871-.4186,2.6437-.9322,3.8342-.2922.6774-1.1329,1.296-1.8659,1.5746-3.2567,1.2378-4.7672,3.2739-5.6566,6.9165-1.3435,5.5018-12.0185,8.8013-17.9224,6.6364-2.4319-.8917-5.2732-.6096-7.8899-1.0767-1.4707-.2625-2.863-.9644-4.2906-1.4684.8128-1.1324,1.3854-2.7764,2.4871-3.2938,2.5044-1.1763,3.5919-2.5499,3.9417-5.5395.6344-5.4215,8.1591-12.9027,14.5422-9.9864ZM46.0695,95.6172c-1.5602-3.966-6.0461-6.1815-9.8604-5.0383-4.0666,1.2188-6.0575,5.3667-4.7943,10.8354,4.933-1.9514,9.7918-3.8735,14.6548-5.7972ZM47.6857,99.1205c-4.6983,1.7593-8.7343,3.2706-13.4734,5.0451,6.3099,1.5366,10.7879-.0977,13.4734-5.0451Z"/>
</svg>