<?xml version="1.0" encoding="UTF-8"?>
<svg id="Layer_1" xmlns="http://www.w3.org/2000/svg" viewBox="0 0 211.648843 366.896088">
  <defs>
    <style>
      .cls-1 {
        fill: #67525a;
      }

      .cls-2 {
        fill: #e9b5c4;
      }

      .cls-3 {
        fill: #80a290;
      }

      .cls-4 {
        fill: #171214;
      }
    </style>
  </defs>
  <path class="cls-4" d="M165.176228,27.977858l-.114729.264177s.217209.189231.217209.189218c.577317,5.036473,3.048966,9.139343,6.507904,12.658506,3.706745,3.771224,7.068006,7.731822,9.978929,12.207342,3.579927,5.5041,6.944318,11.267617,11.824369,15.81002,4.853878,4.518091,9.057586,9.562202,12.813439,15.002603.30161.992401.974283,1.71838,1.577126,2.545599,5.828701,7.998378,4.697865,14.019721-3.295424,19.988638-4.269977,3.188542-9.291038,4.886467-13.835319,7.52883-3.605291,2.096398-12.456514.408074-14.388136-2.283479-3.287329-4.580658-6.410875-9.27879-9.603225-13.927557-.342354-1.587583-1.426132-2.638492-2.617138-3.611759l-.200912-.345777c-.011495-.659178-.330266-1.069032-.981784-1.209012-.706941-.679364-.235935-3.171175-2.423026-1.573155l.022881-.107079c1.238981-1.738863-.45541-2.383869-1.255171-3.362489-2.049751-3.074182-4.099502-6.148351-6.278822-9.416936-1.302606,1.686274-.963059,3.345027-1.257815,4.846662-.11651.262161-.233075.524309-.349693.786456-.244731.903499-.489408,1.806999-.734085,2.710498-.27792,3.515927-2.157519,6.467901-3.372162,9.658278-3.295748,8.656855-2.054446,17.70826-2.203119,26.63677-.014463.594872-.028979,1.189743-.043442,1.784615-.172526,1.506597-1.545718,2.73984-1.00472,4.408868-1.177245,3.102634-3.29537,6.337414-2.282286,9.535382,1.390137,4.388197.224656,7.577359-2.614656,10.638637-2.156386.815811-1.377833,2.671219-1.25679,4.08886.342084,4.004826.915731,7.98987,1.398178,11.982722-.537275,5.333336-.511804,10.652256.408731,15.948281.055692.564937.111384,1.1299.167022,1.694837.104692,1.005306.088988,2.040924.33318,3.011116,1.858013,7.380745,3.830324,14.733093,5.646407,22.123897,3.635511,14.795309,4.86235,30.098867,9.433452,44.706071.636732,2.034667.976334,3.639969,3.732108,2.676518,1.276649-.446356,3.136551-.830765,3.490669,1.347213.288766,1.77585-1.168719,2.169132-2.517087,2.388063-2.419681.392904-2.618218,1.373857-2.075762,3.831796,1.957039,8.867844,4.736126,17.545101,5.863346,26.616098,1.21065,9.742541,3.619322,19.248352,6.861806,28.528706,1.114053,5.802574,3.374914,11.443338,2.476128,17.529917-2.401225,2.376062-3.864862,5.375824-5.50081,8.260944-2.453786,2.808421-4.907519,5.616842-7.361251,8.42529-9.505927,5.759694-20.603927,7.542206-30.555388,12.218575-4.6507,2.185448-9.807537,1.634697-14.781163,1.806594-16.302651.563534-32.598717.79541-48.800292-1.682674-2.76136-.422354-5.530841-.700885-8.2973.092691-.67181.192744-1.602732.44223-2.099048.142987-7.406636-4.465745-15.663706-3.110981-23.641803-3.463379-5.156081-.227749-10.244788-.874481-15.296501-1.791708-6.558334-1.190714-8.269347-3.517397-8.077744-10.279646.10364-3.656743,1.435711-7.237435.666305-10.945607.014625-4.413695.029249-8.827364.043927-13.241059.587705-7.149652,1.175411-14.299304,1.763089-21.448956.784785-8.19026,3.198125-16.191928,2.841767-24.51436,1.662202-7.641126,2.157465-15.443093,3.278668-23.147461.561316-3.856957,1.521488-7.764076,2.070878-11.667176.965298-6.858149,3.445716-13.308723,4.959919-20.011129.126008-1.165768.252043-2.331537.378051-3.497305.609723-.800776.702084-1.705678.536439-2.662521.084455-.584165.16891-1.168303.253365-1.752469-.286932-2.546638,1.48239-4.509515,1.919668-6.893235,2.825065-15.400591,5.819931-30.769979,8.701498-46.160389.254661-1.360023.381397-2.474038,1.97223-3.025329,3.506832-1.215256,8.538011-9.535867,8.527596-13.832223.092388-1.805529-1.224573-2.601937-2.471649-3.448384-.030814-.29958-.061601-.59916-.092415-.89874.955126-.846866.578154-1.866195.37109-2.863518,3.351008-4.260218,3.327209-8.932487,2.280721-14.030023-1.739857-8.475222-2.583788-17.07535-2.027301-25.764432.056825-.887372.466959-2.102062-1.031621-2.634933-5.553318,5.037248-9.603171,11.33065-14.017451,17.32435-1.026656,1.394003-2.322679,3.725769-3.934423,1.730651-1.626693-2.013564-3.651242-2.31452-5.620855-2.954685-6.57196-2.136015-11.982081-6.025928-16.884851-10.723143-2.463743-2.360433-3.654938-5.273951-3.202901-8.733311.360027-2.755482.788563-5.502064,1.142465-8.258261,1.238685-9.646209,7.382514-17.077898,11.469333-25.438012,6.129285-8.914324,12.258571-17.828655,18.387829-26.743039,6.416541-9.412601,14.28196-17.588581,22.069561-25.830977.298939-.226138.597878-.452276.896817-.678407,7.708462-5.608961,9.175526-5.341928,14.597439,2.610688.09255.135719.553195.020719.842069.022714l.112949.060969c-.121313.344941-.450392.800675-.333935,1.018824,4.735587,8.871795,12.168665,14.294753,21.778259,16.906506,1.062354.8541,2.23307,1.162829,3.555967.705901,2.521512.468072,4.934178.12719,7.244525-.973921.528425-.184107,1.056904-.368215,1.585328-.552329,3.200931.791,4.677196-.600319,6.364411-3.464107,3.920986-6.655312,5.691738-14.535993,11.403388-20.155802,1.747169-.775864,3.494393-1.551718,5.241562-2.327559,2.461881-.175798,4.9372-.244399,7.382891-.550043,4.878108-.609634,8.696452,1.559627,12.290896,4.425204,1.414206,1.850688,3.516626,3.716869,3.397148,5.963482-.234478,4.411524,3.079078,5.882988,5.800261,7.150272,1.811064.843434,2.673046,2.314722,4.149149,3.239486,0,0,.105987.168466.105933.168311.636193.57749,1.27244,1.155143,1.908686,1.732782.19762.196985.395185.393983.593129.590381.562369,1.84998,1.377348,3.530726,3.095915,4.6047ZM189.359759,81.592023c-.704351-.84042-1.527748-2.510068-2.526261-1.64926-1.219392,1.051206.016999,2.309422,1.127058,3.065296.32066.218351.830467.159263,1.253552.227372,3.287221,5.624501,8.294413,3.460857,13.181264,3.065296-.74245-2.855117-1.829196-4.263198-4.970658-3.349828-2.752321.80021-5.555638.168729-8.064954-1.358876ZM152.050548,327.103356c-.440786-2.295129-.881571-4.590285-1.50573-7.840397-2.515253,4.108115-4.654099,7.133093-7.684933,10.005268,1.978085.41278,3.394342.708355,4.810652,1.003903,1.55813,1.848423,3.42127,3.232528,6.189348,4.213346-.578127-2.783826-.509969-5.223021-1.809337-7.382121ZM160.204707,324.662246c.522057-1.973961,3.817103-3.648652,1.437303-5.823772-1.92153-1.756244-4.705636-2.56975-7.475279-3.990344.076252,3.326352,1.01562,6.036796,1.792716,8.776852.512127,2.172611,1.024201,4.345195,1.687592,7.159765,1.02787-2.460473,1.79277-4.291501,2.557669-6.122502ZM111.089206,263.243431c10.279676,1.662313,23.505137-3.497008,37.146506-5.178064,2.779519-.342527,3.529902-1.678871,2.610123-4.529121-1.348962-4.179743-2.31623-8.499454-3.195211-12.810615-2.872123-14.086172-4.639799-28.416058-8.878314-42.198484-3.277777-10.658365-4.665648-21.461874-4.148016-32.589518.16945-3.642355-.181268-7.351013-.705484-10.969838-.404683-2.793764-3.905336-3.82179-5.888872-1.869121-1.417983,1.395985-.809258,3.354844-.622216,4.990026,1.602058,14.005833-.482231,27.895984-1.485062,41.784396-.94579,13.099097-4.329716,26.017262-1.762819,39.324826.925985,4.800829-1.663847,7.393367-6.362522,9.084563-7.677432,2.76333-15.471914,1.528063-23.142978.847216-7.456554-.661808-11.627721-6.045399-11.689457-13.512875-.051105-6.180592-.146245-12.370623.142252-18.539457.115647-2.472501-.610613-3.077891-2.858362-3.040431-4.023735.067125-7.821303-1.104442-11.59437-2.398769-7.639225-2.620504-9.870244-6.636765-8.389877-14.467102,2.644013-13.985364,5.069306-28.011895,7.658328-42.007857.536034-2.897606-.476618-3.923408-3.377639-3.977534-3.219306-.060086-6.613432-.036259-9.594726-1.044019-3.196884-1.080629-4.262881.437591-5.385837,2.638519-3.467518,6.796257-6.399731,13.87192-10.697203,20.237153-.543211.804538-.680093,1.921345-.871723,2.9191-3.263935,16.995671-6.401862,34.016369-9.798498,50.985368-1.69628,8.474238-4.438941,16.70905-5.478387,25.360471-.399557,3.325489.819593,4.92545,3.352249,6.225441,5.932988,3.045259,12.237713,4.941308,18.827023,5.845616,4.496954.617094,9.190609-.511647,13.392186-.115317,4.763864.44943,9.501367.598566,14.279316.770356,11.650278.418929,23.078598-2.630564,38.51959-1.764928ZM86.886032,226.340243c.188608.012702.377269.025404.565877.038107,0,2.943372-.045654,5.887606.00993,8.829926.102425,5.414282,2.120067,8.718492,7.404154,9.290252,6.804171.736187,13.741852,1.587152,20.612939-.329582,3.058464-.853176,4.461768-2.252681,3.994918-5.565575-1.276325-9.056785-.750437-18.067427.359353-27.147729,2.277051-18.631177,5.014262-37.269326,3.085932-56.144406-.162057-1.586477-.726206-3.289553-.353039-4.74646,1.858553-7.257324,2.453732-14.748195,2.745683-22.089823.678447-17.063268,3.545929-33.849892,5.324506-50.766694.779902-7.417935,2.636566-14.716507,3.643282-22.118308,1.682573-12.370212,2.073334-24.85291,2.90461-37.298249.228272-3.417384.81255-7.639556,4.403918-9.057365,3.620779-1.429399,1.558076-2.224357.214619-3.206005-4.973194-3.633944-10.289983-2.335184-15.631165-.980683-4.170196,1.057537-3.201687,4.427106-4.087899,7.395531-3.405189,11.406175-6.882097,22.77307-9.495242,34.401736-2.797705,12.450025-7.722925,24.331662-9.715472,37.02402-2.45697,15.65067-6.39992,31.142387-6.375689,47.064576.026119,17.127399-3.370651,33.833239-5.123109,50.738255-1.54302,14.884629-2.995595,29.778616-4.488103,44.668477ZM96.743324,308.071669c7.768687-.549915,15.526257-.325321,23.29694-1.253362,12.246483-1.462557,24.314396-3.530368,36.027866-7.517179,3.453703-1.175504,4.597113-3.200058,3.863945-6.632369-.610883-2.859931-1.17568-5.735962-1.592668-8.629091-.358435-2.486902-.465232-5.887282-2.249205-6.849385-2.478934-1.336884-6.18951-2.232886-8.661321-1.903546-5.933986.790663-11.95572.974615-17.871142,2.192622-8.172884,1.682809-16.400597,3.647304-24.782919,3.625432-27.594439-.072006-55.288552,1.421457-82.579546-4.392094-1.678499-.357549-2.828249-.298838-3.081534,1.829356-.762255,6.40497-1.652137,12.794676-2.449199,19.195682-.168074,1.349748.006125,2.525737,1.480663,3.327673,4.802125,2.611659,9.535769,5.112773,15.325318,4.808703,4.686721-.246169,9.585444-1.057193,14.064319.317554,6.94332,2.131295,13.938554,1.859722,20.978606,1.87496,9.409923.020388,18.8199.005043,28.229877.005043ZM113.52745,25.235948c-6.949013,9.562344-10.448532,20.729227-14.721046,31.537146-3.679924,9.308792-5.369405,19.221275-8.822299,28.622179-7.192557,19.582613-12.947326,39.595887-16.510793,60.181378-2.750917,15.892038-5.119979,31.852725-8.060313,47.708517-2.172413,11.714695-.968671,13.886065,10.796013,15.967712.865976.153235,1.747925.235678,2.626258.296896,5.086089.354663,5.619209-.205257,6.010347-5.483968.390005-5.26315.80996-10.529563,1.432931-15.768873,1.592236-13.391705,3.632003-26.738603,4.883289-40.160189,1.440756-15.454164,1.228728-31.036145,4.245369-46.378888,2.629011-13.371048,4.284871-26.927113,8.785333-39.899748,4.127402-11.89738,6.419563-24.296603,9.334912-36.622162ZM55.32274,59.335353c0,.882127-.013437,1.764483.002132,2.646334.104395,5.912228,2.207275,8.586764,7.56648,9.635705,4.913428.961698,9.569794-1.484631,11.477185-6.029744,1.566441-3.732653.137665-6.351215-3.893625-7.011425-1.150857-.188476-2.428747.096237-3.488241-.283055-2.009439-.719406-3.0872-1.848793-1.885697-4.355201,1.669298-3.482223,3.793197-6.507363,6.552155-9.195639,3.463687-3.374996,6.926078-6.78317,10.022479-10.483427.927226-1.108056,4.123624-2.816087,1.554353-4.484488-2.617192-1.699523-4.930508-6.199713-9.028499-3.363507-11.469549,7.938097-18.731775,18.43161-18.878722,32.924447ZM80.673047,85.93711c-.910065-.041896-1.372707-.196695-1.720133-.059695-8.811506,3.474908-16.918526,8.756315-26.569051,10.132344-1.267259.180689-3.161753.880023-3.083315,3.136534.132619,3.813835.032919,7.635288.130676,11.450983.054613,2.132522,1.241788,3.701605,3.29564,4.101993,2.02919.395601,4.317385,1.881567,6.201113-.141221,8.080119-8.67665,16.277341-17.277573,21.74507-28.620938ZM82.967961,277.577416c6.172781,0,12.345832.031688,18.517966-.030582,1.052478-.010599,2.680601.646166,3.012432-.925614.624482-2.958042-.646392-5.81026-1.395426-8.558596-.561074-2.058373-3.055712-.979416-4.67779-.867874-12.122579.833921-24.204685,2.560311-36.402815,1.603225-1.881407-.147599-2.571457.633949-2.809254,2.425953-.615335,4.637669.510589,6.218914,5.237407,6.323795,6.169651.136973,12.344753.033576,18.51748.029692ZM35.269579,60.379075c0-2.4373.041661-5.817252-.034322-9.194554-.015596-.692558-.422573-1.397994-.731657-2.058925-3.08032-6.587048-4.268223-6.681236-8.761156-1.238401-1.993223,2.414654-3.20506,4.483503-.440543,7.06936,6.839896,6.39781,6.356289,14.234627,4.257808,22.337333-.273521,1.056114-.003993,2.627166-1.487301,2.92413-1.547877.309909-1.756559-1.235536-2.325701-2.190491-1.147376-1.925283-2.666678-3.352673-5.023921-2.433478-2.005284.781952-4.197637,1.625919-4.020605,4.534164.155662,2.556333-.848248,5.501228,2.256787,7.025516,4.83669,2.374376,13.533925-1.756392,14.588022-7.122818,1.210272-6.161242,2.834158-12.315648,1.722588-19.651835ZM67.940448,138.857861c1.757153.612118,2.636134-.2954,3.043893-2.546435.675479-3.728614,1.649871-7.412487,2.68794-11.061315.39389-1.38451.622971-2.380147-1.208815-2.264452-6.149414.388414-11.81595-1.42828-17.503317-3.441521-2.836236-1.003984-5.357991-1.000128-4.031506,3.472278.699764,2.359382,1.325136,4.943492,1.087421,7.337178-.552898,5.566789,3.29054,6.575533,7.174182,7.461543,2.69385.614545,5.513303.679189,8.750201,1.042724ZM21.459381,259.731401c-.405088,3.579991-.700249,6.61492-1.105499,9.635098-.325867,2.428462.203043,3.83967,3.077351,4.00283,2.899564.164616,5.769636.865015,8.650096,1.345891,6.798451,1.135024,13.60988,2.033049,20.531452,2.037607,4.308589.002859,2.211187-3.219179,2.751079-5.068707.555353-1.902548-.015758-2.87916-2.33814-2.933906-11.007717-.259599-21.425004-2.805158-31.566341-9.018813ZM199.06174,90.962452c-6.234463,1.462031-12.676745,4.828795-16.901931,11.51115-1.125061,1.77941-2.679522,4.246315-.900459,6.071963,1.871828,1.9209,5.063747,2.54626,7.403668,1.225652,5.206809-2.938679,11.110197-4.663073,15.627495-8.828928,1.987529-1.832943,3.148531-3.831661,2.113861-6.595907-1.054637-2.817482-3.333847-3.460331-7.342633-3.383929ZM116.540476,266.98952c-2.353466,0-3.974573-.071871-5.586344.019714-1.69137.096089-4.760303-.690178-3.56935,2.428947.971801,2.545289-1.259704,7.929851,4.433167,7.184927,9.859019-1.290093,19.558788-3.675082,29.495139-4.536618.926362-.080339,1.992332-.132388,2.27921-1.544541.885349-4.357196-2.298745-7.564859-6.591441-6.661792-6.998391,1.47232-13.882592,3.772896-20.46038,3.109363ZM174.194527,50.393487c-.517308,5.662709-1.635732,10.466787-2.736671,15.282415-.804294,3.518084-2.543314,4.822228-5.925298,3.624462-2.048995-.725669-3.767293-.345507-5.227855,1.143924-2.548333,2.598633-2.621995,5.466992-.516337,8.320531,1.721968,2.333559,6.372074,2.475845,9.215325.618402,5.360177-3.501674,6.426686-9.35863,8.804922-14.680855,2.550869-5.708589.984968-9.683399-3.614087-14.308878ZM85.492927,39.372625c-3.197909-.398534-5.736259,2.536336-5.280687,6.09407.643802,5.02762,3.525422,8.828739,6.825757,12.534909,2.431283,2.730152,4.60974,2.16152,6.516484.138564,2.652809-2.814577,2.966777-6.866921,4.466895-10.310451.146623-.336655-.31413-1.141166-.707696-1.477646-3.592285-3.071411-7.42574-5.752595-11.820753-6.979447ZM119.465916,361.749008c11.485307-.439425,20.228007-7.296469,31.694103-8.965389-7.424768-3.406178-13.075007-6.800248-16.921791-13.024961-3.186523,8.679846-8.421447,15.238429-14.772312,21.990349ZM142.037621,40.854107c.019697,1.822654-.001457,3.538735.953669,5.180788,1.345886,2.314,3.223812,3.239574,5.869174,2.965445,2.275162-.235766,3.357861-1.780118,3.984179-3.606716.899434-2.623181-1.132401-3.428778-2.959492-4.563809-2.688858-1.670383-2.325674-4.142089.875905-5.476977,1.854668-.773309,4.000206-.840002,6.007433-1.259808,4.834774-1.011151,5.641388-2.877407,2.64234-6.911008-1.318634-1.773551-2.257894-5.60327-5.384083-3.699333-6.45232,3.929678-11.25056,9.363626-11.989124,17.371417ZM47.038202,25.39759c-.578315,1.453084.13475,2.33304,1.141467,3.090997,2.571484,1.93609,5.064098,3.993162,7.756464,5.743412.914274.59438,2.241569,2.163267,3.433844.688311,1.235609-1.528596,3.833913-2.833131,3.118446-4.977681-1.799057-5.392498-3.132612-11.007021-6.265574-15.893899-.762255-1.189002-1.360376-1.716304-2.678308-.546827-3.639585,3.229676-6.290991,6.949654-6.506339,11.895687ZM61.303325,320.075035c-1.570407,10.200197.7285,19.962829-.471087,31.042091,5.456774-6.922847,10.315401-12.410402,17.804333-15.569198-6.842378-4.516499-11.845145-10.034987-17.333246-15.472893ZM83.980721,344.031201c-2.469868,8.364368-8.945069,12.509053-17.168518,16.229387,11.200642,1.928654,21.325655,1.428388,31.576028,1.394893-6.714212-4.302261-11.474352-9.784315-14.407509-17.62428ZM109.314298,319.700442c-.553033,10.170936.832949,19.130958,1.590077,29.093319,3.573613-6.910576,8.486529-11.326753,13.857876-15.80671-5.65094-3.630853-11.219746-7.071875-15.447954-13.286609ZM91.543261,65.864776c-.458918-.025998-.660801-.100714-.744015-.031944-.562531.464897-1.105148.954456-1.64469,1.446416-9.806134,8.941589-19.875346,17.430619-33.429211,20.202228-1.860658.380499-3.670372,1.074251-5.451216,1.759251-1.369118.526628-1.409753,1.850931-1.179566,3.005237.17803.892995.990014.880738,1.751271.516569,5.015503-2.399295,10.600687-3.012195,15.671396-5.558199,6.444279-3.235656,12.260244-7.558792,18.612566-10.639365,5.341991-2.590637,5.544359-6.332587,6.413465-10.700193ZM157.103071,46.305457c-.922423,2.181686-1.846897,3.972612-3.64965,5.113178-1.247238.789146-1.729847,1.868588-1.355222,3.363777.893336,3.564706,2.07614,6.92996,4.67493,9.719658,2.389676,2.565165,4.636561-.509692,6.956892.099541,2.861222.751249,2.738074-1.190943,2.456539-3.015748-.942174-6.107258-3.390726-11.363335-9.083489-15.280406ZM129.069195,136.437638c-1.227703,3.846332.664309,4.181739,4.048073,3.336033,2.417792-.604297,3.83162-1.82167,4.438402-4.208627.719946-2.832221,1.595474-5.624542,2.373864-8.442375,1.988231-7.197171,1.002777-8.245505-6.07586-6.378056-1.914245.505013-4.255352.6903-3.863999,3.69075.518603,3.976684-1.106875,7.78828-.92048,12.002274ZM97.340285,312.9924c-8.235538-.599591-16.287486-.662698-24.615088.427181,4.301223,4.439936,8.599315,8.260297,11.664849,13.447773,3.821582-5.164877,7.904732-9.86247,12.95024-13.874954ZM49.198123,311.568516c-8.464484-2.477248-16.708629.315828-25.281178-2.046372,4.237193,5.706486,9.008909,10.301113,9.891668,18.472171,3.895028-7.557146,8.649314-12.565444,15.38951-16.425799ZM47.029271,42.751862c0,1.336816-.13753,2.526769.021829,3.675587,1.246159,8.984314,2.096296,17.937095.835108,27.041196-.429129,3.097726.524809,6.390192.876283,9.590438.095653.870908.204284,1.913228,1.417309,1.808631.807639-.069646,2.297153-.185746,2.095324-1.10006-.98513-4.463385,2.090899-9.054749.568251-12.979869-2.673936-6.892898-2.505323-13.592924-.558618-20.25924,1.435684-4.916476-.053776-7.056584-5.255485-7.776684ZM140.428008,333.524507c-2.487029-.590961-3.04875.633464-1.994059,3.136601,2.88529,6.847901,8.731314,9.82172,15.371701,11.787807,3.038443.89967,2.792201-.541636,2.157897-2.693212-1.735081-5.885395-8.848148-11.707845-15.535539-12.231196ZM176.368128,103.183899c3.563792-6.841307,4.501109-7.888819,10.081841-11.711135.904021-.619157,2.621078-.68113,2.441105-2.14447-.191036-1.553913-1.648198-2.477962-2.998077-2.961724-2.921447-1.046932-5.7933-.727098-8.408171,1.075316-6.309582,4.349119-6.678379,8.852539-1.116697,15.742012ZM105.56449,350.838892c.653947-8.081657-1.093006-15.777638-.728851-23.57448.078087-1.67186-1.115132-2.295534-2.004366-.810836-2.941198,4.910483-7.014095,8.217956-12.873448,9.891838,6.963314,3.180964,11.421143,8.602231,15.606665,14.493478ZM61.627709,116.797474c3.428474,2.109977,5.822576,2.420533,8.130549-1.085847,1.655645-2.515341,4.249848-4.418671,6.450809-6.569006,3.015508-2.946095,6.967091-14.12297,6.130149-17.98071-5.490664,9.706174-12.903992,17.565462-20.711506,25.635563ZM47.117099,357.074338c-5.773225-3.159309-11.646554-6.080269-14.956279-12.737368-2.56884,5.752871-7.808648,7.729988-12.501467,11.291424,9.612399,1.678143,18.471367,1.33478,27.457746,1.445944ZM52.011666,353.463334c.548905-6.521312-8.781231-16.822506-14.441507-17.038039-2.267391-.086299-1.69682,1.440389-1.556241,2.718778.61968,5.6351,8.10783,13.540464,13.756881,14.384066.793932.118527,2.168851.616716,2.240868-.064805ZM26.155843,109.617186c-1.708962-3.957563-3.850238-7.298303-4.539613-10.915469-.896142-4.701827-3.172627-7.709411-7.336535-9.671249-.785163-.3699-1.512665-1.213691-2.319845-.598688-1.062786.80973-.487789,1.810626.166428,2.664463,2.030512,2.650008,3.504187,5.639145,2.582385,8.942398-1.224087,4.386525.581796,6.501234,4.527768,7.640924,2.053555.593119,3.884128,1.937742,6.919413,1.937621ZM136.796005,323.497826c.133401.992981-1.133102,2.553488.626857,3.313568,1.284096.554581,2.10064-.685917,3.016587-1.34457,4.355188-3.131801,6.263766-7.995601,8.57093-12.50765.741964-1.451122.756373-3.650163-1.084048-4.746972-1.976089-1.177688-3.850561-.297409-5.016096,1.362746-2.918209,4.156712-6.256589,8.181657-6.114229,13.922878ZM114.682732,354.14855c.265723,1.095758-.947247,2.753109.616442,3.458524,1.368227.617256,2.450117-.66205,3.382146-1.554816,4.605261-4.411376,7.865014-9.803436,10.864872-15.345143.589081-1.088126.613528-2.541514.676613-3.837243.062276-1.277553-.430155-1.784858-1.911924-1.228605-5.588233,2.09772-13.299987,12.398023-13.628147,18.507284ZM75.858941,73.472637c3.278965-2.77471,6.576331-5.528129,9.824536-8.33833.865382-.7487,1.768863-1.375314.180135-2.671623-4.928241-4.021236-8.176176-9.24365-9.851302-16.094322-2.007982,3.055486-4.601268,4.794606-5.406425,7.910239,5.828701.946561,8.344115,3.10587,8.817873,7.228832.515042,4.481993-2.328912,7.81324-3.564817,11.965205ZM40.534319,332.759033c7.918305,2.658476,12.143194,7.785004,14.975949,14.20362v-24.903732c-3.842655,5.553008-7.890513,9.113716-14.975949,10.700112ZM137.716485,309.511438c-8.336776,1.019275-16.125322,1.971507-23.913868,2.923738,7.050791,1.573991,13.619999,3.747654,18.277552,11.064457.992739-5.720968,3.367629-9.566005,5.636316-13.988195ZM80.513634,338.864329c-8.085839,3.402565-13.34753,9.108726-17.160477,16.363583-.262378.499214-.533605,1.121324.069858,1.582216.702759.536674,1.395129.132388,2.050317-.172086,4.831212-2.245237,9.290445-4.949965,12.741719-9.176525,1.989256-2.436121,2.692366-5.012505,2.298583-8.597188ZM44.064949,46.350737c-.020048-3.359968-1.761254-5.966044-2.822232-8.796411-1.501872-4.006376-4.441747-1.532062-6.126021-.788081-1.828279.807599-3.814864,2.712845-1.317743,5.543454,1.952209,2.212956,4.062644,4.595544,4.430334,7.783251.158711,1.376345,1.161353,1.421679,1.822828,1.018615,1.881326-1.146338,4.645465-1.720821,4.012834-4.760828ZM169.449065,56.268074c0-2.56172.095302-5.127633-.017485-7.684377-.367879-8.339503-6.598295-12.623332-14.433574-9.704232,5.029965,5.592773,12.16737,9.457767,14.451059,17.388609ZM132.930064,96.939459c6.294904-6.56546,10.552847-13.646706,14.761304-20.816248,1.824987-3.109093,1.515822-5.157541-1.426779-7.300083-1.807664,7.645253-6.348815,13.492258-10.695476,19.374659-1.857797,2.514194-2.56258,5.035873-2.639048,8.741671ZM15.42332,319.066197c-.351285.161407-.702597.322813-1.053882.484247v22.743284c3.763462-3.964912,7.383836-7.341857,12.345239-9.847367-5.512223-3.084471-9.854594-7.002593-11.291357-13.380163ZM139.472937,48.064762c-.405385,4.156551.980165,7.036647,3.074869,9.066413,4.136576,4.008487,7.774245,8.294931,10.59046,13.315877.374463.667579,1.223763,2.210704,2.245428.677503.494805-.742497,1.444426-1.879693-.015596-3.042373-3.990223-3.177674-5.41657-7.806794-6.675357-12.487781-.279484-1.039306.061628-2.388939-1.765248-2.464829-3.048426-.126624-4.912106-2.315194-7.454557-5.06481ZM89.760799,331.633205c4.487995.152938,13.821936-9.525795,13.677256-14.30904-.060225-1.990385-.955234-1.685182-2.235984-1.008272-5.568482,2.942913-9.624218,7.459386-13.065671,12.57909-1.013732,1.508053-.918915,2.836549,1.624399,2.738222ZM134.537949,80.937564c3.716458-3.035725,5.914181-6.694396,7.394332-10.833431,2.317309-6.480361,2.373756-6.460202-3.600973-10.498421-1.266072,7.119872-2.529715,14.225862-3.793358,21.331852ZM103.743766,358.536302c-1.035426-6.218375-9.527459-15.589074-15.610334-17.165114,2.580766,8.116878,7.501992,14.138086,15.610334,17.165114ZM64.428813,146.934205c1.769052-.690313,4.887309,1.30769,5.093779-1.797412.210571-3.167413-3.09856-2.373082-5.010889-2.63527-3.641069-.499201-7.250839-1.129145-10.632688-2.508167-1.667463-.679957-3.423105-2.120144-4.553347-.067704-1.111381,2.01823.631336,3.50464,2.372218,4.456387,3.98291,2.177439,8.421312,2.102938,12.730926,2.552166ZM112.534603,317.456877c5.984066,8.610753,12.206063,12.326826,17.705955,10.777754-3.717969-6.926838-9.542677-10.36999-17.705955-10.777754ZM30.943668,335.202839c-5.19437,1.576877-8.436665,5.030897-11.66868,8.2302-1.824231,1.805758-4.599109,5.029603-2.661929,7.107231,1.841824,1.975417,4.86629-.923618,6.715426-2.541217,3.718617-3.25297,7.555444-6.664839,7.615183-12.796214ZM18.985412,309.97829c-.589675,10.400141,2.841579,16.119733,10.063061,17.716782-.350044-7.445713-6.517563-11.29075-10.063061-17.716782ZM80.738398,330.959153c-3.486352-7.593419-8.786196-13.386285-16.78847-16.496079,3.920419,7.162435,10.158876,12.023431,16.78847,16.496079ZM70.96718,76.230128c-4.056707-.157658-7.282705.298595-10.472655-.544508-5.025432-1.328213-5.204056-.987291-5.343691,4.491702-.070047,2.749266,1.024498,2.85149,3.140544,2.316219,4.401193-1.113288,8.474036-2.847471,12.675801-6.263412ZM53.258284,317.029399c.169072-1.78003-.725883-2.000336-2.12487-1.418814-5.056057,2.101711-8.459384,6.040599-11.358732,10.456505-.549849.837454-1.063352,2.357669.972017,2.517269,3.994378.313266,12.51253-7.55952,12.511586-11.55496ZM8.697317,77.769922c1.858256.590543,3.590558,1.038908,4.56271-1.161507,2.190384-4.957839,6.026698-6.489085,11.127735-5.440522,1.154256.237283,2.013486.239224,2.088741-1.305991.070748-1.45243-.720027-1.675635-1.900133-1.671442-3.08801.010963-6.176316-.055299-9.264272-.041478-.863223.00387-1.755993.040116-2.237738,1.032867-1.388437,2.861185-3.805204,5.210049-4.377043,8.588072ZM145.73843,264.802427c.96662,1.864253-.280996,5.411045,2.56571,5.468623,1.883701.038107,5.837821-.055501,5.640147-3.916504-.09541-1.864118.289522-4.97162-2.647413-4.841281-1.901455.084385-5.276207-.559947-5.558444,3.289162ZM178.956935,73.020105c-1.254307,2.827596-2.801537,5.455328-5.125807,7.473665-1.218151,1.0578-1.436331,2.130325-.499446,3.340901,1.237254,1.598815,1.929409-.255769,2.849727-.575913,1.501629-.522407,2.948915-1.209606,4.465384-1.67755.833543-.257199,1.942361-.225659,1.748195-1.408917-.429291-2.616432-.008365-5.690911-3.438053-7.152187ZM66.482261,27.966962c1.533576-3.194509-.258816-5.234509-.539056-7.448517-.489516-3.866632-1.530932-7.66144-2.282529-11.497807-.382612-1.953-1.708584-1.714065-3.010381-1.344603-1.633114.463488-2.086906,1.50278-1.06114,2.960274,3.503459,4.978093,4.493473,10.989599,6.893105,17.330654ZM34.384986,101.200809c1.651058-1.831217,3.013052-3.33095,4.361663-4.84263.584198-.654863,1.278781-1.339176.363886-2.218242-2.004771-1.9262-4.097775-3.784587-6.777243-4.678203-1.114457-.37168-2.657612-.281147-1.86117,1.592437,1.358541,3.195864,1.546042,6.829657,3.912864,10.146637ZM31.879825,104.672683c-2.240193-3.499611-2.799135-7.638632-4.348334-11.408872-.460375-1.120407-.734463-2.300981-2.395423-1.742598-1.820616.612064-1.538595,2.01142-1.063784,3.23153,1.427238,3.667625,2.980349,7.286895,4.525096,10.907689.263997.618806.47473,1.537475,1.436466,1.334349,1.164995-.24602,1.19786-1.504668,1.845979-2.322098ZM5.756227,89.41454c-1.809769,5.468933-1.167667,9.791259,4.464278,12.131264,1.360861-4.937572.357383-7.72752-4.464278-12.131264ZM164.715583,325.409436c-3.923738,4.426964-5.628814,9.342921-3.371622,15.13905,2.235606-4.775775,3.456024-9.799984,3.371622-15.13905ZM141.257827,102.969957c.182671-1.026665-.117266-1.919822-1.286039-1.596146-2.502355.693024-5.153545,1.262477-7.328171,2.572055-1.344483.809662-1.912734,3.310251-.27711,4.439666,2.162106,1.492991,8.904109-2.832261,8.89132-5.415576ZM46.49089,32.135392c-2.347341,2.836185-.917971,4.584521,1.708665,5.964797,1.684057.884959,3.394288,1.720032,5.083094,2.596118.884108.45862,1.678337,1.291839,2.400145-.331484.479614-1.078593.766491-1.518894-.575239-2.313812-2.99125-1.772203-5.759086-3.921115-8.616665-5.91562ZM39.106029,67.451051c1.789721,1.474598-2.161701,5.302484,2.632114,5.115605,4.42321-.17245,1.983941-3.93669,2.715436-5.966651.77518-2.151212-.118615-4.078153-2.928192-3.977776-4.148394.148219-.482474,3.566789-2.419357,4.828822ZM132.992123,116.79591c1.732869-.335569,3.905714-.679472,6.038247-1.191429,2.035234-.488589,1.568437-2.229164,1.482795-3.612258-.123094-1.98731-1.636757-1.246323-2.641638-1.050019-1.85348.362093-3.648085,1.029105-5.503184,1.378038-2.248126.422866-1.495099,2.210772-1.641722,3.478144-.154178,1.332272.957824,1.138395,2.265503.997525ZM44.48709,85.061334c-.281481-3.918189,1.219122-7.153536-2.334605-8.674183-1.148968-.491636-3.45006-1.405802-4.061402,1.518611-1.092655,5.226554,3.930537,4.040707,6.396007,7.155572ZM98.194226,36.181777c-.034646,2.364479.980165,4.634399,2.328642,4.095096,3.068879-1.227297,2.952585-4.984666,4.274294-7.625606.516822-1.032746-.408569-1.638661-1.437249-1.446942-3.068016.571787-4.890898,2.374214-5.165687,4.977452ZM196.748046,79.321907c.378888-.494495.75783-.98899,1.136718-1.483471-2.366255-1.902818-4.723768-3.816774-7.107076-5.698058-.427295-.337295-1.001751-.812872-1.437626-.748282-.952374.141167-.717896,1.039798-.765817,1.749192-.285798,4.229608,3.11707,6.812438,8.173802,6.180619ZM137.002583,144.920156c-.020129-1.361735-.962627-1.789496-2.039713-1.649718-2.451034.318094-5.356669-.175633-6.747994,2.571206-.425568.840218-1.169043,2.263064-.092226,3.217223.940663.833476,1.854236-.19896,2.779681-.48124,1.236931-.377317,2.507536-.647177,3.768373-.943197,1.444696-.339183,2.269496-1.193667,2.33188-2.714274ZM162.589148,84.201308c2.493343,3.367546,4.173002,5.636111,5.939922,8.022515,2.365014-2.312578,3.005956-4.611563,1.096352-7.13397-1.834916-2.423809-3.876734.074905-7.036274-.888545ZM155.024017,308.831238c2.031781,3.834573,4.885501,5.523909,8.51594,5.947422.970452.113187,1.051831-1.011751.727987-1.620646-1.820076-3.422521-4.663489-4.954711-9.243927-4.326776ZM184.60523,72.207638c3.928811-4.17226.203394-6.574238-2.033885-9.484843-2.541803,4.011204-2.760415,7.321469,2.033885,9.484843ZM35.004719,86.461378c.227759.305944.414883.738614.743799.96933,1.898892,1.331827,4.086685,2.277006,5.370808,4.398027.3634.600265,1.116778.44316,1.388842-.197234.370739-.872647,1.978301-1.37584,1.176976-2.531158-1.464771-2.111838-3.879244-3.033716-6.06272-4.191718-.880465-.46696-1.713468-.116046-2.28922.695316-.152856.215398-.198645.506671-.328485.857437ZM95.293772,39.782452c-2.080079-2.931499,2.000589-5.427193-.91163-6.836467-2.619567-1.267669-5.598-.441866-7.004219,3.086089,2.566141.621597,4.678708,1.885787,7.915849,3.750378ZM152.265005,20.817566c-2.384172-2.005973-4.29356-3.612467-7.140805-6.008068.82534,3.807949,1.382798,6.379937,1.936586,8.934881,2.252551-.174877,3.120793-2.057152,5.204218-2.926813ZM140.499566,31.143827c4.478659-3.999877,2.530956-8.399832.980381-12.789694-.326758,4.263231-.65357,8.526463-.980381,12.789694ZM42.143905,58.988011c1.673129.579796,2.901237.28886,2.412611-1.914226-.220393-.993696,1.126357-3.263899-1.293054-2.73481-1.769214.386897-4.162317.678825-4.726386,3.175678-.276435,1.223798-.209303,1.243364,3.606829,1.473358ZM136.718134,98.013359c6.447517-.506523,7.056673-1.261979,5.803283-7.051541-1.880301,2.28476-3.591206,4.363655-5.803283,7.051541ZM27.286625,64.490514c-5.837956-3.281678-9.402071-3.112228-11.137638,0h11.137638ZM12.442809,83.295382c.072988-2.352208-1.573186-1.739753-2.740151-1.798733-1.490485-.075337-3.251361-.72157-3.593149,1.764941-.334178,2.43128,1.920343,2.121304,2.851589,2.234315,1.403871.17036,3.179588-.329056,3.481711-2.200524ZM71.187897,118.112797c5.099958,1.192521,4.800183-1.89284,5.618615-4.683812-2.637429.849306-3.191487,3.084835-5.618615,4.683812ZM114.494071,23.619663c.106311-.238597.237662-.47087.300693-.72039.01511-.059917-.196756-.177116-.304254-.267959-.105286.236629-.236636.466839-.297563.714383-.015434.062749.193626.180709.301124.273966Z"/>
  <path class="cls-3" d="M111.089206,263.243431c-15.440992-.865636-26.869312,2.183857-38.51959,1.764928-4.777949-.171789-9.515451-.320925-14.279316-.770356-4.201576-.396329-8.895232.732411-13.392186.115317-6.58931-.904309-12.894035-2.800357-18.827023-5.845616-2.532656-1.299991-3.751805-2.899952-3.352249-6.225441,1.039446-8.651421,3.782107-16.886233,5.478387-25.360471,3.396635-16.968999,6.534562-33.989697,9.798498-50.985368.19163-.997754.328512-2.114561.871723-2.9191,4.297472-6.365232,7.229685-13.440896,10.697203-20.237153,1.122957-2.200928,2.188953-3.719148,5.385837-2.638519,2.981294,1.00776,6.37542.983933,9.594726,1.044019,2.901021.054126,3.913673,1.079928,3.377639,3.977534-2.589023,13.995962-5.014316,28.022493-7.658328,42.007857-1.480367,7.830338.750653,11.846598,8.389877,14.467102,3.773068,1.294327,7.570635,2.465894,11.59437,2.398769,2.247748-.037459,2.974009.56793,2.858362,3.040431-.288497,6.168834-.193356,12.358865-.142252,18.539457.061736,7.467476,4.232903,12.851068,11.689457,13.512875,7.671064.680847,15.465546,1.916114,23.142978-.847216,4.698675-1.691196,7.288507-4.283734,6.362522-9.084563-2.566897-13.307564.817029-26.225729,1.762819-39.324826,1.002831-13.888412,3.087119-27.778563,1.485062-41.784396-.187043-1.635182-.795767-3.594041.622216-4.990026,1.983536-1.952669,5.484188-.924643,5.888872,1.869121.524216,3.618825.874934,7.327483.705484,10.969838-.517632,11.127644.870239,21.931153,4.148016,32.589518,4.238515,13.782425,6.006191,28.112312,8.878314,42.198484.878981,4.311161,1.846249,8.630871,3.195211,12.810615.919779,2.850249.169396,4.186594-2.610123,4.529121-13.641369,1.681056-26.86683,6.840377-37.146506,5.178064Z"/>
  <path class="cls-1" d="M86.886032,226.340243c1.492509-14.889861,2.945083-29.783848,4.488103-44.668477,1.752458-16.905016,5.149228-33.610857,5.123109-50.738255-.02423-15.922189,3.918719-31.413906,6.375689-47.064576,1.992548-12.692358,6.917767-24.573995,9.715472-37.02402,2.613145-11.628665,6.090053-22.995561,9.495242-34.401736.886212-2.968425-.082297-6.337994,4.087899-7.395531,5.341181-1.354501,10.65797-2.653261,15.631165.980683,1.343458.981647,3.40616,1.776605-.214619,3.206005-3.591368,1.417809-4.175646,5.639981-4.403918,9.057365-.831276,12.44534-1.222036,24.928037-2.90461,37.298249-1.006716,7.401801-2.86338,14.700373-3.643282,22.118308-1.778577,16.916802-4.646059,33.703426-5.324506,50.766694-.29195,7.341628-.88713,14.832499-2.745683,22.089823-.373168,1.456907.190982,3.159983.353039,4.74646,1.92833,18.87508-.808881,37.513229-3.085932,56.144406-1.109789,9.080302-1.635678,18.090944-.359353,27.147729.466851,3.312894-.936454,4.712399-3.994918,5.565575-6.871088,1.916734-13.808768,1.065769-20.612939.329582-5.284086-.57176-7.301728-3.87597-7.404154-9.290252-.055584-2.94232-.00993-5.886554-.00993-8.829926-.188608-.012702-.377269-.025404-.565877-.038107Z"/>
  <path class="cls-3" d="M96.743324,308.071669c-9.409977,0-18.819954.015345-28.229877-.005043-7.040052-.015237-14.035286.256336-20.978606-1.87496-4.478875-1.374747-9.377598-.563723-14.064319-.317554-5.789549.30407-10.523193-2.197045-15.325318-4.808703-1.474538-.801936-1.648737-1.977925-1.480663-3.327673.797062-6.401006,1.686944-12.790712,2.449199-19.195682.253285-2.128194,1.403035-2.186904,3.081534-1.829356,27.290994,5.813551,54.985107,4.320088,82.579546,4.392094,8.382322.021871,16.610035-1.942624,24.782919-3.625432,5.915422-1.218006,11.937156-1.401959,17.871142-2.192622,2.471811-.32934,6.182387.566663,8.661321,1.903546,1.783973.962102,1.89077,4.362482,2.249205,6.849385.416987,2.893129.981784,5.76916,1.592668,8.629091.733168,3.432311-.410242,5.456865-3.863945,6.632369-11.713471,3.986811-23.781384,6.054622-36.027866,7.517179-7.770683.928041-15.528254.703447-23.29694,1.253362Z"/>
  <path class="cls-1" d="M113.52745,25.235948c-2.915349,12.325559-5.20751,24.724782-9.334912,36.622162-4.500461,12.972635-6.156322,26.5287-8.785333,39.899748-3.016641,15.342743-2.804613,30.924724-4.245369,46.378888-1.251285,13.421587-3.291053,26.768484-4.883289,40.160189-.622971,5.23931-1.042927,10.505723-1.432931,15.768873-.391138,5.278711-.924258,5.838631-6.010347,5.483968-.878334-.061219-1.760283-.143661-2.626258-.296896-11.764684-2.081646-12.968426-4.253017-10.796013-15.967712,2.940334-15.855792,5.309396-31.816479,8.060313-47.708517,3.563468-20.585492,9.318236-40.598765,16.510793-60.181378,3.452894-9.400903,5.142374-19.313386,8.822299-28.622179,4.272513-10.807919,7.772033-21.974802,14.721046-31.537146Z"/>
  <path class="cls-1" d="M55.32274,59.335353c.146947-14.492837,7.409172-24.98635,18.878722-32.924447,4.097991-2.836205,6.411306,1.663985,9.028499,3.363507,2.569271,1.668401-.627127,3.376432-1.554353,4.484488-3.096401,3.700257-6.558793,7.108431-10.022479,10.483427-2.758958,2.688276-4.882857,5.713416-6.552155,9.195639-1.201503,2.506407-.123742,3.635795,1.885697,4.355201,1.059494.379292,2.337384.094579,3.488241.283055,4.03129.66021,5.460066,3.278772,3.893625,7.011425-1.907391,4.545113-6.563757,6.991441-11.477185,6.029744-5.359206-1.048941-7.462085-3.723477-7.56648-9.635705-.015569-.88185-.002132-1.764207-.002132-2.646334Z"/>
  <path class="cls-2" d="M82.967961,277.579358c-6.172727.001942-12.347829.105339-18.51748-.031634-4.726817-.104881-5.852742-1.686126-5.237407-6.323795.237797-1.792004.927846-2.573552,2.809254-2.425953,12.19813.957086,24.280236-.769304,36.402815-1.603225,1.622079-.111542,4.116716-1.190498,4.67779.867874.749034,2.748335,2.019908,5.600553,1.395426,8.558596-.33183,1.571779-1.959953.915015-3.012432.925614-6.172134.06227-12.345185.030582-18.517966.032524Z"/>
  <path class="cls-1" d="M35.269579,60.379075c1.11157,7.336187-.512316,13.490592-1.722588,19.651835-1.054097,5.366426-9.751332,9.497195-14.588022,7.122818-3.105036-1.524288-2.101125-4.469183-2.256787-7.025516-.177032-2.908245,2.015321-3.752212,4.020605-4.534164,2.357243-.919195,3.876545.508195,5.023921,2.433478.569141.954955.777824,2.5004,2.325701,2.190491,1.483308-.296964,1.21378-1.868015,1.487301-2.92413,2.098481-8.102706,2.582088-15.939523-4.257808-22.337333-2.764517-2.585857-1.55268-4.654706.440543-7.06936,4.492933-5.442834,5.680837-5.348647,8.761156,1.238401.309084.660931.716061,1.366367.731657,2.058925.075983,3.377302.034322,6.757253.034322,9.194554Z"/>
  <path class="cls-3" d="M67.940448,138.857861c-3.236899-.363536-6.056352-.428179-8.750201-1.042724-3.883642-.88601-7.72708-1.894754-7.174182-7.461543.237716-2.393686-.387657-4.977796-1.087421-7.337178-1.326486-4.472406,1.19527-4.476262,4.031506-3.472278,5.687366,2.013241,11.353902,3.829935,17.503317,3.441521,1.831786-.115695,1.602705.879942,1.208815,2.264452-1.03807,3.648828-2.012461,7.332701-2.68794,11.061315-.407759,2.251036-1.28674,3.158553-3.043893,2.546435Z"/>
  <path class="cls-2" d="M21.459381,259.731401c10.141337,6.213656,20.558624,8.759214,31.566341,9.018813,2.322382.054746,2.893493,1.031357,2.33814,2.933906-.539892,1.849528,1.55751,5.071566-2.751079,5.068707-6.921572-.004558-13.733001-.902583-20.531452-2.037607-2.88046-.480876-5.750532-1.181275-8.650096-1.345891-2.874308-.16316-3.403219-1.574368-3.077351-4.00283.40525-3.020178.700411-6.055108,1.105499-9.635098Z"/>
  <path class="cls-2" d="M116.540476,266.98952c6.577788.663534,13.461989-1.637043,20.46038-3.109363,4.292696-.903068,7.47679,2.304595,6.591441,6.661792-.286878,1.412153-1.352847,1.464202-2.27921,1.544541-9.936351.861536-19.63612,3.246525-29.495139,4.536618-5.692871.744925-3.461366-4.639638-4.433167-7.184927-1.190953-3.119125,1.87798-2.332858,3.56935-2.428947,1.611771-.091585,3.232878-.019714,5.586344-.019714Z"/>
  <path class="cls-1" d="M174.194527,50.393487c4.599055,4.625479,6.164956,8.600289,3.614087,14.308878-2.378236,5.322225-3.444745,11.179181-8.804922,14.680855-2.843252,1.857444-7.493358,1.715158-9.215325-.618402-2.105659-2.853539-2.031996-5.721898.516337-8.320531,1.460561-1.489431,3.17886-1.869593,5.227855-1.143924,3.381984,1.197766,5.121004-.106377,5.925298-3.624462,1.100939-4.815628,2.219363-9.619706,2.736671-15.282415Z"/>
  <path class="cls-1" d="M142.037621,40.854107c.738564-8.00779,5.536804-13.441739,11.989124-17.371417,3.12619-1.903937,4.06545,1.925782,5.384083,3.699333,2.999048,4.033601,2.192434,5.899857-2.64234,6.911008-2.007226.419806-4.152765.486499-6.007433,1.259808-3.201579,1.334888-3.564763,3.806594-.875905,5.476977,1.827091,1.135031,3.858926,1.940628,2.959492,4.563809-.626317,1.826598-1.709016,3.370951-3.984179,3.606716-2.645362.274128-4.523288-.651445-5.869174-2.965445-.955126-1.642053-.933971-3.358134-.953669-5.180788Z"/>
  <path class="cls-2" d="M91.543261,65.864776c-.869106,4.367606-1.071474,8.109556-6.413465,10.700193-6.352323,3.080574-12.168288,7.403709-18.612566,10.639365-5.070709,2.546004-10.655893,3.158904-15.671396,5.558199-.761257.364169-1.57324.376427-1.751271-.516569-.230188-1.154307-.189552-2.47861,1.179566-3.005237,1.780843-.685,3.590558-1.378752,5.451216-1.759251,13.553865-2.771609,23.623077-11.260639,33.429211-20.202228.539542-.49196,1.082159-.981519,1.64469-1.446416.083214-.06877.285097.005947.744015.031944Z"/>
  <path class="cls-3" d="M129.069195,136.437638c-.186395-4.213994,1.439083-8.02559.92048-12.002274-.391354-3.00045,1.949754-3.185738,3.863999-3.69075,7.078637-1.867449,8.064091-.819115,6.07586,6.378056-.77839,2.817833-1.653918,5.610154-2.373864,8.442375-.606782,2.386957-2.02061,3.60433-4.438402,4.208627-3.383764.845706-5.275776.510298-4.048073-3.336033Z"/>
  <path class="cls-2" d="M140.428008,333.524507c6.687391.523351,13.800458,6.345801,15.535539,12.231196.634304,2.151576.880546,3.592881-2.157897,2.693212-6.640388-1.966086-12.486411-4.939905-15.371701-11.787807-1.054691-2.503137-.49297-3.727562,1.994059-3.136601Z"/>
  <path class="cls-2" d="M61.627709,116.797474c7.807515-8.070101,15.220842-15.92939,20.711506-25.635563.836942,3.857739-3.114641,15.034614-6.130149,17.98071-2.200961,2.150335-4.795164,4.053666-6.450809,6.569006-2.307973,3.50638-4.702074,3.195824-8.130549,1.085847Z"/>
  <path class="cls-2" d="M52.011666,353.463334c-.072016.681522-1.446935.183332-2.240868.064805-5.649051-.843602-13.137201-8.748966-13.756881-14.384066-.140579-1.278389-.71115-2.805077,1.556241-2.718778,5.660276.215532,14.990412,10.516726,14.441507,17.038039Z"/>
  <path class="cls-1" d="M136.796005,323.497826c-.14236-5.741221,3.19602-9.766165,6.114229-13.922878,1.165535-1.660155,3.040008-2.540435,5.016096-1.362746,1.840421,1.09681,1.826012,3.29585,1.084048,4.746972-2.307164,4.51205-4.215742,9.37585-8.57093,12.50765-.915947.658652-1.732491,1.89915-3.016587,1.34457-1.759959-.760081-.493456-2.320587-.626857-3.313568Z"/>
  <path class="cls-1" d="M114.682732,354.14855c.328161-6.10926,8.039915-16.409564,13.628147-18.507284,1.48177-.556253,1.9742-.048948,1.911924,1.228605-.063085,1.29573-.087531,2.749117-.676613,3.837243-2.999858,5.541708-6.259611,10.933767-10.864872,15.345143-.932029.892766-2.013918,2.172072-3.382146,1.554816-1.563688-.705416-.350718-2.362766-.616442-3.458524Z"/>
  <path class="cls-2" d="M137.716485,309.511438c-2.268687,4.422191-4.643576,8.267228-5.636316,13.988195-4.657553-7.316803-11.226761-9.490466-18.277552-11.064457,7.788546-.952232,15.577092-1.904463,23.913868-2.923738Z"/>
  <path class="cls-1" d="M80.513634,338.864329c.393782,3.584683-.309327,6.161067-2.298583,8.597188-3.451275,4.226561-7.910507,6.931288-12.741719,9.176525-.655189.304475-1.347559.70876-2.050317.172086-.603463-.460892-.332235-1.083002-.069858-1.582216,3.812948-7.254856,9.074639-12.961018,17.160477-16.363583Z"/>
  <path class="cls-2" d="M132.930064,96.939459c.076468-3.705799.781251-6.227477,2.639048-8.741671,4.346661-5.882401,8.887812-11.729406,10.695476-19.374659,2.942601,2.142541,3.251766,4.190989,1.426779,7.300083-4.208457,7.169541-8.4664,14.250788-14.761304,20.816248Z"/>
  <path class="cls-1" d="M89.760799,331.633205c-2.543314.098327-2.638131-1.230169-1.624399-2.738222,3.441453-5.119704,7.497189-9.636177,13.065671-12.57909,1.28075-.67691,2.175759-.982113,2.235984,1.008272.14468,4.783245-9.18926,14.461978-13.677256,14.30904Z"/>
  <path class="cls-2" d="M103.743766,358.536302c-8.108342-3.027028-13.029568-9.048236-15.610334-17.165114,6.082876,1.57604,14.574909,10.946739,15.610334,17.165114Z"/>
  <path class="cls-1" d="M64.428813,146.934205c-4.309614-.449228-8.748016-.374728-12.730926-2.552166-1.740882-.951746-3.4836-2.438157-2.372218-4.456387,1.130242-2.052439,2.885884-.612253,4.553347.067704,3.381849,1.379022,6.991618,2.008966,10.632688,2.508167,1.912329.262188,5.22146-.532143,5.010889,2.63527-.20647,3.105102-3.324727,1.107098-5.093779,1.797412Z"/>
  <path class="cls-2" d="M112.534603,317.456877c8.163279.407764,13.987986,3.850916,17.705955,10.777754-5.499892,1.549072-11.721889-2.167002-17.705955-10.777754Z"/>
  <path class="cls-1" d="M30.943668,335.202839c-.059739,6.131375-3.896566,9.543243-7.615183,12.796214-1.849136,1.617599-4.873602,4.516634-6.715426,2.541217-1.93718-2.077628.837698-5.301472,2.661929-7.107231,3.232015-3.199303,6.47431-6.653323,11.66868-8.2302Z"/>
  <path class="cls-2" d="M18.985412,309.97829c3.545497,6.426033,9.713017,10.27107,10.063061,17.716782-7.221482-1.597049-10.652736-7.316641-10.063061-17.716782Z"/>
  <path class="cls-2" d="M80.738398,330.959153c-6.629595-4.472649-12.868051-9.333644-16.78847-16.496079,8.002274,3.109794,13.302118,8.90266,16.78847,16.496079Z"/>
  <path class="cls-1" d="M53.256962,317.031341c.002267,3.993499-8.515886,11.866285-12.510263,11.553019-2.035369-.1596-1.521866-1.679815-.972017-2.517269,2.899348-4.415907,6.302675-8.354794,11.358732-10.456505,1.398987-.581522,2.293942-.361216,2.123548,1.420756Z"/>
  <path class="cls-2" d="M145.73843,264.802427c.282237-3.849109,3.656989-3.204777,5.558444-3.289162,2.936935-.130339,2.552003,2.977163,2.647413,4.841281.197674,3.861003-3.756446,3.95461-5.640147,3.916504-2.846705-.057578-1.59909-3.60437-2.56571-5.468623Z"/>
  <path class="cls-2" d="M66.482261,27.966962c-2.399633-6.341055-3.389647-12.352561-6.893105-17.330654-1.025766-1.457494-.571975-2.496786,1.06114-2.960274,1.301797-.369462,2.627769-.608396,3.010381,1.344603.751597,3.836367,1.793013,7.631175,2.282529,11.497807.28024,2.214008,2.072632,4.254008.539056,7.448517Z"/>
  <path class="cls-2" d="M31.879825,104.672683c-.648119.817429-.680984,2.076077-1.845979,2.322098-.961736.203127-1.17247-.715542-1.436466-1.334349-1.544747-3.620794-3.097858-7.240064-4.525096-10.907689-.474811-1.22011-.756831-2.619466,1.063784-3.23153,1.66096-.558383,1.935048.622191,2.395423,1.742598,1.549199,3.77024,2.108141,7.909261,4.348334,11.408872Z"/>
  <path class="cls-1" d="M164.715583,325.409436c.084401,5.339066-1.136016,10.363275-3.371622,15.13905-2.257192-5.796129-.552115-10.712086,3.371622-15.13905Z"/>
  <path class="cls-2" d="M141.252755,102.973895c.017862,2.579377-6.724141,6.90463-8.886247,5.411639-1.635624-1.129415-1.067373-3.630004.27711-4.439666,2.174626-1.309578,4.825816-1.879032,7.328171-2.572055,1.168773-.323676,1.46871.569481,1.280966,1.600083Z"/>
  <path class="cls-2" d="M46.49089,32.135392c2.857579,1.994504,5.625415,4.143417,8.616665,5.91562,1.341731.794917,1.054853,1.235219.575239,2.313812-.721808,1.623323-1.516037.790104-2.400145.331484-1.688806-.876086-3.399037-1.71116-5.083094-2.596118-2.626636-1.380276-4.056006-3.128612-1.708665-5.964797Z"/>
  <path class="cls-3" d="M155.959446,323.624983c-.777095-2.740056-1.716463-5.4505-1.792716-8.776852,2.769643,1.420594,5.553749,2.234099,7.475279,3.990344,2.3798,2.175119-.915246,3.849811-1.437195,5.82361-1.203418-1.211399-2.9249-.304205-4.245369-1.037102Z"/>
  <path class="cls-2" d="M147.670537,330.27213c-1.41631-.295548-2.832566-.591123-4.810652-1.003903,3.030834-2.872175,5.169681-5.897153,7.684933-10.005268.624159,3.250112,1.064944,5.545268,1.50573,7.84064-1.222846,1.383863-4.901799-.624483-4.380011,3.168532Z"/>
  <path class="cls-2" d="M189.359759,81.592023c2.509316,1.527605,5.312634,2.159086,8.064954,1.358876,3.141462-.91337,4.228208.494711,4.970658,3.349828-4.88685.395561-9.894043,2.559205-13.18148-3.065391.048461-.547839.097191-1.095569.145867-1.643313Z"/>
  <path class="cls-1" d="M98.194226,36.181777c.27479-2.603238,2.097672-4.405666,5.165687-4.977452,1.02868-.191719,1.954071.414196,1.437249,1.446942-1.32171,2.64094-1.205415,6.398309-4.274294,7.625606-1.348476.539303-2.363287-1.730617-2.328642-4.095096Z"/>
  <path class="cls-2" d="M196.748046,79.321907c-5.056732.631819-8.4596-1.951011-8.173802-6.180619.047921-.709394-.186557-1.608025.765817-1.749192.435875-.06459,1.010332.410987,1.437626.748282,2.383308,1.881284,4.740821,3.79524,7.107076,5.698058-.378888.494481-.75783.988976-1.136718,1.483471Z"/>
  <path class="cls-1" d="M137.005227,144.92408c-.065028,1.516683-.889828,2.371167-2.334524,2.71035-1.260837.29602-2.531442.565881-3.768373.943197-.925445.28228-1.839018,1.314715-2.779681.48124-1.076817-.95416-.333342-2.377006.092226-3.217223,1.391324-2.746838,4.296959-2.253112,6.747994-2.571206,1.077087-.139778,2.019584.287983,2.042358,1.653642Z"/>
  <path class="cls-2" d="M162.589148,84.201308c3.15954.96345,5.201358-1.535264,7.036274.888545,1.909604,2.522406,1.268662,4.821392-1.096352,7.13397-1.766921-2.386404-3.44658-4.654969-5.939922-8.022515Z"/>
  <path class="cls-2" d="M155.024017,308.831238c4.580437-.627935,7.423851.904255,9.243927,4.326776.323844.608895.242465,1.733833-.727987,1.620646-3.630438-.423514-6.484159-2.112849-8.51594-5.947422Z"/>
  <path class="cls-2" d="M35.004719,86.461378c.12984-.350766.175629-.64204.328485-.857437.575752-.811361,1.408755-1.162276,2.28922-.695316,2.183476,1.158001,4.597949,2.07988,6.06272,4.191718.801326,1.155318-.806236,1.65851-1.176976,2.531158-.272064.640395-1.025442.7975-1.388842.197234-1.284123-2.12102-3.471916-3.0662-5.370808-4.398027-.328916-.230716-.51604-.663385-.743799-.96933Z"/>
  <path class="cls-2" d="M152.265005,20.817566c-2.083425.869661-2.951667,2.751936-5.204218,2.926813-.553788-2.554944-1.111246-5.126932-1.936586-8.934881,2.847245,2.3956,4.756633,4.002095,7.140805,6.008068Z"/>
  <path class="cls-2" d="M140.499566,31.143827c.326812-4.263231.653624-8.526463.980381-12.789694,1.550575,4.389862,3.498278,8.789817-.980381,12.789694Z"/>
  <path class="cls-3" d="M147.670537,330.27213c-.521787-3.793015,3.157166-1.784669,4.380065-3.168532,1.299314,2.158857,1.231156,4.598052,1.809283,7.381878-2.768078-.980818-4.631218-2.364924-6.189348-4.213346Z"/>
  <path class="cls-2" d="M42.143905,58.988011c-3.816132-.229994-3.883264-.24956-3.606829-1.473358.564069-2.496854,2.957172-2.788781,4.726386-3.175678,2.419411-.529089,1.072661,1.741115,1.293054,2.73481.488626,2.203086-.739482,2.494022-2.412611,1.914226Z"/>
  <path class="cls-2" d="M27.286625,64.490514h-11.137638c1.735567-3.112228,5.299682-3.281678,11.137638,0Z"/>
  <path class="cls-2" d="M12.442809,83.295382c-.302123,1.871467-2.07784,2.370884-3.481711,2.200524-.931246-.113012-3.185767.196965-2.851589-2.234315.341787-2.486511,2.102663-1.840278,3.593149-1.764941,1.166965.05898,2.813139-.553475,2.740151,1.798733Z"/>
  <path class="cls-2" d="M155.959446,323.624983c1.320468.732897,3.04195-.174298,4.245315,1.037102-.764953,1.831163-1.529852,3.662191-2.557723,6.122664-.663391-2.81457-1.175465-4.987154-1.687592-7.159765Z"/>
  <path class="cls-3" d="M71.187897,118.112797c2.427128-1.598977,2.981186-3.834506,5.618615-4.683812-.818432,2.790972-.518657,5.876333-5.618615,4.683812Z"/>
  <path class="cls-3" d="M39.771552,140.70596c-.522785-.679998-2.003395-1.713553.235935-1.723855,1.477345-.00681,2.891253,1.239069,4.525609.553178.206902.99766.583874,2.016989-.371279,2.864165-1.463449-.564276-2.92687-1.128889-4.390265-1.693488Z"/>
  <path class="cls-3" d="M189.359759,81.592023c-.048676.547744-.097407,1.095475-.145867,1.643313-.422869-.068015-.932676-.008927-1.253336-.227277-1.110059-.755874-2.34645-2.01409-1.127058-3.065296.998514-.860808,1.821911.80884,2.526261,1.64926Z"/>
  <path class="cls-1" d="M114.493315,23.619333c-.106743-.092927-.315803-.210887-.300369-.273636.060926-.247544.192277-.477754.297563-.714389.107498.09085.319365.208049.304254.267966-.063031.24952-.194382.481793-.301448.72006Z"/>
  <path class="cls-4" d="M134.131216,346.722093c1.876631.52381,2.025305,2.339196,2.431229,3.750674.402093,1.398102-.34775,2.719937-1.876523,2.956856-1.747709.270818-2.19945-1.098563-2.342673-2.507668-.169018-1.661908-.040096-3.234713,1.787967-4.199862Z"/>
  <path class="cls-4" d="M69.379585,335.277893c-.448719,1.19449-.789777,2.659015-2.502517,2.385609-1.272494-.2031-2.657099-.743873-2.692716-2.334962-.041175-1.838336,1.509319-1.873341,2.784834-1.910423,1.203904-.035005,2.337708.26831,2.410399,1.859776Z"/>
  <path class="cls-4" d="M84.87573,357.183534c-.223253,1.135914-.208143,2.484448-1.770266,2.55694-1.931999.089616-2.314449-1.487961-2.531172-2.879537-.241385-1.550313.72135-2.577813,2.225731-2.49235,1.579932.089805,1.919318,1.483943,2.075708,2.814947Z"/>
  <path class="cls-4" d="M117.974432,334.559101c.022989,1.476122-.863008,2.092191-2.185473,2.215842-1.257869.117664-2.498577-.047492-2.588915-1.629681-.087855-1.538365.851567-2.500548,2.349418-2.648552,1.393051-.137647,2.143434.747648,2.424969,2.062391Z"/>
  <path class="cls-4" d="M82.114127,318.169251c.014571-.956816-.332856-2.31514,1.172065-2.225038,1.573402.094228,2.602676,1.120407,2.60246,2.861225-.000108,1.31334-.459943,2.307481-1.95515,2.245049-1.914299-.079989-1.557483-1.696131-1.819374-2.881236Z"/>
  <path class="cls-4" d="M34.57389,314.630926c2.050129-.23557,2.700676.747729,2.749757,2.281942.045654,1.428523-.29052,2.778351-2.046702,2.725061-1.423029-.043231-2.46234-.83241-2.570054-2.446638-.105097-1.575285.463154-2.560985,1.866999-2.560365Z"/>
  <path class="cls-4" d="M98.142744,339.67832c-1.424999.279124-2.310671-1.401311-2.437597-3.090593-.150131-1.997424,1.838802-1.387638,2.949778-1.488339,1.745335-.158197,3.946457-.116099,4.01591,2.186257.060872,2.01436-2.014997,2.079273-4.528091,2.392674Z"/>
  <path class="cls-4" d="M34.4825,353.452385c-.004911,1.102608-.275302,2.016625-1.633411,1.957591-1.44707-.062918-1.899512-1.022916-1.964513-2.304137-.053128-1.046433.499554-1.67817,1.461965-1.708267,1.307301-.040857,2.165236.597595,2.13596,2.054813Z"/>
  <path class="cls-4" d="M48.921633,333.934887c.274601-1.348345,1.25536-1.567491,2.344723-1.498101,1.244567.079287,1.866324.988423,1.883539,2.056889.01538.954955-.721242,1.591736-1.772668,1.492195-1.277377-.120954-2.223734-.703798-2.455594-2.050983Z"/>
  <path class="cls-4" d="M20.18168,331.62177c-.197674,1.570836-1.300825,2.294158-2.693984,2.226252-1.047891-.051105-2.561447-.266287-2.263749-1.92415.235395-1.310994.937776-2.523364,2.583383-2.429675,1.279779.072842,2.158463.743414,2.37435,2.127574Z"/>
</svg>