<?xml version="1.0" encoding="UTF-8"?>
<svg id="Layer_1" xmlns="http://www.w3.org/2000/svg" viewBox="0 0 231.672894 284.617597">
  <defs>
    <style>
      .cls-1 {
        fill: #b1d269;
      }

      .cls-2 {
        fill: #72b655;
      }

      .cls-3 {
        fill: #559c45;
      }

      .cls-4 {
        fill: #2d6247;
      }

      .cls-5 {
        fill: #e44826;
      }
    </style>
  </defs>
  <path class="cls-4" d="M135.261319,259.079522c-.689822-2.66284-1.632622-5.274266-2.657655-7.83079-.617799-1.540839-.507548-3.148388-.856207-4.706465-.439111-1.962069-.602035-3.985866-.884001-5.98261-.244186-1.051555-.641085-2.095787-.695326-3.157505-.072944-1.427748-.60856-2.616607-1.345725-3.769148-.025776-1.577358-1.253355-2.431625-2.168262-3.421951-.9948-1.076714-2.330762-.808632-2.91128.527895-.35765.823379-.724041,1.721288-.198038,2.645104.007123,1.599279.014245,3.198607.021318,4.797885-.012801.932036-.025577,1.864023-.038353,2.79606-.216069,3.896538-.30301,7.80588-.689125,11.68548-.307144,3.086163-.920485,6.147316-1.50444,9.199152-.824031,4.306608-1.869287,8.585517-1.454706,13.021458.213404,2.283509.545652,4.55561.793598,6.83623.104822.96422,1.399194,1.661853.543186,2.866157-.996443.177908-1.739038-.433535-2.315222-1.155131-1.700984-2.130262-3.356991-4.298089-4.977559-6.490427-1.151895-1.558326-2.289147-3.136631-3.296075-4.789516-.621336-1.019919-.843382-2.289288-1.492635-3.284945-1.786306-2.739364-3.028579-5.687774-3.86815-8.832525-.155079-.580953-.489144-1.115773-.754-1.66539-.640985-1.3302-1.451443-2.604102-1.903156-3.995033-1.060646-3.265864-2.078507-6.556888-2.868644-9.895738-.584702-2.470783-.783512-5.032887-1.154211-7.554288.009015-.276203.018031-.552456.027071-.828759.453506-2.4245.912939-4.847855,1.355139-7.274448.083031-.455705.097151-.923916.143075-1.386048.320443-1.039499.64091-2.079396.961353-3.119243.571876-1.357949,1.143752-2.715899,1.715628-4.073848.394881-.652744.789763-1.305439,1.184669-1.958183.658792-1.06132,2.246237-1.237883,2.529697-2.655716.379142-.534172.758458-1.069142,1.1378-1.604111.625171-.868715,1.250342-1.73743,1.87499-2.603355.148056-.325226.296659-.653193.445512-.981907.614288-.934079,1.228351-1.867461,1.842415-2.800793l1.607145-3.432662c.628807-1.892072,1.257589-3.784194,1.886371-5.676266.017084-.402597.034144-.805144.051228-1.207742.144619-.417543.384198-.827464.41869-1.253925.26259-3.247331-.554841-6.263447-2.143881-9.065634-.637997-1.12514-.972411-2.52718-2.378479-3.07316-.238309-.300466-.476642-.600981-.714976-.901447-2.211521-1.610488-3.682215-1.118514-4.973998,1.663547-.23791.311227-.602956.59022-.692786.939958-.413086,1.608196-.767698,3.234477-.466406,4.915461-.340316,1.983891-.680658,3.967831-1.021746,5.952369-.303408,1.360191-.606069,2.719785-.90873,4.079378-.399115,1.509403-.798206,3.018856-1.197296,4.528258-.076331.112245-.099368.234554-.069084.366876-1.010863,3.012528-2.021725,6.025107-3.03224,9.036689-.925964,1.814601-1.859649,3.62716-2.320477,5.634566-.329383.981358-.658742,1.962667-.9881,2.944026-1.105524,2.109637-.918767,4.505042-1.488401,6.733201-.116353.234504-.23268.469057-.348585.702764.000473-.000797-.016885.04145-.016885.04145.011605.415052.023236.830055.035015,1.242068-.089082.861939-.178364,1.727018-.267646,2.592046.089257,2.092648.178489,4.185346.267571,6.276549.233104,1.470992.466382,2.943428.699684,4.415864.185487.807087.370899,1.614075.556286,2.421113.398642,3.500468,1.373169,6.853966,2.425548,10.207264.980579,3.124574,1.960312,6.268379,2.324661,9.554022.091075.821386.251657,1.621598-.799774,2.004666-.451339-.946036-.888757-1.862877-1.325005-2.778722-.532253-.554399-1.065652-1.109845-1.599051-1.665241-1.826202-1.813954-4.036926-2.853054-6.561543-3.257793-1.802518-.445841-3.618087-.848089-5.406123-1.348733-2.359975-.660815-4.698345-1.398752-7.045992-2.103509-2.256772-1.304293-4.436689-2.680028-6.046087-4.823842-1.557399-2.074514-3.230253-4.06234-4.850186-6.086037-.625731-1.331296-1.253716-2.664734-1.881689-3.998221-.976395-2.134746-1.952791-4.269492-2.928389-6.403192-.525156-2.382203-1.051096-4.765552-1.576774-7.149599-.003536-.313867-.007334-.626888-.01112-.939958-.063917-1.499937-.606779-2.922852-.35892-4.499213.321539-2.04512.058388-4.19536.486728-6.206652.422301-1.983044.652615-4.099855,2.066715-5.803805.468884-.565011.526849-1.471191.772903-2.221234.000212.000149-.049024.028946-.049024.028946.105457-.134813.210914-.269577.316371-.404391.414743-.839919.829485-1.679888,1.244228-2.519807.41092-.856459.821827-1.712918,1.23119-2.567235.376066-.527197.753702-1.056537,1.131324-1.585927.826895-.869412,1.722265-1.684421,2.465083-2.620593,1.195652-1.506762,2.290604-3.093486,3.427881-4.646083.219792-.393032.439796-.786312.659813-1.179643.330031-.55425.660062-1.108549.990118-1.662799.572063-.516984,1.221465-.971843,1.69822-1.565451.737066-.917589,1.16898-2.184317,2.067001-2.845531,1.540376-1.134157,2.618792-2.527877,3.45718-4.180364.052685-.137304.105407-.275107.158129-.41296.810882-.93657,1.611852-1.878172,1.651163-3.21161.37842-.210839.756827-.421678,1.135234-.632567.271207-.356713.542402-.713376.813596-1.070088.622232-.908372,1.244464-1.816794,1.866672-2.725215.686585-1.12783,1.373169-2.25566,2.060028-3.382992.514397-.950171,1.02852-1.90079,1.55898-2.881601-.334663-1.19718-.675204-2.415533-1.015769-3.633836.141755-2.134248-.983269-3.787781-2.096463-5.432944-.228173-.337283-.542962-.875341-1.077581-.281335-.882855.433635-1.698232.938164-2.038461,1.941743-1.231987.864032-2.46395,1.728064-3.695912,2.592146-1.244103.278545-1.302105.373004-.710343,1.157025.258543.296779.519988.591117.775082.890835,1.014835,1.192447,1.879423,2.470883,2.076316,4.071407.212832,1.730007-.236702,2.488171-1.951047,2.914034-1.151385.286068-2.367658.310778-3.554905.452417-.808802-.298224-1.617592-.596448-2.426394-.894671-.41143-.556243-.822861-1.112485-1.365997-1.846785-.519452.949872-.892219,1.631512-1.264998,2.313202-1.245373,1.647654-2.490734,3.295308-3.656252,4.837343.166335.746954.29138,1.308528.435749,1.956838-2.697614.913653-4.137664,2.850563-4.917764,5.366982-.41803.600882-.83606,1.201713-1.254102,1.802545-1.093084,2.559264-2.186156,5.118479-3.279227,7.677743-.155054.498302-.310107.996653-.465161,1.494955-.226728.694344-.453469,1.388738-.680209,2.083083-.454266,1.311168-.908519,2.622386-1.362772,3.933555-.115394.465171-.230788.930293-.346032,1.395912-1.206809,4.043458-1.51333,8.188998-1.407886,12.381418-.001245.726179.077091,1.46317-.020073,2.176246-.211972,1.555636.446608,3.066035.356081,4.519689-.096716,1.553245-.006849,3.032307.208722,4.53897.053943.704557.107885,1.409165.161815,2.113722-.028117.0415-.089232.098046-.078423.12181.038726.085043.101833.159026.155714.237194.166049,1.056986.332085,2.114021.498122,3.171007-.284132.382818-.570232.746406-.960419.098893-.038826-.314216.040843-.745111-.135342-.924065-1.347481-1.36896-2.715906-2.720682-4.137489-4.012071-.858785-.780085-2.251455-.827414-2.848957-2.000182-1.043749-.864929-2.078694-1.744106-3.142665-2.586665-.339345-.26873-.755769-.440162-1.136928-.656082,0,0,.021679.02765.021667.02765-1.493806-1.22747-2.987624-2.454941-4.481342-3.68261-1.466648-1.204553-2.933395-2.408957-4.400154-3.61336-.93498-.862587-1.869972-1.725124-2.804964-2.587712-.621522-1.102471-1.200235-2.231896-1.874666-3.300987-.998174-1.58224-2.078806-3.112368-3.089332-4.687135-.203667-.317355-.317193-.727574-.359854-1.107603-.252554-2.249731-.474687-4.480481-.323979-6.776794.081126-1.236289,1.085737-1.843696,1.17289-2.919414.069408-.248653.138941-.497804.208473-.746905.264981-1.66808,1.72463-2.509145,2.59786-3.754899.118731-.233557.238184-.467862.357637-.702116.599345-.738784,1.19869-1.477518,1.798048-2.216302.193244-.321938.386464-.643876.579683-.965815.671368-1.132314,1.342749-2.264677,2.014217-3.396742.138766-.403444.277446-.807137.416125-1.21083.252442-.386954.514658-.767929.755545-1.161957.804979-1.316748,1.562516-2.664584,2.413867-3.950394.847429-1.279881,1.805395-2.486128,2.674291-3.752558.299025-.435777.398443-1.016083.720542-1.427299,2.408986-3.075352,3.803337-6.815504,6.454865-9.739153,1.211379-1.33573,2.260868-2.82092,3.353131-4.261521.991848-1.308179,2.346601-2.390274,2.743276-4.040344-1.475451-1.169903-2.839356-2.251375-4.346-3.445989-.503539.582647-1.010888,1.105336-1.443798,1.683749-.96606,1.290767-1.892124,2.611401-2.839531,3.916192-2.652587,3.653167-5.867785,6.85282-8.164391,10.815818-1.817075,3.135535-4.218665,5.93005-6.328078,8.899185-1.128261,1.588019-2.187613,3.225111-3.278057,4.840033-.565226.963025-1.087717,1.954596-1.706052,2.882199-.848811,1.273454-1.770243,2.498384-2.660556,3.744138-.296709.504828-.593406,1.009656-.890102,1.514485-.553584.944292-1.107155,1.888585-1.660739,2.832877-.000012,0-.011966.016341-.011854.016192-.09618.131127-.19246.262403-.28874.393679-.201811.564214-.40361,1.128428-.604961,1.691595-.146574.525703-.293608,1.052552-.440643,1.57935-.283385.642432-.566758,1.284863-.870652,1.973827-1.600595-.905582-1.147911-2.909849-2.230498-4.055315-.442249-.927652-.884611-1.855504-1.326972-2.783355-.447392-.658822-.894772-1.317595-1.342139-1.976418-1.08763-2.538788-2.230958-5.055456-3.248109-7.622193-1.140502-2.878064-3.080516-5.443605-3.349993-8.673499-.047368-.567651-.482968-1.113482-.779141-1.647255-.426834-.769124-.922179-1.501133-1.3327-2.278328-2.467872-4.672438-3.49166-9.794504-4.613845-14.886254-.099144-.449876-.291155-.879252-.439871-1.318218.000635-1.072206.001096-2.144337.001557-3.216492-.086804-1.209635-.345459-2.436432-.226703-3.625541.30154-3.019802.772118-6.022715,1.174496-9.032678.039486-.267011.079507-.533699.119515-.800411.517074-.590145-.108545-1.691247.917858-2.053639,1.402942-2.880081,2.805897-5.760138,4.208865-8.640219.003599-.197886.00721-.395772.010808-.593658,0,0,.110948-.075727.110201-.076574.677569-.664602,1.710373-1.017727,1.869685-2.136291.796948-.939759,1.593896-1.879492,2.391043-2.819799.307443-.283228.614686-.565883.921942-.848513,3.907586-2.583377,7.815172-5.166729,11.775592-7.785055-.168876-.432514-.339557-.869637-.510238-1.306759-.115244-.897885-.230501-1.795794-.345758-2.693679.526351-4.084585,2.600786-7.330272,5.897085-9.60008,2.520445-1.735587,5.420842-2.797479,8.652938-2.088264.653375.143358,1.352536.1316,2.028113.110875,2.694887-.082726,5.237621.504928,7.717759,1.538946,1.541435.642631,3.153722,1.115225,4.845118,1.702655.545129-.954456,1.055504-1.750583,1.471902-2.593167,2.553182-5.166381,5.054114-10.343971,7.99904-15.323426,2.663931-4.504295,5.380136-8.960289,8.382851-13.236009,3.042276-4.332042,6.320756-8.49726,9.96092-12.341388,2.422933-2.558641,5.082144-4.893789,7.641926-7.322325.928554-.880871,1.875538-1.742337,2.814029-2.612397.678167-.529116,1.356409-1.058555,2.034651-1.587994.115431-.133717.230837-.267435.346244-.401177.147956-.047479.295912-.094982.443843-.142486,3.307481-2.290285,6.63105-4.558001,9.905782-6.89417.513426-.366278.805179-1.043434,1.199462-1.57681,1.957796-1.863849,3.915618-3.727673,5.873414-5.591521,1.295194-1.320684,2.348095-2.928158,4.22057-3.568298.043035-.014722.055661-.118398.082483-.180573,2.58359-1.248793,5.167155-2.497612,7.750745-3.746405,2.37412-.688191,4.748216-1.376383,7.120618-2.063902.718089-.261656,1.437945-.523984,2.157777-.786287,1.455129-.535443,2.910259-1.07091,4.364641-1.60568.891845-.436051,1.784413-.872775,2.676981-1.309474,1.709725.042173,3.073307-.526077,3.826261-2.170965,1.183424-1.416115,2.366848-2.832229,3.550248-4.248169.391096-.264944.782292-.530037,1.173487-.795155.844926-.593035,1.689852-1.186095,2.534778-1.77913l1.719139-.391587c1.736273-.793287,3.472546-1.586574,5.358444-2.448215.559997.120141,1.383878.296904,2.207461.473691,1.832752.585039,3.661868,1.182782,5.500523,1.749536.882357.271969,1.782769.485199,2.675013.725034,1.456524.813564,2.913048,1.627128,4.369572,2.440692,1.105872,1.357302,2.581.704682,3.931631.72319,1.713984-.265915,3.429238-.532179,5.144492-.798444,1.604654-.247083,3.209334-.494167,4.813988-.741225.633613-.021946,1.267227-.043867,1.899396-.065464,2.04907-.309857,3.630838-1.476073,5.122526-2.806796l2.942036-2.818977c1.405196-.731934,2.810393-1.463867,4.216461-2.196174.991985-.000822,1.987333-.05966,2.973291.011409,1.66293.119843,3.319908.322038,4.979402.489608.497188.068752.994401.137504,1.491589.206281,1.770766.361421,3.567108.631969,5.302036,1.120681.940658.264994,2.022771.696437,2.615492,1.40767,2.11813,2.541503,4.091516,5.207831,6.031257,7.890874.45256.625991.75684,1.496076.78675,2.267168.126987,3.27127-.102008,6.518053-1.57858,9.524478-1.01151,2.059567-2.068969,4.09968-3.196234,6.097446-.369529.654912-.349855,1.184301-.258157,1.895236.284381,2.204644.630575,4.442169.526376,6.646738-.165065,3.493194-.675552,6.970096-1.039926,10.453874-.279127.907973-.558228,1.815972-.83733,2.72397-1.409928,2.454418-3.65893,3.504727-6.360167,3.739854-1.949653.169737-3.905232.274385-5.859194.390067-.908332.053781-1.683875.246087-2.256946,1.085358-1.283738,1.880065-3.108496,3.16463-5.026545,4.326736-1.6189.980835-2.046281,2.485107-1.2093,4.212598.228048.470726.446906.945886.669974,1.419029l.394632,1.604684c1.699116,9.298842.494648,18.656348.45886,27.927466.911495.41139,1.712041.772687,2.512613,1.134008.764884.238639,1.529792.477253,2.294676.715867,1.1572,1.154334,2.740736,1.437263,4.167673,2.040013,1.20148.973885,2.403109,1.947771,3.604763,2.921681.515966,1.420524,1.718168,2.233017,2.79535,3.156285.378046.360873.855485.661463,1.117204,1.092906,1.226334,2.021878,4.058344,2.794914,6.300845,1.858767,1.410302-.58875,2.929335-.968405,4.434472-1.264312,1.589537-.312547,3.163933.06098,4.395647,1.094002.795217.666893,1.299328,1.681083,1.933639,2.539311.053195.137454.106665.275207.160134.41296-.054864.133319-.034094.253585.062261.360773.012477.476829.024979.953634.037331,1.429915-.684966,2.796259-2.538239,4.197104-5.286471,4.87573-1.857308.45862-3.63801.426959-5.33618.083623.704117,2.445226,1.384526,4.808124,2.064934,7.171021.105121.52914.210291,1.058281.315437,1.587421.0714.320792.142751.641585.214127.962377.130224,1.613751.316657,3.225385.376926,4.841752.079395,2.130561.05972,4.264859.082657,6.397538-.026075.8937-.052174,1.7874-.078648,2.679156.101061.635357.202496,1.272682.303931,1.909982-.006724,1.200019-.013423,2.400039-.020148,3.600706-.100887.718432-.222943,1.434025-.297357,2.154575-.096504.934453-.0584,1.892944-.248071,2.805775-.56819,2.734382-.71261,5.588482-2.205793,8.078945-.152165.253784-.046397.66226-.060318.998945-.248171.969252-.496316,1.938504-.744462,2.907757-.411742.920379-.823458,1.840757-1.343782,3.00391-.866518-.515888-1.701208-1.012845-2.535898-1.509801-1.486135-.889889-2.927741-1.867212-4.467595-2.651681-3.297046-1.679688-6.77161-3.016614-9.829675-5.149766-.181602-.12734-.364449-.255877-.54727-.384363-.177094-.059236-.354213-.118472-.531307-.177709-.927483-.896066-1.854942-1.792133-2.934216-2.834919-.507025.595601-.891298,1.047022-1.275545,1.498492-.618123.441706-1.236296.883412-1.789867,1.278984,1.20651,1.094251,2.426095,2.02554,3.427196,3.151228,1.330932,1.496649,2.491594,3.144801,3.725947,4.728137.297581.724535.594613,1.448772.891646,2.172958.969148,1.907965,1.519009,3.948849,1.8529,6.047476.24192,1.520513.169697,3.13409.657621,4.562634.819424,2.399242,1.247503,4.805807,1.170225,7.321578-.358372,3.403667-.639715,6.818045-1.110131,10.206118-.210665,1.517075-.882805,2.964153-1.199537,4.473606-.523088,2.492854-.872246,5.022674-1.414311,7.510795-.175326.804696-.720878,1.530178-1.107466,2.286598-.148056.289655-.351075.552656-.484935.84784-1.010987,2.229654-2.010992,4.464289-3.072286,6.826066-1.281024-.831051-1.714308-1.967699-1.886969-3.020549-.399738-2.437404-1.570461-4.517597-2.61467-6.676307-.639765-1.322677-1.293576-2.658655-1.731865-4.054369-.826995-2.633297-2.023394-5.079718-3.385805-7.458683-.760476-2.489616-2.330837-4.550528-3.594677-6.774154-.591899-1.040595-1.132121-2.116313-1.802643-3.10345-.24695-.363538-.801443-.51808-1.21712-.768825.707704-1.229563-.608361-2.107046-.82966-3.230791-.648631-.786811-1.298282-1.575016-1.947934-2.363222-1.351055-1.745999-2.702109-3.492048-4.053338-5.238147-.675926-1.675653-2.045235-2.683217-3.486567-3.621431-.710767-.702515-1.41603-1.410759-2.133446-2.106398-1.339972-1.299211-2.686992-2.591199-4.03187-3.886225-.587914-.635855-1.175056-1.271611-1.762223-1.907367-.540472-.797671-1.162554-1.466508-2.416781-1.449718.215422,2.800543.777435,5.46717,1.744467,8.053586-.017308.043045-.060194.098744-.046546.128835.034667.076524.094586.141639.14442.211288.033247.118672.110774.16894.232606.150756l-.043508.152599.125816.096701c.133636,1.982147,1.193187,3.632989,2.020679,5.341474.71129,1.46855,1.124874,3.187796,2.696057,4.11211.40579.414703.811654.829506,1.217518,1.244359.10004,1.027492.518481,1.871197,1.31574,2.560211.839372.725582,1.615961,1.523701,2.41977,2.290036.396127.539104.792478,1.078309,1.188828,1.617513,1.45361,1.471838,2.905502,2.945371,4.361204,4.415117,2.87208,2.899885,5.600712,5.922427,7.95217,9.269399.072347.103028.206431.162613.311552.242276.412638.656481.825501,1.313211,1.238338,1.969891,1.315093,1.795969,2.309668,3.777468,3.413623,5.691909,1.332327,2.310412,2.759488,4.578926,3.857715,7.009654.879393,1.946376,1.440237,4.034092,2.238641,6.020424.905368,2.252372.743217,4.646781.877949,6.964915.084699,1.456544-.67605,2.96231-1.057409,4.445806-1.96325.905731-3.226791,2.594786-4.624267,4.133932-.598225.430895-1.196449.86174-1.794698,1.292635-.221448.264097-.442897.528144-.664345.792241l-1.73722,1.473981c-1.492411,1.538697-2.952372,3.110824-4.489013,4.603985-.969248.941801-2.028201,1.750084-2.628094,3.047602-.28874.624596-1.022393,1.037307-1.533478,1.566298-1.26242,1.306684-2.512663,2.625176-4.028733,4.212099-.251035-.788405-.562736-1.357202-.589184-1.939052-.049161-1.080451.130872-2.170417.095284-3.252512-.026149-.79533-.243862-1.584332-.376178-2.376025.100563-.53756.201052-1.075369.30154-1.613129-.11319-.412113-.226379-.824226-.339345-1.236139-.149376-1.478465.410621-3.039581-.514023-4.428269-.064103-.183837-.207378-.380327-.180082-.549318.371621-2.300946-.406711-4.262767-1.744292-6.067354-.052149-.408277-.104274-.816603-.156399-1.22488-.087613-.121013-.175226-.242076-.262864-.36309-.121383-1.376632-.058226-2.803034-.412588-4.116843-.409301-1.517524-1.186562-2.935755-1.804062-4.397132l-.89715-2.137436c-.080017-.259264-.160035-.518479-.240002-.777594-.341512-.696586-.683098-1.393322-1.024709-2.090057-.056035-.263001-.112094-.525952-.168153-.788754-.095483-.132671-.190991-.265592-.286498-.398512-.707778-1.489375-1.415532-2.978701-2.123285-4.468026-.502592-.851975-1.005185-1.703951-1.507852-2.556076-.147956-.170335-.295788-.340571-.443619-.510757-.159163-1.396112-1.439265-2.048707-2.074498-3.129058-.470839-.849385-.885794-1.736633-1.428258-2.537493-.542514-.80096-1.212537-1.515481-1.826651-2.267916-.343404-1.685368-1.842664-2.371542-2.941713-3.403468-.286822-.269278-.577903-.533923-.866244-.799664-.77634-.799515-1.553476-1.600076-2.330588-2.400587-.886491-1.064957-1.850086-2.027334-3.232843-2.432422l-.004358.004334c-.130847-.11902-.261669-.237991-.392516-.357012-.728947-.708892-1.294622-1.661056-2.491419-1.672813-1.851356-1.323424-3.846957-1.986083-6.128583-1.33852-2.240285,1.144021-3.445426,2.8957-3.219619,5.487347-.522765,1.462522-.304155,2.925243-.001195,4.388314.002142.136557.004408.272666.006674.408825.126215,1.086031.632294,1.937209,1.561271,2.52703l-.06246.033728c.734525,1.333936,1.469051,2.667922,2.203551,4.001759.581066.687668,1.157001,1.37987,1.744367,2.062208,1.054246,1.224581,1.91775,2.651481,3.497152,3.323705.77233.989031,1.526654,1.992808,2.322942,2.96216.591924.720649,1.238238,1.39656,1.860346,2.092399,1.345127,1.277888,2.69028,2.555727,4.035183,3.833565.519353.416547,1.038905.833094,1.558482,1.24969,1.42502,1.584681,2.549048,3.314289,3.436958,5.296835.909851,2.031618,2.369264,3.817075,3.588102,5.710093.375282.823279.750614,1.646658,1.12597,2.470036.43545,1.895659.870901,3.791318,1.306327,5.686977.251757.82019.503514,1.64043.755246,2.46062.088186.86463.144096,1.734042.270485,2.593042.410372,2.789334.815414,5.580063,1.282668,8.36018.377598,2.246692.84911,4.477442,1.265807,6.717707.322086,1.731601.596357,3.40282-.347688,5.123461-.561217,1.022859-.57088,2.335621-.94646,3.479244-.162973.496409-.227425,1.592354-1.27806.753282-1.694285-1.399749-3.701117-1.480408-5.735992-1.250786-1.192838.134614-2.363785.463079-3.543922.704757-3.391558.225038-6.347416,1.359843-8.536,4.095072-.641732.513696-1.283464,1.027392-1.925222,1.541089-.160732.584391-.321464,1.168832-.482221,1.753223-.624449-.258268-1.248872-.516586-1.873321-.774854-.856407-1.150996-1.806802-2.245098-2.54591-3.467088-.972685-1.608097-1.784388-3.31409-2.653571-4.984113M139.440847,120.168746c-.10268.157781-.20536.315561-.30804.473367-.13655.628183-.2731,1.256341-.409675,1.884524.033048,1.936512,1.599549,2.755954,2.798364,3.843256.298228.37958.596481.759135.894709,1.138716.518157.301861,1.03634.603721,1.554497.905582,1.850633,2.172037,4.380604,3.259188,6.918221,4.334109.439186.130504.878347.260983,1.317533.391462.057429.035422.110699.082602.172885.104548,3.9983,1.410809,8.120722,2.489516,11.862682,4.589114.45109.253087,1.235897-.088979,1.862463-.157233.792876.586907,1.585752,1.173814,2.378628,1.760696,1.855241.935275,3.710456,1.870574,5.565672,2.805874.883577.555396,1.767179,1.110816,2.650757,1.666212,2.56277,1.616267,5.58714,1.314706,8.375417,1.995449,1.310809.319995,2.67596.417394,4.01648.615653.055262-.141564.1105-.283128.165763-.424692-.78284-.713475-1.53044-1.472685-2.366525-2.117035-.316607-.244019-.932489-.433187-1.249644-.289381-2.222777,1.008137-4.20107.296181-6.162552-.718706l-1.747754-2.73371c-.122529-1.506987-.245058-3.013998-.377772-4.646133-1.503917-1.218926-3.153374-2.555777-4.802831-3.892627-.702548-.443774-1.405097-.887547-2.107645-1.331296-1.384775-.902941-2.735705-1.864546-4.165531-2.689395-1.051805-.60676-2.096413-1.437562-3.471475-.973985-.082757-.182641-.116153-.460862-.255941-.533101-1.332476-.688515-2.180141-1.729359-2.607498-3.179451-.118544-.402149-.517659-.823279-.899391-1.029485-2.348021-1.268398-4.727944-2.477758-7.344407-3.120215-.141307-.075079-.282638-.150158-.42397-.225212-.253376-.044265-.506751-.088555-.760127-.132821-.9686-.19801-1.937225-.396021-2.905826-.594031-1.207706-.08599-2.415387-.171979-3.623092-.257969-.520075.019978-1.040175.039956-1.56025.059909-1.259208-.067207-2.034128.60407-2.548724,1.672265-.150347.269976-.300669.539951-.451016.809902l.015615-.00416ZM185.618671,68.652607c.393611-1.183878.787223-2.367755,1.180834-3.551658-.148579-.065638-.297157-.131276-.445761-.196914-.500251,1.004176-1.000527,2.008352-1.500804,3.012504-.986755,1.526192-1.973511,3.05236-2.960241,4.578552-.842161.948128-1.684323,1.896232-2.526484,2.844335-.378818.38932-.757637.778665-1.13643,1.16801-.691665.699202-1.38333,1.398428-2.074996,2.097655-1.063037.762324-2.126049,1.524648-3.189061,2.286972-.202945.183986-.405889.367972-.608859.551933-.900612.667466-1.801248,1.334908-2.70186,2.002374-1.784762.369865-2.931004,1.3578-3.143736,3.249324-.030807.162514-.061613.325002-.092395.487541-.236167.370114-.472334.740229-.708525,1.110343-1.150127,1.592553-2.36782,3.153395-2.713665,5.178412,2.768255-.341219,5.266971-.736866,7.841944-.483156,1.655484.163111,3.338586.045909,5.009312.054354.933834.038262,1.867693.076499,2.801527.114736h3.475784c-.052423-.600209-.080341-.920105-.108309-1.24-.049784-.688864-.099592-1.377703-.1494-2.066567.082234-.269826.164443-.539653.246676-.809479.185935-1.856052.37187-3.712129.55778-5.568181.375929-2.287495.751859-4.574965,1.127788-6.86246.133736-1.020119.267496-2.040262.401282-3.060381.472533-1.632733.945066-3.265491,1.417599-4.898248ZM151.59847,161.723808c-.517585-.750691-1.035169-1.501432-1.552779-2.252123-1.521051-1.818238-3.117238-3.581973-5.252327-4.675128-1.242771-.636329-2.61863-1.012546-3.934619-1.505816-.23532-.136383-.47064-.272766-.705985-.409124-.668031-.624073-1.329761-.642955-1.984344.020775-1.055715.537784-2.111455,1.075593-3.167196,1.613378-1.009667,1.368013-1.872375,2.762032-.796313,4.499363.24187.252838.483715.505675.725585.758513.310033.422625.574939.889789.93889,1.259256.946759.961381,2.002748,1.822075,2.890808,2.832329.831752.946185,1.697198,1.709282,3.024469,1.662749.807221-.028198,1.175505.375744,1.512035,1.072679.300768.622753.817706,1.171871,1.334294,1.650992.52279.4849,1.162231.844054,1.750593,1.258259,2.03231.816304,4.06462,1.632608,6.096904,2.448962l5.33867,1.907417c.099069-.121462.198138-.242874.297207-.364335-1.073198-2.128867-2.146421-4.257735-3.219071-6.385905-.506701-.821137-1.013403-1.642323-1.520104-2.46346-.441178-.925211-.593767-2.05319-1.741503-2.481146-.01173-.149212-.02346-.298423-.035215-.447635ZM161.091938,94.491385c-.540795.385907-1.133167.716963-1.612873,1.167885-1.500181,1.41031-3.173422,2.518138-5.102927,3.257594-.816386.312821-1.559926.815482-2.376013,1.129349-2.392002.919855-4.773743,1.883827-7.215503,2.652652-3.085883.971569-6.371922,1.105984-9.426749,2.332707-2.653621,1.06558-5.542212,1.394418-8.376912,1.258035-2.970377-.142909-5.880736-.811895-8.642988-2.057923-1.468802-.662509-3.056397-1.061619-4.590423-1.579624l-.096006-.122981.107935.111473c.354885,1.390507,1.309091,2.34287,2.347946,3.240431.508719.439514,1.024934.879401,1.475825,1.375411,2.766536,3.043317,5.401603,6.220302,8.861473,8.544789,2.380894-2.622237,2.958697-2.871637,6.670225-3.001543.671244-.023465,1.347145-.126743,2.005588-.265741,2.181909-.460613,4.366807-.913454,6.532305-1.443914,4.382796-1.07365,8.835797-1.828825,12.472587-4.984811,1.681733-1.459408,3.192922-2.881676,4.104491-4.910429.666711-1.48382,1.392346-2.94136,2.044612-4.431283.322759-.737239.539152-1.521086.803585-2.283983.036883-.125871.073741-.251717.1106-.377587-.032251.129831-.064502.259688-.096778.389494ZM183.433698,98.948575c-.239678.552456-.681554,1.103194-.686261,1.657618-.030707,3.61767-1.877331,6.254703-4.359859,8.631127-1.419965,1.35932-2.82008,2.76973-4.023801,4.316971-1.497467,1.924854-3.036598,3.137502-5.762266,3.030613-3.154594-.123704-5.742268,1.385824-7.111079,4.478164-.666288,1.505293-.224761,3.099465,1.229945,3.796126,1.835691.879028,3.722361,1.815972,5.7144.296854.20937-.159699.495968-.21739.745558-.325127,1.731541-.747552,3.063943-1.817142,3.903913-3.633587.852372-1.843248,2.092429-3.534719,3.944556-4.549183,1.781649-.975828,3.648221-1.795296,5.46491-2.708526,1.513804-.761004,3.004521-1.567842,4.515237-2.335023.632717-.32134,1.290687-.59286,1.962453-.898507.90614,1.627103.82819,3.053605.264109,4.520437-.461824,1.200966-.864227,2.424675-1.303413,3.634509-.417295,1.149527-.706184,2.373808-1.297461,3.427107-2.554004,4.549532-4.378587,9.506842-7.618329,13.675722-.233552.30054-.368234.736442-.403722,1.122748-.193207,2.101317.380462,3.908346,2.185346,5.164836,1.868789,1.30098,3.865635.870708,5.60654-.050642,1.85158-.979964,2.855469-2.77658,2.496251-4.953424-.21577-1.307531-.741872-2.57852-1.248897-3.816627-.231335-.564886-.647684-.994611-.283236-1.673411,1.28461-2.392566,2.529448-4.806504,3.795529-7.209084.725884-1.377479,1.50297-2.729525,2.185023-4.128177.678441-1.391304,1.266779-2.82655,2.001877-4.484367.630525.315113,1.226309.464947,1.602911.836905.522441.515913,1.004711,1.146164,1.288171,1.818587,1.68776,4.003477,3.308876,8.035003,4.963314,12.05258.333493.809778.105121,1.521011-.085571,2.341674-.394483,1.697624-.73191,3.475308-.6502,5.199063.09095,1.918825,1.169677,3.450523,3.051889,4.243212,1.6254.684505,3.077565.410419,4.29324-.808134,3.035602-3.042794,3.140623-7.335702.345148-10.627224-.956821-1.126559-1.998166-2.302466-2.533707-3.64263-1.482375-3.709513-2.720389-7.516798-4.048183-11.28784-.089556-.254332-.18083-.531059-.170295-.793312.028316-.704981.363826-1.201389,1.13775-1.096941,4.017526.542069,8.03159,1.110069,12.045878,1.675977.19896.028049.384447.149386.583456.179726,2.074771.316259,4.145185.802703,6.228847.870185,1.44579.046831,2.954762-.348044,4.355302-.796276,1.758139-.562669,2.803245-2.253916,2.70186-3.901246-.100713-1.636992-1.740059-3.563341-3.436734-3.820562-1.920116-.291075-3.867253-.068279-5.497484.984398-1.016865.65663-1.952467.86453-3.054604.667267-2.338134-.418564-4.674225-.849484-7.006282-1.300407-.461949-.089377-.976769-.190363-1.340171-.458296-2.397032-1.767671-5.332992-2.645229-7.529122-4.777434-2.337735-2.269709-4.809181-4.39484-6.430372-7.287028.112492-.382619.302088-.76068.324975-1.148605.151692-2.571221.337851-5.143463.37964-7.717524.071699-4.417508.196619-8.843187.00513-13.252624-.116602-2.684612-.675129-5.369149-1.252658-8.006058-.268243-1.224655-1.0338-2.346457-1.62129-3.490578-.14031-.273239-.433782-.553503-.718736-.652919-1.951197-.680594-4.829827,1.161857-5.281366,3.228873-.315063,1.442071-.862857,2.831681-1.256991,4.258432-.522665,1.892172-1.142656,3.773682-1.460409,5.702695-.583182,3.540349-.905891,7.123144-1.466311,10.667802-.650573,4.114726-.64634,8.24923-.618746,12.390236.001669.254158.152787.507269.234399.760879ZM58.27568,146.707c.512678.118099,1.074169.139945,1.529543.371036,1.937699.983252,3.867366,1.987278,5.756327,3.060555,2.964662,1.684496,5.928539,3.155363,9.488201,3.313442,3.347203.148614,6.61216,1.033246,9.281284,3.242025,3.410273,2.822066,5.844662,6.260009,6.116616,10.862898.104075,1.761443,1.051631,2.909749,2.496226,3.701392,3.402192,1.864621,8.631433,1.670372,10.711559-3.055822,1.526555-3.468483.84916-5.566412-2.73182-6.702412-2.584586-.819891-5.25813-1.462622-7.436578-3.208023-1.324058-1.060822-2.572308-2.216003-3.882595-3.29471-1.307024-1.076017-2.508902-2.40928-4.001238-3.106838-4.906781-2.293673-9.767937-4.744005-15.317584-5.300123-1.793503-.179701-3.719061-.553777-5.191088-2.047162,8.304291.919482,16.003147,3.340296,23.056598,7.509525,2.542797-1.799531,2.890211-1.785133,5.2075.14266.156722.130429.301117.276577.463642.39901,1.875787,1.412702,3.813037,2.557072,6.3385,2.32476.713606-.065663,1.583062.34625,2.201808.789501.697966.499996,1.173736,1.301453,1.781175,1.938405,1.632074,1.711374,3.099805,3.624121,5.550456,4.301776,2.202779.609152,4.370991-.271122,5.729218-2.406067,1.289641-2.027135,1.116332-3.977446-.473006-5.779667-1.642384-1.862379-3.689188-2.912514-6.129653-3.348516-3.066632-.547948-6.13055-1.091461-8.853579-2.823112-1.470495-.935125-3.168889-.939111-4.928846-.776323-1.508325.139546-3.106878-.050443-4.586861-.414479-1.835267-.451446-3.572412-1.286308-5.381991-1.86081-5.184936-1.646159-10.370682-3.133318-15.945731-2.854773-1.726013.086264-3.507761-.882067-5.257794-1.389012-.362008-.104822-.696422-.304974-1.04355-.461211.114896-.170559.229804-.341144.344699-.511703.376589-.102754.747999-.234055,1.130627-.303604,2.46588-.448058,4.940016-.852897,7.399632-1.332566,1.531872-.298722,3.025827-.868441,4.566776-1.029385,4.114777-.429774,8.208185-.913553,12.242011-1.889382,2.530942-.612315,4.056874.386954,4.569478,2.961637.285552,1.434249,1.079598,2.255859,2.286358,2.89007,1.895436.996105,3.944755,1.239851,5.946981.787533,1.616185-.365132,3.337092-1.007738,4.107181-2.704764.881087-1.941643.086642-4.340411-1.7423-5.538986-3.038217-1.99099-6.402529-2.882697-10.029407-2.859979-1.215252.007622-2.44826.021124-3.642667-.164481-1.738838-.27025-3.470031-.647015-5.163955-1.122723-.761845-.213953-1.250541-.05672-1.855876.357061-1.174247.802653-2.39245,1.55033-3.639579,2.23491-2.024029,1.111065-4.056812,2.214608-6.142205,3.202368-1.396418.661438-2.854647,1.266928-4.350533,1.622719-1.5017.357211-3.137846.176364-4.621192.578114-3.848152,1.042363-7.404875-.194199-10.969156-1.228517-1.069276-.31028-2.059941-.577939-3.153461-.431219-.569348-.349638-1.11038-.760804-1.712901-1.038428-2.768429-1.275572-4.971856-3.147865-6.904038-5.545886-2.201721-2.732489-4.300849-5.585867-7.081854-7.841701-.885806-.718507-1.846238-1.660508-2.293119-3.386006.799214.510607,1.250516.750317,1.647216,1.06,3.674196,2.868274,6.492496,6.537557,9.433162,10.094023.646414.781754,1.260142,1.659262,2.075942,2.22091,4.940315,3.401201,10.495527,5.010966,16.443517,5.105999,2.141627.034226,4.302779-.430372,6.434568-.788928,1.185392-.199356,2.402113-.497056,3.476494-1.016033,2.748518-1.327609,5.419098-2.815813,8.132277-4.217654,2.881133-1.488653,4.957-3.563266,5.064537-7.023005.05205-1.674607.00772-3.354046-.04494-5.029674q-.131083-4.172218-3.523774-6.656204c-.054739-.04023-.104149-.088929-.162189-.12333-2.035473-1.207617-3.94498-2.759168-6.129479-3.561423-9.987443-3.667863-20.040709-7.158467-30.101109-10.623263-1.508126-.519426-3.17453-.602426-4.777366-.814411-.937071-.123928-1.952766.089004-2.830117-.182516-3.134994-.970199-9.059325,1.457814-10.869302,4.865342-.190542.35873-.410185.705006-.645356,1.036485-1.87545,2.643012-1.760729,5.447491-.593368,8.285001,1.280264,3.111994,3.454217,5.662166,5.38361,8.369845,3.187356,4.473058,6.218337,9.059282,9.468028,13.485559,1.68121,2.289911,3.69265,4.337024,5.550506,6.497602.478883.556915.986382.952612,1.732388.444596-.550757,1.484368.332247,2.779096.583805,4.148155.961976,5.235182,4.330385,8.442607,9.037608,10.461596,1.059961.454634,2.176069.788355,3.208225,1.295948,4.262621,2.096235,7.894068,4.926073,9.479023,9.585359,1.021522,3.002913,2.889115,5.350093,4.896134,7.651986,1.578094,1.809918,3.761024,1.575365,5.445086.958491,1.063025-.389395,1.264052-.94773.959871-2.096185-.415876-1.570134-1.329176-2.794216-2.591833-3.796699-.688851-.546827-1.529369-1.146463-1.120939-2.174353.414506-1.043185-.062833-1.82063-.41356-2.700056-.709347-1.778532-2.121305-2.943079-3.440046-4.221017-1.358152-1.31615-2.582257-2.769555-3.901273-4.127704-.50959-.524706-1.065029-1.046-1.692392-1.40777-2.231967-1.287105-4.529245-2.461791-6.748922-3.768899-.973394-.573182-1.819304-1.362981-2.723091-2.054436,0,0,.018815-.016316.018815-.016341ZM125.678669,142.604505c-.281318,1.221392.972635,1.325566,1.475601,1.967276.61618.786188,1.290114,1.690823,2.150107,2.094691,4.54166,2.133102,9.071441,4.332216,13.758965,6.101157,3.907225,1.474479,6.777139,4.133633,9.034558,7.329001,2.850364,4.034789,5.15291,8.464105,7.0016,13.071279.700133,1.744853.971589,3.597517.555887,5.576127-.490016,2.332532-.365818,4.728785.227625,7.075915.805652,3.186351,4.608852,5.00713,7.414762,3.297052,2.370111-1.444437,2.705322-6.358603.715847-8.352159-.709272-.710685-1.490668-1.459981-1.890829-2.348624-1.361315-3.023389-2.686419-6.074229-3.802378-9.194369-1.394263-3.898182-1.594742-8.048355-2.356737-12.207795,2.552111-.266987,4.550177.812518,6.389629,2.015626,2.490971,1.62932,4.890444,3.42489,7.182081,5.326428,3.186845,2.644457,5.39717,6.054102,7.156704,9.784839.66193,1.403535,1.400838,2.80438,2.322469,4.044554,1.831582,2.464805,5.939036,3.235324,8.510722,1.792332.990665-.555894,1.488601-1.320983,1.511288-2.453894.038876-1.940298-.68387-3.667465-1.916505-5.022724-2.228007-2.449759-4.511103-4.894138-7.047225-7.009753-5.727301-4.777758-11.169921-9.904108-17.242444-14.267337-.371845-.267186-.51619-.851178-.766378-1.287778.456569-.208722.922801-.61249,1.367989-.590494,1.486583.073485,2.985494.198708,4.443786.486146,4.12561.813165,8.233712,1.715285,12.34809,2.585245,2.254954.47673,4.32716,1.094052,6.093816,2.877914,1.938496,1.957336,5.947902,1.021264,7.267976-1.371775.156772-.284174.218061-.638272.256588-.967807.361111-3.087956-.994252-4.913767-4.148248-4.967822-4.714296-.080783-9.293338-1.010105-13.919722-1.69867-6.072349-.903813-11.992757-2.274168-17.566996-4.932251-.729022-.347621-1.521599-.651823-2.314126-.759534-2.481582-.337183-4.977783-.565634-7.467185-.846371-1.415357-.159599-2.873052-.230991-4.043052-1.184251-2.277218-1.855354-5.161128-2.27362-7.771266-3.339399-.521569-.684953-.941654-1.489699-1.582988-2.033262-2.28967-1.940472-4.334357-4.123868-5.935027-6.628728-2.060501-3.224489-4.382597-6.213352-7.071681-8.910668-1.770516-1.775891-3.733842-3.359078-5.510559-5.12924-2.065632-2.058048-4.08519-4.170798-5.999404-6.368991-1.00628-1.155555-1.815543-2.503789-2.581099-3.840989-.564977-.986814-1.192589-1.761045-2.312233-2.140924-1.153589-.391388-2.233387-1.012945-3.39756-1.357725-1.873346-.554748-3.774809-1.040919-5.692435-1.410535-1.379545-.265866-2.521802-.779412-3.472696-1.954995.72947-.418016,1.24825-.745584,1.933714-.095057.362431.343959.931468.60118,1.430549.647762,2.458496.229547,4.772223.897411,7.015024,1.926548,1.525683.700074,3.130188,1.228267,4.705131,1.835526.490887-.635257.976619-1.201788,1.394587-1.814577,3.258196-4.776986,7.176727-8.846027,12.301196-11.658826.514845-.28263.872843-.838972,1.33788-1.227246.871324-.727574,1.671074-1.638861,2.67317-2.09205,2.32349-1.050883,4.310076-2.536596,6.22673-4.165343,2.805985-2.384545,3.469259-6.024783,1.491091-9.078114-1.688806-2.606718-3.804071-4.583908-6.989198-5.53226-2.369289-.705429-4.590273-.72887-6.750815.041176-3.853008,1.373269-7.179217,3.744213-10.514467,6.084193-2.097957,1.471888-3.65893,3.423495-5.345145,5.276384-2.925126,3.214226-5.843354,6.434778-8.753887,9.662256-2.532262,2.807892-4.82243,5.831505-7.995005,8.029996-3.300732,2.28742-4.021211,5.671034-3.293709,9.382017.78792,4.019146,3.691654,6.763766,6.416401,9.46726,3.417558,3.390888,7.190873,6.420056,10.686729,9.736065,2.410057,2.286125,4.58985,4.813479,6.908135,7.198422,3.686324,3.792339,7.981358,6.955051,11.404145,11.024141.7346.873323,1.557959,1.671966,2.340425,2.50501ZM129.222542,62.516949c2.963753.554225,5.597052,1.712744,7.562394,4.110018.165115.201398.404868.341617.609954.510259.306073.444421.588836.907276.922054,1.330299,2.128614,2.702149,2.177003,5.566611.777784,8.60273-1.142183,2.478381-3.294929,4.028537-5.425461,5.366484-2.408812,1.512766-4.954971,2.777975-6.998961,4.815746-.283809.282979-.649876.493942-1.001972.696287-3.698353,2.12528-6.902457,4.821376-9.34611,8.333402-1.011884,1.454277-2.471944,2.675395-2.822297,4.695405,2.169408.849609,4.2518,1.646707,6.320121,2.47873,5.278576,2.123562,10.555384,2.008427,15.872761.117451,1.587545-.564588,3.224849-1.183155,4.879187-1.330922,5.913609-.528318,11.101858-3.067779,16.062432-5.948433,4.181171-2.428137,7.172219-6.1723,8.974812-10.762336.261694-.666445.612246-1.53922,1.167535-1.807676,2.552235-1.233822,4.547164-3.193301,6.752135-4.877423,4.749561-3.627708,8.856617-7.791756,11.324078-13.367883.344799-.779238.94793-1.497122,1.577459-2.087691,2.108019-1.977439,4.70431-2.844859,7.533032-3.209567,3.143661-.405362,5.275986-2.404946,7.614892-4.883277-.933162,0-1.388187-.035397-1.836289.005405-4.859961.442827-9.72037.881569-14.577443,1.354412-3.505495.341268-7.000679.800685-10.510607,1.079853-2.9059.231116-5.826669.27568-8.740837.402921.335186-1.215713,1.372373-1.171796,2.297116-1.210855,1.832055-.077396,3.698851.125497,5.49487-.15235,3.822276-.591216,7.630233-1.088646,11.511159-1.193642,3.035851-.082154,6.057606-.633663,9.089073-.942723,3.569648-.363912,7.141089-.713102,10.715494-1.026047,2.091906-.183164,4.200024-.203391,6.284882-.438642,3.419774-.385833,5.488693-3.019827,5.093563-6.169087-2.101294.424194-4.195043.940406-6.318826,1.250761-2.402611.351083-4.793292.476705-7.270666.296928-3.83692-.278395-7.720237.039109-11.582061.161791-3.197977.101608-6.054642,2.069307-9.337069,1.765255-5.166806,1.309848-10.44984,1.488279-15.73793,1.621922-.406437.010263-.812102.057617-1.217742.092217-2.630883.224291-5.260969.458844-7.892948.669633-.811853.06499-1.630082.047205-2.44323.100238-3.85129.251144-7.701434.519974-11.553322.760954-.328312.020551-.666487-.116903-1.000079-.180947-.005877-.149959-.011755-.299893-.017607-.449827.953434-.208448,1.898499-.538158,2.86177-.604867,4.872314-.337358,9.749334-.606785,14.624785-.898657.610552-.036568,1.222773-.050318,1.832179-.09969,3.037868-.246012,6.074242-.510682,9.112732-.748349,2.025984-.158503,4.116395-.019654,6.069061-.478,3.880104-.910763,7.878578-1.059078,11.728399-2.246767,4.529258-1.397283,9.297023-1.191226,13.954613-.785391,2.606726.227155,5.142574.21054,7.674563-.220853,1.918223-.326796,3.930137-.306046,5.708149-1.318193.948328-.539852,1.508698-1.129374,1.53308-2.367855.05342-2.711839.431441-5.417001.492307-8.129064.052075-2.321049-.186483-4.558998-2.267381-6.241426-1.074244-.868566-1.939417-2.115939-2.599379-3.352178-1.403876-2.629635-2.644854-5.348972-3.876368-8.066091-.297979-.657378-.416025-1.448672-.418715-2.179111-.016113-4.361485.129776-8.697363,3.275703-12.413079-.653811-.258168-1.122982-.548097-1.624528-.624148-2.875841-.436201-5.752429-.889764-8.644408-1.183604-.894137-.090872-1.896308.154293-2.745841.499572-1.910653.776647-3.441366,2.1128-4.914925,3.557113-2.109513,2.067638-4.475091,3.9971-7.576365,3.945412-3.857591-.064268-7.445767,1.393297-11.255592,1.57539-1.711693.081805-3.181366-.006427-4.647179-.91161-1.377926-.850979-2.814029-1.634277-4.296802-2.281716-1.609859-.702938-3.353404-1.105884-4.945632-1.841156-1.52374-.703661-3.001856-.596323-4.565917-.357111-3.368198.515141-6.307196,2.054212-9.1081,3.850305-1.119819.718109-2.083862,1.740369-2.95932,2.761011-.831826.969775-1.530166,2.077204-2.146371,3.201347-.467428.852673-1.08438,1.069789-1.980783,1.077661-.726257.006377-1.560474.039956-2.157727.387028-3.569972,2.074563-7.521252,3.067306-11.427854,4.196705-1.297934.375271-2.637358.635008-3.897413,1.10845-6.22287,2.338137-11.511607,6.11827-15.94862,10.995719-2.205245,2.424152-4.445206,4.664716-7.186191,6.52007-4.32198,2.925517-8.600577,5.954188-12.429179,9.536161-2.478071,2.318433-5.003397,4.605679-7.288211,7.107326-4.216199,4.616366-7.98665,9.58922-11.456046,14.805246-4.482338,6.738856-8.545849,13.709177-12.131025,20.958665-1.072164,2.168001-1.984419,4.415092-3.074938,6.861538,1.424547.425465,2.572532.768327,3.720505,1.111165.10608.081356.200105.198235.319982.238938,5.387482,1.829099,10.766012,3.685649,16.170429,5.463409,4.015446,1.320833,7.277801,3.899179,10.681524,6.240504,1.179053.811048,1.711207,2.093022,1.838019,3.497952.267621,2.965274.72556,5.932391.078573,8.909049-.017582.080858.141979.200227.207776.286939,5.667879-1.554141,11.538578-.894771,17.419812-1.620751-.209918-.288733-.328562-.521568-.50827-.688715-2.835396-2.637283-5.587239-5.374903-8.548228-7.863298-2.478892-2.083257-4.510604-4.514857-6.287347-7.15752-.851949-1.267127-1.5928-2.763378-1.847595-4.24797-.689772-4.018747.012925-7.673682,3.499792-10.389531,1.655285-1.289272,3.241037-2.697042,4.694448-4.208712,1.640965-1.706791,3.056322-3.628107,4.643518-5.38965,3.13619-3.480689,6.302389-6.935048,9.502284-10.357198.921631-.985693,1.924176-1.932601,3.023025-2.708252,2.600076-1.835327,5.241369-3.619438,7.940963-5.304084,1.962005-1.224357,4.031646-2.239817,6.498435-1.94812.935503.110626,1.899495-.019405,2.850488-.039732ZM213.216518,2.654903c-.837853,1.330797-1.675706,2.414561-2.250969,3.623324-1.511886,3.176935-1.375809,6.600007-1.263441,10.001831.008766.26472.072895.548545.188699.785665,1.487804,3.046481,2.90717,6.131099,4.530229,9.104295.615135,1.126809,1.707808,1.992808,2.649711,3.052958.893365-1.249192,1.706662-2.184342,2.28322-3.247929.609506-1.124442.945813-2.393313,1.486235-3.559754,1.019355-2.20011,1.368189-4.524148,1.49261-6.916091.066718-1.282696-.314341-2.355948-1.33925-3.611392-.720529,4.398053-1.559603,8.502516-3.100851,12.430765-.199807-1.66133-.047816-3.303404-.228471-4.908038-.530087-4.708134-1.61616-9.352848-1.491539-14.138751.01442-.553702-.470167-1.24563-.922403-1.651789-.473479-.425215-1.187035-.582971-2.033779-.965092ZM77.588375,137.927733c-3.687831.080559-7.099947,1.540242-10.855069,2.004616,1.691981.900426,3.356692.449777,4.954348.612614,2.410555.245713,4.287575-.788206,5.900721-2.61723Z"/>
  <path class="cls-2" d="M137.39489,67.137226c-.205086-.168641-.444839-.30886-.609954-.510259-1.965342-2.397274-4.598641-3.555793-7.561846-4.109744-.426261-.165652-.853094-.331553-1.381836-.537062.641334-1.403087-.422824-1.714513-1.837708-2.042728,1.012606-.261158,1.589039-.490181,2.181337-.543812.899018-.081356,1.640591-.342364,1.728453-1.337523.067117-.760107-.639043-1.118563-2.018538-1.131616-.543261-.005156-1.0922.059635-1.628413.000548-.436148-.048052-.857154-.233383-1.469449-.41154.619667-1.060622,1.136679-1.945604,1.817137-3.110326h-2.896885c.542962-.483181.745135-.794657,1.017512-.878828.622506-.192331,1.042317-.568523.763987-1.162903-.188351-.402273-.702274-.792291-1.143478-.907002-.946983-.246137-3.243029,1.004824-3.533711,1.905922-.226205.701244-.406288,1.51842.723568,1.732946.228222.043294.435052.199306.729271.340571-.83088,1.423787-1.741628.130977-2.693268.493544-.095408-1.468351-.959261-2.069806-2.141266-2.163642.483491-.485996.916152-.877309,1.296664-1.314058.516763-.593085.78792-1.380393,1.765685-1.535633.698389-.110875.761895-.811995.340017-1.248719-.19632-.203341-1.119022-.126518-1.180236.030664-.359418.923144-1.089336.82298-1.830685.931837-.578749.084993-1.138646.391811-1.672593.666819-.775518.399409-1.520154.858851-2.313977,1.313311-1.102436-1.27186-2.438348-1.595168-4.031098-1.467604-.066619.50017-.038651.926556-.185163,1.280728-.654533,1.582414-.98678,3.548146-3.474887,3.134264-.205136-.034127-.527521.176812-.680408.366602-.74496.924663-1.654214,1.790663-2.122413,2.8472-.689947,1.556931-1.881141,2.371492-2.713042,2.748531h-4.912409c-.354412.244318-.864127.613112-1.39135.954879-.730815.473765-.770761,1.278685-.023012,1.775542.258755.171905.636851.164083,1.054719.260012-1.640716,1.517897-3.117263,2.883942-4.61189,4.266727-.241945-.4365-.351922-.960559-.640761-1.092233-.73328-.334393-1.535919-.548246-2.331659-.703187-.561292-.109256-1.006853.597294-.699809,1.097714.199433.325077.561516.550289.820893.792415-.376403,1.092009-.725311,2.104157-1.131549,3.282679-.666437-.828311-1.1702-1.454426-1.443474-1.7941-1.315305.210864-2.194997.351905-3.227663.517433-.140385.765064-.405105,1.619132-1.460172,2.005737-1.305168.478324-1.930688,1.436242-1.439888,2.680003-.515455.415152-.930659.652371-1.216011.997077-.961216,1.161135-1.970908,2.249108-3.483293,2.668943-1.045592.290228-1.541995,1.0253-1.775721,2.011765-.311539,1.314805-1.023601,2.175723-2.250421,2.921905-1.443001.877658-3.229394,1.692891-3.5756,3.668137-.287669,1.641252-1.262806,2.817258-2.31699,3.969674-1.783479,1.949664-3.632207,3.841811-5.361408,5.837982-.833258.961879-1.456785,2.105527-2.175273,3.166896-1.147985-.342863-2.295971-.685725-3.720518-1.11119,1.090519-2.446446,2.002773-4.693537,3.074938-6.861538,3.585176-7.249488,7.648687-14.219809,12.131025-20.958665,3.469396-5.216026,7.239847-10.188881,11.456046-14.805246,2.284814-2.501647,4.81014-4.788893,7.288211-7.107326,3.828602-3.581973,8.107199-6.610644,12.429179-9.536161,2.740985-1.855354,4.980946-4.095919,7.186191-6.52007,4.437012-4.877448,9.72575-8.657582,15.94862-10.995719,1.260054-.473441,2.599479-.733179,3.897413-1.10845,3.906602-1.129399,7.857883-2.122142,11.427854-4.196705.597253-.347072,1.43147-.380651,2.157727-.387028.896403-.007872,1.513355-.224988,1.980783-1.077661.616205-1.124143,1.314545-2.231572,2.146371-3.201347.875458-1.020642,1.839501-2.042903,2.95932-2.761011,2.800904-1.796093,5.739902-3.335164,9.1081-3.850305,1.56406-.239212,3.042176-.346549,4.565917.357111,1.592227.735272,3.335772,1.138217,4.945632,1.841156,1.482773.647439,2.918875,1.430737,4.296802,2.281716,1.465813.905183,2.935487.993415,4.647179.91161,3.809824-.182093,7.398001-1.639658,11.255592-1.57539,3.101274.051688,5.466852-1.877774,7.576365-3.945412,1.473558-1.444313,3.004272-2.780466,4.914925-3.557113.849533-.345279,1.851704-.590444,2.745841-.499572,2.891979.29384,5.768567.747403,8.644408,1.183604.501546.076051.970717.365979,1.624528.624148-3.145927,3.715716-3.291816,8.051594-3.275703,12.413079.00269.730439.120736,1.521733.418715,2.179111,1.231514,2.717119,2.472492,5.436456,3.876368,8.066091.659962,1.236239,1.525135,2.483612,2.599379,3.352178,2.080898,1.682428,2.319456,3.920377,2.267381,6.241426-.060866,2.712063-.438887,5.417225-.492307,8.129064-.024381,1.238481-.584751,1.828003-1.53308,2.367855-1.778013,1.012147-3.789926.991397-5.708149,1.318193-2.531988.431393-5.067837.448008-7.674563.220853-4.657589-.405835-9.425355-.611892-13.954613.785391-3.849821,1.187689-7.848294,1.336004-11.728399,2.246767-1.952666.458346-4.043077.319497-6.069061.478-3.03849.237667-6.074864.502337-9.112732.748349-.609407.049372-1.221627.063122-1.832179.09969-4.875451.291872-9.752472.561299-14.624785.898657-.963271.066709-1.908337.396419-2.86177.604867.005852.149934.01173.299868.017607.449827.333592.064044.671767.201498,1.000079.180947,3.851888-.24098,7.702032-.50981,11.553322-.760954.813148-.053034,1.631377-.035248,2.44323-.100238,2.631979-.210789,5.262065-.445343,7.892948-.669633.40564-.0346.811305-.081954,1.217742-.092217,5.28809-.133643,10.571124-.312074,15.73793-1.621922,3.282427.304053,6.139092-1.663646,9.337069-1.765255,3.861824-.122682,7.745141-.440186,11.582061-.161791,2.477373.179776,4.868055.054155,7.270666-.296928,2.123783-.310355,4.217532-.826567,6.318826-1.250761.395131,3.14926-1.673788,5.783254-5.093563,6.169087-2.084858.235251-4.192976.255478-6.284882.438642-3.574405.312946-7.145846.662135-10.715494,1.026047-3.031468.30906-6.053222.860569-9.089073.942723-3.880926.104996-7.688882.602426-11.511159,1.193642-1.796018.277847-3.662815.074955-5.49487.15235-.924744.039059-1.96193-.004857-2.296668,1.211154-3.120401.484153-6.312475.699924-9.347554,1.506688-6.656253,1.76934-13.195631,3.932907-19.171202,7.489098ZM140.524331,24.495934c.232556,1.058854.271606,3.085963,1.118673,4.684744,1.483022,2.799148,3.298117,5.468465,5.296233,7.930605,1.155282,1.423588,2.790046,2.686779,4.472202,3.408325,4.102275,1.759749,8.528354,1.332292,12.570983.107462,5.903199-1.788546,9.842551-5.807168,10.687925-12.287432.53559-4.105858-.089406-7.994275-2.162136-11.571068-1.826526-3.15195-4.371863-5.735527-7.254528-7.906891-3.097464-2.333155-6.69478-3.037638-10.373011-1.738526-3.060082,1.080775-6.000998,2.542549-8.398304,4.851866-3.323868,3.201945-5.609628,6.925208-5.958038,12.520915ZM169.176798,40.412719c-.159636-.09294-.319247-.185879-.478883-.278819-.363203.349514-.698066.735994-1.095413,1.040993-.901857.692252-1.741877,1.628747-2.770546,1.964037-4.62885,1.508705-9.369968,2.118629-14.18921.959164-1.89322-.455506-3.489979-1.380742-4.555432-3.143057-.804332-1.330349-1.729972-2.602259-2.722082-3.80036-1.328043-1.603787-2.289197-3.370188-2.689881-5.40198-.326295-1.654629-.5201-3.335413-.772629-5.00459-.093989-.621358.265006-1.395215-.798106-1.864945-.175226.375445-.502169.747129-.496192,1.113432.068611,4.208562.824156,8.214879,3.518146,11.644004,1.046003,1.33147,2.066653,2.690889,2.990699,4.108125,1.135633,1.741715,2.69277,2.824158,4.660528,3.377835,5.429197,1.527612,10.731208.774057,15.955817-.960235,1.388685-.460961,2.427141-1.480457,3.207366-2.713059.179211-.283128.1624-.690408.235818-1.040545ZM183.019864,41.240432c-.019699-1.228766-1.335913-2.775235-2.304339-2.707429-.892493.062499-2.136559,1.821551-2.07522,2.934211.062385,1.131243,1.134213,2.354653,2.099153,2.396028,1.181183.050642,2.30257-1.239128,2.280406-2.62281ZM211.919033,39.584009c.128531-1.215364-.743366-2.229928-1.978691-2.302466-1.153016-.067731-2.212691.981334-2.33263,2.309142-.117946,1.306161.90634,2.582057,2.161737,2.692782,1.095363.096601,1.970049-1.001835,2.149584-2.699458ZM137.276993,64.664574c.179734-.132123.583556-.301238.763838-.603696.133711-.224291.077851-.682886-.07145-.929247-.305973-.504803-.699435-.96858-1.115485-1.391628-.572249-.581875-1.677624-.375196-1.838381.305946-.163795.693846,1.361265,2.62819,2.261478,2.618625ZM130.393265,51.009054c-.350054-.146048-.838949-.508241-1.338827-.524084-.906265-.028721-1.835641.752011-1.770915,1.364526.094063.890013.763763,1.027791,1.496869.987138.886665-.049173,1.688532-.791743,1.612873-1.82758ZM90.148775,63.787738c.989744,1.293432,1.476024,1.50188,2.029097.947705.469694-.470627.481847-1.401592-.055337-1.770735-.943397-.64831-1.42121.060183-1.97376.82303ZM101.943568,58.548794c-.652292-.536115-1.077556-1.126584-1.372622-1.067448-.372866.07473-.74501.642681-.892866,1.074796-.049236.143906.56809.690956.927782.746008.30174.046158.671941-.355243,1.337706-.753356Z"/>
  <path class="cls-3" d="M125.678669,142.604505c-.782466-.833044-1.605825-1.631687-2.340425-2.50501-3.422788-4.069091-7.717821-7.231802-11.404145-11.024141-2.318285-2.384943-4.498078-4.912298-6.908135-7.198422-3.495857-3.316008-7.269171-6.345177-10.686729-9.736065-2.724747-2.703494-5.628481-5.448114-6.416401-9.46726-.727502-3.710983-.007023-7.094597,3.293709-9.382017,3.172575-2.198491,5.462743-5.222105,7.995005-8.029996,2.910533-3.227478,5.828761-6.44803,8.753887-9.662256,1.686216-1.852888,3.247188-3.804495,5.345145-5.276384,3.335249-2.339981,6.661458-4.710924,10.514467-6.084193,2.160542-.770046,4.381526-.746606,6.750815-.041176,3.185127.948353,5.300392,2.925542,6.989198,5.53226,1.978168,3.053331,1.314894,6.693569-1.491091,9.078114-1.916655,1.628747-3.90324,3.114461-6.22673,4.165343-1.002096.45319-1.801846,1.364476-2.67317,2.09205-.465037.388274-.823035.944616-1.33788,1.227246-5.124469,2.812799-9.043,6.88184-12.301196,11.658826-.417968.612789-.9037,1.179319-1.394587,1.814577-1.574944-.607259-3.179448-1.135452-4.705131-1.835526-2.2428-1.029136-4.556528-1.697001-7.015024-1.926548-.499081-.046582-1.068118-.303804-1.430549-.647762-.685464-.650527-1.204244-.32296-1.933714.095057.950893,1.175583,2.093151,1.689129,3.472696,1.954995,1.917626.369616,3.819089.855787,5.692435,1.410535,1.164173.344781,2.243971.966338,3.39756,1.357725,1.119644.379879,1.747256,1.15411,2.312233,2.140924.765556,1.337199,1.574819,2.685434,2.581099,3.840989,1.914214,2.198192,3.933773,4.310943,5.999404,6.368991,1.776718,1.770162,3.740043,3.353348,5.510559,5.12924,2.689084,2.697316,5.01118,5.68618,7.071681,8.910668,1.60067,2.50486,3.645357,4.688256,5.935027,6.628728.641334.543563,1.061418,1.348309,1.58361,2.033013-.754075.430845-1.47184.952612-2.269747,1.277415-3.552937,1.446256-7.153242,2.780939-10.42399,4.837144-.724813.455705-1.492137.84373-2.239887,1.262917Z"/>
  <path class="cls-1" d="M137.39489,67.137226c5.975571-3.556191,12.514949-5.719759,19.171202-7.489098,3.035079-.806764,6.227154-1.022535,9.347554-1.506713,2.91372-.127515,5.834489-.172079,8.740389-.403195,3.509928-.279168,7.005112-.738585,10.510607-1.079853,4.857072-.472844,9.717481-.911585,14.577443-1.354412.448102-.040803.903127-.005405,1.836289-.005405-2.338906,2.478331-4.471231,4.477915-7.614892,4.883277-2.828722.364709-5.425013,1.232129-7.533032,3.209567-.629529.590569-1.23266,1.308453-1.577459,2.087691-2.467461,5.576127-6.574518,9.740175-11.324078,13.367883-2.204971,1.684122-4.199899,3.643601-6.752135,4.877423-.55529.268456-.905842,1.141232-1.167535,1.807676-1.802593,4.590036-4.793641,8.334199-8.974812,10.762336-4.960574,2.880654-10.148823,5.420115-16.062432,5.948433-1.654338.147767-3.291642.766334-4.879187,1.330922-5.317377,1.890976-10.594185,2.00611-15.872761-.117451-2.068321-.832022-4.150713-1.629121-6.320121-2.47873.350353-2.02001,1.810413-3.241128,2.822297-4.695405,2.443653-3.512026,5.647757-6.208121,9.34611-8.333402.352096-.202345.718163-.413308,1.001972-.696287,2.04399-2.037771,4.590149-3.30298,6.998961-4.815746,2.130532-1.337947,4.283279-2.888102,5.425461-5.366484,1.399219-3.036118,1.35083-5.900581-.777784-8.60273-.333219-.423023-.615981-.885878-.922054-1.330299Z"/>
  <path class="cls-3" d="M47.279167,138.968925c-.746006.508017-1.253505.11232-1.732388-.444596-1.857856-2.160578-3.869296-4.20769-5.550506-6.497602-3.249691-4.426277-6.280673-9.012501-9.468028-13.485559-1.929393-2.707679-4.103346-5.257851-5.38361-8.369845-1.167361-2.83751-1.282082-5.641989.593368-8.285001.235171-.331479.454814-.677754.645356-1.036485,1.809977-3.407528,7.734308-5.835541,10.869302-4.865342.877351.27152,1.893045.058589,2.830117.182516,1.602836.211985,3.269241.294985,4.777366.814411,10.0604,3.464796,20.113665,6.955399,30.101109,10.623263,2.1845.802255,4.094007,2.353806,6.129479,3.561423.058039.034401.107449.0831.162189.12333q3.380724,2.484384,3.523774,6.656204c.05266,1.675628.09699,3.355067.04494,5.029674-.107536,3.45974-2.183404,5.534353-5.064537,7.023005-2.713179,1.401841-5.383759,2.890045-8.132277,4.217654-1.074381.518977-2.291102.816678-3.476494,1.016033-2.13179.358556-4.292942.823154-6.434568.788928-5.94799-.095032-11.503202-1.704798-16.443517-5.105999-.8158-.561648-1.429528-1.439156-2.075942-2.22091-2.940667-3.556465-5.758966-7.225749-9.433162-10.094023-.396699-.309682-.848002-.549392-1.647216-1.06.446882,1.725498,1.407313,2.667499,2.293119,3.386006,2.781006,2.255834,4.880133,5.109212,7.081854,7.841701,1.932182,2.398021,4.135609,4.270314,6.904038,5.545886.602521.277623,1.143552.688789,1.713,1.038278-.942189,1.205574-1.884478,2.411323-2.826767,3.617047Z"/>
  <path class="cls-3" d="M57.044925,99.803689c.718487-1.061345,1.342014-2.204993,2.175273-3.166871,1.7292-1.996171,3.577929-3.888318,5.361408-5.837982,1.054184-1.152416,2.029321-2.328422,2.31699-3.969674.346206-1.975247,2.132599-2.79048,3.5756-3.668137,1.22682-.746182,1.938882-1.6071,2.250421-2.921905.233726-.986465.73013-1.721537,1.775721-2.011765,1.512384-.419835,2.522076-1.507809,3.483293-2.668943.285353-.344706.700556-.581925,1.216011-.997077-.4908-1.243762.134719-2.20168,1.439888-2.680003,1.055068-.386605,1.319787-1.240673,1.460172-2.005737,1.032666-.165528,1.912359-.306569,3.227663-.517433.273274.339674.777037.96579,1.443474,1.7941.406238-1.178522.755146-2.190669,1.131549-3.282679-.259378-.242126-.62146-.467338-.820893-.792415-.307044-.500419.138517-1.206969.699809-1.097714.79574.154941,1.598378.368794,2.331659.703187.288839.131675.398816.655734.640761,1.092233,1.494627-1.382785,2.971174-2.74883,4.61189-4.266727-.417868-.095929-.795964-.088107-1.054719-.260012-.74775-.496857-.707803-1.301777.023012-1.775542.527223-.341767,1.036937-.710561,1.39135-.954879h4.912409c.831901-.377039,2.023095-1.1916,2.713042-2.748531.4682-1.056537,1.377453-1.922537,2.122413-2.8472.152887-.18979.475272-.400729.680408-.366602,2.488107.413881,2.820354-1.55185,3.474887-3.134264.146512-.354172.118544-.780558.185163-1.280728,1.59275-.127565,2.928663.195744,4.031098,1.467604.793822-.45446,1.538459-.913902,2.313977-1.313311.533947-.275008,1.093844-.581825,1.672593-.666819.741349-.108857,1.471267-.008694,1.830685-.931837.061215-.157183.983916-.234006,1.180236-.030664.421878.436724.358372,1.137844-.340017,1.248719-.977765.15524-1.248922.942549-1.765685,1.535633-.380512.436749-.813173.828062-1.296664,1.314058,1.182005.093836,2.045858.695291,2.141266,2.163642.95164-.362567,1.862388.930243,2.693268-.493544-.294219-.141265-.501048-.297277-.729271-.340571-1.129855-.214526-.949773-1.031702-.723568-1.732946.290682-.901098,2.586728-2.152059,3.533711-1.905922.441203.114711.955127.504729,1.143478.907002.27833.59438-.141481.970572-.763987,1.162903-.272378.084171-.47455.395647-1.017512.878828h2.896885c-.680458,1.164722-1.19747,2.049703-1.817137,3.110326.612295.178157,1.033301.363488,1.469449.41154.536213.059087,1.085152-.005704,1.628413-.000548,1.379495.013053,2.085655.371509,2.018538,1.131616-.087862.995159-.829435,1.256167-1.728453,1.337523-.592297.053631-1.168731.282655-2.181337.543812,1.414884.328216,2.479042.639642,1.837708,2.042728.528742.205508.955575.37141,1.381836.537062-.951541.020053-1.915534.150083-2.851036.039458-2.466789-.291697-4.53643.723763-6.498435,1.94812-2.699594,1.684645-5.340887,3.468757-7.940963,5.304084-1.098849.775651-2.101394,1.722559-3.023025,2.708252-3.199895,3.42215-6.366094,6.876509-9.502284,10.357198-1.587196,1.761543-3.002554,3.682859-4.643518,5.38965-1.453411,1.51167-3.039163,2.919439-4.694448,4.208712-3.486866,2.715849-4.189564,6.370784-3.499792,10.389531.254795,1.484592.995646,2.980843,1.847595,4.24797,1.776743,2.642663,3.808455,5.074263,6.287347,7.15752,2.960989,2.488395,5.712831,5.226015,8.548228,7.863298.179709.167147.298353.399982.50827.688715-5.881234.72598-11.751933.06661-17.419812,1.620751-.065797-.086712-.225358-.206081-.207776-.286939.646987-2.976658.189048-5.943775-.078573-8.909049-.126812-1.40493-.658966-2.686904-1.838019-3.497952-3.403723-2.341326-6.666078-4.919671-10.681524-6.240504-5.404417-1.777759-10.782947-3.63431-16.170429-5.463409-.119877-.040703-.213902-.157581-.31997-.238938Z"/>
  <path class="cls-5" d="M47.279167,138.968925c.942289-1.205724,1.884578-2.411473,2.826767-3.617047,1.09342-.146571,2.084086.121088,3.153361.431368,3.564281,1.034317,7.121004,2.27088,10.969156,1.228517,1.483346-.40175,3.119492-.220903,4.621192-.578114,1.495885-.355791,2.954115-.961281,4.350533-1.622719,2.085393-.98776,4.118176-2.091303,6.142205-3.202368,1.247129-.684579,2.465332-1.432256,3.639579-2.23491.605335-.413782,1.09403-.571014,1.855876-.357061,1.693924.475708,3.425116.852474,5.163955,1.122723,1.194407.185605,2.427415.172104,3.642667.164481,3.626878-.022718,6.99119.868989,10.029407,2.859979,1.828942,1.198575,2.623387,3.597343,1.7423,5.538986-.770089,1.697026-2.490996,2.339632-4.107181,2.704764-2.002225.452318-4.051545.208572-5.946981-.787533-1.206759-.634211-2.000806-1.455821-2.286358-2.89007-.512604-2.574684-2.038536-3.573952-4.569478-2.961637-4.033825.975828-8.127234,1.459608-12.242011,1.889382-1.540949.160944-3.034904.730663-4.566776,1.029385-2.459617.479669-4.933752.884508-7.399632,1.332566-.382629.069549-.754038.20085-1.130627.303604-.114896.170559-.229804.341144-.344699.511703.347128.156236.681542.356389,1.04355.461211,1.750033.506946,3.531781,1.475276,5.257794,1.389012,5.575049-.278545,10.760794,1.208613,15.945731,2.854773,1.809579.574502,3.546724,1.409364,5.381991,1.86081,1.479984.364036,3.078537.554026,4.586861.414479,1.759957-.162788,3.458351-.158802,4.928846.776323,2.723029,1.731651,5.786946,2.275164,8.853579,2.823112,2.440465.436002,4.487269,1.486137,6.129653,3.348516,1.589338,1.802221,1.762647,3.752533.473006,5.779667-1.358227,2.134945-3.526439,3.015219-5.729218,2.406067-2.450651-.677654-3.918382-2.590402-5.550456-4.301776-.607439-.636951-1.08321-1.438409-1.781175-1.938405-.618746-.44325-1.488202-.855164-2.201808-.789501-2.525463.232312-4.462714-.912059-6.3385-2.32476-.162525-.122433-.30692-.268581-.463642-.39901-2.317289-1.927793-2.664703-1.942191-5.2075-.14266-7.053451-4.169229-14.752308-6.590043-23.056598-7.509525,1.472027,1.493386,3.397585,1.867461,5.191088,2.047162,5.549646.556118,10.410803,3.00645,15.317584,5.300123,1.492336.697558,2.694214,2.030821,4.001238,3.106838,1.310286,1.078707,2.558536,2.233888,3.882595,3.29471,2.178448,1.745401,4.851992,2.388132,7.436578,3.208023,3.580979,1.136,4.258374,3.233929,2.73182,6.702412-2.080126,4.726194-7.309367,4.920443-10.711559,3.055822-1.444595-.791643-2.392151-1.939949-2.496226-3.701392-.271954-4.602889-2.706343-8.040832-6.116616-10.862898-2.669123-2.208779-5.934081-3.093412-9.281284-3.242025-3.559661-.15808-6.523539-1.628946-9.488201-3.313442-1.888961-1.073277-3.818628-2.077303-5.756327-3.060555-.455374-.231091-1.016865-.252937-1.529705-.370887-.065374-.066859-.130598-.133867-.19581-.20085-.000237.047678-.020073.116903.003524.138351.044728.040703.114348.054005.173632.078691.903787.691455,1.749697,1.481254,2.723091,2.054436,2.219677,1.307108,4.516955,2.481794,6.748922,3.768899.627362.361769,1.182802.883063,1.692392,1.40777,1.319015,1.358149,2.54312,2.811554,3.901273,4.127704,1.318741,1.277938,2.730699,2.442486,3.440046,4.221017.350726.879426.828066,1.656871.41356,2.700056-.408429,1.027891.432088,1.627527,1.120939,2.174353,1.262657,1.002482,2.175957,2.226565,2.591833,3.796699.30418,1.148455.103153,1.706791-.959871,2.096185-1.684061.616874-3.866992.851427-5.445086-.958491-2.00702-2.301893-3.874613-4.649072-4.896134-7.651986-1.584955-4.659286-5.216403-7.489123-9.479023-9.585359-1.032156-.507593-2.148264-.841314-3.208225-1.295948-4.707223-2.018989-8.075633-5.226414-9.037608-10.461596-.251558-1.369059-1.134562-2.663787-.583805-4.148155Z"/>
  <path class="cls-5" d="M125.678669,142.604505c.74775-.419187,1.515074-.807212,2.239887-1.262917,3.270747-2.056205,6.871052-3.390888,10.42399-4.837144.797907-.324803,1.515671-.84657,2.269747-1.277415,2.609515,1.066028,5.493425,1.484294,7.770643,3.339648,1.170001.95326,2.627695,1.024652,4.043052,1.184251,2.489402.280737,4.985603.509187,7.467185.846371.792527.107711,1.585104.411913,2.314126.759534,5.574239,2.658083,11.494647,4.028437,17.566996,4.932251,4.626384.688565,9.205426,1.617886,13.919722,1.69867,3.153996.054055,4.509359,1.879866,4.148248,4.967822-.038527.329536-.099816.683633-.256588.967807-1.320074,2.393039-5.329481,3.329111-7.267976,1.371775-1.766656-1.783862-3.838863-2.401185-6.093816-2.877914-4.114378-.86996-8.22248-1.77208-12.34809-2.585245-1.458292-.287438-2.957203-.412661-4.443786-.486146-.445188-.021996-.91142.381772-1.367989.590494.250188.436599.394533,1.020592.766378,1.287778,6.072523,4.363229,11.515144,9.489579,17.242444,14.267337,2.536122,2.115615,4.819218,4.559994,7.047225,7.009753,1.232635,1.355259,1.955381,3.082426,1.916505,5.022724-.022688,1.132912-.520623,1.898001-1.511288,2.453894-2.571686,1.442993-6.67914.672473-8.510722-1.792332-.921631-1.240174-1.660539-2.641019-2.322469-4.044554-1.759534-3.730737-3.969859-7.140382-7.156704-9.784839-2.291638-1.901538-4.69111-3.697108-7.182081-5.326428-1.839451-1.203108-3.837518-2.282613-6.389629-2.015626.761995,4.159439.962474,8.309612,2.356737,12.207795,1.115959,3.12014,2.441063,6.17098,3.802378,9.194369.400161.888643,1.181556,1.637939,1.890829,2.348624,1.989474,1.993556,1.654264,6.907722-.715847,8.352159-2.80591,1.710079-6.60911-.110701-7.414762-3.297052-.593443-2.34713-.71764-4.743382-.227625-7.075915.415701-1.97861.144245-3.831274-.555887-5.576127-1.848691-4.607174-4.151236-9.036489-7.0016-13.071279-2.257419-3.195369-5.127333-5.854522-9.034558-7.329001-4.687524-1.768941-9.217305-3.968055-13.758965-6.101157-.859993-.403868-1.533926-1.308503-2.150107-2.094691-.502966-.641709-1.756919-.745883-1.475601-1.967276Z"/>
  <path class="cls-5" d="M196.166061,96.207966c1.621191,2.892188,4.092637,5.017319,6.430372,7.287028,2.19613,2.132205,5.13209,3.009763,7.529122,4.777434.363403.267933.878223.368919,1.340171.458296,2.332057.450923,4.668149.881843,7.006282,1.300407,1.102137.197263,2.037739-.010637,3.054604-.667267,1.630231-1.052676,3.577368-1.275472,5.497484-.984398,1.696675.257222,3.336021,2.18357,3.436734,3.820562.101385,1.64733-.943721,3.338577-2.70186,3.901246-1.400539.448232-2.909511.843107-4.355302.796276-2.083662-.067481-4.154076-.553926-6.228847-.870185-.19901-.030341-.384496-.151678-.583456-.179726-4.014288-.565908-8.028352-1.133908-12.045878-1.675977-.773924-.104448-1.109434.39196-1.13775,1.096941-.010534.262254.08074.53898.170295.793312,1.327794,3.771041,2.565808,7.578326,4.048183,11.28784.535541,1.340164,1.576886,2.51607,2.533707,3.64263,2.795475,3.291522,2.690454,7.584429-.345148,10.627224-1.215675,1.218553-2.667841,1.492638-4.29324.808134-1.882212-.792689-2.960939-2.324387-3.051889-4.243212-.081711-1.723754.255717-3.501439.6502-5.199063.190692-.820663.419063-1.531897.085571-2.341674-1.654438-4.017576-3.275554-8.049103-4.963314-12.05258-.28346-.672423-.76573-1.302674-1.288171-1.818587-.376602-.371958-.972386-.521792-1.602911-.836905-.735098,1.657817-1.323436,3.093063-2.001877,4.484367-.682052,1.398653-1.459139,2.750698-2.185023,4.128177-1.266081,2.40258-2.510919,4.816518-3.795529,7.209084-.364449.6788.0519,1.108525.283236,1.673411.507025,1.238107,1.033127,2.509095,1.248897,3.816627.359219,2.176844-.644671,3.973461-2.496251,4.953424-1.740905.92135-3.737751,1.351622-5.60654.050642-1.804884-1.256491-2.378553-3.063519-2.185346-5.164836.035489-.386306.170171-.822208.403722-1.122748,3.239742-4.16888,5.064325-9.126191,7.618329-13.675722.591276-1.053299.880165-2.277581,1.297461-3.427107.439186-1.209834.841589-2.433543,1.303413-3.634509.564081-1.466832.642031-2.893334-.264109-4.520437-.671767.305647-1.329737.577167-1.962453.898507-1.510716.767181-3.001433,1.57402-4.515237,2.335023-1.816689.913229-3.683261,1.732697-5.46491,2.708526-1.852128,1.014464-3.092184,2.705935-3.944556,4.549183-.83997,1.816445-2.172371,2.886035-3.903913,3.633587-.24959.107736-.536188.165428-.745558.325127-1.99204,1.519118-3.878709.582174-5.7144-.296854-1.454706-.696661-1.896233-2.290833-1.229945-3.796126,1.368811-3.09234,3.956485-4.601868,7.111079-4.478164,2.725668.106889,4.2648-1.10576,5.762266-3.030613,1.203721-1.547241,2.603837-2.957651,4.023801-4.316971,2.482528-2.376424,4.329152-5.013458,4.359859-8.631127.004707-.554424.446583-1.105162.686336-1.657743.874537-.479096,1.714084-1.042363,2.629762-1.421794,3.241385-1.343128,6.593246-1.967998,10.102526-1.318691Z"/>
  <path class="cls-3" d="M196.166061,96.207966c-3.50928-.649307-6.861141-.024437-10.102526,1.318691-.915679.379431-1.755225.942698-2.629762,1.421794-.081686-.253485-.232805-.506597-.234473-.760755-.027594-4.141006-.031828-8.27551.618746-12.390236.56042-3.544658.883129-7.127454,1.466311-10.667802.317753-1.929014.937744-3.810524,1.460409-5.702695.394134-1.426751.941928-2.816361,1.256991-4.258432.451539-2.067016,3.330169-3.909467,5.281366-3.228873.284954.099416.578426.37968.718736.652919.587491,1.144121,1.353047,2.265923,1.62129,3.490578.577529,2.636909,1.136056,5.321446,1.252658,8.006058.191489,4.409437.066569,8.835116-.00513,13.252624-.041789,2.574061-.227948,5.146303-.37964,7.717524-.022887.387925-.212483.765986-.324975,1.148605Z"/>
  <path class="cls-3" d="M113.747625,102.65206c1.533951.518006,3.121546.917115,4.590348,1.579624,2.762253,1.246028,5.672611,1.915014,8.642988,2.057923,2.834699.136383,5.723291-.192455,8.376912-1.258035,3.054828-1.226723,6.340866-1.361138,9.426749-2.332707,2.44176-.768825,4.823501-1.732797,7.215503-2.652652.816087-.313867,1.559627-.816528,2.376013-1.129349,1.929505-.739456,3.602746-1.847284,5.102927-3.257594.479705-.450923,1.072077-.781978,1.612873-1.167885.000025.000025-.013722-.011758-.013722-.011758-.264533.762747-.480926,1.546594-.803684,2.283833-.652267,1.489923-1.377901,2.947463-2.044612,4.431283-.91157,2.028754-2.422758,3.451021-4.104491,4.910429-3.63679,3.155986-8.089791,3.91116-12.472587,4.984811-2.165498.530461-4.350396.983301-6.532305,1.443914-.658443.138998-1.334344.242276-2.005588.265741-3.711527.129906-4.28933.379306-6.670225,3.001543-3.45987-2.324486-6.094937-5.501471-8.861473-8.544789-.450891-.49601-.967106-.935898-1.475825-1.375411-1.038855-.897561-1.993061-1.849924-2.347946-3.240431l-.011854.011508Z"/>
  <path class="cls-5" d="M213.216518,2.654903c.846744.382121,1.5603.539877,2.033779.965092.452236.406159.936822,1.098087.922403,1.651789-.124621,4.785904.961453,9.430617,1.491539,14.138751.180655,1.604634.028665,3.246708.228471,4.908038,1.541248-3.928249,2.380321-8.032712,3.100851-12.430765,1.024909,1.255444,1.405968,2.328696,1.33925,3.611392-.124422,2.391943-.473255,4.715981-1.49261,6.916091-.540422,1.166441-.876729,2.435311-1.486235,3.559754-.576558,1.063587-1.389855,1.998737-2.28322,3.247929-.941903-1.060149-2.034576-1.926149-2.649711-3.052958-1.623059-2.973195-3.042425-6.057814-4.530229-9.104295-.115805-.237119-.179933-.520945-.188699-.785665-.112368-3.401824-.248445-6.824895,1.263441-10.001831.575263-1.208763,1.413116-2.292527,2.250969-3.623324Z"/>
  <path class="cls-4" d="M140.524331,24.495934c.34841-5.595706,2.63417-9.31897,5.958038-12.520915,2.397306-2.309316,5.338222-3.771091,8.398304-4.851866,3.67823-1.299112,7.275547-.594629,10.373011,1.738526,2.882665,2.171364,5.428002,4.75494,7.254528,7.906891,2.072729,3.576792,2.697726,7.46521,2.162136,11.571068-.845374,6.480264-4.784725,10.498887-10.687925,12.287432-4.042629,1.22483-8.468709,1.652287-12.570983-.107462-1.682156-.721546-3.31692-1.984738-4.472202-3.408325-1.998116-2.46214-3.813211-5.131457-5.296233-7.930605-.847068-1.59878-.886117-3.62589-1.118673-4.684744ZM157.651817,7.678649c-1.177721.250197-2.418699.34092-3.522106.778516-4.499547,1.78461-8.013783,4.766399-10.328482,9.052282-1.886321,3.49277-2.619029,7.209209-1.092798,10.979129,1.355238,3.347544,3.342098,6.362564,5.990663,8.884961,1.507901,1.436018,3.224525,2.428486,5.32181,2.770452,3.208811.523212,6.477665.365581,9.480692-.533599,5.254569-1.573347,8.930184-4.975769,9.881725-10.740216.894909-5.421535-.347713-10.217029-3.956884-14.379483-.444765-.512949-.881411-1.033969-1.345576-1.528982-2.818487-3.005579-5.939186-5.400112-10.429045-5.28306Z"/>
  <path class="cls-4" d="M169.176798,40.412719c-.073418.350136-.056607.757417-.235818,1.040545-.780225,1.232602-1.818681,2.252098-3.207366,2.713059-5.224609,1.734291-10.52662,2.487847-15.955817.960235-1.967758-.553677-3.524895-1.636121-4.660528-3.377835-.924047-1.417236-1.944697-2.776655-2.990699-4.108125-2.69399-3.429125-3.449535-7.435442-3.518146-11.644004-.005977-.366303.320966-.737987.496192-1.113432,1.063112.46973.704117,1.243587.798106,1.864945.252529,1.669176.446334,3.349961.772629,5.00459.400684,2.031793,1.361838,3.798193,2.689881,5.40198.99211,1.198101,1.91775,2.470011,2.722082,3.80036,1.065453,1.762315,2.662212,2.687551,4.555432,3.143057,4.819243,1.159466,9.560361.549542,14.18921-.959164,1.028669-.33529,1.868689-1.271785,2.770546-1.964037.397347-.304999.732209-.69148,1.095413-1.040993.159636.09294.319247.185879.478883.278819Z"/>
  <path class="cls-5" d="M157.651817,7.678649c4.489859-.117053,7.610559,2.277481,10.429045,5.28306.464165.495014.900811,1.016033,1.345576,1.528982,3.609171,4.162454,4.851792,8.957948,3.956884,14.379483-.951541,5.764447-4.627156,9.166869-9.881725,10.740216-3.003027.89918-6.271882,1.056811-9.480692.533599-2.097285-.341966-3.813909-1.334434-5.32181-2.770452-2.648565-2.522397-4.635424-5.537417-5.990663-8.884961-1.526231-3.76992-.793524-7.486358,1.092798-10.979129,2.314699-4.285883,5.828935-7.267673,10.328482-9.052282,1.103407-.437596,2.344385-.528318,3.522106-.778516ZM157.291901,14.274222c-.43301.33113-.865372.550339-1.144823.893924-1.581693,1.944906-3.117487,3.927078-4.6873,5.881749-1.214181,1.511794-1.149031,2.983184-.271655,4.69685,1.880319,3.672796,3.57692,7.439428,5.370747,11.157012.337104.698579.776514,1.347761,1.225911,2.117757.26645-.342364.419636-.477975.497437-.648061,1.85671-4.060372,4.448817-7.74647,5.880761-12.043836.461002-1.383557.46145-2.307772-.164517-3.563166-1.640218-3.289628-4.511924-5.54352-6.70656-8.492228Z"/>
  <path class="cls-4" d="M157.291901,14.274222c2.194636,2.948709,5.066342,5.2026,6.70656,8.492228.625968,1.255395.62552,2.179609.164517,3.563166-1.431943,4.297367-4.024051,7.983464-5.880761,12.043836-.077801.170086-.230987.305697-.497437.648061-.449397-.769996-.888807-1.419178-1.225911-2.117757-1.793827-3.717584-3.490428-7.484216-5.370747-11.157012-.877376-1.713666-.942526-3.185056.271655-4.69685,1.569813-1.954671,3.105607-3.936843,4.6873-5.881749.27945-.343585.711813-.562794,1.144823-.893924Z"/>
</svg>