<?xml version="1.0" encoding="UTF-8"?>
<svg id="Layer_1" xmlns="http://www.w3.org/2000/svg" viewBox="0 0 168.543902 303.03941">
  <defs>
    <style>
      .cls-1 {
        fill: #1d1512;
      }

      .cls-2 {
        fill: #d45242;
      }

      .cls-3 {
        fill: #ebf0bd;
      }
    </style>
  </defs>
  <path class="cls-1" d="M88.526761,3.104973C93.971636,1.998373,99.426331-.055297,104.859156.001139c8.75417.090916,17.751498.634696,26.112757,2.93015,3.337857.916363,6.631799,6.705389,7.499617,10.795317,1.28067,6.035785,4.159573,8.253017,9.748713,8.25885,20.838606,14.787725,20.33338,49.526381-.806621,63.893062-1.330846.904441-2.495727,3.311997-2.358152,4.900837.600345,6.934351,1.710591,13.824531,2.635746,20.730793.145637,4.202715.291317,8.405387.436997,12.608059.354829,12.193363.709744,24.386769,1.064616,36.580132-.015481,2.803125-.030963,5.606207-.046401,8.409333.309714,12.684309.619429,25.368574.9291,38.05284,2.340312,1.859401,4.80469,3.583887,6.99855,5.602434,7.873444,7.244323,13.092831,16.415205,11.009613,26.910542-2.026867,10.210925-6.894383,20.062046-15.781024,26.498118-4.58855,3.32319-5.497623,7.178709-4.602273,11.949219,1.556549,8.293672-.636969,15.139466-7.080417,20.605269-.960535.404833-1.921027.809666-2.881562,1.214456-1.828953.556903-3.657863,1.113805-5.486816,1.670708-1.539609.476065-3.079175.952086-4.618784,1.428151l-.058066-.146066c-4.115916-.066257-8.231833-.132514-12.347792-.198771-12.204299-.233551-24.408556-.467145-36.612855-.700696-13.761362.100393-27.522618.229134-41.284152.29359-15.401837.072132-22.66029-6.587113-24.815233-22.03209-2.687915-19.265332-5.690734-38.486706-8.557586-57.727079-.250062-8.458607-.500123-16.917129-.750163-25.375693-.46871-5.967512-.952258-11.93391-1.402185-17.902837-.505076-6.701358-4.208869-13.40293.740879-20.122943,1.092427-1.483215.056651-4.533958.000879-6.862862-3.326428-29.258445-2.311558-58.508141.008963-87.77186.326868-4.121534.303861-8.455477-.616277-12.446941-1.298382-5.632324.071639-9.468117,5.121738-12.219694,10.782624-5.875053,21.509175-11.852857,32.258735-17.788635,8.665206-3.88348,17.330433-7.766961,25.996753-11.649755.456552.08637.698423-.102152.720358-.566766-.00639-.002144.165321.006347.1653.006347,5.559549-1.850653,11.119098-3.701305,16.678647-5.551872,1.882002-.389909,3.764003-.779818,5.646005-1.169813ZM59.043984,80.600423c-.169224-4.711887-.338447-9.423817-.507692-14.135703-1.082392-1.153474-2.236359-3.364102-3.236069-3.29643-9.669848.654509-19.313814,1.691679-29.15994,2.638233-1.336592,14.071419-2.687401,28.292249-4.009626,42.212413h40.403468c-1.179205-9.263813-2.334673-18.341163-3.490141-27.418513ZM69.481856,16.722799c-.778896,8.897748-1.605652,17.205658-2.20248,25.530207-.453958,6.331862-.540178,12.689369-.937849,19.026291-.215453,3.432975-1.212848,6.870882-1.037942,10.26436.551735,10.706374,1.607196,21.385902,2.237324,32.089402.398422,6.767315.568224,13.560317.512881,20.339125-.075949,9.309057-.144586,18.63917-.833424,27.914476-.419971,5.655568-3.931962,10.186009-9.835619,10.040115-10.886727-.269102-21.849188-1.024347-32.552775-2.884864-3.017335-.524482-7.126497-5.364208-7.533817-8.624615-3.141187-25.144115-1.925465-50.258254,1.564118-75.357683,1.539137-11.070509,1.586611-22.348452,2.3113-33.53222-.930322-.399172-1.860645-.798259-2.790967-1.197431-3.173029,3.216535-8.826388,6.23297-9.104861,9.683141-1.482358,18.366722-2.453678,36.861328-2.030255,55.275524.681054,29.620221,3.55777,59.207249,3.710526,88.817564.153678,29.786228,2.656781,59.141936,8.756079,88.248911,1.285538,6.134935,3.384773,11.237159,10.731827,11.827855,5.570077.447846,11.125981,1.546342,16.686752,1.536693,11.440627-.019813,22.879968-.850149,34.320445-.863958,14.502198-.01754,29.022022.996301,43.502778.547854,14.897339-.461312,19.150015-6.843049,15.859204-21.707838-.61231-.136202-1.297824-.479967-1.931062-.401617-16.359284,2.024765-26.702767-9.369782-33.547446-20.137695-6.22152-9.787609-4.606047-24.314636,1.298853-35.267212,6.982597-12.951395,18.451078-20.587557,33.137896-14.389067.764723.322751,1.744899.134959,2.90146.20053-1.454268-38.693754.959677-77.256795-5.746527-114.958666-6.323929-1.991615-12.381499-3.673173-18.276451-5.804721-11.030755-3.988677-14.656584-10.279498-13.066928-21.77684.254908-1.843448.171411-3.737929.187107-5.609338.17304-20.59845,6.806641-29.809515,26.376499-37.003019-1.355633-1.331575-3.465696-2.857332-4.659868-2.325731-11.471483,5.107156-21.712428,3.046025-31.499051-4.261982-1.604837-1.198374-4.452262-1.795417-6.380322-1.307302-6.96793,1.764025-13.788616,4.109741-20.127404,6.06975ZM61.886778,114.332872c-12.179705,0-23.326657.025002-34.473373-.013594-3.905438-.013509-6.834237.54884-6.41716,5.709946.72945,9.026188,1.303099,18.081538,1.439451,27.132214.069045,4.585848,2.208248,7.031657,6.211935,7.59778,6.845451.96804,13.758082,1.573402,20.663164,1.980422,10.160193.59893,12.130344-1.085973,12.499733-11.539283.353285-9.997015.076249-20.016288.076249-30.867484ZM58.173336,56.624834c2.031498-12.792035,3.88882-24.487419,6.040224-38.0344-12.100111,5.71878-22.182982,10.423334-32.182957,15.298054-1.07924.526026-2.306283,1.987455-2.396448,3.101432-.55285,6.829069-.797851,13.683183-1.188897,21.385987,9.907644-.583577,19.862955-1.169984,29.728078-1.751074ZM126.79184,7.307603c-8.299205,0-15.242562-.052405-22.183218.058838-.991584.015953-2.176406.628435-2.863164,1.352417-.315204.332272.084612,1.905717.628992,2.39975,3.761087,3.412948,18.604735,1.745328,24.41739-3.811005ZM130.442628,45.139157c-2.34177,3.741446-4.775957,6.075668-5.065987,8.651246-.187192,1.662731,2.768046,3.679263,4.314988,5.537292,2.512838-2.258488,5.025633-4.517061,7.538428-6.775549-1.835557-2.004695-3.671115-4.009476-6.787428-7.412989ZM130.286613,243.414805c.577016.830594,1.154031,1.661145,1.731047,2.491738,2.441306-1.555691,4.882655-3.111381,7.32396-4.667072-1.386038-1.543168-2.587972-4.161331-4.191265-4.435966-5.711361-.978246-4.430005,3.551037-4.863742,6.6113Z"/>
  <path class="cls-2" d="M69.481856,16.722799c6.338788-1.960009,13.159474-4.305724,20.127404-6.06975,1.92806-.488115,4.775485.108928,6.380322,1.307302,9.786623,7.308007,20.027568,9.369138,31.499051,4.261982,1.194172-.531601,3.304235.994157,4.659868,2.325731-19.569858,7.193504-26.203458,16.404569-26.376499,37.003019-.015696,1.871409.067801,3.76589-.187107,5.609338-1.589656,11.497342,2.036173,17.788163,13.066928,21.77684,5.894951,2.131548,11.952522,3.813106,18.276451,5.804721,6.706204,37.701871,4.292259,76.264912,5.746527,114.958666-1.156562-.065571-2.136738.122222-2.90146-.20053-14.686817-6.19849-26.155299,1.437672-33.137896,14.389067-5.904901,10.952576-7.520373,25.479603-1.298853,35.267212,6.844679,10.767913,17.188162,22.16246,33.547446,20.137695.633238-.078351,1.318752.265414,1.931062.401617,3.290812,14.864789-.961864,21.246526-15.859204,21.707838-14.480756.448447-29.00058-.565394-43.502778-.547854-11.440477.013809-22.879818.844145-34.320445.863958-5.560771.009649-11.116675-1.088846-16.686752-1.536693-7.347054-.590696-9.446289-5.692921-10.731827-11.827855-6.099298-29.106975-8.602401-58.462683-8.756079-88.248911-.152756-29.610315-3.029472-59.197343-3.710526-88.817564-.423424-18.414196.547897-36.908801,2.030255-55.275524.278473-3.450172,5.931832-6.466606,9.104861-9.683141.930322.399172,1.860645.798259,2.790967,1.197431-.72469,11.183768-.772163,22.461711-2.3113,33.53222-3.489583,25.099429-4.705304,50.213568-1.564118,75.357683.40732,3.260406,4.516482,8.100133,7.533817,8.624615,10.703587,1.860516,21.666048,2.615761,32.552775,2.884864,5.903657.145894,9.415648-4.384547,9.835619-10.040115.688838-9.275306.757475-18.60542.833424-27.914476.055343-6.778808-.11446-13.571811-.512881-20.339125-.630129-10.7035-1.685589-21.383028-2.237324-32.089402-.174906-3.393478.822489-6.831385,1.037942-10.26436.397671-6.336922.483891-12.694429.937849-19.026291.596828-8.324549,1.423584-16.632459,2.20248-25.530207ZM16.795631,221.910884c2.007311,5.548313,4.872276,16.939643,10.146212,27.07775,5.381105,10.344254,18.151913,15.46642,28.130468,12.629588,13.23182-3.761687,24.273404-10.301884,25.171756-24.53708.081353-1.289119,1.117665-3.142259,2.209942-3.642167,7.252772-3.31933,5.889248-10.002376,3.739988-14.419001-2.122028-4.360746-1.203349-6.805225.803705-10.030723,14.272293-22.936832,28.618947-45.828678,42.650527-68.911962,1.440073-2.369131.963408-5.903314,1.376132-8.89689-2.868825.565951-6.396233.25688-8.499477,1.839974-13.580045,10.221689-26.400814,21.506108-40.366309,31.144177-10.600513,7.315812-17.899708,20.913782-33.67996,19.302641-.201709-.020585-.503747.115317-.62747.278108-3.954541,5.202618-10.023412,4.598285-15.498306,5.948686-9.569647,2.360425-15.633286,13.036736-15.557208,32.216899Z"/>
  <path class="cls-3" d="M61.886778,114.332872c0,10.851196.277036,20.870469-.076249,30.867484-.369389,10.45331-2.33954,12.138213-12.499733,11.539283-6.905083-.40702-13.817713-1.012383-20.663164-1.980422-4.003687-.566123-6.14289-3.011931-6.211935-7.59778-.136352-9.050676-.710002-18.106026-1.439451-27.132214-.417077-5.161106,2.511723-5.723455,6.41716-5.709946,11.146716.038596,22.293668.013594,34.473373.013594Z"/>
  <path class="cls-3" d="M58.536313,66.464719c.169224,4.711887.338447,9.423817.507521,14.13476.0006,6.288934-.226003,12.58979.076721,18.865087.227011,4.705797-1.146505,6.805782-6.23818,6.54976-7.203626-.362248-14.446727-.307013-21.657407-.028175-4.557523.176342-6.536938-1.451052-5.976111-6.021504.943209-7.687152,2.058001-15.361138,2.701681-23.073935.336946-4.037094-.438691-7.967662,5.8041-7.81512,3.843062.093961,7.700404-1.330245,11.5868-1.702314,2.120463-.202931,4.3339.652364,6.470681.509858,2.262862-.150998,4.484533-.91958,6.724194-1.418416Z"/>
  <path class="cls-3" d="M58.173336,56.624834c-9.865124.58109-19.820434,1.167497-29.728078,1.751074.391046-7.702805.636047-14.556918,1.188897-21.385987.090165-1.113977,1.317208-2.575407,2.396448-3.101432,9.999975-4.874721,20.082847-9.579274,32.182957-15.298054-2.151404,13.54698-4.008726,25.242364-6.040224,38.0344Z"/>
  <path class="cls-3" d="M130.442628,45.139157c3.116313,3.403513,4.951871,5.408294,6.787428,7.412989-2.512795,2.258488-5.02559,4.517061-7.538428,6.775549-1.546942-1.858029-4.50218-3.87456-4.314988-5.537292.29003-2.575578,2.724217-4.9098,5.065987-8.651246Z"/>
  <path class="cls-1" d="M16.795631,221.910884c-.076078-19.180162,5.987561-29.856474,15.557208-32.216899,5.474894-1.350401,11.543765-.746068,15.498306-5.948686.123723-.162791.425761-.298693.62747-.278108,15.780253,1.611141,23.079447-11.986829,33.67996-19.302641,13.965494-9.638069,26.786263-20.922488,40.366309-31.144177,2.103245-1.583094,5.630652-1.274023,8.499477-1.839974-.412724,2.993577.063941,6.52776-1.376132,8.89689-14.03158,23.083284-28.378235,45.97513-42.650527,68.911962-2.007054,3.225498-2.925733,5.669977-.803705,10.030723,2.14926,4.416625,3.512784,11.099671-3.739988,14.419001-1.092277.499909-2.12859,2.353049-2.209942,3.642167-.898352,14.235196-11.939936,20.775393-25.171756,24.53708-9.978554,2.836833-22.749362-2.285334-28.130468-12.629588-5.273936-10.138107-8.138901-21.529437-10.146212-27.07775ZM94.088583,164.865803c-1.329002.959892-2.65796,1.91974-3.986962,2.879589-8.194094,6.365484-16.38821,12.73101-25.283407,19.641132,5.275244,7.572478,10.065803,14.449235,14.806531,21.254459,8.329932-13.238124,17.061416-27.114459,25.792943-40.990795,3.395279-5.907688,6.790602-11.815333,10.185881-17.723021-.45072-.330685-.90144-.66137-1.352159-.992055-4.996643,4.315588-9.993328,8.631219-14.989971,12.946807-.36495-.189551-.676594-.124323-.934933.195684-1.407567.92464-2.815133,1.84928-4.222657,2.773921l-.015267.014281ZM79.711909,222.402173c-1.839374-1.03048-3.624006-2.177821-5.528415-3.069397-5.534268-2.590888-3.171613-6.621764-3.183535-11.002751-.008534-3.138142-4.995956-6.259043-7.742023-9.405162-.122972-.140834-.015246-.462513-.069559-.686758-1.724914-7.123345-9.489002-9.519235-15.505511-5.263901-2.461526,1.741039-5.916265,3.084664-8.847595,2.957639-7.502126-.325153-11.337511,3.821683-13.316561,9.973643-4.106825,12.765961-.341278,24.833028,5.025911,36.232336,2.188457,4.648031,5.954712,9.685757,10.342025,11.937726,10.148743,5.209351,19.302128.532544,27.597237-5.801033,6.239746-4.764206,4.992461-10.865991,3.050507-17.127994-.239898-.773514.152434-1.743098.290245-2.961756,4.984249.265543,12.129401,3.307708,7.887274-5.782593Z"/>
  <path class="cls-3" d="M79.711909,222.402173c4.242126,9.090301-2.903026,6.048136-7.887274,5.782593-.13781,1.218659-.530143,2.188242-.290245,2.961756,1.941955,6.262003,3.189239,12.363787-3.050507,17.127994-8.295109,6.333577-17.448495,11.010384-27.597237,5.801033-4.387313-2.251969-8.153568-7.289695-10.342025-11.937726-5.367189-11.399307-9.132736-23.466374-5.025911-36.232336,1.97905-6.15196,5.814435-10.298796,13.316561-9.973643,2.93133.127025,6.386069-1.2166,8.847595-2.957639,6.016509-4.255335,13.780596-1.859444,15.505511,5.263901.054314.224245-.053413.545924.069559.686758,2.746067,3.146118,7.733489,6.26702,7.742023,9.405162.011922,4.380987-2.350733,8.411863,3.183535,11.002751,1.904409.891576,3.689041,2.038917,5.528415,3.069397Z"/>
  <path class="cls-3" d="M98.326507,162.077602c.258338-.320007.569983-.385235.934632-.195426,5.137991-1.371329,4.489658,3.434004,6.156549,5.768012-8.731527,13.876336-17.463011,27.752672-25.792943,40.990795-4.740727-6.805225-9.531287-13.681982-14.806531-21.254459,8.895197-6.910121,17.089313-13.275648,25.283021-19.640703,1.328873-.959763,2.658089-1.919869,3.987348-2.880018,0,0,.015267-.014281.01501-.014023,1.407438-.924554,2.815176-1.849366,4.222914-2.774178Z"/>
</svg>