<?xml version="1.0" encoding="UTF-8"?>
<svg id="Layer_1" xmlns="http://www.w3.org/2000/svg" viewBox="0 0 215.450337 247.547396">
  <defs>
    <style>
      .cls-1 {
        fill: #eae7e7;
      }

      .cls-2 {
        fill: #e4dfe2;
      }

      .cls-3 {
        fill: #131211;
      }

      .cls-4 {
        fill: #7e9e8d;
      }

      .cls-5 {
        fill: #dfb3c0;
      }

      .cls-6 {
        fill: #d4d2d5;
      }
    </style>
  </defs>
  <path class="cls-3" d="M189.170419,26.031315c5.508811,1.955199,11.017622,3.910397,16.526433,5.865581,9.619017,5.245708,11.625575,12.837693,8.188165,23.06294-8.648798,25.72801-8.473523,53.202532-15.187916,79.339654-1.857034,3.607506-3.210167,7.359855-3.299719,11.475402-4.114498,22.664179-10.453981,44.645031-20.032862,65.647349-1.684775,3.694098-3.387762,7.431949-3.447038,11.630435-2.643162,6.507258-5.28644,13.014544-7.929718,19.521802-.870227.83275-1.740339,1.6655-2.60929,2.498279.001276.000029-.31169.337931-.31169.337931l-.428618.341845c-5.708214,2.710113-11.439048,1.820418-17.427052.764178-17.48134-3.083475-35.044807-5.699936-52.576143-8.499439-28.057584-5.477664-54.92165-14.135558-79.570128-29.045413-8.538947-5.165249-12.445226-11.645223-10.6274-21.961107,1.961782-11.131673,2.732946-22.473033,4.023555-33.722887.321666-2.168844.561437-4.353491.977527-6.504083,5.430279-28.07143,13.414169-55.399051,23.953874-81.979093,3.004268-6.83691,8.79519-13.861821,8.349288-20.465949-.642869-9.524814,1.55764-17.888413,3.748404-26.607819,2.582378-3.553736,4.86339-7.383717,7.812675-10.601342C54.754852,1.181526,61.045383-1.273117,69.680145.635661c37.865564,8.37045,75.86708,16.126695,113.819296,24.105625,1.694635,1.289942,3.629621,1.523565,5.670978,1.290029ZM56.21772,62.091317c.072732-7.316363,3.133839-13.335325,7.168298-19.351677,4.467484-6.662204,8.879405-7.182075,14.555951-2.13811,8.66179,7.696741,17.526464,15.249047,20.792426,27.090374-.314126,3.232086-.132007,6.537368,2.810085,8.421168,5.353836,3.428103,9.205711,8.071988,12.096416,14.804098,2.938497-6.015671,5.332376-10.916505,7.726255-15.817353,6.088924-8.141502,18.258304-9.605244,21.901729-20.996664,1.223562-3.825211,5.967937-2.199854,7.60492,2.058404,1.92733,5.013608,4.983566,9.996684,5.309524,15.135098.604589,9.529569,5.74255,8.811086,12.08934,6.930113,2.394343-.709611,5.057341-1.277569,6.960079-2.739818,6.213739-4.775462,7.634384-.835432,8.212641,4.308839.741004,6.593357,1.42366,13.212707-.966275,19.711904-1.670275,4.541897.059856,6.037504,4.907934,6.061801,7.038263.035257,6.566493-4.978916,6.565101-9.132373-.00406-13.1153,2.437263-25.762992,6.207591-38.234543,4.265066-14.108665,4.431061-14.918495-10.455257-18.386466-40.859277-9.518768-81.911228-18.208635-122.828504-27.483683-5.067085-1.148609-7.90095.996837-10.377421,4.442156-3.7375,5.200042-5.997284,11.045487-6.900804,17.436694-.628833,4.447824-.077256,8.806635-2.322192,13.35046-5.403368,10.937178-4.938442,11.166799,6.958455,16.07868,2.005745,1.204662,2.053653-.096711,1.983706-1.549102ZM87.088174,124.246963c2.025813.360445,4.876382.087984,6.0757,2.884544,1.136794,2.651254-.072616,4.870824-2.152137,6.693895-1.896358,1.662557-4.012303,3.18555-5.512407,5.163596-2.237512,2.950463-5.615414,6.672207-1.997741,10.001309,3.587629,3.301252,8.3559,2.32553,12.118224-.881519,3.025728-2.579131,4.674775-5.983458,4.505184-10.039567-.142331-3.406285,1.352669-5.490929,4.682663-5.9873,3.152051-.469841,5.569711.525119,6.541438,3.946568.425486,1.498159.931823,3.096116,1.852858,4.304736,1.808546,2.373255,4.265994,3.813512,7.412013,3.092608,2.131141-.488339,3.041968-2.134297,3.152515-4.19608.156715-2.921947.121915-5.799387-3.364446-6.999845-.894819-.308139-1.792307-.620612-2.65685-1.002658-3.380338-1.493911-4.281073-4.166389-4.112758-7.712456.178291-3.75951,3.0683-4.740407,5.589315-5.55521,2.624602-.848277,5.601146-.542081,8.391048-.959311,5.574815-.833707,7.929834-3.148089,4.450317-8.864291-5.63931-9.264458-11.716982-9.997597-20.361837-1.637347-2.752201,2.661605-5.433179,4.816634-9.044588,2.842719-3.314451-1.811661-2.768093-5.322689-2.142857-8.492002.243947-1.236556.855379-2.42127.966971-3.659522.378158-4.198733-1.49964-7.506654-5.005142-9.481597-2.835257-1.597262-5.930933-1.62485-8.756446.775399-3.72474,3.163963-2.21988,6.646968-1.285853,10.395952,1.004903,4.033914,5.26962,5.567373,6.481698,9.128256,1.023579,3.007074,4.576988,6.319388.946207,9.456024-3.354818,2.898389-5.72979-1.018721-8.080865-2.478578-4.359721-2.706982-8.609011-5.139328-13.968762-4.926204-4.295109.170806-7.450641,1.929263-8.334672,6.231491-.923471,4.493693,1.757507,6.640023,5.659958,8.522939,6.099016,2.942692,11.705962.746738,17.951253-.566552ZM121.371677,157.372289c5.771898,2.797908,11.42304-.628281,13.868539,4.689305,2.677614,5.822611-3.051828,8.124917-5.468907,11.875526-1.579912,2.451627-5.563911,5.096445-3.079552,8.067653,2.223708,2.659663,5.630842-.410678,8.415408-1.318292,3.869044-1.261143,6.665673-3.60265,6.773088-8.074496.080968-3.369302,1.609028-5.3959,5.110353-5.476968,3.543665-.081996,5.27948,2.080498,5.33806,5.29755.070412,3.874125,1.780823,5.857115,5.566347,6.161934,1.59766.128648,3.472674.21337,4.137582-1.44578,1.12241-2.800924.915003-6.17733-1.289333-7.974407-8.726866-7.114431-2.204452-11.017,3.013084-14.875439,2.442483-1.806065,5.729094-2.431969,8.528043-3.806626,2.589222-1.271784,5.324836-2.992244,4.945518-6.244118-.458082-3.925329-3.700844-5.625391-7.189642-6.640995-3.43683-1.000454-5.251524.916979-6.664629,3.724006-2.143205,4.257345-4.445445,9.550793-10.332298,6.880982-5.519599-2.50331-4.239894-7.388762-2.093093-12.205642,2.70035-6.059032,1.159878-9.470985-6.385186-9.301803-7.970434.178722-10.22639,3.837824-6.824128,13.100876,1.707743,4.649292,3.056932,8.045704-3.931451,9.695751-4.099998.968125-7.557128,4.658425-12.437802,7.870984ZM47.669378,136.691694v.038534c1.258361,0,2.518811.046232,3.77462-.009481,2.738166-.121472,6.231603,1.157836,7.848171-1.662267,1.962014-3.423247-2.079057-4.755223-3.7636-6.566638-4.490568-4.828666-3.995483-10.349532-2.866345-15.968313.550417-2.738252,2.177541-5.238068-1.04643-7.517527-6.055052-4.281019-12.883124-8.078743-20.013026-7.139395-6.406066.843957-4.124358,8.78299-6.353982,13.280351-.549953,1.109198-.910015,2.381809-1.047938,3.613929-.575705,5.14388-5.187609,12.162441-2.159097,14.76307,4.83671,4.153429,11.81419,7.061675,19.021464,7.162924,2.201668.030937,4.404033.004813,6.606165.004813ZM71.305761,171.964104c3.076304-1.441692,5.971533-.71106,8.011962,2.331242,2.65163,3.953338-1.515764,5.381316-3.07468,7.809776-1.492796,2.325443-3.683677,4.694582-1.549172,7.683621.635445.88984,1.973846,1.911837,2.909497,1.8388,3.261439-.254716,4.839146-2.708808,5.720974-5.547976,1.193518-3.843478,1.112434-8.964916,6.139152-9.726659,5.733038-.868761,5.442343,4.762052,7.280934,8.150461,1.547316,2.851287,4.085962,4.918564,7.715931,4.509133,2.409655-.271852,4.132478-1.50087,4.47572-4.119911.456574-3.483975-.465506-6.245351-3.954187-7.733695-.867327-.370056-1.687211-.875459-2.479371-1.394257-5.618082-3.679775-6.291111-7.583735-.522577-11.788803,2.039733-1.486836,3.989567-3.100205,6.061548-4.539171,2.098893-1.457465,5.006302-2.985155,2.817045-5.814783-2.413367-3.119486-4.271561.137724-6.130916,1.545231-7.931574,6.004349-16.017196,9.769802-26.202986,4.659672-5.026485-2.521765-10.574156-.409779-15.702721,1.292312-2.25526.748492-3.872292,2.467835-3.825428,4.890729.04524,2.341187,1.564368,4.038321,3.666161,5.163799,2.673902,1.431805,5.478651,1.259433,8.643114.790476ZM150.440892,233.846623c-4.819775-13.31803-4.290585-27.22685-1.862486-41.205751.354494-2.040979,1.711223-5.01468-1.260449-5.61994-3.265151-.664988-5.451275,1.971334-5.296532,5.078874.400082,8.027931-2.668682,15.514013-3.147527,23.388273-.230375,3.788301,1.757971,8.745544-3.849904,10.434646-4.968254,1.496405-7.372921-2.509645-10.127559-5.446147-5.608918-5.979008-11.134897-12.035923-16.740336-18.018381-1.342925-1.433255-3.026076-2.576246-4.962338-1.202836-1.835574,1.302055-.694604,2.677146.326074,3.934347,12.149892,14.964539,23.212174,31.65677,46.921057,28.656916ZM49.285713,192.189921c2.205844,0,4.478388-.345933,6.605469.063498,6.975507,1.342763,5.930817-3.764874,6.110848-7.584634.085492-1.817721-15.165528-13.02591-17.075226-12.683544-7.478365,1.340704-14.772638,3.180751-21.526471,6.95586-4.302881,2.405033-3.908715,4.312231-.225155,6.683486,7.959994,5.124019,16.603456,7.637926,26.110534,6.565334ZM65.73779,101.181631c-3.193231-8.177122-5.776422-14.100474-7.822071-20.203955-2.595138-7.743176-9.293059-10.412146-15.88252-11.239779-5.3572-.672875-4.449157,6.347977-6.716249,9.685791-1.027523,1.513004-1.522028,3.42835-2.059917,5.220686-.439754,1.464743-.881827,3.507577,1.254417,3.76125,10.879931,1.292008,20.113018,7.112358,31.226339,12.776007ZM73.309882,91.433951c2.603026-8.231298,6.115604-13.199065,12.505662-15.412677,2.27034-.786431,2.454547-2.484899,1.763887-4.567919-2.213036-6.67299-5.2789-12.692996-11.113901-17.085151-3.829256-2.882311-6.324635-2.50518-7.502608,2.234981-2.785841,11.209189-3.559673,22.262983,4.346961,34.830766ZM18.513395,140.200097c-2.600822,9.697853-3.490422,19.44762-4.633712,30.419678,7.720223-3.608188,14.078498-6.2252,20.810638-7.823114,1.789175-.424624,5.660886-.762758,2.970396-3.842289-5.62945-6.443122-8.006626-16.134813-19.147323-18.754275ZM147.312968,106.84083c0-5.872772.260419-11.760534-.076096-17.613966-.311806-5.424517,2.352468-13.737464-3.565357-15.247843-5.715406-1.458697-10.659068,5.435753-14.970649,10.033609-.431518.460186-.869183.932738-1.202798,1.463235-1.185978,1.885684-1.261841,3.883534,1.033439,4.668921,8.457979,2.893851,12.587094,9.96969,18.781461,16.696045ZM106.905741,228.047961q-11.385572-19.485791-29.341117-9.915674c-1.316709.702362-2.534587,1.589854-5.786281,3.651911,12.807028,2.283691,23.568292,4.202603,35.127399,6.263762ZM158.240343,117.582556c7.438809-4.684259,13.293182-10.378092,13.832231-19.657192.171447-2.951333,3.811276-6.163702.641593-8.650862-2.683066-2.1051-5.946129.599983-8.959329,1.178596-3.850368.739344-5.186449,3.176707-4.921622,6.803045.396254,5.429504-.370038,10.700307-2.413715,15.72444-.964999,2.371994-1.398837,4.161968,1.820842,4.601973ZM159.096418,221.815339c3.613265-10.432848,7.248222-20.858331,10.818219-31.305937.583245-1.706875-.407506-3.929475-1.876406-3.08275-3.689245,2.126512-10.184282.76815-10.565456,7.274567-.521185,8.889936-1.91747,17.829018,1.623643,27.11412ZM80.883714,204.014648c-4.943082-.986102-8.65193-1.475703-12.200816-2.5124-2.891633-.844696-5.602074-.772123-8.245469.356371-5.597318,2.389608-8.871169,8.349015-7.037567,12.571306,2.19088,5.044487,7.710247.890449,11.38476-1.00547,5.175429-2.67042,10.084175-5.857637,16.099091-9.409807ZM164.688401,126.327114c6.364074.045623,11.212037.82195,15.61375,3.614436,2.753361,1.746772,4.813395-.078329,6.338671-2.1648,2.102373-2.876338,2.866461-6.214588,2.459071-9.780327-.217615-1.903327-1.453472-2.902955-3.188475-2.437449-7.330813,1.966753-15.522458,2.248449-21.223016,10.76814ZM11.973582,192.494102c6.751164,9.437323,17.03451,13.60319,27.203829,17.759547,2.494915,1.019735,3.927159-1.634563,4.359837-3.874821.507149-2.62484-1.609724-2.942475-3.524293-3.21221-10.121875-1.426006-19.212051-5.323124-28.039372-10.672516ZM50.741737,156.908146c5.558807-4.809458,12.424462-6.613551,19.620717-7.885017,1.651947-.291916,1.413453-3.407647.950731-5.170207-.767336-2.923309-2.825281-1.605047-4.440805-.828531-5.765634,2.771422-11.782406,4.318668-18.216428,4.409479-1.903898.026878-5.451739-1.13986-5.095505,2.132094.373402,3.430133,3.324426,5.840617,7.18129,7.342182ZM130.369634,199.679946c1.455328-8.856535-5.974664-5.667259-9.380987-7.578342-1.880814-1.055254-3.478822.786736-3.959755,2.837573-.361918,1.543376,8.965709,11.482535,10.587612,11.122481,4.076915-.904946,2.037413-4.568746,2.753129-6.381712ZM174.630244,181.433465c1.930346-6.32958,3.164463-10.148528,4.241866-14.011171.493461-1.769156,1.393733-4.020866-.594729-5.143851-1.039471-.587109-2.972484.063759-4.372597.537441-2.22104.751392-2.754521,2.675581-1.849494,4.589274,1.712383,3.620452,1.663779,7.604032,2.574954,14.028307Z"/>
  <path class="cls-1" d="M98.734396,67.691903c-3.265963-11.841327-12.130636-19.393632-20.792426-27.090374-5.676546-5.043965-10.088467-4.524094-14.555951,2.13811-4.034459,6.016352-7.095567,12.035314-7.168298,19.351677-.661313.516363-1.322509,1.032725-1.983706,1.549088-11.896897-4.911866-12.361823-5.141488-6.958455-16.078665,2.244936-4.543825,1.693359-8.902636,2.322192-13.35046.903519-6.391207,3.163303-12.236652,6.900804-17.436694,2.476471-3.445319,5.310336-5.590764,10.377421-4.442156,40.917276,9.275048,81.969228,17.964915,122.828504,27.483683,14.886318,3.46797,14.720322,4.277801,10.455257,18.386466-3.770328,12.471551-6.211651,25.119242-6.207591,38.234543.001392,4.153458.473162,9.167631-6.565101,9.132373-4.848078-.024297-6.578209-1.519905-4.907934-6.061801,2.389935-6.499197,1.707279-13.118548.966275-19.711904-.578257-5.144271-1.998901-9.084301-8.212641-4.308839-1.902738,1.462249-4.565736,2.030207-6.960079,2.739818-6.346791,1.880973-11.484751,2.599456-12.08934-6.930113-.325958-5.138414-3.382194-10.121491-5.309524-15.135098-1.636983-4.258258-6.381358-5.883616-7.60492-2.058404-3.643425,11.39142-15.812805,12.855162-21.901845,20.996548-.897719-3.596923-5.185289-3.242292-6.884912-5.904274-5.65091,3.703783-9.555566-10.874898-15.747729-1.503523Z"/>
  <path class="cls-5" d="M87.088174,124.246963c-6.245291,1.31329-11.852238,3.509244-17.951253.566552-3.902451-1.882915-6.583429-4.029245-5.659958-8.522939.884031-4.302228,4.039563-6.060685,8.334672-6.231491,5.359752-.213124,9.609041,2.219222,13.968762,4.926204,2.351076,1.459857,4.726047,5.376966,8.080865,2.478578,3.630781-3.136636.077372-6.44895-.946207-9.456024-1.212078-3.560883-5.476795-5.094343-6.481698-9.128256-.934027-3.748985-2.438887-7.231989,1.285853-10.395952,2.825513-2.400249,5.921189-2.372661,8.756446-.775399,3.505502,1.974944,5.3833,5.282865,5.005142,9.481597-.111591,1.238252-.723024,2.422966-.966971,3.659522-.625237,3.169313-1.171594,6.68034,2.142857,8.492002,3.611409,1.973914,6.292387-.181114,9.044588-2.842719,8.644854-8.360251,14.722526-7.627111,20.361837,1.637347,3.479518,5.716202,1.124498,8.030584-4.450317,8.864291-2.789901.41723-5.766446.111034-8.391048.959311-2.521015.814803-5.411023,1.7957-5.589315,5.55521-.168315,3.546067.73242,6.218545,4.112758,7.712456.864543.382046,1.762031.694519,2.65685,1.002658,3.486362,1.200458,3.521161,4.077898,3.364446,6.999845-.110547,2.061782-1.021375,3.70774-3.152515,4.19608-3.146019.720904-5.603466-.719353-7.412013-3.092608-.921035-1.20862-1.427372-2.806578-1.852858-4.304736-.971727-3.421449-3.389386-4.416409-6.541438-3.946568-3.329994.496371-4.824995,2.581015-4.682663,5.9873.169591,4.056109-1.479456,7.460436-4.505184,10.039567-3.762324,3.207049-8.530595,4.182771-12.118224.881519-3.617673-3.329101-.239771-7.050846,1.997741-10.001309,1.500104-1.978046,3.616049-3.501039,5.512407-5.163596,2.079521-1.823071,3.288931-4.042641,2.152137-6.693895-1.199318-2.79656-4.049887-2.524099-6.0757-2.884544Z"/>
  <path class="cls-5" d="M121.371677,157.372289c4.880674-3.212558,8.337804-6.902858,12.437802-7.870984,6.988383-1.650046,5.639194-5.046458,3.931451-9.695751-3.402262-9.263052-1.146306-12.922154,6.824128-13.100876,7.545064-.169183,9.085536,3.24277,6.385186,9.301803-2.146801,4.81688-3.426506,9.702332,2.093093,12.205642,5.886853,2.669811,8.189093-2.623637,10.332298-6.880982,1.413105-2.807027,3.227799-4.72446,6.664629-3.724006,3.488798,1.015604,6.731561,2.715665,7.189642,6.640995.379318,3.251875-2.356296,4.972334-4.945518,6.244118-2.798949,1.374657-6.08556,2.00056-8.528043,3.806626-5.217536,3.858439-11.73995,7.761008-3.013084,14.875439,2.204336,1.797077,2.411743,5.173483,1.289333,7.974407-.664908,1.659151-2.539923,1.574429-4.137582,1.44578-3.785524-.304819-5.495935-2.287809-5.566347-6.161934-.05858-3.217052-1.794395-5.379547-5.33806-5.29755-3.501326.081069-5.029385,2.107666-5.110353,5.476968-.107415,4.471846-2.904045,6.813352-6.773088,8.074496-2.784565.907614-6.191699,3.977954-8.415408,1.318292-2.484359-2.971208,1.49964-5.616026,3.079552-8.067653,2.417079-3.750609,8.146521-6.052914,5.468907-11.875526-2.445499-5.317586-8.096641-1.891396-13.868539-4.689305Z"/>
  <path class="cls-4" d="M47.669378,136.691694c-2.202132,0-4.404497.026124-6.606165-.004813-7.207274-.101249-14.184753-3.009495-19.021464-7.162924-3.028512-2.60063,1.583392-9.619191,2.159097-14.76307.137923-1.23212.497985-2.504731,1.047938-3.613929,2.229624-4.497361-.052084-12.436395,6.353982-13.280351,7.129902-.939348,13.957974,2.858376,20.013026,7.139395,3.223971,2.279458,1.596848,4.779274,1.04643,7.517527-1.129138,5.61878-1.624223,11.139646,2.866345,15.968313,1.684543,1.811415,5.725614,3.143392,3.7636,6.566638-1.616567,2.820104-5.110005,1.540795-7.848171,1.662267-1.255809.055713-2.516259.009481-3.77462.009481v-.038534Z"/>
  <path class="cls-5" d="M71.305761,171.964104c-3.164463.468957-5.969213.641329-8.643114-.790476-2.101793-1.125478-3.620921-2.822612-3.666161-5.163799-.046864-2.422894,1.570168-4.142237,3.825428-4.890729,5.128565-1.702091,10.676236-3.814077,15.702721-1.292312,10.18579,5.11013,18.271412,1.344677,26.202986-4.659672,1.859354-1.407508,3.717548-4.664717,6.130916-1.545231,2.189256,2.829628-.718152,4.357318-2.817045,5.814783-2.071981,1.438967-4.021815,3.052335-6.061548,4.539171-5.768534,4.205068-5.095505,8.109028.522577,11.788803.79216.518798,1.612044,1.024201,2.479371,1.394257,3.488682,1.488344,4.410761,4.249719,3.954187,7.733695-.343242,2.619041-2.066065,3.848059-4.47572,4.119911-3.629969.409431-6.168615-1.657846-7.715931-4.509133-1.83859-3.38841-1.547896-9.019223-7.280934-8.150461-5.026717.761743-4.945634,5.883181-6.139152,9.726659-.881827,2.839167-2.459535,5.293259-5.720974,5.547976-.935651.073037-2.274052-.94896-2.909497-1.8388-2.134505-2.98904.056376-5.358178,1.549172-7.683621,1.558916-2.428461,5.72631-3.856438,3.07468-7.809776-2.040429-3.042303-4.935658-3.772934-8.011962-2.331242Z"/>
  <path class="cls-6" d="M150.440892,233.846623c-23.708883,2.999855-34.771165-13.692377-46.921057-28.656916-1.020679-1.2572-2.161649-2.632292-.326074-3.934347,1.936262-1.37341,3.619413-.230419,4.962338,1.202836,5.605438,5.982458,11.131417,12.039373,16.740336,18.018381,2.754637,2.936502,5.159305,6.942552,10.127559,5.446147,5.607874-1.689102,3.619529-6.646344,3.849904-10.434646.478845-7.87426,3.547609-15.360342,3.147527-23.388273-.154743-3.10754,2.031381-5.743862,5.296532-5.078874,2.971672.60526,1.614943,3.578961,1.260449,5.61994-2.428099,13.978901-2.957288,27.887721,1.862486,41.205751Z"/>
  <path class="cls-4" d="M49.285713,192.189921c-9.507078,1.072592-18.15054-1.441315-26.110534-6.565334-3.683561-2.371255-4.077727-4.278453.225155-6.683486,6.753832-3.775109,14.048106-5.615156,21.526471-6.95586,1.909698-.342367,17.160718,10.865822,17.075226,12.683544-.180031,3.81976.864659,8.927397-6.110848,7.584634-2.127081-.409431-4.399625-.063498-6.605469-.063498Z"/>
  <path class="cls-4" d="M65.73779,101.181631c-11.113321-5.663649-20.346409-11.483999-31.226339-12.776007-2.136245-.253673-1.694171-2.296507-1.254417-3.76125.537889-1.792337,1.032395-3.707682,2.059917-5.220686,2.267092-3.337814,1.359049-10.358666,6.716249-9.685791,6.589461.827633,13.287382,3.496603,15.88252,11.239779,2.045649,6.103481,4.62884,12.026833,7.822071,20.203955Z"/>
  <path class="cls-4" d="M73.309882,91.433951c-7.906634-12.567783-7.132802-23.621577-4.346961-34.830766,1.177974-4.740161,3.673353-5.117292,7.502608-2.234981,5.835001,4.392155,8.900865,10.41216,11.113901,17.085151.69066,2.083021.506453,3.781488-1.763887,4.567919-6.390058,2.213612-9.902636,7.181379-12.505662,15.412677Z"/>
  <path class="cls-2" d="M18.513395,140.200097c11.140697,2.619462,13.517873,12.311153,19.147323,18.754275,2.69049,3.079532-1.181222,3.417665-2.970396,3.842289-6.732141,1.597914-13.090415,4.214926-20.810638,7.823114,1.14329-10.972058,2.032889-20.721825,4.633712-30.419678Z"/>
  <path class="cls-4" d="M147.312968,106.84083c-6.194367-6.726354-10.323482-13.802194-18.781461-16.696045-2.29528-.785388-2.219416-2.783237-1.033439-4.668921.333614-.530497.77128-1.003049,1.202798-1.463235,4.311581-4.597856,9.255243-11.492306,14.970649-10.033609,5.917825,1.51038,3.253551,9.823326,3.565357,15.247843.336514,5.853432.076096,11.741194.076096,17.613966Z"/>
  <path class="cls-6" d="M106.905741,228.047961c-11.559107-2.061159-22.32037-3.980071-35.127399-6.263762,3.251695-2.062058,4.469572-2.949549,5.786281-3.651911q17.952181-9.576496,29.341117,9.915674Z"/>
  <path class="cls-4" d="M158.240343,117.582556c-3.219679-.440006-2.785841-2.229979-1.820842-4.601973,2.043677-5.024133,2.809969-10.294936,2.413715-15.72444-.264827-3.626338,1.071254-6.0637,4.921622-6.803045,3.0132-.578614,6.276263-3.283696,8.959329-1.178596,3.169683,2.48716-.470146,5.69953-.641593,8.650862-.539049,9.2791-6.393422,14.972932-13.832231,19.657192Z"/>
  <path class="cls-6" d="M98.734396,67.691903c6.192163-9.371375,10.096819,5.207305,15.747729,1.503523,1.699623,2.661982,5.987192,2.307351,6.884912,5.904289-2.393763,4.90095-4.787643,9.801783-7.726139,15.817454-2.890705-6.73211-6.74258-11.375995-12.096416-14.804098-2.942092-1.8838-3.124212-5.189082-2.810085-8.421168Z"/>
  <path class="cls-6" d="M159.096418,221.815339c-3.541113-9.285102-2.144829-18.224184-1.623643-27.11412.381174-6.506417,6.876212-5.148055,10.565456-7.274567,1.4689-.846725,2.459651,1.375875,1.876406,3.08275-3.569997,10.447606-7.204954,20.873089-10.818219,31.305937Z"/>
  <path class="cls-4" d="M80.883714,204.014648c-6.014916,3.55217-10.923662,6.739387-16.099091,9.409807-3.674513,1.895919-9.19388,6.049957-11.38476,1.00547-1.833602-4.222291,1.440248-10.181698,7.037567-12.571306,2.643394-1.128494,5.353836-1.201067,8.245469-.356371,3.548885,1.036697,7.257734,1.526298,12.200816,2.5124Z"/>
  <path class="cls-4" d="M164.688401,126.327114c5.700558-8.519691,13.892203-8.801387,21.223016-10.76814,1.735003-.465506,2.97086.534122,3.188475,2.437449.40739,3.56574-.356698,6.903989-2.459071,9.780327-1.525276,2.086471-3.585309,3.911571-6.338671,2.1648-4.401713-2.792486-9.249675-3.568813-15.61375-3.614436Z"/>
  <path class="cls-2" d="M11.973582,192.494102c8.827321,5.349393,17.917498,9.24651,28.039372,10.672516,1.91457.269736,4.031443.58737,3.524293,3.21221-.432678,2.240258-1.864922,4.894556-4.359837,3.874821-10.169318-4.156357-20.452664-8.322225-27.203829-17.759547Z"/>
  <path class="cls-4" d="M50.741737,156.908146c-3.856864-1.501566-6.807888-3.91205-7.18129-7.342182-.356234-3.271953,3.191607-2.105216,5.095505-2.132094,6.434022-.090811,12.450794-1.638057,18.216428-4.409479,1.615523-.776515,3.673469-2.094778,4.440805.828531.462722,1.762559.701216,4.87829-.950731,5.170207-7.196254,1.271465-14.06191,3.075559-19.620717,7.885017Z"/>
  <path class="cls-6" d="M130.369634,199.679946c-.715716,1.812966,1.323785,5.476765-2.753129,6.381712-1.621903.360053-10.94953-9.579106-10.587612-11.122481.480933-2.050837,2.078941-3.892826,3.959755-2.837573,3.406322,1.911083,10.836315-1.278192,9.380987,7.578342Z"/>
  <path class="cls-6" d="M174.630244,181.433465c-.911175-6.424276-.862571-10.407855-2.574954-14.028307-.905027-1.913693-.371546-3.837882,1.849494-4.589274,1.400113-.473683,3.333126-1.12455,4.372597-.537441,1.988462,1.122985,1.08819,3.374695.594729,5.143851-1.077402,3.862643-2.31152,7.681592-4.241866,14.011171Z"/>
  <path class="cls-6" d="M54.234015,63.640404c.661197-.516363,1.322393-1.032725,1.983706-1.549088.069948,1.452391.02204,2.753764-1.983706,1.549088Z"/>
</svg>