<?xml version="1.0" encoding="UTF-8"?>
<svg id="Layer_1" xmlns="http://www.w3.org/2000/svg" viewBox="0 0 129.758402 176.512752">
  <defs>
    <style>
      .cls-1 {
        fill: #141814;
      }

      .cls-2 {
        fill: #b0d359;
      }

      .cls-3 {
        fill: #b8d433;
      }
    </style>
  </defs>
  <path class="cls-1" d="M34.499555,143.022708c-6.453614-3.122995-13.009051-6.054328-19.335114-9.41721-7.960452-4.231828-12.040526-11.646718-15.164441-19.70427.0039-9.870968.0078-19.741889.011699-29.612857,6.151477-16.511363,16.068049-30.95449,25.029888-45.937338,1.771119-2.961081,2.256689-6.691117,3.335216-10.06653.485665-.364419.971378-.728791,1.457091-1.093162,5.214483-7.142473,10.857228-14.018974,15.509762-21.51041,3.813082-6.139649,8.785969-7.719409,13.968112-2.67209,23.006758,22.408153,44.413132,46.150045,58.642481,75.32617,3.047489,6.248606,4.140188,13.450575,6.133357,20.213387,3.675591,30.702667-9.129292,41.724843-52.10388,44.566575,0,4.797302.03272,9.625993-.011271,14.454066-.030437,3.345998,1.046853,7.552145-.561901,9.819082-2.023796,2.851958-6.264665,5.665297-9.582095,5.704724-4.971745.05902-6.220293-4.571303-5.645361-9.17019.507923-4.062662,1.131412-8.110865,1.70097-12.164253.136635-1.73133.276124-3.463992.415612-5.196606,1.334201-4.280861-.75261-4.282954-3.822118-3.055985-5.509582.036097-11.019164.072242-16.528746.108434-1.14977-.197179-2.299492-.394357-3.449261-.591536ZM81.050053,109.235807c9.028659-6.198336,18.05727-12.39672,27.085882-18.595104.428263.029106.733159-.150856.914689-.539935.924153-2.078985,3.205097-4.866738,2.549981-6.120768-3.953332-7.568029-8.578662-14.785075-12.752094-21.741022-10.535211,8.132314-19.724712,15.17734-28.835647,22.322476-1.098359.861385-2.619749,2.353018-2.509699,3.401927.951689,9.070649,2.232339,18.106818,3.603398,28.593863,4.298795-3.167225,7.139167-5.259954,9.97954-7.352588l-.036049.031151ZM27.551525,50.852644c-3.185265,4.977645-6.37053,9.95529-9.724009,15.195792,14.042969,4.076739,26.425772,7.671565,40.250734,11.68505-1.492094-12.616394-2.414488-23.323446-4.194452-33.885966-.621397-3.687803-3.74807-5.433805-7.259347-1.865731-3.23639-1.477461-6.47278-2.954899-10.759353-4.911776-2.819399,4.674077-5.566509,9.228354-8.313572,13.782631ZM62.982129,119.660264c-1.394362-10.529372-2.551979-20.683172-4.265552-30.742236-.268039-1.573482-2.86087-3.257872-4.728627-3.959649-6.285734-2.361674-12.684228-4.454213-19.120912-6.37749-22.438817-6.704552-22.807394-7.480616-27.107425,15.621919-.235128,1.263114-.718463,2.47962-1.079336,3.719858-1.361214,4.678072.518528,7.309452,5.117749,8.487864,16.711227,4.281622,33.402718,8.639766,51.184103,13.249734ZM114.943905,96.539847c-13.01024,8.445631-25.345057,16.854452-38.108708,24.552032-5.537927,3.339768-6.671194,6.923798-4.388538,12.249288,29.938809,3.923267,48.637213-7.797215,42.497245-36.80132ZM76.075834,31.930835q-14.140463,7.076224-12.689983,20.099935c.893811,8.094267,1.744011,16.19329,2.885553,26.82011,9.943395-8.804795,18.648658-16.513218,27.866171-24.675162-6.360448-7.83355-12.163465-14.980541-18.061741-22.244884ZM11.879304,112.995519c-.505973.63101-1.011898,1.26202-1.517823,1.89303.824233,2.095725,1.218682,4.52441,2.542277,6.23334,8.809748,11.374159,31.82402,18.264713,45.106199,13.391222,1.97971-.72646,3.62147-3.015702,4.740279-4.970701.261713-.45723-2.027981-3.27466-3.51375-3.69351-15.742703-4.437044-31.560262-8.608663-47.357181-12.85338ZM53.673875,33.546739c-1.287118-6.743384-2.226014-11.66246-3.525117-18.468598-3.884515,5.910986-6.732544,10.244804-10.100671,15.370048,4.740755,1.078063,8.357706,1.900568,13.625787,3.09855ZM58.900152,16.909179c.81786,4.566904,1.588067,8.867597,2.548079,14.227971,2.864199-1.713281,5.087835-3.043382,7.686373-4.597769-3.682677-3.465276-6.719228-6.322488-10.234452-9.630202Z"/>
  <path class="cls-3" d="M109.050575,90.100768c-.181482.389078-.486379.569041-.915592.54041-1.518679.020212-3.392191-.532944-4.496162.152854-7.013946,4.35705-13.943287,8.867288-20.677257,13.641999-1.178875.835893-1.30129,3.161898-1.911559,4.799775.000048,0,.036097-.031151.035907-.030961-2.940863-1.631266-7.144018-2.539591-8.574001-5.036285-3.591603-6.270816-.219577-17.02476,5.552527-21.423139,4.991529-3.803656,10.036562-7.559516,14.779029-11.659131,2.901722-2.50844,5.374992-3.52967,7.399977.452712,3.102846,6.102268,5.88748,12.36633,8.807132,18.561765Z"/>
  <path class="cls-3" d="M27.551477,50.852644c2.74711-4.554277,5.494221-9.108553,8.31362-13.782631,4.286573,1.956877,7.522963,3.434315,10.760067,4.911015,2.117058,7.50568,5.083269,14.897932,6.110672,22.55052,1.0255,7.638797-1.369156,8.666304-8.391235,5.752901-4.420354-1.833962-8.979531-3.554639-13.643146-4.524029-5.621629-1.168614-7.055322-3.733745-4.458734-9.101515.841449-1.739415.894905-3.860014,1.308757-5.806262Z"/>
  <path class="cls-2" d="M11.879304,112.995519c15.796919,4.244717,31.614478,8.416335,47.357181,12.85338,1.485769.41885,3.775464,3.23628,3.51375,3.69351-1.118809,1.954999-2.760569,4.244241-4.740279,4.970701-13.282179,4.873491-36.296451-2.017063-45.106199-13.391222-1.323595-1.70893-1.718044-4.137614-2.542277-6.23334.505925-.63101,1.01185-1.26202,1.517823-1.89303ZM52.83975,129.78843c-21.061195-11.201473-27.068808-12.790935-35.809121-9.72287,14.089909,10.924823,21.000321,12.912495,35.809121,9.72287Z"/>
  <path class="cls-2" d="M109.050623,90.100768c-2.919699-6.195435-5.704333-12.459498-8.80718-18.561765-2.024985-3.982382-4.498255-2.961153-7.399977-.452712-4.742467,4.099615-9.787499,7.855475-14.779029,11.659131-5.772104,4.398379-9.14413,15.152324-5.552527,21.423139,1.429983,2.496693,5.633139,3.405019,8.573954,5.036237-2.840134,2.092491-5.680507,4.185221-9.979302,7.352445-1.371058-10.487045-2.651708-19.523214-3.603398-28.593863-.11005-1.048909,1.41134-2.540543,2.509699-3.401927,9.110935-7.145137,18.300436-14.190162,28.835647-22.322476,4.173432,6.955948,8.798762,14.172993,12.752094,21.741022.655116,1.25403-1.625828,4.041783-2.549981,6.120768Z"/>
  <path class="cls-2" d="M27.551525,50.852644c-.4139,1.946248-.467355,4.066847-1.308805,5.806262-2.596588,5.36777-1.162896,7.9329,4.458734,9.101515,4.663615.969391,9.222792,2.690067,13.643146,4.524029,7.022079,2.913404,9.416735,1.885896,8.391235-5.752901-1.027402-7.652589-3.993614-15.044841-6.110672-22.55052,3.510564-3.567313,6.637237-1.821311,7.258634,1.866492,1.779965,10.562521,2.702358,21.269572,4.194452,33.885966-13.824962-4.013486-26.207765-7.608312-40.250734-11.68505,3.353479-5.240502,6.538744-10.218147,9.724009-15.195792Z"/>
  <path class="cls-2" d="M81.050005,109.235807c.610268-1.637877.732683-3.963882,1.911559-4.799775,6.733971-4.774712,13.663311-9.284949,20.677257-13.641999,1.103971-.685798,2.977483-.132641,4.496162-.152854-9.02766,6.197908-18.056271,12.396292-27.084978,18.594628Z"/>
  <path class="cls-2" d="M58.900152,16.909179c3.515225,3.307713,6.551775,6.164926,10.234452,9.630202-2.598538,1.554388-4.822174,2.884488-7.686373,4.597769-.960012-5.360374-1.730219-9.661068-2.548079-14.227971Z"/>
  <path class="cls-3" d="M52.83975,129.78843c-14.8088,3.189625-21.719212,1.201953-35.809121-9.72287,8.740313-3.068065,14.747926-1.478603,35.809121,9.72287Z"/>
</svg>