<?xml version="1.0" encoding="UTF-8"?>
<svg id="Layer_1" xmlns="http://www.w3.org/2000/svg" viewBox="0 0 191.460027 372.357845">
  <defs>
    <style>
      .cls-1 {
        fill: #1d1512;
      }

      .cls-2 {
        fill: #d45242;
      }

      .cls-3 {
        fill: #ebf0bd;
      }
    </style>
  </defs>
  <path class="cls-1" d="M144.395415,369.432656c-8.604666,7.13385-19.356845.18172-27.14438-9.705199-6.118289-8.603053-12.236529-17.206105-18.354867-25.809158-2.685443-5.441883-5.370837-10.883766-8.056475-16.325405-.000195.000293.058293-.631843.058293-.631843l-.527668-.352886c-1.044928-2.768998-2.089856-5.538045-3.134833-8.307043-3.366002-11.65218-6.732053-23.30436-10.098104-34.95654-.10911-1.064375-.21827-2.128702-.327429-3.193077-.066502-1.15482-.133053-2.309591-.199653-3.464411-.575846-11.124854-1.151693-22.249758-1.791794-34.616603h-35.707855c1.818424,19.486623-4.403698,27.169641-21.213577,26.957381-3.663869-.046322-7.316792-.955412-10.974798-1.46715-.870195-.715105-1.740439-1.430259-2.610732-2.145364-.83345-1.496419-1.666901-2.992789-2.500351-4.489159-.603698-2.139598-1.207396-4.279147-1.811192-6.418696.184701-4.234096.369353-8.468241.554103-12.702336.421489-6.435847.842979-12.871645,1.264468-19.307493,3.35364-2.900585,6.707329-5.80117,10.061017-8.701706,6.786779-.31834,13.573558-.636632,20.360338-.954972,1.317191.798953,2.624951,2.273482,3.953038,2.291903,12.635542.176003,25.274504.104957,38.03059.104957.549998-5.996816.93098-10.150728,1.349489-14.713572-9.737546-1.078252-18.922603-1.814955-28.014624-3.174118-10.998447-1.644131-14.47913-8.949391-9.619787-19.32694.763968-1.631524,1.643447-3.209006,2.469519-4.811506.507439-.557865,1.014926-1.115779,1.522365-1.673644,1.177004-.518921,2.353959-1.037794,3.530962-1.556715l-.128411.130512h30.160135c.824851-5.636601,1.732621-11.83991,2.640343-18.043171.647626-4.280173,1.295203-8.560347,1.942779-12.84052,3.164639-12.627528,6.329229-25.255006,9.493819-37.882534,1.931883-4.455981,3.863766-8.911913,5.779475-13.33071-17.402974-7.682676-30.98005-17.275686-31.466576-37.605532,3.072484-6.626167,6.145017-13.252286,9.21755-19.878453l.058293-.07173c3.111916-1.939066,6.223832-3.878131,9.335749-5.817197,0,0,.016027.019887.015538.019496,2.021937-1.079181,4.04446-2.157922,6.066983-3.236614,7.377431-2.948959,14.754862-5.897918,22.132293-8.846926,13.05322-4.16559,26.009887-2.801736,38.929517.680022,3.432162,1.245167,6.864324,2.490334,10.296486,3.735501,1.976446.882118,3.952891,1.764186,5.929386,2.646304,5.531644,7.851936,11.063288,15.703969,16.594981,23.556003.941437,4.787026,1.882923,9.574002,2.824946,14.36093-1.080549,16.816621-10.720126,27.514465-25.795087,34.1506,5.312055,13.234548,11.424383,25.195101,14.907314,37.877843,5.75563,20.958757,10.619517,42.24509,14.299853,63.661397,2.365539,13.765588,1.938479,28.011105,2.763183,42.041479-.768707,16.648485-.065085,33.536347-2.72253,49.877681-2.626221,16.148962-6.758781,32.634489-13.679639,47.35026-7.899431,16.796392-16.623957,33.793316-30.662443,46.916653ZM94.44517,29.626345c1.094817.254965,2.189634.509931,3.28445.764945,11.445345,1.480832,22.89069,2.961663,32.770476,4.239959,6.800461-9.156178,12.014546-16.17652,17.231515-23.200674-21.029609-8.068593-52.129324-.530453-68.219847,16.752904,5.140743.496738,10.037074.969826,14.933406,1.442865ZM91.490445,288.657699c1.433826-5.641829,3.012041-11.359639,4.320241-17.138528,1.286994-5.685268,4.883432-9.457318,10.440191-8.865201,6.500981.692824,13.020189,3.773223,13.78142,11.224192,2.120493,20.756661,7.775369,41.161267,3.641099,62.570538-1.721627,8.915236-3.878425,19.966064,7.232749,26.852766,4.671026,2.895015,8.357079,3.746398,11.566134-.739683,5.215942-7.291725,9.512778-15.250329,14.844232-22.448482,17.387826-23.475624,21.758933-50.910394,24.458449-78.854654,1.147198-11.875043,1.998776-23.795821,2.446065-35.715964.35958-9.580648,1.086559-19.382741-.431018-28.749322-3.10444-19.160563-6.770508-38.31878-11.789192-57.053651-4.368273-16.306348-10.546468-32.171418-16.638811-47.955913-3.595315-9.314982-8.084718-18.377929-13.060158-27.044357-6.649231-11.581867-25.631739-11.328905-31.980562.283355-16.521052,30.217889-23.563383,63.343448-26.447403,97.069285-2.049691,23.969039-.477535,48.252802-.414551,72.395841.04769,18.286068-1.937844,36.860669,8.031116,54.169777ZM113.099272,341.817192c1.92988-4.093127,4.907179-7.388522,4.707136-10.478255-1.211501-18.715228-2.944317-37.40754-5.134928-56.033106-.23928-2.034055-4.36798-3.917906-7.035197-5.095789-.523417-.23112-3.529301,2.957657-3.8666,4.841947-4.119611,23.011478-6.126205,45.781818,11.32959,66.765202ZM31.580866,233.379131c1.011213-7.490059,6.182397-9.942818,13.428485-9.703879,6.903561.227602,13.812546.294544,20.719527.41113,8.76259.147956,9.570925-.982872,6.499711-10.670529-18.41062-.428623-37.210675-.999632-56.013613-1.11617-2.086094-.012997-5.707501,2.296252-6.007517,3.990662-1.039309,5.869285-.926143,11.94262-1.267791,18.237743,7.673685-.389387,14.970102-.759668,22.641198-1.148957ZM166.166174,21.018651c-3.474575,11.474955-8.866814,20.43881-19.544429,25.495753-1.608021.761525-2.143214,3.788224-3.80088,6.968499,14.058765-1.517625,16.655962,9.326513,21.95497,16.584035,15.995925-8.740845,17.095872-31.571531,1.390338-49.048287ZM76.182604,183.598637c1.818668-14.068243.601304-15.50417-11.780152-15.813666-2.913534-.072805-5.825895-.228335-8.739624-.253646-9.700166-.084337-10.785162,1.061492-10.874434,11.981417,10.251142,1.334195,20.574209,2.677674,31.39421,4.085895ZM71.776121,40.300637c8.41972,10.726624,29.60569,12.096049,44.413226,3.005102-15.300805-2.084432-28.637965-10.930772-44.413226-3.005102ZM7.208268,249.656357c.716473,1.290658,1.432995,2.581365,2.149517,3.872024,6.529908-1.407391,13.157249-2.504846,19.502554-4.499518,1.183942-.372187,1.236128-4.344477,1.810557-6.655387-5.456982-.278517-11.106043-1.505458-16.29384-.454862-2.797192.566465-4.80491,5.031583-7.168787,7.737744ZM97.217735,71.232703c4.053255-6.153714,6.90918-10.48964,9.720786-14.758233h-29.03776c-.265715.446556-.531479.893063-.797243,1.339619,6.623773,4.418846,13.247547,8.83774,20.114216,13.418614ZM159.839241,19.732879c-9.411144-.715789-18.410864,7.724991-18.856198,14.546902-.096504,1.477656,1.196305,3.867333,2.44455,4.376042,1.201777.489848,3.851453-.415821,4.693552-1.565999,4.120881-5.628343,7.850324-11.543314,11.718097-17.356944ZM124.145116,50.973268c4.635307-.238841,8.648642-.205174,12.510893-.952333.476655-.092204,1.023135-5.819738.03479-6.406872-3.490504-2.073731-7.634449-3.047564-12.545683-4.800854v12.160059Z"/>
  <path class="cls-3" d="M91.490445,288.657699c-9.96896-17.309108-7.983426-35.883709-8.031116-54.169777-.062984-24.143039-1.63514-48.426802.414551-72.395841,2.884021-33.725837,9.926352-66.851396,26.447403-97.069285,6.348823-11.612259,25.331331-11.865221,31.980562-.283355,4.97544,8.666427,9.464844,17.729375,13.060158,27.044357,6.092343,15.784495,12.270538,31.649565,16.638811,47.955913,5.018684,18.734871,8.684752,37.893088,11.789192,57.053651,1.517577,9.36658.790598,19.168674.431018,28.749322-.447289,11.920143-1.298867,23.840921-2.446065,35.715964-2.699515,27.944261-7.070622,55.37903-24.458449,78.854654-5.331454,7.198153-9.628289,15.156757-14.844232,22.448482-3.209055,4.486081-6.895108,3.634698-11.566134.739683-11.111173-6.886703-8.954376-17.93753-7.232749-26.852766,4.13427-21.409271-1.520606-41.813877-3.641099-62.570538-.761231-7.450969-7.280439-10.531369-13.78142-11.224192-5.556759-.592118-9.153198,3.179933-10.440191,8.865201-1.3082,5.778889-2.886415,11.496699-4.320241,17.138528ZM135.733727,209.271175l-.270601-1.660255c-9.539359,1.514107-19.273779,2.296398-28.557342,4.770608-7.616027,2.029804-13.273493,11.447885-12.184637,18.682979,1.8302,12.160645,1.884291,15.343998,14.048699,19.654222,15.083268,5.344353,30.180999,4.93806,45.554658,3.368396,5.999553-.612542,9.202696-4.181813,9.250435-10.027937.069678-8.52111-.291075-17.047692-.564119-25.5689-.197991-6.176631-3.753972-9.070864-9.680426-9.192727-5.863226-.120593-11.730947-.026386-17.596666-.026386ZM130.157276,177.023874c-2.291219-5.184865-3.194592-12.217326-7.149194-15.188029-9.625162-7.230501-21.837554-1.852677-24.531645,9.980784-1.24077,5.450092-3.514642,14.107626-.976471,16.314117,6.937911,6.031118,16.556526,5.993591,25.707427,3.602253,8.467557-2.212794,3.634356-9.202158,6.949883-14.709126ZM112.836245,113.840842c-7.704176-1.392439-13.401024,5.848225-14.509278,15.202981-1.309324,11.051756,3.98734,17.552151,13.678027,17.944615,9.074871.367643,15.229807-5.910085,15.723515-16.036968.456084-9.355489-5.849984-16.600892-14.892264-17.110628Z"/>
  <path class="cls-2" d="M31.580866,233.379131c-7.671096.389289-14.967512.75957-22.641198,1.148957.341648-6.295123.228482-12.368458,1.267791-18.237743.300017-1.69441,3.921424-4.00366,6.007517-3.990662,18.802938.116537,37.602993.687546,56.013613,1.11617,3.071214,9.687657,2.262879,10.818485-6.499711,10.670529-6.906981-.116586-13.815966-.183528-20.719527-.41113-7.246088-.238938-12.417272,2.21382-13.428485,9.703879Z"/>
  <path class="cls-2" d="M76.182604,183.598637c-10.820001-1.408222-21.143069-2.751701-31.39421-4.085895.089272-10.919924,1.174267-12.065754,10.874434-11.981417,2.913729.025311,5.82609.180841,8.739624.253646,12.381456.309496,13.59882,1.745423,11.780152,15.813666Z"/>
  <path class="cls-2" d="M71.776121,40.300637c15.775261-7.92567,29.112422.92067,44.413226,3.005102-14.807536,9.090946-35.993506,7.721521-44.413226-3.005102Z"/>
  <path class="cls-2" d="M159.839241,19.732879c-3.867773,5.81363-7.597215,11.728601-11.718097,17.356944-.842099,1.150178-3.491775,2.055847-4.693552,1.565999-1.248246-.508709-2.541054-2.898386-2.44455-4.376042.445334-6.821911,9.445054-15.262691,18.856198-14.546902Z"/>
  <path class="cls-2" d="M124.145116,50.973268v-12.160059c4.911235,1.75329,9.055179,2.727123,12.545683,4.800854.988345.587134.441865,6.314668-.03479,6.406872-3.862251.747159-7.875586.713493-12.510893.952333Z"/>
  <path class="cls-1" d="M135.733727,209.271175c5.865718,0,11.733439-.094207,17.596666.026386,5.926454.121863,9.482434,3.016096,9.680426,9.192727.273045,8.521208.633798,17.04779.564119,25.5689-.047739,5.846124-3.250882,9.415394-9.250435,10.027937-15.373659,1.569664-30.47139,1.975957-45.554658-3.368396-12.164408-4.310224-12.218499-7.493577-14.048699-19.654222-1.088856-7.235094,4.56861-16.653175,12.184637-18.682979,9.283563-2.47421,19.017983-3.256501,28.557342-4.770608l.270601,1.660255ZM120.606825,231.737297c-.252815-2.279492.063326-5.721915-1.165472-8.474593-.945981-2.118978-4.931611-5.163854-5.676326-4.708406-3.96154,2.423148-9.77004,5.44931-10.304646,8.970353-.73035,4.810529,1.143484,12.330345,4.683291,15.001129,7.742386,5.841677,12.844381,1.352616,12.463154-10.788484ZM126.817367,247.185519c26.526952,3.701053,30.65829.432679,28.427612-24.349044-.180743-2.008011-3.42322-5.162047-5.446428-5.32989-7.641973-.633944-15.367991-.254721-22.981184-.254721v29.933655Z"/>
  <path class="cls-1" d="M130.157276,177.023874c-3.315527,5.506968,1.517674,12.496331-6.949883,14.709126-9.150901,2.391338-18.769516,2.428865-25.707427-3.602253-2.538171-2.206491-.264298-10.864025.976471-16.314117,2.694092-11.833461,14.906483-17.211285,24.531645-9.980784,3.954602,2.970703,4.857975,10.003163,7.149194,15.188029ZM106.117873,184.656612c13.980878,1.756515,15.155389,1.377194,15.544874-4.77354.599203-9.463084-1.834793-13.635027-7.858386-13.469724-6.565578.180108-8.879958,5.504427-7.686487,18.243264Z"/>
  <path class="cls-1" d="M112.836245,113.840842c9.04228.509735,15.348348,7.755139,14.892264,17.110628-.493708,10.126883-6.648644,16.404611-15.723515,16.036968-9.690687-.392465-14.987351-6.89286-13.678027-17.944615,1.108254-9.354756,6.805103-16.59542,14.509278-15.202981ZM106.24218,130.835567c.135056,4.813412-.512618,9.978194,6.421677,9.542144,6.22266-.391341,7.581286-4.9127,7.571318-10.021975-.007965-4.077882-.509589-7.813774-6.262727-7.915702-6.392653-.113313-8.429151,2.936646-7.730268,8.395533Z"/>
  <path class="cls-3" d="M152.74966,243.743438c-.307639.16584-.530795.376731-.775011.404778-19.974029,2.293467-22.911653-.54003-20.314993-20.347143.235029-1.792624,2.749013-4.418357,4.514714-4.697802,12.949289-2.048909,19.239966,4.594605,17.404928,17.842688-.315604,2.278026-.559135,4.566069-.829639,6.79748Z"/>
</svg>