<?xml version="1.0" encoding="UTF-8"?>
<svg id="Layer_1" xmlns="http://www.w3.org/2000/svg" viewBox="0 0 211.517445 328.759291">
  <defs>
    <style>
      .cls-1 {
        fill: #1d1512;
      }

      .cls-2 {
        fill: #d45242;
      }

      .cls-3 {
        fill: #ebf0bd;
      }
    </style>
  </defs>
  <path class="cls-1" d="M60.434364,328.165223c-3.866476-.425114-7.732962-.850229-11.599394-1.27531-2.473356-8.152132-4.946744-16.304302-7.420133-24.456467-1.218597-14.872373-4.512228-29.29151-9.468236-43.34754-1.698594-6.26893-3.39722-12.537859-5.095858-18.8068-3.395004-11.576531-6.790007-23.153051-10.185011-34.72956-1.327744-5.294026-2.655477-10.588051-3.98321-15.882066-2.087772-10.697629-4.175544-21.39528-6.263328-32.092887-.841516-2.789372-1.683016-5.578744-2.524527-8.368138-1.402737-8.150395-4.301433-16.385333-3.846807-24.43076.633274-11.20674,3.786862-22.269672,5.824295-33.401022.168513-.920645.051282-1.893607.066865-2.842242,3.684663-19.750626,7.356973-39.503568,11.068832-59.249076.488103-2.596442,1.238007-5.14275,1.76483-7.732995,1.995079-9.809518,6.849637-16.213092,17.952216-15.757005,2.0766.085315,4.1963-.878913,6.296104-1.358822,15.999331-.787731,31.999743-1.554376,47.997663-2.369899,12.900074-.657641,25.797138-1.374217,38.695536-2.064635,13.920635.738501,27.841271,1.477001,41.761906,2.215458.938643.052142,1.877308.104284,2.81595.156426l3.432963,6.812196c1.341353,2.828875,2.682684,5.657751,4.024015,8.486626,4.20907,9.668664,8.418141,19.337306,12.627211,29.005971,1.026847,2.53153,2.268019,4.999139,3.045229,7.60511,4.544089,15.236512,8.979549,30.505426,13.451667,45.763399,2.427864,12.535676-2.429937,23.510248-7.496305,34.395138-1.51999,3.265663-1.8665,5.425605,1.053426,8.683702,10.13395,11.307804,3.946839,41.189754-13.202537,42.46346-1.455849.1081-3.108003,2.46836-4.027544,4.136019-8.122075,14.729761-14.274711,30.149586-15.82,47.100716-8.945008,6.624968-9.660041,9.481017-4.126689,16.482845,2.433047,14.233243-2.282466,22.11029-15.806435,26.404014-1.447975.359755-2.895972.719521-4.343947,1.079287-3.740477,1.103196-2.216804,2.049416-.315675,4.004826,2.524957,2.597038,4.298135,5.925,6.394333,8.938898-.001279.973889-.002559,1.94779-.00386,2.921684-1.888534,6.853982-5.981168,11.63341-12.598273,14.561882-2.070127.916161-4.106816,3.153968-4.994155,5.274208-3.290874,7.863487-8.584955,12.438577-17.39394,12.262526-9.163545-.017116-18.32708-.034237-27.490614-.051359-10.088844-.179265-20.17771-.358536-30.266565-.537807ZM102.414531,37.066859c-.166329-.108519-.332669-.217037-.49901-.325534.011988.240065.023965.480151.03593.720216.150073-.13009.300158-.260158.450242-.390226.096862.767924.193724,1.535826.290574,2.303751,1.251737,6.880439,2.503474,13.7609,3.755211,20.641339.698622,9.280577,1.430859,18.558773,2.083802,27.842571.4204,5.977352.304977,12.035806,1.324899,17.902301.323946,1.863478,3.465056,4.493844,5.432178,4.597973,8.630679.456881,17.308735-.087366,25.95953.130796,6.743181.170057,8.29802-3.285933,7.446788-9.093361-1.041361-7.104623-2.698962-14.206665-2.856799-21.337139-.544513-24.600552-8.330179-47.358646-16.815946-69.993995-.950906-.798495-1.937236-2.326403-2.847227-2.282246-8.770011.425517-17.52714,1.115714-28.054184,1.854038,1.524258,9.24511,2.973556,18.035611,4.422855,26.82609l-.359733.238675s.230878.364773.230889.364751ZM43.085397,149.45607c-3.285128-.132031-6.570246-.264062-9.855374-.396071-2.837434-.545902-5.674856-1.091804-9.070047-1.745012,3.02818,9.3915,5.709981,17.708798,8.482204,26.306479,6.605636.615116,13.424217,1.250038,20.976183,1.953271-1.429602-9.323301-2.715879-17.711952-4.004936-26.118645-2.263431,0-4.395725,0-6.528029-.000022ZM57.497664,218.782057h-15.306874c1.703214,8.362095,3.187903,15.651243,4.69596,23.055175,2.711148,0,5.060722,0,7.410295.000011,2.91236.450386,5.816691,1.064498,8.744083,1.2078.560073.027416,1.210943-1.799955,1.819927-2.771605-.124014-.984454-.248027-1.96892-.372052-2.953374-.880876-4.88407-1.479648-9.846507-2.802165-14.607887-.437858-1.576289-2.739612-2.634843-4.189175-3.93012ZM127.017401,172.403322c2.459471-9.020221,4.918942-18.04042,7.364054-27.007925h-27.88448v22.346429c-.398586,2.276731-.797193,4.553485-1.474553,8.422508,7.979853-1.364512,14.987405-2.562762,21.994979-3.761011ZM14.1759,122.130133c-9.078219.600095-9.632442,5.696085-8.161506,11.373621,1.866511,7.204341,4.852242,14.137893,6.456627,21.387119,3.728765,16.847949,6.549446,33.901642,10.484022,50.697217,1.933927,8.255351,6.093811,15.973745,8.244665,24.197136,3.867744,14.787659,6.944547,29.781196,10.419407,44.672929,3.259377,13.968145,6.679106,27.899234,9.871222,41.882482.990465,4.338829,3.483219,5.737469,7.73551,5.712694,19.751377-.115064,39.503868-.035517,59.255962-.031309,4.842118.001031,8.416068-1.696454,9.347674-7.013408-4.034757-1.618114-8.150484-2.912652-11.926803-4.863971-6.155879-3.180872-7.015007-7.956649-5.008911-14.206224,3.426192-10.673565,11.787802-12.88717,21.165738-14.099525,2.48938-.321818,4.955997-.819636,7.433069-1.236628-2.296252-2.56199-4.456061-3.412715-6.669975-4.085432-10.238653-3.111101-14.570182-14.747119-7.027116-21.931951,5.016675-4.778463,12.557226-9.552657,18.994724-9.588819,10.269995-.0577,15.552541-3.817532,18.564068-12.742027.835837-2.47705,1.744328-4.930334,2.655996-7.380938,3.919709-10.536384,7.838911-21.072988,11.792919-31.596513.817243-2.174984,1.782486-4.294341,2.847183-6.840252-3.974961-1.225534-7.394977-2.180101-10.747654-3.330907-14.461906-4.964047-19.549294-18.91673-10.809854-31.520825,7.353489-10.605189,18.377512-14.806893,31.126741-14.907383,1.857523-.014646,4.843287-.360119,5.371522-1.472017,2.731098-5.74869,4.832612-11.796491,7.457111-18.516998-18.024055,0-34.767368-.15572-51.498042.232698-1.737976.040364-4.494814,3.085328-4.915633,5.121333-2.213782,10.709826-5.351737,21.170412-7.979699,31.727474-7.866769,31.602435-13.937729,63.653083-20.648377,95.54167-3.63659,17.280833-7.211686,34.57523-10.67833,51.890791-1.06591,5.324039-4.224488,7.083222-9.303704,6.67438-5.763965-.463962-4.453171-4.843706-4.389097-8.134613.346367-17.790975.760072-35.583291,1.429326-53.364655.830775-22.072904,1.626987-44.154796,3.00942-66.196987,1.268423-20.224425,3.295782-40.401273,4.955688-60.204504-13.507217,0-26.209112.309631-38.886579-.113106-7.935994-.264636-10.371312,3.384571-9.333415,10.477018,5.058869,34.569959,9.767953,69.197981,15.404916,103.673968,3.554253,21.737985,8.815447,43.19402,12.577275,64.903662.646911,3.733369-1.793084,11.228532-3.826895,11.614656-7.041222,1.336804-14.606178.800866-21.78907-.259723-1.395965-.206119-1.9227-5.985496-2.936997-9.1665-1.389282-4.356971-3.047203-8.636413-4.258698-13.040216-2.413957-8.774807-5.047278-17.525209-6.779927-26.443098-2.642684-13.601817-4.421575-27.369588-6.923935-41.001413-1.152217-6.27687-3.350162-12.354546-4.721491-18.599942-2.758405-12.562364-5.174369-25.200052-7.945919-37.759372-.977584-4.42999-2.889675-8.65611-3.83478-13.090444-2.031153-9.529928-3.711263-19.134716-5.598375-29.041151ZM59.504929,111.702102h43.097602c.479997-1.442196.626321-1.671144.62138-1.896806-.718672-32.811272-5.472343-65.217539-11.7081-97.296486-1.45886-7.504951-11.695616-2.161993-17.803929-3.156615-1.362274-.221802-4.425226,2.510091-4.659776,4.170978-.934706,6.618384-1.345445,13.347007-1.436891,20.04184-.360417,26.381031-1.211208,52.696752-8.110285,78.137089ZM155.745702,109.01847h51.183625c-4.682649-14.012037-8.7995-26.330984-12.831037-38.394648q-12.574717-.316535-15.887118-12.097829c-.065001-.231132-.218758-.451433-.229676-.681617-.429311-9.036035-8.181407-18.484574,1.527379-27.006138.506928-.444927.53644-2.009581.181747-2.77005-3.044678-6.527974-4.46034-14.299105-11.824768-17.8092-9.88182-4.709977-20.089814-5.506133-32.063641-1.30196,15.655567,31.886282,15.879839,66.407915,19.94349,100.061441ZM60.413586,9.941152c-5.193271.603426-11.076353,1.538848-16.994263,1.894666-4.695353.282303-6.805138,2.596817-7.255568,6.988892-1.073828,10.470445-1.923318,20.971241-3.305773,31.401124-2.569478,19.385147-5.241344,38.763126-8.375825,58.06201-.681087,4.193586.143368,6.049631,4.029805,6.196617,5.664479.214236,11.345742-.063325,17.018657-.00847,4.665103.045128,7.450681-1.566948,8.12288-6.713691,2.078045-15.910828,5.395178-31.715519,6.5068-47.681467,1.141851-16.400464.253288-32.94231.253288-50.139681ZM34.704333,179.711947c1.476296,10.005491,2.553024,19.155957,4.363908,28.158731.40796,2.028087,3.25458,4.857569,5.189632,5.036581,5.146445.476071,10.408026-.292515,16.480365-.611068-2.118056-10.825127-4.138114-21.14937-6.042618-30.883035-7.417872-.631239-13.475466-1.146725-19.991287-1.701207ZM108.092354,139.21808c8.614225,0,16.267353.193768,23.898093-.133862,1.950315-.083727,5.025718-1.404082,5.531146-2.866063,2.004597-5.798252,3.195479-11.877836,4.922184-18.791095-7.260498,0-12.730348-.001015-18.200177.000816-1.199882.000397-2.571739-.368655-3.569428.083396-3.98085,1.803704-10.388219-.290971-11.327104,6.480971-.66417,4.790638-.815743,9.652298-1.254715,15.225837ZM9.714518,115.027208c1.185104.232058,2.370213.464116,3.555317.696152,14.285111-31.530067,11.32095-66.068286,15.770582-99.316765-11.716371,31.91725-13.430459,65.648747-19.325899,98.620613ZM120.861346,209.702835c1.769252-10.122369,3.49642-20.003902,5.251291-30.044045-6.829643,0-12.113005-.167697-17.374288.099586-1.632435.082911-4.478481,1.168208-4.608406,2.096881-1.341893,9.591025-2.240735,19.244018-3.276846,29.011363,6.899739-.401321,12.868246-.748492,20.008249-1.163786ZM23.451527,141.267165c8.739705,1.065402,16.693245,2.03499,24.995566,3.047082v-22.305271h-28.095374c1.043754,6.4845,2.033634,12.634401,3.099808,19.258189ZM50.676777,274.925348c7.455578-.892048,13.965532-1.670957,21.214714-2.538312-1.653179-8.471518-3.221528-16.508288-4.733986-24.258718h-19.773555c1.101322,8.962576,2.139991,17.41529,3.292826,26.79703ZM53.242903,279.844102c2.737727,9.076785,5.325534,17.656551,8.013468,26.568237h15.745691c-.220655-3.456889-.247376-6.485338-.631272-9.467816-2.553576-19.838114-2.770348-19.982309-23.127886-17.10042ZM100.70781,216.369976c.61902,9.501993,1.201073,18.436822,1.801113,27.647502h10.940617c1.97718-9.466217,3.891212-18.630093,5.774651-27.647502h-18.516381ZM101.20543,248.737721c-.662372,8.301284-1.244271,15.594039-1.900357,23.81657,3.743377-.650484,8.199736-.305694,8.887308-1.752268,2.140973-4.50442,3.566362-9.63183,3.956037-14.620227.602014-7.706306-6.284734-5.664114-10.942988-7.444075ZM183.203849,37.433044c-1.038934.381073-2.077847.762145-3.116781,1.143218,1.641257,7.319344,3.424493,14.610743,4.872733,21.968069.931099,4.730247,3.530409,4.876107,8.249275,3.020901-3.377777-8.822218-6.691502-17.477203-10.005227-26.132188ZM99.949105,276.755885v25.129614c.618755.090311,1.237521.180616,1.856277.270922,1.689561-8.417942,3.379112-16.835884,5.164951-25.733481-3.051681.144714-4.707352.223224-7.021227.332945ZM176.446574,163.882177c3.885169,1.514674,6.147254,3.191906,7.178293,2.626043,1.902937-1.044382,3.312776-3.287367,4.355416-5.3241.188915-.369052-2.86013-3.334414-3.553569-3.044237-2.275982.952472-4.155649,2.852057-7.98014,5.742294Z"/>
  <path class="cls-2" d="M14.1759,122.130133c1.887112,9.906435,3.567222,19.511223,5.598375,29.041151.945105,4.434335,2.857196,8.660455,3.83478,13.090444,2.77155,12.55932,5.187514,25.197008,7.945919,37.759372,1.371328,6.245395,3.569273,12.323072,4.721491,18.599942,2.50236,13.631825,4.281251,27.399596,6.923935,41.001413,1.732649,8.917889,4.36597,17.668291,6.779927,26.443098,1.211495,4.403803,2.869416,8.683245,4.258698,13.040216,1.014297,3.181004,1.541032,8.960381,2.936997,9.1665,7.182891,1.060588,14.747848,1.596526,21.78907.259723,2.033811-.386124,4.473805-7.881287,3.826895-11.614656-3.761828-21.709642-9.023023-43.165677-12.577275-64.903662-5.636963-34.475986-10.346047-69.104009-15.404916-103.673968-1.037898-7.092448,1.397421-10.741654,9.333415-10.477018,12.677468.422738,25.379363.113106,38.886579.113106-1.659906,19.803231-3.687265,39.980079-4.955688,60.204504-1.382434,22.04219-2.178646,44.124083-3.00942,66.196987-.669254,17.781364-1.082959,35.573679-1.429326,53.364655-.064075,3.290907-1.374868,7.670652,4.389097,8.134613,5.079216.408842,8.237795-1.350341,9.303704-6.67438,3.466644-17.315561,7.04174-34.609958,10.67833-51.890791,6.710647-31.888587,12.781608-63.939235,20.648377-95.54167,2.627962-10.557062,5.765917-21.017648,7.979699-31.727474.420819-2.036005,3.177657-5.08097,4.915633-5.121333,16.730675-.388418,33.473988-.232698,51.498042-.232698-2.624499,6.720506-4.726012,12.768307-7.457111,18.516998-.528235,1.111898-3.513999,1.457371-5.371522,1.472017-12.749229.10049-23.773253,4.302193-31.126741,14.907383-8.73944,12.604095-3.652052,26.556778,10.809854,31.520825,3.352677,1.150806,6.772693,2.105373,10.747654,3.330907-1.064697,2.545911-2.02994,4.665268-2.847183,6.840252-3.954007,10.523525-7.873209,21.060129-11.792919,31.596513-.911668,2.450604-1.820159,4.903888-2.655996,7.380938-3.011527,8.924495-8.294072,12.684326-18.564068,12.742027-6.437498.036162-13.978049,4.810357-18.994724,9.588819-7.543065,7.184832-3.211536,18.82085,7.027116,21.931951,2.213914.672717,4.373723,1.523442,6.669975,4.085432-2.477072.416992-4.943689.914811-7.433069,1.236628-9.377936,1.212355-17.739546,3.42596-21.165738,14.099525-2.006096,6.249575-1.146968,11.025352,5.008911,14.206224,3.776319,1.951319,7.892046,3.245856,11.926803,4.863971-.931607,5.316954-4.505556,7.014439-9.347674,7.013408-19.752094-.004207-39.504585-.083755-59.255962.031309-4.25229.024775-6.745045-1.373865-7.73551-5.712694-3.192116-13.983248-6.611845-27.914337-9.871222-41.882482-3.47486-14.891734-6.551663-29.88527-10.419407-44.672929-2.150854-8.223391-6.310738-15.941785-8.244665-24.197136-3.934575-16.795575-6.755257-33.849269-10.484022-50.697217-1.604384-7.249226-4.590116-14.182778-6.456627-21.387119-1.470936-5.677536-.916713-10.773526,8.161506-11.373621Z"/>
  <path class="cls-3" d="M129.021953,10.065507c8.485745,22.635393,16.271411,45.393487,16.815924,69.994039.157837,7.130473,1.815439,14.232516,2.856799,21.337139.851232,5.807427-.703607,9.263417-7.446788,9.093361-8.650794-.218162-17.328851.326085-25.95953-.130796-1.967122-.104129-5.108232-2.734495-5.432178-4.597973-1.019922-5.866495-.904499-11.924949-1.324899-17.902301-.652943-9.283798-1.38518-18.561993-2.083493-27.842901.046495-5.161719.430899-10.354361-.042084-15.467732-.168667-1.823335-2.415302-3.454424-3.713435-5.173277-.096851-.767924-.193713-1.535826-.290729-2.301501-.000154.00225.01298-.006683.01298-.006683l-.230878-.364773s.359733-.238675.359744-.238366c.374875-6.605459,1.053745-13.212749,1.019877-19.816399-.023347-4.553507,1.28738-6.492507,6.107464-6.313539,6.438204.239006,12.899721-.149368,19.351225-.268297Z"/>
  <path class="cls-2" d="M59.504929,111.702102c6.899077-25.440337,7.749869-51.756058,8.110285-78.137089.091447-6.694832.502186-13.423456,1.436891-20.04184.23455-1.660888,3.297502-4.39278,4.659776-4.170978,6.108313.994623,16.345069-4.348336,17.803929,3.156615,6.235757,32.078947,10.989428,64.485214,11.7081,97.296486.004941.225662-.141383.45461-.62138,1.896806h-43.097602Z"/>
  <path class="cls-2" d="M155.745702,109.01847c-4.063651-33.653527-4.287923-68.175159-19.94349-100.061441,11.973827-4.204174,22.181821-3.408017,32.063641,1.30196,7.364429,3.510095,8.780091,11.281226,11.824768,17.8092.354693.760469.325181,2.325124-.181747,2.77005-9.708786,8.521564-1.95669,17.970103-1.527379,27.006138.010918.230183.164675.450485.229676.681617q3.312644,11.781228,15.887118,12.097829c4.031537,12.063663,8.148388,24.38261,12.831037,38.394648h-51.183625ZM183.169286,105.929657c11.180295.018351,14.705014-2.392286,14.562418-9.959547-.164896-8.751461-6.622333-14.792071-15.802465-14.782498-7.766301.008095-11.084371,2.864188-11.159363,9.60567-.123451,11.096038,3.173908,15.121244,12.39941,15.136375ZM160.006054,10.02307c-5.320174-.284266-8.9046.895765-8.791119,6.899055.114981,6.082011,2.869989,9.139878,9.07715,9.43021,5.911623.276502,9.700801-2.773999,9.722505-8.056963.024505-5.953222-4.667099-8.357926-10.008536-8.272302Z"/>
  <path class="cls-3" d="M60.413586,9.941152c0,17.19737.888563,33.739217-.253288,50.139681-1.111622,15.965948-4.428755,31.770639-6.5068,47.681467-.672198,5.146742-3.457777,6.758819-8.12288,6.713691-5.672915-.054855-11.354179.222706-17.018657.00847-3.886437-.146986-4.710892-2.00303-4.029805-6.196617,3.134482-19.298884,5.806347-38.676862,8.375825-58.06201,1.382456-10.429883,2.231945-20.930679,3.305773-31.401124.45043-4.392074,2.560215-6.706589,7.255568-6.988892,5.917909-.355818,11.800991-1.29124,16.994263-1.894666Z"/>
  <path class="cls-3" d="M34.704333,179.711947c6.515821.554482,12.573415,1.069968,19.991287,1.701207,1.904503,9.733665,3.924562,20.057908,6.042618,30.883035-6.072339.318553-11.33392,1.087139-16.480365.611068-1.935052-.179012-4.781672-3.008494-5.189632-5.036581-1.810884-9.002774-2.887612-18.153239-4.363908-28.158731Z"/>
  <path class="cls-3" d="M106.496975,167.741826v-22.346429h27.88448c-2.445112,8.967505-4.904583,17.987704-7.363899,27.007793-5.257335-.01952-10.558606.336584-15.747742-.268782-1.738108-.202767-3.190075-2.858211-4.772838-4.392582Z"/>
  <path class="cls-3" d="M108.092354,139.21808c.438971-5.573539.590545-10.435199,1.254715-15.225837.938885-6.771942,7.346254-4.677267,11.327104-6.480971.997688-.452051,2.369546-.082999,3.569428-.083396,5.469829-.001831,10.939679-.000816,18.200177-.000816-1.726705,6.913259-2.917587,12.992844-4.922184,18.791095-.505428,1.461981-3.580831,2.782336-5.531146,2.866063-7.630741.327629-15.283869.133862-23.898093.133862Z"/>
  <path class="cls-2" d="M9.714518,115.027208c5.895439-32.971866,7.609528-66.703363,19.325899-98.620613-4.449631,33.248479-1.485471,67.786698-15.770582,99.316765-1.185104-.232036-2.370213-.464094-3.555317-.696152Z"/>
  <path class="cls-3" d="M120.861346,209.702835c-7.140002.415294-13.10851.762465-20.008249,1.163786,1.036111-9.767346,1.934953-19.420339,3.276846-29.011363.129925-.928673,2.975971-2.013971,4.608406-2.096881,5.261283-.267282,10.544645-.099586,17.374288-.099586-1.754871,10.040142-3.482039,19.921675-5.251291,30.044045Z"/>
  <path class="cls-3" d="M23.451527,141.267165c-1.066174-6.623788-2.056055-12.773689-3.099808-19.258189h28.095374v22.305271c-8.302321-1.012091-16.255861-1.98168-24.995566-3.047082Z"/>
  <path class="cls-3" d="M50.676777,274.925348c-1.152835-9.38174-2.191505-17.834455-3.292826-26.79703h19.773555c1.512458,7.750431,3.080807,15.787201,4.733986,24.258718-7.249183.867356-13.759137,1.646264-21.214714,2.538312Z"/>
  <path class="cls-3" d="M53.242903,279.844102c20.357538-2.881889,20.574311-2.737693,23.127886,17.10042.383896,2.982478.410618,6.010927.631272,9.467816h-15.745691c-2.687934-8.911686-5.275741-17.491452-8.013468-26.568237Z"/>
  <path class="cls-3" d="M100.70781,216.369976h18.516381c-1.883439,9.017409-3.797471,18.181284-5.774651,27.647502h-10.940617c-.60004-9.21068-1.182093-18.145508-1.801113-27.647502Z"/>
  <path class="cls-3" d="M54.297046,241.837232h-7.410295c-1.508057-7.403932-2.992745-14.69308-4.69596-23.055175,5.569017,0,10.437946,0,15.306488.000011,1.026384,5.44668,1.885369,10.935422,3.230582,16.302256.249869.996861,2.457221,1.503072,3.761155,2.235728.124014.984465.248027,1.968931.371908,2.952635-3.521377.521022-7.042633,1.042783-10.563878,1.564544Z"/>
  <path class="cls-3" d="M33.230023,149.059977c3.285128.132031,6.570246.264062,9.854459.396093,1.658462,3.08149,4.104544,6.002033,4.776169,9.28554.821875,4.01806.156911,8.340214.134832,12.530889-2.83986-.25374-5.676841-.645752-8.520748-.704997-1.50315-.03132-3.018353.516831-4.492366.796576-.258272-.754271-.466443-1.190177-.555717-1.649198-1.07439-5.523801,1.421628-11.887431-5.06156-16.189867-1.682856-1.11675.17663-4.870704,3.864932-4.465038Z"/>
  <path class="cls-3" d="M101.20543,248.737721c4.658254,1.779961,11.545002-.262231,10.942988,7.444075-.389675,4.988398-1.815064,10.115808-3.956037,14.620227-.687572,1.446574-5.143931,1.101785-8.887308,1.752268.656086-8.222531,1.237985-15.515286,1.900357-23.81657Z"/>
  <path class="cls-1" d="M183.169286,105.929657c-9.225503-.015131-12.522861-4.040337-12.39941-15.136375.074993-6.741482,3.393063-9.597576,11.159363-9.60567,9.180132-.009573,15.637569,6.031038,15.802465,14.782498.142596,7.567261-3.382123,9.977898-14.562418,9.959547ZM192.127969,99.351173c-.317969-2.100433-.398674-3.986563-.907786-5.748911-1.67796-5.808221-6.439814-7.550983-11.332376-6.152636-5.258857,1.50305-1.937434,5.744522-1.225842,8.962521.34823,1.57469.498921,3.193075.783651,5.088756,4.279056-.725311,8.207015-1.391135,12.682353-2.149729Z"/>
  <path class="cls-1" d="M160.006054,10.02307c5.341437-.085624,10.033041,2.31908,10.008536,8.272302-.021704,5.282964-3.810882,8.333465-9.722505,8.056963-6.20716-.290332-8.962168-3.348199-9.07715-9.43021-.113481-6.00329,3.470945-7.183321,8.791119-6.899055Z"/>
  <path class="cls-3" d="M192.127969,99.351173c-4.475338.758594-8.403297,1.424418-12.682353,2.149729-.284729-1.895681-.43542-3.514065-.783651-5.088756-.711592-3.217999-4.033014-7.45947,1.225842-8.962521,4.892562-1.398347,9.654416.344415,11.332376,6.152636.509112,1.762348.589817,3.648478.907786,5.748911Z"/>
</svg>