<?xml version="1.0" encoding="UTF-8"?>
<svg id="Layer_1" xmlns="http://www.w3.org/2000/svg" viewBox="0 0 180.909093 251.362481">
  <defs>
    <style>
      .cls-1 {
        fill: #65535b;
      }

      .cls-2 {
        fill: #212222;
      }

      .cls-3 {
        fill: #d3a884;
      }
    </style>
  </defs>
  <path class="cls-2" d="M49.261907,251.344355c-7.687763.04127-15.375557.08251-23.06332.12378-1.369245.167839-2.73849.335647-4.107704.503486-6.846317-.964322-13.692603-1.928675-20.53895-2.893028-3.077831-6.852222-1.591603-11.730117,4.583412-15.043172,4.465848-.235152,8.931727-.470304,13.397575-.705456,5.567197-.130429,11.134425-.260889,16.701622-.391379.275552-.242536.551073-.485041.826624-.727577-.020334-.667495-.040638-1.334959-.060941-2.002453-.002205-9.101715.015587-18.203462-.016292-27.305054-.013138-3.751954-.206955-7.503877-.189622-11.255218.041281-8.930445.159427-17.860492.24652-26.790723-.032675-1.605284-.065351-3.210599-.098026-4.815882-.584054-.626592-1.168139-1.253138-1.752224-1.879715-.997168.02301-1.994335.046019-2.991503.069029-.327857-.009927-.655744-.019839-.983601-.029765-4.968045-1.169632-7.299853-4.402-7.173469-9.408914.230566-9.131083,7.091214-11.013463,14.601697-13.242306-1.099665-1.592308-2.388952-3.189075-3.827192-3.337121-9.045187-.931095-11.853316-4.008446-11.558716-13.278551l.597161-2.154237c.779923-1.343614,1.559847-2.687244,2.33977-4.030858,2.573275-.423917,5.19711-.6644,7.69695-1.354552,1.130993-.312254,2.71099-1.43314,2.821909-2.341792.117687-.96423-1.032752-2.544957-2.042261-3.087599-1.993723-1.07165-4.272215-1.612913-6.432959-2.373519-4.256076-2.155095-6.706826-5.426067-6.422516-10.391298.238742-4.170095,2.427017-6.746794,6.408154-7.862181,2.555452-.246703,5.110905-.493406,7.666357-.740108.001409-.67304.002817-1.346065.004165-2.019106-.003338-.642279-.006707-1.284543-.010075-1.926822.167511-6.889969.335023-13.779954.502504-20.669923.148433-.471621.296835-.943243.445237-1.414864-.009983-2.379217-.019936-4.75845-.029889-7.137668-.143411-.803347-.286821-1.606693-.430171-2.41004-.153026-2.866005-.306022-5.731995-.459049-8.598.193205-.322917.181016-.637852-.036626-.944836.097965-2.357847.19593-4.715709.293895-7.073556v-12.076166c-2.674395,0-4.315425.046954-5.953086-.008058-7.475174-.251084-14.95341-.451691-22.422244-.833227-3.799049-.194073-5.934865-2.456948-6.883157-6.128659C-1.256196,4.962577,2.15433.666541,10.889575.421784,30.669304-.132447,50.443766-.873796,70.220371-1.539055c0,0-.052948-.023829-.052826-.024044.366381.102931.732702.206076,1.098991.309221,5.039337.427303,10.078644.854598,15.117951,1.281877,2.691942.679735,5.413528,2.023403,8.069854,1.904762,6.032187-.269429,12.03228-1.258063,18.045419-1.95432,2.004288.382509,4.008606.765018,6.012894,1.147526.330337-.000597.660644-.001195.990982-.001792,8.012833.442384,16.025666.884769,24.0385,1.327153,2.122388,1.555381,4.000016,4.01033,7.109879,1.936419.832152.040121,1.663967.105412,2.496502.116504,8.869698.118204,12.567566,3.423216,13.093604,12.182674.89908,14.97075,1.587837,29.954038,2.440767,44.927721.273132,4.79468.785926,9.575681,1.182242,14.281861,8.561226,2.089575,8.806185,2.078698,9.209866,11.182834.753388,16.990399,1.27422,33.992609,1.719028,50.994436.173299,6.624837.205883,13.286854-.298565,19.88594-.448453,5.866269-3.699598,9.909566-9.800704,11.110388-.047559,1.448873-.095102,2.897716-.14266,4.34659.022723,4.536274.045446,9.072578.068184,13.608882-.030961,1.000047-.061936,2.000064-.092897,3.00008-.085639,1.027377-.171278,2.054754-.256795,3.08213-.063161.577233-.12646,1.154497-.189775,1.73173-.077463,2.076844-.154956,4.153658-.232434,6.230502-.319604,9.712498-.639192,19.425026-.958781,29.137524.038433,1.012578.076865,2.025157.115283,3.037674.179608,1.183818.359216,2.367728.538839,3.551607-1.314551,3.681546-2.629102,7.363061-3.943577,11.04473-.98844.453085-1.976987.905986-2.965534,1.358888-7.171632.296521-14.343249.593043-21.515815.889472-.503759-.160332-1.006584-.320573-1.509409-.480813-1.010091-.047429-2.020166-.094857-3.030257-.142286-7.943639-.060205-15.908822-.48403-23.821118-.01486-3.530326.209324-6.954235,2.214412-10.426437,3.40448-6.476904.158647-12.959013.21009-19.42823.526342-2.757814.13481-5.476061,1.018185-8.235773,1.19543-2.072915.133186-4.717911.420332-6.181538-.640686-5.41512-3.925399-11.35072-2.62255-17.204738-2.559312-.673139-.011275-1.346277-.022581-2.019385-.033856ZM102.527166,110.8052c-.028051-.994869-.056103-1.989738-.084154-2.984592-1.663018.074054-3.326035.148107-4.989053.222161-1.019952.057815-2.039934.115615-3.059885.17343-1.809123-.13288-3.748183.092238-5.389182-.503884-1.50552-.546901-2.689615-1.979459-4.015343-3.021818,1.375584-.910873,2.680121-2.449717,4.140043-2.615074,4.412226-.499748,8.88475-.466413,13.333786-.640854l.827757-.743234c-.600224-.681604-1.18976-1.932674-1.80257-1.944163-2.387053-.044855-4.781547.303308-7.173255.505309-.573152.043446-1.146305.086907-1.719457.130352-2.793827-1.066962-8.209498.589427-7.382813-4.38907.740021-4.456536,5.525917-1.994104,8.585465-2.192612,1.641826-.1065,3.312347.332706,4.969485.328738,1.492811-.003585,2.98498-.275748,4.477454-.429432-.490162-1.341194-1.01937-1.765723-1.544535-1.760775-4.1733.039309-8.36476.421619-12.508692.120487-1.541044-.111984-2.970219-1.765249-4.450414-2.715661,1.495047-.960921,2.928326-2.609636,4.496962-2.750558,4.278248-.384378,8.613639-.132206,13.411508-.132206-.620956-2.97727-1.140333-5.467445-1.647155-7.897461-4.683429,0-8.70456.188704-12.692496-.093065-1.590593-.112367-3.107842-1.264076-4.65844-1.942677.905235-1.375754,1.810471-2.751493,2.715706-4.127247h13.739733l-.037024-1.79627h-14.676296c-2.416666-4.020747-1.708861-5.731014,2.831433-6.01865,3.900995-.247147,7.830071-.051259,11.70231-.051259.238803-8.744009.241896-8.707104-7.160822-8.084878-1.823639.15327-3.837696.423013-5.463414-.176831-1.39405-.514362-2.358175-2.195125-3.512442-3.360054,1.211686-.88817,2.34467-2.368264,3.651351-2.542246,2.788805-.371341,5.672053.036,8.50762-.085237,1.215085-.051979,2.407846-.626607,3.610774-.963756-.063667-.526174-.127333-1.052347-.19103-1.578506-4.556249-.262558-9.125146-.40224-13.660448-.868883-1.226202-.126155-2.35058-1.242568-3.52169-1.904456.840283-1.327559,1.393775-3.183713,2.599183-3.838263,1.278507-.694258,3.182502-.363758,4.801973-.274415,3.260899.179926,6.514081.499901,9.770478.762107.053163-.700569.106325-1.401138.159488-2.101692-2.298949-.137246-4.635871-.061614-6.88772-.463226-3.128421-.557915-8.65345,1.81545-8.74431-2.716963-.099098-4.944228,5.448684-2.378268,8.536896-2.880359,2.204536-.358411,4.514203-.069596,6.853728-.069596v-8.049215c-4.365249-.33783-8.530832-.422822-12.600686-1.091113-1.645838-.270256-3.0827-1.814339-4.614679-2.778754,1.539298-.85832,3.03165-2.326848,4.627541-2.449755,3.476428-.267736,7.007948.274239,10.511846.209645,1.012877-.018674,2.008453-.975015,3.011959-1.50148-5.510115-1.460485-10.618662-1.753522-15.664369-2.482102-1.235481-.178401-2.265446-1.781801-3.389886-2.730054,1.312714-.726436,2.588557-1.985066,3.945123-2.079249,4.024898-.279433,8.081645-.100058,12.125927-.100058.051417-.551558.102834-1.103108.154221-1.654666-6.056808-1.075127-12.087525-2.343079-18.178081-3.169305-5.706167-.774087-6.673691-.053189-6.582127,5.675398.21311,13.331334.80969,26.656311,1.223048,39.984742.388277,12.519294.923334,25.037576,1.068459,37.560087.249889,21.561785.199146,43.126863.363442,64.689888.178046,23.370862.47825,46.740804.681805,70.111513.070526,8.097471.011208,16.196045.011208,24.582193,7.83935,0,14.821881.122279,21.792469-.11223,1.261327-.042404,2.473412-1.548572,4.685205-3.035989-5.681546-.982215-9.795375-1.518668-13.800429-2.499689-1.101962-.269927-1.878945-1.867796-2.805066-2.856354,1.080341-.8016,2.088932-2.139745,3.255601-2.295911,2.628306-.351855,5.33654-.062748,8.009128-.140815,2.090555-.061032,4.176424-.281876,6.264406-.431699-.034758-.405993-.069516-.811987-.104304-1.21798-4.263303-.332951-8.571133-.408628-12.766329-1.135164-1.514891-.26239-2.759712-2.086036-4.127763-3.197179,1.694254-.890177,3.362018-2.466385,5.088029-2.533146,4.071752-.157391,8.171311.404155,12.263611.675216v-8.335166c-5.081751,0-9.757004.204789-14.389597-.149609-1.10337-.08441-2.063943-2.037749-3.090172-3.131459,1.014807-.929639,1.953881-2.54341,3.058048-2.665751,3.947788-.437551,7.955291-.304457,11.931773-.533849,1.119815-.064586,2.210691-.631127,3.314858-.967448-.130151-.431117-.260301-.862204-.390452-1.293321-3.124348,0-6.250901.072981-9.372493-.020681-3.065336-.091977-7.560124.645128-7.628016-3.470047-.07414-4.493655,4.447014-3.181002,7.446449-3.303801,3.205868-.131317,6.410113-.301301,9.615063-.454372-.059196-.650919-.11836-1.301808-.177556-1.952696-1.766342,0-3.533419-.032293-5.298842.007966-2.337718.053311-4.777474.61544-6.979836.11177-1.902893-.435223-3.535348-2.05411-5.287358-3.149719,1.647645-1.023363,3.187004-2.368525,4.976222-2.971065,1.506041-.507162,3.304813-.218239,4.970281-.165388,8.26652.262237,9.171602-1.027744,5.951739-8.957867-4.240887,0-8.586782.146392-12.918008-.043201-3.938815-.172435-5.289961-2.193578-3.535563-6.151117,5.498723-.410926,10.903737-.814836,16.308782-1.218746-4.485937-1.360818-8.907963-1.678112-13.335531-1.862465-2.24257-.093356-5.016308.03358-4.352479-3.06436.262445-1.224935,3.037101-2.443926,4.810272-2.707817,4.537569-.675277,9.155096-.812661,14.109942-1.193561-.512793-2.748628-.95209-5.103028-1.4579-7.814155-3.790076,0-7.485769.297624-11.097401-.124424-1.831815-.214042-3.512074-1.726154-5.260869-2.651442,1.152797-1.433018,2.305625-2.86602,3.458422-4.299038h13.117766c-.025387-.531719-.050774-1.063423-.076161-1.595143h-13.752564c-4.22974-2.86216-4.215622-3.696544.100537-5.935895l.417676.174809.342709-.296c4.044497.15062,8.150762.746359,11.939858-1.258393-4.286883-1.026488-8.535885-1.13259-12.722537-1.699605-1.054801-.142853-1.910028-1.760806-2.856942-2.700878,1.096113-.78337,2.102375-2.005839,3.308213-2.252787,2.093586-.428758,4.310617-.254408,6.475862-.332951,1.659619-.372061,3.319268-.744137,4.978856-1.116198.022876-1.992343.045752-3.984701.068658-5.977043l-1.01251-1.044534c-3.617236-.020038-7.242832.090874-10.846655-.139437-1.08962-.069657-2.879298-.957995-3.002374-1.696005-.197982-1.187173.51019-2.703589,1.247271-3.805127.476075-.711461,1.687027-.930712,2.568682-1.370546h11.257594c.022662-.597991.045323-1.195966.067985-1.793957-3.778071,0-7.556112,0-11.334183-.000015-1.627892-1.205725-3.255815-2.411449-4.883738-3.617159,1.743589-.881062,3.413282-2.2678,5.246414-2.535827,3.598433-.526189,7.287818-.4298,10.939567-.591036.616362-1.805339,1.232725-3.610679,1.849118-5.416018l-.01868.00314ZM128.79124,80.620659c-.432345,1.897179-1.284785,3.807042-1.227947,5.689453.336278,11.145148.883523,22.283939,1.359813,33.424859,1.885009.211545,3.769987.423074,5.654995.634604,1.373134-.057938,2.746268-.115876,4.119403-.173829,1.430462-.102885,2.860908-.205769,4.29137-.308654,9.243338-.157345,18.486691-.314705,27.730028-.472066,1.922859.047567,4.530495,1.053343,3.74976-2.682311-.028235-.659866-.05647-1.319747-.084705-1.979612-.185089-5.041782-.370179-10.083563-.555268-15.125345-.155063-1.664432-.310126-3.328849-.465189-4.993281.193848-.320527.183558-.634359-.030884-.941497-.017731-.696617-.035447-1.393249-.053163-2.089866-.247133-.971859-.494251-1.943719-.741383-2.915578-.078795-1.038024-.157574-2.076032-.236369-3.114056.718293-2.459996-.168782-3.684334-2.763709-3.594134-.794179.105795-1.588357.211606-2.382536.317417l-.044297-.104049c-3.06431-.565805-6.128621-1.13161-9.192931-1.69743-.741797-.175989-1.483578-.351977-2.225375-.527966-1.364759-.029153-2.729502-.05829-4.094261-.087428-7.602461.246917-15.204937.493835-22.807352.740767ZM40.898126,19.373979c.767643,3.742877,1.850435,6.800351,1.941295,9.887047.259199,8.805945.175688,17.624206.11294,26.4368-.068811,9.669006-.394065,19.338687-.274082,29.003924.019262,1.551697,1.424796,3.608427,2.795236,4.532551,6.67807,4.503169,6.834435,11.638492.127058,16.318125-4.87054,3.398107-4.884014,5.055661-.071721,8.814998,6.964708,5.44082,7.071554,8.261817.540416,14.279472-.12274.113072-.23963.23529-.374589.331771-3.076269,2.199215-3.083129,4.195449-.094229,6.716278,5.906875,4.981868,6.483916,8.678105,1.227304,14.38015-3.76573,4.084812-4.027777,8.470328-3.807654,13.332399.173697,3.837405.507036,7.675944.485201,11.512368-.081673,14.341331-.355449,28.681774-.394035,43.023043-.013383,4.977471.447289,9.956259.709948,15.311536,5.813075.371862,11.352282.726229,17.488436,1.118772,0-7.396059-.102957-13.888277.032767-20.375531.107458-5.13575.991625-10.294327.686429-15.392208-.883584-14.760836-2.530341-29.47982-3.245465-44.245865-.803167-16.582874.2313-33.105695-2.967616-49.748345-2.288904-11.907898-.659327-24.653214-.134377-36.997484.629224-14.796055,1.947879-29.562606,2.955459-44.34279.177219-2.599372-.710285-4.050175-3.687088-3.94196-4.661533.16947-9.333785.044947-14.051635.044947ZM119.140899,190.36823c.433845,6.982804.83967,13.784932,1.282948,20.584579.618567,9.488958,1.137455,18.988364,2.049764,28.44944.123965,1.285293,2.199054,3.288482,3.504357,3.400558,6.480119.556246,13.00919.509031,19.512645.839286,3.687823.187325,5.581667-.805828,5.206466-5.029771-.662972-7.463219-1.181736-14.958486-1.294033-22.447319-.212788-14.189394-.009325-28.385252-.266916-42.573206-.022371-1.231155-2.044007-3.268873-3.372032-3.484754-5.219159-.848569-10.532425-1.11773-16.049767-1.624004-1.141527,8.243158,3.167619,18.896601-10.57343,21.885191ZM147.141089,73.897334c.125572-1.810701.733988-3.389253.221317-4.396776-2.667657-5.24245-.712704-10.337696.067005-15.491109.123628-.817073.102559-1.679093.00467-2.503243-1.566737-13.191507-3.281815-26.367242-4.653357-39.578764-.341071-3.28551-2.038249-4.48932-4.730115-4.549747-7.094858-.159275-14.195627-.053893-21.967728-.053893v44.876386c1.726041.152535,3.86933-.242674,5.257316.602985,2.030992,1.237436,4.520328,3.109491,5.043471,5.162713,1.295411,5.084599,1.58603,10.425476,2.315945,15.931449h18.441475ZM128.71122,126.984975c0,3.068144-.08051,5.703378.015679,8.332148.24946,6.817983,1.128696,13.668582.694667,20.438003-.335421,5.231113,1.861398,6.976692,6.277727,7.02314,10.769422.113333,21.541048.033641,32.31171.002911,4.012771-.011428,6.366184-2.127061,6.419806-6.081705.141726-10.447168.048018-20.897553.048018-31.620009-15.204003.633011-30.125151,1.254241-45.767608,1.905513ZM105.256102,5.691042c.351008,13.162768,1.250486,26.066408.884197,38.933972-.376487,13.224857.013107,26.269145,2.715032,39.241784.641076,3.078086.878011,6.328653.717053,9.469931-.588035,11.47142-1.963191,22.926953-2.030563,34.394451-.088012,14.970558.794715,29.946539,1.238788,44.920804.093341,3.147881.079438,6.298826.142921,9.44778.247562,12.287466.565466,24.57389.739898,36.862337.112603,7.932267.021161,15.867414.021161,23.718059h6.434337c.270499-.657169.515702-.965272.502504-1.261824-.771532-17.305594-1.56-34.610454-2.368862-51.914332-.038647-.827521-.36678-1.641407-.406162-2.468958-.317139-6.662998-.90839-13.332399-.810088-19.990862.122985-8.331167,1.282703-16.659394,1.18192-24.979041-.25632-21.16365-.959715-42.321969-1.508154-63.481804-.030103-1.161957-.236537-2.325416-.431763-3.476113-2.924896-17.238511-2.263486-34.530517-1.010183-51.860822.415563-5.746525.065535-11.548476.065535-17.555361h-6.077571ZM65.635366,15.758513c-.74982,3.817421-1.632762,6.55816-1.775039,9.336852-.656418,12.822548-1.455328,25.653269-1.542575,38.485552-.109571,16.110777.322069,32.228433.717359,48.338275.257698,10.503834.895558,20.997864,1.309161,31.49842.418962,10.635887.655989,21.280108,1.183849,31.910204.592629,11.935826,1.703227,23.851552,2.057818,35.791759.27745,9.343271-.333124,18.710317-.364973,28.067437-.00686,2.014556.776371,4.031746,1.19567,6.047742,1.610039-3.764056,2.423158-7.206773,2.553829-10.675227.344241-9.136307.532147-18.283888.52247-27.426721-.012096-11.426825-.292027-22.853313-.435101-34.280168-.022937-1.832378.209527-3.676674.077631-5.497593-.90104-12.440506-2.487774-24.867332-2.667198-37.315682-.264772-18.365877.709458-36.746614.663217-55.119799-.027286-10.829646-1.253916-21.651449-1.492352-32.486656-.277542-12.613224-.064769-25.237249-.064769-38.96841-2.02009,1.019878-4.019171,1.437583-4.160408,2.19982-.727189,3.925246-1.084322,7.968068,2.22141,10.094195ZM154.753288,74.047341c1.969254.194311,4.797426.473368,8.368328.825713-.636451-14.40555-1.25211-27.869971-1.813456-41.336644-.164755-3.952469-.62016-7.96276-.170528-11.857368,1.189331-10.302362-2.442819-13.919873-11.96647-11.694247,1.82984,20.999932,3.656817,41.966882,5.582126,64.062545ZM154.834701,169.795478c.579201,25.221991,1.140042,49.644679,1.70534,74.261647,6.151022-1.515788,6.172367-1.515482,6.230934-5.615369.31181-21.828877.616883-43.657877.903781-65.487092.016766-1.273804-.146075-2.549936-.250394-4.228171-3.128268.389326-5.867845.730273-8.58966,1.068984ZM118.920745,183.666566c.693595.14152,1.38716.28304,2.080755.42456.819244-1.392314,2.068689-2.698963,2.36629-4.195142.582523-2.928661.964798-5.976139.847112-8.951371-.460365-11.64102-1.381341-23.266705-1.697776-34.90987-.498951-18.358938-.635043-36.727618-.953376-55.091688-.10902-6.291289-.327459-12.580632-.451362-18.871753-.083174-4.224571-2.269091-4.479929-5.815218-3.118345.2298,1.631832.482414,3.083984.632256,4.546676.847387,8.271682,2.076345,16.529853,2.403038,24.823059.451944,11.47338-.701098,23.072272.514906,34.437299,1.46571,13.698807,1.300127,27.180263-.075304,40.819294-.667902,6.623351.055276,13.387089.148678,20.087282ZM57.057771,4.994173c-16.333924.779357-32.092062,1.504038-47.84331,2.356805-.85933.046525-2.432682,1.317165-2.345619,1.751308.26909,1.341416.898896,2.929527,1.928188,3.704058.92021.692442,2.556279.565935,3.877261.5705,9.179135.031673,18.358454.001325,27.537712-.00514,5.57271-.003922,11.145388-.00072,16.845768-.00072V4.994173ZM6.421339,245.310677h55.601446c.079223-4.40514-1.615949-5.493028-5.112528-5.920254-7.570719-.925013-15.016678.929915-22.669347.008732-7.848721-.944775-15.950363.302588-23.943903.430259-3.215852.051381-4.698863,1.240561-3.875669,5.481263ZM44.733556,122.60839c-.112389-1.04602-.224778-2.092056-.337197-3.138092-3.536971-.789621-7.044574-1.968092-10.620805-2.238831-2.593824-.196363-4.835567,1.116735-4.54599,4.568858.289516,3.451434,2.789295,5.030139,5.397358,4.598853,3.482492-.575885,6.747954-2.465435,10.106634-3.790788ZM27.538219,93.31876c1.810991,4.534711,11.061418,8.723282,15.065247,6.968971,2.125772-.931447,3.293758-2.345959,1.239768-4.573607-3.242525-3.516648-11.653986-4.871476-16.305015-2.395364ZM44.028997,144.019172c-.494511-.882931-.989052-1.765846-1.483563-2.648777-3.344073.974203-7.022709,1.399652-9.892789,3.151282-1.461973.89223-1.470885,4.16766-2.136613,6.365833,1.847709.165418,4.227443,1.136726,5.437904.336842,2.978089-1.967878,5.418458-4.750331,8.07506-7.20518Z"/>
  <path class="cls-3" d="M40.898126,19.373979c4.71785,0,9.390102.124523,14.051635-.044947,2.976803-.108216,3.864308,1.342588,3.687088,3.94196-1.00758,14.780184-2.326234,29.546735-2.955459,44.34279-.524951,12.34427-2.154527,25.089585.134377,36.997484,3.198917,16.64265,2.16445,33.165471,2.967616,49.748345.715124,14.766045,2.36188,29.485028,3.245465,44.245865.305195,5.097881-.578971,10.256457-.686429,15.392208-.135724,6.487254-.032767,12.979472-.032767,20.375531-6.136154-.392543-11.675361-.74691-17.488436-1.118772-.262659-5.355277-.723331-10.334065-.709948-15.311536.038586-14.34127.312361-28.681712.394035-43.023043.021835-3.836425-.311504-7.674963-.485201-11.512368-.220123-4.86207.041924-9.247586,3.807654-13.332399,5.256612-5.702046,4.679571-9.398283-1.227304-14.38015-2.9889-2.52083-2.98204-4.517063.094229-6.716278.134958-.096481.251849-.218699.374589-.331771,6.531138-6.017655,6.424292-8.838652-.540416-14.279472-4.812293-3.759338-4.798819-5.416891.071721-8.814998,6.707377-4.679632,6.551013-11.814956-.127058-16.318125-1.370439-.924124-2.775973-2.980854-2.795236-4.532551-.119983-9.665238.20527-19.334918.274082-29.003924.062748-8.812593.146259-17.630855-.11294-26.4368-.09086-3.086696-1.173652-6.14417-1.941295-9.887047Z"/>
  <path class="cls-3" d="M119.140899,190.36823c13.74105-2.988591,9.431903-13.642033,10.57343-21.885191,5.517342.506274,10.830608.775435,16.049767,1.624004,1.328026.21588,3.349662,2.253599,3.372032,3.484754.257591,14.187954.054127,28.383812.266916,42.573206.112297,7.488833.631062,14.9841,1.294033,22.447319.375201,4.223943-1.518643,5.217096-5.206466,5.029771-6.503454-.330255-13.032525-.28304-19.512645-.839286-1.305303-.112076-3.380392-2.115265-3.504357-3.400558-.912309-9.461077-1.431197-18.960482-2.049764-28.44944-.443277-6.799646-.849102-13.601774-1.282948-20.584579Z"/>
  <path class="cls-3" d="M147.141089,73.897334h-18.441475c-.729915-5.505973-1.020533-10.84685-2.315945-15.931449-.523144-2.053222-3.01248-3.925277-5.043471-5.162713-1.387987-.845659-3.531275-.45045-5.257316-.602985V7.323802c7.772101,0,14.872869-.105382,21.967728.053893,2.691865.060427,4.389044,1.264237,4.730115,4.549747,1.371542,13.211521,3.08662,26.387257,4.653357,39.578764.097889.82415.118958,1.68617-.00467,2.503243-.779709,5.153414-2.734662,10.24866-.067005,15.491109.512671,1.007523-.095745,2.586075-.221317,4.396776Z"/>
  <path class="cls-3" d="M105.256102,5.691042h6.077571c0,6.006885.350028,11.808836-.065535,17.555361-1.253304,17.330305-1.914714,34.622311,1.010183,51.860822.195226,1.150698.40166,2.314156.431763,3.476113.548439,21.159835,1.251834,42.318154,1.508154,63.481804.100782,8.319647-1.058935,16.647874-1.18192,24.979041-.098302,6.658463.492949,13.327864.810088,19.990862.039382.827551.367515,1.641438.406162,2.468958.808863,17.303879,1.59733,34.608738,2.368862,51.914332.013199.296552-.232005.604655-.502504,1.261824h-6.434337c0-7.850645.091442-15.785792-.021161-23.718059-.174432-12.288446-.492337-24.574871-.739898-36.862337-.063483-3.148953-.04958-6.299898-.142921-9.44778-.444074-14.974265-1.326801-29.950246-1.238788-44.920804.067372-11.467498,1.442527-22.923031,2.030563-34.394451.160958-3.141278-.075977-6.391845-.717053-9.469931-2.701925-12.972639-3.09152-26.016927-2.715032-39.241784.36629-12.867564-.533189-25.771205-.884197-38.933972Z"/>
  <path class="cls-3" d="M65.635366,15.758513c-3.305732-2.126126-2.948599-6.168949-2.22141-10.094195.141236-.762237,2.140318-1.179942,4.160408-2.19982,0,13.731161-.212773,26.355186.064769,38.96841.238436,10.835207,1.465066,21.65701,1.492352,32.486656.046242,18.373185-.927989,36.753922-.663217,55.119799.179424,12.44835,1.766158,24.875176,2.667198,37.315682.131896,1.820919-.100568,3.665216-.077631,5.497593.143074,11.426856.423005,22.853343.435101,34.280168.009677,9.142833-.17823,18.290414-.52247,27.426721-.130671,3.468454-.943791,6.911171-2.553829,10.675227-.419299-2.015996-1.20253-4.033186-1.19567-6.047742.031849-9.35712.642423-18.724166.364973-28.067437-.354591-11.940207-1.465189-23.855934-2.057818-35.791759-.52786-10.630096-.764887-21.274317-1.183849-31.910204-.413603-10.500556-1.051463-20.994586-1.309161-31.49842-.39529-16.109843-.826931-32.227498-.717359-48.338275.087247-12.832283.886157-25.663004,1.542575-38.485552.142278-2.778692,1.025219-5.519431,1.775039-9.336852Z"/>
  <path class="cls-3" d="M154.753288,74.047341c-1.925309-22.095664-3.752286-43.062613-5.582126-64.062545,9.523651-2.225626,13.155801,1.391885,11.96647,11.694247-.449632,3.894607.005773,7.904899.170528,11.857368.561347,13.466673,1.177005,26.931094,1.813456,41.336644-3.570902-.352345-6.399074-.631402-8.368328-.825713Z"/>
  <path class="cls-3" d="M154.834701,169.795478c2.721815-.338711,5.461393-.679658,8.58966-1.068984.104319,1.678235.267161,2.954367.250394,4.228171-.286898,21.829214-.591971,43.658214-.903781,65.487092-.058568,4.099887-.079912,4.09958-6.230934,5.615369-.565297-24.616968-1.126139-49.039656-1.70534-74.261647Z"/>
  <path class="cls-3" d="M118.920745,183.666566c-.093402-6.700193-.81658-13.463931-.148678-20.087282,1.375431-13.639031,1.541013-27.120487.075304-40.819294-1.216004-11.365027-.062962-22.963919-.514906-34.437299-.326693-8.293206-1.555651-16.551377-2.403038-24.823059-.149842-1.462691-.402456-2.914843-.632256-4.546676,3.546128-1.361584,5.732044-1.106226,5.815218,3.118345.123903,6.29112.342342,12.580464.451362,18.871753.318333,18.36407.454424,36.73275.953376,55.091688.316434,11.643165,1.23741,23.26885,1.697776,34.90987.117687,2.975232-.264588,6.02271-.847112,8.951371-.297601,1.49618-1.547046,2.802828-2.36629,4.195142-.693595-.14152-1.38716-.28304-2.080755-.42456Z"/>
  <path class="cls-3" d="M57.057771,4.994173v8.376811c-5.70038,0-11.273058-.003202-16.845768.00072-9.179258.006465-18.358577.036812-27.537712.00514-1.320982-.004565-2.957051.121942-3.877261-.5705-1.029292-.774531-1.659098-2.362642-1.928188-3.704058-.087063-.434143,1.486289-1.704783,2.345619-1.751308,15.751248-.852767,31.509386-1.577449,47.84331-2.356805Z"/>
  <path class="cls-3" d="M6.421339,245.310677c-.823195-4.240702.659817-5.429882,3.875669-5.481263,7.99354-.127671,16.095182-1.375034,23.943903-.430259,7.652668.921183,15.098627-.933745,22.669347-.008732,3.496579.427226,5.191751,1.515114,5.112528,5.920254H6.421339Z"/>
  <path class="cls-1" d="M44.733556,122.60839c-3.35868,1.325353-6.624142,3.214903-10.106634,3.790788-2.608064.431286-5.107842-1.147419-5.397358-4.598853-.289577-3.452123,1.952166-4.765221,4.54599-4.568858,3.576231.270739,7.083834,1.44921,10.620805,2.238831.112419,1.046036.224808,2.092072.337197,3.138092Z"/>
  <path class="cls-1" d="M27.538219,93.31876c4.651029-2.476112,13.062491-1.121284,16.305015,2.395364,2.05399,2.227648.886004,3.64216-1.239768,4.573607-4.003829,1.754311-13.254256-2.43426-15.065247-6.968971Z"/>
  <path class="cls-1" d="M44.028997,144.019172c-2.656602,2.454849-5.096971,5.237302-8.07506,7.20518-1.210461.799884-3.590195-.171424-5.437904-.336842.665728-2.198173.674639-5.473603,2.136613-6.365833,2.87008-1.75163,6.548716-2.177079,9.892789-3.151282.494511.882931.989052,1.765846,1.483563,2.648777Z"/>
</svg>