<?xml version="1.0" encoding="UTF-8"?>
<svg id="Layer_1" xmlns="http://www.w3.org/2000/svg" viewBox="0 0 170.117795 320.96082">
  <defs>
    <style>
      .cls-1 {
        fill: #eae7e7;
      }

      .cls-2 {
        fill: #e4dfe2;
      }

      .cls-3 {
        fill: #e0dcde;
      }

      .cls-4 {
        fill: #131211;
      }

      .cls-5 {
        fill: #dfb3c0;
      }

      .cls-6 {
        fill: #ece9ea;
      }

      .cls-7 {
        fill: #e7e5e6;
      }

      .cls-8 {
        fill: #f3f1f2;
      }

      .cls-9 {
        fill: #edebed;
      }
    </style>
  </defs>
  <path class="cls-4" d="M165.715737,229.645346c-.878857,7.148571.462381,14.03835,2.444387,20.829559.012844-.025386-.321574.514077-.321574.514077-1.364547,2.602015-.990171,5.240058-.163403,7.887495-.22905,4.489899-.810594,8.994601-.622692,13.466962.606756,14.439173-6.461915,23.762897-19.12982,29.44153-6.434087,2.884232-12.98258,5.512584-19.479459,8.25657-32.63567,20.127495-96.438523,7.851645-118.195399-14.555757-1.191154-1.865827-2.382308-3.731594-3.573462-5.597362-1.448746-4.494655-2.897611-8.98931-4.346475-13.483905-.309919-3.329702-.619838-6.659464-.929757-9.989166-.347618-6.12761-.952947-12.253199-.998971-18.383128-.217157-28.846776-.280782-57.694801-.399113-86.542351.994214-5.168003,3.146283-10.179351,2.115083-15.621545,3.601053-14.726859,2.016257-29.975464,4.510354-44.813675.718189-2.333235,1.436378-4.66647,2.154566-6.999705.250694-.66993.501626-1.339859.75232-2.009759.565608-.971171,1.130978-1.942341,1.696586-2.913482,0,0,.395783-.714756.395307-.714964,4.301284-5.223442,7.5634-12.697035,13.097462-15.251816,17.25556-7.966357,16.309629-22.028161,14.799042-36.741613-1.525571-14.855482,3.959731-25.701998,17.539553-32.246453C67.90577,1.823379,78.868525.391994,89.96305,0c7.87213,1.545145,15.845821,2.700824,23.594031,4.721254,13.660691,3.562247,20.469154,13.052406,19.608136,26.898936-.477365,7.672577-.130342,15.769193-2.550944,22.856648-3.251413,9.520093,2.265286,12.518888,8.551192,15.926442,1.394754.756224,2.915806,1.280437,4.378585,1.911486,6.514005,5.059207,8.713882,13.152255,13.61098,19.348413,9.91669,32.373947,9.949514,65.666509,9.207421,99.031126-1.388094,9.062614-1.427815,18.157331-.650283,27.271549-1.210182,3.89354-1.10196,7.786665.003568,11.679492ZM88.02909,143.81891c-5.178238-.02491-10.356475-.04988-15.534713-.074849-.977802-1.6238-2.47507-1.407634-3.990889-1.126309-13.893071-4.904752-28.474718-5.866321-42.939819-7.495352-6.083258-3.604249-8.623261-.827625-9.124173,5.20082-.314676,3.788192-.326331,7.601652-.473798,11.403756-2.235079,2.968772-1.986287,6.334502-1.555065,9.729303-.097994,2.602431-.196226,5.204804-.294221,7.807235-1.849286,13.649537.323714,27.275235.242369,40.914308-.078015,17.174657-.876954,34.38653.009514,51.511307.632206,12.214972,2.198926,25.24657,14.969343,31.827141,7.691363,3.963455,15.822988,7.434236,24.692661,8.273097,14.997885,5.799497,30.299267,6.924261,45.929834,2.981494,10.766291.363487,19.274195-5.278405,27.939079-10.503065,22.305834-4.973478,26.209908-9.352202,24.621782-27.614762-.001427-6.486222-.002854-12.972384-.004043-19.458606-.346072-9.992138-.959012-19.983444-.986841-29.976474-.075874-27.178031,3.309924-54.338643.004043-81.550205-.793706-6.53521-2.160632-8.990023-8.555473-4.764743-5.494341,3.630111-11.722687,5.582142-18.392484,5.434584-12.146299-.268602-23.616627,2.735008-34.878836,6.869684-.559424.203919-1.118848.407778-1.678271.611637ZM20.004395,111.792844c40.756829-14.075864,81.324567-24.878535,124.715112-10.956204-7.834787-21.145395-21.772574-29.314244-42.099256-25.442284-16.54629,3.151883-32.830707,4.030279-48.454377-3.866341-1.750578-.884698-3.465716-1.83411-5.490535-.767579-14.897037,7.847068-31.950424,25.588149-28.670944,41.032409ZM32.939167,121.265376c9.315881,4.682581,18.616063,2.224914,26.721048,5.293743,24.945734,9.445244,48.164913-4.585378,72.368078-5.223293,2.811628-.074136,8.489351-1.837766,8.228905-5.389103-.301832-4.109052-5.701746-4.160418-9.312789-5.083641-33.574941-8.585039-65.120781,1.039153-98.005243,10.402294ZM118.461077,40.206954c-20.777646,3.699164-41.529842,9.98117-62.434263.557001-1.998893-.901166-4.832879-.311318-3.807269,1.989724,1.977487,4.436868-2.758587,14.567826,9.003345,11.695336,2.116154-.516842,5.128051.171012,5.495768,2.843567,1.028227,7.46634,6.406259,6.692994,11.640391,6.985407,8.480551.473829,16.785568-.763952,24.998061-2.406717,13.999866-2.800346,16.439258-6.554859,15.103966-21.664318ZM84.038438,14.64651c-8.077632.121816-16.148605.203354-23.586658,4.089998-1.992947,1.041413-4.571957,1.69211-4.706343,4.257087-.143662,2.743302,2.7417,3.520244,4.575287,4.36291,17.658002,8.11558,35.152126,4.025761,52.547066-1.17503,1.748437-.522728,3.682398-1.979082,3.172209-4.222872-.460716-2.028011-2.543808-2.816041-4.398089-3.419355-8.969571-2.918446-18.204106-4.036611-27.603472-3.892738Z"/>
  <path class="cls-9" d="M14.358782,210.177822c.081345-13.639074-2.091655-27.264771-.242369-40.914308,7.856194,2.289479.553478,10.770181,5.702222,14.340542,3.807031-10.6662,1.724176-19.00398-5.408001-22.147777-.431222-3.394802-.680014-6.760531,1.555065-9.729303,10.673768-1.215962,6.961163-10.744735,9.597971-16.604576,14.465101,1.629032,29.046748,2.590601,42.939819,7.495352.887181,4.674199-8.121872,1.329871-5.66702,6.591986,2.300725,4.931683,6.246423.471094,9.435519.626203,4.507738.219376,9.244526-.546479,13.467081.61788,3.272344.902177,5.907487,2.932031,8.0724-1.060913,2.388016-4.404348-3.993981-3.271915-4.104106-6.185635,11.262209-4.134676,22.732537-7.138286,34.878836-6.869684,6.669797.147559,12.898143-1.804473,18.392484-5.434584,6.394842-4.22528,7.761767-1.770467,8.555473,4.764743,3.305881,27.211562-.079918,54.372174-.004043,81.550205.027828,9.99303.640769,19.984336.986603,29.976474-5.499573,1.832594-8.697232-4.467545-13.834797-3.914348-1.204711-4.076532-1.285581-7.383643,1.966546-11.269573,4.41236-5.272816,1.417587-10.206164-4.473487-11.628899-6.117746-1.47749-12.406745-3.348845-18.92622-2.419796-4.491564.122173-6.183631-4.417487-9.742346-5.848664.356062-7.240959.796085-16.795356-5.189179-19.665557-8.510044-4.080932-11.26102-8.864997-10.925175-17.3954.089432-2.263855-1.277969-5.339877-4.600499-5.342374-3.221444-.002438-3.930951,2.66551-4.871887,5.185303-1.336481,3.578566-1.861416,7.511701-4.955372,10.370726-2.524305,2.332581-6.055429,4.822292-3.404351,8.9622,2.522164,3.938545,6.073744,7.511464,11.176583,5.960195,6.268305-1.905541,7.326977.696534,10.018015,6.003713,2.943872,5.805561-.921432,15.420123,8.845413,17.618938-.191945,3.414302.131293,6.724979,1.957983,9.733405,2.246971,4.41933.189091,10.682549,5.845408,13.641511,1.299138,3.245221,2.598038,6.490502,3.896938,9.735783,1.988904,9.053161,7.131226,13.440387,16.773199,11.76207,2.776188-.483222,5.706741-.081389,8.566414-.085313,3.960444-.648378,7.920651-1.296816,11.881096-1.945254,1.588126,18.262501-2.315948,22.641225-24.62202,27.614643-2.758825-1.702751-8.613509-2.623537-5.806876-6.835737,5.246739-7.874475-1.208755-10.430593-5.155404-13.682711-3.151278-2.596427-5.449149-4.718847-5.740516-9.160471-.390788-5.953001-4.383104-6.776643-8.825909-3.961969-4.476817,2.836195-8.942456,4.892088-14.348554,4.087174,5.938169-11.018985,4.409268-16.458682-4.981773-17.473638-2.209867-.238817-4.465163-.058619-6.699528-.071223v-3.864528c8.040528-5.987542,8.390643-14.233292.334417-20.323804-12.597025-9.523244-12.078987-23.686026-13.146935-37.011375-.450726-5.620429-9.114897-20.443718-14.708897-19.978569-5.187038.43138-10.563881,2.360107-15.15891,4.894823-3.448829,1.902271-1.118134,6.572605,1.137162,6.988468,10.82623,1.99668,10.232793,12.052788,14.315255,18.775092,2.950532,4.858142,2.210342,9.632635-1.479191,13.336822-3.809885,3.824874-8.149939,2.423245-12.225265-.531853-6.145337-4.456309-10.121955-2.803437-11.695334,4.620871-3.612707-.112363-5.236511-4.995891-9.353937-3.897286ZM21.15226,194.093328c1.527474-.172945,2.110207-1.25853,2.097601-2.560934-.013557-1.407158-.9935-2.359394-2.352339-2.326755-1.803856.043281-2.836602,1.105739-2.473405,3.032207.275431,1.460724,1.358363,1.909524,2.728142,1.855482Z"/>
  <path class="cls-8" d="M88.021716,264.714022c5.406098.804914,9.871737-1.250979,14.348554-4.087174,4.442805-2.814673,8.435121-1.991032,8.825909,3.961969.291367,4.441624,2.589238,6.564044,5.740516,9.160471,3.946649,3.252118,10.402143,5.808237,5.155404,13.682711-2.806633,4.212201,3.048051,5.132986,5.806876,6.835737-8.664647,5.22472-17.17255,10.866611-27.938841,10.503124-5.084525-5.910315-10.657118-11.105725-19.268962-7.990821-7.742026,2.800167-9.089923-1.887289-9.41554-7.572996-.134148-2.341737,2.324273-5.319486-1.386429-6.524093-8.228905-2.671217-11.339748-8.960535-13.392872-16.668784-1.213988-4.558268-6.686208-4.051919-10.117912-5.941705-1.408311-.775486-2.847305,2.074323-3.039013,4.102869-.361057,3.81881.200746,7.197619,4.676849,8.286533,3.730443.907587,5.805925,3.935573,8.291222,6.411967,2.279319,2.271049,3.33799,4.796431.749466,7.604565-4.659248,5.054272-5.73338,10.47322-3.026644,15.31097-8.869674-.838861-17.001298-4.309642-24.692661-8.273097-12.770418-6.580571-14.337137-19.61217-14.969343-31.827141-.886468-17.124777-.087529-34.33665-.009514-51.511307,4.117426-1.098605,5.741229,3.784923,9.353937,3.897167,4.152627,4.32932,6.127022,10.531542,11.719357,13.622606,10.061779,12.422398,25.009953,20.935977,29.588095,37.873362.70475,2.607128,3.117027,6.591511,7.413792,6.935854-.165306,5.370852,4.522722,8.805902,5.533824,13.794064.309681,1.528499,2.204158,3.306516,4.477293,2.51587,1.885915-.655929,1.447557-2.558556,1.649967-4.071538,1.581704-11.81623.474511-12.980291-11.661084-12.234294-.244034-2.978046,2.657739-3.862507,3.896938-5.853539,4.110766.638093,7.798396-1.268517,11.690815-1.943352ZM27.77306,280.7613c-.838898-.96145-1.474909-2.384482-2.358047-2.559507-1.905656-.377636-1.587413,1.400857-1.503214,2.501067.09181,1.19456.305875,2.740835,2.052885,2.356718.624119-.137214,1.030843-1.262097,1.808375-2.298277ZM39.586606,290.66753c-1.049871-.210637-1.876638-.50076-2.701741-.49642-.513757.002675-1.487991.627749-1.470628.672754.548958,1.431593,1.801716,1.054789,2.86895.931249.38722-.044826.716643-.587322,1.303419-1.107582Z"/>
  <path class="cls-2" d="M20.004395,111.792844c-3.279479-15.44426,13.773908-33.185341,28.670944-41.032409,2.024819-1.066531,3.739957-.11712,5.490535.767579,15.623669,7.89662,31.908086,7.018224,48.454377,3.866341,20.326682-3.87196,34.264469,4.296889,42.099256,25.442284-43.390545-13.922331-83.958283-3.11966-124.715112,10.956204Z"/>
  <path class="cls-3" d="M32.939167,121.265376c32.884462-9.363141,64.430302-18.987334,98.005243-10.402294,3.611042.923223,9.010957.974589,9.312789,5.083641.260446,3.551337-5.417277,5.314967-8.228905,5.389103-24.203165.637915-47.422344,14.668537-72.368078,5.223293-8.104985-3.068829-17.405167-.611162-26.721048-5.293743Z"/>
  <path class="cls-7" d="M107.506409,212.113147c3.558715,1.431177,5.250782,5.970837,9.742346,5.848664,9.215032,6.160309,16.155502,14.107552,19.649998,24.813584.107033.327281,1.167369.343452,1.783163.504684,5.137565-.553197,8.335224,5.746942,13.834797,3.914348.001427,6.486222.002854,12.972384.004281,19.458666-3.960444.648438-7.920651,1.296876-11.881096,1.945492-2.107829-2.303866,8.283848-8.365961-1.238962-7.275798-9.01167,1.031603-16.134334-2.791666-24.100652-4.401197-1.2989-3.245281-2.5978-6.490562-3.896938-9.735783-.532785-5.153616.722113-11.072908-5.845408-13.641511-1.82669-3.008426-2.149928-6.319104-1.957983-9.733465,4.579569-2.80528-2.905579-9.637748,3.906452-11.697684Z"/>
  <path class="cls-5" d="M118.461077,40.206954c1.335291,15.109459-1.104101,18.863972-15.103966,21.664318-8.212493,1.642765-16.51751,2.880546-24.998061,2.406717-5.234133-.292412-10.612164.480933-11.640391-6.985407-.367716-2.672555-3.379614-3.360409-5.495768-2.843567-11.761933,2.87249-7.025858-7.258468-9.003345-11.695336-1.02561-2.301042,1.808375-2.89089,3.807269-1.989724,20.90442,9.424168,41.656616,3.142162,62.434263-.557001Z"/>
  <path class="cls-6" d="M54.0303,301.789367c-2.706736-4.83775-1.632604-10.256698,3.026644-15.31097,2.588524-2.808134,1.529853-5.333516-.749466-7.604565-2.485297-2.476394-4.560778-5.50438-8.291222-6.411967-4.476104-1.088914-5.037906-4.467723-4.676849-8.286533.191707-2.028546,1.630701-4.878355,3.039013-4.102869,3.431703,1.889786,8.903924,1.383437,10.117912,5.941705,2.053123,7.708248,5.163967,13.997567,13.392872,16.668784,3.710702,1.204607,1.252282,4.182356,1.386429,6.524093.325617,5.685707,1.673514,10.373163,9.41554,7.572996,8.611844-3.114904,14.184437,2.080506,19.268962,7.990821-15.630567,3.942766-30.931949,2.818003-45.929834-2.981494Z"/>
  <path class="cls-5" d="M84.038438,14.64651c9.399366-.143873,18.633902.974292,27.603472,3.892738,1.854281.603314,3.937373,1.391344,4.398089,3.419355.510189,2.24379-1.423772,3.700145-3.172209,4.222872-17.39494,5.200791-34.889063,9.29061-52.547066,1.17503-1.833588-.842666-4.718949-1.619608-4.575287-4.36291.134385-2.564977,2.713396-3.215674,4.706343-4.257087,7.438053-3.886644,15.509025-3.968182,23.586658-4.089998Z"/>
  <path class="cls-7" d="M89.707361,143.207273c.110125,2.91372,6.492122,1.781287,4.104106,6.185635-2.164913,3.992943-4.800056,1.96309-8.0724,1.060913-4.222555-1.164358-8.959343-.398504-13.467081-.61788-3.189096-.155109-7.134794,4.30548-9.435519-.626203-2.454852-5.262115,6.554201-1.917788,5.66702-6.591986,1.51582-.281325,3.013087-.49749,3.990889,1.126309,5.146128,6.666836,10.325555,6.482536,15.534713.074849.559424-.203859,1.118848-.407719,1.678271-.611637Z"/>
  <path class="cls-1" d="M25.563669,135.122399c-2.636808,5.859841,1.075797,15.388614-9.597733,16.604576.147229-3.802104.158884-7.615563.47356-11.403756.500913-6.028445,3.040915-8.80507,9.124173-5.20082Z"/>
  <path class="cls-1" d="M14.410633,161.456278c7.132177,3.143797,9.215032,11.481578,5.408001,22.147777-5.148744-3.570362,2.153972-12.051064-5.702222-14.340542.097994-2.602431.196226-5.204804.294221-7.807235Z"/>
  <path class="cls-9" d="M88.02909,143.81891c-5.209158,6.407686-10.388585,6.591986-15.534713-.074849,5.178238.02497,10.356475.049939,15.534713.074849Z"/>
  <path class="cls-1" d="M35.432076,227.697594c-5.592335-3.091064-7.56673-9.293286-11.719357-13.622606,1.573379-7.424189,5.549998-9.07706,11.695334-4.620752,4.075326,2.955098,8.41538,4.356727,12.225265.531853,3.689533-3.704187,4.429723-8.478681,1.479191-13.336822-4.082462-6.722304-3.489025-16.778412-14.315255-18.775092-2.255296-.415863-4.585991-5.086198-1.137162-6.988468,4.595029-2.534716,9.971872-4.463443,15.15891-4.894823,5.594-.465149,14.258171,14.35814,14.708897,19.978569,1.067948,13.325348.54991,27.48813,13.146935,37.011375,8.056226,6.090512,7.70611,14.336262-.334417,20.323626.653612-5.011586-4.379061-7.594934-5.158972-12.09161-.343456-1.97926-.602237-4.967592-3.618654-4.967711-3.016179-.000119-2.917233,3.010923-3.689771,4.963133-1.436615,3.630765-2.20392,7.926851-7.832646,4.833885-3.816069-2.096915-7.292726-4.288715-6.782062-9.4261.595101-5.98778,5.908914-2.88881,9.664807-4.54073-2.268854-3.376907-2.388016-8.1709-7.752253-7.558846-4.270125.487324-7.161671,3.503717-7.592418,7.639998-.577738,5.556459-4.029183,5.773755-8.146371,5.541121Z"/>
  <path class="cls-6" d="M35.432076,227.697594c4.117188.232634,7.568633.015338,8.146371-5.541121.430747-4.136281,3.322292-7.152674,7.592418-7.639998,5.364237-.612054,5.4834,4.18194,7.752253,7.558846-3.755893,1.65192-9.069706-1.44705-9.664807,4.54073-.510664,5.137385,2.965993,7.329185,6.782062,9.4261,5.628726,3.092966,6.396031-1.203121,7.832646-4.833885.772538-1.95221.673592-4.963252,3.689771-4.963133,3.016417.000119,3.275198,2.98845,3.618654,4.967711.779911,4.496676,5.812584,7.080024,5.158972,12.09161v3.864885c-.389123,2.003933-.922621,4.020351-3.535168,2.253748-1.851426-1.251871-3.641012-2.278421-3.375333,1.110911.398637,5.088576-5.479356,13.177433,5.94578,13.57659.347499.012188.637914,1.661016.955207,2.546785-1.2392,1.991032-4.140973,2.875492-3.896938,5.853539v-.004102c-4.296765-.344343-6.709042-4.328726-7.413792-6.935854-4.578142-16.937386-19.526316-25.450964-29.588095-37.873362Z"/>
  <path class="cls-1" d="M107.506409,212.113147c-6.812031,2.059936.673116,8.892404-3.906452,11.697684-9.766845-2.198756-5.90154-11.813317-8.845413-17.618878-2.691038-5.307179-3.749709-7.909254-10.018015-6.003713-5.102839,1.551269-8.654419-2.021649-11.176583-5.960195-2.651079-4.139908.880046-6.629619,3.404351-8.9622,3.093956-2.859024,3.618891-6.792159,4.955372-10.370726.940936-2.519794,1.650443-5.187741,4.871887-5.185303,3.32253.002497,4.689931,3.078519,4.600499,5.342374-.335845,8.530403,2.415131,13.314468,10.925175,17.3954,5.985264,2.870201,5.545241,12.424598,5.189179,19.665557Z"/>
  <path class="cls-1" d="M76.330901,266.657374c-.317292-.885768-.607707-2.534597-.955207-2.546785-11.425137-.399158-5.547143-8.488015-5.94578-13.57659-.265679-3.389332,1.523907-2.362782,3.375333-1.110911,2.612547,1.766602,3.146045-.249815,3.535168-2.253748,2.234365.012425,4.489661-.167772,6.699528.071045,9.391041,1.014957,10.919943,6.454653,4.981773,17.473638-3.892419.674834-7.58005,2.581445-11.690815,1.943352Z"/>
  <path class="cls-6" d="M138.681916,243.28008c-.615794-.161233-1.676131-.177403-1.783163-.504684-3.494496-10.706032-10.434966-18.653276-19.649998-24.813584,6.519475-.929049,12.808474.942307,18.92622,2.419796,5.891075,1.422735,8.885847,6.356082,4.473487,11.628899-3.252126,3.885931-3.171257,7.193041-1.966546,11.269573Z"/>
  <path class="cls-1" d="M115.300285,256.921591c7.966318,1.609531,15.088982,5.4328,24.100652,4.401197,9.52281-1.090163-.868867,4.971932,1.238962,7.275738-2.859674.003745-5.790226-.398087-8.566414.085135-9.641973,1.678317-14.784296-2.708909-16.773199-11.76207Z"/>
  <path class="cls-1" d="M105.557939,233.544296c6.567521,2.568604,5.312623,8.487896,5.845408,13.641511-5.656317-2.958962-3.598436-9.222182-5.845408-13.641511Z"/>
  <path class="cls-1" d="M21.15345,194.089523c-1.370969.057846-2.453901-.390953-2.729332-1.851678-.363197-1.926468.669548-2.988926,2.473405-3.032207,1.358838-.032639,2.338781.919596,2.352339,2.326755.012606,1.302405-.570127,2.38799-2.096412,2.557129Z"/>
  <path class="cls-6" d="M72.433963,272.510913c12.135595-.745998,13.242788.418063,11.661084,12.234294-.202411,1.512982.235947,3.41561-1.649967,4.071538-2.273135.790646-4.167612-.987371-4.477293-2.51587-1.011101-4.988162-5.69913-8.423212-5.533824-13.794064v.004102Z"/>
  <path class="cls-6" d="M27.77306,280.7613c-.777532,1.036181-1.184256,2.161063-1.808375,2.298277-1.74701.384116-1.961075-1.162159-2.052885-2.356718-.084199-1.10021-.402443-2.878703,1.503214-2.501067.883138.175025,1.51915,1.598057,2.358047,2.559507Z"/>
  <path class="cls-6" d="M39.586606,290.66753c-.586777.52026-.916199,1.062756-1.303419,1.107582-1.067234.12354-2.319991.500344-2.86895-.931249-.017363-.045005.956872-.670078,1.470628-.672754.825103-.00434,1.65187.285784,2.701741.49642Z"/>
  <path class="cls-6" d="M28.650727,24.432649c.131769.235279.376517.481022.355824.702242-.019979.216077-.310395.407124-.481885.60923.04091-.437207.08182-.874502.126061-1.311471Z"/>
</svg>