<?xml version="1.0" encoding="UTF-8"?>
<svg id="Layer_1" xmlns="http://www.w3.org/2000/svg" viewBox="0 0 204.052942 184.158053">
  <defs>
    <style>
      .cls-1 {
        fill: #141814;
      }

      .cls-2 {
        fill: #b0d359;
      }

      .cls-3 {
        fill: #b8d433;
      }

      .cls-4 {
        fill: #809e8f;
      }
    </style>
  </defs>
  <path class="cls-2" d="M193.303213,94.998443c-6.541382,1.586655-13.204407,1.369429-19.858521.392948-2.442139-.358379-4.895447-1.095661-7.148071-2.099157-1.134949-.505582-1.832703-1.992597-2.728149-3.035797,1.243042-.484746,2.582275-1.547249,3.713318-1.359022,6.569153,1.093219,13.085083,2.50294,19.628601,3.755645,2.095947.401257,4.221008.650306,6.332764.968981.02002.458798.040039.917597.060059,1.376402Z"/>
  <path class="cls-4" d="M180.620413,87.744097c7.544739-3.061806,13.916748-2.057172,19.080444,2.972511-6.611816-1.030047-12.122375-1.888531-19.080444-2.972511Z"/>
  <path class="cls-1" d="M100.036672,144.170523c14.490967,7.828768,14.386963,7.801379,10.134888,23.94267-1.843201,6.997156-6.338379,11.375496-12.951691,13.105723-13.836792,3.620077-27.821289,4.183712-41.723938.063706-6.292175-1.864658-8.700348-5.102941-9.504333-11.88902-.330566-2.790082-1.101562-5.527979-1.672241-8.289604-.380859-9.666952,5.644165-14.10909,14.243011-17.29624-1.823975-1.63994-3.951721-3.586584-5.614075-3.248019-8.659546,1.763659-16.369415-.220385-23.802429-4.53569-10.298798-5.97911-11.737152-23.015307-2.445831-30.429628.741302-.591559,1.762695-.982127,2.709106-1.144589,19.581787-3.361377,34.010803,11.249625,30.527679,30.867513-.706482,3.979349,1.451019,6.115403,5.116364,8.582209,0-7.289884.010681-13.439115-.004791-19.588256-.007141-2.829435-.039734-5.65945-.117249-8.487649-.021912-.798745.008484-1.771945-.411865-2.360131-4.507355-6.306994-9.108887-12.546589-13.665771-18.818335-1.858887-2.558497-3.915497-2.225387-6.891754-1.66385-8.070343,1.522675-16.613159,3.990381-24.409424,2.701275-11.454559-1.894001-21.939819-11.072179-19.074554-24.870238.83313-4.012049,2.64917-6.159341,6.691345-6.76329,7.327179-1.094806,14.624756-2.387574,21.934692-3.597692,1.971069-.14116,3.942139-.282321,5.913239-.423489,1.340271-.023339,2.680511-.046685,4.020782-.070031.993866-.134393,1.987701-.268779,2.981567-.403172,1.305756.186594,2.613342.361019,3.916931.561682,12.659912,1.948773,20.919952,15.969513,10.903107,27.490007-.92868,1.068073-1.657898,2.309578-2.245331,3.139451,2.994171,4.102756,5.705078,7.817385,8.416016,11.532007.387054.867532.774078,1.735064,1.161133,2.602581.224945-.071076.449921-.142152.674866-.213228-.069916-.871896-.139862-1.743807-.209778-2.615703-.113495-2.815901-.379608-5.635387-.313599-8.447076.268921-11.45144.561462-22.903459.996033-34.349551.385162-10.14519-5.022919-14.730236-14.51297-12.445216-3.834534.923265-7.85257,1.084239-11.787109,1.59211l-4.162994-.278392c-6.092194-1.833064-10.124542-5.67046-11.637085-11.959692-.072754-.980105-.145477-1.960217-.218201-2.940322,2.608459-10.209659,3.616364-10.899688,18.036255-12.348025,1.326111-.000034,2.652252-.000065,3.978363-.000099,2.280853.252688,4.561737.505372,6.84259.75806,1.949188.914655,3.898376,1.829315,5.847565,2.743966,4.207092,4.089881,5.404297,9.245653,5.5961,14.897504.066559,1.960934,1.045532,3.890901,2.387878,5.632045.656006-5.126913,1.894989-9.792693-2.041901-14.663535-5.309509-6.569127-3.861206-16.455576,2.59726-22.062207,3.572906-3.101678,7.945801-5.411584,12.2341-7.515968,3.112427-1.527331,6.042877-.294456,8.426727,2.375508,4.697388,5.261234,4.556213,11.490865,3.756439,18.285413,7.142395,1.527786,9.935822,6.154187,9.655426,13.312809-.304962,7.786165-.069153,15.593525-.069153,24.23217.823639-1.47763,1.575165-2.31115,1.775055-3.26079,3.704376-17.59717,10.526428-24.268509,28.077393-26.052905,5.869202-.596724,11.975159.001286,17.850098.877103,7.614258,1.135109,11.934631,6.003024,12.756348,13.773885-.470703,4.290288-.941406,8.580576-1.412109,12.870872-1.294617.679-2.850159,1.09431-3.843811,2.07752-10.835266,10.721025-35.630157,12.198312-46.554657,3.800446-1.133667-.871469-2.63736-1.261586-5.210663-2.446726-1.660309,4.948055-4.103363,9.438106-4.559753,14.121755-1.277161,13.106051-1.733093,26.292127-2.513092,39.446617.794922.193804,1.589844.387592,2.384796.581381,1.342712-3.737983,3.642944-7.424467,3.847229-11.223654.594757-11.062337,6.063873-18.468654,16.558533-22.011078,10.952606-3.697005,21.211182-2.452379,31.230347,2.869925,1.435608.762604,3.073853,1.900181,4.514648,1.76443,5.932739-.558943,11.821594-1.571442,17.734009-2.361642,6.712219-.897088,13.432312-1.73485,20.148987-2.598407,1.972961.821496,4.328125,1.21761,5.828247,2.565394,2.182312,1.960736,5.019775,4.520523,5.188049,6.987848.142639,2.091787-2.664978,5.491503-4.938416,6.41637-5.103088,2.07601-10.685669,2.973647-16.072998,4.351042-2.519714.261386-5.31958-.084123-7.496155.920664-3.629822,1.675752-6.702393,4.52919-10.286011,6.339633-19.200623,9.700217-38.853363,10.771242-59.14743,2.946303-1.739594,2.08901-3.871643,4.426696-5.734467,6.962152-1.308655,1.781192-2.920502,3.732459-3.224274,5.781598-.752411,5.075964-.636688,10.275097-1.24942,15.379183-.417358,3.476781,1.114532,4.487396,4.138123,4.420607ZM48.352712,33.552817l-.340759-.206415s.350159.18751.350159.187525c.243042-.215754.486084-.431508.729126-.647277.252808-.095521.417114-.27299.492889-.532415.557159-.596033,1.114349-1.192063,1.671509-1.788089.237274-.179186.379272-.415589.426025-.709213.353638-.658774.707275-1.317545,1.060913-1.976319-.811066-.285438-1.622131-.570871-2.433197-.856298l-.220245-.071069c-1.778168.060437-3.556366.120874-5.334534.181307.094269,2.553664-4.650818,4.154789-1.441101,7.321668,1.288391,1.633912,2.581604,3.14158,4.046906.154962l.02298-.048806c.32312-.336521.64621-.673041.96933-1.009562ZM112.946401,97.540293c-.752777-1.144833-1.505554-2.289658-2.418091-3.677481-1.161469,1.018969-2.504547,1.64406-2.523071,2.306229-.096558,3.449582-.882141,7.450125.571198,10.2038,1.312042,2.485911,4.634521,1.184521,6.380707-1.400435,3.411621-3.581716-.817566-5.096227-2.010742-7.432112ZM129.297598,35.23716c-.822327.004196-1.644684.0084-2.46701.012581-.275604.215281-.551178.430562-.826752.64585-9.304504.742287-9.352722.83249-5.99411,11.470628,3.368958-1.280836,6.646393-2.906188,10.113892-3.754303,4.928589-1.205487,5.813507-4.002459,4.277802-8.463044-1.200287.06318-2.337952.123071-3.475616.182962-.542725-.031563-1.08548-.063119-1.628204-.094674ZM14.810903,73.327364c2.516541-.809289,5.033051-1.618569,8.207825-2.639545-5.464935-3.05201-14.66864-3.567831-16.800079-.799042-1.203552,1.563385-.84729,4.327566-1.425903,8.041631,4.342133-1.992604,7.093628-3.255251,9.845093-4.517898,0,0,.173065-.085153.173065-.085145ZM139.060598,105.643737c5.269226,3.217409,10.590027,4.123607,17.036865.259555-3.707825-1.896275-6.648438-3.400196-9.58905-4.904117-5.89325-4.493942-10.715485,1.004801-16.122009,1.052028-.05777.507512-.115509,1.015025-.173279,1.522537,2.949158.690009,5.898315,1.380004,8.847473,2.069998ZM136.927175,97.126196c1.335388-.407185,2.670807-.81437,4.026917-1.227872-4.780853-13.084421-15.93692-15.85337-25.284668-6.752822-.110229,2.51079,6.165619,10.977657,8.355927,11.166899.605774.052338,1.244843-.271808,1.867615-.427403,3.678253-.918909,7.356171-1.839084,11.03421-2.758802ZM129.725118,49.208996c-2.600708,1.146809-5.201447,2.293617-8.642395,3.810936,3.051575,2.747434,5.414215,4.874591,7.776855,7.001757,6.512787,4.132633,17.714569,1.658372,22.7836-5.032468-7.907776-8.670795-13.886444-10.247494-21.91806-5.780225ZM60.980886,177.518606c.656494.192781,1.313019.385578,1.969513.57836,10.596405,1.340452,21.127289,1.549103,31.588379-1.220944,7.056305-1.868458,9.93335-4.930531,11.346771-13.576537-19.183105,7.646439-37.675018,6.152894-55.683777-2.70654-.28772,12.943459.785706,14.629023,10.779114,16.925662ZM72.448538,32.102195c-.50415,4.483741-1.115295,8.369324-1.332428,12.276796-.226715,4.078929-1.567261,9.013641.171844,12.125015,7.465881,13.356931,9.805267,27.878485,11.860168,42.638216,1.180511,8.479318,3.054016,16.862154,4.61557,25.288432.419312.16266.838593.325321,1.257904.487981.963593-2.18122,2.698944-4.337873,2.769287-6.547521.589569-18.523639.873108-37.056998,1.251831-55.587367.010162-.498128.02475-.999201.086243-1.492798,1.022491-8.205863,2.052917-16.410726,3.192078-25.497838-9.496826,2.835554-17.007538,1.35681-23.872498-3.690917ZM69.656301,151.689611c.921844-.726036,1.649658-1.086162,2.073822-1.667757,2.859589-3.920663,5.533447-7.982304,8.503662-11.815259,3.214233-4.147823,4.484558-8.351753,3.280304-13.762101-2.296997-10.319363-3.835266-20.806011-5.777771-31.206521-1.183502-6.336596-2.405487-12.672201-3.880219-18.944763-.502228-2.136069-1.829102-4.07825-2.779205-6.109024-.473511.145784-.947052.291568-1.420593.437359v83.068066ZM95.854452,148.00627c-2.19577,8.169424-5.970032,12.065048-12.70224,12.116241-4.869537.037033-10.169067-.367924-14.480774-2.327431-2.991882-1.359709-4.630432-5.697338-7.223236-9.173173-.705719.232562-2.369049.550985-3.80011,1.308317-1.948059,1.030925-3.718811,2.396951-5.565582,3.619284,1.610992,1.717699,3.164795,3.495244,4.865295,5.119207.561981.536657,1.477966.764168,2.273102.98588,11.890381,3.315387,23.799286,6.378497,36.142639,2.153266,3.249115-1.112194,6.70874-1.811359,9.708588-3.390125,2.748627-1.446548,3.157196-3.953485.039032-5.757535-2.837921-1.641954-5.860687-2.964431-9.256714-4.653932ZM36.483877,78.548456c-3.42804-4.358053-6.84433-5.772176-11.601044-4.021532-5.959229,2.193214-12.11438,3.854073-18.162506,5.737706,2.839111,6.738212,4.494049,7.594963,11.293457,5.547061,5.028259-1.51445,10.075043-2.979019,15.043915-4.67045,1.232971-.419712,2.195923-1.632684,3.426178-2.592784ZM193.303213,94.998443c-.02002-.458806-.040039-.917604-.060059-1.376402-2.111755-.318675-4.236816-.567724-6.332764-.968981-6.543518-1.252706-13.059448-2.662426-19.628601-3.755645-1.131042-.188227-2.470276.874276-3.713318,1.359007.895447,1.043216,1.593201,2.53023,2.728149,3.035812,2.252625,1.003497,4.705933,1.740778,7.148071,2.099157,6.654114.976481,13.317139,1.193707,19.858521-.392948ZM74.740103,153.864605c.12854.536031.25708,1.072078.38562,1.608125,3.595001-.484624,7.234039-.779503,10.752197-1.595475.81665-.189379,1.826263-2.222267,1.707397-3.291293-.435547-3.917932-1.309479-7.787127-2.125-12.259477-3.822754,5.540812-7.271484,10.539458-10.720215,15.53812ZM42.84786,63.984436c-3.43338,2.133856-9.257782-.751266-8.533234,5.210677.247681,2.038145,3.990692,4.183552,6.56369,5.243827,2.178436.897691,8.15979-4.85287,7.149689-6.633512-.995178-1.75429-3.496155-2.654385-5.180145-3.820992ZM44.111013,128.761417c-4.490936-9.444645-11.512177-4.442077-17.951324-4.244077,4.303955,8.501032,8.074768,9.316103,17.951324,4.244077ZM25.595205,90.257604c.385071.411152.770111.822304,1.155182,1.233457,6.239807-1.36843,12.479614-2.736852,18.719421-4.105281-.076172-.771637-.152344-1.543274-.228516-2.314919-5.712555-2.723782-11.38797-.126787-16.946655,1.779582-1.153625.395641-1.812531,2.23381-2.699432,3.407162ZM53.003713,69.956138c-2.421417,3.506253-4.769226,6.905938-6.956421,10.073061,1.688385,2.033018,3.070374,3.697127,4.452148,5.360947,6.691895-6.059204,7.35498-9.809104,2.504272-15.434008ZM76.665731,26.784625c-.109467,1.039031-.218903,2.078062-.328369,3.117089,4.567108.743133,9.119324,1.638582,13.715118,2.087439.816559.079751,2.213226-1.570149,2.562683-2.669171.17868-.561922-1.331696-2.37647-2.141815-2.41892-4.59198-.240603-9.203033-.116437-13.807617-.116437ZM149.476919,98.126404c7.662231.02414,13.216919,7.243832,21.501892,1.548706-7.417542-1.127819-13.088074-7.436446-21.501892-1.548706ZM133.590536,111.951769c-5.490875-6.78704-14.592621-7.00596-18.828766-1.48999,6.449402.510366,12.639069,1.000178,18.828766,1.48999ZM47.194784,112.870754c-6.476318,5.897383-6.12384,7.7296,2.174957,12.738867,6.295898-4.988225,6.046539-6.617285-2.174957-12.738867ZM114.94335,40.648721c-5.593384,3.941896-7.521301,7.362974-6.791687,11.703441,2.556305-1.102131,5.078583-2.189597,7.848389-3.3838-.344055-2.708813-.681976-5.369446-1.056702-8.319641ZM155.777273,40.373595c-4.622192,1.481422-7.633728,2.446619-11.471802,3.676734,3.651001,2.62627,6.382874,4.59137,10.132996,7.288907.469727-3.84726.823486-6.744781,1.338806-10.965641ZM65.835043,15.535237c0,2.700943-.803436,5.531397.189087,6.477253,1.47348,1.404155,4.266296,2.022771,6.398163,1.836707.830597-.072488,1.391388-3.23675,2.052216-4.93393-3.050598-1.193493-5.211914-2.039068-8.639465-3.380031ZM120.176748,62.597719c.461365-.457898.922729-.915804,1.384125-1.373702-1.419586-2.372209-2.839172-4.744425-4.491058-7.504821-2.535858,1.335379-4.585205,2.414567-7.658325,4.032862,4.35202,1.958935,7.558624,3.402294,10.765259,4.84566ZM149.637991,37.133595c-.036255-.5221-.072449-1.044192-.108704-1.566292-3.806458-.196253-7.612946-.392513-11.743103-.60546.393372,2.550761.651825,4.226605.936249,6.070793,3.970001-1.41809,7.44278-2.658566,10.915558-3.899041ZM143.381582,86.921053c.212646,8.204894,1.449219,8.797025,10.722778,4.793307-3.986145-1.781894-7.208862-3.222513-10.722778-4.793307ZM32.89797,120.351466c.415161-.724159.830322-1.448318,1.245483-2.172477-1.993896-1.717119-3.987793-3.434223-5.981689-5.151358-.720795,1.691103-1.441559,3.382221-2.162323,5.073339,2.2995.75016,4.598999,1.500336,6.898529,2.250496ZM180.620413,87.744097c6.958069,1.08398,12.468628,1.942463,19.080444,2.972511-5.163696-5.029683-11.535706-6.034317-19.080444-2.972511ZM58.819052,40.732028c-.832184-3.911966-1.402771-6.594236-2.159668-10.15229-2.200867,2.553641-3.660004,4.24669-5.475983,6.353782,2.355713,1.171894,4.436981,2.207259,7.635651,3.798508ZM38.996023,135.9411h12.641052c-3.717865-4.575791-5.399048-4.584504-12.641052,0ZM86.916525,14.582469c-3.774536,2.084394-6.329224,3.495137-8.883881,4.90588.238342.479894.476654.959791.714966,1.439689,1.292328.073136,2.584351.196051,3.877045.203154.975433.00536,1.95166-.137464,3.07196-.225706.32373-1.67806.622131-3.224604,1.21991-6.323016ZM29.050619,37.274069c2.424988,4.786631,3.333954,4.823703,10.84787,0h-10.84787ZM42.763876,110.376985c-3.625244-.423756-6.266785-.732536-10.090668-1.179532,2.618896,2.939666,4.417053,4.958042,6.702637,7.523559,1.230316-2.303734,2.110443-3.951791,3.388031-6.344027Z"/>
  <path class="cls-4" d="M95.854452,148.00627c3.396027,1.689501,6.418793,3.011978,9.256714,4.653932,3.118164,1.80405,2.709595,4.310987-.039032,5.757535-2.999847,1.578766-6.459473,2.277931-9.708588,3.390125-12.343353,4.225232-24.252258,1.162121-36.142639-2.153266-.795135-.221712-1.711121-.449223-2.273102-.98588-1.7005-1.623963-3.254303-3.401508-4.865295-5.119207,1.846771-1.222333,3.617523-2.588359,5.565582-3.619284,1.431061-.757332,3.094391-1.075755,3.80011-1.308317,2.592804,3.475835,4.231354,7.813464,7.223236,9.173173,4.311707,1.959508,9.611237,2.364465,14.480774,2.327431,6.732208-.051194,10.50647-3.946817,12.70224-12.116241Z"/>
  <path class="cls-3" d="M62.950399,178.096966c-.656494-.192781-1.313019-.385578-1.96994-.579031-1.61084-1.395049-3.213776-2.798139-4.833313-4.181835-2.415955-2.064077-4.182526-4.311689-2.420288-7.585587,4.116882.61637,8.10791,1.179089,12.086853,1.817126,7.379089,1.183178,14.719299,2.980682,22.138641,3.394672,4.122101.229998,8.371307-1.817538,14.108368-3.214922-1.806,2.355813-2.604553,4.523956-3.983765,4.996159-5.197144,1.779345-10.508148,3.536763-15.91806,4.302717-6.325623.895639-12.799133.746559-19.208496,1.0507Z"/>
  <path class="cls-2" d="M62.950399,178.096966c6.409363-.304141,12.882874-.155061,19.208496-1.0507,5.409912-.765953,10.720917-2.523371,15.91806-4.302717,1.379211-.472203,2.177765-2.640346,3.983765-4.996159-5.737061,1.397383-9.986267,3.44492-14.108368,3.214922-7.419342-.41399-14.759552-2.211494-22.138641-3.394672-3.978943-.638037-7.969971-1.200757-12.086853-1.817126-1.762238,3.273898.004333,5.521509,2.420288,7.585587,1.619537,1.383696,3.222473,2.786786,4.833313,4.181835-9.992981-2.295967-11.066406-3.981531-10.778595-16.926455,18.008667,8.860898,36.50058,10.354444,55.683685,2.708005-1.413422,8.646007-4.290466,11.70808-11.346771,13.576537-10.46109,2.770047-20.991974,2.561397-31.588379,1.220944Z"/>
  <path class="cls-2" d="M36.483877,78.548456c-1.230255.9601-2.193207,2.173072-3.426178,2.592784-4.968872,1.691431-10.015656,3.155999-15.043915,4.67045-6.799408,2.047903-8.454346,1.191151-11.293457-5.547061,6.048126-1.883633,12.203278-3.544492,18.162506-5.737706,4.756714-1.750643,8.173004-.336521,11.601044,4.021532Z"/>
  <path class="cls-3" d="M128.859579,60.021681c-2.36264-2.127158-4.725281-4.254315-7.776855-7.001749,3.440948-1.517319,6.041687-2.664127,8.644073-3.811333,3.49939.015511,7.121338-.517209,10.451782.237154,2.279724.51637,4.279114,2.69244,6.117554,4.429579.443115.418698.091309,2.292626-.481812,3.057877-1.737915,2.320809-10.058075,3.653006-13.03183,2.65482-1.131622-.379856-2.605194.259059-3.922913.433652Z"/>
  <path class="cls-3" d="M136.927175,97.12618c-3.67804.919733-7.355957,1.839908-11.03421,2.758817-.622772.155595-1.261841.479741-1.867615.427403-2.190308-.189241-8.466156-8.656108-8.355255-11.167394,4.943726-.76783,9.871368-1.680376,14.839935-2.206611,1.344696-.142427,3.666809.517522,4.064331,1.443099,1.179077,2.745328,1.62204,5.806814,2.352814,8.744686Z"/>
  <path class="cls-2" d="M128.859579,60.021681c1.317719-.174593,2.79129-.813508,3.922913-.433652,2.973755.998187,11.293915-.334011,13.03183-2.65482.57312-.765251.924927-2.639179.481812-3.057877-1.83844-1.737139-3.83783-3.913209-6.117554-4.429579-3.330444-.754364-6.952393-.221644-10.451782-.237154,8.029938-4.466872,14.008606-2.890173,21.916382,5.780622-5.069031,6.69084-16.270813,9.165101-22.7836,5.03246Z"/>
  <path class="cls-2" d="M42.84786,63.984436c1.68399,1.166607,4.184967,2.066702,5.180145,3.820992,1.010101,1.780642-4.971252,7.531204-7.149689,6.633512-2.572998-1.060275-6.31601-3.205683-6.56369-5.243827-.724548-5.961944,5.099854-3.076821,8.533234-5.210677Z"/>
  <path class="cls-2" d="M44.111013,128.761417c-9.876556,5.072027-13.647369,4.256955-17.951324-4.244077,6.439148-.198,13.460388-5.200568,17.951324,4.244077ZM39.203298,127.902598c-.007721-.474797-.015442-.94961-.023193-1.424407-1.026611-.411656-2.094543-1.225369-3.068604-1.125317-1.037689.106584-1.986633,1.077632-2.974304,1.671266,1.01239.734031,1.948151,1.860202,3.061493,2.077871.889343.173906,1.994965-.758217,3.004608-1.199414Z"/>
  <path class="cls-3" d="M146.508413,100.999175c2.940613,1.503921,5.881226,3.007843,9.58905,4.904117-6.446838,3.864053-11.767639,2.957854-17.037781-.260287-.349487-1.169781-.697998-2.33883-1.156586-3.877191,3.01358-.268481,5.809479-.517553,8.605316-.76664Z"/>
  <path class="cls-2" d="M25.595205,90.257604c.886902-1.173352,1.545807-3.01152,2.699432-3.407162,5.558685-1.906368,11.2341-4.503364,16.946655-1.779582.076172.771645.152344,1.543282.228516,2.314919-6.239807,1.36843-12.479614,2.736852-18.719421,4.105281-.385071-.411152-.770111-.822304-1.155182-1.233457Z"/>
  <path class="cls-2" d="M53.003713,69.956138c4.850708,5.624904,4.187622,9.374804-2.504272,15.434008-1.381775-1.66382-2.763763-3.32793-4.452148-5.360947,2.187195-3.167123,4.535004-6.566808,6.956421-10.073061Z"/>
  <path class="cls-2" d="M130.925802,35.331827c1.137665-.059884,2.27533-.119775,3.475616-.182955,1.535706,4.460586.650787,7.257557-4.277802,8.463044-3.467499.848115-6.744934,2.473467-10.113892,3.754303-3.358612-10.638138-3.310394-10.728341,5.992554-11.468575-.854248.497236-1.811371.87507-2.533112,1.517395-.894165.795769-1.881897,1.704668-2.273193,2.769101-.253326.689056.681854,2.538653.756714,2.520442,3.023376-.735168,6.130341-1.369528,8.907227-2.688961.623108-.296085.07489-3.057396.065887-4.683793Z"/>
  <path class="cls-2" d="M136.927175,97.126196c-.730774-2.937888-1.173737-5.999374-2.352814-8.744702-.397522-.925577-2.719635-1.585526-4.064331-1.443099-4.968567.526235-9.89621,1.438781-14.839935,2.206611,9.347076-9.100052,20.503143-6.331103,25.283997,6.753318-1.35611.413502-2.691528.820687-4.026917,1.227872Z"/>
  <path class="cls-2" d="M14.637838,73.412509c-2.751465,1.262647-5.50296,2.525294-9.845093,4.517898.578613-3.714065.222351-6.478245,1.425903-8.041631,2.131439-2.768789,11.335144-2.252968,16.800079.799042-3.174774,1.020976-5.691284,1.830257-8.206055,2.638622.53952-1.110851,1.077301-2.220771,2.065704-4.260823-3.572693,1.112507-6.383118,1.987645-9.193542,2.862784.058472.318591.116943.637183.175446.955782,2.259186.176103,4.518372.352215,6.777557.528326Z"/>
  <path class="cls-2" d="M149.476919,98.126404c8.413818-5.887739,14.084351.420887,21.501892,1.548706-8.284973,5.695126-13.839661-1.524567-21.501892-1.548706Z"/>
  <path class="cls-2" d="M133.590536,111.951769c-6.189697-.489812-12.379364-.979624-18.828766-1.48999,4.236145-5.51597,13.337891-5.29705,18.828766,1.48999Z"/>
  <path class="cls-2" d="M47.194784,112.870754c8.221497,6.121583,8.470856,7.750643,2.174957,12.738867-8.298798-5.009267-8.651276-6.841484-2.174957-12.738867ZM48.155508,122.819875c3.768372-2.827192,3.365265-5.007649-.328064-6.899392-3.68219,2.470423-3.235565,4.654451.328064,6.899392Z"/>
  <path class="cls-3" d="M130.925802,35.331834c.009003,1.62639.55722,4.387701-.065887,4.683786-2.776886,1.319433-5.88385,1.953793-8.907227,2.688961-.07486.018212-1.01004-1.831386-.756714-2.520442.391296-1.064433,1.379028-1.973332,2.273193-2.769101.721741-.642325,1.678864-1.020159,2.533112-1.517403.27713-.217333.552704-.432614.830109-.648238.822906-.004303,1.644073-.00827,2.46521-.012238.542725.031555,1.08548.063111,1.628204.094674Z"/>
  <path class="cls-2" d="M114.94335,40.648721c.374725,2.950194.712646,5.610828,1.056702,8.319641-2.769806,1.194203-5.292084,2.28167-7.848389,3.3838-.729614-4.340467,1.198303-7.761545,6.791687-11.703441Z"/>
  <path class="cls-2" d="M155.777273,40.373595c-.51532,4.22086-.86908,7.118381-1.338806,10.965641-3.750122-2.697537-6.481995-4.662637-10.132996-7.288907,3.838074-1.230115,6.849609-2.195312,11.471802-3.676734Z"/>
  <path class="cls-2" d="M65.835043,15.535237c3.427551,1.340964,5.588867,2.186538,8.639465,3.380031-.660828,1.69718-1.221619,4.861442-2.052216,4.93393-2.131866.186064-4.924683-.432553-6.398163-1.836707-.992523-.945856-.189087-3.77631-.189087-6.477253Z"/>
  <path class="cls-2" d="M120.176748,62.597719c-3.206635-1.443366-6.413239-2.886725-10.765259-4.84566,3.07312-1.618295,5.122467-2.697484,7.658325-4.032862,1.651886,2.760396,3.071472,5.132612,4.491058,7.504821-.461395.457898-.92276.915804-1.384125,1.373702Z"/>
  <path class="cls-2" d="M149.637991,37.133595c-3.472778,1.240476-6.945557,2.480951-10.915558,3.899041-.284424-1.844188-.542877-3.520032-.936249-6.070793,4.130157.212946,7.936646.409207,11.743103.60546.036255.5221.072449,1.044192.108704,1.566292Z"/>
  <path class="cls-2" d="M143.381582,86.921053c3.513916,1.570794,6.736633,3.011413,10.722778,4.793307-9.27356,4.003718-10.510132,3.411587-10.722778-4.793307Z"/>
  <path class="cls-2" d="M32.89797,120.351466c-2.29953-.75016-4.59903-1.500336-6.898529-2.250496.720764-1.691118,1.441528-3.382236,2.162323-5.073339,1.993896,1.717135,3.987793,3.434239,5.981689,5.151358-.415161.724159-.830322,1.448318-1.245483,2.172477Z"/>
  <path class="cls-2" d="M114.957144,104.972405c-1.746185,2.584956-5.068665,3.886346-6.380707,1.400435-1.453339-2.753675-.667755-6.754218-.571198-10.2038.018524-.662169,1.361603-1.28726,2.523071-2.306229.912537,1.387824,1.665314,2.532649,2.417725,3.674796-2.256805-.293887-4.088348-.026596-3.686798,2.958633.446289,3.318103,2.19281,5.028462,5.697906,4.476165Z"/>
  <path class="cls-3" d="M114.957144,104.972405c-3.505096.552297-5.251617-1.158062-5.697906-4.476165-.40155-2.985229,1.429993-3.25252,3.686798-2.958648,1.193542,2.338586,5.422729,3.853097,2.011108,7.434813Z"/>
  <path class="cls-2" d="M146.508413,100.999175c-2.795837.249087-5.591736.498159-8.605316.76664.458588,1.538361.807098,2.707409,1.156586,3.877191-2.948242-.689262-5.8974-1.379256-8.846558-2.069265.05777-.507512.115509-1.015025.173279-1.522537,5.406525-.047226,10.22876-5.54597,16.122009-1.052028Z"/>
  <path class="cls-2" d="M43.313497,34.456223c-3.209717-3.166879,1.53537-4.768004,1.441711-7.321912,1.778381-.060517,3.556152-.120794,5.333923-.181066,0,0,.220245.071072.217621.070637.456543.944063.91571,1.888565,1.374878,2.833059-.046722.293616-.188721.530019-.424591.705596-.556702.594832-1.114807,1.193265-1.672913,1.791697-.075775.259425-.240082.436894-.488953.527364-.24173.214075-.487396.433194-.733063.652312l-.350159-.18751s.340759.206415.339752.206309c-.323456.336475-.645905.673064-.968353,1.009661.000031.000008-.022949.048813-.023926.048386-1.349304-.051796-2.697601-.103166-4.045929-.154535Z"/>
  <path class="cls-2" d="M58.819052,40.732028c-3.198669-1.591248-5.279938-2.626613-7.635651-3.798508,1.815979-2.107092,3.275116-3.80014,5.475983-6.353782.756897,3.558054,1.327484,6.240324,2.159668,10.15229Z"/>
  <path class="cls-2" d="M38.996023,135.9411c7.242004-4.584504,8.923187-4.575791,12.641052,0h-12.641052Z"/>
  <path class="cls-2" d="M86.916525,14.582469c-.597778,3.098412-.896179,4.644956-1.21991,6.323016-1.1203.088242-2.096527.231066-3.07196.225706-1.292694-.007103-2.584717-.130018-3.877045-.203154-.238312-.479898-.476624-.959795-.714966-1.439689,2.554657-1.410743,5.109344-2.821485,8.883881-4.90588Z"/>
  <path class="cls-4" d="M29.050619,37.274069h10.84787c-7.513916,4.823703-8.422882,4.786631-10.84787,0Z"/>
  <path class="cls-2" d="M42.763876,110.376985c-1.277588,2.392236-2.157715,4.040293-3.388031,6.344027-2.285583-2.565517-4.08374-4.583893-6.702637-7.523559,3.823883.446995,6.465424.755775,10.090668,1.179532Z"/>
  <path class="cls-3" d="M14.637838,73.412509c-2.259186-.176111-4.518372-.352222-6.777557-.528326-.058502-.318599-.116974-.637191-.175446-.955782,2.810425-.875139,5.62085-1.750277,9.193542-2.862784-.988403,2.040052-1.526184,3.149972-2.065704,4.260823-.00177.000916-.174835.086068-.174835.086068Z"/>
  <path class="cls-4" d="M43.313497,34.456223c1.348328.051369,2.696625.102738,4.045929.154535-1.464325,2.987045-2.757538,1.479377-4.045929-.154535Z"/>
  <path class="cls-4" d="M63.010122,102.277843c.542053-.07573,1.084106-.15146,1.62619-.226778.069946.872323.139893,1.744234.209808,2.61613-.224945.071076-.449921.142152-.674866.213228-.387054-.867517-.774078-1.735049-1.161133-2.602581Z"/>
  <path class="cls-4" d="M50.089132,26.953248c-1.777771.060269-3.555542.120546-5.333923.181063,1.777557-.060189,3.555756-.120626,5.333923-.181063Z"/>
  <path class="cls-4" d="M51.681631,29.856941c-.459167-.944494-.918335-1.888996-1.374878-2.833063.81369.285865,1.624756.571299,2.435822.85674-.353638.658771-.707275,1.317541-1.060944,1.976323Z"/>
  <path class="cls-4" d="M49.584127,32.354235c.558105-.598433,1.116211-1.196866,1.672913-1.791697-.558563.599634-1.115753,1.195664-1.672913,1.791697Z"/>
  <path class="cls-2" d="M129.297598,35.23716c-.821136.003967-1.642303.007935-2.46521.012245.820526-.003845,1.642883-.008049,2.46521-.012245Z"/>
  <path class="cls-4" d="M48.362112,33.533919c.245667-.219126.491333-.438244.733063-.652312-.246979.220812-.490021.436566-.733063.652312Z"/>
  <path class="cls-4" d="M47.383352,34.562372c.322449-.336597.644897-.673186.968353-1.009661-.322113.336628-.645203.673148-.968353,1.009661Z"/>
  <path class="cls-3" d="M39.203298,127.902598c-1.009644.441197-2.115265,1.37332-3.004608,1.199414-1.113342-.217669-2.049103-1.34384-3.061493-2.077871.987671-.593634,1.936615-1.564682,2.974304-1.671266.97406-.100053,2.041992.713661,3.068604,1.125317.007751.474797.015472.94961.023193,1.424407Z"/>
  <path class="cls-3" d="M48.155508,122.819875c-3.563629-2.244941-4.010254-4.428969-.328064-6.899392,3.693329,1.891743,4.096436,4.0722.328064,6.899392Z"/>
</svg>