<?xml version="1.0" encoding="UTF-8"?>
<svg id="Layer_1" xmlns="http://www.w3.org/2000/svg" viewBox="0 0 332.615668 310.757882">
  <defs>
    <style>
      .cls-1 {
        fill: #3e79bd;
      }

      .cls-2 {
        fill: #c7e8eb;
      }

      .cls-3 {
        fill: #96cb69;
      }

      .cls-4 {
        fill: #faed36;
      }

      .cls-5 {
        fill: #484949;
      }

      .cls-6 {
        fill: #ececed;
      }

      .cls-7 {
        fill: #828081;
      }

      .cls-8 {
        fill: #c3b2b1;
      }

      .cls-9 {
        fill: #e13c45;
      }

      .cls-10 {
        fill: #717271;
      }

      .cls-11 {
        fill: #5f9741;
      }

      .cls-12 {
        fill: #f36b21;
      }

      .cls-13 {
        fill: #686969;
      }

      .cls-14 {
        fill: #ee506e;
      }
    </style>
  </defs>
  <path class="cls-2" d="M264.544269,185.369063c-.228049.955012-.710027,1.849338-1.755149,1.815946-5.484012-.175018-11.005287.780672-16.457456-.579781-1.032792-.257718-2.306505-.458677-3.226965-.086967-2.68645,1.084786-5.438619.681784-8.172224.787174-4.381166.16899-8.729202-.102748-13.141737.812167-3.302372.684696-6.910774-.090218-10.38198-.239159-3.469174-.148874-6.935841-.370355-10.406167-.471207-1.343225-.039013-1.840515.98644-2.081911,2.142885-1.314296-.107761-2.629946-.215657-3.945665-.323553-.073916-.297883-.159011-.592514-.255285-.883894-.356098-.400834-.712195-.801669-1.068361-1.202435-.388076-.292803-.776152-.585538-1.165312-.879086.057249-.974113.115583-1.94748.173916-2.920848,1.030353-.472697,1.967683-1.02078,1.961247-2.357526-.007046-1.471261-.026423-2.942793-.010705-4.413851.048984-4.596014.055759-9.193519.189905-13.78723.085366-2.923523.367818-5.841357.561924-8.761731.010908-.360771.021816-.721508.032859-1.08228.003049-.761064.00603-1.522093.009079-2.283157-.00874-1.469906-.017344-2.939847-.026016-4.409753.032249-2.608403.064566-5.216806.096816-7.825209.032995-2.534576.065989-5.069118.098984-7.603694.093022-2.117249.202642-4.233956.272358-6.351984.036314-1.099788-.20393-2.106141-1.257588-2.718568.000813-1.411691.001626-2.823349.002439-4.23504.445664-.752563.891328-1.505161,1.336924-2.257758.621477.003996,1.243022.007958,1.865922.010735-.138618.702611-.278659,1.406374-.466057,2.347637,3.325001,1.071307,6.567413,1.377588,9.869853,1.08885,3.852982-.336862,7.692549-.845051,11.549392-1.114012,5.866329-.409098,11.743701,1.002628,17.619583-.034204.527236-.093029,1.150271-.057436,1.642954.136411,2.919513,1.148758,5.714906.564846,8.674256-.068984,2.803388-.600439,5.793362-1.661789,8.675882-.413229,3.474391,1.50489,6.824934,1.232406,10.212062-.125574.062873.742945.125745,1.485925.186721,2.229717-1.435231,2.146746-1.173848,4.591747-1.22168,6.977822-.121816,6.082447.287263,12.179524-.607046,18.240873-.252033,1.708964.644174,2.771873,2.70664,3.301329,4.33889-3.312098,8.873443-6.757289,13.389433-10.226287q3.305692-2.539182,2.034553-6.896612c1.471274.021911,2.77019-.258666,4.116803-1.073475,4.689703-2.83764,8.766126-6.465062,13.054474-9.815157,1.230217-.961074,2.452304-1.511561,3.988619-1.391338.257182.544459.51206,1.088138.767073,1.631784-1.504201,2.307371-.599052,5.006703-1.214228,7.458715-.775068,1.036663-.845122,2.05304.087669,3.040495.094038.850672.188211,1.701378.282249,2.552051-1.216531,2.092425-1.243361,4.199853-.079946,6.322352-.044986.784431-.089973,1.568896-.134553,2.351735-1.007859.289619-1.473578,1.035037-1.498374,2.009421-.046477,1.823803-1.142683,2.532341-2.749865,2.769163-.853252-.695093-1.830759-1.283543-2.536586-2.105193-2.143632-2.495055-5.334283-3.903833-6.942955-6.996719-.616938-1.186247-2.880488-1.486297-4.040109-.906889-1.324526.661803-1.626559,1.916053-1.601491,3.270918.040921,2.209262-.120461,4.453101.210569,6.620166.846477,5.539512.624119,11.009363-.495258,16.470882-1.396884-.031868-2.793632-.063735-4.190516-.095603-4.102711-3.260758-8.205422-6.521516-12.308132-9.78224-.233469-.333712-.537127-.421323-.911111-.262899l-.181572-.026855c-.467886-.842544-.849052-.714905-1.168293.104442-1.518564,1.215744-1.711518,2.759309-1.113279,4.498583.023577.377196.047154.754426.070732,1.131622-.125068,1.094912-.25,2.189823-.374932,3.284735-.133875.104205-.396613.244578-.379268.306383.079539.283557.237534.54517.367344.814673l.427642-.028379c-.230894,1.470618-.461924,2.941269-.692819,4.411886-1.099052,4.918924-.563686,9.873677-.289702,14.818948.01626.294157.431301.566167.660705.848471l.076965.173866c.425203.751818.850542,1.503704,1.275746,2.255523ZM262.359173,150.814851c-.767615-1.005743-1.134282-1.655016-1.657724-2.133132-.810298-.740236-1.664363-1.473903-2.610976-2.016329-3.041057-1.74239-5.889161-3.70135-8.586181-5.974348-1.907317-1.60757-4.134147-3.129833-6.831709-3.236408-6.427373-.253823-12.864908-.356132-19.284286.041452-3.450407.213726-6.872359.884606-10.449596,1.368479-1.696071,2.865579-1.355285,6.070255-1.422968,9.13405-.112534,5.09638-.680285,10.253785.882995,15.204001,2.347087,1.029483,4.54221.433989,6.721072.314443,1.090651-.059807,2.396139-.427487,3.243158.023029,3.681234,1.957945,7.656099,1.487618,11.321411.89866,4.235502-.680565,8.37656-.884402,12.495937-.455189,5.353389-4.357363,10.577238-8.609335,16.178865-13.168707Z"/>
  <path class="cls-3" d="M192.487141,186.261898c.388076.292803.776152.585538,1.163347.879627.355894.401173.712534.801194,1.069241,1.201148.096274.29138.181369.586012.253184.885994-.059146,4.965455-.722222,10.018758-.001626,14.866631.711111,4.783732.659756,9.499326.753794,14.257658.054472,2.758293-.303388,5.616895.30271,8.251443,1.052033,4.573223.917751,9.144684.74668,13.71513-.17107,4.570175-.778862,9.124026-1.195258,13.684989-6.175679.393722-12.393634-.224936-18.548174.896628-1.579133.287858-3.348781.260563-4.892074-.147113-2.625949-.693772-5.049323-.183891-7.518633.493017-.414431-.8249-.829539-1.648243-1.244783-2.471653,3.032589-2.60461,5.933538-5.386812,9.136723-7.761339,2.894377-2.145595,4.507453-4.691346,4.419513-8.318294-.026423-1.088985.197019-2.184066.30603-3.276302.194851-.865404.551355-1.729453.55874-2.596415.057114-6.726742.048713-13.454025.054336-20.181173.000407-.544628.017344-1.101583-.084756-1.631378-.261382-1.356321-1.262534-1.621354-2.453591-1.548407-1.838889-.088931-3.67683-.207055-5.516803-.260834-4.577169-.13404-9.131912.261037-13.714569-.873667-3.702169-.916609-7.277779.213015-9.976899,2.894975-.992615,3.025154.567277,5.660582.500745,8.37512-.071477,2.917935-.729404,5.819006-.850474,8.738973-.144919,3.495955.103523,7.006946.001965,10.50622-.086314,2.975439.886247,5.424606,3.058537,7.39376,3.405082,3.086587,6.848443,6.130909,10.275544,9.193112.007995.58608.016057,1.172091.024051,1.758171-4.007792,1.472751-8.249324,1.101854-12.383132,1.423917-3.246884.253044-6.546139-.180707-9.822766-.292125-2.881911-.09794-5.819378.387965-8.572698-.996464-.368293-.185042-1.010163.173596-1.712263.319286.065244.94106.125881,1.816691.186585,2.692322-.883943-.12598-1.767954-.251961-2.848036-.405914-.508943-3.156485-.400949-6.33898-2.201965-9.064897-.444241-.672505-.288686-1.787634-.28855-2.699299.000678-4.604176-.594241-9.324782.223306-13.784013,1.105556-6.030802.504133-12.117143,1.511111-18.110828.698916-4.159993.365244-8.426461,1.365176-12.601287.448781-1.873518-.170867-4.005024-.319309-6.018407-.12107-1.643028-.262263-3.28443-.396003-4.927051.32019-.051205.592751-.195134.816057-.432058l.684959.447637c-.059146-.466195-.118293-.932458-.177507-1.398653.17981-.698311.359756-1.396621.540109-2.094525.513076-.401376,1.025678-.803226,1.538212-1.205009,1.325678,1.26766,2.955556,1.259939,4.656369,1.248492,5.540787-.037455,11.10488-.280611,16.616534.133363,4.560096.34245,9.058064,1.436041,13.582387-.11284.165176-.056623.381911-.05283.549594.000948,5.642684,1.810189,11.277983.939163,16.928052.024451,1.078252-.174544,2.212805.019913,3.320732.001626,1.661992-.027363,3.338957.025738,4.978659-.190122.838821-.110402,1.610502-.731092,2.412534-1.121157.728117.078839,1.456233.157746,2.18435.236586Z"/>
  <path class="cls-11" d="M195.928199,115.252525c-.445596.752597-.89126,1.505194-1.33645,2.25664-5.32595-.038776-10.653457-.021877-15.978323-.132991-3.636451-.075893-7.305963.517197-10.905287-.79178-.805759-.29304-2.03225.570298-3.065041.901234-3.158131-.078264-6.434012-.672437-8.955015,2.041999-.367547-.01165-.760366.057199-1.098306-.048699-1.56538-.490646-3.188212-.879661-4.653253-1.588504-1.938076-.937809-3.67412,1.105647-5.325069.343127-2.320935-1.071951-4.310434-.33947-6.33469.475779-2.297968.925414-4.675611.843425-7.059893.876444-1.165922-1.054645-2.331911-2.109291-3.497833-3.163936.005352-3.826823.010705-7.653646.016057-11.480468.053184-.21122.057182-.423355.01206-.636472.009417-.902588.018835-1.805211.028184-2.707799.160569-7.904726.155488-15.799563,1.034147-23.693655.686992-6.172394.989702-12.41313.371613-18.66863-.223103-2.258774-.665718-4.783969,1.051084-6.849132.346816-.144268.693632-.288502,1.04038-.43277,1.123984-.451294,2.247968-.902622,3.371952-1.353984,7.670462-.683816,15.346141-1.198574,23.057931-.990605.625474.016899,1.268293-.608973,1.903049-.936217,0,0,.146409.138985.149797.141355,2.234147,4.487779,2.068361,5.549164-1.333605,8.551459-.138279.122052-.272019.255076-.42771.350984-3.056098,1.88344-5.047901,4.794162-7.346546,7.434501-1.812737,2.08213-2.641396,4.313913-2.593429,7.050193.055014,3.131289-.14519,6.266507-.209417,9.400506-.098239,4.794196-.237398,9.589171-.216599,14.383164.005217,1.189837.55813,2.37727.863076,3.581026,7.543294.139831,14.721344.313799,21.90014.359315,1.008401.006401,2.020732-.616085,3.259621-1.022337.372222-2.855623.99038-5.572193,1.030759-8.297297.109214-7.378487-.064499-14.760733-.052846-22.14132.008198-5.169022-2.301084-9.146344-6.23076-12.237807-1.535095-1.207684-1.825881-2.653207-1.672426-4.384455.54126-.103798,1.079269-.230524,1.624323-.307839,5.30996-.753342,10.236249-4.527402,15.964908-2.036378.143767.062516.385908.008636.537602-.073421,1.6437-.888805,3.208334-.208985,4.830556.128283,1.248848.259648,2.56328.203939,3.848578.288434,1.555217.551537,2.110773,1.711436,2.216261,3.295504.080894,1.214932.427981,2.412151.656775,3.617262.004607.798282.009214,1.59653.012331,2.39278-2.283808-.652185-4.566058-1.302339-6.615787-1.886217-1.287602-1.729826-2.338212-3.233293-3.491329-4.65345-.630556-.77654-2.347426-.622384-2.952236.246271-.405352.582117-.880285,1.29692-.879201,1.951646.007859,4.770423-.070799,9.555306.278659,14.306154.266667,3.625254,1.231098,7.194156,1.663889,10.814534.19187,1.605234.070935,3.336177-.335027,4.89918-.391125,1.505635-.437534,2.817524.097425,4.274764.880081,2.397454,2.274187,4.862266,2.242277,7.282749-.057995,4.407619,2.467141,5.695599,5.940923,6.492764.525745.120663,1.022358.368188,1.55332.564744.246274.520143.442751,1.029077.718361,1.490801.275881.462199.630827.877189.951084,1.312871.005556.780638.011043,1.56131.016667,2.340796-1.194648,1.544783-1.192209,1.709675.04668,3.175924.09187,1.164336.18374,2.328639.27561,3.492975Z"/>
  <path class="cls-6" d="M124.672155,190.291102c-.223306.236924-.495867.380854-.816057.432058-.587737-.071118-1.176897-.142642-1.765515-.214302.379065-1.607604-.028794-2.752197-1.56748-3.665825-1.965583-1.167147-3.935028-.830522-5.872562-.344617-5.871478,1.472548-11.673308.417835-17.432456-.514149-2.093293-.338725-3.832589-.650695-5.721952.6234-.806369.54368-2.196884.744571-3.141735.473442-5.419987-1.555248-10.849528.29856-16.306033-.231099-4.499391-.436596-9.118701.361144-13.684826.61175-2.628253-.367985-4.750882-1.642892-6.508741-3.594166-3.300475-3.663319-7.482386-6.22045-11.457794-9.027373-.702778-.496132-1.65996-.632137-2.49912-.934219.803726-2.660624-.349052-4.484054-2.362534-6.140323-3.655556-3.006901-7.189907-6.161015-10.774934-9.25363-.702913-2.412388-1.384147-4.82393.285027-7.135772.916802-2.791075,3.261789-4.515753,5.357318-6.153565,2.815922-2.200931,5.080421-4.75481,7.096478-7.61934.774797.694958,1.549526,1.389949,2.324323,2.084907-.906436,1.627382-1.373645,3.196447-.957046,5.209965.513008,2.479612.478523,5.096244.474661,7.653375-.00603,4.031135-.143699,8.063624-.303388,12.092455-.102033,2.573183.176965,5.011343,1.806098,7.170484,1.362941-1.668156,2.582047-3.467813,4.10847-4.951299,1.956708-1.90166,4.160773-3.548989,6.258267-5.305839q3.126288-.116193,3.576356-3.069112c.052168-.344617.060705-.695872.089431-1.044045.246884-.139391.478794-.300287.695732-.482654,1.59126.135361,3.182453.270756,4.773172.405813,2.957724,2.764795,5.883741,5.565724,8.89343,8.27376.929065.835975,2.055962,1.961907,3.144242,2.022594,4.56118.254399,9.152034-.354472,13.712333.361923,3.40935-1.263529,6.909825-.757067,10.409487-.611885,2.93286.121612,5.876966.066377,8.81301-.017644,1.724255-.049308,3.103524-1.398348,3.281301-3.159906.090379-.895273-.089295-1.823532-.192954-2.731606-.356233-3.120588-.452642-6.202501.037737-9.355634.421748-2.711084.356233-5.519091.292412-8.279314-.087602-3.788114-1.426626-5.370726-5.180489-5.918063-2.353252-.343093-4.772426-.237737-7.1624-.324095-1.646681-.059468-3.293971-.102681-4.94099-.153175-.082859-1.68133.79939-2.747185,2.218903-3.464799,1.45061-.733361,2.228659-1.915951,2.129946-3.531683-.128388-2.102619.470325-3.880195,1.665515-5.63603.979675-1.439156.29939-2.627368-1.439702-3.426903-2.460231-1.131148-5.258402-1.265222-7.51992-.449398-3.70935,1.338169-6.349527.49366-8.815991-2.190907-.482588-.525223-1.10874-.918641-1.6687-1.372881,5.381099-.31258,10.582251,1.014548,15.841737,1.774968,4.233673.61219,8.423443,1.237012,11.823309-1.535809,2.533876.332087,4.703659.653438,6.882793.888365,1.322764.142642,1.955149.86178,2.113415,2.112846-.618157,1.551861-2.031911,1.9042-3.404337,2.521809-2.75454,1.239687-2.906776,4.418727-.41294,6.103681.847019.572229,1.780624,1.016445,2.662602,1.512442-.256098.884402-.247832,1.561852-.582588,1.898273-2.291057,2.30263-3.738551,4.606513-.943564,7.578464.417886.444419.316938,1.400346.406504,2.125749.660501,5.348002,1.654472,6.238229,7.037196,6.086409.8729-.024654,1.736924-.358807,2.567887-.541716.559621-2.180646,1.058266-4.123452,1.585569-6.178219-1.429065-1.743101-2.813347-3.43161-4.234079-5.164484.228184-.792593.497358-1.476341.616193-2.185285.448645-2.676879.182588-5.471916,2.15874-7.829442.772019-.921045.462331-2.484658-.373984-3.646454-.536382-.745248-1.026762-1.523617-1.537737-2.287153.368361-1.063078.736721-2.12619,1.105149-3.189403,1.473916.158627,2.947833.317355,4.421546.479301.040108,1.288556.080285,2.573826.120596,3.859131.317412,6.770767.660095,13.540417.946342,20.312505.444783,10.519665-1.111992,20.966756-1.198239,31.469115-.007453.90882-.354336,1.810257-.427304,2.724427-.117141,1.466926-.178184,2.941371-.185298,4.413038-.005759,1.18557.555623,2.110848,1.571003,2.744611.022425.519703.044851,1.039338.067344,1.559041-.310366.745722-.620732,1.491445-.93103,2.237167-.179946.698311-.359892,1.396621-.535366,2.095067-.167751.316983-.33977.633898-.511789.950881ZM110.471272,182.671186c2.362128.08866,4.163077.277089,5.952034.197369,3.364499-.14989,5.75034-3.933432,4.591803-7.12148-.948916-2.611316-1.075745-4.318011-.832995-7.082365.10393-1.183403.477507-2.654189-1.13706-3.120588-2.001965,1.080857-3.8979,2.104109-5.793429,3.12797-2.545935,1.375082-3.447291,2.971613-2.621884,5.860288.488279,1.708592.506978,3.143752-.107724,4.770253-.294716.779995-.050745,1.763319-.050745,3.368552ZM78.221672,179.092464c-3.513144-.673521-6.341939-1.300781-9.20095-1.724441-1.246884-.184771-2.572832-.066783-3.831573.12212-1.326288.198995-2.558131,2.230733-2.523578,3.849106.025068,1.17541,1.109214,2.447677,2.487128,2.517508,2.56057.129638,5.162874.318202,7.688281.003928,2.375136-.295512,4.223443-1.715568,5.380692-4.768221Z"/>
  <path class="cls-7" d="M177.103669,306.869062c-.470935,1.291841-1.19397,2.312688-2.73015,2.331111-1.105827.013208-2.213009-.080329-3.318835-.067122-4.227304.050392-8.387806.237669-12.616263,1.031413-4.053388.760894-8.444853.999376-12.539704-.569147-1.277372-.489359-2.394716-.448517-3.724323-.17048-2.327101.486514-4.733063.802143-7.10786.814199-5.70786.028921-11.416533-.193915-17.125545-.244713-2.579811-.022961-5.160841.150499-7.741939.178946-1.393157.015307-2.535841-.516045-3.037534-1.926619-.500881-1.408203.08042-2.54311,1.109892-3.445563.967141-.847861,2.071952-1.539263,3.034757-2.391324,2.326423-2.058695,5.197359-3.538152,6.753253-6.431365.333943-.620894.950949-1.148453,1.547561-1.55938,2.911044-2.004646,5.645597-4.0798,6.728118-7.742916.278388-.94194,1.369377-1.718548,2.221884-2.40338,3.877575-3.115034,7.803254-6.170328,11.71152-9.247297,1.652846-.162013,3.083537.257718,4.344987,1.408.487195.444386,1.235434.602606,1.86477.891142,2.232995,1.883677,4.4937,3.735792,6.689026,5.662411,1.359553,1.193156,2.685028,2.439481,3.909554,3.76898,1.902575,2.065807,2.705217,2.161444,5.044039.34035,3.025881-2.355968,5.916668-4.922649,9.128457-6.990555,2.459282-1.583289,4.090109-3.563212,5.073917-6.212525,1.535027.075385,3.070123.15077,4.60515.226087,4.052508,3.478006,8.067549,7.001189,12.179406,10.407671,1.317412,1.091356,2.529066,2.049281,2.648645,3.960389.031843.50785.85122,1.160916,1.448442,1.402378,1.783537.720865,2.955421,2.051651,4.247155,3.402824,2.917074,3.051434,6.070259,5.87739,9.131574,8.790788.266667.253722.562737.476829.847222.711654,1.34851,1.113707,2.423781,2.416385,1.772494,4.274459-.77893,2.222876-2.720597,2.138144-4.612874,2.040272-4.591464-.237534-9.181709-.537652-13.776425-.65503-1.82561-.046667-3.659012.362769-5.494039.492814-2.201965.155985-4.408402.284878-6.614839.331748-1.60061.033933-2.152439-1.170669-2.555488-2.45743,2.966735-3.025425,5.948307-6.036898,8.892481-9.084403,1.663008-1.721325,3.336789-3.442921,4.84973-5.291988.453591-.554314.381369-1.538789.608266-2.598108-2.444784.166755-4.434283.387085-6.427034.422915-6.454202.116092-12.909488.174002-19.36457.233064-1.871884.017068-3.587264.356538-5.133741,1.889841.408198.777895.607453,1.522195,1.078997,1.995502,2.602914,2.61328,5.105489,5.370353,7.980151,7.653104,1.78767,1.419582,3.081369,3.127564,4.469716,4.827283ZM127.127034,292.009543c3.485096,5.549977,11.552035,13.220149,15.801426,15.112225,1.629743-3.125126,4.311722-5.315355,7.087535-7.474225,2.319242-1.803822,4.401898-3.920292,6.514771-5.974923.579878-.563864,1.380895-1.280055.70393-2.191584-2.104336-.159575-4.157386-.069357-6.085435-.517265-3.142548-.730009-6.177305-.558107-9.300883.035288-3.946884.749854-7.911858,1.57997-11.985097.826865-.688618-.127267-1.440041.084529-2.736247.18362Z"/>
  <path class="cls-7" d="M159.751904,48.811092s-.146409-.138985-.14668-.138849c-4.061247-4.09216-8.105557-8.201389-12.205897-12.253825-.478726-.473205-1.267548-.632679-1.91267-.937572-3.400272-3.051163-6.806776-6.095451-10.196411-9.158434-.816396-.737662-1.796206-1.413283-2.316735-2.334464-1.034553-1.830711-2.255082-3.282567-4.363144-3.8699-.500407-.139493-.98103-.532402-1.353185-.921147-2.931979-3.062881-6.186112-5.711855-9.773037-7.982922-1.352372-.856328-1.827575-2.233239-1.231504-4.145431.663279-.240954,1.467073-.639012,2.317345-.825341,7.553321-1.654508,15.186588-2.079827,22.874191-1.279954,1.069309.111249,2.096748.624551,3.143293.950305-1.120054,2.680943-2.569716,5.020622-5.142006,6.681125-2.410705,1.55623-4.010909,3.934075-5.337467,6.670017.774594.219246,1.270596.35962,1.766532.499993,1.591057.235028,3.176152.529795,4.774798.688049,1.600813.158458,3.36206.635828,4.794987.173765,3.73557-1.204535,7.509554-.766347,11.276899-.882709.710569.04074,1.421206.081481,2.134011.121612.123239.55157.244173,1.103784.365176,1.655964-.237534.671895-.281978,1.552369-.744919,1.980736-2.406369,2.226635-3.32893,5.696175-6.334554,7.440868-.453726.263407-.840651,1.514745-.600745,1.904098.407046.660686,1.281369,1.194375,2.063618,1.419954.849458.244951,1.818158.096585,2.734486.08629,4.027711-.045278,8.0624.0212,12.079474-.212304,1.784418-.103697,3.552033-.759641,5.289771-1.288081.82622-.251283,1.054946-1.625079.512805-2.354918-.216531-.291482-.415718-.622384-.698577-.834146-3.116871-2.333414-5.293023-5.530335-7.787874-8.437941.399932-.461149.800813-.919487,1.201762-1.377826,2.479066-1.782588,5.227372-2.3983,8.27988-2.27381,4.552304.185719,9.130693-.320945,13.63503.886265,1.200542.321758,2.556098.191748,3.82412.081312.601694-.05239,1.164838-.546694,2.075746-1.008046-1.743361-2.393288-3.593022-4.066795-5.668836-5.594409-2.93706-2.161241-5.76931-4.473996-7.67202-7.688087.106504-.204854.159959-.422678.160434-.653506,1.309553-.020895,2.619038-.04179,3.929066-.063701,1.198916,1.877175,1.221342,1.880054,2.734757.280882,2.548036-.341095,5.093429-.703966,7.645259-1.01404,1.272764-.154631,2.555692-.241767,3.836722-.307771,2.189973-.11284,4.381911-.18853,6.573307-.272483.915312-.035085,1.899729-.27394,2.729337-.018897.987534.303572,2.109757.842782,2.689431,1.634257.779472,1.064162-.167209,2.061303-.929607,2.86138-.760163.797808-1.57832,1.54353-2.402575,2.276621-3.70332,3.293438-7.430218,6.560461-11.114636,9.874862-.530285.477066-1.03103,1.101414-1.277778,1.758069-.847087,2.254405-2.729946,3.295504-4.619445,4.510571-4.68679,3.013979-8.436045,7.024557-11.515382,11.650474-.434688.315527-.91416.59546-1.318225.959042-3.636654,3.272306-6.55427,7.321288-10.985029,9.757416-1.185095.65161-1.894919,2.167065-2.8229,3.28592-1.656775-.6531-3.313619-1.3062-4.970394-1.959333Z"/>
  <path class="cls-8" d="M195.579215,254.004518c.416396-4.560963,1.024187-9.114815,1.195258-13.684989.17107-4.570446.305352-9.141907-.74668-13.71513-.606098-2.634547-.248239-5.49315-.30271-8.251443-.094038-4.758332-.042683-9.473926-.753794-14.257658-.720596-4.847873-.05752-9.901176.001626-14.866631,1.317819.105796,2.633469.213692,3.947765.321453,1.587331,2.779696,4.212738,4.520392,6.564974,6.531743,3.905014,3.339021,7.797088,6.69396,11.746479,9.979948,2.151288,1.789937,2.57019,4.061851,1.696952,6.473968-.844851,2.333617-.870529,4.670824-.869648,7.066753.003117,8.472924-.022764,16.945916-.050678,25.418841-.00542,1.657522.011789,3.321479-.123645,4.970806-.231233,2.814781-1.387737,3.865768-4.242684,3.985314-.733198.030682-1.476559-.13526-2.206572-.084664-2.738618.189987-5.473511.433481-8.210029.654353-2.38225.192222-4.764703.380989-7.147427.571314-.166667-.371371-.332927-.742675-.499187-1.113978Z"/>
  <path class="cls-4" d="M265.572047,117.080155c-3.387128,1.35798-6.737671,1.630464-10.212062.125574-2.882521-1.24856-5.872494-.18721-8.675882.413229-2.95935.63383-5.754744,1.217742-8.674256.068984-.492683-.193847-1.115718-.22944-1.642954-.136411-5.875882,1.036832-11.753254-.374893-17.619583.034204-3.856844.268961-7.696411.77715-11.549392,1.114012-3.30244.288739-6.544852-.017542-9.869853-1.08885.187398-.941263.327439-1.645026.466057-2.347637,3.217955-2.707291,6.493904-5.352032,9.639636-8.143445,2.750001-2.440226,5.418023-4.981744,8.000408-7.598715,1.91416-1.939827,3.964974-3.017907,6.822698-2.926131,4.398985.141254,8.899053.413094,13.194447-.31915,5.524256-.941771,10.990246-.922197,16.495396-.630207,3.474933.184297,6.931302.714634,10.788349,1.132232.178862,1.126779.571003,2.33829.522493,3.53192-.136721,3.367536.172087,6.637302,1.63645,9.705635,1.093903,2.292165.666396,4.690432.678049,7.064755Z"/>
  <path class="cls-9" d="M58.363538,187.461759c4.566126-.250606,9.185435-1.048346,13.684826-.61175,5.456505.529659,10.886045-1.324148,16.306033.231099.944851.271129,2.335366.070237,3.141735-.473442,1.889364-1.274095,3.628659-.962124,5.721952-.6234,5.759147.931984,11.560978,1.986697,17.432456.514149,1.937534-.485905,3.906979-.82253,5.872562.344617,1.538686.913629,1.946545,2.058221,1.56748,3.665825-5.50454,4.577693-11.46633,8.661692-15.876155,14.427325-1.362263,1.780997-2.894445,2.493327-5.201085,2.289253-5.69282-.503583-11.397021-.510695-17.059217.550859-1.260434.236315-2.611518.495726-3.843564.287452-4.713348-.796792-9.120056.366698-13.537943,1.926348-1.039567-.455697-2.003998-1.079774-3.05332-1.300849-3.213822-.677043-4.709215-2.776241-4.922901-5.835939-.357791-5.122321-1.049932-10.248435-.232859-15.391549Z"/>
  <path class="cls-8" d="M130.232183,52.385649c-1.716802,2.065197-1.274187,4.590393-1.051084,6.849166.61809,6.255501.315379,12.496236-.371613,18.66863-.878659,7.894092-.873577,15.788929-1.032588,23.695992-.25332-.473205-.667683-.926396-.737941-1.427777-.554268-3.950636-1.042683-7.910483-1.548781-11.846997-1.893293-1.01255-3.625949-1.939217-5.368836-2.871336-2.901627,2.352311-5.672427,4.598486-8.325205,6.749025.242547,1.935966.512263,3.539574.619309,5.153985.06206.937267-.238686,1.867252-1.377304,2.034989-1.133401.166958-1.628998-.56173-1.839296-1.547594-.251423-1.178594-.484214-2.36115-.712737-3.481494h-2.020326c-.202642-1.821364-.570664-3.641781-.580556-5.464195-.055285-10.156218-.024594-20.312911-.019648-30.469434.000407-.738272-.027507-1.483385.057927-2.213597.399323-3.411494,1.880624-4.908493,5.347427-5.18653,2.019851-.16198,4.165651-.49366,6.065584-.0085,2.988889.763231,5.816261.093943,8.725273.058452,3.186044-.038912,5.237467-1.320863,7.008064-3.638428.325949-.426742.783401-.753105,1.181775-1.126508.132046,1.427947.262466,2.856672.392886,4.285432-1.123984.451362-2.247968.90269-3.371139,1.353544-.346545.144099-.693835.288637-1.041193.433176Z"/>
  <path class="cls-2" d="M78.022485,117.401777c.559959.45424,1.186111.847658,1.6687,1.372881,2.466464,2.684567,5.106641,3.529076,8.815991,2.190907,2.261518-.815824,5.059689-.68175,7.51992.449398,1.739092.799535,2.419377,1.987747,1.439702,3.426903-1.19519,1.755834-1.793903,3.53341-1.665515,5.63603.098713,1.615732-.679336,2.798322-2.129946,3.531683-1.419512.717614-2.301762,1.783469-2.219784,3.464697-4.941397.370897-9.878254.964427-14.823716,1.048719-4.703727.08016-8.130083,1.883034-10.456506,5.937671-.638483,1.112691-1.347764,2.228396-2.231233,3.143345-.719919.745553-1.748103,1.193596-2.639635,1.773546-.775949-2.491634-1.411721-4.94412.822493-7.121887.345732-.33693.334553-1.031921.507927-1.554875.809689-2.442326,1.642954-4.838933,3.548239-6.751464.498374-.50023.370732-1.623792.580014-2.720194-1.557927-.249997-2.853998-.295681-4.024459-.702476-.787737-.27377-1.699594-.917692-2.034756-1.638287-1.358334-2.92034.25061-6.182215,3.314228-6.950628.704133-.176677,1.466667-.109488,2.198645-.188429,2.001152-.215691,2.832385-1.491174,2.997223-3.354498,2.887941-.770749,5.821072-1.140224,8.812468-.993044Z"/>
  <path class="cls-8" d="M25.048017,151.371298c-1.671748,2.316819-.990515,4.728361-.287805,7.140377-1.238821.096788-2.477372.193915-4.057995.317863-.618767,9.265381.239431,18.351952-.376965,27.398561-2.470055-2.341338-5.201763-4.471964-7.317413-7.098587-1.398239-1.735955-2.907724-3.130747-4.723375-4.301891-.388347-1.982023-1.480962-3.078425-3.613415-2.986141-1.393225.060349-2.790922.019879-4.186586.024519.236924-1.204467.473916-2.408968.712466-3.610827,2.265244.693163,3.882792-.287926,5.335502-1.932342,3.190719-3.611606,6.795259-6.715261,11.133674-8.918326.781165-.396669,1.39187-1.128743,1.940177-1.587793.159553-2.606574-1.32561-3.995271-2.841464-5.368863-4.06931-3.687432-8.800205-6.633137-12.257861-11.012648-.771003-.976686-1.963889-.859037-3.084486-.653845-.001897-1.170364-.003794-2.340695-.00603-3.511635,2.470122.089575,4.637941-.562407,6.295462-2.518456,2.863822-3.37966,7.146343-4.796499,10.48381-7.526683.237331-.194186.697832-.115719,1.054607-.164045.044783.734547.013482,1.483114.146274,2.201405,1.277304,6.910124,1.822358,13.832576.499594,20.805217-.065786.346785.017615.726825.059146,1.088206.188482,1.637169,1.166599,2.566985,2.934079,2.61162.715786.018084,1.438821-.255043,2.158605-.395687Z"/>
  <path class="cls-3" d="M195.58931,106.242829c-.320325-.435682-.675271-.850672-.951152-1.312871-.27561-.461725-.472087-.970658-.718361-1.490801-.530962-.196556-1.027575-.444081-1.55332-.564744-3.473781-.797164-5.998917-2.085144-5.940923-6.492764.031911-2.420482-1.362195-4.885295-2.242277-7.282749-.534959-1.457241-.48855-2.76913-.097425-4.274764.405962-1.563003.526897-3.293946.335027-4.89918-.432791-3.620378-1.397222-7.189279-1.663889-10.814534-.349458-4.750848-.2708-9.535731-.278659-14.306154-.001084-.654725.473848-1.369528.879201-1.951646.60481-.868655,2.321681-1.022812,2.952236-.246271,1.153117,1.420158,2.203727,2.923625,3.491329,4.65345,2.049729.583878,4.331979,1.234032,6.615787,1.886217.07439,4.016301.203117,8.030605.2021,12.044874-.000745,3.106737-.142886,6.214185-.259146,9.319939-.225678,6.026501-.501762,12.051207-.706707,18.078385-.086721,2.548969-.046341,5.102272-.063821,7.653612Z"/>
  <path class="cls-7" d="M106.465783,94.362238h2.020326c.228523,1.120345.461314,2.302901.712737,3.481494.210298.985864.705894,1.714552,1.839296,1.547594,1.138618-.167737,1.439363-1.097722,1.377304-2.034989-.107046-1.614411-.376762-3.218019-.619309-5.153985,2.652778-2.150539,5.423578-4.396715,8.325205-6.749025,1.742887.932119,3.475543,1.858786,5.368836,2.871336.506098,3.936514.994512,7.896361,1.548781,11.846997.070257.501382.484621.954572.737941,1.427777-.010908.900252-.020325,1.802874-.028049,2.703803.001762-.001659-.338279.31363-.338279.31363l.324526.324501c-.005352,3.826823-.010705,7.653646-.014295,11.480468-1.050407-.018965-1.868496.268419-1.964702,1.501029-1.473916-.158695-2.947833-.317423-4.421749-.47605-1.325746-1.490293-2.577846-3.05499-3.992345-4.45581-3.125949-3.095629-6.381167-6.061552-9.48591-9.177669-1.343361-1.348329-1.90061-3.158822-1.834892-5.064817.050474-1.465436.289431-2.924438.44458-4.386284ZM122.187127,102.436936c1.195461.164316,1.922155-.446147,2.14519-1.381923.203591-.85433.404946-2.278992-.035637-2.618631-1.935976-1.492156-1.486789-3.930215-2.334621-5.9204-2.433063,2.05541-2.556979,2.100282-7.075069,2.603831,1.35454,1.68326,3.358063,1.767349,4.862399,2.652564,1.872561,1.101922,1.027913,3.481935,2.437738,4.664558Z"/>
  <path class="cls-8" d="M60.345855,157.36776c-1.59126-.135395-3.182453-.27079-4.772359-.404052.363279-1.024098.725203-2.050297,1.156166-3.272137-1.336586-1.997805-3.197765-3.448374-5.010773-4.997526-2.781437-2.376829-5.572494-4.78871-8.014026-7.496881-1.201152-1.33231-2.45-1.375421-3.881302-1.508886-.774797-.694958-1.549526-1.389949-2.324662-2.086533-.129539-.576665-.258672-1.151704-.387873-1.726744,2.495461-.215589,4.310976-1.241956,5.949053-3.358088,2.798239-3.614688,6.035299-6.9086,9.261858-10.165091,1.524255-1.538349,3.294784-3.005004,5.76389-2.807838-.140515,4.570039.388618,9.162836-1.035976,13.676083-.473916,1.501401-.453794,3.38623-.006843,4.903616.956165,3.245789.941667,6.524259,1.008876,9.820677.027913,1.366311.33584,2.541078,1.622358,3.25561-1.229811,2.013586-1.164567,3.911589.489363,5.681376.109282.116837.123781.322198.182249.486413Z"/>
  <path class="cls-7" d="M19.250319,125.060536c-.356775.048326-.817277-.03014-1.054607.164045-3.337467,2.730184-7.619988,4.147023-10.48381,7.526683-1.657521,1.956048-3.825339,2.608031-6.295462,2.518456-.307791-.832114-.895867-1.670831-.878184-2.496545.109621-5.127198.263618-10.257511.596477-15.374176.154065-2.368668.663754-4.678376.053862-7.084871-.161789-.638199.478862-1.879444,1.090244-2.202591.626152-.330936,1.914973-.178811,2.487128.286368,3.098239,2.518862,5.99641,5.283928,9.097698,7.798828,2.40332,1.948835,5.003931,3.654582,7.516262,5.469038.720732.520448,1.43977,1.043199,2.157046,1.562326-1.858198-.388744-3.212602.39484-4.286654,1.832439Z"/>
  <path class="cls-1" d="M1.42247,138.781356c1.120596-.205192,2.313483-.322842,3.084486.653845,3.457656,4.379511,8.188552,7.325216,12.257861,11.012648,1.515854,1.373592,3.001017,2.762289,2.841464,5.368863-.548306.459049-1.159011,1.191124-1.940177,1.587793-4.338415,2.203065-7.942955,5.30672-11.133674,8.918326-1.45271,1.644416-3.070258,2.625505-5.335502,1.932342.049797-1.833217-.084756-3.691766.185501-5.489459.989431-6.580205.91355-13.101721-.378117-19.644775-.269648-1.365837.257927-2.888946.418157-4.339583Z"/>
  <path class="cls-1" d="M19.250319,125.060536c1.074052-1.437598,2.428456-2.221183,4.286654-1.832472,4.011451,3.475771,8.040652,6.926177,12.009284,10.444754.658198.583472,1.0521,1.464894,1.566396,2.205401.127575.571822.256707,1.146862.386247,1.723526-2.015719,2.866155-4.280218,5.420034-7.09614,7.620965-2.095529,1.637812-4.440516,3.36249-5.357318,6.153599-.717209.135632-1.440244.408759-2.15603.390675-1.76748-.044635-2.745597-.974451-2.934079-2.61162-.041531-.361381-.124932-.741422-.059146-1.088206,1.322764-6.972641.77771-13.895092-.499594-20.805217-.132791-.718291-.101491-1.466858-.146274-2.201405Z"/>
  <path class="cls-7" d="M20.325251,186.228032c.616396-9.046541-.241802-18.133112.376965-27.398494,1.580624-.123948,2.819174-.221075,4.057995-.317863,3.585231,3.092987,7.119581,6.247102,10.775138,9.254003,2.013483,1.656269,3.166261,3.4797,2.362534,6.140323-2.928591,2.769604-6.524527,4.794095-8.910164,8.193736-.580352.827136-1.812602,1.191124-2.732318,1.787973-1.220393.791983-2.428185,1.603473-3.641396,2.406225-.770596-.028583-1.541328-.056759-2.311992-.084935,0-.000068.023238.019033.023238.019033Z"/>
  <path class="cls-9" d="M282.060668,130.706996q1.260434,4.343478-2.034553,6.896612c-4.51599,3.468998-9.050544,6.914188-13.389433,10.226287-2.062467-.529456-2.958673-1.592365-2.70664-3.301329.894309-6.061349.48523-12.158426.607046-18.240873.047832-2.386075-.21355-4.831076,1.22168-6.977822.560705.199232,1.119648.399276,1.680217.599761,1.276017,3.270139,4.040922,4.532584,7.162603,5.314576,2.486315,1.827596,4.972765,3.655192,7.45908,5.482787Z"/>
  <path class="cls-12" d="M195.579215,254.004518c.16626.371303.33252.742607.499119,1.11391-1.317683,1.452093-2.635705,2.904186-3.951356,4.354518-.2979.250471-.598239.502499-.898645.754528-.479201.446147-.958401.892361-1.435163,1.337153-.288144.2269-.578794.455155-.869512.683274-1.210705,1.197762-2.42141,2.395523-3.630624,3.592201-.469919.500332-.941328,1.001747-1.412737,1.50323,0,0-.280352.256499-.279675.255483-.26355.236789-.527778.474661-.792006.712534-.50061.495929-1.001152.991994-1.500271,1.486162-1.032317.250471-2.065922.50277-3.127643.76191-1.851017-1.193698-2.277507-3.988498-4.878659-4.099442-4.130624-1.935763-7.15698-5.102205-9.743159-8.758073.353591-.817789.707182-1.635577,1.060705-2.453366,2.470055-.678397,4.893429-1.188279,7.519378-.494507,1.543293.407675,3.312941.434971,4.892074.147113,6.15454-1.121564,12.372496-.502905,18.548174-.896628Z"/>
  <path class="cls-9" d="M263.097791,161.767692c.124797-1.094912.249729-2.189823.374526-3.284938.471951-.204955.943767-.409707,1.415718-.614459-.495393-.172342-.990786-.344651-1.486179-.516994-.598239-1.73924-.405285-3.282804,1.113279-4.498447.389431-.03478.778862-.069662,1.168293-.104577,0,.000034.181572.026889.180759.027431.303523.087848.607724.175086.911924.262324,4.102711,3.260758,8.205422,6.521516,12.307861,9.782443.540651.656486.997832,1.413622,1.640515,1.947683,1.257724,1.045366,1.674391,2.250138,1.114092,3.786997-.234553.417395-.46897.834823-.703523,1.252218-.360705.324366-.721409.648765-1.080895.971945-.327778.312445-.65664.626143-.985502.939841,0,0-.157995.153784-.157046.152768-1.237941.529151-2.723036.749922-3.052169,2.424749-.366802.37022-.73374.740372-1.101491,1.110591-.407317.324433-.81355.648867-1.219783.9733-.728997.712602-1.457859,1.425136-2.187534,2.138212-.33103.400699-.661518.800856-.99187,1.201013,0,0-.068428.085409-.069106.085342-.688889.040842-.984011.364937-.76477,1.059725,0,0-.207724.327684-.208672.327075-1.305691.035898-1.970732.695669-1.962331,2.011554,0,0-.393632.312106-.394309.311226-1.230759-.134311-2.460841-.267742-3.691058-.401173,0,0-.076965-.173866-.076287-.173731.160027-3.336177.319377-6.672489.478726-10.008801.565583-.378212,1.602033-.734818,1.620732-1.138158.121003-2.635191.090921-5.285113-.084011-7.917324-.024932-.37425-1.103388-.678533-1.694309-1.015158,0,0-.427642.028379-.426965.029971.004065-.373166.007724-.74789.011382-1.122648Z"/>
  <path class="cls-12" d="M126.810367,258.334856c-.060705-.875631-.121341-1.751262-.186585-2.692322.7021-.14569,1.34397-.504328,1.712263-.319286,2.75332,1.384429,5.690787.898524,8.572698.996464,3.276627.111418,6.575882.54517,9.822766.292125,4.133808-.322063,8.37534.048834,12.382523-1.425068.591057.618252,1.182724,1.237655,1.771681,1.857465-2.458063,1.922962-4.95576,3.794176-7.358402,5.780331-3.232318,2.672138-7.174934,4.615081-9.083674,8.675577-1.371138.169125-2.742277.33825-4.113415.507443-1.21538-1.302339-2.430827-2.604746-3.644106-3.904037.083062-1.259194-.502033-1.895192-1.774187-1.885032-.965922-.815689-1.858198-1.745912-2.913009-2.42309-2.190719-1.406442-3.834418-3.284362-5.188551-5.460571Z"/>
  <path class="cls-12" d="M303.143328,133.110072c-.094038-.850672-.188211-1.701378-.281301-2.54924.564634-1.029957.571138-2.046402-.088618-3.043306.615176-2.452011-.289973-5.151344,1.212195-7.458512.864363-.115719,1.730624-.231675,2.597019-.347631.235095.192289.502033.316035.800813.371236,3.638619,4.0671,7.41572,7.983667,11.996615,11.026093l.216531.296359c.407995.615238.815989,1.23051,1.223984,1.845782.083198.569452.166531,1.138869.249729,1.708422-.356504.48858-.713008.976991-1.069512,1.465436-1.871003,1.801451-3.742006,3.602903-5.612874,5.404388-.373984.271027-.747832.542054-1.12168.813115-.371951.159236-.743903.318439-1.115854.477642-.31477.248337-.629675.496708-.944445.745113-.378862.483907-.757859.967814-1.136721,1.451754l-1.601626,1.384362c-.60122.264593-1.202304.529219-1.802304.793202-3.066396-.695364-3.055827-.696482-3.36599-3.622816-.074255-.700444-.244715-1.390762-.370867-2.08572.044986-.784431.089973-1.568896.134959-2.350617.689838-2.098149.899187-4.205103.079946-6.325061Z"/>
  <path class="cls-4" d="M177.103669,306.869062c-1.388347-1.699719-2.682047-3.407701-4.469716-4.827283-2.874662-2.282751-5.377237-5.039824-7.980151-7.653104-.471545-.473307-.6708-1.217607-1.078997-1.995502,1.546477-1.533303,3.261857-1.872773,5.133741-1.889841,6.455083-.059062,12.910368-.116972,19.36457-.233064,1.992751-.03583,3.98225-.25616,6.427034-.422915-.226897,1.059319-.154675,2.043794-.608266,2.598108-1.512941,1.849067-3.186721,3.570663-4.84973,5.291988-2.944174,3.047506-5.925746,6.058978-8.892481,9.084403-1.015922.015036-2.030962.031089-3.046003.047209Z"/>
  <path class="cls-12" d="M320.808914,164.36431c.05813.574328.116125,1.148623.173984,1.723764-3.611112,3.800645-7.222224,7.60051-10.8332,11.400376-1.765989.768548-3.531843,1.537096-5.215042,2.269678-1.907046-1.201487-.687399-3.170438-1.461518-4.549381-.011518-4.872189-.0229-9.743463-.034146-14.614704.11084-1.617662.280217-3.234038.31477-4.853326.030217-1.426491.724661-2.374188,1.854065-3.102503,4.698104,4.386589,9.72507,8.34735,15.201087,11.726096Z"/>
  <path class="cls-2" d="M320.808914,164.364343c-5.476017-3.37878-10.502983-7.339541-15.200003-11.725521.352439-1.714247.703794-3.42907,1.055149-5.143927.60122-.264593,1.202304-.529219,1.802846-.791848,1.204336.313325,1.532114-.387864,1.602304-1.386326.378862-.483941.757859-.967848,1.135366-1.450061.314363-.247829.630081-.497352.9458-.746806.371951-.159203.743903-.318405,1.114363-.476355.373577-.270587.748374-.542461,1.123171-.814368,1.870868-1.801519,3.741871-3.602971,5.613416-5.405811.361247.344787.721951.690928,1.082792,1.037103.735501,1.033411,1.471003,2.066857,2.33374,3.27891-.85813,2.729371-1.623849,5.531385-2.633876,8.242502-.623442,1.673947-.602439,2.985565.349323,4.609662,1.858401,3.171115,1.366802,6.629852.439973,10.011646-.08252.300964-.501626.509679-.764363.761199Z"/>
  <path class="cls-2" d="M120.2292,120.636221c.510976.763536,1.001355,1.541905,1.537737,2.287153.836315,1.161796,1.146003,2.725409.373984,3.646454-1.976152,2.357526-1.710095,5.152563-2.15874,7.829442-.118835.708944-.388008,1.392693-.616193,2.185285,1.420732,1.732873,2.805014,3.421383,4.234079,5.164484-.527304,2.054767-1.025949,3.997574-1.585569,6.178219-.830962.182909-1.694987.517061-2.567887.541716-5.382725.15182-6.376695-.738407-7.037196-6.086409-.089566-.725403.011382-1.68133-.406504-2.125749-2.794987-2.971951-1.347493-5.275834.943564-7.578464.334756-.336422.326491-1.013871.582588-1.898273-.881978-.495997-1.815583-.940213-2.662602-1.512442-2.493835-1.684953-2.341599-4.863993.41294-6.103681,1.372426-.617609,2.786179-.969947,3.404337-2.521809,1.84851-.002608,3.696952-.004267,5.545462-.005926Z"/>
  <path class="cls-2" d="M310.149697,177.488449c3.610976-3.799866,7.222088-7.599731,10.8332-11.400376,1.028726.692147,1.287941,1.724915,1.286179,2.880582-.011382,7.744677-.036179,15.489489-.015718,23.23403.004607,1.769008-.729404,2.77868-2.512738,2.961351-1.085773-.906923-2.146884-1.849134-3.273442-2.705191-.652304-.495726-1.316802-.386611-1.796748.34692-1.003659-.357012-1.306098-1.165657-1.37019-2.127578-.03523-1.510071-1.304878-2.013925-2.21477-2.877229-1.649187-1.564866-3.932386-2.700924-4.212602-4.993631,1.226016-1.990016,2.251491-3.654446,3.27683-5.318877Z"/>
  <path class="cls-7" d="M149.181509,6.360925c1.322426-1.033784,2.776152-1.908365,4.493429-1.683159,5.871681.770038,11.602577-.731194,17.40915-.961278,1.455014-.057639,2.905421-.228966,4.354066-.344414q-.542006,2.746101,2.549458,2.639322c.129743,1.796575-1.141396,2.500846-2.432589,3.29967-3.775678,2.336089-7.139365,5.107996-9.100069,9.243674-.76687.389083-1.53374.778166-2.30061,1.167215-.437466-.024756-.874865-.049546-1.312331-.074301-.4271-1.198134-1.086721-2.13066-2.507318-2.19409-3.195123-2.607387-6.395191-5.20878-9.582522-7.825616-1.020664-.838006-1.679336-1.874432-1.570664-3.267023Z"/>
  <path class="cls-2" d="M307.383437,120.082619c-.298781-.055201-.565718-.178946-.8-.371066-.002168-1.474207-.00542-2.94855-.008672-4.422927,3.302169-3.440348,6.546072-6.940028,9.946885-10.280099.871409-.855854,2.20393-1.293398,3.387264-1.765994,1.086857-.434057,2.155285.396635,2.296884,1.653425.061518.54666.083333,1.100736.080759,1.651257-.03794,8.097354-.083198,16.19464-.12561,24.290605-.854201.188192-1.709214.377704-2.564364.567216,0,.000034-.216531-.296325-.214905-.2969.000542-.701595.292818-1.631683-.047696-2.067636-2.85935-3.659967-6.173849-6.848692-10.333064-9.024224-.414228-.216639-1.072493.033087-1.61748.066343Z"/>
  <path class="cls-10" d="M8.284463,174.827622c1.815651,1.171143,3.325136,2.565935,4.723375,4.301891,2.115651,2.626623,4.847359,4.757249,7.317413,7.098587,0-.000068-.023238-.019168-.023171-.019236.110705.789206.221409,1.57848.332114,2.367686-.91355.691402-1.827101,1.382804-2.739296,2.073596-.37561.044567-.649729.23645-.8208.574972-2.105691,1.356795-4.211383,2.713522-6.317684,4.069911-1.250339-.083581-2.513889-.077349-3.746681-.269029-2.489093-.386949-4.857386-1.088376-6.481505-3.23844.133266-.729128.266531-1.458324.399323-2.187385,1.17019-.239227,2.34099-.47859,3.604133-.73685-2.263889-4.92827-2.421139-6.498352-1.277846-12.218402.860027.153886,1.722155.324704,2.58977.459828,1.769648.275734,2.184147-.920876,2.440854-2.277129Z"/>
  <path class="cls-12" d="M134.644515,50.598929c-.13042-1.42876-.26084-2.857485-.392819-4.285432,2.961721-2.112745,5.642955-4.457842,7.639094-7.600443.831843-1.309654,2.373442-2.168725,3.594106-3.232446.646884.30513,1.435705.464603,1.914431.937809,4.10034,4.052436,8.144649,8.161665,12.205897,12.253825-.634485.327109-1.277304.95298-1.902778.936082-7.71179-.207969-15.387469.306789-23.057931.990605Z"/>
  <path class="cls-12" d="M164.722298,50.770425c.927981-1.118855,1.637805-2.63431,2.8229-3.28592,4.43076-2.436128,7.348375-6.48511,10.985029-9.757416.404065-.363582.883537-.643516,1.318225-.959076.838483.294564,1.949933.339808,2.491193.918336,2.917412,3.118556,6.319175,5.552923,9.980557,7.69293.577371.337438.897426,1.114791,1.334079,1.680686-.04248.921519-.082588,1.851031-.122764,2.780509-1.285298-.084495-2.599729-.028786-3.848578-.288434-1.622223-.337268-3.186857-1.017088-4.830556-.128283-.151694.082057-.393835.135937-.537602.073421-5.72866-2.491025-10.654948,1.283035-15.964908,2.036378-.545054.077315-1.083063.204041-1.623645.308584-.667548-.356775-1.335773-.714227-2.00393-1.071714Z"/>
  <path class="cls-3" d="M149.181509,6.360925c-.108672,1.392591.55,2.429017,1.570664,3.267023,3.187331,2.616836,6.3874,5.218229,9.581032,7.826293-.494377.804344-.987331,1.608078-1.480217,2.411779-.710569-.04074-1.421206-.081481-2.130285-.122255-.421613-.321555-.810095-.853111-1.273713-.929681-2.494513-.411875-4.999188-.809932-7.516329-1.026164-4.169242-.358197-8.303931-.292058-12.058132,1.976774-.495935-.140373-.991938-.280747-1.766532-.499993,1.326559-2.735941,2.926762-5.113787,5.337467-6.670017,2.57229-1.660502,4.021952-4.000181,5.142006-6.681125,1.622629-.787987,3.146884-.567487,4.594039.447366Z"/>
  <path class="cls-6" d="M59.674243,151.199971c-1.286518-.714532-1.594445-1.889299-1.622358-3.25561-.067209-3.296418-.05271-6.574888-1.008876-9.820677-.446951-1.517386-.467073-3.402215.006843-4.903616,1.424594-4.513246.895461-9.106043,1.035976-13.676083.115718-.923754.493903-2.177056,1.427236-1.865762,3.11145,1.037712,6.204337.410689,9.308267.365682.127778-.001896.258808.229948.388482.351898-.164634,1.862342-.995867,3.137825-2.99702,3.353516-.731978.078941-1.494512.011751-2.198645.188429-3.063618.768412-4.672562,4.030288-3.314228,6.950628.335163.720594,1.247019,1.364516,2.034756,1.638287,1.170461.406795,2.466532.452479,4.024459.702476-.209282,1.096402-.08164,2.219964-.580014,2.720194-1.905285,1.912531-2.738551,4.309138-3.548239,6.751464-.173374.522954-.162195,1.217946-.507927,1.554875-2.234215,2.177767-1.598442,4.630252-.821274,7.121616-.541667.607381-1.084553,1.215033-1.627439,1.822685Z"/>
  <path class="cls-8" d="M310.149697,177.488449c-1.025339,1.664431-2.050813,3.328862-3.27683,5.318877.280217,2.292707,2.563415,3.428766,4.212602,4.993631.909892.863304,2.17954,1.367158,2.21477,2.877229-2.912196.150567-4.776424-1.919372-6.69702-3.499274-5.96179-4.904361-11.729948-10.043683-17.569516-15.096376-1.999187-1.729792-4.072088-3.235257-6.952711-2.488315.007995-.367849-.073577-.713719-.242412-1.039067.560298-1.536859.143631-2.741631-1.114092-3.786997-.642683-.534062-1.099865-1.291197-1.640515-1.947683,1.397155.031698,2.793903.063566,4.191058.094587.343089,1.895395,1.601626,2.341406,3.304608,2.084061.036314,2.262499,1.436992,3.805318,3.135908,4.832566,3.176559,1.920557,5.508809,4.706721,8.14553,7.190431,1.004065.945801,2.158537,1.732027,3.444987,2.749691.851762-1.79285,1.509485-3.177482,2.167345-4.562182.773848,1.378063-.4458,3.347014,1.461247,4.548501,1.683198-.732583,3.449052-1.501131,5.215042-2.269678Z"/>
  <path class="cls-7" d="M8.284463,174.827622c-.256707,1.356253-.671206,2.552863-2.440854,2.277129-.867615-.135124-1.729743-.305943-2.58977-.459828-1.143293,5.72005-.986044,7.290131,1.277846,12.218402-1.263144.25826-2.433944.497622-3.604133.73685-.307046-5.406793-.629133-10.812705-.897561-16.221394-.024594-.495692.294377-1.008452.454133-1.513051,1.396003-.004369,2.7937.036101,4.186925-.024248,2.132453-.092284,3.225068,1.004118,3.613415,2.986141Z"/>
  <path class="cls-7" d="M.528229,191.787559c1.62412,2.150065,3.992413,2.851491,6.481505,3.23844,1.232792.19168,2.496342.185449,3.746681.269029-1.273848,2.528751-3.484892,4.196027-5.584689,5.937603-.678794.563119-1.615854.854093-2.475746,1.150756-1.343564.463554-2.742683-.445198-2.694784-1.844596.100068-2.919696.342818-5.834449.527033-8.751233Z"/>
  <path class="cls-8" d="M173.299468,266.460319c2.603727.110605,3.030217,2.905405,4.881234,4.099103,1.061721-.25914,2.095326-.51144,3.127643-.76191-.459959,1.412335-1.22561,2.796019-.379133,4.321126-1.53584-.07464-3.070936-.150025-4.60664-.225545-.372629-.386746-.744512-.773289-1.116464-1.159832.503997-1.439698.403659-2.732013-.651355-3.965537-.556707-.650899-.845461-1.530865-1.255285-2.307405Z"/>
  <path class="cls-8" d="M140.33022,272.007586c1.371138-.169193,2.742277-.338318,4.114838-.507443.893157,1.032768,1.784756,2.065604,2.676423,3.09844-.214363.908684-.428794,1.817368-.643225,2.725985-.629336-.288536-1.377575-.446756-1.86477-.891142-1.26145-1.150282-2.692141-1.570013-4.345055-1.408068.020664-1.005811.041192-2.011825.061789-3.017772Z"/>
  <path class="cls-3" d="M193.531518,49.840507c.040176-.929512.080285-1.859023.122764-2.780542,3.760976,2.431624,4.707115,5.651134,2.747562,9.693478-.226084-1.205314-.573171-2.402534-.654065-3.617465-.105488-1.584068-.661043-2.743967-2.216261-3.29547Z"/>
  <path class="cls-8" d="M274.601588,125.224209c-3.121681-.781993-5.886586-2.044438-7.162603-5.314576,1.724391.792152,3.4729,1.539839,5.168429,2.392848,1.16477.586012,1.848374,1.593685,1.994174,2.921728Z"/>
  <path class="cls-8" d="M177.987612,6.011397q-3.091464.106779-2.549458-2.639322c2.046071.071795,4.088144.147248,6.131031.224191.000339.232386-.053117.45021-.16084.654895-1.444851-.00315-2.61057.533351-3.420732,1.760237Z"/>
  <path class="cls-8" d="M314.67043,192.805765c.479946-.733531,1.144445-.842646,1.796748-.34692,1.126558.856057,2.18767,1.798268,3.273442,2.705191-.769241,1.154007-1.812737.986304-2.657589.295173-.915176-.748838-1.61748-1.757832-2.412602-2.653444Z"/>
  <path class="cls-8" d="M306.574764,115.28866c.003252,1.474343.006504,2.948686.008672,4.422893-.867209.115787-1.733469.231743-2.597832.347462-.252981-.543849-.507859-1.087529-.765041-1.631988,1.115312-1.048075,1.458266-2.923422,3.354201-3.138367Z"/>
  <path class="cls-8" d="M263.268523,183.11354c1.230217.133431,2.460299.266862,3.691058.401105-.804472.617168-1.609621,1.233456-2.414906,1.852047-.42561-.749448-.850949-1.501334-1.276152-2.253152Z"/>
  <path class="cls-14" d="M275.859447,174.296676c.329133-1.674828,1.814228-1.895598,3.052169-2.424749-.429675,1.549118-1.686044,2.055952-3.052169,2.424749Z"/>
  <path class="cls-8" d="M134.911927,266.218518c1.272155-.01016,1.85725.625838,1.774187,1.885032-1.278117.014562-1.840312-.639587-1.774187-1.885032Z"/>
  <path class="cls-8" d="M20.634195,188.57655c-.110705-.789206-.221409-1.57848-.332114-2.367618.770596.028244,1.541328.05642,2.311925.085003-.161111,1.193562-.746951,2.018531-1.979811,2.282615Z"/>
  <path class="cls-8" d="M188.23382,3.815004c-1.513415,1.599172-1.53584,1.596293-2.734757-.280916.911247.094316,1.823036.187616,2.734757.280916Z"/>
  <path class="cls-8" d="M319.596583,131.405036c.855149-.189512,1.710163-.379025,2.564364-.567216-.001084.001355.048645-.052864.049051-.053372-.068293.356538-.040786.706032.083062,1.047906-.492006.472359-.984147.944717-1.474391,1.417787-.406098-.614561-.814092-1.229832-1.222087-1.845104Z"/>
  <path class="cls-8" d="M267.35389,183.203487c-.008401-1.315885.65664-1.975657,1.962331-2.011554-.16477,1.147776-.824932,1.812559-1.962331,2.011554Z"/>
  <path class="cls-3" d="M195.652589,111.75955c-1.238889-1.466249-1.241328-1.631141-.04668-3.175924.015515,1.05942.031098,2.117655.04668,3.175924Z"/>
  <path class="cls-8" d="M183.880296,267.343333c.471409-.501483.942819-1.002899,1.412737-1.50323.076084,1.016377-.544106,1.376437-1.412737,1.50323Z"/>
  <path class="cls-6" d="M321.084117,137.460391c-.36084-.346141-.721545-.692282-1.082792-1.037069.355962-.487056.712466-.975467,1.069106-1.464048.004607.833604.009214,1.667377.013686,2.501117Z"/>
  <path class="cls-14" d="M281.838581,168.555155c.168835.325348.250407.671218.242412,1.039067-.317344.073082-.632385.144708-.946748.214776.235366-.41902.469783-.836449.704336-1.253843Z"/>
  <path class="cls-8" d="M182.808616,268.311282c.264228-.237805.528455-.475677.792006-.712534-.264499.238211-.528252.475339-.792006.712534Z"/>
  <path class="cls-8" d="M188.923658,262.247901c.290718-.228119.581369-.456374.869512-.683274-.291463.228661-.580488.455968-.869512.683274Z"/>
  <path class="cls-8" d="M191.228333,260.227474c.300407-.252028.600745-.504057.898713-.75446-.30122.25257-.599932.503515-.898713.75446Z"/>
  <path class="cls-7" d="M17.074099,191.225118c.17107-.338521.44519-.530404.8208-.574972-.274526.192086-.547697.383495-.8208.574972Z"/>
  <path class="cls-8" d="M269.524893,180.864858c-.219241-.694788.075881-1.018883.76477-1.059725-.254472.353287-.509621.706506-.76477,1.059725Z"/>
  <path class="cls-8" d="M270.358768,179.719792c.330352-.400157.66084-.800314.99187-1.201013-.330217.399954-.661111.800449-.99187,1.201013Z"/>
  <path class="cls-8" d="M273.538173,176.380499c.406233-.324366.812466-.648799,1.219783-.9733-.405962.324433-.812873.648867-1.219783.9733Z"/>
  <path class="cls-14" d="M279.068662,171.719158c.328862-.313698.657724-.627396.985502-.939841-.329268.314104-.657317.626955-.985502.939841Z"/>
  <path class="cls-6" d="M322.29306,131.832353c-.123848-.341874-.151355-.691368-.083062-1.047906.86897.282609.855827.635016.083062,1.047906Z"/>
  <path class="cls-12" d="M262.359173,150.814851c-5.601627,4.559372-10.825476,8.811344-16.178865,13.168707-4.119377-.429214-8.260435-.225376-12.495937.455189-3.665312.588958-7.640178,1.059285-11.321411-.89866-.847019-.450515-2.152507-.082835-3.243158-.023029-2.178862.119546-4.373985.71504-6.721072-.314443-1.563279-4.950215-.995529-10.107621-.882995-15.204001.067683-3.063795-.273103-6.268471,1.422968-9.13405,3.577236-.483873,6.999188-1.154752,10.449596-1.368479,6.419378-.397583,12.856913-.295275,19.284286-.041452,2.697561.106575,4.924391,1.628838,6.831709,3.236408,2.697019,2.272997,5.545123,4.231958,8.586181,5.974348.946613.542427,1.800678,1.276093,2.610976,2.016329.523442.478116.890109,1.127389,1.657724,2.133132Z"/>
  <path class="cls-7" d="M164.643098,117.485628c1.032792-.330936,2.259282-1.194274,3.065041-.901234,3.599323,1.308977,7.268836.715887,10.905287.79178,5.324866.111113,10.652373.094214,15.978323.132957-.001287,1.412843-.0021,2.8245-.002642,4.237072-5.868565,4.212147-11.237875,8.942337-15.533675,14.809398-.295664.403814-.934621.556447-1.413957.825916-.572968-.302725-1.145867-.605417-1.718903-.908108.214837-1.073746.560772-2.140752.616396-3.222659.103184-2.005729.20122-4.039228-.029268-6.022776-.113753-.979125-.802642-2.144782-2.533402-1.327298.177033,1.144491.556572,2.365992.49939,3.566667-.059892,1.25811-.594174,2.486351-.821545,3.745613-.327236,1.811916.157453,3.287139,1.984282,4.080341-1.669851,1.460187-2.343429,3.497106-3.157995,5.452376-2.027575,1.855569-4.068429,3.697016-6.077847,5.572091-1.206437,1.125797-2.274797,2.449167-4.119445,2.517474-2.685841-.422576-5.04973-1.452466-7.089703-3.330724-.711721-.655335-1.841396-.857107-2.78015-1.266001l.028726.021437c-.823171-1.872773-3.340854-3.241048-1.512399-6.1346.556233-.186058,1.450068-.379025,2.246139-.770715,2.552169-1.25574,3.764703-6.08265,1.971748-8.050552-.577236-.633458-1.489025-1.135009-2.330556-1.319102-1.763618-.385798-3.590922-.706438-5.715923.312276.008672,2.565698-1.004946,4.809808-3.677778,5.940618-4.571207-4.115866-9.142414-8.231733-13.713621-12.347599l-.028997-.292227-.274526.048767c-.29397-.358705-.58794-.717445-.881843-1.076184,1.06626-.842815,2.74641-1.132232,2.692616-2.984854,2.384282-.033019,4.761925.04897,7.059893-.876444,2.024255-.815249,4.013754-1.54773,6.33469-.475779,1.650949.76252,3.386993-1.280936,5.325069-.343127,1.465041.708843,3.087873,1.097858,4.653253,1.588504.33794.105898.730759.037049,1.099052.049512.463144,1.9466.805623,3.931569,1.424865,5.826084.520393,1.591891,2.035569,2.2774,3.530895,1.711335,2.046071-.774542,4.072426-1.625621,6.023646-2.609487.493022-.248608.668903-1.125797,1.139905-1.98751-1.386586-.370423-2.494716-.499485-3.430285-.970828-.709282-.357385-1.198713-1.150858-1.818767-1.783672.851287-.910377,1.467683-1.569573,2.084011-2.228735Z"/>
  <path class="cls-3" d="M162.282325,150.836389c1.845461-.069459,2.913822-1.392828,4.120258-2.518625,2.009418-1.875075,4.050272-3.716522,6.077237-5.570364.373645.818805.744512,1.637474,1.122764,2.452655.672358,1.448943,1.747697,2.245024,3.406776,2.085212l-.150813-.002912c2.675272,1.713604,3.61267,1.630836,5.519242-.487293.217073-1.126813.434079-2.25366.651084-3.380473v-3.194584c-1.24309-.253349-2.264973-.478624-3.293632-.666849-1.228659-.224868-1.707317-1.148081-2.093767-2.171637.479336-.269469,1.118293-.422102,1.413957-.825916,4.2958-5.867061,9.66511-10.597251,15.533675-14.809398,1.053388.611547,1.293632,1.617899,1.257317,2.717688-.069715,2.118028-.179336,4.234735-.271274,6.350155-1.354404,2.51639-1.216802,5.054454-.100068,7.605522-.032249,2.608403-.064566,5.216806-.094783,7.824159-1.006369,1.47458-1.033198,2.945367.023984,4.410803-.003049.761064-.00603,1.522093-.006911,2.281599-.098645.104747-.295122.224699-.282249.314646.037669.262798.158808.513641.247222.769191-.194106,2.920374-.476558,5.838208-.561924,8.761731-.134146,4.593711-.140921,9.191216-.189905,13.78723-.015718,1.471058.003659,2.94259.010705,4.413851.006436,1.336746-.930894,1.884829-1.96267,2.354614-.400881-.101394-.800407-.199943-1.199865-.298424-1.756572-1.275111-3.739703-2.33172-5.223375-3.869832-3.259486-3.379254-6.266261-7.001968-9.376154-10.525287-.020664-.732142-.041396-1.464285-.062195-2.196427,3.44519,1.35351,6.861993,1.046619,10.119243-.484855,1.094783-.514691,1.353591-1.676148.071274-2.573284q-3.833537,1.656845-8.396614,1.670256c-1.466599.005046-2.933198.024959-4.399798.037997-1.3-.694721-2.600068-1.389441-3.900136-2.084162-1.528727-2.663232-3.301762-5.072267-6.086451-6.616103-.744309-.412687-1.23164-1.288827-1.837263-1.957234-.028523-1.204569-.056707-2.404125-.084892-3.603648Z"/>
  <path class="cls-12" d="M286.579232,164.999257c-1.702575.25721-2.961112-.188801-3.304201-2.084196,1.119106-5.460673,1.341464-10.930524.494987-16.470036-.33103-2.167065-.169648-4.410904-.210569-6.620166-.025068-1.354865.276965-2.609114,1.601491-3.270918,1.159621-.579408,3.423171-.279358,4.040109.906889,1.608672,3.092886,4.799323,4.501664,6.942955,6.996719.705827.821649,1.683334,1.4101,2.535908,2.104617.727507,1.440613,1.45542,2.881835,2.178185,4.312423-.764228,1.247951-1.501897,2.452756-2.239702,3.657596-1.287941.895714-2.616803,1.7388-3.851627,2.702617-1.109756.86625-2.116125,1.86495-3.168158,2.80523-.601084.467516-1.202033.935032-1.803117,1.402581-.729268.750227-1.458537,1.500487-2.187805,2.250714-.327642.430602-.655149.861238-.982656,1.291841,0,.000034-.045799.014088-.045799.014088Z"/>
  <path class="cls-8" d="M298.618394,154.532186c.737805-1.20484,1.475475-2.409645,2.239702-3.657596-.722764-1.430588-1.450678-2.87181-2.178185-4.312423,1.607859-.236247,2.704066-.944785,2.750543-2.768588.024797-.974384.490515-1.719801,1.498374-2.009421.125745.696549.296206,1.386868.370461,2.087312.310163,2.926334.299594,2.927452,3.36599,3.622816-.352575,1.715466-.70393,3.430289-1.056369,5.144537-1.130488.727706-1.824933,1.675403-1.855149,3.101894-.034553,1.619288-.20393,3.235663-.31477,4.854138-1.988212-1.586709-.189702-4.222916-1.727236-6.062669h-3.093361Z"/>
  <path class="cls-14" d="M263.513374,162.860368c.590922.336625,1.669377.640908,1.694309,1.015158.174932,2.632211.205014,5.282133.084011,7.917324-.018699.40334-1.055149.759946-1.621816,1.13809-.283875-1.886285-.566531-3.772502-.849323-5.658686.230894-1.470618.461924-2.941269.692819-4.411886Z"/>
  <path class="cls-8" d="M262.820556,167.272255c.282791,1.886183.565447,3.772401.849323,5.658686-.158266,3.33638-.317615,6.672692-.477642,10.008869-.230081-.28244-.645122-.554449-.661382-.848606-.273984-4.945271-.80935-9.900024.289702-14.818948Z"/>
  <path class="cls-8" d="M191.458685,183.039036c.399458.098414.798984.196963,1.199932.298357-.056978.97628-.115312,1.949648-.172561,2.92376-.727033-.078094-1.455149-.157001-2.185028-.234689-.812602-.544696-1.623442-1.090611-2.346139-1.577125,1.202846-.484144,2.35332-.947223,3.503795-1.410303Z"/>
  <path class="cls-8" d="M195.475082,138.419568c-1.116735-2.551068-1.254336-5.089132.100068-7.605522-.034079,2.536405-.067073,5.070947-.100068,7.605522Z"/>
  <path class="cls-8" d="M303.143328,133.110072c.819241,2.119958.609892,4.226912-.079946,6.325061-1.163415-2.125207-1.136586-4.232635.079946-6.325061Z"/>
  <path class="cls-8" d="M195.404215,150.654531c-1.057114-1.465436-1.030285-2.936223-.023916-4.410803.00664,1.470956.015244,2.940896.023916,4.410803Z"/>
  <path class="cls-8" d="M302.773409,127.517526c.659756.996904.653252,2.013349.088618,3.043306-.93374-.990267-.863686-2.006644-.088618-3.043306Z"/>
  <path class="cls-14" d="M263.401856,157.351301c.495393.172342.990786.344651,1.486179.516994-.471951.204752-.943767.409504-1.415583.614459-.023442-.376993-.047019-.754223-.070596-1.131453Z"/>
  <path class="cls-8" d="M194.719729,188.342673c-.356707-.399954-.713347-.799975-1.069241-1.201148.357046.39948.713144.800314,1.069241,1.201148Z"/>
  <path class="cls-8" d="M263.097791,161.767692c-.003659.374758-.007317.749482-.011382,1.122648-.130488-.271095-.288482-.532707-.368022-.816265-.017344-.061805.245393-.202178.379404-.306383Z"/>
  <path class="cls-8" d="M266.776112,153.038032c-.304201-.087238-.608401-.174476-.911924-.262324.374797-.158966.678455-.071355.911924.262324Z"/>
  <path class="cls-8" d="M195.362345,154.019967c-.088415-.25555-.209553-.506394-.247222-.769191-.012873-.089947.183604-.2099.282249-.314646-.013211.362329-.024119.723066-.035027,1.083837Z"/>
  <path class="cls-8" d="M265.683429,152.748277c-.389431.034916-.778862.069797-1.168293.104577.319241-.819448.700407-.947088,1.168293-.104577Z"/>
  <path class="cls-4" d="M177.237748,233.419463c-.108943,1.092236-.332385,2.187317-.305962,3.276302.08794,3.626948-1.525136,6.172699-4.419513,8.318294-3.203185,2.374527-6.104134,5.156728-9.135097,7.761203-1.427778.218095-2.857182.436258-4.286586.654488-3.427101-3.062203-6.870462-6.106526-10.275544-9.193112-2.17229-1.969154-3.144852-4.418321-3.058537-7.39376.101558-3.499274-.146883-7.010265-.001965-10.50622.12107-2.919967.778997-5.821038.850474-8.738973.066531-2.714538-1.493361-5.349966-.500745-8.37512,2.69912-2.681959,6.27473-3.811583,9.976899-2.894975,4.582657,1.134704,9.1374.739627,13.714569.873667,1.839973.053779,3.677914.171902,5.511993.259682.906233,6.670118.839431,13.37715.858469,20.089668.005556,1.957234.695393,3.912638,1.071545,5.868856Z"/>
  <path class="cls-7" d="M191.458685,183.039036c-1.150474.463079-2.300949.926159-3.503795,1.410303.722697.486514,1.533537,1.032429,2.346139,1.577125-.800271.388914-1.571952,1.009604-2.410773,1.120006-1.639702.21586-3.316667.162758-4.978659.190122-1.107927.018287-2.24248-.176169-3.320732-.001626-5.650069.914712-11.285368,1.785738-16.928052-.024451-.167683-.053779-.384417-.057572-.549594-.000948-4.524323,1.548881-9.022292.45529-13.582387.11284-5.511654-.413974-11.075747-.170819-16.616534-.133363-1.700813.011447-3.330692.019168-4.659418-1.248018-.203523-.344075-.403997-.688557-.604539-1.033039-.022493-.519703-.044919-1.039338-.065921-1.559989,1.137195-.937741,2.525949-1.690778,3.364025-2.84377,3.262331-4.488287,7.459554-8.072666,11.262333-12.036712.509417.054896,1.076016-.015138,1.517954.187176,1.587331.726554,1.824391.738645,3.059011-.295783.003862,2.358644-.049797,4.719455.038144,7.074881.038686,1.035206.543564,1.705747,1.57019.97628-.224526-2.257216-.382182-4.405655-.677846-6.534926-.117141-.843323-.540989-1.644044-.825068-2.464169.328523-1.268202.657114-2.536438.985637-3.804675,3.951356-2.222876,7.503524-4.9259,10.290043-8.549867,1.610908-1.128303,3.3666-1.198947,5.198714-.711349.605285.663361,1.092615,1.5395,1.836924,1.952188,2.784689,1.543835,4.557724,3.952871,6.085435,6.61485-.469851.975298-1.002507,1.927398-1.389431,2.93541-.380623.991791-.61355,2.040272-.911247,3.063897l-.020935.534807c-1.268293,1.111641-1.488821,2.370497-.43252,3.976543,1.959553.612563,4.046681.659704,6.030015.239837,1.182927-1.838467,2.238144-3.478582,3.293361-5.118731,3.109892,3.523285,6.116668,7.145999,9.376154,10.525253,1.483672,1.538112,3.466803,2.594721,5.223375,3.8699Z"/>
  <path class="cls-8" d="M177.237883,233.419463c-.376287-1.956218-1.066125-3.911623-1.07168-5.868856-.019038-6.712518.047764-13.41955-.858469-20.089668,1.195867-.071795,2.197019.193238,2.458402,1.549558.1021.529795.085163,1.08675.084756,1.631378-.005623,6.727148.002778,13.454432-.054336,20.181173-.007385.866962-.363889,1.731011-.558672,2.596415Z"/>
  <path class="cls-8" d="M159.09059,253.42975c1.429404-.21823,2.858808-.436393,4.286586-.654488.413618.823546.828726,1.646888,1.243157,2.471789-.354268.819279-.707859,1.637067-1.061586,2.450521-.890244-.220804-1.780285-.437274-2.670326-.653743-.591667-.619403-1.183334-1.238807-1.774391-1.857059-.007385-.584928-.015447-1.17094-.023442-1.75702Z"/>
  <path class="cls-8" d="M124.672155,190.291102c.172019-.316983.344038-.633898.511789-.950881.054878.46606.114024.932322.173171,1.398517l-.684959-.447637Z"/>
  <path class="cls-8" d="M126.65034,185.007987c.200542.344482.401016.688964.604539,1.033039-.509485.401308-1.022087.803159-1.535095,1.204535.309824-.746129.62019-1.491851.930556-2.237574Z"/>
  <path class="cls-4" d="M164.722298,50.770459c.668157.357452,1.336382.714905,2.00393,1.07168-.154133,1.730503.136653,3.176026,1.671748,4.38371,3.929676,3.091463,6.238958,7.068785,6.23076,12.237807-.011653,7.380587.16206,14.762833.052846,22.14132-.040379,2.725104-.658537,5.441674-1.030759,8.297297-1.238889.406253-2.25122,1.028738-3.259621,1.022337-7.178795-.045515-14.356846-.219484-21.90014-.359315-.304946-1.203756-.857859-2.391189-.863076-3.581026-.020799-4.793993.11836-9.588968.216599-14.383164.064228-3.133999.264431-6.269216.209417-9.400506-.047967-2.73628.780691-4.968063,2.593429-7.050193,2.298645-2.640338,4.290448-5.55106,7.346546-7.434501.155691-.095908.289431-.228932.42771-.350984,3.401965-3.002295,3.567751-4.063679,1.333605-8.551459,1.653388.650763,3.310231,1.303863,4.967006,1.956997Z"/>
  <path class="cls-10" d="M164.643098,117.485628c-.616328.659162-1.232724,1.318357-2.084011,2.228735.620054.632814,1.109485,1.426287,1.818767,1.783672.935569.471343,2.0437.600405,3.430285.970828-.471003.861712-.646884,1.738902-1.139905,1.98751-1.95122.983866-3.977575,1.834945-6.023646,2.609487-1.495325.566065-3.010502-.119444-3.530895-1.711335-.619241-1.894514-.961721-3.879484-1.424865-5.826084,2.520258-2.715249,5.796139-2.121076,8.95427-2.042812Z"/>
  <path class="cls-8" d="M131.216872,119.585775c.053794,1.852622-1.626355,2.142039-2.686179,2.989528-.880488-.260258-1.767345-.525155-2.654201-.790053-.040312-1.285304-.080488-2.570575-.120596-3.859131.096409-1.235861.914499-1.523245,1.964906-1.50428,1.16416,1.054645,2.330149,2.109291,3.496071,3.163936Z"/>
  <path class="cls-8" d="M127.735096,104.941371l-.324526-.324501s.340041-.31529.338279-.31363c.043428.214776.039431.426911-.013753.638131Z"/>
  <path class="cls-7" d="M130.232183,52.385683c.347358-.144573.694648-.289111,1.041193-.43321-.347561.144708-.694377.288942-1.041193.43321Z"/>
  <path class="cls-9" d="M59.674243,151.199971c.542886-.607652,1.085773-1.215304,1.627439-1.822685.890312-.579679,1.918496-1.027722,2.638415-1.773275.883469-.914949,1.592751-2.030654,2.231233-3.143345,2.326423-4.054637,5.752779-5.857511,10.456506-5.937671,4.945462-.084292,9.882319-.677822,14.823716-1.048685,1.6479.050561,3.29519.093774,4.941871.153242,2.389973.086358,4.809147-.018999,7.1624.324095,3.753863.547337,5.092887,2.129949,5.180489,5.918063.063821,2.760223.129336,5.56823-.292412,8.279314-.490379,3.153133-.39397,6.235046-.037737,9.355634.103659.908075.283333,1.836333.192954,2.731606-.177778,1.761558-1.557046,3.110597-3.281301,3.159906-2.936044.084021-5.88015.139256-8.81301.017644-3.499662-.145182-7.000137-.651644-10.409487.611885-4.560299-.716395-9.151154-.107524-13.712333-.361923-1.088279-.060687-2.215177-1.18662-3.144242-2.022594-3.009689-2.708036-5.935706-5.508965-8.893362-8.273794-.057995-.163842-.072493-.369204-.181775-.48604-1.65393-1.769787-1.719174-3.66779-.489363-5.681376ZM88.882582,147.390555c-2.04038,1.776188-4.055082,3.066978-4.180353,5.878372-.151016,3.387314.707182,6.879645,2.39099,8.966788.975881-1.010146,1.91416-2.084738,2.975136-3.020311.346274-.305299,1.012263-.248168,1.548103-.360128.662737.961548,1.267073,1.838467,2.015922,2.925047,1.252033,0,2.53435.061398,3.808808-.012327,2.919919-.16899,4.265245-1.311279,5.011722-4.178044.138753-.532707.160501-1.094776.277507-1.634324.809756-3.735724-.063144-5.509406-3.780014-6.53662-3.160841-.873565-6.440787-1.316529-10.06782-2.028453Z"/>
  <path class="cls-4" d="M125.876491,121.78525c.886857.264897,1.773713.529795,2.654201.790053.287466.354066.581436.712805.871206,1.064195-.004201-.007315.307724.250775.307724.250775,4.571207,4.115866,9.142414,8.231733,13.714569,12.348107-.181436,1.494798-.363753,2.989053-.546071,4.483343-2.867548.191748-5.766736.106304-8.931099.846066.175678,1.111201.322155,2.037665.422426,2.672037,2.371206-.178608,4.337941-.277225,6.29282-.486785,2.327168-.249455,4.644242-.594174,6.965652-.89761,1.070258,1.890044,2.418564,3.387246,4.814093,3.404518l-.028726-.021437c.782791,1.205212,1.361857,2.637392,2.394784,3.563856,1.662805,1.491309,2.230217,3.281788,2.360773,5.354064-2.786518,3.623967-6.338687,6.326991-10.289907,8.54604-.348239-.202009-.696477-.400191-1.044783-.598373-.25271-.678228-.505352-1.356422-.758062-2.034651.009756-.21823-.114702-.328734-.37351-.331477l-.084959-.069052c-.213686-.952472-.691599-1.793391-1.727778-1.80477-1.774187-.019473-3.550475.153547-5.44912.252096-.248577,4.046814.915244,7.086565,3.770055,9.45127-3.802779,3.964047-8.000002,7.548425-11.262333,12.036712-.838076,1.152991-2.22683,1.906029-3.363957,2.84377-1.01687-.632814-1.578252-1.558093-1.572494-2.743663.007114-1.471667.068157-2.946112.185298-4.413038.072967-.91417.419851-1.815607.427304-2.724427.086247-10.50236,1.643022-20.94945,1.198239-31.469115-.286247-6.772088-.62893-13.541737-.946342-20.312505Z"/>
  <path class="cls-7" d="M39.823561,139.688279c1.431301.133465,2.68015.176576,3.881302,1.508886,2.441532,2.708171,5.232589,5.120052,8.014026,7.496881,1.813008,1.549152,3.674188,2.999721,5.010773,4.997526-.430962,1.22184-.792886,2.248038-1.156166,3.272137-.218293.180267-.450203.341163-.697832.480249-1.953727.71968-3.222358,2.048942-3.665041,4.113462-2.097494,1.75685-4.301559,3.404179-6.258267,5.305839-1.526423,1.483486-2.745529,3.283143-4.10847,4.951299-1.629133-2.159141-1.90813-4.597301-1.806098-7.170484.159688-4.028832.297358-8.061321.303388-12.092455.003862-2.55713.038347-5.173763-.474661-7.653375-.416599-2.013518.05061-3.582583.957046-5.209965Z"/>
  <path class="cls-2" d="M110.471272,182.671186c0-1.605234-.24397-2.588558.050745-3.368552.614702-1.626501.596003-3.061661.107724-4.770253-.825407-2.888676.075949-4.485206,2.621884-5.860288,1.895529-1.023861,3.791464-2.047113,5.793429-3.12797,1.614567.466398,1.240989,1.937185,1.13706,3.120588-.242751,2.764355-.115921,4.47105.832995,7.082365,1.158537,3.188048-1.227304,6.971591-4.591803,7.12148-1.788957.07972-3.589906-.108709-5.952034-.197369Z"/>
  <path class="cls-2" d="M78.221672,179.092464c-1.15725,3.052653-3.005556,4.472709-5.380692,4.768221-2.525407.314274-5.127711.125709-7.688281-.003928-1.377914-.069831-2.46206-1.342097-2.487128-2.517508-.034553-1.618374,1.19729-3.650112,2.523578-3.849106,1.25874-.188903,2.584689-.306891,3.831573-.12212,2.859011.42366,5.687806,1.05092,9.20095,1.724441Z"/>
  <path class="cls-8" d="M51.210623,161.55742c.442683-2.06452,1.711315-3.393782,3.665041-4.113462-.027981.348478-.036518.699733-.088686,1.04435q-.447764,2.953257-3.576356,3.069112Z"/>
  <path class="cls-4" d="M127.127034,292.009543c1.296206-.099091,2.047629-.310887,2.736247-.18362,4.073239.753105,8.038213-.077011,11.985097-.826865,3.123578-.593395,6.158335-.765297,9.300883-.035288,1.928049.447908,3.981098.357689,6.085435.517265.676965.911529-.124052,1.62772-.70393,2.191584-2.112873,2.054631-4.195529,4.171101-6.514771,5.974923-2.775814,2.15887-5.457792,4.349099-7.087535,7.474225-4.249391-1.892076-12.31633-9.562248-15.801426-15.112225Z"/>
  <path class="cls-12" d="M146.478257,277.324567c.214431-.908616.428862-1.817301.640515-2.72314,3.138144.015646,6.283199.134108,9.418362.006638,2.386179-.096924,4.756437-.691063,7.139636-.73414,3.883605-.070237,7.743226-.174273,11.529338-1.140664.371951.386543.743835.773086,1.116464,1.159832-.98313,2.649448-2.613957,4.629372-5.073239,6.212661-3.211789,2.067907-6.102576,4.634587-9.128457,6.990555-2.338822,1.821094-3.141464,1.725457-5.044039-.34035-1.224526-1.329499-2.55-2.575824-3.909554-3.76898-2.195326-1.926619-4.456031-3.778734-6.689026-5.662411Z"/>
  <path class="cls-12" d="M162.842013,19.647586c.437466.024824.874865.049613,1.315515.075114.527913.502465,1.052575,1.004253,1.577304,1.506007,2.493903,2.904829,4.670055,6.10175,7.786926,8.435164.282859.211762.482046.542664.698577.834146.542141.729839.313415,2.103635-.512805,2.354918-1.737737.52844-3.505353,1.184385-5.289771,1.288081-4.017074.233504-8.051763.167026-12.079474.212304-.916328.010295-1.885027.158661-2.734486-.08629-.782249-.225579-1.656572-.759269-2.063618-1.419954-.239905-.389354.147019-1.640691.600745-1.904098,3.005624-1.744693,3.928185-5.214232,6.334554-7.440868.46294-.428367.507385-1.308841.743496-1.982362,1.206708-.625161,2.414838-1.248662,3.623036-1.872163Z"/>
  <path class="cls-3" d="M177.987612,6.011397c.810163-1.226886,1.975881-1.763386,3.420732-1.760237,1.90393,3.21426,4.73618,5.527016,7.67324,7.688256,2.075813,1.527613,3.925475,3.20112,5.668836,5.594409-.910908.461352-1.474052.955656-2.075746,1.008046-1.268022.110436-2.623578.240446-3.82412-.081312-4.504337-1.20721-9.082725-.700546-13.63503-.886265-3.052507-.12449-5.800814.491222-8.28076,2.273031-.160569-.431347-.32019-.861983-.47981-1.292586,1.960705-4.135678,5.324391-6.907585,9.100069-9.243674,1.291193-.798824,2.562331-1.503095,2.432589-3.29967Z"/>
  <path class="cls-10" d="M135.874528,19.764728c3.754201-2.268866,7.88889-2.335005,12.058132-1.976808,2.517141.216232,5.021817.61429,7.516329,1.026164.463618.07657.8521.608126,1.273713.929681-3.768835.116396-7.54282-.321792-11.27839.882743-1.432927.462063-3.194174-.015307-4.794987-.173765-1.598645-.158254-3.18374-.453021-4.774798-.688015Z"/>
  <path class="cls-8" d="M162.842013,19.64762c-1.208198.623467-2.416328,1.246969-3.623036,1.872129-.11958-.550555-.240515-1.102768-.363753-1.654339.490651-.803091.983605-1.606825,1.477981-2.411169,1.422087.062753,2.081708.995279,2.508808,2.193379Z"/>
  <path class="cls-8" d="M166.454954,18.55474c.159621.430602.319241.861238.47981,1.292586-.400068.459117-.800949.917455-1.200881,1.378604-.523781-.498977-1.048442-1.000765-1.576355-1.50323.763686-.389794,1.530556-.778877,2.297426-1.16796Z"/>
  <path class="cls-8" d="M122.187127,102.436936c-1.409824-1.182624-.565176-3.562637-2.437738-4.664558-1.504336-.885215-3.50786-.969304-4.862399-2.652564,4.51809-.503549,4.642006-.548421,7.075069-2.603831.847832,1.990185.398645,4.428244,2.334621,5.9204.440583.339639.239228,1.764301.035637,2.618631-.223035.935777-.949729,1.54624-2.14519,1.381923Z"/>
  <path class="cls-7" d="M175.206108,272.73326c-3.786112.966391-7.645733,1.070427-11.529338,1.140664-2.383198.043077-4.753456.637217-7.139636.73414-3.135163.12747-6.280218.009008-9.418362-.006638-.888957-1.03568-1.780556-2.068516-2.673713-3.101284,1.907317-4.060496,5.849933-6.003438,9.082251-8.675577,2.402643-1.986155,4.90034-3.85737,7.358402-5.780331.892751.216063,1.782792.432533,2.673036.653337,2.586315,3.660204,5.61267,6.826646,9.743295,8.762408.407249.776879.696003,1.656845,1.25271,2.307743,1.055014,1.233524,1.155353,2.525839.651355,3.965537Z"/>
  <path class="cls-8" d="M307.383437,120.082619c.544987-.033256,1.203252-.282982,1.61748-.066343,4.159215,2.175532,7.473714,5.364257,10.333064,9.024224.340515.435953.048238,1.36604.047696,2.067636-4.582521-3.04185-8.359622-6.958417-11.998241-11.025517Z"/>
  <path class="cls-8" d="M310.06921,145.316722c-.07019.998462-.397968,1.699651-1.602304,1.38636.534553-.463452,1.068428-.924906,1.602304-1.38636Z"/>
  <path class="cls-8" d="M312.150375,143.119821c-.315718.249489-.631436.499011-.9458.74684.316125-.250098.63103-.498469.9458-.74684Z"/>
  <path class="cls-8" d="M314.38791,141.829132c-.374797.271908-.749594.543781-1.123171.814368.375339-.272348.749187-.543375,1.123171-.814368Z"/>
  <path class="cls-2" d="M298.618394,154.532186h3.093361c1.537534,1.839754-.260976,4.47596,1.727236,6.062669.011247,4.870428.022629,9.741702.034146,14.613891-.657588,1.385581-1.315312,2.770213-2.167074,4.563063-1.28645-1.017664-2.440922-1.80389-3.444987-2.749691-2.636721-2.48371-4.968971-5.269874-8.14553-7.190431-1.698916-1.027248-3.099594-2.570067-3.135908-4.832566-.000407.000135.045393-.013919.045528-.01358.327507-.430534.655014-.861374.982521-1.292213.729268-.750227,1.458537-1.500487,2.187534-2.24963,1.048374.106914,2.004336.093876,1.803388-1.403699,1.052033-.940247,2.058401-1.938946,3.168158-2.805197,1.234824-.963817,2.563686-1.806904,3.851627-2.702617Z"/>
  <path class="cls-8" d="M142.878121,140.721724c.182317-1.49429.364634-2.988545.546071-4.483343,2.671884-1.131317,3.685502-3.375427,3.67683-5.941125,2.125-1.018714,3.952304-.698073,5.715923-.312276.841531.184094,1.75332.685645,2.330556,1.319102,1.792954,1.967901.58042,6.794812-1.971748,8.050552-.796071.391691-1.689905.584657-2.246139.770715-1.828456,2.893552.689228,4.261828,1.512399,6.1346-2.395529-.017272-3.743835-1.514474-4.811993-3.401538.10752-1.00002-.158401-1.830373-1.341396-1.598562-1.244919.244036-2.378456.320674-3.410502-.538126ZM148.133745,134.345628c.428997.837769.693632,1.494764,1.077168,2.072953.725949,1.094708,1.86687.996125,2.906979.727875,1.271274-.327955,1.516193-1.444236,1.467141-2.570372-.080623-1.851742-1.737602-2.856063-3.46206-2.010606-.747358.366393-1.295054,1.139987-1.989228,1.78015Z"/>
  <path class="cls-8" d="M177.641474,137.381483c.38645,1.02359.865109,1.946803,2.093767,2.171671,1.028659.188225,2.050542.4135,3.293632.666849,0,1.186484,0,2.190534.002236,3.183612-1.177914-1.392557-2.790448-1.422122-4.40664-1.394657-1.765312.030005-2.50786.964088-2.178456,2.725883.160027.855346.373916,1.700599.563347,2.550425-1.659079.159812-2.734418-.636269-3.406776-2.085212-.378252-.815181-.749119-1.63385-1.122764-2.452655.815176-1.956997,1.488754-3.993916,3.158944-5.453663.114837-.266252.20935-.539819.283875-.820329.572968.302692,1.145867.605383,1.718835.908075Z"/>
  <path class="cls-8" d="M157.168841,155.156432c-.130556-2.072275-.697968-3.862754-2.360773-5.354064-1.032927-.926464-1.611992-2.358644-2.394784-3.563856.938754.408894,2.068429.610666,2.78015,1.266001,2.039973,1.878259,4.403863,2.908148,7.089703,3.330724.027371,1.200674.055556,2.400231.084079,3.604799-1.831775-.482552-3.587467-.411908-5.198375.716395Z"/>
  <path class="cls-13" d="M175.922571,136.473409c-.074458.280509-.16897.554077-.283808.820329-1.827168-.793642-2.311857-2.268866-1.984621-4.080782.227371-1.259262.761653-2.487503.821545-3.745613.057182-1.200674-.322358-2.422176-.49939-3.566667,1.730759-.817484,2.419648.348173,2.533402,1.327298.230488,1.983547.132453,4.017046.029268,6.022776-.055623,1.081907-.401558,2.148913-.616396,3.222659Z"/>
  <path class="cls-8" d="M129.709622,123.890274s-.311924-.25809-.307724-.250775.278726-.041452.278726-.041452l.028997.292227Z"/>
  <path class="cls-8" d="M176.859225,168.643883c-1.055285,1.640149-2.110502,3.280264-3.293429,5.118731-1.983334.419867-4.070461.372726-6.030015-.239837-1.056301-1.606046-.835773-2.864902.432453-3.976441.954472,2.916547,2.022358,3.698133,3.958673,2.715723.553117-.280577,1.158876-1.038898,1.18855-1.607029.030217-.57636-.483604-1.389848-1.0021-1.745573-1.331572-.913493-2.76328-.616796-4.12412.10197.297697-1.023624.530623-2.072106.911247-3.063897.386924-1.008012.91958-1.960112,1.389431-2.935444,1.301084.696008,2.601152,1.390728,3.905218,2.085449.869987.44994,1.735908.899913,2.60183,1.349886.020799.732142.041531,1.464285.062263,2.196461Z"/>
  <path class="cls-5" d="M177.00936,147.285267c-.189431-.849826-.40332-1.695079-.563347-2.550425-.329404-1.761795.413144-2.695878,2.178456-2.725883,1.616193-.027465,3.228727.0021,4.40664,1.394657-.219241,1.137786-.436247,2.264632-.65393,3.393376-1.839973.163063-3.679337.32423-5.518632.485363l.150813.002912Z"/>
  <path class="cls-11" d="M176.796962,166.447422c-.865922-.449973-1.731843-.899947-2.60183-1.349886,1.462534-.013038,2.929133-.032951,4.395733-.037997q4.563077-.01568,8.396614-1.670256c1.282317.897136,1.02351,2.058594-.071274,2.573284-3.25725,1.531474-6.674053,1.838365-10.119243.484855Z"/>
  <path class="cls-8" d="M176.858547,147.282355c1.839296-.161133,3.678659-.3223,5.518632-.485363-1.905962,2.116199-2.843361,2.198967-5.518632.485363Z"/>
  <path class="cls-8" d="M291.59861,160.040034c.200949,1.497541-.755014,1.510579-1.803388,1.403665.601355-.468633,1.202304-.936149,1.803388-1.403665Z"/>
  <path class="cls-8" d="M287.607688,163.693295c-.327507.430873-.655014.861712-.982521,1.292213.327371-.430941.654878-.861577.982521-1.292213Z"/>
  <path class="cls-8" d="M141.210776,168.567516c-2.854811-2.364706-4.018632-5.404456-3.770055-9.45127,1.898645-.098549,3.674933-.271569,5.44912-.252096,1.036179.011379,1.514092.852298,1.728049,1.804906-.72561.023706-1.459824-.014122-2.175678.083208-1.696342.230727-2.463076,1.042962-2.303794,2.337613.184485,1.498015,1.698916,2.582056,3.20515,1.996281.944309-.367307,1.667954-1.301966,2.490583-1.982057.348306.198182.696545.396364,1.044783.598373-.328659,1.272063-.657249,2.540299-.986179,3.807655-.05542.313461-.090312.630003-.105081.948781-1.234553,1.034427-1.471613,1.022337-3.058944.295783-.441938-.202314-1.008537-.132279-1.517954-.187176Z"/>
  <path class="cls-13" d="M167.989237,169.011427c1.36084-.718765,2.792548-1.015463,4.12412-.10197.518496.355725,1.032317,1.169213,1.0021,1.745573-.029675.568131-.635434,1.326451-1.18855,1.607029-1.936315.98241-3.004201.200824-3.958673-2.715723.000068-.000102.021003-.534909.021003-.534909Z"/>
  <path class="cls-5" d="M145.787742,168.458908c.014702-.318778.049594-.63532.105014-.948781.284485.820972.708333,1.621692.825474,2.465016.295664,2.129271.45332,4.277711.677846,6.534926-1.026626.729467-1.531504.058926-1.57019-.97628-.08794-2.355426-.034282-4.716237-.038144-7.074881Z"/>
  <path class="cls-14" d="M88.882582,147.390555c3.627033.711925,6.90698,1.154888,10.06782,2.028453,3.716871,1.027214,4.589771,2.800896,3.780014,6.53662-.117005.539548-.138753,1.101617-.277507,1.634324-.746477,2.866764-2.091803,4.009054-5.011722,4.178044-1.274458.073726-2.556776.012327-3.808808.012327-.748848-1.086581-1.353185-1.963499-2.015922-2.925047-.53584.11196-1.201829.054829-1.548103.360128-1.060976.935574-1.999255,2.010166-2.975136,3.020311-1.683808-2.087142-2.542006-5.579474-2.39099-8.966788.125271-2.811394,2.139973-4.102185,4.180353-5.878372Z"/>
  <path class="cls-11" d="M142.878121,140.721724c1.032046.8588,2.165583.782162,3.410502.538126,1.182995-.231811,1.448916.598542,1.341396,1.598562-2.32351.300456-4.640584.645175-6.967752.89463-1.954878.209561-3.921613.308178-6.29282.486785-.100271-.634372-.246748-1.560836-.422426-2.672037,3.164364-.739762,6.063551-.654319,8.931099-.846066Z"/>
  <path class="cls-13" d="M145.834151,163.1041c-.822629.680091-1.546274,1.61475-2.490583,1.982057-1.506233.585775-3.020665-.498266-3.20515-1.996281-.159282-1.294651.607453-2.106886,2.303794-2.337613.715854-.09733,1.450068-.059502,2.175678-.083208-.000271-.000135.084688.068917.083333.067731.036179.260969.161585.372252.374865.332663.25271.678228.505352,1.356422.758062,2.034651Z"/>
  <path class="cls-8" d="M145.076088,161.069449c-.213279.039589-.338686-.071694-.374865-.332663.260163.003928.384621.114432.374865.332663Z"/>
  <path class="cls-13" d="M148.133745,134.345628c.694174-.640163,1.24187-1.413757,1.989228-1.78015,1.724458-.845457,3.381437.158864,3.46206,2.010606.049051,1.126136-.195867,2.242417-1.467141,2.570372-1.040109.26825-2.18103.366833-2.906979-.727875-.383537-.578189-.648171-1.235183-1.077168-2.072953Z"/>
</svg>