<?xml version="1.0" encoding="UTF-8"?>
<svg id="Layer_1" xmlns="http://www.w3.org/2000/svg" viewBox="0 0 158.791136 391.131681">
  <defs>
    <style>
      .cls-1 {
        fill: #65b747;
      }

      .cls-2 {
        fill: #1d9049;
      }

      .cls-3 {
        fill: #fff;
      }
    </style>
  </defs>
  <path class="cls-2" d="M126.228895,26.703303c-.434321.191809-.913208.319507-1.295969.585513-3.169595,2.202696-6.266536,4.515103-9.497421,6.622641-2.24735,1.465967-4.671272,2.661159-7.054181,3.998558.43022,2.11211.779406,4.095039,1.243006,6.050845,1.26646,5.342997,1.262163,10.70217.493996,16.114818-.181225,1.276874-.076684,2.729097.370723,3.922852.455485,1.215382,1.495925,2.211468,2.43122,3.513806.623465-.135555,1.381707-.208785,2.071682-.465512,4.074937-1.516218,8.151081-3.032064,12.191982-4.635823,2.386335-.947095,2.326927-1.023005,1.088875-3.266578-5.106091-9.253197-6.669414-18.859292-2.852261-29.002478.404369-1.074571.61164-2.223365.908485-3.339336.073683-.10718.147366-.21436.221067-.32154-.10708.074073-.214142.148154-.321205.222235ZM67.268191,358.244439c3.574372-1.973527,6.884-4.261847,10.53106-5.685801,3.694431-1.442492,7.72253-2.030313,11.733709-3.024553.671652-10.572971-1.289843-21.084185-2.439991-31.454942-1.767238-.53345-3.217-.971049-4.378813-1.321746-4.442162,4.613822-8.770356,9.109313-13.246697,13.758649,2.085425,9.294907,1.12545,18.668797-2.051459,28.096064.031497-.067121.062995-.134241.09451-.201327-.069386.025002-.149053.036792-.204359.079906-.034445.026777-.032065.100859-.046198.153703.052022-.010761.104044-.021521.008238-.399954ZM111.123717,357.272787c.090692.079266.181384.158533.272077.237764l-.22579-.284144c-.321933-1.206398-.600117-2.426468-.972776-3.616991-2.884575-9.21557-3.782069-18.506074-1.030781-27.920769.463937-1.587565.211923-2.739236-1.186368-3.780815-5.065148-3.77318-10.503061-6.895892-16.213761-9.561792-.495629-.231371-1.059899-.315645-1.778584-.521659-.458326,1.595556-1.318482,3.083434-1.211793,4.498439.332461,4.409903,1.060538,8.788767,1.577704,13.186418.382157,3.249744.807974,6.503466.969757,9.767523.16663,3.362394.036984,6.739454.036984,10.040835.977978.361173,1.592636.735025,2.239786.803993,5.227037.556676,9.82452,2.713311,14.223307,5.43163,1.052371.650361,2.197245,1.150925,3.300236,1.719569ZM69.88985,146.110181c-.213716-.043327-.427415-.086653-.641131-.129998,0-2.795277.002006-5.590553-.000586-8.38583-.002521-2.714696.020187-5.429854-.023294-8.143929-.044192-2.759887.193014-5.542095-.182041-8.434572-6.521178.213827-12.50944-.800548-18.186175-3.165524-5.595311-2.331043-10.748763-5.474459-15.454435-9.439625.123495.859643.421618,1.539125.757559,2.199376.348929.685803.788541,1.32931,1.095658,2.031894,3.728511,8.52982,4.230071,17.171454.831118,25.929982-.390174,1.005373-.359555,1.886235.496916,2.635252,2.036909,1.781256,4.137532,3.495747,6.094038,5.361402,2.655056,2.53173,5.254717,5.127207,7.776203,7.791829,2.578071,2.724445,5.033011,5.565427,7.697265,8.52824.554576-1.013843.951061-1.763748,1.37022-2.500762,2.393064-4.207848,6.222131-4.364499,8.918876-.337841.729693,1.089558,1.328602,2.266692,2.021169,3.461636.538152-.222457.948576-.292028,1.226654-.521819,5.433208-4.489809,10.853739-8.995048,16.269565-13.505846,1.033551-.86085.791107-1.68331.148414-2.77665-1.465351-2.492701-2.913817-5.029509-4.015635-7.694575-2.243532-5.426693-3.160557-11.132275-2.923405-17.015266.030414-.754753-.09886-1.515934-.154184-2.27415-.173342-.001474-.346683-.002948-.520025-.004439-4.200908,8.797078-8.401834,17.594155-12.602743,26.391215ZM9.192571,161.944086c13.052742,9.545012,25.495273,19.243141,33.232486,33.629671,5.030819-3.590711,8.83517-7.99479,12.886653-12.12536,1.342629-1.368872,2.37879-3.033218,3.646901-4.482049.990868-1.132085,1.093065-2.388628.973006-3.78291-.222718-2.587043-.480236-5.17856-.518569-7.771231-.023081-1.560841-.450691-2.831483-1.504518-3.933293-.535081-.559446-1.107092-1.090783-1.586919-1.694816-5.246177-6.604023-11.215727-12.500952-17.590319-17.998922-.712044-.614137-1.563483-1.066651-2.537457-1.719605-2.95587,5.08468-7.486176,8.379331-12.013625,11.668886-4.532651,3.293355-9.53705,5.761498-14.98764,8.209629ZM93.704023,179.79449c-4.526587-3.035668-14.174055-6.093391-20.795797-6.625917-.595696,3.457321-1.637645,6.722177-4.568844,9.066395-.457385.365755-.655086,1.372246-.578758,2.037203.428089,3.729498,1.036942,7.438185,1.468565,11.167345.476667,4.118194.80073,8.253861,1.246557,12.375927.223925,2.07055.570466,4.127783.87262,6.269503,11.270873.003978,22.218074.95663,32.990389,3.880999-10.091128-11.045303-14.126383-23.638999-10.634732-38.171454ZM41.942807,235.742071c.233451.181119.466902.362203.700353.543323.126637-.37751.168184-.817523.392686-1.123083,3.576884-4.868455,7.710164-9.215783,12.749496-12.561876,3.776423-2.507581,7.732881-4.753497,11.684652-6.981977,1.268307-.715244,1.925417-1.475697,1.726171-2.953561-.386028-2.863605-.733439-5.732892-1.059313-8.604061-.792829-6.985297-1.564193-13.973009-2.303491-20.595215-1.796729-1.45533-3.252102-2.634169-4.660566-3.775009-2.446826,2.743143-4.789609,5.575087-7.354559,8.18896-2.70809,2.75971-5.58203,5.363337-8.474718,7.93241-1.465866,1.301858-2.019101,2.573831-1.395112,4.580511.711299,2.287432,1.267596,4.701932,1.372954,7.084114.307835,6.962302.276373,13.924675-1.581539,20.741478-.677688,2.486557-1.202471,5.014771-1.797013,7.523986ZM40.986694,82.04179c-4.80051,4.843276-8.132705,10.316758-10.510669,16.415476-.45126,1.157318-.06833,2.008916.739165,2.871187,6.228816,6.651185,13.281683,12.105153,21.890664,15.371429,4.48607,1.702026,9.210448,2.010124,13.902866,2.514559,1.184894.12737,2.179277-.261043,2.189912-1.682706.029597-3.953624.010262-7.907586.010262-11.770846-11.27011-3.095047-18.859354-9.541301-28.222201-23.7191ZM6.452069,162.658655c-3.155107,4.372667-4.721927,8.807714-5.802777,13.446218-.321791,1.380965.117698,2.443514,1.429965,3.122179.857582.443512,1.728461.895298,2.496913,1.471933,8.001602,6.004464,15.050102,12.963926,20.973035,21.044054.896287,1.222734,1.824862,2.421815,2.950223,3.912251,3.417569-2.361194,6.690835-4.556787,9.889974-6.855548,2.226248-1.599693,2.229799-1.835042,1.049566-4.246754-1.88743-3.856796-4.476066-7.237089-7.386651-10.343429-4.962835-5.296607-10.156768-10.36962-15.956634-14.75873-3.062879-2.317885-6.279151-4.433023-9.643615-6.792174ZM71.548482,265.839043c1.271787-.205872,2.101706-.40102,2.941763-.466649,6.940105-.542151,13.11824-3.09075,18.7304-7.109506,4.138979-2.963824,7.420288-6.746273,10.091075-11.04065,1.309569-2.105709,1.288547-2.477927-.557008-3.927948-1.960217-1.540048-4.03197-3.087589-6.30043-4.058176-7.229529-3.093307-14.798461-4.115779-22.640624-3.071821-1.321483.175899-1.924405.751397-2.111702,1.917629-.106601.663749-.071943,1.352607-.074571,2.030242-.02926,7.559641-.053709,15.119318-.078477,22.678959-.003072.933582-.000426,1.867128-.000426,3.047921ZM71.57396,216.400788c0,2.29592-.005451,4.119899.00119,5.943807.011629,3.19484.000852,6.39032.067788,9.584059.016548.789077.295744,1.572649.446484,2.320424,6.169789-.631539,11.905364-.486785,17.62464.760062,5.842513,1.273767,11.092223,3.703999,15.861556,7.900927.701604-1.712395,1.441311-2.985665,1.742026-4.355319.783011-3.566313,1.591305-7.151093,1.987648-10.772487.541295-4.945626-.453017-6.168147-5.216225-7.586809-.369179-.109915-.752934-.171247-1.121278-.283541-5.085318-1.549885-10.286131-2.404094-15.564711-3.06312-5.312545-.663323-10.577614-.225263-15.829118-.448004ZM69.423197,216.938748c-1.066291.366891-1.443441.442251-1.766883.617049-1.701989.919803-3.42191,1.812366-5.07834,2.809553-10.44763,6.289568-18.646667,14.662968-23.956949,25.756178-.683192,1.427221-.735907,2.567173.306797,3.682975,2.305044,2.466598,4.602916,4.944099,7.009296,7.309696.904153.888799,2.100907,1.479923,3.219859,2.244745,3.876295-9.259536,7.625553-13.496594,12.473433-18.045143,2.10705-1.976936,4.436907-3.73209,6.772073-5.442533.959335-.702672,1.497115-1.379242,1.458569-2.590292-.168619-5.299271-.288695-10.600104-.437855-16.342229ZM72.367357,42.855996c.544526,2.555506.981848,4.307242,1.28196,6.082177.537993,3.18194,2.484911,4.296091,5.576952,4.639046,5.22109.579121,9.536464,3.031442,12.496391,7.510721,1.103345,1.669744,2.055579,3.439369,2.833813,4.753338,3.094314.747686,5.788697,1.398721,8.750719,2.114445.935543-1.952095,1.953647-4.024687,4.056348-5.278211.464558-.276935.671936-1.169925.78855-1.816948.934567-5.184668.898524-10.385868-.073576-15.55254-.418697-2.225478-1.150591-4.392004-1.6429-6.223388-5.747968,1.34712-11.127573,3.070738-16.637127,3.76874-5.488248.695303-11.080008,1.50932-17.431128.002619ZM68.69077,68.752826c-1.435239,0-2.541691-.232881-3.503015.041924-3.430415.980637-6.892061,1.935137-10.190538,3.272775-3.955286,1.604026-7.598707,3.851824-10.754719,6.77495-1.522149,1.409819-1.553859,1.881636-.573573,3.498872,3.237738,5.341567,7.218095,10.095491,11.942046,14.149441,2.923387,2.508753,6.075777,4.790946,9.831835,6.04099,1.221753.406578,2.365367.724709,3.762681-.010033,0-1.175217.053283-2.327598-.011381-3.473338-.124942-2.213652-.432759-4.422226-.458184-6.635257-.071339-6.205667-.037854-12.412541-.044867-18.618936-.001758-1.540847-.000284-3.081694-.000284-5.041389ZM22.590558,244.252163c3.583862,1.78495,7.131273,2.970891,11.075711,3.064221,1.780759.042119,2.594139-.611189,3.087318-2.27589,1.315446-4.440196,2.969985-8.78653,4.138553-13.26192,1.556354-5.960605,2.865328-12.004419,2.732841-18.224131-.05939-2.787996-.167837-5.608985-.659596-8.342006-.340043-1.889786-.225541-4.047558-1.768765-5.704339-3.6197,2.401111-7.148815,4.720576-10.651332,7.079497-.976868.65789-.813531,1.553721-.491288,2.579212,1.364015,4.340971,1.185444,8.872189.644939,13.230988-.872247,7.034217-3.1917,13.700904-7.093987,19.725434-.356235.549999-.572908,1.190381-1.014393,2.128935ZM109.780005,238.022897c-1.948339,5.11183-4.007841,9.773098-7.256392,13.801692-.344641.427406-.559121,1.051452-.614303,1.606139-.439186,4.414307-1.042766,8.828081-1.162718,13.253752-.106991,3.946983.131387,7.933635.598288,11.857428.475548,3.996454,1.502725,7.912007,3.323122,11.894184.808897-.69454,1.494984-1.183598,2.059769-1.786299,2.182242-2.328983,4.247195-4.773634,6.513294-7.016105,1.350192-1.336129,1.521723-2.705569,1.233969-4.469495-.464558-2.847517-.858753-5.730726-.954275-8.609708-.260802-7.85998.93945-15.594028,2.503731-23.262377.274296-1.344759.15809-2.254014-.857013-3.059036-1.727769-1.370222-3.474074-2.71704-5.387471-4.210175ZM92.600269,150.014956c-2.974415,2.54329-5.636165,4.9243-8.411014,7.165227-3.455112,2.790269-6.985842,5.488221-10.520159,8.178395-1.492871,1.136311-.769215,2.666256-.840714,4.037987-.064024,1.227794.912995,1.573218,1.907911,1.801943,1.125752.258841,2.267874.465921,3.370989.800619,5.438055,1.650105,10.865564,3.335048,16.537433,5.081803,3.438014-8.546351,9.318149-15.498976,17.193532-21.011843-7.271093.603749-13.740107-.960217-19.237978-6.05413ZM53.279107,305.128643c7.564192,6.250467,12.492165,13.606829,15.453441,22.60882,1.184237-.911528,2.104902-1.456129,2.819094-2.199216,2.610864-2.716685,5.161628-5.491541,7.717772-8.26036,1.63507-1.771064,2.904549-3.638547,1.733433-6.231965-.221741-.491011-.165494-1.159733-.087159-1.725642.534442-3.860934-.740257-7.247228-2.739002-10.421364-1.684838-2.675631-3.21329-5.477549-5.704219-7.899826-4.004645,7.670763-9.663359,12.928554-19.19336,14.129553ZM89.827941,302.762619c1.162931-.615557,2.278332-1.021585,3.171548-1.714171,2.439352-1.891562,4.7272-3.980046,7.184289-5.846749,2.373392-1.803062,2.883918-3.524655,1.720809-6.595482-3.635254-9.597945-3.540886-19.649967-2.517775-29.721309.100209-.986568.013405-1.992101.013405-2.801243-3.369586,2.279441-6.561712,4.575077-9.893729,6.645485-2.264252,1.406943-2.514792,1.690271-2.113815,4.363558.399397,2.662775.916883,5.336986.978972,8.015529.158996,6.858531.616878,13.777756-.654003,20.542993-.539182,2.870352.214622,4.808401,2.110299,7.111388ZM133.876517,100.741626c.688093-.645034,1.395858-1.233388,2.015861-1.903015,2.346316-2.534198,5.100409-4.394011,8.412008-5.465048,3.726336-1.205137,7.534789-1.539604,11.42195-1.467156,2.614841.048725,3.171352-.380812,3.049198-2.976467-.148698-3.160108-.528174-6.326804-1.067232-9.445823-.474767-2.746996-1.040315-2.987796-3.72394-2.644699-3.14852.402565-6.306165.73602-9.451027,1.164136-1.426308.194188-2.956091.277415-4.224469.870048-5.375895,2.511842-9.656683,6.344845-12.903352,11.322326-.660963,1.01331-.650701,1.864767.207236,2.860497,2.07637,2.409794,4.029396,4.925898,6.263766,7.6852ZM128.634246,118.106239c-3.078299-.21832-5.834026-.500653-8.595612-.581038-2.061615-.060018-2.373818.285743-2.472216,2.306254-.229944,4.721109-.369374,9.446639-.599496,14.167748-.092414,1.895806.393467,3.576736,1.218025,5.282118,2.327886,4.814528,3.823136,9.871027,4.067285,15.265084.053691,1.186457.459072,2.356968.743417,3.732872,5.273076-2.611867,8.635383-6.561247,11.415381-11.204563-5.197191-8.937339-6.309379-18.628578-5.776784-28.968474ZM110.556482,320.863483c2.040416-2.595015,3.863014-5.492074,6.257162-7.794848,2.387827-2.296701,5.348535-3.997626,8.385109-6.196593-9.041367-1.391672-15.599617-5.967104-20.60937-12.978841-.512532.405317-.824149.625501-1.106133.878713-3.805026,3.417049-7.532836,6.935738-12.022547,9.477305-.854048.483411-1.30355,1.083414-1.270348,2.072006.031977.952013.006907,1.906016.006907,2.477004,7.061585,4.184818,13.76056,8.154778,20.35922,12.065254ZM103.591129,24.893467c1.370327,3.533587,2.715459,7.002175,4.141127,10.678491,10.234358-4.154081,18.060346-11.051979,25.41787-18.873116-2.020353-5.717781-5.164274-10.577668-10.985374-13.691537-3.834535,9.37539-9.453886,17.02465-18.573623,21.886162ZM140.786528,53.765903c-3.506441-10.047237-5.693975-20.020117.454598-29.739483-1.737374-1.940846-4.052104-2.264925-6.008805-3.26403-1.201921-.613702-2.061953-.243819-2.746246.74718-2.647298,3.833872-5.034663,7.781015-6.261387,12.361171-1.199488,4.478453-1.433587,8.982796-.436097,13.464854.904472,4.064054,2.409008,7.952741,4.617954,11.529229.524801.849734,1.195565,1.355111,2.153497.806532,2.92431-1.674627,5.880206-3.318925,8.226487-5.905453ZM.1317,180.314906c-.917345,13.294273,2.926183,24.07507,12.516072,32.613893,4.944592-1.664488,9.31656-3.830712,13.889772-6.400264-7.218734-10.395439-15.323537-19.376761-26.405844-26.213629ZM20.418613,242.689457c6.320032-6.352391,11.632959-26.394891,7.05846-34.118853-3.918365,1.81606-7.769776,3.805284-11.78582,5.372606-1.887333.736517-2.881103,1.90836-3.332168,3.629776-.952899,3.63663-1.649905,7.259125-.737167,11.099212,1.344351,5.656076,4.051083,10.326223,8.796695,14.017259ZM89.549224,352.318638c-.636763-.129944-.999515-.250691-1.366953-.267311-.480697-.021841-.971693-.003871-1.446921.070033-8.63604,1.342095-15.919117,5.134132-21.635321,11.843684-1.131718,1.328387-1.682334,2.693708-1.714346,4.455751-.048489,2.667889.432386,5.220004,1.39909,7.64633.954595,2.396033,2.053306,4.771432,4.218361,6.65067.642605-1.258993,1.232495-2.361833,1.775246-3.487437,2.075571-4.304286,5.338414-7.554172,9.172878-10.274551,1.916415-1.359639,4.028472-2.332002,6.428941-2.404059,1.483514-.044499,1.958974-.793552,2.086632-2.187035.280972-3.066317.737949-6.116119,1.066948-9.178671.099765-.928823.015447-1.877392.015447-2.867405ZM72.410218,41.146353c11.416109.676179,22.563585.170954,33.456704-4.687824-1.406245-3.691063-2.729059-7.163167-4.071031-10.685532-9.412765,3.80033-18.654018,3.276504-28.100802,1.234418-1.456367,4.688081-2.535743,9.196304-1.284872,14.138938ZM82.569685,80.133555h-11.653457v30.969914c4.063094-.59139,7.770167-1.362302,11.510583-1.593531,2.467831-.152549,3.747713-1.099093,4.233134-3.500435-4.08353-7.998696-5.277035-16.580543-4.090259-25.875948ZM120.26785,154.231274c-.703433.229081-1.098108.275674-1.399498.468247-3.56782,2.27969-7.337834,4.31066-10.628695,6.940248-4.96398,3.96648-8.72018,8.998316-11.191953,14.921347-.355738.852433-.741624,1.732283.205496,2.324952,2.987127,1.869295,6.027998,3.652629,9.238057,5.583486,1.983209-4.346067,5.276396-6.765734,9.218366-8.401349,1.17298-.486714,1.844188-1.302568,2.275402-2.449942,2.317464-6.166122,2.951067-12.523805,2.282824-19.386989ZM35.591979,138.522786c6.252332-9.92673,1.759772-28.189021-8.234911-35.996352-3.342563.906521-6.849138,1.545197-9.368156,4.439522,1.25468,1.584422,2.324362,2.941113,3.400267,4.292886,4.586874,5.763007,7.895641,11.899174,6.053299,19.6695-.163221.688431.152453,1.870502.672424,2.275908,2.40765,1.877161,4.966075,3.560897,7.477077,5.318537ZM49.043239,356.034392c2.857978,3.098563,6.000034,5.603835,9.919278,7.003214,2.907301,1.038098,3.114874.949918,4.500381-1.737859,3.801138-7.373798,5.661394-15.18864,5.158539-23.489451-.129895-2.144348-.206668-4.373573-1.231962-6.249864-2.749726,1.326753-5.325861,2.629819-7.955812,3.813345-1.312126.590449-1.822669,1.408363-1.887581,2.883563-.176324,4.007072-1.069718,7.85998-3.470079,11.18654-1.578379,2.18739-3.271224,4.292211-5.032763,6.59051ZM105.605783,186.562355c-3.754123-2.975455-7.128787-4.880352-9.621723-5.470322-5.096201,11.080354,1.740588,30.376731,13.960037,38.540778,2.01824-1.89213,4.037989-3.789587,5.096042-6.627444-8.229949-6.988866-12.124851-15.498444-9.434355-26.443012ZM74.796482,267.588195c.444779,6.815915.859535,13.369527-1.180029,19.752886-.362307,1.133914.12432,1.754231.703238,2.584787,2.260471,3.243103,4.416879,6.558725,6.621724,9.840858.343363.511112.737345.988202,1.0659,1.425161,2.184959-1.801748,3.994099-3.550474,4.076215-6.447213.057171-2.016214.581989-4.027848.550723-6.036178-.094652-6.080783-.307036-12.161353-.589482-18.236597-.078211-1.682529-.560346-3.346235-.886451-5.183638-3.531192.783785-6.867772,1.524386-10.361838,2.299933ZM120.350677,2.093096c-9.048611-3.877501-16.919644-2.16016-24.202935,3.439369-1.418886,1.090872-1.59624,1.827531-.884427,3.212721,2.076529,4.040846,4.160072,8.078175,6.266092,12.103688.343416.656443.814934,1.245844,1.403102,2.130835,8.8502-4.524204,13.751452-11.982684,17.418167-20.886614ZM90.204541,366.326876c7.336183.648052,13.663103,2.241513,17.655107,8.340444,3.494137-1.089309,6.0408-3.172041,8.65976-5.129231,1.131966-.845934,1.286843-1.866098.416176-2.996284-.998343-1.295821-1.865157-2.738632-3.048541-3.838347-5.378221-4.99808-11.52887-8.700196-18.716231-10.46018-1.128131-.27626-2.382039-.038674-3.514911-.038674-.499944,4.864619-.966757,9.406917-1.45136,14.122273ZM41.918083,317.36145c5.769229,1.73207,9.609961,5.399099,12.398854,10.229377.908343,1.573182,1.508584,3.332633,2.166511,5.038956.368202.954961.931247,1.622688,1.92911,1.152523,2.946788-1.388476,6.045594-2.544408,8.76526-5.13225-1.540437-3.283127-2.890558-6.6973-4.684464-9.859752-2.778009-4.897328-6.189515-9.323496-11.067011-12.394394-1.957216-1.232287-2.02037-1.296247-3.622754.432236-2.730124,2.944931-4.533112,6.430237-5.885506,10.533303ZM156.537435,237.451092c.325359-.450029.589517-.730089.756591-1.059371M115.18358,282.550507c-.625844.628058-1.45484,1.407866-2.224073,2.242756-1.631733,1.771028-3.19976,3.601542-4.853917,5.350872-2.075535,2.195026-2.077488,2.665865-.013547,5.033877,3.495646,4.010695,7.622339,7.069376,12.736437,8.713408,4.546828,1.461705,9.167019,1.969905,14.109711,1.349979-.083484-.807757.002663-1.516396-.243118-2.080352-.961341-2.205609-2.019358-4.369453-3.057259-6.541217-.943711-1.974735-2.540058-2.972454-4.680647-3.399896-2.405138-.480322-4.61277-1.563416-6.212526-3.463075-1.908124-2.26584-3.631383-4.687336-5.561061-7.206352ZM43.650495,292.963916c1.288938,3.203399,3.226659,5.6923,5.208306,8.1926,1.635497,2.06359,3.655423,2.31879,5.952078,1.854663,7.980119-1.612673,13.053754-6.582733,16.191691-13.99169-2.908224-3.172076-5.838678-6.147797-9.520414-8.371305-1.712233,3.672783-4.178324,6.444798-7.480388,8.150801-3.203631,1.655148-6.707622,2.728831-10.351274,4.16493ZM69.01526,265.684843c1.243095-9.393245.7105-18.590987.848225-27.826622-.505856.068186-.726426.033063-.858345.125043-7.672887,5.349735-13.760347,12.021856-17.413231,20.758312-.604094,1.4448-.033699,2.074421,1.152669,2.733341,4.99182,2.772264,10.403686,3.858519,16.270683,4.209926ZM3.311868,150.331045c.920887,3.00328,1.743012,5.661829,2.549743,8.325066.403579,1.332347,1.345328,1.544682,2.511472,1.196241.831633-.248524,1.677931-.510331,2.442619-.909877,3.591807-1.876753,7.309195-3.569829,10.695524-5.769258,4.532899-2.944114,8.841234-6.232799,12.097313-10.695849.881924-1.208848.899279-2.09406-.250709-2.950542-2.287201-1.703517-4.608873-3.360742-7.021636-5.113623-5.394254,8.839747-13.667871,13.008957-23.024326,15.917842ZM3.064657,147.577301c6.843687.246322,19.221377-8.352731,21.076103-14.468282-5.601143-3.861608-11.709216-6.867712-18.143137-9.911015-3.503512,7.963129-3.327525,16.066324-2.932966,24.379298ZM83.946705,391.131681c2.290512-.267346,4.307189-.317243,6.232891-.761518,6.260286-1.444516,11.454335-4.493609,14.685717-10.305731,1.670651-3.004914,1.508407-4.976239-1.144856-7.174496-3.926861-3.253473-8.608857-4.449998-13.747581-4.588324-1.988021,7.531621-3.919652,14.849556-6.02617,22.83007ZM92.671946,146.954925c3.253771-3.506916,6.250716-6.737004,9.35863-10.086701-4.823911-5.835384-5.463729-12.869921-6.83512-19.60673-2.741594.105138-5.328756.139444-7.905033.324985-1.862423.134082-2.369681.667603-2.308427,2.583775.104719,3.277267.12899,6.587616.630851,9.81504.929045,5.974704,3.02965,11.545547,7.059099,16.969631ZM111.404227,325.18794c-2.179668,5.605718-2.427438,11.19968-1.836305,16.764202.611693,5.75832,2.03342,11.396284,4.646344,16.630245,1.356886,2.718035,2.729911,5.481953,5.468647,7.217468,2.552752-2.058085,3.726194-4.850201,5.130699-7.477072.592873-1.108842.087674-1.948135-.636781-2.870388-1.782028-2.268681-3.581669-4.549756-5.089064-7.001225-1.853652-3.014502-2.514242-6.474452-2.494694-9.965227.011683-2.089621.654785-4.169689.900442-6.267372.085135-.727141.095397-1.731076-.32053-2.201276-1.575343-1.780972-3.040552-3.754961-5.768759-4.829354ZM117.545005,107.653996c1.951943-4.929432,3.845437-9.574275,5.590144-14.274396.243811-.656771.033717-1.845128-.436434-2.345905-3.445524-3.669977-6.95802-7.29819-11.201398-10.070667-.77321-.505181-1.884581-.492645-3.237294-.813315,0,1.537154.008185,2.580171-.001491,3.62301-.029669,3.198711.499198,6.535713-.241148,9.56149-.955127,3.903532-.56601,7.389318.900318,10.945225.219487.532243.403197,1.099129.479241,1.666654.181509,1.354756,1.023821,1.730614,2.244527,1.714651,1.935857-.025321,3.8723-.006748,5.903536-.006748ZM74.463559,24.913186c9.158372,2.561588,17.674531,2.51978,26.372322-.927118-2.308143-5.594611-5.205288-10.572865-8.097195-15.771499-8.93015,2.348879-14.0701,8.645692-18.275127,16.698617ZM157.636164,93.515973c-3.149354.271484-5.918273.379197-8.645752.773664-5.049648.730266-9.390181,2.889583-12.563327,7.002504-.469494.608597-.964697,1.85287-.674919,2.287343,2.169814,3.253313,2.971343,8.111221,8.511897,7.686638.729835-.055952,1.55631.203582,2.229186.536806,1.652115.818269,2.786656.143759,3.714689-1.138762,1.52538-2.107982,3.204767-4.142148,4.439126-6.41399,1.688158-3.107015,3.204767-6.356546,2.989098-10.734203ZM118.911781,328.420318c4.373611-5.338584,9.174938-9.533737,16.240873-9.068189,1.212609-3.403518,1.101002-6.592748.944971-9.761343-.10012-2.033012-.906851-2.685717-2.808868-2.23956-2.79944.656647-5.691755,1.206007-8.290209,2.369255-5.061437,2.265733-8.935015,6.002618-11.549573,10.934891-.994721,1.876468-.902235,2.287823.696917,3.764372,1.405641,1.297845,2.928696,2.468516,4.765888,4.000573ZM103.319851,138.462359c-3.06168,3.332544-6.093408,6.632505-9.085258,9.889068,4.867269,6.311551,16.56577,7.53123,25.865969,3.338564-.436505-1.863701-.916634-3.803579-1.339007-5.755958-.279605-1.292358-1.088911-1.742298-2.320056-1.644742-2.31908.183747-4.40351-.584856-6.35627-1.701155-2.172743-1.242071-4.278355-2.601585-6.765379-4.125776ZM129.754316,263.033112c-.5634.690172-.93391,1.097016-1.25215,1.541291-3.036646,4.239189-5.886048,8.629169-9.161409,12.67449-1.977332,2.442165-2.188563,4.535018-.492984,7.018911.598466.876654,1.064018,1.846815,1.689188,2.701911,1.73306,2.370534,4.163374,3.724846,6.949427,4.425281,1.771322.44527,2.484573.060764,2.934572-1.806542.516225-2.141933.954896-4.345659,1.043742-6.538128.164535-4.061479.058289-8.134287.04895-12.202336-.006019-2.626622-.856605-5.05064-1.759337-7.814878ZM118.242739,245.276233c-2.189611,10.590799-4.021086,21.093454-1.815301,31.830924.406553-.049826.547882-.026031.585167-.077526,3.670533-5.072019,7.342344-10.143257,10.988694-15.232677.743684-1.037992.746915-2.147011.084531-3.268709-.785017-1.329381-1.488379-2.70802-2.297862-4.021739-2.070866-3.360831-4.532482-6.415464-7.545229-9.230273ZM16.294318,108.201794c-.431747.129199-.76491.134668-.960693.30144-3.689175,3.142671-6.140139,7.168157-8.109046,11.520919-.536812,1.186758.218004,1.656462,1.201299,2.171267,5.04781,2.642888,10.049067,5.374666,15.072411,8.064521.477697.255805.995626.436445,1.642243.715582.880956-2.270847,1.224097-4.305635.759485-6.599442-1.329233-6.562632-5.513656-11.32222-9.605699-16.174285ZM41.679172,272.25479c-1.590035,4.917002-1.144155,9.542437-.169586,14.045244.971879,4.490235.553706,4.599794,5.501653,3.384376.653932-.160628,1.320453-.328963,1.928364-.608561,3.589712-1.650779,7.292559-3.124097,9.448399-6.808848,1.437813-2.457436,1.355448-3.133011-1.115721-4.584808-4.021477-2.362579-8.38985-3.897939-12.841919-5.197169-.803731-.234567-1.700062-.151785-2.751191-.230235ZM142.653247,52.17848c3.548183-2.316766,8.445583-9.531908,9.875583-12.317995.276036-.537809.443021-1.372006.225506-1.885107-1.902779-4.488397-4.543099-8.496943-8.197031-11.765741-1.075577-.96225-1.772263-.819823-2.525428.526605-.700912,1.253018-1.362319,2.575536-1.745968,3.949851-1.188427,4.257363-.936129,8.656568-.400818,12.926592.358135,2.856609.897193,5.894603,2.768155,8.565795ZM86.969662,368.468738c-3.127622.475066-4.626157,1.047225-6.584527,2.457613-4.109026,2.959279-7.043368,6.824936-8.897251,11.525091-.793859,2.012663-.66249,2.614264,1.09255,3.967261,2.642291,2.037025,5.634016,3.295557,8.872482,3.931925,2.563725-4.846081,6.039415-18.522055,5.516745-21.881892ZM135.578577,144.596502c4.128859-7.669396,6.269093-15.708311,5.713292-24.543637-3.676072-.636617-7.043705-1.866205-10.801823-1.137501-.675007,9.136499.870614,17.62214,5.088531,25.681138ZM132.960042,61.956444c3.936448,6.429243,11.057033,8.751247,17.341164,7.682465,4.136813-.703578,4.12735-.781814,5.041818-4.976523.159883-.733409.270355-1.477562.469672-2.582923-5.240407-.746372-9.729815-3.010844-13.695009-6.276694-3.12748,2.101571-6.075315,4.082432-9.157645,6.153675ZM107.588921,187.72745c-3.394355,8.149931,3.276391,21.281072,8.587267,23.156901.151627-.116058.363497-.199622.44604-.352863,1.992726-3.699773,2.943024-7.744951,3.681186-11.823619.127125-.702317-.616185-1.778007-1.251777-2.359312-1.491575-1.364096-3.138683-2.563763-4.764734-3.773695-2.1394-1.591951-4.319014-3.12985-6.697981-4.847413ZM54.531452,334.827933c.637917-2.241761-.728024-3.826663-1.56311-5.501876-2.093414-4.199485-5.252409-7.375787-9.516214-9.414198-1.077246-.514983-2.178132-.780021-2.590127.667123-1.442465,5.066692-1.600129,10.223091-1.018122,15.65948,5.092712.100113,9.991195.579227,14.687572-1.41053ZM71.884068,286.461231c1.621151-6.4318,2.090875-12.445853.613895-18.529761-4.020713-.363411-7.863238-.710698-11.365418-1.027231.381962,3.452705.7067,6.78857,1.150556,10.10856.106104.793587.404759,1.766057.964502,2.259518,2.668319,2.352209,5.45723,4.567619,8.636466,7.188915ZM46.354413,260.494457c-2.10286,2.428279-3.313703,5.019175-4.226165,9.321649,2.99493.921649,6.089546,1.668927,9.018916,2.832317,3.023809,1.200857,5.886935,2.806357,9.337964,4.486897-.329887-4.121426-.557576-7.712385-2.477099-10.941638-.255529-.429892-.910101-.656434-1.417856-.897003-3.309433-1.56782-6.629358-3.11355-10.23576-4.802222ZM40.614142,339.000641c.824087,5.706044,3.044041,10.594599,6.667434,14.913588,5.773677-3.849143,9.154964-11.567885,7.58951-16.585284-4.580598.537108-9.132557,1.070842-14.256944,1.671697ZM109.308221,117.259861c-4.665484-.687295-10.339396-.450721-11.953853.418936,2.013464,11.227629,3.288695,14.808485,6.050725,16.982167,5.618427-4.525926,6.004615-10.776855,5.903128-17.401103ZM130.987326,63.271211c-5.607508,2.064069-11.018238,4.040792-16.416291,6.051538-1.69059.629745-1.703924.742483-1.2663,3.080859,3.586516.592047,24.033624-.78874,26.965604-1.850472-4.078541-1.376739-6.495113-4.780346-9.283012-7.281925ZM154.008154,41.604425c-1.899193,2.577223-3.624405,5.007313-5.448459,7.360783-1.121242,1.446629-2.377866,2.790287-3.604466,4.152483-.677901.752853-.993797,1.593993-.093231,2.251297,3.198056,2.334221,6.588451,4.257656,10.621433,4.525322,1.658791-4.099709,1.011819-11.980633-1.475276-18.289885ZM105.45728,94.989664c1.475507-4.794764.957897-9.563035.973592-14.502056h-12.713214c-1.733522,2.080796-3.323796,3.989671-5.001621,6.003612,1.924458.826473,3.759432,1.614538,5.829871,2.50371.874768-1.761422,1.708665-3.440506,2.672953-5.382195,3.72481,3.289839,5.902879,7.335675,8.238418,11.376929ZM125.483382,93.53776c-2.542153,4.847839-4.520551,9.375399-5.411618,14.392638,2.096149.295527,3.98563.630029,5.889616.816547,4.313528.422577,4.316156.392816,6.057294-3.857844.073328-.178971.231365-.353858.228062-.528354-.015376-.813777.233691-1.850828-.168299-2.402265-2.028698-2.782865-4.230985-5.439159-6.595056-8.420722ZM108.347732,185.708164c4.012937,3.02608,7.898677,5.956201,12.026826,9.069147.395243-6.274439-.327881-11.89477-3.067095-17.157107-4.691761,1.589749-7.204352,3.85685-8.95973,8.087959ZM107.654774,107.449757c-1.16373-5.970425-3.518692-11.056134-6.968975-16.367941-2.387401,5.819048-3.965336,11.061816-3.380577,16.922575,3.539927-.189714,6.831694-.36611,10.349552-.554634ZM125.682841,336.583762c3.908271-4.510513,7.05063-9.001494,8.666223-14.507738-5.487538-.949137-10.50386,2.074634-13.94681,8.327375,1.61886,1.894722,3.291536,3.85241,5.280586,6.180363ZM119.540803,332.422419c-2.398444,8.718024.154255,15.671164,6.416388,22.049551,2.239964-8.785536-.106849-15.783423-6.416388-22.049551ZM124.583349,89.76126c3.581864-3.69338,6.935365-7.151252,10.362832-10.685408-6.653842.43593-13.245134.867775-20.456926,1.340266,3.686867,3.413302,6.969046,6.451954,10.094093,9.345141ZM71.199206,119.468897c-.756893,5.77082.239425,11.89525-.01463,18.651626,3.675078-6.688279,6.841051-12.869868,9.577087-19.733176-3.475441.393082-6.391602.722915-9.562457,1.081549ZM76.714069,55.6974c.285535.678221.380808,1.166569.654767,1.514034,2.319168,2.94138,4.652221,5.872354,7.019949,8.774757,1.430445,1.753449,3.119437,2.483485,5.305443,1.220514.632875-.365648,1.418194-.467412,2.099469-.6795-.312487-5.841315-8.878697-12.098423-15.079628-10.829806ZM94.621509,108.008848c.266644-1.174986.698923-2.283508.741908-3.406945.187563-4.90443,1.279865-9.544,3.546337-13.920165.954985-1.84392.822658-1.981429-1.519859-3.276717-3.018145,7.063179-6.619309,13.847433-9.64951,21.452425,2.628069-.324097,4.692294-.578677,6.881123-.848598ZM93.715883,90.981331c-2.556854-1.680593-5.042635-2.780521-7.988641-2.538797-1.098569.090169-1.984559.467519-1.764344,1.738676.508004,2.932199,1.085271,5.854171,1.720933,8.761369.179733.822087.523931,1.665358,1.668414,1.708063,1.189333.044374,2.105168-.359025,2.609497-1.438088,1.222108-2.614725,2.398675-5.250759,3.754141-8.231221ZM104.739501,136.531679c3.671243,3.186441,7.146702,5.8712,12.451808,5.890732-1.713139-4.821346-4.047932-8.598841-7.879431-11.702269-1.569342,1.994658-2.974059,3.780051-4.572377,5.811537ZM111.39883,117.12791c-.298123,3.322245-.634917,6.288485-.791817,9.264224-.052572.9974.073648,2.212782.61022,2.987814,1.010824,1.460125,2.37902,2.672772,3.993548,4.414254,0-3.183174-.073292-5.85275.020631-8.516431.09364-2.655016.354975-5.304118.556511-8.14986h-4.389093ZM102.769413,73.135419c.274918-1.322474.579326-2.460561-.592607-3.083452-2.174892-1.156021-4.489-1.885951-7.454111-1.744198.347056,1.777048.642942,3.292183.942823,4.82765h7.103895ZM83.744228,86.284069c.264336.103824.528671.20763.793007.311437,2.505293-1.42161,5.128888-2.719047,6.171387-6.081902h-6.279639c-.243438,2.051426-.464096,3.910955-.684755,5.770465ZM93.547016,72.696294c-.267549-1.476479-.483858-2.670038-.694343-3.831582-4.16744-.019834-5.835961,1.219555-5.733604,4.261083,2.055277.091519,4.124189.491508,6.427946-.429502ZM132.477836,109.280538c1.615576.300765,2.938834.547123,4.912704.9146-1.259323-2.004388-2.133203-3.395279-3.08588-4.911586-.475495.515267-.74885.689515-.839525.932073-.297697.796269-.529097,1.617343-.987299,3.064914Z"/>
  <path class="cls-1" d="M69.88985,146.110181c4.200908-8.79706,8.401834-17.594137,12.602743-26.391215.173342.001492.346683.002965.520025.004439.055324.758216.184598,1.519397.154184,2.27415-.237153,5.88299.679872,11.588572,2.923405,17.015266,1.101819,2.665066,2.550285,5.201875,4.015635,7.694575.642693,1.09334.885137,1.9158-.148414,2.77665-5.415826,4.510797-10.836357,9.016037-16.269565,13.505846-.278078.229791-.688501.299362-1.226654.521819-.692567-1.194944-1.291477-2.372079-2.021169-3.461636-2.696745-4.026658-6.525812-3.870007-8.918876.337841-.419159.737014-.815644,1.48692-1.37022,2.500762-2.664253-2.962812-5.119194-5.803795-7.697265-8.52824-2.521486-2.664622-5.121147-5.260099-7.776203-7.791829-1.956506-1.865655-4.057129-3.580145-6.094038-5.361402-.856472-.749018-.88709-1.62988-.496916-2.635252,3.398953-8.758528,2.897394-17.400162-.831118-25.929982-.307116-.702584-.746729-1.34609-1.095658-2.031894-.335941-.660251-.634065-1.339733-.757559-2.199376,4.705672,3.965166,9.859125,7.108583,15.454435,9.439625,5.676735,2.364976,11.664998,3.379351,18.186175,3.165524.375055,2.892477.137849,5.674685.182041,8.434572.043482,2.714075.020773,5.429233.023294,8.143929.002592,2.795277.000586,5.590553.000586,8.38583.213716.043344.427415.086671.641131.129998Z"/>
  <path class="cls-1" d="M9.192571,161.944086c5.45059-2.448131,10.454989-4.916274,14.98764-8.209629,4.527448-3.289555,9.057755-6.584206,12.013625-11.668886.973974.652953,1.825412,1.105468,2.537457,1.719605,6.374593,5.497969,12.344142,11.394899,17.590319,17.998922.479827.604033,1.051838,1.13537,1.586919,1.694816,1.053827,1.10181,1.481437,2.372452,1.504518,3.933293.038333,2.592671.295851,5.184189.518569,7.771231.120059,1.394282.017861,2.650825-.973006,3.78291-1.268111,1.448831-2.304272,3.113177-3.646901,4.482049-4.051483,4.130571-7.855834,8.53465-12.886653,12.12536-7.737214-14.38653-20.179745-24.084659-33.232486-33.629671Z"/>
  <path class="cls-1" d="M93.704023,179.79449c-3.491652,14.532455.543603,27.126152,10.634732,38.171454-10.772315-2.924369-21.719515-3.877021-32.990389-3.880999-.302154-2.14172-.648695-4.198952-.87262-6.269503-.445827-4.122065-.76989-8.257732-1.246557-12.375927-.431623-3.72916-1.040475-7.437847-1.468565-11.167345-.076329-.664957.121373-1.671448.578758-2.037203,2.931199-2.344218,3.973148-5.609074,4.568844-9.066395,6.621742.532527,16.269209,3.590249,20.795797,6.625917Z"/>
  <path class="cls-1" d="M41.942807,235.742071c.594542-2.509214,1.119325-5.037429,1.797013-7.523986,1.857913-6.816803,1.889375-13.779176,1.581539-20.741478-.105358-2.382182-.661656-4.796682-1.372954-7.084114-.623989-2.006679-.070753-3.278652,1.395112-4.580511,2.892689-2.569073,5.766628-5.1727,8.474718-7.93241,2.56495-2.613873,4.907733-5.445818,7.354559-8.18896,1.408464,1.140839,2.863837,2.319678,4.660566,3.775009.739298,6.622206,1.510662,13.609918,2.303491,20.595215.325874,2.871169.673285,5.740456,1.059313,8.604061.199246,1.477864-.457864,2.238317-1.726171,2.953561-3.951771,2.228479-7.908229,4.474396-11.684652,6.981977-5.039332,3.346093-9.172612,7.693421-12.749496,12.561876-.224502.305559-.266049.745573-.392686,1.123083-.233451-.181119-.466902-.362203-.700353-.543323Z"/>
  <path class="cls-1" d="M40.986694,82.04179c9.362847,14.177799,16.952091,20.624053,28.222201,23.7191,0,3.86326.019335,7.817221-.010262,11.770846-.010635,1.421663-1.005019,1.810076-2.189912,1.682706-4.692418-.504435-9.416796-.812534-13.902866-2.514559-8.608981-3.266276-15.661848-8.720244-21.890664-15.371429-.807495-.862271-1.190425-1.713869-.739165-2.871187,2.377964-6.098718,5.710158-11.5722,10.510669-16.415476Z"/>
  <path class="cls-1" d="M6.452069,162.658655c3.364464,2.359152,6.580736,4.474289,9.643615,6.792174,5.799865,4.38911,10.993799,9.462123,15.956634,14.75873,2.910586,3.10634,5.499221,6.486633,7.386651,10.343429,1.180233,2.411712,1.176682,2.647061-1.049566,4.246754-3.199139,2.298761-6.472405,4.494355-9.889974,6.855548-1.125362-1.490435-2.053936-2.689517-2.950223-3.912251-5.922934-8.080129-12.971433-15.03959-20.973035-21.044054-.768452-.576635-1.639332-1.028421-2.496913-1.471933-1.312268-.678665-1.751756-1.741215-1.429965-3.122179,1.08085-4.638504,2.64767-9.073551,5.802777-13.446218Z"/>
  <path class="cls-1" d="M71.548482,265.839043c0-1.180792-.002645-2.114339.000426-3.047921.024768-7.559641.049217-15.119318.078477-22.678959.002628-.677635-.03203-1.366493.074571-2.030242.187297-1.166232.790219-1.74173,2.111702-1.917629,7.842163-1.043958,15.411095-.021486,22.640624,3.071821,2.26846.970587,4.340214,2.518128,6.30043,4.058176,1.845555,1.450021,1.866577,1.822239.557008,3.927948-2.670787,4.294377-5.952096,8.076826-10.091075,11.04065-5.61216,4.018756-11.790294,6.567355-18.7304,7.109506-.840057.065629-1.669977.260776-2.941763.466649Z"/>
  <path class="cls-1" d="M71.57396,216.400788c5.251504.222741,10.516572-.215319,15.829118.448004,5.27858.659026,10.479394,1.513235,15.564711,3.06312.368344.112294.752099.173626,1.121278.283541,4.763207,1.418662,5.75752,2.641183,5.216225,7.586809-.396344,3.621394-1.204637,7.206174-1.987648,10.772487-.300715,1.369654-1.040422,2.642923-1.742026,4.355319-4.769333-4.196928-10.019043-6.62716-15.861556-7.900927-5.719276-1.246848-11.45485-1.391601-17.62464-.760062-.150739-.747775-.429936-1.531347-.446484-2.320424-.066936-3.193739-.056159-6.389219-.067788-9.584059-.00664-1.823908-.00119-3.647888-.00119-5.943807Z"/>
  <path class="cls-1" d="M111.12306,357.273604c-1.102333-.569461-2.247208-1.070025-3.299579-1.720386-4.398787-2.718319-8.99627-4.874954-14.223307-5.43163-.64715-.068967-1.261808-.442819-2.239786-.803993,0-3.301381.129647-6.678442-.036984-10.040835-.161783-3.264056-.5876-6.517778-.969757-9.767523-.517166-4.397651-1.245243-8.776515-1.577704-13.186418-.106689-1.415004.753467-2.902883,1.211793-4.498439.718685.206014,1.282954.290288,1.778584.521659,5.7107,2.665901,11.148613,5.788613,16.213761,9.561792,1.398291,1.041579,1.650304,2.19325,1.186368,3.780815-2.751288,9.414695-1.853794,18.705199,1.030781,27.920769.372658,1.190523.650843,2.410593.972776,3.616991l-.046944.047198Z"/>
  <path class="cls-1" d="M69.423197,216.938748c.149159,5.742125.269236,11.042959.437855,16.342229.038546,1.21105-.499233,1.88762-1.458569,2.590292-2.335166,1.710442-4.665023,3.465596-6.772073,5.442533-4.847881,4.548548-8.597139,8.785607-12.473433,18.045143-1.118952-.764821-2.315706-1.355945-3.219859-2.244745-2.406381-2.365597-4.704252-4.843098-7.009296-7.309696-1.042703-1.115802-.989989-2.255754-.306797-3.682975,5.310282-11.09321,13.509319-19.466611,23.956949-25.756178,1.65643-.997187,3.376351-1.88975,5.07834-2.809553.323442-.174798.700592-.250158,1.766883-.617049Z"/>
  <path class="cls-1" d="M72.367357,42.855996c6.351121,1.506701,11.94288.692684,17.431128-.002619,5.509554-.698002,10.88916-2.42162,16.637127-3.76874.492309,1.831384,1.224203,3.99791,1.6429,6.223388.972101,5.166672,1.008143,10.367871.073576,15.55254-.116614.647023-.323992,1.540012-.78855,1.816948-2.1027,1.253524-3.120804,3.326116-4.056348,5.278211-2.962022-.715724-5.656405-1.366759-8.750719-2.114445-.778235-1.313968-1.730468-3.083594-2.833813-4.753338-2.959927-4.479279-7.275301-6.931601-12.496391-7.510721-3.092041-.342955-5.038959-1.457106-5.576952-4.639046-.300112-1.774935-.737434-3.526671-1.28196-6.082177Z"/>
  <path class="cls-1" d="M68.69077,68.752826c0,1.959695-.001474,3.500542.000284,5.041389.007013,6.206395-.026473,12.413269.044867,18.618936.025425,2.213031.333243,4.421605.458184,6.635257.064664,1.14574.011381,2.298122.011381,3.473338-1.397314.734741-2.540928.41661-3.762681.010033-3.756058-1.250044-6.908448-3.532237-9.831835-6.04099-4.723951-4.05395-8.704308-8.807874-11.942046-14.149441-.980286-1.617237-.948576-2.089053.573573-3.498872,3.156012-2.923126,6.799433-5.170924,10.754719-6.77495,3.298478-1.337638,6.760124-2.292138,10.190538-3.272775.961324-.274804,2.067776-.041924,3.503015-.041924Z"/>
  <path class="cls-1" d="M67.268191,358.244439c3.32472-9.059594,4.284694-18.433484,2.199269-27.728391,4.476341-4.649336,8.804534-9.144827,13.246697-13.758649,1.161812.350697,2.611575.788296,4.378813,1.321746,1.150147,10.370757,3.111643,20.88197,2.439991,31.454942-4.011179.994239-8.039278,1.582061-11.733709,3.024553-3.647061,1.423954-6.956689,3.712274-10.53106,5.685801Z"/>
  <path class="cls-1" d="M22.590558,244.252163c.441486-.938554.658158-1.578935,1.014393-2.128935,3.902288-6.02453,6.22174-12.691217,7.093987-19.725434.540505-4.358799.719075-8.890017-.644939-13.230988-.322243-1.025491-.48558-1.921322.491288-2.579212,3.502518-2.358921,7.031632-4.678386,10.651332-7.079497,1.543224,1.656781,1.428723,3.814553,1.768765,5.704339.491759,2.733021.600206,5.55401.659596,8.342006.132487,6.219712-1.176487,12.263526-2.732841,18.224131-1.168568,4.47539-2.823107,8.821724-4.138553,13.26192-.493179,1.664701-1.30656,2.318009-3.087318,2.27589-3.944438-.09333-7.491849-1.279271-11.075711-3.064221Z"/>
  <path class="cls-1" d="M109.780005,238.022897c1.913397,1.493134,3.659702,2.839953,5.387471,4.210175,1.015103.805023,1.131309,1.714278.857013,3.059036-1.564282,7.668348-2.764533,15.402397-2.503731,23.262377.095522,2.878982.489717,5.762191.954275,8.609708.287754,1.763926.116224,3.133366-1.233969,4.469495-2.266099,2.242472-4.331052,4.687122-6.513294,7.016105-.564785.602702-1.250871,1.09176-2.059769,1.786299-1.820397-3.982177-2.847573-7.897731-3.323122-11.894184-.466902-3.923793-.70528-7.910445-.598288-11.857428.119952-4.425671.723532-8.839445,1.162718-13.253752.055182-.554687.269662-1.178732.614303-1.606139,3.248551-4.028593,5.308053-8.689862,7.256392-13.801692Z"/>
  <path class="cls-1" d="M92.600269,150.014956c5.497871,5.093913,11.966885,6.657879,19.237978,6.05413-7.875383,5.512867-13.755518,12.465492-17.193532,21.011843-5.67187-1.746755-11.099378-3.431698-16.537433-5.081803-1.103115-.334698-2.245237-.541778-3.370989-.800619-.994916-.228725-1.971935-.574149-1.907911-1.801943.071499-1.371731-.652157-2.901675.840714-4.037987,3.534317-2.690174,7.065047-5.388126,10.520159-8.178395,2.774849-2.240927,5.436599-4.621937,8.411014-7.165227Z"/>
  <path class="cls-1" d="M126.330897,26.804215c-.298709,1.114364-.50598,2.263158-.910349,3.337729-3.817153,10.143186-2.25383,19.749281,2.852261,29.002478,1.238052,2.243573,1.29746,2.319483-1.088875,3.266578-4.040901,1.603759-8.117045,3.119605-12.191982,4.635823-.689975.256728-1.448217.329957-2.071682.465512-.935295-1.302338-1.975735-2.298423-2.43122-3.513806-.447407-1.193755-.551948-2.645977-.370723-3.922852.768168-5.412648.772464-10.771821-.493996-16.114818-.463599-1.955806-.812786-3.938735-1.243006-6.050845,2.382909-1.337398,4.806831-2.532591,7.054181-3.998558,3.230885-2.107538,6.327826-4.419945,9.497421-6.622641.382761-.266006.861647-.393704,1.295969-.585513l.102002.100912Z"/>
  <path class="cls-1" d="M53.279107,305.128643c9.530001-1.200999,15.188715-6.45879,19.19336-14.129553,2.49093,2.422277,4.019382,5.224195,5.704219,7.899826,1.998745,3.174136,3.273443,6.56043,2.739002,10.421364-.078335.565909-.134582,1.234631.087159,1.725642,1.171116,2.593417-.098362,4.460901-1.733433,6.231965-2.556144,2.768819-5.106908,5.543675-7.717772,8.26036-.714193.743087-1.634857,1.287688-2.819094,2.199216-2.961276-9.001991-7.889249-16.358352-15.453441-22.60882Z"/>
  <path class="cls-1" d="M89.827941,302.762619c-1.895678-2.302987-2.649481-4.241036-2.110299-7.111388,1.270881-6.765237.812999-13.684461.654003-20.542993-.062089-2.678543-.579575-5.352754-.978972-8.015529-.400978-2.673287-.150438-2.956615,2.113815-4.363558,3.332017-2.070408,6.524143-4.366044,9.893729-6.645485,0,.809142.086804,1.814675-.013405,2.801243-1.023111,10.071342-1.117478,20.123364,2.517775,29.721309,1.163109,3.070827.652583,4.79242-1.720809,6.595482-2.457089,1.866702-4.744938,3.955187-7.184289,5.846749-.893216.692587-2.008617,1.098614-3.171548,1.714171Z"/>
  <path class="cls-1" d="M133.876517,100.741626c-2.234371-2.759301-4.187397-5.275405-6.263766-7.6852-.857937-.995731-.868199-1.847187-.207236-2.860497,3.246669-4.977482,7.527457-8.810484,12.903352-11.322326,1.268378-.592633,2.798161-.67586,4.224469-.870048,3.144862-.428117,6.302508-.761572,9.451027-1.164136,2.683624-.343097,3.249172-.102297,3.72394,2.644699.539058,3.119019.918534,6.285715,1.067232,9.445823.122154,2.595655-.434357,3.025192-3.049198,2.976467-3.887161-.072448-7.695614.262019-11.42195,1.467156-3.311599,1.071037-6.065692,2.93085-8.412008,5.465048-.620003.669627-1.327768,1.257981-2.015861,1.903015Z"/>
  <path class="cls-1" d="M128.634246,118.106239c-.532595,10.339896.579592,20.031135,5.776784,28.968474-2.779998,4.643316-6.142305,8.592697-11.415381,11.204563-.284345-1.375904-.689726-2.546415-.743417-3.732872-.244148-5.394056-1.739399-10.450556-4.067285-15.265084-.824557-1.705382-1.310439-3.386312-1.218025-5.282118.230122-4.721109.369551-9.446639.599496-14.167748.098398-2.020512.410601-2.366272,2.472216-2.306254,2.761586.080385,5.517313.362718,8.595612.581038Z"/>
  <path class="cls-1" d="M110.556482,320.863483c-6.59866-3.910475-13.297636-7.880436-20.35922-12.065254,0-.570988.02507-1.52499-.006907-2.477004-.033202-.988593.4163-1.588595,1.270348-2.072006,4.48971-2.541567,8.21752-6.060256,12.022547-9.477305.281984-.253212.593601-.473396,1.106133-.878713,5.009752,7.011737,11.568002,11.587169,20.60937,12.978841-3.036575,2.198968-5.997282,3.899892-8.385109,6.196593-2.394148,2.302774-4.216746,5.199833-6.257162,7.794848Z"/>
  <path class="cls-1" d="M103.591129,24.893467c9.119738-4.861512,14.739088-12.510772,18.573623-21.886162,5.8211,3.113869,8.965021,7.973757,10.985374,13.691537-7.357524,7.821137-15.183512,14.719035-25.41787,18.873116-1.425669-3.676316-2.770801-7.144904-4.141127-10.678491Z"/>
  <path class="cls-1" d="M140.786528,53.765903c-2.34628,2.586528-5.302176,4.230826-8.226487,5.905453-.957932.548579-1.628696.043202-2.153497-.806532-2.208946-3.576487-3.713482-7.465175-4.617954-11.529229-.99749-4.482058-.763392-8.986401.436097-13.464854,1.226725-4.580155,3.61409-8.527298,6.261387-12.361171.684293-.990999,1.544325-1.360882,2.746246-.74718,1.956701.999105,4.271431,1.323184,6.008805,3.26403-6.148572,9.719366-3.961039,19.692246-.454598,29.739483Z"/>
  <path class="cls-1" d="M.1317,180.314906c11.082307,6.836868,19.18711,15.81819,26.405844,26.213629-4.573212,2.569552-8.94518,4.735776-13.889772,6.400264C3.057883,204.389976-.785645,193.609179.1317,180.314906Z"/>
  <path class="cls-1" d="M20.418613,242.689457c-4.745612-3.691037-7.452344-8.361183-8.796695-14.017259-.912737-3.840087-.215731-7.462582.737167-11.099212.451064-1.721416,1.444835-2.893259,3.332168-3.629776,4.016044-1.567322,7.867455-3.556547,11.78582-5.372606,4.574499,7.723963-.738428,27.766462-7.05846,34.118853Z"/>
  <path class="cls-1" d="M89.549224,352.318638c0,.990013.084318,1.938582-.015447,2.867405-.328999,3.062552-.785976,6.112355-1.066948,9.178671-.127658,1.393483-.603118,2.142536-2.086632,2.187035-2.400468.072057-4.512525,1.04442-6.428941,2.404059-3.834464,2.720378-7.097308,5.970265-9.172878,10.274551-.542751,1.125604-1.132641,2.228444-1.775246,3.487437-2.165056-1.879238-3.263767-4.254638-4.218361-6.65067-.966703-2.426326-1.447578-4.978441-1.39909-7.64633.032012-1.762044.582628-3.127364,1.714346-4.455751,5.716204-6.709552,12.999282-10.501589,21.635321-11.843684.475229-.073904.966224-.091874,1.446921-.070033.367439.01662.73019.137367,1.366953.267311Z"/>
  <path class="cls-1" d="M72.410218,41.146353c-1.250871-4.942634-.171495-9.450857,1.284872-14.138938,9.446784,2.042086,18.688036,2.565912,28.100802-1.234418,1.341972,3.522365,2.664786,6.994469,4.071031,10.685532-10.893119,4.858777-22.040596,5.364003-33.456704,4.687824Z"/>
  <path class="cls-3" d="M82.569685,80.133555c-1.186776,9.295405.006729,17.877252,4.090259,25.875948-.48542,2.401342-1.765303,3.347886-4.233134,3.500435-3.740416.231229-7.447488,1.002141-11.510583,1.593531v-30.969914h11.653457Z"/>
  <path class="cls-1" d="M120.26785,154.231274c.668243,6.863184.03464,13.220867-2.282824,19.386989-.431214,1.147374-1.102422,1.963228-2.275402,2.449942-3.94197,1.635615-7.235157,4.055282-9.218366,8.401349-3.210058-1.930857-6.25093-3.714191-9.238057-5.583486-.94712-.592669-.561234-1.472519-.205496-2.324952,2.471772-5.923032,6.227972-10.954867,11.191953-14.921347,3.290861-2.629588,7.060875-4.660558,10.628695-6.940248.30139-.192573.696065-.239166,1.399498-.468247Z"/>
  <path class="cls-1" d="M35.591979,138.522786c-2.511002-1.75764-5.069427-3.441376-7.477077-5.318537-.519971-.405406-.835645-1.587476-.672424-2.275908,1.842342-7.770326-1.466425-13.906492-6.053299-19.6695-1.075905-1.351772-2.145587-2.708464-3.400267-4.292886,2.519018-2.894324,6.025593-3.533001,9.368156-4.439522,9.994684,7.807331,14.487243,26.069622,8.234911,35.996352Z"/>
  <path class="cls-1" d="M49.043239,356.034392c1.761539-2.298299,3.454384-4.40312,5.032763-6.59051,2.400362-3.32656,3.293755-7.179468,3.470079-11.18654.064912-1.4752.575455-2.293114,1.887581-2.883563,2.629951-1.183527,5.206087-2.486592,7.955812-3.813345,1.025295,1.876291,1.102067,4.105516,1.231962,6.249864.502855,8.30081-1.357401,16.115652-5.158539,23.489451-1.385507,2.687777-1.59308,2.775957-4.500381,1.737859-3.919244-1.399378-7.061301-3.904651-9.919278-7.003214Z"/>
  <path class="cls-1" d="M105.605783,186.562355c-2.690495,10.944568,1.204407,19.454145,9.434355,26.443012-1.058053,2.837857-3.077802,4.735314-5.096042,6.627444-12.219449-8.164047-19.056238-27.460423-13.960037-38.540778,2.492936.58997,5.8676,2.494867,9.621723,5.470322Z"/>
  <path class="cls-1" d="M74.796482,267.588195c3.494066-.775546,6.830646-1.516147,10.361838-2.299933.326105,1.837403.808241,3.50111.886451,5.183638.282446,6.075243.49483,12.155813.589482,18.236597.031266,2.00833-.493552,4.019964-.550723,6.036178-.082117,2.896739-1.891257,4.645465-4.076215,6.447213-.328555-.43696-.722537-.914049-1.0659-1.425161-2.204844-3.282133-4.361253-6.597755-6.621724-9.840858-.578918-.830557-1.065545-1.450873-.703238-2.584787,2.039564-6.383359,1.624808-12.936971,1.180029-19.752886Z"/>
  <path class="cls-1" d="M120.350677,2.093096c-3.666715,8.903929-8.567967,16.36241-17.418167,20.886614-.588168-.88499-1.059686-1.474392-1.403102-2.130835-2.10602-4.025513-4.189563-8.062842-6.266092-12.103688-.711813-1.385191-.534459-2.12185.884427-3.212721,7.283291-5.599529,15.154323-7.31687,24.202935-3.439369Z"/>
  <path class="cls-1" d="M90.204541,366.326876c.484603-4.715356.951416-9.257654,1.45136-14.122273,1.132872,0,2.386779-.237586,3.514911.038674,7.187361,1.759984,13.33801,5.462101,18.716231,10.46018,1.183385,1.099715,2.050199,2.542526,3.048541,3.838347.870667,1.130185.715791,2.150349-.416176,2.996284-2.618961,1.957191-5.165623,4.039922-8.65976,5.129231-3.992004-6.098931-10.318924-7.692391-17.655107-8.340444Z"/>
  <path class="cls-1" d="M41.918083,317.36145c1.352394-4.103066,3.155382-7.588372,5.885506-10.533303,1.602384-1.728483,1.665538-1.664523,3.622754-.432236,4.877496,3.070898,8.289002,7.497066,11.067011,12.394394,1.793906,3.162452,3.144028,6.576624,4.684464,9.859752-2.719667,2.587842-5.818472,3.743774-8.76526,5.13225-.997863.470165-1.560908-.197562-1.92911-1.152523-.657927-1.706323-1.258169-3.465774-2.166511-5.038956-2.788893-4.830278-6.629625-8.497307-12.398854-10.229377Z"/>
  <path class="cls-1" d="M157.294026,236.391721c-.167074.329282-.431232.609343-.756591,1.059371"/>
  <path class="cls-1" d="M115.18358,282.550507c1.929678,2.519016,3.652937,4.940512,5.561061,7.206352,1.599756,1.899659,3.807388,2.982753,6.212526,3.463075,2.140589.427442,3.736936,1.425161,4.680647,3.399896,1.037901,2.171764,2.095918,4.335609,3.057259,6.541217.245782.563956.159635,1.272595.243118,2.080352-4.942692.619926-9.562883.111726-14.109711-1.349979-5.114098-1.644032-9.240791-4.702713-12.736437-8.713408-2.063941-2.368012-2.061988-2.838852.013547-5.033877,1.654157-1.74933,3.222185-3.579843,4.853917-5.350872.769233-.83489,1.598229-1.614698,2.224073-2.242756Z"/>
  <path class="cls-1" d="M43.650495,292.963916c3.643652-1.4361,7.147643-2.509783,10.351274-4.16493,3.302064-1.706003,5.768155-4.478018,7.480388-8.150801,3.681736,2.223507,6.612189,5.199229,9.520414,8.371305-3.137938,7.408957-8.211572,12.379016-16.191691,13.99169-2.296655.464127-4.316582.208927-5.952078-1.854663-1.981647-2.500301-3.919368-4.989201-5.208306-8.1926Z"/>
  <path class="cls-1" d="M69.01526,265.684843c-5.866997-.351407-11.278863-1.437662-16.270683-4.209926-1.186368-.65892-1.756763-1.28854-1.152669-2.733341,3.652884-8.736456,9.740344-15.408576,17.413231-20.758312.131919-.09198.352489-.056857.858345-.125043-.137725,9.235635.39487,18.433377-.848225,27.826622Z"/>
  <path class="cls-1" d="M3.311868,150.331045c9.356456-2.908885,17.630073-7.078094,23.024326-15.917842,2.412764,1.752881,4.734435,3.410106,7.021636,5.113623,1.149988.856482,1.132632,1.741694.250709,2.950542-3.256079,4.463049-7.564414,7.751734-12.097313,10.695849-3.386329,2.199429-7.103717,3.892505-10.695524,5.769258-.764688.399546-1.610986.661352-2.442619.909877-1.166145.348442-2.107893.136106-2.511472-1.196241-.806731-2.663237-1.628856-5.321786-2.549743-8.325066Z"/>
  <path class="cls-1" d="M3.064657,147.577301c-.394559-8.312974-.570546-16.416169,2.932966-24.379298,6.433921,3.043304,12.541994,6.049407,18.143137,9.911015-1.854726,6.115551-14.232416,14.714605-21.076103,14.468282Z"/>
  <path class="cls-1" d="M83.946705,391.131681c2.106517-7.980513,4.038149-15.298449,6.02617-22.83007,5.138724.138326,9.820721,1.33485,13.747581,4.588324,2.653263,2.198257,2.815508,4.169583,1.144856,7.174496-3.231382,5.812123-8.425431,8.861215-14.685717,10.305731-1.925701.444275-3.942379.494172-6.232891.761518Z"/>
  <path class="cls-1" d="M92.671946,146.954925c-4.029449-5.424083-6.130054-10.994926-7.059099-16.969631-.501861-3.227424-.526132-6.537772-.630851-9.81504-.061255-1.916173.446004-2.449694,2.308427-2.583775,2.576278-.185541,5.163439-.219847,7.905033-.324985,1.371392,6.736808,2.011209,13.771345,6.83512,19.60673-3.107914,3.349697-6.10486,6.579785-9.35863,10.086701Z"/>
  <path class="cls-1" d="M111.404227,325.18794c2.728207,1.074393,4.193416,3.048382,5.768759,4.829354.415927.4702.405665,1.474135.32053,2.201276-.245657,2.097683-.888759,4.177751-.900442,6.267372-.019548,3.490775.641042,6.950725,2.494694,9.965227,1.507395,2.451469,3.307036,4.732544,5.089064,7.001225.724455.922253,1.229654,1.761546.636781,2.870388-1.404505,2.626871-2.577947,5.418987-5.130699,7.477072-2.738735-1.735515-4.111761-4.499433-5.468647-7.217468-2.612924-5.233961-4.034651-10.871925-4.646344-16.630245-.591133-5.564522-.343363-11.158484,1.836305-16.764202Z"/>
  <path class="cls-1" d="M117.545005,107.653996c-2.031237,0-3.967679-.018574-5.903536.006748-1.220706.015963-2.063018-.359895-2.244527-1.714651-.076044-.567525-.259755-1.134411-.479241-1.666654-1.466327-3.555907-1.855445-7.041693-.900318-10.945225.740346-3.025778.211479-6.362779.241148-9.56149.009676-1.04284.001491-2.085857.001491-3.62301,1.352714.32067,2.464084.308134,3.237294.813315,4.243378,2.772477,7.755874,6.40069,11.201398,10.070667.470151.500777.680245,1.689134.436434,2.345905-1.744707,4.70012-3.638201,9.344964-5.590144,14.274396Z"/>
  <path class="cls-1" d="M74.463559,24.913186c4.205027-8.052925,9.344977-14.349738,18.275127-16.698617,2.891907,5.198634,5.789052,10.176888,8.097195,15.771499-8.697792,3.446898-17.21395,3.488707-26.372322.927118Z"/>
  <path class="cls-1" d="M157.636164,93.515973c.215669,4.377657-1.30094,7.627188-2.989098,10.734203-1.234359,2.271841-2.913746,4.306008-4.439126,6.41399-.928033,1.282521-2.062574,1.957031-3.714689,1.138762-.672877-.333224-1.499352-.592758-2.229186-.536806-5.540554.424583-6.342083-4.433324-8.511897-7.686638-.289778-.434474.205425-1.678746.674919-2.287343,3.173146-4.112921,7.513679-6.272237,12.563327-7.002504,2.727479-.394467,5.496398-.50218,8.645752-.773664Z"/>
  <path class="cls-1" d="M118.911781,328.420318c-1.837193-1.532057-3.360247-2.702728-4.765888-4.000573-1.599152-1.47655-1.691638-1.887904-.696917-3.764372,2.614557-4.932273,6.488136-8.669158,11.549573-10.934891,2.598454-1.163248,5.490769-1.712609,8.290209-2.369255,1.902016-.446158,2.708747.206547,2.808868,2.23956.15603,3.168596.267638,6.357825-.944971,9.761343-7.065935-.465548-11.867262,3.729604-16.240873,9.068189Z"/>
  <path class="cls-1" d="M103.319851,138.462359c2.487024,1.524191,4.592636,2.883706,6.765379,4.125776,1.95276,1.116299,4.03719,1.884903,6.35627,1.701155,1.231146-.097556,2.040451.352384,2.320056,1.644742.422372,1.952379.902502,3.892257,1.339007,5.755958-9.300199,4.192666-20.9987,2.972987-25.865969-3.338564,2.99185-3.256563,6.023577-6.556524,9.085258-9.889068Z"/>
  <path class="cls-1" d="M129.754316,263.033112c.902732,2.764238,1.753318,5.188255,1.759337,7.814878.009339,4.068049.115585,8.140857-.04895,12.202336-.088846,2.192469-.527517,4.396195-1.043742,6.538128-.449999,1.867306-1.163251,2.251812-2.934572,1.806542-2.786052-.700435-5.216367-2.054747-6.949427-4.425281-.625169-.855097-1.090722-1.825258-1.689188-2.701911-1.695579-2.483893-1.484349-4.576746.492984-7.018911,3.275361-4.04532,6.124763-8.4353,9.161409-12.67449.31824-.444275.68875-.851119,1.25215-1.541291Z"/>
  <path class="cls-1" d="M118.242739,245.276233c3.012748,2.814809,5.474364,5.869442,7.545229,9.230273.809483,1.31372,1.512845,2.692358,2.297862,4.021739.662384,1.121698.659152,2.230717-.084531,3.268709-3.64635,5.089421-7.318161,10.160658-10.988694,15.232677-.037285.051495-.178615.027701-.585167.077526-2.205785-10.737471-.37431-21.240125,1.815301-31.830924Z"/>
  <path class="cls-1" d="M16.294318,108.201794c4.092044,4.852065,8.276467,9.611653,9.605699,16.174285.464611,2.293807.12147,4.328595-.759485,6.599442-.646617-.279137-1.164547-.459777-1.642243-.715582-5.023344-2.689854-10.024601-5.421633-15.072411-8.064521-.983295-.514805-1.738111-.984508-1.201299-2.171267,1.968908-4.352762,4.419871-8.378248,8.109046-11.520919.195784-.166772.528946-.172241.960693-.30144Z"/>
  <path class="cls-1" d="M41.679172,272.25479c1.051128.07845,1.94746-.004333,2.751191.230235,4.45207,1.29923,8.820443,2.83459,12.841919,5.197169,2.471168,1.451797,2.553534,2.127372,1.115721,4.584808-2.155841,3.684751-5.858687,5.158068-9.448399,6.808848-.607911.279599-1.274432.447933-1.928364.608561-4.947948,1.215418-4.529774,1.105858-5.501653-3.384376-.974569-4.502807-1.420449-9.128242.169586-14.045244Z"/>
  <path class="cls-1" d="M142.653247,52.17848c-1.870963-2.671192-2.41002-5.709187-2.768155-8.565795-.535312-4.270024-.787609-8.669229.400818-12.926592.383649-1.374315,1.045056-2.696833,1.745968-3.949851.753165-1.346428,1.449851-1.488855,2.525428-.526605,3.653932,3.268797,6.294252,7.277343,8.197031,11.765741.217516.513101.050531,1.347298-.225506,1.885107-1.430001,2.786087-6.3274,10.001229-9.875583,12.317995Z"/>
  <path class="cls-1" d="M86.969662,368.468738c.52267,3.359837-2.95302,17.03581-5.516745,21.881892-3.238466-.636368-6.230192-1.8949-8.872482-3.931925-1.755041-1.352998-1.886409-1.954598-1.09255-3.967261,1.853882-4.700156,4.788224-8.565813,8.897251-11.525091,1.95837-1.410388,3.456905-1.982548,6.584527-2.457613Z"/>
  <path class="cls-1" d="M135.578577,144.596502c-4.217918-8.058998-5.763539-16.544639-5.088531-25.681138,3.758118-.728704,7.125751.500884,10.801823,1.137501.555801,8.835326-1.584433,16.874241-5.713292,24.543637Z"/>
  <path class="cls-1" d="M132.960042,61.956444c3.082329-2.071243,6.030165-4.052103,9.157645-6.153675,3.965194,3.26585,8.454602,5.530322,13.695009,6.276694-.199317,1.105361-.309788,1.849514-.469672,2.582923-.914468,4.194708-.905005,4.272945-5.041818,4.976523-6.284131,1.068782-13.404716-1.253222-17.341164-7.682465Z"/>
  <path class="cls-1" d="M107.588921,187.72745c2.378967,1.717563,4.558582,3.255462,6.697981,4.847413,1.626051,1.209931,3.273159,2.409599,4.764734,3.773695.635591.581305,1.378902,1.656994,1.251777,2.359312-.738162,4.078668-1.68846,8.123846-3.681186,11.823619-.082543.153241-.294412.236805-.446164.352686-5.310752-1.875652-11.981497-15.006793-8.587143-23.156724Z"/>
  <path class="cls-1" d="M54.531452,334.827933c-4.696378,1.989757-9.59486,1.510643-14.687572,1.41053-.582007-5.436389-.424343-10.592788,1.018122-15.65948.411995-1.447144,1.512881-1.182106,2.590127-.667123,4.263805,2.03841,7.4228,5.214713,9.516214,9.414198.835086,1.675213,2.201027,3.260114,1.56311,5.501876Z"/>
  <path class="cls-1" d="M71.884068,286.461231c-3.179236-2.621295-5.968147-4.836706-8.636466-7.188915-.559742-.493462-.858398-1.465931-.964502-2.259518-.443856-3.31999-.768594-6.655855-1.150556-10.10856,3.50218.316533,7.344705.66382,11.365418,1.027231,1.47698,6.083908,1.007256,12.097962-.613895,18.529761Z"/>
  <path class="cls-1" d="M46.354413,260.494457c3.606402,1.688672,6.926328,3.234402,10.23576,4.802222.507756.240569,1.162327.467111,1.417856.897003,1.919522,3.229253,2.147212,6.820212,2.477099,10.941638-3.451028-1.68054-6.314155-3.286039-9.337964-4.486897-2.92937-1.163391-6.023986-1.910668-9.018916-2.832317.912462-4.302474,2.123305-6.89337,4.226165-9.321649Z"/>
  <path class="cls-1" d="M40.614142,339.000641c5.124387-.600855,9.676346-1.134589,14.256944-1.671697,1.565453,5.017399-1.815834,12.736141-7.58951,16.585284-3.623393-4.318988-5.843347-9.207544-6.667434-14.913588Z"/>
  <path class="cls-1" d="M109.308221,117.259861c.101487,6.624248-.284701,12.875177-5.903128,17.401103-2.76203-2.173682-4.037261-5.754537-6.050725-16.982167,1.614457-.869657,7.288369-1.106231,11.953853-.418936Z"/>
  <path class="cls-1" d="M130.987326,63.271211c2.787899,2.501579,5.204471,5.905186,9.283012,7.281925-2.93198,1.061733-23.379088,2.44252-26.965604,1.850472-.437624-2.338376-.42429-2.451114,1.2663-3.080859,5.398053-2.010745,10.808783-3.987469,16.416291-6.051538Z"/>
  <path class="cls-1" d="M154.008154,41.604425c2.487095,6.309251,3.134067,14.190175,1.475276,18.289885-4.032982-.267666-7.423377-2.191101-10.621433-4.525322-.900566-.657304-.58467-1.498444.093231-2.251297,1.2266-1.362196,2.483224-2.705853,3.604466-4.152483,1.824054-2.35347,3.549266-4.78356,5.448459-7.360783Z"/>
  <path class="cls-1" d="M105.45728,94.989664c-2.335538-4.041254-4.513608-8.087089-8.238418-11.376929-.964289,1.941689-1.798185,3.620773-2.672953,5.382195-2.070439-.889172-3.905413-1.677237-5.829871-2.50371,1.677824-2.013942,3.268099-3.922816,5.001621-6.003612h12.713214c-.015695,4.939021.501914,9.707292-.973592,14.502056Z"/>
  <path class="cls-1" d="M125.483382,93.53776c2.364071,2.981563,4.566358,5.637857,6.595056,8.420722.40199.551438.152923,1.588488.168299,2.402265.003302.174496-.154734.349383-.228062.528354-1.741138,4.25066-1.743766,4.280421-6.057294,3.857844-1.903987-.186518-3.793468-.52102-5.889616-.816547.891067-5.017239,2.869465-9.544799,5.411618-14.392638Z"/>
  <path class="cls-1" d="M108.347732,185.708164c1.755378-4.23111,4.267969-6.49821,8.95973-8.087959,2.739215,5.262336,3.462338,10.882668,3.067095,17.157107-4.128149-3.112946-8.013889-6.043068-12.026826-9.069147Z"/>
  <path class="cls-1" d="M107.654774,107.449757c-3.517858.188524-6.809624.36492-10.349552.554634-.584759-5.860759.993176-11.103527,3.380577-16.922575,3.450283,5.311807,5.805245,10.397516,6.968975,16.367941Z"/>
  <path class="cls-1" d="M125.682841,336.583762c-1.989051-2.327953-3.661726-4.285641-5.280586-6.180363,3.44295-6.25274,8.459272-9.276511,13.94681-8.327375-1.615593,5.506244-4.757952,9.997225-8.666223,14.507738Z"/>
  <path class="cls-1" d="M119.540803,332.422419c6.309539,6.266129,8.656351,13.264016,6.416388,22.049551-6.262133-6.378387-8.814832-13.331527-6.416388-22.049551Z"/>
  <path class="cls-1" d="M124.583349,89.76126c-3.125048-2.893188-6.407226-5.931839-10.094093-9.345141,7.211792-.472491,13.803083-.904336,20.456926-1.340266-3.427467,3.534155-6.780968,6.992027-10.362832,10.685408Z"/>
  <path class="cls-3" d="M71.199206,119.468897c3.170855-.358634,6.087016-.688467,9.562457-1.081549-2.736037,6.863308-5.902009,13.044897-9.577087,19.733176.254055-6.756376-.742263-12.880806.01463-18.651626Z"/>
  <path class="cls-1" d="M76.714069,55.6974c6.200932-1.268617,14.767141,4.988491,15.079628,10.829806-.681275.212087-1.466594.313852-2.099469.6795-2.186006,1.262971-3.874999.532935-5.305443-1.220514-2.367728-2.902403-4.700781-5.833378-7.019949-8.774757-.273959-.347465-.369232-.835813-.654767-1.514034Z"/>
  <path class="cls-1" d="M94.621509,108.008848c-2.188829.269921-4.253055.524501-6.881123.848598,3.030201-7.604992,6.631365-14.389247,9.64951-21.452425,2.342516,1.295288,2.474844,1.432797,1.519859,3.276717-2.266472,4.376165-3.358774,9.015735-3.546337,13.920165-.042985,1.123438-.475264,2.23196-.741908,3.406945Z"/>
  <path class="cls-1" d="M93.715883,90.981331c-1.355466,2.980462-2.532032,5.616496-3.754141,8.231221-.504329,1.079063-1.420165,1.482463-2.609497,1.438088-1.144484-.042705-1.488681-.885976-1.668414-1.708063-.635662-2.907198-1.212929-5.829169-1.720933-8.761369-.220215-1.271157.665775-1.648507,1.764344-1.738676,2.946007-.241723,5.431787.858204,7.988641,2.538797Z"/>
  <path class="cls-1" d="M104.739501,136.531679c1.598318-2.031485,3.003036-3.816879,4.572377-5.811537,3.831499,3.103428,6.166292,6.880923,7.879431,11.702269-5.305106-.019532-8.780565-2.704291-12.451808-5.890732Z"/>
  <path class="cls-1" d="M111.39883,117.12791h4.389093c-.201536,2.845741-.462871,5.494844-.556511,8.14986-.093924,2.663681-.020631,5.333257-.020631,8.516431-1.614528-1.741481-2.982724-2.954129-3.993548-4.414254-.536572-.775031-.662792-1.990414-.61022-2.987814.1569-2.975739.493694-5.941978.791817-9.264224Z"/>
  <path class="cls-1" d="M102.769413,73.135419h-7.103895c-.299881-1.535467-.595767-3.050602-.942823-4.82765,2.965111-.141753,5.279219.588176,7.454111,1.744198,1.171933.622891.867524,1.760978.592607,3.083452Z"/>
  <path class="cls-1" d="M83.744228,86.284069c.220658-1.859511.441317-3.719039.684755-5.770465h6.279639c-1.042499,3.362855-3.666094,4.660292-6.171387,6.081902-.264336-.103806-.528671-.207613-.793007-.311437Z"/>
  <path class="cls-1" d="M93.547016,72.696294c-2.303757.92101-4.37267.52102-6.427946.429502-.102357-3.041528,1.566164-4.280918,5.733604-4.261083.210485,1.161544.426793,2.355103.694343,3.831582Z"/>
  <path class="cls-1" d="M132.477836,109.280538c.458202-1.44757.689602-2.268645.987299-3.064914.090674-.242558.36403-.416806.839525-.932073.952677,1.516307,1.826558,2.907198,3.08588,4.911586-1.97387-.367477-3.297128-.613835-4.912704-.9146Z"/>
  <path class="cls-1" d="M126.228895,26.703303c.107062-.074081.214125-.148163.321205-.222226-.073701.107171-.147384.214351-.220126.322339.000923.000799-.101079-.100113-.101079-.100113Z"/>
  <path class="cls-1" d="M111.170004,357.226406l.22579.284144c-.090692-.079231-.181384-.158497-.272396-.237337-.000337.000391.046607-.046807.046607-.046807Z"/>
  <path class="cls-1" d="M67.416019,358.612112l-.156066.032282c.014133-.052844.011754-.126926.046198-.153703.055307-.043114.134973-.054904.204359-.079906-.031515.067085-.063012.134206-.094492.201327Z"/>
</svg>