<?xml version="1.0" encoding="UTF-8"?>
<svg id="Layer_1" xmlns="http://www.w3.org/2000/svg" viewBox="0 0 124.8381 111.6612">
  <defs>
    <style>
      .cls-1 {
        fill: #141814;
      }

      .cls-2 {
        fill: #b0d359;
      }

      .cls-3 {
        fill: #b8d433;
      }

      .cls-4 {
        fill: #809e8f;
      }
    </style>
  </defs>
  <path class="cls-1" d="M30.4868,8.2736C38.0536.1884,46.6995-1.3817,56.2453,4.6204c5.3777,3.3813,9.6812,4.3245,14.4481-.5854,1.4177-1.4603,3.6547-2.1253,5.5163-3.1548,6.9802-1.673,13.9857-1.2847,18.9754,4.022,3.5657,3.7922,5.4319,9.1825,8.0564,13.8597.1055.727.2111,1.454.3167,2.181l1.4912,4.3317c5.0445-1.494,9.4733.1401,13.72,2.7002,1.2994,1.0207,2.5989,2.0414,3.8984,3.0621,0,0,.1425.1854.1425.1854,4.4237,13.0142,1.139,24.8958-5.3043,36.3267-.0977.1732.1873.5621.2937.8504l-.0853.1247c-4.2426,4.9021-8.4852,9.8041-12.7278,14.7061-9.975,8.0786-21.8903,11.9448-34.2148,15.7135.7701,4.1351,1.9076,8.9087-3.7287,10.5065-10.6249,3.012-11.4708,3.6685-15.9623-2.6917.046-2.2924.092-4.5847.1379-6.8771-11.9664-6.9613-23.9973-13.8161-35.8404-20.9813-2.1549-1.3038-4.2288-3.599-5.1627-5.9119-3.5965-8.9084-7.4052-17.8363-9.7349-27.1086-1.2578-5.0064.3177-10.7246.6149-16.1217,1.0826-1.7803,2.5089-3.4415,3.1761-5.3659,1.3758-3.9678,3.8208-6.5455,7.9562-7.3352,4.8353-.9234,9.6919-1.7354,14.4571-2.5811,1.1912-1.9432,2.4966-4.0727,3.8021-6.2022ZM35.1557,77.4618c-1.6271-3.8816-3.6008-7.6623-4.7698-11.6773-.9036-3.1036-.799-6.5007-1.1427-9.7673.3646-1.2523.7957-2.4896,1.0835-3.7594,2.8153-12.4236,15.2473-18.2752,26.3851-12.4412,1.1514.6031,2.4296,1.1311,3.7021,1.3048,3.6209.4945,7.8646-3.0188,7.8705-6.7724.0065-4.1236-3.5626-4.6725-6.3882-4.7067-5.2802-.0638-10.5864.4357-15.8495,1.0012-4.6567.5003-8.3458-.6612-11.5695-4.2591-2.0874-2.3297-4.7603-4.3277-7.527-5.8093-3.8179-2.0446-13.8276-.8051-15.5205,2.0484-3.626,6.112-7.9737,12.4313-6.0008,19.978,2.121,8.1137,4.8525,16.1343,8.1298,23.8505,1.5708,3.6985,5.0144,6.6017,7.6098,9.865,3.8702,2.4918,7.7404,4.9836,11.6106,7.4754,3.0399,1.1095,5.0296,5.369,9.7463,3.5874-2.7486-3.6991-5.0591-6.8086-7.3698-9.9182ZM114.3954,63.2597c-.3116-.6648-.6234-1.3296-.935-1.9944-2.7975-.49-5.5774-1.192-8.3961-1.4253-5.5999-.4635-7.8967-2.5556-7.673-8.1131.1794-4.453,1.155-8.8814,1.2103-13.3277.0188-1.5128-1.371-3.9096-2.6763-4.3933-2.7744-1.0279-5.9484-.9112-8.8998-1.5398-7.6194-1.6229-11.1074-.1848-14.881,6.3955-4.5603,7.9519-11.0397,9.5691-19.2324,5.0935-1.9202-1.049-4.402-1.9661-6.4628-1.6972-6.8223.8904-12.6923,9.9706-11.8273,16.7662,1.6248,12.7656,7.9691,22.7074,17.7542,30.5888,2.5727,2.0722,5.9979,4.8652,8.7745,4.603,13.3647-1.2621,26.2518-5.1771,36.9905-13.3038,6.2765-4.7498,10.8917-11.6949,16.2542-17.6523ZM99.1427,28.5151c-1.4171-5.6512-2.0273-10.2658-3.739-14.4275-2.9748-7.2327-10.3662-10.1572-17.7117-7.3281-2.5742.9914-4.9473,2.6568-7.1959,4.3089-4.2912,3.1528-8.5594,3.0498-12.9805.4537-2.0045-1.1771-3.91-2.5761-6.0224-3.507-8.8345-3.8933-15.9142-.6888-19.1401,8.19,1.8643,2.0744,3.7981,3.8813,5.3118,5.9897,2.3762,3.3098,5.2144,3.6596,9.108,3.0848,7.261-1.0718,13.2193-4.6453,19.4243-8.1037,7.5557-4.2112,17.9308-2.0142,21.719,4.8241,2.297,4.1466,5.5583,5.1578,11.2266,6.515ZM117.3662,56.6785c.6202-4.9274,1.3353-9.8878,1.8457-14.8692.5032-4.9121-2.1108-8.2734-6.0783-10.5876-4.0704-2.3743-9.5588-.3274-9.8206,3.5052-.3842,5.6274-.7939,11.2619-.8342,16.896-.0076,1.0657,1.4905,2.827,2.5789,3.0906,3.655.8853,7.4387,1.2386,12.3085,1.9649ZM72.7938,28.8951c3.6122-1.2569,7.2626-2.5272,10.9041-3.7943-2.8071-6.1939-14.4945-6.7952-19.0692-1.1579,2.7615,1.6749,5.5609,3.3727,8.165,4.9521ZM66.6546,104.7555c-1.2954-4.2212-3.3248-6.1881-6.5118-4.7829-1.641.7235-2.5153,3.186-3.7361,4.8626l1.14,1.2147c2.848-.4047,5.6959-.8095,9.1078-1.2944Z"/>
  <path class="cls-4" d="M114.3954,63.2597c-5.3625,5.9575-9.9777,12.9026-16.2542,17.6523-10.7388,8.1266-23.6259,12.0416-36.9905,13.3038-2.7766.2622-6.2018-2.5308-8.7745-4.603-9.785-7.8814-16.1293-17.8232-17.7542-30.5888-.865-6.7956,5.0049-15.8758,11.8273-16.7662,2.0607-.2689,4.5426.6482,6.4628,1.6972,8.1927,4.4756,14.6721,2.8584,19.2324-5.0935,3.7737-6.5803,7.2617-8.0183,14.881-6.3955,2.9514.6286,6.1254.5119,8.8998,1.5398,1.3054.4836,2.6951,2.8805,2.6763,4.3933-.0553,4.4463-1.0309,8.8747-1.2103,13.3277-.2238,5.5575,2.0731,7.6496,7.673,8.1131,2.8187.2333,5.5986.9353,8.3961,1.4253.3116.6648.6234,1.3296.935,1.9944Z"/>
  <path class="cls-3" d="M29.2433,56.0172c.3437,3.2666.2391,6.6637,1.1427,9.7673,1.169,4.015,3.1426,7.7957,4.7707,11.6793.3291,1.9342.6573,3.8665,1.0051,5.9137-1.1607.1424-2.2716.2787-3.3826.415-3.8702-2.4918-7.7404-4.9836-11.6113-7.4764-4.8724-4.1006-4.3502-10.7272-7.1356-15.9728-5.3459-10.0675-7.4052-21.7777-2.5943-33.3196,2.3979-5.7527,9.9524-6.8492,14.5159-2.5749,3.0444,2.8515,6.7326,5.1353,10.4246,7.1341,2.5408,1.3756,5.5818,1.8274,9.71,3.0944-10.2576,2.3454-19.1835,10.8216-16.8452,21.3398Z"/>
  <path class="cls-4" d="M99.1427,28.5151c-5.6683-1.3572-8.9296-2.3684-11.2266-6.515-3.7881-6.8383-14.1633-9.0353-21.719-4.8241-6.205,3.4584-12.1633,7.0319-19.4243,8.1037-3.8936.5747-6.7318.225-9.108-3.0848-1.5137-2.1084-3.4474-3.9153-5.3118-5.9897,3.2258-8.8788,10.3056-12.0833,19.1401-8.19,2.1124.9309,4.0179,2.3299,6.0224,3.507,4.4211,2.5961,8.6893,2.6991,12.9805-.4537,2.2487-1.6521,4.6217-3.3175,7.1959-4.3089,7.3455-2.829,14.7369.0954,17.7117,7.3281,1.7116,4.1616,2.3218,8.7762,3.739,14.4275Z"/>
  <path class="cls-2" d="M29.2433,56.0172c-2.3383-10.5183,6.5876-18.9944,16.8452-21.3398-4.1282-1.267-7.1691-1.7189-9.71-3.0944-3.692-1.9988-7.3802-4.2826-10.4246-7.1341-4.5635-4.2743-12.118-3.1778-14.5159,2.5749-4.8109,11.5419-2.7516,23.2521,2.5943,33.3196,2.7854,5.2456,2.2631,11.8722,7.1356,15.9728-2.5947-3.2623-6.0383-6.1655-7.6091-9.864-3.2773-7.7162-6.0088-15.7368-8.1298-23.8505-1.9729-7.5466,2.3748-13.8659,6.0008-19.978,1.6929-2.8536,11.7026-4.0931,15.5205-2.0484,2.7667,1.4816,5.4396,3.4796,7.527,5.8093,3.2237,3.5979,6.9128,4.7595,11.5695,4.2591,5.2631-.5655,10.5693-1.0651,15.8495-1.0012,2.8256.0341,6.3947.583,6.3882,4.7067-.0059,3.7536-4.2496,7.2669-7.8705,6.7724-1.2725-.1738-2.5507-.7017-3.7021-1.3048-11.1378-5.8339-23.5698.0177-26.3851,12.4412-.2878,1.2698-.7189,2.507-1.0835,3.7594ZM48.9876,31.8179c3.7242,2.3079,6.1378,4.0787,8.794,5.3366,1.3813.6541,3.294.8026,4.7726.4233,1.0297-.2641,2.382-1.8067,2.3929-2.7915.0109-.9809-1.4149-2.7686-2.31-2.8335-4.1884-.3038-8.4111-.1349-13.6495-.1349ZM8.026,36.8939c-.1483.0046-.2967.0093-.445.0139v5.5844c.1483-.0091.2967-.0182.445-.0274v-5.571Z"/>
  <path class="cls-2" d="M117.3662,56.6785c-4.8698-.7262-8.6536-1.0796-12.3085-1.9649-1.0884-.2636-2.5865-2.0249-2.5789-3.0906.0403-5.6341.45-11.2687.8342-16.896.2617-3.8326,5.7501-5.8795,9.8206-3.5052,3.9675,2.3142,6.5815,5.6755,6.0783,10.5876-.5104,4.9814-1.2255,9.9418-1.8457,14.8692ZM105.2562,42.5585c-.0124,0-.0248,0-.0372,0,0,2.1596-.661,4.6348.1786,6.3935.9109,1.9078,3.0071,3.8006,4.994,4.447,1.2881.4191,4.4052-1.0619,4.7909-2.2913,1.1415-3.638,1.8535-7.5891,1.7426-11.3888-.0996-3.4129-4.9407-6.2648-8.4973-6.0366-4.8638.3122-2.6223,4.0241-3.144,6.3903-.1747.7921-.0276,1.6552-.0276,2.4858Z"/>
  <path class="cls-2" d="M32.7792,83.7925c1.111-.1363,2.2219-.2726,3.3826-.415-.3478-2.0472-.676-3.9795-1.0051-5.9137,2.3097,3.1075,4.6202,6.2171,7.3688,9.9162-4.7167,1.7816-6.7064-2.4779-9.7463-3.5875Z"/>
  <path class="cls-3" d="M48.9876,31.8179c5.2385,0,9.4611-.1689,13.6495.1349.8951.0649,2.3209,1.8526,2.31,2.8335-.0109.9848-1.3632,2.5274-2.3929,2.7915-1.4786.3793-3.3914.2308-4.7726-.4233-2.6562-1.2579-5.0698-3.0287-8.794-5.3366Z"/>
  <path class="cls-3" d="M8.026,36.8939v5.571c-.1483.0091-.2967.0182-.445.0274v-5.5844c.1483-.0046.2967-.0093.445-.0139Z"/>
  <path class="cls-3" d="M105.2562,42.5585c0-.8306-.1471-1.6937.0276-2.4858.5218-2.3662-1.7198-6.0781,3.144-6.3903,3.5565-.2283,8.3976,2.6237,8.4973,6.0366.1109,3.7997-.6011,7.7508-1.7426,11.3888-.3857,1.2295-3.5028,2.7104-4.7909,2.2913-1.9869-.6464-4.0831-2.5391-4.994-4.447-.8397-1.7587-.1786-4.2339-.1786-6.3935.0124,0,.0248,0,.0372,0Z"/>
</svg>