<?xml version="1.0" encoding="UTF-8"?>
<svg id="Layer_1" xmlns="http://www.w3.org/2000/svg" viewBox="0 0 153.533 153.654">
  <defs>
    <style>
      .cls-1 {
        fill: #92b63e;
      }

      .cls-2 {
        fill: #f37221;
      }

      .cls-3 {
        fill: #737a73;
      }

      .cls-4 {
        fill: #d6df24;
      }

      .cls-5 {
        fill: #d1e3db;
      }

      .cls-6 {
        fill: #fff;
      }

      .cls-7 {
        fill: #54c8e7;
      }

      .cls-8 {
        fill: #9daeae;
      }

      .cls-9 {
        fill: #50803b;
      }

      .cls-10 {
        fill: #97873b;
      }

      .cls-11 {
        fill: #efea4a;
      }

      .cls-12 {
        fill: #4c6744;
      }

      .cls-13 {
        fill: #88c15f;
      }

      .cls-14 {
        fill: #f7e200;
      }
    </style>
  </defs>
  <path class="cls-6" d="M151.547,61.5182c-.042-3.407-.807-6.6244-2.5176-9.5937-.1321-2.5439-.9149-4.863-2.1443-7.1031-4.0101-7.3072-8.0218-14.6006-14.2049-20.3896-1.0506-1.2742-1.967-2.6948-3.1724-3.8001C115.5627,7.8453,99.2019.7339,80.2159.0755c-7.7381-.2683-15.455.0607-22.8133,2.942l.0577-.005c-2.8536.1136-5.5084.8541-7.8772,2.4966-5.055,1.6248-10.1088,3.252-13.9582,7.21-.7608.3302-1.6057.541-2.27,1.0084-12.4291,8.7438-21.8653,19.9696-27.6244,34.0767-2.5948,6.3563-4.9586,12.8481-5.0105,19.8812-.1786,1.0312-.4516,2.0561-.5216,3.0946-.8892,13.207,1.1853,25.9516,6.6965,37.9782,2.8642,6.2503,5.9701,12.4773,11.0408,17.3876.4576.4763.9151.9526,1.3727,1.429.3485.3847.697.7694,1.0455,1.1541.4774.4775.9549.9549,1.4324,1.4324,1.227,1.1857,2.454,2.3715,3.6809,3.5572,5.8913,6.5657,13.3486,10.9296,21.4003,14.0161,26.2612,10.0671,51.2394,7.4447,74.2405-9.0273,22.5883-16.1764,32.958-38.5969,32.4037-66.1935-.0494-2.4581-.8585-4.901-1.3148-7.3509-.2167-1.2149-.4334-2.4297-.6501-3.6446Z"/>
  <path class="cls-3" d="M152.1971,65.1628c.4563,2.4499,1.2654,4.8928,1.3148,7.3509.5543,27.5966-9.8154,50.017-32.4037,66.1935-23.0011,16.472-47.9794,19.0944-74.2405,9.0273-8.0517-3.0866-15.509-7.4504-21.3999-14.0162,1.6877-.1286,3.3751-.257,5.0628-.3854,2.5167,1.7597,4.9618,3.6354,7.5749,5.2373,1.7025,1.0436,3.6493,1.689,5.4866,2.5127,1.6962.8174,3.3925,1.6348,5.0888,2.4522.6115,1.0268,1.545,1.2343,2.6378,1.0364,12.1628,4.8635,24.6179,6.3853,37.748,3.273.1417-3.7121-2.7804-5.3738-4.9277-7.491-3.2602-3.2147-7.0965-1.2674-10.9555-.8444-2.3667-3.3461-5.1274-5.7748-9.4189-6.7038-4.7498-1.0283-7.9177,1.7879-11.4048,3.4056-2.1855-1.4509-4.0855-2.7123-5.9855-3.9737-3.6839-2.4995-7.5886-3.2235-11.8125-1.4961-1.1591.474-2.3397.8948-3.5105,1.34-.4348-.4744-.8696-.9489-1.3044-1.4233,4.842-5.0509,10.5172-4.453,16.2676-2.1649,2.2928.9124,4.3301,2.4667,6.6129,3.8045,8.2889-4.9014,15.659-3.4809,22.0674,3.6409,5.3662-1.8823,9.5346.3013,13.2576,3.6987,1.383,1.2621,2.5264,2.8,3.696,4.2778.7526.9509,1.3539,2.0214,2.0881,3.1371,12.895-3.2616,23.9521-9.1661,33.4935-18.663-2.2642-1.8717-4.276-3.3326-6.0343-5.0525-1.4062-1.3753-2.9258-1.6869-4.6002-1.0708-5.4897,2.0199-10.8028.5522-16.1218-.6963-3.5708-.8382-6.6184-2.5596-8.9812-5.481-1.0113-1.2505-2.3556-2.2319-3.8269-3.5929-1.5606,1.1958-2.9148,2.1118-4.1271,3.1875-2.5726,2.2826-5.4547,4.2094-8.833,4.6141-7.3099.8757-14.7337,1.6759-21.47-2.4716-1.9711-1.2136-3.863-1.4266-5.9914-.7429-5.1736,1.6618-10.2775,1.3861-15.519-.0374-3.6946-1.0034-6.368-3.1505-8.369-6.0742-4.6481-6.7912-3.51-15.9863,2.3607-21.908,2.5707-2.5931,5.4127-4.6707,9.0433-5.4554,2.834-.6125,5.6799-1.1703,8.6654-1.7822,4.9409-8.7116,13.1197-14.3079,25.3501-10.616,4.2653-2.4754,8.2312-4.7771,12.1927-7.0819,1.0089.3432,2.0222.6896,3.0355,1.036,1.3563,1.6417,3.3522.9325,5.037,1.3692.0846.4266.1684.8541.2521,1.2815-3.3404-.3063-6.7338-.9394-9.9536.4447-3.9445,1.6955-7.2285,4.2258-9.171,8.2052-1.0965-.5407-2.2277-1.0214-3.2837-1.6321-5.1875-3.0003-10.1216-2.2924-14.7483,1.1418-2.5537,1.8954-4.687,4.2294-5.7662,7.3461-.3315.9574-.7669,1.8788-1.1001,2.6845-.7455.0404-1.2345.2197-1.5573.061-3.6836-1.8111-7.0794-.3428-10.2998,1.1454-3.2929,1.5217-6.0104,3.9154-7.5925,7.3122-.4341.9322-.8023,1.9891-.8286,2.9986-.0658,2.5203.0158,5.0501.1638,7.5687.1334,2.2728,1.2923,4.0262,3.3353,5.0103,2.2707,1.0937,4.7047,1.8599,6.9353,3.0226,4.2841,2.2331,8.4094,2.1609,12.7419-.563-.059-1.235-.2464-2.6746-.1347-4.0907.0421-.5326.778-1.0106,1.4007-1.7569.6914,1.8932,1.033,3.3519,1.7462,4.5981.4775.8345,1.3877,1.759,2.2667,1.9712,5.4949,1.3266,11.0502,2.4015,16.5561,3.6855,3.7878.8834,7.1375-.251,10.2107-2.1777,2.2794-1.429,4.2622-3.3309,6.0232-4.739.5025-2.6276-2.1152-4.4316-.2914-6.504,2.4061.0099,1.5284,2.7466,2.9607,3.5612,1.5061,2.2629,2.9303,4.586,4.5383,6.7741,2.2296,3.034,5.4539,4.5209,9.013,5.4255,5.8939,1.4979,11.6028,1.0915,17.3196-1.072,3.2815-1.2419,6.1094-2.771,7.7503-5.9931,1.9316-1.0814,2.7569-3.6894,5.3552-4.053,1.4048,2.7018-1.3433,3.26-2.2125,4.6506-.9898,1.5836-2.3162,2.9724-3.5931,4.3567-1.2031,1.3043-2.5321,2.4925-4.16,4.0765,2.5288,1.5437,4.6138,2.8165,6.8656,4.1911,1.4272-1.4134,2.7205-2.4624,3.7339-3.7344,8.2793-10.3914,13.2256-22.2068,15.1463-35.3501.9774-6.6887.6834-13.3625.3008-20.0539,1.0778-.3877,2.1557-.7754,3.2335-1.1631Z"/>
  <path class="cls-3" d="M.7201,67.6853c.0519-7.0331,2.4157-13.5249,5.0105-19.8812,5.759-14.1071,15.1953-25.3329,27.6244-34.0767.6644-.4673,1.5092-.6781,2.2702-1.0075.3867,1.0482.7731,2.0956,1.1595,3.143.886,2.8604,3.4472,3.3174,5.4367,4.18,5.1063-1.728,7.928-2.0973,11.4908-1.8627,2.2435.1478,4.0839.9495,5.4794,2.6961,1.2984,1.625,2.5456,3.2909,3.8144,4.9376,2.3891.4839,4.6593.9107,6.9143,1.4066,7.268,1.5983,10.6112,6.1466,10.0437,13.6634-.0469.6208-.2856,1.2271-.4351,1.8402-.5901,1.6961-1.1801,3.3923-1.6632,4.7807,1.0324,2.3488,1.92,4.3681,2.8076,6.3874.0303.9777-.3343,2.4634.1585,2.8463,2.2953,1.7839.2013,2.3893-.6836,3.348-3.1901.8072-5.8788,3.2863-9.5023,2.6997-2.4672-.3994-4.443.5757-6.149,2.4274-2.5375,2.7543-5.7408,4.1179-9.5392,4.1314-1.2426.0044-2.4812.3948-3.7262.5784-4.3563.6425-8.3507-.2699-11.946-2.8339-.9897-.7057-1.9555-1.4446-2.8901-2.137-.8286.4409-1.3968.6926-1.9127,1.0254-6.5094,4.198-13.6896,5.0238-21.1744,4.1247-1.5932-.1913-3.4308-.3659-3.786-2.5516,1.4317-.0291,2.867-.1423,4.2937-.0741,7.9217.3786,15.3738-.8426,21.5786-6.2877.8615-.756,1.7149-1.1046,2.8173-.8459,2.0501,5.1297,5.9249,7.4645,11.3393,7.0743,2.7088-.1953,5.4496-.6082,8.0588-1.3397,2.6173-.7338,5.1361-1.92,6.5365-4.5486,1.0911-.5686,2.1246-1.3572,3.2851-1.66,2.4249-.6327,4.9295-.9524,7.3769-1.5079,2.1169-.4804,3.229-2.0333,2.8694-4.1728-.2012-1.1966-.6899-2.4076-1.3159-3.4524-.6134-1.0239-1.5652-1.8451-2.4409-2.8374.615-.8795,1.159-1.517,1.5488-2.2378,2.6546-4.9084,2.1706-7.9434-1.6407-11.8539-2.2798-2.3392-4.8848-3.9422-8.1508-4.3876-3.2483-.4431-5.9274-1.4922-7.5472-4.8052-1.3015-2.662-3.9615-3.4699-6.9596-3.3647-3.8917.1366-4.783.3426-9.7891,3.5492-1.669-1.3492-3.3701-2.7242-5.0711-4.0992-1.4074-1.1858-2.7776-1.1916-4.1058.1297,0,0-.0255.0065-.0255.0064-2.1454,1.6634-4.2907,3.3267-6.4361,4.9902-10.0407,9.4426-16.3907,20.9554-19.29,34.2696,1.064,2.5671,2.0845,5.0294,3.105,7.4917-.7481-.1346-1.5155-.2044-2.2395-.4198-.9522-.2833-1.8703-.681-2.8031-1.0296.0441-.694.0881-1.388.1306-2.0834.1507-.2877.3029-.5742.4552-.8606-.288.1515-.5761.303-.8642.4545-.7334.5163-1.5963.9209-2.1649,1.5794-.5978.6925-.9141,1.628-1.3534,2.4573Z"/>
  <path class="cls-12" d="M.7201,67.6853c.4393-.8293.7556-1.7648,1.3534-2.4573.5686-.6585,1.4315-1.0631,2.1649-1.5794,0,0,.4106.4074.4106.4074-.044.694-.0881,1.388-.1327,2.0853-.9423,10.4682-.6838,20.7865,2.1424,31.0587,3.3019,12.0012,10.2111,21.8243,17.6235,31.4398,1.4026,1.8195,3.1597,2.6539,5.4647,2.018.4347.4745.8696.9489,1.3037,1.424-.1739.4174-.3471.8341-.5204,1.2509-1.6873.1284-3.3747.2569-5.0624.3854-1.2274-1.1856-2.4543-2.3714-3.681-3.5572-.4773-.4775-.955-.9549-1.4327-1.4323-.3485-.3847-.697-.7694-1.0454-1.1541-.4574-.4763-.9152-.9526-1.3728-1.4289-5.0707-4.9103-8.1767-11.1374-11.0408-17.3876C1.3838,96.7316-.6907,83.987.1985,70.78c.0699-1.0385.343-2.0634.5216-3.0947Z"/>
  <path class="cls-3" d="M57.4026,3.0176C64.761.1362,72.4779-.1928,80.2159.0755c18.9859.6584,35.3468,7.7698,49.2919,20.556,1.2054,1.1053,2.1218,2.526,3.1716,3.8-1.2406-.6822-2.4768-1.371-3.7211-2.0447-1.8189-.9849-3.6178-2.0578-5.8348-1.5239-6.7009-5.9515-14.435-10.0726-22.8785-12.9527-3.5879-1.2239-7.1684-2.444-11.0355-2.326-.9091-.2228-1.8182-.4456-2.7273-.6684-1.6134-.1107-3.2268-.2214-4.8402-.3322-3.3285-.0647-6.6568-.1612-9.9855-.1779-1.2426-.0062-2.529.0756-3.238,1.3953q-4.5839-2.5508-10.4073-2.6822c-.2035-.0046-.4057-.0663-.6086-.1014Z"/>
  <path class="cls-12" d="M123.1236,20.863c2.2169-.534,4.0159.539,5.8348,1.5239,1.2443.6738,2.4804,1.3625,3.7211,2.0447,6.184,5.7891,10.1956,13.0826,14.2058,20.3897,1.2294,2.2401,2.0123,4.5593,2.1435,7.1038-.6213,1.6132-1.2416,3.2258-1.8615,4.8377-2.5201-1.758-4.667-.1429-6.8925.7629-.6221-.3177-1.2443-.6354-1.8665-.9532.5436-.6757,1.0872-1.3514,1.6308-2.0271,1.6469-.6947,3.8047-.366,5.0398-2.7434-3.659-11.0658-10.1766-20.4371-19.1625-28.9339-2.7344,2.6036-5.7431,2.4757-8.9288,1.8719-1.5799-.2994-3.2921.0997-4.9443.1816-.0536-.5515-.1077-1.1017-.1616-1.6519,1.9183-1.2074,3.6961-2.3792,6.2538-1.2559,1.647.7233,3.6764.7386,4.9881-1.1508Z"/>
  <path class="cls-12" d="M57.4026,3.0176c.2028.0351.405.0968.6086.1014q5.8234.1323,10.408,2.6824c.6688.7044,1.337,1.4085,2.0052,2.1126-.0403.6801-.0805,1.3601-.1207,2.0402-2.0363-1.4403-4.0725-2.8806-6.3044-4.4594-4.7555-.0285-9.2348,1.8739-13.6418,3.7551-4.6229,1.9734-9.0565,4.3901-13.5728,6.613-.3864-1.0474-.7729-2.0948-1.1595-3.143,3.8492-3.9589,8.903-5.586,13.9587-7.2109,2.9313.1308,5.6718-.3382,7.8765-2.4965,0,0-.0577.005-.0577.005Z"/>
  <path class="cls-12" d="M152.1971,65.1628c-1.0778.3877-2.1557.7754-3.2335,1.1632-.2103-.3648-.4113-.7348-.6029-1.1099-.3481-2.5509-.6962-5.1019-1.0443-7.6528,1.2753.0134,2.111.4673,2.5562,1.822.2652.8072,1.0972,1.4282,1.6744,2.1329.2167,1.2149.4334,2.4297.6501,3.6446Z"/>
  <path class="cls-3" d="M151.547,61.5182c-.5772-.7047-1.4092-1.3257-1.6744-2.1329-.4452-1.3548-1.2809-1.8086-2.5562-1.8222-.2671-.226-.317-.4925-.1498-.7997.6204-1.6125,1.2407-3.2251,1.862-4.8383,1.7114,2.9686,2.4764,6.186,2.5184,9.593Z"/>
  <path class="cls-3" d="M57.4603,3.0125c-2.2048,2.1583-4.9452,2.6273-7.8765,2.4965,2.3681-1.6424,5.0229-2.3829,7.8765-2.4965Z"/>
  <path class="cls-3" d="M20.3541,128.7288c.4777.4773.9553.9547,1.4327,1.4322-.4778-.4773-.9552-.9548-1.4327-1.4322Z"/>
  <path class="cls-3" d="M17.9359,126.1458c.4577.4763.9154.9526,1.3728,1.4289-.4577-.4763-.9153-.9526-1.3728-1.4289Z"/>
  <path class="cls-6" d="M148.3607,65.2161c.1916.3751.3926.7451.6029,1.1099.3826,6.6913.6765,13.3652-.3008,20.0538-1.9207,13.1434-6.867,24.9588-15.1463,35.3501-1.0134,1.272-2.3067,2.321-3.7339,3.7344-2.2518-1.3746-4.3367-2.6474-6.8656-4.1911,1.6278-1.584,2.9569-2.7722,4.16-4.0765,1.2769-1.3843,2.6033-2.7731,3.5931-4.3567.8693-1.3906,3.6173-1.9488,2.2125-4.6506-2.5984.3636-3.4236,2.9716-5.3559,4.0524-3.3378-.6473-6.1129,1.0934-9.0299,2.168-4.7629,1.7547-9.6512,2.8175-14.7343,2.5829-3.0404-.1403-5.765-1.0043-7.1002-4.2357-.3735-.904-1.1236-1.745-1.8981-2.3709-1.4633-1.1824-1.9165-2.6711-1.888-4.4461.0235-1.4711.1808-2.992-.1355-4.3976-.1952-.8674-1.167-1.56-1.7902-2.3311.2314-5.3335,3.4965-7.7202,8.3116-8.7852,1.2922-.2858,3.0007.4943,3.8816-1.1814-.2163-.3723-.3703-.9629-.6096-.9997-3.0211-.4643-5.9454.2255-8.4554,1.7386-1.7133,1.0329-3.201,2.7311-4.2736,4.4532-1.0771,1.7292-1.8869,3.8253-.5838,5.9483.3333,1.1919.6891,2.3781.9937,3.5772.3452,1.3589-.0171,2.4532-1.309,3.1457-1.4323-.8146-.5546-3.5514-2.9607-3.5612-1.8238,2.0724.7939,3.8764.2914,6.504-1.7609,1.4082-3.7438,3.31-6.0232,4.739-3.0732,1.9267-6.4229,3.0611-10.2107,2.1777-5.5059-1.284-11.0611-2.3589-16.5561-3.6855-.8789-.2122-1.7891-1.1367-2.2667-1.9712-.7131-1.2462-1.0548-2.7049-1.7462-4.5981-.6228.7463-1.3586,1.2243-1.4007,1.7569-.1118,1.4161.0756,2.8557.1347,4.0907-4.3325,2.7238-8.4578,2.7961-12.7419.563-2.2306-1.1627-4.6647-1.9289-6.9353-3.0226-2.043-.9841-3.2018-2.7374-3.3353-5.0103-.148-2.5186-.2296-5.0484-.1638-7.5687.0263-1.0094.3945-2.0664.8286-2.9986,1.5821-3.3969,4.2996-5.7905,7.5925-7.3122,3.2204-1.4883,6.6162-2.9566,10.2998-1.1454.3228.1587.8118-.0206,1.5573-.061.3332-.8057.7686-1.7271,1.1001-2.6845,1.0792-3.1167,3.2125-5.4507,5.7662-7.3461,4.6268-3.4341,9.5608-4.1421,14.7483-1.1418,1.056.6107,2.1872,1.0914,3.2839,1.632.6162,1.3125,1.2322,2.625,1.9569,4.169.9426-1.2088,1.8913-2.2568,2.6491-3.4282,2.6058-4.0278,6.1779-6.0822,11.0556-5.8143,2.3074.1267,4.627.0318,6.9411.0372.8358.6175,1.6715,1.2351,2.5072,1.8526.7479,2.1921,1.4958,4.3842,2.3653,6.9329,2.1898-2.9127,4.136-5.5014,6.0822-8.0901,2.2379-1.1132,4.5254-2.138,6.7041-3.3571,5.2142-2.9174,10.4097-2.5178,15.5789-.0105,1.5726.7628,2.6353,2.0329,2.184,4.6113-2.9751,1.3763-5.2243,4.0366-6.6572,7.3814-.4844,1.131-1.2112,2.2876.0054,3.3986.6239.5698,1.7127-.3007,2.458-1.9684.2555-.5715.4395-1.1752.6989-1.7447,1.1992-2.6322,3.1155-4.4534,6.0315-4.9387,2.4026-.3999,4.8338-.6281,7.3629-.9462-.031-.4934-.0692-1.0991-.1073-1.7048.5071-.6012,1.233-1.1251,1.478-1.8188.6094-1.7251.8927-3.5652,1.5006-5.2909,1.2111-3.4385,2.4351-3.6586,5.7378-1.2528.4778.3481,1.1024.4949,1.6591.7348ZM61.728,92.4274c-1.0203-.336-1.7768-.832-2.056-.6387-2.7314,1.8913-5.5641,3.7041-7.9762,5.9582-1.0922,1.0207-1.4648,2.9434-1.8554,4.5327-.2355.9578-.0071,2.1789,1.2471,2.5675,1.3624.4221,2.0088-.6355,2.2387-1.6037.8274-3.4839,2.7831-6.0095,5.8003-7.8964.9626-.602,1.5849-1.7477,2.6015-2.9196ZM113.183,91.112c-.6211-.8608-.9602-1.6942-1.2683-1.683-.6679.0244-1.3201.4809-1.9786.7608.268.4777.4776,1.302.8165,1.3591.6505.1096,1.3743-.216,2.4304-.4369ZM68.3383,91.698c-.231-.4842-.3936-1.0126-.7186-1.4073-.1182-.1435-.7347-.0918-.9315.085-.5784.5194-.269,1.6296.5046,1.7855.286.0576.6453-.2482,1.1455-.4632Z"/>
  <path class="cls-7" d="M29.7469,130.6579c-2.305.6358-4.062-.1985-5.4647-2.018-7.4124-9.6156-14.3216-19.4386-17.6235-31.4398-2.8262-10.2722-3.0847-20.5905-2.1424-31.0587.9333.3453,1.8514.7431,2.8037,1.0263.724.2154,1.4914.2852,2.2397.4202.0002.0004-.0375-.0371-.0375-.0371.3553,2.186,2.1929,2.3606,3.7861,2.5519,7.4848.899,14.665.0733,21.1744-4.1247.5159-.3328,1.0841-.5845,1.9127-1.0254.9346.6925,1.9004,1.4313,2.8901,2.137,3.5953,2.564,7.5897,3.4763,11.946,2.8339,1.245-.1836,2.4836-.574,3.7262-.5784,3.7984-.0135,7.0017-1.3771,9.5392-4.1314,1.7059-1.8516,3.6818-2.8267,6.149-2.4274,3.6234.5866,6.3122-1.8925,9.5026-2.699.275,1.3482.5497,2.6958.8245,4.0433-3.9659,2.3016-7.9318,4.6033-12.1971,7.0787-12.2304-3.6919-20.4093,1.9044-25.3501,10.616-2.9856.6118-5.8314,1.1697-8.6654,1.7822-3.6306.7847-6.4726,2.8623-9.0433,5.4554-5.8707,5.9217-7.0089,15.1168-2.3607,21.908,2.001,2.9237,4.6744,5.0708,8.369,6.0742,5.2415,1.4235,10.3454,1.6992,15.519.0374,2.1284-.6837,4.0204-.4707,5.9914.7429,6.7364,4.1475,14.1601,3.3473,21.47,2.4716,3.3782-.4047,6.2604-2.3315,8.833-4.6141,1.2123-1.0757,2.5665-1.9916,4.1271-3.1875,1.4713,1.361,2.8155,2.3424,3.8269,3.5929,2.3627,2.9214,5.4104,4.6427,8.9812,5.481,5.319,1.2486,10.6321,2.7162,16.1218.6963,1.6745-.6161,3.194-.3045,4.6002,1.0708,1.7584,1.7199,3.7702,3.1808,6.0343,5.0525-9.5414,9.4969-20.5985,15.4014-33.4935,18.663-.7342-1.1157-1.3356-2.1862-2.0881-3.1371-1.1696-1.4777-2.313-3.0157-3.696-4.2778-3.723-3.3974-7.8914-5.5811-13.2576-3.6987-6.4084-7.1218-13.7786-8.5422-22.0674-3.6409-2.2829-1.3379-4.3201-2.8922-6.6129-3.8045-5.7505-2.2882-11.4256-2.886-16.2676,2.1649Z"/>
  <path class="cls-6" d="M48.6809,143.5352c-1.6962-.8174-3.3925-1.6348-5.0887-2.4524.0342-2.2138.1708-4.3197,1.9881-6.037.6072-.5738.5484-1.8521.794-2.8084,1.9,1.2614,3.8,2.5227,5.9855,3.9737,3.4871-1.6177,6.655-4.4339,11.4048-3.4056,4.2915.9291,7.0522,3.3577,9.4189,6.7038,3.8589-.423,7.6953-2.3703,10.9555.8444,2.1473,2.1172,5.0694,3.7789,4.9277,7.491-13.1301,3.1123-25.5852,1.5905-37.7482-3.2728-.7246-2.2763-.9884-2.3801-2.6376-1.0366Z"/>
  <path class="cls-10" d="M89.0403,66.5336c-1.684-.4375-3.6799.2716-5.0351-1.37,1.266-.7937,1.2983-2.04,1.2335-3.3289-.1804-3.5903-.2645-7.1504,1.8456-10.359.1927-.293-.3214-1.0507-.5071-1.5923.0326-.4005.0481-.802.0466-1.204.9673-.3133,2.1052-.4049,2.8642-.9888,1.3232-1.0179,2.3515-2.4086,3.6112-3.521,5.3502-4.7253,11.3781-7.1529,18.546-4.9437,2.6001.8014,5.1313,1.8752,7.6123,3.0042,5.7664,2.624,8.3458,7.4593,8.8472,13.5142.1896,2.2909-.0732,4.6193-.1299,6.9306-.2835.0813-.5678.1594-.8531.2342-.335-1.0933-1.1752-1.3652-2.1929-1.3485-.042-1.8772-.167-3.757-.1099-5.6312.1502-4.9201-2.2967-8.4042-6.2242-10.8805-3.9586-2.496-8.408-3.6937-13.0919-3.7544-3.7322-.0483-6.9363,1.2167-9.184,4.381-.88.8547-1.7628,1.7064-2.6457,2.5581-3.8891,1.9807-5.1892,5.6784-5.7567,9.5302-.405,2.7492-.6706,5.7775,1.6628,8.1065-.1758.2243-.3554.4454-.5389.6635Z"/>
  <path class="cls-5" d="M88.9063,107.108c1.292-.6925,1.6542-1.7868,1.309-3.1457-.3045-1.1992-.6603-2.3854-.9936-3.5771.5764-.3912,1.1527-.7825,1.729-1.1739.6231.7711,1.595,1.4637,1.7902,2.3311.3163,1.4056.1591,2.9265.1355,4.3976-.0285,1.775.4247,3.2637,1.888,4.4461.7746.6259,1.5247,1.4669,1.8981,2.3709,1.3352,3.2314,4.0598,4.0954,7.1002,4.2357,5.083.2346,9.9714-.8281,14.7343-2.5829,2.917-1.0747,5.6921-2.8153,9.0299-2.168-1.6403,3.2227-4.4682,4.7518-7.7497,5.9937-5.7168,2.1635-11.4257,2.57-17.3196,1.072-3.5591-.9045-6.7834-2.3914-9.013-5.4255-1.608-2.1881-3.0322-4.5112-4.5383-6.7741Z"/>
  <path class="cls-5" d="M46.3743,132.2373c-.2457.9563-.1868,2.2346-.794,2.8084-1.8173,1.7174-1.9539,3.8232-1.9881,6.037-1.8374-.8235-3.7842-1.4689-5.4867-2.5125-2.6131-1.6019-5.0582-3.4776-7.5749-5.2373.1729-.4168.3461-.8336.52-1.251,1.1715-.4459,2.3522-.8667,3.5112-1.3407,4.2238-1.7274,8.1286-1.0034,11.8125,1.4961Z"/>
  <path class="cls-5" d="M92.7714,71.4279c-2.3141-.0055-4.6337.0895-6.9411-.0372-4.8777-.2679-8.4498,1.7865-11.0556,5.8143-.7579,1.1714-1.7066,2.2194-2.6491,3.4282-.7246-1.544-1.3407-2.8566-1.9569-4.169,1.9423-3.9793,5.2264-6.5096,9.1709-8.2052,3.2198-1.384,6.6133-.751,9.9521-.4455,1.1589,1.2042,2.3193,2.4093,3.4797,3.6143Z"/>
  <path class="cls-4" d="M86.5769,49.8831c.186.5419.7002,1.2996.5074,1.5926-2.1101,3.2086-2.026,6.7687-1.8456,10.359.0648,1.2889.0325,2.5352-1.2335,3.3289-1.0144-.3464-2.0277-.6928-3.0366-1.036-.2704-1.3444-.5451-2.6919-.8201-4.0401.8845-.9595,2.9785-1.5649.6833-3.3488-.4928-.3829-.1282-1.8686-.1601-2.8459.5432-1.4441,1.088-2.8886,1.6287-4.3292,1.4228.1091,2.8497.2143,4.2766.3195Z"/>
  <path class="cls-10" d="M92.7714,71.4279c-1.1604-1.2051-2.3208-2.4101-3.4797-3.6143-.0823-.4266-.1661-.8541-.2507-1.2807.1827-.2173.3623-.4384.537-.661.6481.081,1.2973.1604,1.9465.2397,1.5174,2.0171,4.4945,2.6652,5.1508,5.4898-.4656.5597-.9312,1.1193-1.3968,1.6791-.8358-.6175-1.6715-1.235-2.5072-1.8526Z"/>
  <path class="cls-5" d="M48.6809,143.5352c1.6491-1.3435,1.913-1.2397,2.6376,1.0366-1.0926.1977-2.0261-.0098-2.6376-1.0366Z"/>
  <path class="cls-6" d="M38.212,60.3435c-1.1024-.2587-1.9559.0899-2.8173.8459-6.2048,5.4451-13.6569,6.6663-21.5786,6.2877-1.4267-.0682-2.8621.045-4.2937.0741-.0002-.0003.0376.0371.0374.0367-1.0208-2.4627-2.0413-4.9251-3.1053-7.4921,2.8994-13.3142,9.2493-24.8271,19.2903-34.2696,3.2066-.0735,6.4731.504,9.6319-.427.2603-2.8716-2.5407-2.902-3.1962-4.5633,0,0,.0255-.0065.0255-.0063,1.3687-.0432,2.7372-.0865,4.1058-.1298,1.701,1.375,3.4021,2.75,5.0711,4.0992,5.0061-3.2066,5.8973-3.4126,9.7891-3.5492,2.9981-.1053,5.658.7027,6.9596,3.3647,1.6198,3.3131,4.2989,4.3622,7.5472,4.8052,3.266.4455,5.871,2.0484,8.1508,4.3876,3.8112,3.9104,4.2953,6.9455,1.6407,11.8539-.3898.7208-.9339,1.3582-1.5488,2.2378.8757.9923,1.8275,1.8135,2.4409,2.8374.626,1.0447,1.1147,2.2557,1.3159,3.4524.3596,2.1395-.7525,3.6924-2.8694,4.1728-2.4475.5555-4.9521.8752-7.3769,1.5079-1.1605.3028-2.194,1.0915-3.2857,1.6599-1.2376-.2018-2.5749-.1708-3.6914-.6518-2.652-1.1425-4.7955-.583-6.9826,1.1615-1.0837.8643-2.5979,1.1889-3.6495,1.6421-4.0549-1.4318-7.2299-4.4986-11.6106-3.3376ZM34.5484,39.6755c-3.7591-3.6188-7.5105-3.2625-10.7677-.8315-2.6343,1.9661-4.6626,4.7772-6.8225,7.3295-.8917,1.0537-.1314,2.0065,2.1464,2.754.962-1.5322,1.872-3.1732,2.9732-4.674.8603-1.1726,1.8582-2.2907,2.9737-3.2181,1.5355-1.2765,3.364-1.6264,5.3331-1.0223,1.7912.5495,2.3337,2.6274.9342,3.8748-.7076.6308-1.5573,1.1024-3.6176,2.528,2.8774-.1643,4.2252-.3293,5.5677-.2936,1.3908.037,2.7765.2686,4.5174.4523-.2978-1.8708-.5448-3.4232-.7736-4.861,5.7359-3.224,6.9951-3.1785,14.4655.5591,0-.9666.2435-1.82-.0454-2.4153-.8925-1.8393-2.5297-2.684-4.5436-2.9336-4.3106-.5343-8.3445.2843-12.341,2.7517Z"/>
  <path class="cls-7" d="M36.7847,15.8629c4.5163-2.2229,8.9499-4.6396,13.5728-6.613,4.407-1.8812,8.8863-3.7836,13.6418-3.7551,2.2319,1.5788,4.2681,3.0191,6.3022,4.4567,1.2783.7651,2.5588,1.533,3.8392,2.301q.1933,4.1554,4.9528,4.9848c2.4537,4.9243,6.6072,6.75,11.9004,6.6567,2.348-.0414,4.5699-.1685,6.611-1.6063.9738-.686,2.2957-.8785,3.4598-1.2945.6892,1.4181,1.1049,3.2312,3.3891,2.3463,0,0-.0702-.0464-.0702-.0463.0622.3867-.0168.9648.2081,1.1304,2.3781,1.7514,4.8463,2.3679,7.406.3197l.0455.1797c1.6524-.0831,3.3646-.4823,4.9445-.1828,3.1857.6038,6.1944.7317,8.9288-1.8719,8.9859,8.4969,15.5035,17.8681,19.1625,28.9339-1.2351,2.3774-3.3929,2.0487-5.0417,2.7401-.6532-.9582-1.9664-2.0224-1.8301-2.8471.3876-2.3449-1.4888-3.0232-2.5001-4.3425.3647-1.153-.1222-1.954-1.062-2.5676-1.4996-3.1212-4.1261-5.1216-6.9195-6.9563.103-1.1138.2059-2.2276.3532-3.8212-1.6261.8331-2.6972,1.3818-3.7682,1.9305-2.014-1.1399-4.0279-2.2798-6.0369-3.4165-1.1682-.7711-1.4746-2.914-3.5574-2.252l-5.345-2.057c-.9285-1.0893-1.735-1.1302-2.3733.2758-.1089.3985-.2178.797-.3266,1.1956-.1279.1437-.2557.2874-.3836.4311.2495.1887.499.3775.7486.5662,0,0,.1777.1574.1764.1575-.1115,1.0214-.2218,2.0428-.332,3.0641-.9316-.3282-1.8633-.6563-2.7949-.9845-.3441-.7004-.7224-1.3863-1.0256-2.104-.743-1.7579-.7292-1.7638-2.7743-.201-1.3634-.3742-2.8643-1.2694-3.8551.5254-1.63,2.9528-4.1046,2.2266-6.5773,1.6587-.8186-.5937-1.5757-.3694-2.1241.3338-1.0197,1.3075-1.8416,2.7123-1.1412,4.4788-.6272.7354-1.2543,1.4708-1.8814,2.2063-1.726.9694-3.452,1.9387-5.178,2.908.1496-.6131.3882-1.2194.4351-1.8402.5675-7.5169-2.7757-12.0651-10.0437-13.6634-2.2551-.496-4.5253-.9227-6.9143-1.4066-1.2688-1.6467-2.516-3.3126-3.8144-4.9376-1.3955-1.7466-3.2359-2.5484-5.4794-2.6961-3.5629-.2347-6.3845.1347-11.4908,1.8627-1.9894-.8626-4.5507-1.3196-5.4367-4.18Z"/>
  <path class="cls-5" d="M38.212,60.3435c4.3806-1.1609,7.5556,1.9059,11.6106,3.3376,1.0516-.4533,2.5658-.7778,3.6495-1.6421,2.1872-1.7444,4.3306-2.304,6.9826-1.1615,1.1165.481,2.4539.4499,3.6914.6518-1.3999,2.6288-3.9186,3.815-6.5359,4.5488-2.6092.7315-5.35,1.1444-8.0588,1.3397-5.4144.3903-9.2893-1.9446-11.3393-7.0743Z"/>
  <path class="cls-8" d="M79.5288,42.7243c1.726-.9693,3.452-1.9387,5.178-2.9081-.1198.7647.0353,1.8726-.411,2.2304-1.3561,1.0871-1.408,2.407-1.2473,3.8813q-2.4655.6278-1.3965,2.5675c.2011.3638.4341.71.6523,1.0643-.5448,1.4445-1.0896,2.889-1.6328,4.3331-.8859-2.0197-1.7736-4.039-2.806-6.3878.4831-1.3884,1.0731-3.0846,1.6632-4.7807Z"/>
  <path class="cls-5" d="M32.1805,20.836c.6555,1.6613,3.4565,1.6917,3.1962,4.5633-3.1588.9309-6.4253.3534-9.6319.427,2.145-1.6635,4.2903-3.3269,6.4357-4.9902Z"/>
  <path class="cls-5" d="M36.3118,20.6998c-1.3686.0433-2.7371.0867-4.1058.1298,1.3282-1.3214,2.6984-1.3157,4.1058-.1298Z"/>
  <path class="cls-12" d="M4.2384,63.6486c.2881-.1515.5762-.3029.8642-.4545-.1523.2864-.3045.5728-.4552.8606.0015.0013-.409-.4061-.409-.4061Z"/>
  <path class="cls-6" d="M123.1236,20.863c-1.3117,1.8894-3.3411,1.8741-4.9881,1.1508-2.5577-1.1232-4.3356.0485-6.254,1.256-1.6687-.005-3.3372-.01-5.0057-.0151-.8361-.3327-1.6785-1.0745-2.4924.0383,0,0,.0702.0464.0702.0463,1.0695-1.5102-.5927-1.7803-1.1574-2.5486-.6012-1.588-1.3201-3.0612-3.5328-3.434-2.8961,2.6833-6.2714,4.6118-10.5997,3.5073-.0293-3.9048-1.9891-7.003-4.3323-9.8553-1.5835-1.9276-2.9951-3.8497-3.1895-6.4251,1.6134.1107,3.2268.2214,4.8405.3321.9697,2.1022,1.2125,2.1617,2.727.6684,3.8671-.118,7.4476,1.1022,11.0355,2.326,8.4435,2.8801,16.1777,7.0012,22.8785,12.9527Z"/>
  <path class="cls-5" d="M81.642,4.5837c.1944,2.5754,1.6059,4.4975,3.1895,6.4251,2.3431,2.8523,4.3029,5.9505,4.3324,9.8553-5.63-.5936-7.0767-1.9677-7.5096-7.0434-.1161-1.3616-.3533-2.7128-.6167-4.6779-4.059,1.5354-7.359.2763-10.6133-1.2288-.6682-.7041-1.3364-1.4082-2.0052-2.1126.7084-1.32,1.9948-1.4018,3.2374-1.3956,3.3287.0167,6.657.1131,9.9855.1779Z"/>
  <path class="cls-5" d="M89.2096,5.5842c-1.5145,1.4933-1.7573,1.4338-2.727-.6684.9088.2228,1.8179.4456,2.727.6684Z"/>
  <path class="cls-5" d="M148.3607,65.2161c-.5567-.2399-1.1813-.3867-1.6591-.7348-3.3027-2.4058-4.5267-2.1857-5.7378,1.2528-.6079,1.7257-.8912,3.5658-1.5006,5.2909-.245.6937-.9708,1.2177-1.4774,1.8188-2.0472-.2255-4.0949-.451-6.0091-.6618q-.7289-3.4755.2571-6.9653c.2776-.0839.5238-.223.7388-.4174,4.2328.324,4.4593.1951,5.8033-3.4666.1372-.3738.1405-.7968.2059-1.197,1.1705-.5038,1.7084-1.3209,1.293-2.6101,2.2255-.9058,4.3724-2.5209,6.8925-.7629-.1678.3078-.1179.5743.1493.8003.3481,2.5511.6962,5.102,1.0443,7.653Z"/>
  <path class="cls-9" d="M140.2747,57.5257c.4155,1.2892-.1225,2.1063-1.2954,2.6114-1.8728.8183-3.7432,1.6354-5.6136,2.4526.3012-2.2684-1.3957-3.9009-2.3776-5.9012,1.2367-.7226,2.0984-1.226,2.96-1.7295,1.4867.5378,2.9733,1.0757,4.46,1.6135.6221.3177,1.2443.6355,1.8665.9532Z"/>
  <path class="cls-13" d="M138.4082,56.5726c-1.4867-.5379-2.9733-1.0757-4.4646-1.6134-.1554-1.6333-.306-3.2667-.4567-4.9001.7397-.9022,1.4793-1.8044,2.219-2.7066,1.0124,1.3193,2.8889,1.9977,2.5013,4.3425-.1364.8247,1.1768,1.8889,1.8301,2.8471-.5417.679-1.0853,1.3547-1.6289,2.0304Z"/>
  <path class="cls-3" d="M106.8758,23.2548c1.6685.0051,3.337.0101,5.0057.0151.0541.5501.1081,1.1003.1618,1.6518-.0002.0012-.0457-.1784-.0455-.1783-1.7683-.2861-3.8489.5015-5.1219-1.4885Z"/>
  <path class="cls-3" d="M70.4244,7.914c3.2542,1.5051,6.5542,2.7642,10.6133,1.2288.2633,1.9651.5006,3.3163.6167,4.6779.4329,5.0757,1.8796,6.4499,7.5096,7.0434,4.3282,1.1045,7.7034-.824,10.5995-3.5073,2.2126.3728,2.9315,1.8459,3.5326,3.4338-.744.0674-1.4877.135-2.2315.2026-1.1642.416-2.486.6084-3.4598,1.2945-2.0411,1.4378-4.263,1.5649-6.611,1.6063-5.2932.0934-9.4467-1.7324-11.9008-6.6578-.1641-1.5089-.3278-3.0168-.5039-4.6396-1.7249-.1334-3.0866-.2388-4.4484-.3441-1.2804-.7679-2.5609-1.5358-3.8391-2.301.0424-.6773.0826-1.3574.1229-2.0375Z"/>
  <path class="cls-3" d="M132.2336,65.2171q-.9859,3.4895-.2569,6.965c1.9143.2108,3.9619.4363,6.009.6617.0376.6057.0758,1.2114.1068,1.7048-2.5291.3182-4.9603.5464-7.3629.9462-2.916.4853-4.8323,2.3066-6.0315,4.9387-.2595.5695-.4435,1.1732-.6989,1.7447-.7452,1.6677-1.8341,2.5382-2.458,1.9684-1.2166-1.1109-.4899-2.2676-.0054-3.3986,1.4329-3.3448,3.682-6.005,6.6572-7.3814.4513-2.5784-.6114-3.8484-2.184-4.6113-5.1692-2.5074-10.3647-2.907-15.5789.0105-2.1787,1.2191-4.4662,2.2439-6.7049,3.3558-.2403-.2589-.4833-.5133-.7293-.7636,5.1713-4.1903,10.7876-7.1308,17.7431-6.4108.6027.0623,1.4054.0438,1.8162-.2973.7486-.6214,1.2727-1.513,1.8903-2.2918.1392-.2792.3003-.5451.4831-.7979,1.0178-.0167,1.858.2552,2.1929,1.3469q-1.1898,2.8291,1.9331,4.4371c.5871-.6818,1.2352-1.4343,1.883-2.187.4319.0198.8639.0397,1.296.0596Z"/>
  <path class="cls-3" d="M90.9507,99.2113c-.5763.3914-1.1527.7827-1.7291,1.1739-1.3031-2.1231-.4933-4.2192.5838-5.9484,1.0726-1.7221,2.5603-3.4203,4.2736-4.4532,2.51-1.5132,5.4343-2.203,8.4554-1.7386.2393.0368.3932.6274.6096.9997-.8809,1.6757-2.5894.8956-3.8816,1.1814-4.8152,1.065-8.0803,3.4517-8.3116,8.7852Z"/>
  <path class="cls-8" d="M61.728,92.4274c-1.0166,1.1719-1.639,2.3176-2.6015,2.9196-3.0172,1.8869-4.9728,4.4125-5.8003,7.8964-.2299.9682-.8764,2.0258-2.2387,1.6037-1.2542-.3886-1.4826-1.6097-1.2471-2.5675.3907-1.5893.7632-3.512,1.8554-4.5327,2.4121-2.2541,5.2448-4.0669,7.9762-5.9582.2792-.1933,1.0357.3027,2.056.6387Z"/>
  <path class="cls-3" d="M95.2786,73.2804c.4655-.5597.9312-1.1194,1.3966-1.6798,1.0218,1.0785,2.0949,1.7175,3.6225.8289.8272-.4812,1.794-.7225,2.6978-1.072.2465.251.4895.5053.7298.7643-1.9454,2.5901-3.8916,5.1788-6.0814,8.0915-.8695-2.5487-1.6173-4.7408-2.3653-6.9329Z"/>
  <path class="cls-8" d="M113.183,91.112c-1.0561.2209-1.78.5465-2.4304.4369-.3389-.0571-.5485-.8814-.8165-1.3591.6586-.2798,1.3107-.7363,1.9786-.7608.3081-.0112.6471.8222,1.2683,1.683Z"/>
  <path class="cls-8" d="M68.3383,91.698c-.5002.215-.8595.5208-1.1455.4632-.7736-.1559-1.083-1.2661-.5046-1.7855.1968-.1768.8133-.2285.9315-.085.325.3947.4876.923.7186,1.4073Z"/>
  <path class="cls-14" d="M124.9286,61.5605c-.1828.2528-.3439.5187-.4833.8003-6.2447.108-12.5194.2682-18.5193,2.1134-2.1473.6604-2.8479-1.492-5.0871-1.3331-1.3709,1.9238-3.8338,2.0598-6.404,2.0719-.9715.0046-1.9403.5822-2.9104.8986-.6492-.0793-1.2984-.1586-1.9465-.2397-2.3323-2.3307-2.0668-5.359-1.6617-8.1082.5675-3.8518,1.8676-7.5495,5.7567-9.5302.2274.1952.4523.3933.6746.5942.08,1.4147.16,2.8294.2421,4.2822,1.3409.6596,2.4114,1.309,3.5663,1.7223,1.3489.4828,2.7716.7596,4.2006,1.1359,1.8627-1.707,3.9423-2.4128,6.3762-2.2411,1.6544.1167,3.3342.0395,4.991-.0948,1.6158-.1309,2.6719-1.067,3.0145-2.6884.3236-1.5312.0289-2.9203-1.2024-3.9651-2.7692-2.3501-6.6044-2.7812-9.7661-.7209-1.392.9071-2.4689,1.0926-4.0079.6696-1.5699-.4315-3.2579-.4335-4.8942-.6235-.1883-.2067-.3723-.4172-.5521-.6315,2.2505-3.1612,5.4547-4.4262,9.1868-4.3779,4.684.0606,9.1333,1.2584,13.0919,3.7544,3.9275,2.4764,6.3744,5.9604,6.2242,10.8805-.0571,1.8742.0679,3.754.1099,5.6312Z"/>
  <path class="cls-4" d="M133.4869,50.0591c.1507,1.6334.3014,3.2668.4567,4.9001-.857.5033-1.7187,1.0067-2.9554,1.7293.9819,2.0003,2.6788,3.6328,2.3776,5.9012l.0295-.0419c-1.291-.4643-1.9498.3958-2.6127,1.247-.9359-.3733-1.8719-.7466-2.8078-1.1199.0566-2.3113.3195-4.6397.1299-6.9306-.5014-6.0549-3.0808-10.8902-8.8472-13.5142-2.4811-1.129-5.0122-2.2028-7.6123-3.0042-7.1679-2.2092-13.1958.2184-18.546,4.9437-1.2596,1.1124-2.288,2.5031-3.6112,3.521-.759.5839-1.8969.6755-2.8639.989-1.1916-.9171-2.3836-1.8344-3.5755-2.7517-.1607-1.4743-.1088-2.7942,1.2473-3.8813.4463-.3578.2912-1.4657.411-2.2305.6271-.7353,1.2542-1.4708,1.8818-2.1967,1.6028.9157,3.222,1.7939,4.8001,2.7407.721.4326,1.3641.9408,1.9454.3041-1.1918-2.6936-2.3362-5.2803-3.4806-7.8669,2.4727.5679,4.9473,1.2942,6.5773-1.6587.9907-1.7948,2.4916-.8996,3.8548-.5268.5558,1.7608,1.0516,3.5461,1.715,5.2669.1456.378.8874.5262,1.7281.9832.1416-1.5643.2494-2.754.357-3.9437.9316.3282,1.8633.6563,2.7949.9843,1.7557.8459,3.5115,1.692,5.2673,2.5382.4811.8523,1.3506,1.1697,1.9905.5663,1.4756-1.3915,2.7652-2.9801,4.1303-4.4888,2.014,1.1399,4.0279,2.2798,6.0374,3.4185-.2607,1.1599-.5169,2.3211-.9636,4.3457,1.9578-1.0961,3.1704-1.775,4.383-2.4539,2.7934,1.8346,5.4199,3.8351,6.9195,6.9571-1.8392,1.428-3.5517,2.9665-5.2788,5.703,1.9036-.1985,3.0121-.3141,4.1206-.4296Z"/>
  <path class="cls-9" d="M83.0486,45.9279c1.1919.9173,2.3839,1.8347,3.5755,2.7517.0012.4018-.0143.8032-.0469,1.2038-1.4273-.1054-2.8541-.2106-4.2769-.3197-.2142-.3583-.4471-.7045-.6482-1.0682q-1.0717-1.9383,1.3965-2.5675Z"/>
  <path class="cls-8" d="M127.9747,62.6748c.9359.3733,1.8719.7466,2.8084,1.1203.052.4544.1034.9085.1548,1.3625-.6481.7525-1.2961,1.5051-1.8832,2.1869q-3.1229-1.608-1.9331-4.4371c.2853-.0731.5697-.1512.8531-.2325Z"/>
  <path class="cls-14" d="M93.673,48.2334c.8828-.8516,1.7657-1.7033,2.6457-2.5581.1769.2112.3609.4217.5477.6268-.1234,1.5549-.9641,2.3956-2.5188,2.5255-.2224-.2009-.4472-.399-.6746-.5942Z"/>
  <path class="cls-2" d="M91.5245,66.1115c.9701-.3164,1.9389-.894,2.9104-.8986,2.5702-.0121,5.0331-.1481,6.404-2.0719,2.2392-.1589,2.9398,1.9934,5.0871,1.3331,5.9999-1.8451,12.2747-2.0054,18.5193-2.1133-.6175.7765-1.1416,1.668-1.8902,2.2894-.4107.3411-1.2135.3596-1.8162.2973-6.9555-.7199-12.5717,2.2205-17.7431,6.4108-.9042.3489-1.871.5902-2.6982,1.0713-1.5277.8886-2.6007.2496-3.6224-.8289-.6562-2.8239-3.6333-3.472-5.1507-5.4891Z"/>
  <path class="cls-3" d="M34.5484,39.6755c3.9964-2.4674,8.0303-3.286,12.341-2.7517,2.0139.2496,3.6511,1.0943,4.5436,2.9336.2889.5953.0454,1.4487.0454,2.4153-7.4704-3.7376-8.7296-3.7831-14.4655-.5591.2288,1.4378.4758,2.9903.7736,4.861-1.7409-.1837-3.1266-.4153-4.5174-.4523-1.3425-.0357-2.6904.1293-5.5677.2936,2.0603-1.4256,2.9099-1.8971,3.6176-2.528,1.3995-1.2474.8569-3.3253-.9342-3.8748-1.9691-.6041-3.7976-.2543-5.3331,1.0223-1.1155.9274-2.1134,2.0455-2.9737,3.2181-1.1012,1.5008-2.0112,3.1418-2.9732,4.674-2.2778-.7475-3.0381-1.7003-2.1464-2.754,2.1599-2.5523,4.1882-5.3634,6.8225-7.3295,3.2572-2.431,7.0086-2.7873,10.7677.8315Z"/>
  <path class="cls-9" d="M89.8535,32.7973c1.1444,2.5867,2.2888,5.1733,3.4806,7.8669-.5812.6367-1.2244.1284-1.9454-.3041-1.5781-.9468-3.1973-1.825-4.8001-2.7407-.7008-1.776.1211-3.1808,1.1408-4.4884.5484-.7032,1.3055-.9275,2.1241-.3338Z"/>
  <path class="cls-1" d="M109.3713,28.2124c1.7817.6857,3.5633,1.3714,5.3425,2.0556-.5113,1.1203-1.0202,2.242-1.5291,3.3638-1.9903-.9311-3.9805-1.8621-5.9707-2.7933,0,0-.1777-.1574-.1777-.1563.0345-.3891-.0871-.7223-.3649-.9985.1088-.3985.2177-.7971.3255-1.195.7907-.0918,1.5825-.1841,2.3744-.2764Z"/>
  <path class="cls-9" d="M113.1847,33.6318c.5088-1.1217,1.0178-2.2434,1.5291-3.3637,2.0853-.6606,2.3916,1.4824,3.5599,2.2534-1.37,1.5054-2.6596,3.094-4.1352,4.4855-.6399.6034-1.5094.286-1.9914-.5674.3453-.9366.6915-1.8722,1.0377-2.8079Z"/>
  <path class="cls-5" d="M74.1406,12.2525c1.3618.1053,2.7235.2107,4.4484.3441.1761,1.6228.3398,3.1307.5039,4.6396q-4.759-.8284-4.9523-4.9837Z"/>
  <path class="cls-12" d="M104.0857,32.9183c-.1077,1.1897-.2154,2.3793-.357,3.9437-.8407-.457-1.5825-.6052-1.7281-.9832-.6634-1.7208-1.1591-3.5062-1.715-5.2669,2.0453-1.5614,2.0315-1.5555,2.7745.2024.3032.7176.6815,1.4036,1.0256,2.104Z"/>
  <path class="cls-8" d="M113.1847,33.6318c-.3461.9356-.6924,1.8712-1.0377,2.8078-1.755-.8451-3.5108-1.6913-5.2665-2.5372.1103-1.0211.2206-2.0424.3321-3.0638,1.9916.931,3.9818,1.8621,5.9721,2.7932Z"/>
  <path class="cls-12" d="M127.7255,37.8286c-1.2126.6789-2.4253,1.3578-4.383,2.4539.4467-2.0247.7029-3.1858.9636-4.3457,1.0755-.5475,2.1466-1.0963,3.7726-1.9293-.1473,1.5936-.2503,2.7074-.3532,3.8212Z"/>
  <path class="cls-9" d="M133.4869,50.0591c-1.1085.1156-2.217.2311-4.1206.4296,1.727-2.7366,3.4396-4.2751,5.2788-5.703.9398.6128,1.4266,1.4138,1.062,2.5668-.7408.9022-1.4804,1.8044-2.2201,2.7066Z"/>
  <path class="cls-12" d="M106.8758,23.2548c1.2731,1.9901,3.3536,1.2024,5.1219,1.4885-2.5599,2.0482-5.0281,1.4316-7.4062-.3197-.2249-.1656-.1459-.7437-.2081-1.1304.8138-1.1128,1.6562-.3711,2.4923-.0384Z"/>
  <path class="cls-12" d="M101.0646,20.9931c.7438-.0676,1.4875-.1352,2.2315-.2026.5649.7685,2.227,1.0386,1.1575,2.5488-2.2841.885-2.6998-.9282-3.389-2.3462Z"/>
  <path class="cls-8" d="M109.3713,28.2124c-.7918.0923-1.5837.1846-2.3744.2764.6394-1.4066,1.4459-1.3657,2.3744-.2764Z"/>
  <path class="cls-8" d="M106.6713,29.6839c.2778.2762.3994.6094.3649.9984-.2494-.1898-.499-.3786-.7485-.5673.1279-.1437.2557-.2874.3836-.4311Z"/>
  <path class="cls-1" d="M133.3658,62.5897c1.8703-.8171,3.7408-1.6342,5.6136-2.4526-.063.399-.0663.8219-.2035,1.1957-1.344,3.6617-1.5705,3.7906-5.8006,3.466.1419-.7508.2809-1.5009.42-2.251,0,0-.0295.0419-.0295.0419Z"/>
  <path class="cls-9" d="M133.3952,62.5478c-.1391.7501-.2782,1.5002-.42,2.251-.2176.1951-.4638.3342-.7415.4181-.4322-.0197-.8642-.0396-1.2961-.0594-.0512-.4539-.1026-.9079-.1547-1.3623.6624-.8516,1.3211-1.7117,2.6122-1.2473Z"/>
  <path class="cls-11" d="M94.3476,48.8276c1.5547-.1298,2.3954-.9706,2.5188-2.5255,1.6377.1917,3.3258.1936,4.8957.6251,1.539.423,2.6159.2375,4.0079-.6696,3.1617-2.0603,6.9968-1.6292,9.7661.7209,1.2312,1.0449,1.526,2.434,1.2024,3.9651-.3426,1.6214-1.3987,2.5574-3.0145,2.6884-1.6569.1342-3.3367.2114-4.991.0948-2.4339-.1716-4.5135.5341-6.3762,2.2411-1.429-.3763-2.8517-.6531-4.2006-1.1359-1.1549-.4133-2.2254-1.0627-3.5663-1.7223-.0821-1.4528-.1621-2.8675-.2421-4.2822Z"/>
</svg>