<?xml version="1.0" encoding="UTF-8"?>
<svg id="Layer_1" xmlns="http://www.w3.org/2000/svg" viewBox="0 0 226.6118 106.4061">
  <defs>
    <style>
      .cls-1 {
        fill: #65535b;
      }

      .cls-2 {
        fill: #212222;
      }

      .cls-3 {
        fill: #bc584c;
      }
    </style>
  </defs>
  <path class="cls-2" d="M19.1479,23.4534c6.8172-11.9766,19.024-15.886,30.9533-17.8156,30.378-4.9138,60.9551-8.8522,91.7164-1.8337,7.1033,1.6207,14.5688,1.5845,21.8152,2.6625,17.7285,2.6372,33.1906,10.762,47.6993,20.7313,6.0354,4.147,9.1009,10.3615,8.4926,18.0545-.2656,3.3612-.2812,6.7795.0267,10.1317.1388,1.5107.9861,3.3571,2.1302,4.308,6.086,5.0581,6.1706,11.4401.2633,16.5507-1.7887,1.5475-2.7402,4.0233-4.3945,5.7722-3.3418,3.533-6.3156,8.126-10.4748,10.0511-17.8507,8.2622-35.8801,16.1378-56.4952,13.9784-9.8448-1.0312-19.897-1.7408-29.724-.9555-22.9959,1.8378-44.2391-5.7673-65.8383-11.1912-13.3804-3.36-25.297-10.3062-35.8166-19.4419-1.3598-1.1809-3.3296-1.8115-5.124-2.3157-10.3619-2.912-17.284-13.6214-13.1757-22.3674,1.8677-3.976,6.8659-6.483,10.4442-9.6563.467-.7943.9339-1.5886,1.4008-2.3828.7126-2.0655,1.4252-4.1311,2.1377-6.1964.3073-.374.6146-.7481.9218-1.1223.5006-.7815,1.0012-1.563,1.5017-2.3444.2939-.7834.5879-1.5669.8819-2.3503.0935-.4392.187-.8784.2804-1.3176.1259-.3164.2516-.6328.3774-.9492ZM42.703,80.6347c.4891.6877.9781,1.3755,1.4671,2.0632.2505-.2906.5009-.5811.7513-.8717-.7395-.3968-1.479-.7936-2.2185-1.1904-3.0893-8.1204-8.1289-10.7882-13.7485-5.8466,4.9261,2.0944,9.3373,3.9699,13.7485,5.8455ZM137.0115,73.7217c-10.1845-1.2072-20.3689-2.4144-30.5534-3.6217-8.6135-1.2742-17.2635-2.3433-25.833-3.8653-17.8027-3.1619-35.3131-7.312-50.9775-16.9482-3.1566-3.8163-6.3132-7.6326-9.4698-11.4489-.437.3222-.8739.6444-1.3109.9666,1.8484,5.5266,6.5873,9.1299,10.2319,13.4613,1.7794,4.1883,3.4011,8.4529,5.3836,12.5429,1.8974,3.9144,5.0124,4.9253,8.6501,2.2679,6.541-4.7784,13.3832-4.5123,20.2145-1.1553,5.9477,2.9228,11.5729,6.4967,17.4822,9.5047,2.8465,1.449,7.3572,1.3744,8.7811,3.5297,3.5682,5.4009,5.9005,3.4676,9.0005.0531,1.1711-1.2899,2.816-2.15,4.2345-3.2021,11.5059-4.2731,22.8214-1.7924,34.1292.9613,2.4283,1.2826,5.1936,2.1762,7.2165,3.9267,4.5661,3.9512,8.6989,7.4054,12.7355-.4702.3957-.7722,1.5098-1.385,2.4151-1.6562,11.5034-3.4456,23.0778-4.1652,34.8344-1.1122,1.1675.3032,4.0397-1.2125,4.0311-1.8557-.0877-6.4687,5.5145-8.0744,8.3397-10.2534-22.5558,2.7167-46.0454,5.5459-69.535,8.3752ZM103.8043,7.0901c-10.2977.9828-22.1025,2.1993-33.9248,3.2137-12.9291,1.1094-25.5918,3.165-37.0944,9.6419-1.6686.9396-3.211,2.2258-4.5505,3.6052-5.687,5.8566-.8742,15.0073,6.5513,19.2996,8.6322,4.9899,18.2375,8.8313,27.8935,11.3831,12.0028,3.1719,24.4392,4.8905,36.7811,6.5458,13.9169,1.8666,27.9108,3.5995,41.9211,4.1756,9.4315.3878,19.0072-.9165,28.4129-2.2235,9.5801-1.3312,19.0953-3.3252,28.5015-5.598,3.106-.7505,6.0621-2.9367,8.6027-5.0483,6.3435-5.2722,6.0053-13.3843-.5831-18.5857-1.7021-1.3437-3.6068-2.5001-5.5639-3.4401-8.929-4.2886-17.9304-8.4264-26.8661-12.7012-8.9124-4.2637-18.8986-2.9707-28.4133-6.2344-12.3417-4.2334-26.6069-2.8649-41.668-4.0339ZM142.0461,88.3996c-9.5369-8.6469-30.2741-10.7692-37.9832-4.1522,9.0184,8.247,28.0311,10.4722,37.9832,4.1522ZM80.4593,83.8094c-9.4013-6.896-18.1458-11.515-28.1951-13.3699-1.4834-.2738-3.2053.7441-4.8168,1.1644.7021,1.9013.8879,4.3196,2.1906,5.6195,8.1542,8.1364,17.9377,10.1927,30.8213,6.586ZM26.6825,67.4592c.3722-.659.7444-1.318,1.1166-1.977-2.477-6.7834-5.9635-13.0109-11.6297-17.7947-.8984-.7585-3.4339-.866-4.2651-.16-1.9537,1.6592-4.5612,3.9461-4.6415,6.0647-.1046,2.7579,1.217,7.0087,3.2762,8.1234,4.9627,2.6866,10.7116,3.9226,16.1434,5.7437ZM186.2585,80.7948c-8.5478,1.5221-17.7289-.4549-26.1435,4.8827,4.6862,4.0907,13.5834,6.2558,20.115,5.3229,5.9003-.8426,7.2914-2.9645,6.0285-10.2056ZM171.4218,98.9932c-.0852-.3176-.1704-.6353-.2557-.9529-4.8206-1.7324-9.585-3.6524-14.4858-5.1165-2.3752-.7096-5.3168-1.4064-7.4517-.6187-3.6351,1.3411-6.6276,4.4828-10.2797,5.6994-3.371,1.123-7.2538.7114-11.0912.9887h43.564ZM109.3566,98.3589c.0949-.6617.1897-1.3234.2846-1.9851-9.0537-5.0704-17.7761-12.3986-30.0528-3.2206,10.6391,1.8605,20.2036,3.5331,29.7682,5.2057ZM203.8991,73.6712c10.7185,1.906,16.4302-1.7225,14.5298-8.301-4.4496,2.5421-8.7783,5.0151-14.5298,8.301ZM193.4953,88.6108c.4102.686.8203,1.3721,1.2304,2.0581,4.7137-2.5384,9.4274-5.0768,14.141-7.6152-.3522-.6411-.7043-1.2822-1.0565-1.9234-5.4438,1.2398-11.2381,1.8258-14.3149,7.4804ZM115.8381,98.0327c-.3442-.1594-.6317-.3919-.9184-.3911-.1967.0006-.3924.3256-.5885.5056.1589.075.3313.2319.474.2084.3308-.0544.6474-.1959,1.0329-.3229Z"/>
  <path class="cls-1" d="M103.8043,7.0901c15.061,1.169,29.3263-.1996,41.668,4.0339,9.5147,3.2637,19.5009,1.9708,28.4133,6.2344,8.9358,4.2748,17.9372,8.4126,26.8661,12.7012,1.9571.94,3.8618,2.0963,5.5639,3.4401,6.5883,5.2015,6.9266,13.3135.5831,18.5857-2.5405,2.1116-5.4967,4.2978-8.6027,5.0483-9.4062,2.2728-18.9214,4.2668-28.5015,5.598-9.4057,1.307-18.9814,2.6113-28.4129,2.2235-14.0104-.5761-28.0043-2.309-41.9211-4.1756-12.3419-1.6554-24.7783-3.3739-36.7811-6.5458-9.656-2.5518-19.2613-6.3932-27.8935-11.3831-7.4255-4.2924-12.2382-13.4431-6.5513-19.2996,1.3394-1.3794,2.8819-2.6656,4.5505-3.6052,11.5026-6.477,24.1653-8.5325,37.0944-9.6419,11.8222-1.0144,23.6271-2.2309,33.9248-3.2137Z"/>
  <path class="cls-3" d="M29.6475,49.2864c15.6644,9.6362,33.1748,13.7863,50.9775,16.9482,8.5695,1.522,17.2195,2.5911,25.8288,3.8633-1.2023,1.9001-2.4002,3.8023-3.5982,5.7044-1.429,1.056-3.0739,1.916-4.245,3.206-3.1,3.4146-5.4323,5.3479-9.0005-.0531-1.4239-2.1553-5.9346-2.0807-8.7811-3.5297-5.9094-3.008-11.5345-6.5819-17.4822-9.5047-6.8313-3.357-13.6735-3.623-20.2145,1.1553-3.6377,2.6574-6.7527,1.6465-8.6501-2.2679-1.9825-4.0899-3.6041-8.3546-5.382-12.5436.1834-.9933.3653-1.9858.5473-2.9783Z"/>
  <path class="cls-3" d="M137.0115,73.7217c23.4896-2.8292,46.9792-5.6584,69.535-8.3751-2.8251,2.179-8.4274,3.7848-8.3397,10.2534.0087.6432-2.8636,2.1589-4.0311,1.8557-11.7565-3.053-23.331-2.3334-34.8344,1.1122-.9053.2711-2.0193.884-2.4151,1.6562-4.0365,7.8756-8.1694,4.4214-12.7355.4702-2.0229-1.7505-4.7882-2.6441-7.2143-3.9245.0131-1.0146.024-2.0313.0349-3.0481Z"/>
  <path class="cls-1" d="M171.4218,98.9932h-43.564c3.8374-.2773,7.7201.1343,11.0912-.9887,3.6521-1.2167,6.6446-4.3583,10.2797-5.6994,2.1348-.7877,5.0764-.0909,7.4517.6187,4.9008,1.4641,9.6652,3.3841,14.4858,5.1165.0852.3176.1704.6353.2557.9529Z"/>
  <path class="cls-1" d="M109.3566,98.3589c-9.5646-1.6726-19.1292-3.3452-29.7682-5.2057,12.2767-9.178,20.9991-1.8498,30.0528,3.2206-.0949.6617-.1897,1.3234-.2846,1.9851Z"/>
  <path class="cls-3" d="M137.0115,73.7217c-.0109,1.0168-.0219,2.0335-.0349,3.0481-11.31-2.7558-22.6255-5.2365-34.1262-.9654,1.2032-1.9041,2.4012-3.8062,3.6035-5.7063,10.1887,1.2092,20.3731,2.4164,30.5576,3.6237Z"/>
  <path class="cls-1" d="M193.4953,88.6108c3.0769-5.6545,8.8712-6.2406,14.3149-7.4804.3522.6411.7043,1.2822,1.0565,1.9234-4.7137,2.5384-9.4274,5.0768-14.141,7.6152-.4102-.686-.8203-1.3721-1.2304-2.0581Z"/>
  <path class="cls-1" d="M42.703,80.6347c-4.4113-1.8755-8.8225-3.751-13.7485-5.8454,5.6197-4.9416,10.6592-2.2738,13.7485,5.8466v-.0012Z"/>
  <path class="cls-1" d="M29.6475,49.2864c-.1819.9925-.3639,1.9851-.5473,2.9783-3.6462-4.3307-8.3851-7.934-10.2335-13.4606.437-.3222.8739-.6444,1.3109-.9666,3.1566,3.8163,6.3132,7.6326,9.4698,11.4489Z"/>
  <path class="cls-1" d="M42.703,80.6359c.7395.3968,1.479.7936,2.2185,1.1904-.2505.2906-.5009.5811-.7513.8717-.489-.6877-.9781-1.3755-1.4671-2.0632v.0012Z"/>
  <path class="cls-1" d="M115.8381,98.0327c-.3855.127-.7021.2686-1.0329.3229-.1427.0234-.3152-.1334-.474-.2084.1962-.18.3919-.505.5885-.5056.2867-.0009.5742.2316.9184.3911Z"/>
</svg>