<?xml version="1.0" encoding="UTF-8"?>
<svg id="Layer_1" xmlns="http://www.w3.org/2000/svg" viewBox="0 0 174.9871 116.98">
  <defs>
    <style>
      .cls-1 {
        fill: #e0dcde;
      }

      .cls-2 {
        fill: #131211;
      }

      .cls-3 {
        fill: #101311;
      }

      .cls-4 {
        fill: #7e9e8d;
      }
    </style>
  </defs>
  <path class="cls-3" d="M95.117,5.78l.3201.28.02.01.01-.01-.3501-.28Z"/>
  <path class="cls-3" d="M174.2671,45.2c.1399-.27.28-.5499.4199-.83-1.1399-1.0699-.6799-2.39-.5801-3.66-1.77-5.45-6.54-8.1599-10.79-11.0699-7.8499-5.4-16.8398-8.4401-25.9697-10.89-2.8301-.76-4.6301-1.59-4.6902-5.01C132.5272,6.76,128.5071,2.45,122.2171,0c-3.37.0701-6.75.15-10.13.22-2.3099.53-4.62,1.05-6.9301,1.5701-2.97,2.03-6.4399,2.8999-9.6899,4.27l-.01.01-.02-.01c-1.1-.2-1.8999.0599-2.01,1.35-2.09,1.71-2.51,5.46-6.27,5.13-.6699.0601-1.34.12-2.01.1899-.84.9401-1.9199.72-2.98.6201-1.27.26-2.55.5199-3.8199.7899-1.9,1.2201-4.16.4401-6.16,1.1-.71,1.0901-1.88.76-2.8899.92-2.29,1.23-4.5801,2.46-6.8801,3.6801-3.3899,2.74-7.9299,3.6499-10.9399,6.98-.95,2.33-3.04,3.5599-4.8601,5.03-1.3599,6.6199-3.2899,13.1899-2.0499,20.0699.26,1.47-.65,2.14-1.6,2.7799-3.6799,2.5001-7.4,4.9401-11.11,7.4001-3.91,3.64-8.14,6.87-12.59,9.82-5.67,5.11-11.03,10.5-15.4401,16.7599-8.4301,11.9901-2.3199,25.97,12.3199,28.26,1.01.01,2.01.02,3.02.04.66-.02,1.3201-.05,1.98-.07,7.8101-1.4,14.3-5.62,20.8301-9.76.5701-.55,1.1399-1.1,1.71-1.65,1.8501-2.55,3.76-5.06,5.5601-7.65,2.3699-3.39,4.6399-6.09,8.4299-1.33.95,1.18,2.9,1.53,4.3401,2.36,8.7,4.99,18.52,6.11,28.08,8.13,4.13.33,8.11,1.54,12.2999,1.74,17.8601.87,35.0601-2.31,51.9302-7.81,5.9199-1.75,10.48-5.24,13.6299-10.56-.1799-.31-.1099-.54.22-.69-.1899-.86.03-1.57.8201-2.04.1799-.65.3599-1.29.55-1.93-.03-2.77.2-5.5,1.49-8.02,1.3198-6.33,2.6299-12.67,3.95-19-.24-4.5001-.48-9.0001-.72-13.5001ZM113.147,6.92c4.0601-1.12,7.4001.6901,10.5901,2.97,1.6899,1.2101,1.6899,2.84,1.1499,4.42-.5999,1.76-2.1299,1-3.3799.8-6.8301-1.1401-13.65-2.26-20.47-3.3901-.03-.34-.0601-.6799-.0901-1.01,4.0601-1.28,8.1001-2.6599,12.2-3.7899ZM60.7972,27.41c6.2999-3.38,12.7-6.53,19.8699-7.59,2.48-.3601,5.1301-.9,3.6801,3.59-1.3199,4.08.2699,8.23,1.6801,12.12,1.22,3.3301,4.23,2.13,6.4399,1.54,2.3-.6101,3.61-2.3801,2.34-5.01-.5-1.05-1.13-2.0601-1.46-3.17-2.24-7.58,1.51-12.0399,9.0399-10.7899,5.55.9099,11.0901,1.9199,16.6501,2.74,3.97.5898,5.96,2.58,5.1399,6.6699-.48,2.4299-.29,4.5801,2.5,4.98,2.6001.3701,3.16-1.53,3.3601-3.83.2899-3.5,2.96-4.36,5.76-3.6801,8.7698,2.1301,17,5.67,24.6899,10.4,2.8601,1.76,2.3899,3.53-.29,5.1801-8.6101,5.3099-17.6899,9.11-28.03,9.1499-5.97.03-11.8699,1.6801-18.1399.7101-9.3801,1.8199-18.8401-.9801-27.6901-3.25-8.6801-2.2201-17.84-5.09-25.64-10.53-6.1899-4.3199-6.37-5.76.1001-9.23ZM79.0472,61.29c.5599-1.92,1.7799-3.14,4.1599-4.82-.49,3.16,1.6599,7.62-4.1599,4.82ZM51.417,39.22c-.02-.27.26-.5599.6801-1.3799,2.48,1.8999,4.67,3.58,7.0599,5.4099-2.73,1.99-6.04,5.6799-7.79,4.64-2.71-1.6.25-5.64.05-8.67ZM29.2671,104.79c-5.1901,4.9-13.03,5.51-18.28,1.72-6.3401-4.56-5.8301-11.44,1.1499-15.81,1.67-6.22,6.9601-9.58,11.4001-13.19,11.5798-9.42,23.6799-18.18,35.6199-27.14,3.4501-2.59,7.1001-4.34,11.3501-1.4401,1.74,1.1802,3.8999.5801,6.3699,1.0801-4.4399,4.98-8.5499,9.87-12.96,14.48-12.27,12.83-21.71,28.08-34.6499,40.3ZM161.8472,86.38c-.6702,3.39-3.2102,5.78-6.9602,7.14-16.05,5.81-32.5299,9.99-49.5699,8.84-14.99-1.02-29.98-3.41-43.71-10.46-3.78-1.94-4.2301-3.73-1.5-7.18,4.2-5.32,7.92-11.02,11.63-16.69.79-1.2,1.55-1.64,2.75-1.54.98.08,1.96.3101,2.9099.57,10.02,2.76,11.9601,1.43,11.3801-8.86-.24-4.32,2.01-3.7401,4.52-3.25,16.8298,3.29,33.6599,2.24,50.45-.18,7.3899-1.0601,13.75-4.9099,19.96-8.75,3.3-2.04,4-1.12,3.8799,2.21-.0898,2.3301-.02,4.66-.02,7.5601,1.1902,10.37-3.6799,20.23-5.7197,30.59Z"/>
  <path class="cls-4" d="M167.5705,55.7935c1.1904,10.3679-3.6866,20.2249-5.727,30.5877-.6666,3.3855-3.2103,5.7794-6.9545,7.1355-16.0475,5.8124-32.5333,9.9948-49.5722,8.8403-14.986-1.0154-29.9776-3.405-43.71-10.4544-3.7789-1.9399-4.226-3.7292-1.495-7.1872,4.1959-5.3132,7.911-11.0172,11.6288-16.6874.7834-1.1948,1.5416-1.6352,2.7473-1.5375.9788.0793,1.9566.3099,2.9078.5719,10.0189,2.7595,11.9593,1.4287,11.3806-8.8627-.2432-4.3244,2.0127-3.7383,4.5241-3.2478,16.8306,3.2876,33.656,2.2384,50.4449-.179,7.3878-1.0638,13.7486-4.9121,19.9637-8.7507,3.3025-2.0397,4.0027-1.1173,3.8785,2.2093-.0869,2.3261-.0168,4.6581-.0168,7.562Z"/>
  <path class="cls-4" d="M114.0299,50.421c-9.3784,1.8146-18.8422-.9832-27.6897-3.2496-8.6826-2.2242-17.8472-5.0867-25.6456-10.5297-6.1892-4.3198-6.3636-5.7626.1027-9.2311,6.2966-3.3773,12.7002-6.5352,19.8673-7.5862,2.4794-.3636,5.1334-.9053,3.6794,3.5826-1.3217,4.0796.2708,8.2361,1.6854,12.119,1.2148,3.3342,4.2236,2.134,6.4367,1.5446,2.2962-.6116,3.6089-2.3825,2.3451-5.0134-.5036-1.0482-1.1357-2.0614-1.4617-3.1638-2.2424-7.5821,1.5124-12.0429,9.0419-10.7984,5.5477.9169,11.0813,1.927,16.6433,2.7452,3.9761.5849,5.9595,2.5774,5.1456,6.6669-.4836,2.4295-.2943,4.5847,2.5011,4.9851,2.5999.3724,3.1571-1.5347,3.3523-3.8339.2971-3.4997,2.9612-4.3578,5.7647-3.6767,8.7683,2.1304,17.0024,5.6707,24.6908,10.3989,2.8592,1.7583,2.3892,3.5278-.2939,5.1823-8.6108,5.3099-17.6838,9.1096-28.0251,9.1509-5.9746.0239-11.8717,1.6812-18.1403.7072Z"/>
  <path class="cls-4" d="M12.1293,90.7174c1.6688-6.2229,6.9644-9.5964,11.4081-13.2096,11.5767-9.4131,23.6826-18.1778,35.6246-27.1383,3.4485-2.5876,7.0977-4.3379,11.3495-1.44,1.736,1.1832,3.8939.5833,6.3653,1.0765-4.4413,4.9825-8.5519,9.8764-12.9603,14.4854-12.2671,12.8255-21.7058,28.0788-34.6491,40.3033-5.188,4.8998-13.0322,5.5056-18.2809,1.7199-6.3474-4.5781-5.8308-11.4777,1.1861-15.8421.9974,1.263-.1497,2.1247-.5936,3.1081-2.6753,5.9267-.2517,10.0447,6.2564,10.6153,6.6459.5827,13.2601-4.2853,14.662-10.7912.9054-4.2016-2.1551-8.3351-6.4245-8.8313-3.4134-.3967-6.0555,1.1129-8.6403,3.0408-1.6156,1.205-2.7659,3.3535-5.3032,2.9031Z"/>
  <path class="cls-4" d="M52.0948,37.8353c2.4839,1.9049,4.6731,3.5837,7.0582,5.4128-2.7274,1.9872-6.0314,5.6834-7.7862,4.6448-2.7111-1.6046.2456-5.6391.046-8.668-.0178-.2704.2628-.5604.6821-1.3896Z"/>
  <path class="cls-4" d="M83.2103,56.4719c-.4882,3.1571,1.6532,7.6225-4.1597,4.8163.5561-1.9193,1.7756-3.141,4.1597-4.8163Z"/>
  <polygon class="cls-1" points="95.4671 6.0601 95.4571 6.0701 95.4371 6.0601 95.4671 6.0601"/>
  <path class="cls-2" d="M12.1293,90.7174c2.5373.4504,3.6877-1.6982,5.3032-2.9031,2.5848-1.9279,5.2269-3.4375,8.6403-3.0408,4.2694.4962,7.3298,4.6297,6.4245,8.8313-1.4019,6.5059-8.0161,11.3738-14.662,10.7912-6.5081-.5706-8.9317-4.6886-6.2564-10.6153.4439-.9835,1.591-1.8452.5936-3.1081,0,.0003-.0432.0449-.0432.0449ZM19.3799,98.7418c2.3244-.5081,5.5258-1.0981,5.703-3.6339.194-2.7762-3.0525-1.1283-4.6896-1.6365-2.4448-.7589-3.7368,1.2089-4.1402,3.1355-.4731,2.2597,1.6395,1.8714,3.1268,2.1349Z"/>
</svg>