<?xml version="1.0" encoding="UTF-8"?>
<svg id="Layer_1" xmlns="http://www.w3.org/2000/svg" viewBox="0 0 116.0272 173.093">
  <defs>
    <style>
      .cls-1 {
        fill: #141814;
      }

      .cls-2 {
        fill: #b0d359;
      }

      .cls-3 {
        fill: #b8d433;
      }
    </style>
  </defs>
  <path class="cls-1" d="M104.7146,38.0157c4.0104-1.9782,6.6123-.4104,7.3872,3.5971,1.4668,7.5851,2.5889,15.2399,3.7251,22.885,1.2419,8.3564-3.4176,12.9779-10.3939,16.1377-5.8411,2.6457-11.6177,5.4338-17.1436,9.2171,3.277-.6186,6.5685-1.1703,9.8273-1.8733,3.7239-.8033,7.4125-1.7688,11.1281-2.6127,3.5242-.8004,5.4314,1.0843,4.9946,4.2503-.9957,7.2167-1.4373,14.8332-4.2572,21.3564-1.7582,4.0672-7.0124,7.4609-11.4646,9.3323-6.9301,2.913-14.5124,4.2741-21.7645,7.2135,1.952-.12,3.9562.0012,5.8454-.4085,4.3842-.9508,8.6667-2.4447,13.0812-3.1552,2.7222-.4381,7.1108-.8791,8.0858.528,1.5965,2.3043,2.3204,6.7796,1.1019,9.1529-2.8277,5.5071-6.0683,11.7035-10.9151,15.0578-6.9686,4.8229-15.325,7.9117-23.4404,10.7282-7.7144,2.6775-15.4008.788-22.6995-3.4959-.8436,4.3933-1.3996,8.5666-2.4867,12.5966-1.1258,4.1731-4.5199,5.6295-9.0602,3.781-3.1531-1.2836-6.5317-2.6706-4.0394-7.623,2.161-4.294,3.3946-9.0548,4.7655-12.854-5.8074-.3758-11.7632-.1021-17.4149-1.2836-8.1765-1.7092-13.5161-6.712-16.6661-15.0236-4.0104-10.5818-3.4903-20.8197-.7732-31.2878.4501-1.7339,1.6811-4.203,2.9861-4.5152,1.3249-.317,3.4717,1.3282,4.7677,2.6103,6.5966,6.5261,13.0166,13.2306,19.5457,19.8257,1.005,1.0152,2.2557,1.7871,3.3927,2.6716.3638-.2592.7276-.5183,1.0914-.7775-1.2972-2.1303-2.3528-4.4621-3.9332-6.3561-7.0066-8.3973-14.2412-16.6054-21.1792-25.0577-.9867-1.2019-1.3983-3.5036-1.0463-5.064,1.2719-5.6385,2.4048-11.4273,4.6746-16.6918,2.8819-6.6843,6.5988-13.0472,10.3775-19.2934,2.7826-4.5996,5.2479-4.2047,7.6164.5839,4.7225,9.5479,9.5055,19.066,14.2949,28.5807.5311,1.0552,1.2656,2.0079,1.9058,3.0082.503-.2404,1.006-.4809,1.509-.7213-2.0659-4.9471-3.9451-9.9828-6.2416-14.8204-3.4134-7.1904-7.3034-14.1591-10.5664-21.413-.7367-1.6377-.3781-4.4509.5861-6.0566,5.0126-8.3477,11.4594-15.4309,19.5477-21.0134,4.706-3.248,7.4641-2.8762,9.5521,2.4976,1.9188,4.9385,3.1375,10.1474,4.7203,15.2198.2239.7175.7632,1.3366,2.174,1.9102,0-1.9293.3902-3.9598-.0786-5.7674-1.0834-4.1769-2.4797-8.283-3.9431-12.348-1.4864-4.1289-.3509-7.1611,3.3832-9.2893,6.4855-3.6962,12.9631-7.4079,19.4961-11.0188,2.8659-1.584,5.4969-1.261,7.2913,1.7616,3.5576,5.9927,7.176,11.9545,10.5377,18.0567,3.1867,5.7845,2.9127,11.4396-1.5009,16.6272.0032-.0003-.1287.0923-.1287.0923-1.1227,1.5339-2.2454,3.0679-3.3679,4.6017-.2608.3354-.5219.6709-.783,1.0064-.9497.901-1.8994,1.802-2.849,2.703.3346.3612.6692.7225,1.0038,1.0838.9785-.9194,1.957-1.8388,2.9354-2.7582.2633-.3709.5267-.7417.79-1.1126,1.0228-1.3166,2.0456-2.6332,3.0684-3.9498.3159-.3442.6318-.6885.9476-1.0327ZM39.3092,38.571c-3.7184,3.0286-3.8428,6.5262-1.6247,10.5503,3.5308,6.4056,7.1448,12.785,10.2544,19.3962,2.2478,4.7788,4.0941,9.8211,5.4358,14.9256.9156,3.4837-.7406,6.7933-4.2702,8.1142-3.6191,1.3544-4.805-1.962-6.2831-4.28-.7115-1.1158-1.1366-2.4106-1.8036-3.5592-2.7684-4.7666-5.5796-9.5084-8.3751-14.2593-.7859-1.6673-1.5717-3.3345-2.3576-5.0017-.929-2.9166-1.8579-5.8332-2.9079-9.1297-4.5359,2.9568-5.9868,7.0117-7.0571,11.3025-.1701.2358-.2707.4983-.302.7875-1.3437,1.7978-2.9253,3.4656-3.9911,5.4154-5.4392,9.951-4.7959,14.9692,2.3383,23.6931,6.7191,8.2163,13.2367,16.5975,19.8429,24.9062-.0199,1.7758.1268,3.5726-.0932,5.3232-.506,4.026-3.9184,5.5489-7.3298,3.3816-2.0135-1.9276-4.0392-3.8427-6.0384-5.7852-5.9934-5.8235-11.9765-11.6577-18.0146-17.5375-4.1268,10.1096-2.3674,19.4927,2.1364,29.1286,4.0892,8.7488,11.2594,11.0117,19.4868,10.7554,7.049-.2195,14.7059.2806,17.0448-9.9894,2.1926-9.6276,6.3769-18.8015,9.6848-28.1751,2.7819-9.2496,5.5637-18.4992,8.3456-27.7488.4997-.7835,1.1826-1.5052,1.4707-2.3599,2.7738-8.2285,5.3084-16.5416,8.2537-24.7071,3.2424-8.9893,6.8449-17.8486,10.2905-26.7646,3.6991,1.6823,3.905,3.6317.9098,8.6137-2.4033,6.4211-4.8066,12.8423-7.2099,19.2634-1.9517,5.8343-3.9035,11.6685-5.8552,17.5028-1.5331,4.6971-3.0683,9.3936-4.5991,14.0915-6.0335,18.5162-12.0183,37.0485-18.1287,55.5393-1.7035,5.1551.2257,8.4422,4.7126,10.7435,7.6052,3.6347,15.0672,3.0312,22.4217-.7573,9.2039-2.8359,17.555-6.9573,22.5288-15.7577.964-1.7056,1.1545-3.8483,1.7018-5.7893-2.0229-.2767-4.0426-.7293-6.0698-.7658-1.2701-.0229-2.5414.6291-3.8296.8935-6.8412,1.4041-13.6879,2.7814-20.5328,4.168l-2.0632-.3725c-3.3732-5.5577-2.0284-9.2426,4.2334-11.5688,1.9302-.7171,3.871-1.4056,5.807-2.1072l.4761.026.4444-.1727c3.8535-.8915,7.6873-1.8813,11.564-2.6573,15.1647-3.0358,21.0149-11.4338,18.724-27.5318-8.6728,2.1157-17.2762,4.3885-25.9765,6.1948-1.8143.3767-5.347-.5366-5.6939-1.621-.6097-1.9065.334-4.5258,1.1971-6.6106.5681-1.3721,2.1354-2.3306,3.2552-3.4742,3.299-1.4054,6.598-2.8109,9.897-4.2163,5.7667-2.6597,11.5333-5.3195,17.3-7.9792,3.6081-5.6725,1.4782-11.8595,1.6-17.8445-.7105-3.685-1.421-7.3699-2.1315-11.0549-.496-.0278-.9919-.0557-1.4879-.0835-1.1758,1.6889-2.3515,3.3778-3.5272,5.0668-1.2393,1.2891-2.4787,2.5781-3.718,3.8672-2.762,1.4481-6.1787,2.608-7.8343-.4879-1.0818-2.0229.0151-5.3209.4512-7.9964.1985-1.2178,1.1592-2.3115,1.7742-3.4614,1.8343-2.5077,3.6687-5.0155,5.503-7.5232.7805-2.115,2.4408-4.3672,2.1372-6.313-.4656-2.9839-1.9615-5.9592-3.6055-8.5695-2.1982-3.4904-4.956-6.6283-7.4735-9.9175-1.9186-3.4129-3.3341-.7589-4.8772.4046-5.1243,2.486-10.3615,4.777-15.278,7.6222-.9864.5708-1.3373,3.3877-.9736,4.9318,1.1724,4.9787,3.1384,9.7796,4.1768,14.7781.8648,4.1628-1.4224,7.0274-5.5192,8.1007-4.128,1.0815-5.6159-1.7508-6.6319-4.9459-1.4026-4.4111-2.6439-8.8744-4.0957-13.2686-.5376-1.6273-1.1547-3.9719-3.4899-1.3425,0,0-.3376.2698-.3375.2698-4.6803,4.5906-9.3606,9.1811-14.0409,13.7717l.0291-.041ZM38.3271,168.2232c.8246.0522,1.6493.1046,2.4739.1568.525-4.421,1.05-8.8421,1.5751-13.2631-.4821-.0635-.9641-.127-1.4462-.1906-.8753,4.4311-4.1753,8.4986-2.6027,13.2968Z"/>
  <path class="cls-3" d="M91.3596,80.5873c-3.299,1.4054-6.598,2.8108-9.8961,4.2154-4.136-2.2423-5.3367,1.5036-6.4556,3.7616-1.0572,2.1335-1.7336,5.3628-.8295,7.2901.8046,1.7152,3.9318,2.9695,6.1654,3.211,2.2917.2478,4.7323-1.0274,7.1262-1.5515,5.6613-1.2397,11.3337-2.4293,16.9761-3.6336,2.1027,9.2647.2102,15.2123-5.4977,18.0221-2.3911,1.177-5.2942,1.4567-7.4731,2.891-4.075,2.6826-10.282.3195-13.0828,5.7103l-.4444.1727s-.4761-.026-.4765-.0259c-12.3161-2.0824-14.205,6.2114-15.0797,16.0614,1.7603-.8332,3.4001-1.6093,5.0398-2.3855.6877.1242,1.3755.2484,2.061.3726,1.7741.4027,3.5455,1.0858,5.3285,1.1176,1.3737.0245,2.7991-1.2269,4.1373-1.1187,5.3475.4328,10.1158-1.2046,14.8268-3.4036.7701-.3595,1.8441-.068,2.7777-.0774-.0269,1.05.3871,2.5622-.1514,3.0761-3.8871,3.7093-7.9143,7.2784-12.004,10.7666-2.815,2.4009-5.8014,4.6008-8.7111,6.8906-7.3545,3.7885-14.8165,4.3921-22.4218.757-.9567-4.3479-2.3805-8.3681-.3194-13.1541,2.2106-5.1333,2.6407-11.0073,4.3024-16.4185.523-1.7032,3.1618-2.7518,3.6981-4.4568,1.1586-3.6834,1.4284-7.6359,2.3592-11.4048.6888-2.7888,1.458-7.5483,2.8663-7.811,5.0666-.945,2.5716-2.9292,1.7712-5.3265-.525-1.5723-.5901-3.7052.0553-5.1882,2.3224-5.3364,4.0695-10.6999,3.2823-16.614,1.9517-5.8343,3.9035-11.6685,5.8559-17.5057,1.3554-1.4595,2.9454-2.7661,3.9968-4.4161.9936-1.5593,1.0082-3.8457,2.1804-5.1675,2.7682-3.1215,2.5539-6.256,1.0321-9.6769,2.9952-4.982,2.7893-6.9314-.9079-8.6159-2.4513,2.3257-4.9044,4.6536-7.5919,7.2039-1.4095-3.4526-3.122-6.7907-4.1161-10.3306-.9422-3.3548-1.0458-6.4527,3.4271-8.2957,3.7397-1.5408,6.894-4.5022,10.3075-6.8345,1.5392-1.1631,2.9547-3.817,4.8741-.4032.7293,1.9803,1.1915,4.1146,2.2353,5.9109,3.4256,5.8951,7.7645,11.4161,6.7058,18.8883-1.8343,2.5077-3.6687,5.0155-5.503,7.5232-1.982,1.5802-4.3025,2.8878-5.8545,4.8145-1.6815,2.0875,1.206,9.3244,4.1384,10.5572,3.4818,1.4639,6.054.2217,7.3251-3.426,1.2393-1.289,2.4787-2.5781,3.7198-3.8681,4.8112-.8324,5.1432,3.6018,7.1447,6.0726-.1218,5.9851,2.0081,12.1721-1.6015,17.8452-6.8175.3827-12.5773,3.0547-17.2985,7.9786Z"/>
  <path class="cls-3" d="M20.0181,67.4173c.0312-.2891.1319-.5516.302-.7878.7297-.3618,1.8846-.5471,2.1194-1.1136,1.4187-3.4237,3.2664-3.7521,5.9155-1.2564.3737.3521,1.2737.1455,1.9301.1975.7859,1.6673,1.5717,3.3345,2.3577,5.0018.5169,2.2984.8994,4.6372,1.5787,6.8864,1.3709,4.539,6.6333,7.9568,3.724,13.4365,2.8242,1.0697,5.4269,2.0025,7.9885,3.0373,4.7863,1.9334,8.7212-.8621,9.4646-6.0131,1.4188-9.8316-3.7316-17.3734-8.1432-25.189-4.0725-7.2149-9.6968-13.843-7.9462-23.0461,0,0-.0291.041-.0291.041,1.2867-.4782,2.7752-.6911,3.8204-1.4865,2.6374-2.007,4.9775-4.4075,7.6349-6.384,1.2881-.9581,3.0209-1.3184,5.2504-2.2369,1.0872,4.1495,2.4779,8.4499,3.2822,12.8572.6076,3.3294,2.1356,5.1045,5.4849,5.1874,2.5975.0643,5.1978.0128,8.6881.0128-2.1002,5.506-4.2217,10.0669-5.5689,14.846-1.7957,6.3701-2.9893,12.91-4.4416,19.3769-2.7819,9.2496-5.5637,18.4992-8.3457,27.7493-1.2748,1.381-3.078,2.549-3.7329,4.1785-2.8586,7.1131-5.4532,14.3357-8.0082,21.5664-2.0759,5.8751-7.6528,9.6698-13.6801,10.4136-16.6356,2.0533-25.9821-19.4668-21.2509-31.6882.6776.5526,1.3219,1.0404,1.9246,1.5752,5.9036,5.2383,11.7702,10.5195,17.7542,15.6641.4987.4287,1.7774-.05,2.6937-.1071,3.4113,2.1672,6.8237.6444,7.3298-3.3816.22-1.7507.0734-3.5474.0936-5.3215.1125-1.4869.8763-3.4155.221-4.3858-2.4734-3.6628-5.6879-6.8306-8.1097-10.5217-4.579-6.9789-12.5409-11.3712-13.9527-21.0209-.5802-3.9652.1449-6.7368,2.1865-8.5996,3.4224-3.1227,1.6393-6.2575,1.4646-9.4883Z"/>
  <path class="cls-2" d="M63.4305,80.7849c1.4522-6.4669,2.6459-13.0068,4.4416-19.3769,1.3472-4.7792,3.4687-9.34,5.5689-14.846-3.4903,0-6.0906.0515-8.6881-.0128-3.3493-.0829-4.8773-1.8581-5.4849-5.1874-.8043-4.4074-2.1951-8.7077-3.2822-12.8572-2.2296.9185-3.9623,1.2788-5.2504,2.2369-2.6574,1.9765-4.9975,4.377-7.6349,6.384-1.0452.7954-2.5337,1.0083-3.8204,1.4865,4.6803-4.5905,9.3606-9.1811,14.0411-13.7718.3604.4219.7206.844,1.0808,1.266.1083-.0947.3152-.2677.311-.273-.3409-.4293-.6983-.8455-1.0544-1.2627,2.3352-2.6294,2.9523-.2848,3.4899,1.3425,1.4518,4.3942,2.693,8.8575,4.0957,13.2686,1.016,3.1951,2.5038,6.0274,6.6319,4.9459,4.0968-1.0733,6.384-3.9379,5.5192-8.1007-1.0384-4.9986-3.0043-9.7994-4.1768-14.7781-.3636-1.5441-.0127-4.361.9736-4.9318,4.9165-2.8452,10.1536-5.1362,15.2799-7.6224-3.4116,2.3321-6.5659,5.2935-10.3056,6.8343-4.473,1.843-4.3693,4.9409-3.4271,8.2957.9941,3.5399,2.7067,6.8779,4.1161,10.3306,2.6875-2.5503,5.1406-4.8782,7.5919-7.2039-3.4475,8.9182-7.0499,17.7775-10.2924,26.7668-2.9453,8.1655-5.4799,16.4786-8.2537,24.7071-.2881.8548-.971,1.5765-1.4707,2.3599Z"/>
  <path class="cls-2" d="M30.7852,130.1368c-.9163.0571-2.195.5358-2.6937.1071-5.9841-5.1446-11.8506-10.4259-17.7542-15.6641-.6027-.5348-1.247-1.0227-1.9246-1.5752-4.7311,12.2215,4.6153,33.7416,21.2509,31.6882,6.0273-.7438,11.6042-4.5385,13.6801-10.4136,2.5549-7.2307,5.1495-14.4533,8.0082-21.5664.6549-1.6295,2.4581-2.7975,3.7329-4.1785-3.3077,9.373-7.4921,18.547-9.6846,28.1745-2.3389,10.2699-9.9957,9.7698-17.0448,9.9894-8.2274.2563-15.3976-2.0066-19.4868-10.7554-4.5038-9.6359-6.2632-19.019-2.1364-29.1286,6.0381,5.8798,12.0212,11.714,18.0146,17.5375,1.9991,1.9425,4.0248,3.8576,6.0384,5.7852Z"/>
  <path class="cls-2" d="M71.2901,72.3332c.7872,5.9141-.9599,11.2776-3.2823,16.614-.6454,1.483-.5803,3.6159-.0553,5.1882.8004,2.3973,3.2955,4.3815-1.7712,5.3265-1.4084.2627-2.1775,5.0223-2.8663,7.811-.9308,3.769-1.2006,7.7215-2.3592,11.4048-.5363,1.7049-3.1751,2.7536-3.6981,4.4568-1.6617,5.4112-2.0918,11.2851-4.3024,16.4185-2.0611,4.7861-.6373,8.8062.3194,13.1541-4.4867-2.301-6.4159-5.5881-4.7124-10.7432,6.1103-18.4908,12.0952-37.0231,18.1287-55.5393,1.5308-4.6979,3.0659-9.3944,4.5991-14.0915Z"/>
  <path class="cls-2" d="M39.3092,38.571c-1.7506,9.2031,3.8737,15.8312,7.9462,23.0461,4.4116,7.8156,9.562,15.3574,8.1432,25.189-.7433,5.151-4.6782,7.9465-9.4646,6.0131-2.5616-1.0348-5.1644-1.9676-7.9885-3.0373,2.9093-5.4797-2.3531-8.8975-3.724-13.4365-.6793-2.2492-1.0618-4.588-1.5787-6.8864,2.7954,4.7508,5.6066,9.4926,8.375,14.2592.6671,1.1485,1.0921,2.4434,1.8036,3.5592,1.4781,2.318,2.6639,5.6344,6.2831,4.28,3.5297-1.3209,5.1859-4.6305,4.2702-8.1142-1.3417-5.1045-3.188-10.1468-5.4358-14.9256-3.1096-6.6112-6.7237-12.9907-10.2544-19.3962-2.2181-4.0241-2.0938-7.5217,1.6247-10.5503Z"/>
  <path class="cls-2" d="M78.3927,120.5036c2.8008-5.3908,9.0078-3.0277,13.0828-5.7103,2.1788-1.4343,5.082-1.714,7.4731-2.891,5.7079-2.8098,7.6004-8.7575,5.4977-18.0221-5.6425,1.2044-11.3148,2.3939-16.9761,3.6336-2.3939.5242-4.8346,1.7993-7.1262,1.5515-2.2336-.2415-5.3609-1.4958-6.1654-3.211-.9041-1.9273-.2277-5.1567.8295-7.2901,1.1189-2.258,2.3196-6.0039,6.4556-3.7616-1.1208,1.1446-2.6881,2.103-3.2562,3.4751-.8631,2.0848-1.8068,4.7041-1.1971,6.6106.3468,1.0845,3.8796,1.9977,5.6939,1.621,8.7003-1.8063,17.3037-4.0792,25.9765-6.1948,2.2909,16.098-3.5593,24.496-18.724,27.5318-3.8766.776-7.7105,1.7657-11.564,2.6573Z"/>
  <path class="cls-2" d="M20.0181,67.4173c.1747,3.2308,1.9579,6.3656-1.4645,9.4883-2.0416,1.8628-2.7667,4.6344-2.1865,8.5996,1.4119,9.6498,9.3737,14.0421,13.9527,21.0209,2.4218,3.6911,5.6363,6.8589,8.1097,10.5217.6553.9703-.1085,2.899-.221,4.3858-6.6066-8.3104-13.1241-16.6915-19.8432-24.9079-7.1342-8.724-7.7775-13.7422-2.3383-23.6931,1.0657-1.9498,2.6474-3.6176,3.9911-5.4154Z"/>
  <path class="cls-2" d="M75.6966,151.9502c2.9098-2.2898,5.8961-4.4897,8.7111-6.8906,4.0897-3.4882,8.1169-7.0573,12.004-10.7666.5385-.5139.1245-2.0261.1514-3.0761-.9336.0094-2.0076-.2821-2.7777.0774-4.711,2.199-9.4793,3.8364-14.8268,3.4036-1.3383-.1083-2.7636,1.1432-4.1373,1.1187-1.783-.0317-3.5544-.7148-5.3285-1.1176,6.8471-1.3866,13.6938-2.7639,20.535-4.168,1.2882-.2644,2.5595-.9165,3.8296-.8935,2.0272.0366,4.0469.4891,6.0698.7658-.5473,1.9411-.7378,4.0838-1.7018,5.7894-4.9739,8.8004-13.3249,12.9218-22.5288,15.7577Z"/>
  <path class="cls-2" d="M99.2891,33.0902c1.0587-7.4722-3.2802-12.9931-6.7058-18.8883-1.0438-1.7963-1.506-3.9305-2.2353-5.9109,2.5167,3.2884,5.2746,6.4262,7.4727,9.9166,1.644,2.6103,3.1399,5.5856,3.6055,8.5695.3036,1.9458-1.3566,4.198-2.1372,6.313Z"/>
  <path class="cls-2" d="M99.395,52.559c-1.2711,3.6477-3.8433,4.8899-7.3251,3.426-2.9324-1.2329-5.8199-8.4697-4.1384-10.5572,1.552-1.9267,3.8725-3.2343,5.8545-4.8145-.615,1.15-1.5757,2.2436-1.7741,3.4614-.4361,2.6755-1.533,5.9734-.4512,7.9964,1.6556,3.0959,5.0723,1.936,7.8343.4879Z"/>
  <path class="cls-2" d="M67.4318,134.3263c-1.6397.7762-3.2795,1.5523-5.0398,2.3855.8747-9.85,2.7636-18.1438,15.0797-16.0614-1.9355.7015-3.8764,1.39-5.8065,2.1071-6.2617,2.3262-7.6066,6.0111-4.2334,11.5688Z"/>
  <path class="cls-2" d="M30.2851,64.457c-.6564-.052-1.5564.1546-1.9301-.1975-2.649-2.4957-4.4968-2.1673-5.9155,1.2564-.2348.5665-1.3897.7518-2.1194,1.1136,1.0702-4.2905,2.5211-8.3454,7.057-11.3022,1.05,3.2965,1.9789,6.2131,2.9079,9.1297Z"/>
  <path class="cls-2" d="M84.3552,35.567c1.5218,3.421,1.7361,6.5554-1.0321,9.6769-1.1722,1.3218-1.1868,3.6082-2.1804,5.1675-1.0513,1.6499-2.6414,2.9565-3.9968,4.4161,2.4027-6.4182,4.806-12.8394,7.2093-19.2605Z"/>
  <path class="cls-2" d="M91.3596,80.5873c4.7212-4.9239,10.481-7.5959,17.2985-7.9786-5.7651,2.6591-11.5318,5.3188-17.2985,7.9786Z"/>
  <path class="cls-2" d="M110.2596,54.7635c-2.0015-2.4708-2.3336-6.905-7.1448-6.0726,1.1739-1.6879,2.3497-3.3769,3.5254-5.0658.496.0278.9919.0557,1.4879.0835.7105,3.685,1.421,7.3699,2.1315,11.0549Z"/>
  <path class="cls-3" d="M53.6586,24.5705c.3561.4172.7135.8334,1.0544,1.2627.0042.0053-.2026.1783-.311.273-.3602-.4221-.7204-.8441-1.0808-1.266-.0002.0002.3374-.2697.3374-.2697Z"/>
</svg>