<?xml version="1.0" encoding="UTF-8"?>
<svg id="Layer_1" xmlns="http://www.w3.org/2000/svg" viewBox="0 0 211.9018 150.4846">
  <defs>
    <style>
      .cls-1 {
        fill: #1d1512;
      }

      .cls-2 {
        fill: #d45242;
      }

      .cls-3 {
        fill: #ebf0bd;
      }
    </style>
  </defs>
  <path class="cls-1" d="M122.5723,10.8396c-.9433-2.0963-3.158-4.7804-2.5257-6.1482.9017-1.9504,3.7422-3.7888,6.0144-4.1852,9.7644-1.7034,18.7238,1.0138,26.9163,6.3258,3.737,2.4231,3.625,6.2622,3.4362,10.2152-.1476,3.0885.3694,6.2088.591,9.3149,1.1622,4.6406,2.3244,9.2812,3.4866,13.9218,1.742,6.6265,3.484,13.2529,5.2867,20.1099,15.289-.3864,27.7079,5.9938,38.2996,16.5396,3.6715,4.3447,6.2536,9.0742,6.956,14.9289,1.467,12.2275,1.7946,24.1941-4.9409,35.2265-2.3064,3.1519-4.1747,6.7807-6.9962,9.3716-11.1749,10.2618-23.9665,16.225-39.6483,13.2651-7.7473-2.8125-15.4946-5.6249-23.2419-8.4373-9.9066-7.9461-10.5564-20.1423-13.9809-30.4558-3.9125,3.2362-7.9141,6.546-12.2685,10.1477,2.187.231,4.2894-.1136,5.6568.7312,2.0173,1.2464,4.5708,3.1245,4.9766,5.1232.5879,2.8959-1.814,4.5597-5.0131,4.8248-2.2439.1859-4.4349,1.0096-6.6495,1.5485-3.659.0674-7.327.3238-10.9742.1475-3.4342-.166-6.4898-1.6656-6.4245-5.5539.0643-3.8315,1.9844-6.6917,6.4742-6.6585,1.0471.0077,2.0953-.1184,4.1121-.2425-4.7211-2.1972-8.4906-3.9516-12.156-5.6574-4.1394,9.7966-8.9266,19.2725-17.7533,25.7808-12.9722,9.5651-27.6119,10.4407-42.8475,7.3945-1.8952-.986-3.7903-1.9719-5.6855-2.9579-1.0566-.6882-2.1131-1.3764-3.1697-2.0646-3.416-3.0779-6.8321-6.1559-10.2482-9.2338-.3289-.5697-.5905-1.1931-.9963-1.7013-12.0414-15.077-11.661-30.9491-2.7567-47.174,2.1239-3.87,5.1313-7.2552,7.7323-10.8633,1.5976-1.1408,3.1755-2.3102,4.7957-3.4179,13.086-8.9462,26.6562-13.6211,41.8092-4.8054.5066.2947,1.4438-.1509,2.3751-.2781-1.6049-2.4659-3.0006-4.6107-4.3965-6.7554-1.6015-7.6517,4.3989-13.4442,13.1402-12.5376,2.4317.2522,4.8164.9563,7.2227,1.453,4.2692.3135,8.5384.627,12.8076.9405,2.934.1242,5.8679.2483,8.8018.3725,1.13.0208,2.2601.0416,3.3901.0624.9463.1522,1.8925.3045,2.8388.4567.7257.0441,1.4514.0882,2.1771.1323,4.7439,1.512,7.1823,4.6321,6.7866,9.7296-1.6378,2.1153-3.2757,4.2302-4.8177,6.2214,1.3579.3888,3.1815.9109,5.0051,1.433,0,0,.3381.174.3381.174.7894,2.8537,1.5788,5.7074,2.3683,8.5611-.4537.6249-.9074,1.2498-1.3611,1.8747-3.336.6985-6.672,1.3969-11.5756,2.4236,1.7916,2.2149,2.6992,4.3239,4.257,5.0637,3.5839,1.7021,7.4841,2.7382,11.5093,4.1323.6848-2.121,1.522-4.7139,2.3591-7.3068.0441-.3378.0881-.6756.1321-1.0134l.0073.0204c7.0201-8.2463,12.906-17.8796,24.8457-19.6589-1.811-12.1203-3.5355-23.662-5.2761-35.3112-4.9502,1.3816-9.3214,2.9438-13.827,3.789-9.8207,1.8423-13.8594-2.5869-11.4661-12.3153.3735-1.5181,1.3137-2.8968,1.9918-4.3399,0,0-.0575.0566-.0575.0566.62-.2512,1.2401-.5024,1.8602-.7536.8239-.2727,1.6477-.5454,3.0925-1.0237-1.3392-.4472-2.0594-.6878-2.7797-.9283l-.0159-.0352ZM62.1913,131.3338c1.7434-1.1608,3.4869-2.3216,5.2303-3.4824.2546-.206.5092-.412.7637-.618,6.8506-4.4852,9.3091-11.4128,10.9138-19.4234-1.6285.1207-2.8872.2141-4.1458.3074-.162-.2773-.4035-.4111-.7245-.4017-.3435-.076-.687-.1521-1.0304-.2281-2.3419.3924-4.6837.7848-7.0256,1.1772-2.9904-.1908-5.9807-.3815-8.971-.5723-2.3335,1.8316-4.6671,3.6631-7.0005,5.4947-3.9611-.2068-7.9222-.4137-11.8834-.6205-4.8448-7.053-4.2145-12.5875,1.982-17.4016,1.5853-.2078,3.8494.1819,4.6445-.7214,4.7513-5.3983,9.1641-11.0947,14.0233-17.1026-1.9562-.7979-3.109-1.478-4.3501-1.7393-6.4969-1.3679-13.0179-4.2208-19.5236-.0119-1.5974.8408-3.3065,1.5217-4.7753,2.5469-17.0219,11.8812-17.8639,32.4271-7.4433,49.8996,5.149,7.2967,14.5676,10.9904,22.3167,8.752,1.3304-.3416,2.6607-.6833,3.9911-1.025,4.3361-1.6099,8.6721-3.2198,13.0082-4.8297ZM99.4888,93.5599c1.1549-.0932,2.3148-.1458,3.4639-.2868,4.6018-.5648,7.4503,2.602,8.9561,5.8163.9575,2.0439-.8309,5.3798-1.4032,8.1332-.5077,2.4424-1.0364,4.8804-1.6716,7.8639,7.689-3.6087,12.5627-13.9018,9.694-19.0327-3.2986-5.8997-13.8509-7.6815-20.0346-3.3835-.8227.5586-1.8562.9548-2.4329,1.7031-3.0298,3.9316-8.304,7.5554-4.3394,13.3052,2.3263,3.3738,6.0807,5.763,9.1927,8.595,1.1572-4.4577,1.6248-7.6116-1.8003-10.2881-1.3283-1.038-1.1492-4.4091-1.0844-6.7012.0543-1.9203.9413-3.8172,1.4596-5.7244ZM157.0267,90.2829c-.8781-5.4557-1.7561-10.9114-2.655-16.4961-6.9996,2.2246-14.2522,9.6623-18.1099,17.91-.6639,1.3315-1.3277,2.663-2.2534,4.5197,6.7403,0,12.5318-.011,18.3232.0066,1.7685.0054,3.5367.0893,5.3051.1372-.2033-2.0258-.4066-4.0516-.6099-6.0774ZM167.9389,74.8038c.6589,3.6667,1.3922,6.9022,1.7922,10.1784.5543,4.5397,1.9144,8.2264,5.9768,11.1751,3.916,2.8424,3.7577,8.1392.6696,11.9456-4.055,4.9982-10.7083,5.7729-16.6209,1.9535-1.3721-.8864-2.7926-2.4682-4.1703-2.4463-7.0916.1129-14.1766.6442-21.8326,1.0603.4824,2.7085.3977,5.3499,1.4162,7.4585,8.0585,16.685,14.3984,20.4704,29.3766,19.2432.9965-.0816,1.9973-.2331,2.9915-.2027,14.7175.4495,23.2404-6.9955,28.2912-20.4935,9.3309-24.9367-9.6649-39.8951-27.8901-39.872ZM87.0891,61.6553c.0169-.1341.0338-.2681.0507-.4022,6.458,0,12.9258.1886,19.3669-.1415,1.486-.0762,2.8809-1.9289,4.3177-2.9641-1.387-1.1937-2.7177-2.4655-4.1956-3.5333-.4415-.319-1.2991-.0242-1.9596-.0833-10.8725-.9728-21.7334-2.1129-32.6219-2.8453-3.3112-.2227-7.4873-.3648-8.5409,4.0399-.912,3.8131,2.0078,5.7329,5.1374,6.7643,1.9374.6385,4.1296.9258,6.1608.7688,4.1116-.3177,8.1916-1.045,12.2845-1.6034ZM151.8195,23.5875l-1.8783-.9289c-.6651,1.4472-2.0789,3.0132-1.8713,4.322,1.1668,7.3548,2.7106,14.6504,4.1624,21.9589.2253,1.1343.2835,2.7498,1.0255,3.2592,4.1309,2.8355,3.3315,7.2222,3.9529,11.2013.7135,4.5694,1.5534,9.1194,2.3662,13.6728,1.4447,8.0929,4.6157,15.9444,3.4797,24.6599,3.9987.0511,5.6643-1.9073,4.817-5.8145-3.1983-14.747-6.4622-29.4799-9.7308-44.2115-2.081-9.379-4.2137-18.7465-6.3232-28.1192ZM55.7137,97.1067c7.3019-9.3869,14.3855-18.4931,21.469-27.5993-.3538-.5085-.7076-1.0169-1.0614-1.5254-1.5685.6154-3.6254.7986-4.6198,1.9221-3.9546,4.4682-7.612,9.2028-11.3147,13.8898-4.3563,5.5143-8.6454,11.0817-13.1204,16.8273,6.9299,1.2943,13.0414,3.1214,19.222,3.3971,6.159.2747,12.3873-1.0068,18.5853-1.6059-.0633-.5624-.1265-1.1248-.1898-1.6873-6.3705,0-12.8115-.574-19.0876.1957-4.407.5404-7.7458.5936-9.8825-3.8141ZM78.1415,75.656c4.1419,5.8497,8.0717,11.3999,12.6249,17.8305,1.1978-2.5677,3.3404-4.9478,2.8551-6.513-1.8598-5.9983-4.435-11.7922-7.0025-17.5467-1.4537-3.2581-3.5666-2.5245-5.1625-.0304-1.3737,2.1467-2.4046,4.5126-3.315,6.2597ZM133.0589,25.7927c5.9825-3.0102,11.7652-5.7588,17.3364-8.8844.9106-.5108,1.5423-2.9672,1.0955-4.004-.3772-.8753-2.5347-1.4306-3.8523-1.3433-1.7578.1165-3.4472,1.0597-5.1982,1.5277-4.1614,1.1122-8.3417,2.1537-12.5298,3.2277,1.1127,3.3491,1.9368,5.8297,3.1483,9.4764ZM154.0232,103.212c.0851-.563.1702-1.126.2553-1.6889-9.8603-.4902-19.7207-.9803-30.3864-1.5105,2.6417,5.0476,4.4797,5.1598,30.1311,3.1995ZM101.8189,85.1989c-2.4087-6.0233-4.6698-11.9446-7.2315-17.7329-.3068-.6931-2.2471-.6633-3.8167-1.0684,3.4443,12.9092,6.9443,18.9862,11.0482,18.8013ZM71.1712,85.7133c-3.2029,3.888-5.6572,6.8672-8.8833,10.7834,5.1192-.3886,9.0583-.6876,13.9746-1.0608-1.8445-3.5224-3.2405-6.1882-5.0913-9.7227ZM123.2418,6.1353c7.3831,3.3558,13.8096,3.4276,21.343,1.7392-7.0961-2.9863-13.3542-4.8573-21.343-1.7392ZM115.4546,127.2498c.0082-.4471.0165-.8943.0247-1.3414-5.2573-.266-10.5135-.6591-15.7725-.6981-1.1451-.0085-2.2995,1.2506-3.4496,1.9259,1.3172.6533,2.6775,1.9359,3.9441,1.8493,5.1001-.3486,10.1714-1.1204,15.2532-1.7358ZM113.7439,74.218c.0062-.5266.0123-1.0532.0185-1.5798-3.9211-2.9467-7.9327-.4632-11.9095-.0652-.0061.5483-.0121,1.0966-.0182,1.645h11.9093ZM125.3996,18.0108l-3.1028.7486c.5323,2.4504,1.0645,4.9008,1.5967,7.3512,1.0225-.2692,2.9508-.664,2.9335-.7891-.3404-2.4556-.907-4.8799-1.4274-7.3106ZM104.5951,97.5752c-.8816.3134-1.7632.6268-2.6447.9402.3803,1.6963.3904,3.6574,1.3219,4.9594.3764.526,2.7663-.3885,4.2399-.6475-.9724-1.7507-1.9447-3.5014-2.9171-5.2521Z"/>
  <path class="cls-3" d="M87.0891,61.6553c-4.093.5584-8.1729,1.2857-12.2845,1.6034-2.0313.157-4.2234-.1304-6.1608-.7688-3.1296-1.0314-6.0494-2.9512-5.1374-6.7643,1.0536-4.4048,5.2297-4.2627,8.5409-4.0399,10.8885.7324,21.7494,1.8725,32.6219,2.8453.6605.0591,1.5182-.2357,1.9596.0833,1.478,1.0678,2.8086,2.3396,4.1956,3.5333-1.4368,1.0352-2.8317,2.8879-4.3177,2.9641-6.4411.3301-12.9088.1415-19.3669.1415-.0169.1341-.0338.2681-.0507.4022Z"/>
  <path class="cls-2" d="M151.8195,23.5875c2.1095,9.3727,4.2422,18.7402,6.3232,28.1192,3.2686,14.7316,6.5326,29.4645,9.7308,44.2115.8474,3.9072-.8182,5.8656-4.817,5.8145,1.136-8.7155-2.035-16.5671-3.4797-24.6599-.8128-4.5535-1.6527-9.1035-2.3662-13.6728-.6214-3.9791.178-8.3658-3.9529-11.2013-.742-.5093-.8001-2.1249-1.0255-3.2592-1.4518-7.3085-2.9956-14.6041-4.1624-21.9589-.2076-1.3088,1.2062-2.8748,1.8713-4.322l1.8783.9289Z"/>
  <path class="cls-2" d="M55.7137,97.1067c2.1367,4.4077,5.4755,4.3545,9.8825,3.8141,6.2762-.7697,12.7171-.1957,19.0876-.1957.0633.5624.1266,1.1248.1898,1.6873-6.1979.5992-12.4263,1.8806-18.5853,1.6059-6.1806-.2757-12.2921-2.1027-19.222-3.3971,4.475-5.7456,8.7641-11.313,13.1204-16.8273,3.7027-4.687,7.3601-9.4216,11.3147-13.8898.9944-1.1236,3.0512-1.3068,4.6198-1.9221.3538.5085.7076,1.0169,1.0614,1.5254-7.0835,9.1062-14.1671,18.2123-21.469,27.5993Z"/>
  <path class="cls-3" d="M98.4928,92.6708c6.1844-4.2985,16.7368-2.5167,20.0353,3.383,2.8687,5.1309-2.005,15.424-9.694,19.0327.6352-2.9835,1.1639-5.4215,1.6716-7.8639.5723-2.7534,2.3607-6.0893,1.4032-8.1332-1.5058-3.2142-4.3543-6.3811-8.9561-5.8163-1.149.141-2.309.1936-3.4639.2868-.332-.2964-.664-.5928-.9961-.8891Z"/>
  <path class="cls-3" d="M133.0589,25.7927c-1.2115-3.6466-2.0356-6.1272-3.1483-9.4764,4.1881-1.074,8.3684-2.1155,12.5298-3.2277,1.7509-.468,3.4403-1.4112,5.1982-1.5277,1.3176-.0873,3.475.4681,3.8523,1.3433.4468,1.0368-.1849,3.4931-1.0955,4.004-5.5712,3.1257-11.3539,5.8743-17.3364,8.8844Z"/>
  <path class="cls-3" d="M99.4888,93.5599c-.5183,1.9072-1.4053,3.804-1.4596,5.7244-.0648,2.2921-.244,5.6632,1.0844,6.7012,3.425,2.6765,2.9575,5.8304,1.8003,10.2881-3.112-2.8321-6.8663-5.2213-9.1927-8.595-3.9646-5.7498,1.3096-9.3736,4.3394-13.3052.5767-.7483,1.6101-1.1445,2.4325-1.7029.3317.2966.6637.593.9957.8894Z"/>
  <path class="cls-2" d="M154.0232,103.212c-25.6514,1.9604-27.4894,1.8482-30.1311-3.1995,10.6658.5302,20.5261,1.0204,30.3864,1.5105-.0851.563-.1702,1.126-.2553,1.6889Z"/>
  <path class="cls-2" d="M101.8189,85.1989c-4.1039.1849-7.6039-5.8921-11.0482-18.8013,1.5696.405,3.5099.3752,3.8167,1.0684,2.5617,5.7883,4.8229,11.7096,7.2315,17.7329Z"/>
</svg>