<?xml version="1.0" encoding="UTF-8"?>
<svg id="Layer_1" xmlns="http://www.w3.org/2000/svg" viewBox="0 0 174.4822 142.8181">
  <defs>
    <style>
      .cls-1 {
        fill: #161314;
      }

      .cls-2 {
        fill: #dfb3c0;
      }

      .cls-3 {
        fill: #e6eebd;
      }
    </style>
  </defs>
  <path class="cls-1" d="M149.2467,70.9749c-1.18-.5378-2.331-.8867-3.2164.4937-12.0938,10.3924-24.3114,20.6255-37.7713,29.2539-.6991.4482-1.7016.8905-1.2171,1.8259,2.1077,4.0691.0211,8.1756.3054,12.1958.4772,6.7497-1.4972,12.3452-5.9041,17.268-4.7071,4.9768-11.5986,5.7219-17.2371,8.8942-3.9821.6209-7.9641,1.2417-11.9462,1.8626-.6655.0163-1.3311.0327-1.9966.049-5.0113-.0059-10.0226-.0117-15.0339-.0176-3.3634-1.479-7.0786-.6214-10.52-1.5829-1.1996-.5195-2.3583-1.1832-3.6051-1.5357-9.5736-2.7071-16.4956-7.2976-14.1488-18.95.3478-1.7273-.888-2.7074-2.69-2.7379-6.0116-3.2927-12.9617-4.8957-17.9778-9.9809-4.1347-6.0255-5.4668-12.9318-6.2878-19.9987.1969-4.6351.1392-9.2982.6439-13.8995,1.0408-9.4907,8.1851-14.7111,14.7828-20.2254,1.9027-1.5902,3.988-2.962,5.9895-4.4339,1.6168-.8275,3.2335-1.655,4.8503-2.4825,6.4385,1.3816,10.6956-1.7744,14.0719-6.7625.8936-.5898,1.7872-1.1796,2.6808-1.7694,3.2652-.6574,6.2628-2.0325,9.2455-3.4471.6951.0644,1.0657-.2202,1.0218-.9502.5847-5.2498,1.1694-10.4995,1.7541-15.7493.68-2.5509,1.185-5.1644,2.07-7.6421,4.07-11.394,16.1587-14.125,25.8773-5.866,1.7644,1.4994,3.3434,3.217,5.0079,4.8338.5445,1.1931,1.089,2.3862,1.6336,3.5793.9615,4.9125,1.0869,9.8881,1.1229,14.8704-1.314,4.2756-.7831,6.8863,4.3576,8.6422,11.0745,3.7826,14.8519,10.4443,14.0042,22.0311-.1688,2.3079-.1463,4.6297-.2115,6.9457-.1046.3297-.2098.6589-.3151.988.3852-.0111.7704-.0222,1.1557-.0334,6.6694-3.4788,14.0368-5.0353,21.0424-7.5892,3.2507-1.185,5.3183-2.701,5.4655-6.6221.1753-4.6717,2.1662-9.0404,4.076-13.2272,3.0921-6.7786,13.2645-8.1756,19.8701-2.7298,4.8833,4.0259,8.9171,8.8924,11.8847,14.5554,1.0992,6.2414,4.1105,12.3713,1.1003,18.8525-3.6248,3.3445-8.2793,4.3054-12.4604,2.737-3.8812-1.4559-7.6635-1.1102-11.4749-1.6455ZM49.7347,114.3011c4.9446-1.1733,8.6366,1.41,12.4669,3.2991,2.7619,1.3622,4.4379,3.47,4.1824,6.7098-.2501,3.1703-2.5719,4.6379-5.1573,5.4425-6.2306,1.9392-12.4765,2.0772-18.2366-1.4734-2.1105-1.3009-3.1282-.9438-4.3299,1.0374-1.7035,2.8086.8592,2.6943,2.1129,3.1111,17.9206,5.9568,35.6516,5.3618,52.7307-2.7275,4.5033-2.1329,7.3489-6.6691,7.4032-12.2261.0325-3.3242-.2802-6.6797.5761-9.9498.7649-2.9207-.2196-4.3792-3.1736-5.467-7.2517-2.6702-10.3533-7.6335-9.9199-14.8873.4219-7.061,4.4913-11.9382,9.84-15.9153,1.217-.9049,2.4177-1.3984,2.752-3.1689.8017-4.2465,1.5454-8.4603,1.5879-12.8184.0285-2.9341-.8992-3.4565-3.52-2.5387-9.3272,3.2664-19.1221,4.0799-28.845,5.1566-2.0423.2262-2.5595.6609-2.0644,2.6466.3137,1.2586.2171,2.6595.0997,3.9783-.475,5.3378-6.4347,9.45-12.0956,8.4086-5.3417-.9827-8.5943-5.899-6.1814-11.3012,2.2959-5.1407.5615-6.8661-3.9359-8.023-.9426-.2425-1.8183-.8293-2.6614-1.3587-2.8087-1.7637-3.9709-.4251-4.1611,2.2984-.657,9.4085-1.11,18.8325-1.8683,28.2322-.7064,8.7567-.3867,17.574-1.7283,26.293-.8471,5.5059-1.5393,11.0426-1.4732,17.8852,6.0813-8.1626,11.3387-15.293,17.8266-21.4551-9.0299-6.2823-9.2536-7.9555-1.841-14.9201,1.2666-1.19.5806-1.8757.3093-2.9523-2.0808-8.2556,3.1433-13.5394,11.3265-11.1031,3.2366.9636,5.948.8469,9.0581-.2636,6.7781-2.4202,14.3338,3.8413,11.3007,10.8771-.7058,1.6373-.3485,2.6021.779,3.9054,2.0712,2.3945,4.1937,5.1033,2.3228,8.5047-1.8462,3.3566-4.8998,4.9164-8.7432,4.1375-1.5079-.3055-2.1011-.2358-2.1428,1.4359-.1319,5.2977-3.0798,8.2496-8.1201,9.1539-5.5348.993-8.7049-1.7556-9.9298-7.5561-2.4974,2.8965-4.5217,5.2443-6.5461,7.5922ZM94.7357,87.9828c-.7972,3.5433,1.4514,5.8095,3.9609,7.8213,2.6989,2.1636,5.1527.31,7.2695-1.0786,11.0597-7.2548,21.4951-15.3473,31.2908-24.2344,1.095-.9934,3.5201-1.7174,1.984-4.302-1.5481-2.6047-3.4595-2.4392-5.8917-1.5605-10.0893,3.6448-20.2729,7.036-30.3036,10.8331-5.4766,2.0732-8.3184,6.3761-8.31,12.5211ZM84.108,23.4339c.485-6.6281-2.0437-12.1418-8.6346-15.3988-5.3867-2.6619-10.0744-1.1041-12.0544,4.502-1.9287,5.461-3.0764,11.1601-3.183,17.0342-.0431,2.3743.713,3.2395,3.1175,3.1488,4.3106-.1625,8.6412-.2729,12.9445-.0462,7.5401.3973,7.535.5109,7.8078-7.2522.0175-.4975.0023-.9961.0023-1.9878ZM14.6929,86.1477c.6073,6.2407,3.367,11.4081,9.5173,14.3613,4.8322,2.3203,5.8454,1.9025,5.8432-3.3737-.0043-10.7756,1.8467-21.3958,2.3108-32.1228.059-1.3636,1.702-3.0362-.0449-4.0124-1.2971-.7248-2.8175.4171-4.164,1.0413-10.1786,4.7183-12.0228,14.1485-13.4624,24.1063ZM97.7591,46.6663c-1.4229-2.8903-3.681-3.7172-5.855-4.3697-7.8047-2.3422-15.6959-3.7505-23.9703-3.2329-7.6735.48-7.4227.1336-7.7338,7.7041-.166,4.0405,1.3518,4.4361,4.8419,4.4941,11.0644.1836,21.6817-2.3074,32.7171-4.5956ZM56.8735,94.1281c-.6632,0-1.3444-.099-1.9859.0188-1.8156.3335-4.1677.8196-4.0534,2.8916.145,2.6264,2.7417,2.2618,4.6867,2.2786.4833.0042.9716-.1813,1.452-.3017,6.7323-1.6884,7.3312-1.1148,5.7138,5.4379-.34,1.3777-1.336,3.1043.7575,3.767,1.5507.4909,3.4164.4452,4.4716-1.1943.8284-1.287.6899-2.7772.4783-4.3232-.8515-6.2213.8843-7.5927,6.7808-5.4429,1.436.5236,3.2389,1.2486,3.9912-.1467.8526-1.5815-1.0788-2.6818-2.2178-3.3762-5.454-3.325-5.5039-3.265-1.2062-7.4817,1.3623-1.3367,2.2704-3.1817.1178-3.9463-2.2942-.8149-5.4272-1.581-6.6037,2.063-.5997,1.8575-1.314,3.5592-3.5058,3.5811-2.5433.0254-2.6327-1.9663-2.7826-3.8667-.1922-2.4376-2.1375-2.154-3.7415-2.1692-1.4232-.0135-3.1929-.4792-3.8855,1.3465-.6825,1.7993.0826,3.1291,1.7259,4.1601.9433.5918,1.8724,1.4665,2.3707,2.438.5647,1.1007,2.1107,2.0195,1.3602,3.5027-.899,1.7761-2.4806,1.1729-3.9244.7635ZM33.2601,54.3289c-1.3012-1.6588-2.5279-1.4657-3.6248-1.3697-8.0281.7027-22.5874,15.5625-23.0709,23.5868-.19,3.1545-.1657,6.323-.199,9.4856-.1349,12.7868,5.451,21.5588,17.9445,25.4336,1.3861.4299,3.0583,2.1412,3.9519-.6704.85-2.6743-1.2805-2.4634-2.7614-2.9443-6.2005-2.0133-11.5169-5.1731-14.2911-11.4401-6.1128-13.8089.409-32.0032,13.8771-39.2387,2.4952-1.3405,5.3648-1.433,8.1737-2.8427ZM168.4875,63.8227c-.7242-4.2215-1.0091-8.6424-3.1923-12.3855-2.5726-4.4108-5.8379-8.387-10.2893-11.1099-1.3757-.8415-3.2553-1.5059-4.5944-.345-1.0923.9469.0779,2.4549.3468,3.6966,1.1333,5.2317,3.4627,9.9891,6.156,14.5378,1.9234,3.2485,4.3202,6.1724,7.86,7.9262,2.602,1.2892,3.6877.3963,3.7132-2.3201ZM154.7494,65.638c-4.5933-6.0869-7.5764-12.662-10.328-20.6429-2.0039,5.521-4.455,9.6292-2.3363,14.3675,2.3144,5.1757,6.92,6.2621,12.6644,6.2753ZM44.5104,123.4012c4.5093,3.6735,9.2055,2.8186,13.8301,1.991.9443-.169,2.6085-.1515,2.4718-1.8202-.1072-1.3088-1.3604-1.8059-2.4132-2.2612-4.8861-2.1131-9.2228-.5939-13.8887,2.0904ZM53.9237,41.2269c-3.2389,1.3082-6.7486,1.5313-9.4113,4.2183,2.8336,2.5108,6.0264,3.6428,9.5104,4.6238.3978-3.0187.4165-5.7714-.0991-8.842ZM62.2681,62.7927c.2917-2.4069-1.9854-2.4665-3.6331-2.6888-2.9316-.3954-2.8823,2.2257-3.3054,4.0198-.4333,1.8375.7061,2.959,2.5004,2.8257,2.266-.1684,4.2389-1.0035,4.4381-4.1567Z"/>
  <path class="cls-2" d="M49.7347,114.3011c2.0244-2.3478,4.0487-4.6957,6.5461-7.5922,1.2249,5.8005,4.395,8.5491,9.9298,7.5561,5.0403-.9043,7.9882-3.8562,8.1201-9.1539.0416-1.6717.6349-1.7414,2.1428-1.4359,3.8434.7788,6.897-.781,8.7432-4.1375,1.8709-3.4014-.2516-6.1101-2.3228-8.5047-1.1275-1.3033-1.4848-2.2682-.779-3.9054,3.0331-7.0357-4.5226-13.2972-11.3007-10.8771-3.1101,1.1105-5.8215,1.2272-9.0581.2636-8.1831-2.4362-13.4073,2.8475-11.3265,11.1031.2714,1.0766.9573,1.7623-.3093,2.9523-7.4127,6.9646-7.1889,8.6378,1.841,14.9201-6.4879,6.1622-11.7453,13.2926-17.8266,21.4551-.0662-6.8426.6261-12.3794,1.4732-17.8852,1.3416-8.719,1.0219-17.5363,1.7283-26.293.7582-9.3997,1.2113-18.8237,1.8683-28.2322.1902-2.7235,1.3524-4.0622,4.1611-2.2984.8431.5293,1.7188,1.1162,2.6614,1.3587,4.4974,1.1569,6.2318,2.8823,3.9359,8.023-2.4128,5.4022.8397,10.3184,6.1814,11.3012,5.6608,1.0414,11.6205-3.0707,12.0956-8.4086.1174-1.3189.2141-2.7198-.0997-3.9783-.4951-1.9857.0221-2.4205,2.0644-2.6466,9.7229-1.0767,19.5178-1.8903,28.845-5.1566,2.6208-.9178,3.5485-.3954,3.52,2.5387-.0425,4.3581-.7862,8.5718-1.5879,12.8184-.3343,1.7705-1.535,2.2639-2.752,3.1689-5.3487,3.9771-9.4181,8.8543-9.84,15.9153-.4334,7.2537,2.6682,12.2171,9.9199,14.8873,2.9541,1.0877,3.9385,2.5462,3.1736,5.467-.8564,3.2701-.5437,6.6255-.5761,9.9498-.0543,5.5571-2.8999,10.0932-7.4032,12.2261-17.0791,8.0893-34.81,8.6842-52.7307,2.7275-1.2537-.4168-3.8164-.3025-2.1129-3.1111,1.2016-1.9812,2.2193-2.3383,4.3299-1.0374,5.7601,3.5506,12.006,3.4126,18.2366,1.4734,2.5854-.8047,4.9072-2.2723,5.1573-5.4425.2555-3.2398-1.4205-5.3476-4.1824-6.7098-3.8303-1.8891-7.5223-4.4724-12.4669-3.2991Z"/>
  <path class="cls-2" d="M94.7357,87.9828c-.0085-6.145,2.8334-10.448,8.31-12.5211,10.0307-3.7971,20.2143-7.1883,30.3036-10.8331,2.4322-.8786,4.3436-1.0442,5.8917,1.5605,1.5361,2.5846-.8889,3.3086-1.984,4.302-9.7957,8.8871-20.2311,16.9796-31.2908,24.2344-2.1168,1.3886-4.5706,3.2422-7.2695,1.0786-2.5095-2.0117-4.7581-4.2779-3.9609-7.8213Z"/>
  <path class="cls-3" d="M97.7591,46.6663c-11.0355,2.2881-21.6528,4.7791-32.7171,4.5956-3.4902-.0579-5.008-.4535-4.8419-4.4941.3112-7.5705.0603-7.2241,7.7338-7.7041,8.2743-.5176,16.1656.8907,23.9703,3.2329,2.174.6524,4.4321,1.4794,5.855,4.3697Z"/>
  <path class="cls-3" d="M56.8722,94.122c1.445.4156,3.0267,1.0187,3.9256-.7573.7505-1.4832-.7955-2.4019-1.3602-3.5027-.4983-.9715-1.4274-1.8462-2.3707-2.438-1.6433-1.031-2.4084-2.3608-1.7259-4.1601.6926-1.8257,2.4623-1.36,3.8855-1.3465,1.604.0152,3.5492-.2683,3.7415,2.1692.1499,1.9004.2393,3.8921,2.7826,3.8667,2.1918-.0219,2.9061-1.7236,3.5058-3.5811,1.1765-3.644,4.3095-2.8779,6.6037-2.063,2.1526.7646,1.2445,2.6097-.1178,3.9463-4.2977,4.2167-4.2479,4.1567,1.2062,7.4817,1.139.6944,3.0704,1.7947,2.2178,3.3762-.7523,1.3953-2.5552.6703-3.9912.1467-5.8965-2.1499-7.6323-.7785-6.7808,5.4429.2116,1.546.3501,3.0362-.4783,4.3232-1.0552,1.6394-2.9209,1.6851-4.4716,1.1943-2.0935-.6627-1.0975-2.3893-.7575-3.767,1.6174-6.5527,1.0185-7.1263-5.7138-5.4379-.4804.1205-.9687.3059-1.452.3017-1.945-.0168-4.5418.3478-4.6867-2.2786-.1143-2.072,2.2378-2.5581,4.0534-2.8916.6415-.1178,1.3228-.0188,1.9846-.025Z"/>
  <path class="cls-2" d="M33.2601,54.3289c-2.8089,1.4097-5.6785,1.5022-8.1737,2.8427-13.4681,7.2355-19.9899,25.4298-13.8771,39.2387,2.7742,6.267,8.0906,9.4269,14.2911,11.4401,1.4809.4809,3.6114.2699,2.7614,2.9443-.8936,2.8117-2.5658,1.1003-3.9519.6704-12.4936-3.8748-18.0794-12.6469-17.9445-25.4336.0333-3.1626.009-6.3311.199-9.4856.4834-8.0243,15.0428-22.884,23.0709-23.5868,1.0969-.096,2.3236-.2891,3.6248,1.3697Z"/>
  <path class="cls-3" d="M168.483,63.8194c-.021,2.7197-1.1067,3.6126-3.7087,2.3234-3.5397-1.7539-5.9365-4.6778-7.86-7.9262-2.6933-4.5487-5.0227-9.306-6.156-14.5378-.2689-1.2416-1.4391-2.7496-.3468-3.6966,1.3391-1.1609,3.2187-.4965,4.5944.345,4.4514,2.7229,7.7168,6.6991,10.2893,11.1099,2.1832,3.7431,2.4681,8.164,3.1877,12.3822Z"/>
  <path class="cls-2" d="M154.7494,65.638c-5.7444-.0133-10.3499-1.0996-12.6644-6.2753-2.1187-4.7383.3325-8.8465,2.3363-14.3675,2.7517,7.9809,5.7348,14.556,10.328,20.6429Z"/>
  <path class="cls-3" d="M44.5104,123.4012c4.6659-2.6843,9.0026-4.2036,13.8887-2.0904,1.0529.4553,2.306.9523,2.4132,2.2612.1367,1.6687-1.5275,1.6512-2.4718,1.8202-4.6246.8276-9.3208,1.6826-13.8301-1.991Z"/>
  <path class="cls-3" d="M53.9237,41.2269c.5156,3.0706.4969,5.8233.0991,8.842-3.484-.981-6.6768-2.113-9.5104-4.6238,2.6626-2.6869,6.1724-2.9101,9.4113-4.2183Z"/>
  <path class="cls-3" d="M62.2681,62.7927c-.1992,3.1532-2.1722,3.9883-4.4381,4.1567-1.7943.1334-2.9337-.9882-2.5004-2.8257.4231-1.7942.3738-4.4153,3.3054-4.0198,1.6477.2223,3.9248.2818,3.6331,2.6888Z"/>
</svg>