<?xml version="1.0" encoding="UTF-8"?>
<svg id="Layer_1" xmlns="http://www.w3.org/2000/svg" viewBox="0 0 161.6151 162.4024">
  <defs>
    <style>
      .cls-1 {
        fill: #f096bb;
      }

      .cls-2 {
        fill: #f096bd;
      }

      .cls-3 {
        fill: #fff;
      }

      .cls-4 {
        fill: #f9d411;
      }

      .cls-5 {
        fill: #c92c7e;
      }
    </style>
  </defs>
  <path class="cls-5" d="M61.3642,120.2246c-.1558-2.6357-1.18-3.9421-3.7745-4.4354-.5977-.1137-1.3206.4302-1.986.6713-.1279.1977-.2556.3957-.3834.5938,0,0-.0031-.0453-.0033-.0451-.7086.2953-1.4477.5329-2.1208.8937-16.5227,8.858-33.1698,9.0775-49.9415.7414-.7791-.3872-1.5237-.85-2.2573-1.3199-.2787-.1786-.4809-.4767-.8975-.9047,4.6106-11.1579,12.3089-19.6379,22.6399-26.0426-.6152-.6641-1.032-1.2154-1.5457-1.6526-3.9475-3.3598-7.2561-7.3155-10.1164-11.5813-1.9326-2.8822-3.2902-6.1505-4.8973-9.2501C1.4214,58.9066-.0758,49.2647.1578,39.2655c.0082-.3491.0116-.7005.0542-1.0463.2203-1.7915.4251-2.0214,2.3042-2.1132,6.0481-.2955,12.038.1665,17.9506,1.5028,7.0289,1.5886,13.7401,3.9984,19.939,7.7318.4367.263.926.4388,1.7971.8442.1206-1.1971.2322-2.176.3162-3.1573.9253-10.8172,4.7831-20.5048,11.286-29.157,3.1022-4.1274,3.6175-4.206,7.5387-.8195,2.4375,2.1051,4.7095,4.4018,7.2443,6.7901,6.5382-8.8843,14.547-15.9115,25.2247-19.841,6.0519,9.8588,8.9416,20.5523,9.2694,32.1428,3.8426-1.9184,7.3674-3.8211,11.0098-5.4631,5.5447-2.4996,11.4339-3.7104,17.4872-4.0985,2.0528-.1316,2.2343.0715,2.5967,2.3457,1.4817,9.2973.7196,18.4396-1.9604,27.4417-.345,1.1591-.7162,2.3105-1.1152,3.5937.8803.2033,1.5544.3349,2.2152.5156,4.1164,1.1254,8.2676,2.1432,12.3316,3.4344,2.9408.9344,2.9499,1.1416,1.8662,4.179-2.2192,6.2205-5.4113,11.9003-9.6503,16.9788-1.1046,1.3234-2.2147,2.6424-3.4988,4.174,1.7357.8,3.229,1.4727,4.7091,2.1732,8.0568,3.8128,15.208,8.874,21.2222,15.4818,1.6715,1.8365,1.7473,2.3525.2721,3.999-6.6338,7.4041-14.5952,12.8824-23.8772,16.4955-11.4483,4.4562-23.1924,5.3335-35.2271,3.2468-.1651-.0286-.3431.0168-.8759.0503.9166,12.9653-2.1709,24.9183-9.4034,35.7117-12.871-4.1782-28.1227-20.879-29.8197-42.1778ZM53.7884,17.6844c.0439-.1382.0878-.2764.1317-.4146-.1366.1072-.2731.2145-.4098.3217-.2383.3092-.4767.6185-.715.9277-1.0304,1.7053-2.1681,3.3557-3.0735,5.125-5.3416,10.4371-6.9075,21.4445-4.7942,32.9698.118.6437.3044,1.4722.7603,1.8225,1.9774,1.5194,4.0668,2.893,6.2735,4.4297-.109-.8467-.1514-1.4554-.269-2.0492-2.2396-11.3121-2.4878-22.6354-.1875-33.9706.551-2.7154,1.159-5.4191,1.7363-8.1297.1831-.3439.3662-.6877.5471-1.0323ZM8.1667,118.6855c-.3154-.1429-.6308-.2858-1.313-.5949.3555.4813.4164.6509.5278.6963.2271.0925.4816.1181.725.1701.3747.0745.7494.1489,1.1241.2234.2738.2096.5171.4988.8259.6169,6.178,2.3635,12.5708,3.4518,19.1887,3.2057,8.7279-.3246,16.7285-3.0208,24.2105-7.4066.4037-.2366.73-.6052,1.2518-1.0476-1.2057-.8095-2.2602-1.4114-3.1893-2.1675-1.234-1.004-2.3616-1.0583-3.8237-.358-7.0393,3.3714-14.5246,5.2767-22.2142,6.4167-5.3636.7952-10.7546.6031-16.1434.2809-.3901-.0118-.7802-.0236-1.1703-.0353ZM93.3979,153.9712c-.2931.6473-.5862,1.2947-.8793,1.942.1691.0715.3381.143.5072.2146.2582-.6612.5164-1.3225.7747-1.9837.2098-.2744.4888-.5195.6193-.8275,4.1747-9.857,5.7768-20.0482,3.8995-30.6712-.2056-1.1633-.5955-2.294-.9676-3.6947-1.9452.6699-3.6301,1.2502-5.4539,1.8783.1684,1.0174.2683,1.7744.421,2.5206,1.6511,8.0661,2.2802,16.1977,1.5895,24.4161-.1738,2.0678-.3433,4.136-.5103,6.2055ZM66.6806,117.8632c10.7743,4.3533,21.3566,3.3051,31.6751-1.4238,5.6642-2.5959,12.4303-8.8794,13.0353-11.5775-.4939.2466-.998.4205-1.414.7177-5.0611,3.6159-10.597,6.2576-16.4769,8.2558-8.1762,2.7787-16.5305,4.1423-25.1749,3.5321-.5057-.0357-1.0245.1141-1.5385.1815-.1698.0474-.3396.0949-.5095.1423.1345.0573.2689.1146.4034.1719ZM39.2128,65.9536c.0819-.5011.1639-1.0021.2458-1.5032-.1417-.0092-.2834-.0185-.4251-.0277-.0633.4822-.1265.9643-.1898,1.4465-.6882,1.8565-1.6362,3.6608-2.0222,5.5781-2.4092,11.9657.2386,22.7927,7.8107,32.3382,2.3624,2.978,5.1982,5.5347,9.0196,7.7183-1.8863-2.5004-3.6552-4.4395-4.9621-6.6515-4.4152-7.4731-7.6126-15.4153-8.9558-24.067-.7669-4.94-.6944-9.8758-.5212-14.8316ZM109.2235,95.8181c-2.8422-1.897-6.1379-2.4653-9.3939-2.8601-12.6303-1.5316-23.5909,2.0865-32.628,11.1293-1.4968,1.4977-3.1324,2.9738-3.9654,5.1741.3466-.0764.5551-.0613.6736-.1573,4.6971-3.8047,9.7703-6.8671,15.5053-8.966,6.0211-2.2036,12.1263-3.8446,18.5146-4.1713,3.7232-.1904,7.4692.0657,11.2056.1188.138.0369.276.0738.414.1108-.1086-.1261-.2173-.2521-.3259-.3782ZM8.1255,38.2394c.7786.3645,1.5297.8122,2.3401,1.081,10.4064,3.4522,19.6299,9.0194,28.135,15.8273,1.3569,1.0861,2.5737,1.957,4.4032,1.4097-.1959-1.721-.6543-3.4689-.5267-5.1729.1812-2.419-1.0052-3.6057-2.9088-4.683-5.8881-3.3321-12.0493-5.9536-18.6824-7.327-4.1733-.8641-8.3623-1.7826-12.6822-1.4737-.2739.0354-.5478.0709-.8217.1063.2478.0774.4956.1548.7434.2322ZM95.6795,40.662c.0173-.1158.0345-.2317.0518-.3476-.0701.0979-.1402.1958-.2103.2937-5.6109,2.9038-9.8841,7.3524-13.9965,12.011-.8129.9209-1.1658,1.8301-1.2078,3.0303-.1788,5.1007-1.2481,10.0316-3.0324,14.8094-.4244,1.1365-.871,2.2647-1.393,3.6188,1.2065.356,2.1438.6326,3.0066.8872.3333-.4739.5134-.6705.6269-.9001,4.0599-8.2091,8.1369-16.4099,12.1555-24.6392,1.4086-2.8844,2.6715-5.8399,3.9993-8.7634ZM143.6393,68.4307c.0826-.251.1652-.5021.2478-.7531-.2077.1966-.4153.3932-.6229.5898-.143.0993-.3128.1749-.4252.3014-5.2902,5.9543-11.3192,10.9946-18.1484,15.1288-4.6288,2.8022-9.3693,5.3141-14.446,7.1954-1.0708.3968-2.0617,1.0093-3.3667,1.6608,2.3204,1.0656,4.2589,2.0242,6.2587,2.8306.5635.2272,1.3934.2054,1.953-.0398,2.6118-1.1447,5.2421-2.1835,7.7488-3.647,6.5969-3.8517,12.0527-8.8495,16.3357-15.0954,1.7466-2.5471,2.9946-5.436,4.4652-8.1715ZM155.1371,103.4223c-.5056-.3386-.9853-.7264-1.5208-1.0085-9.0532-4.7696-18.7741-7.3597-28.8477-8.7738-.5834-.0819-1.2755-.0893-1.7884.1474-2.1785,1.0054-4.3084,2.116-6.671,3.2955,3.0726,2.1632-.2452,3.7581-.091,5.7347.5923.0669,1.1809.1763,1.7723.1937,10.7152.3167,21.4303.6398,32.1466.9118,1.6355.0415,3.2774-.1644,4.9179-.2605.1406-.0008.2812-.0015.4218-.0023-.1132-.0793-.2265-.1586-.3397-.2379ZM139.9414,59.9516c-1.2056-.4184-2.3822-.9756-3.6212-1.2336-11.3196-2.3573-22.1563-.9068-32.5222,4.209-4.811,2.3743-9.0492,5.5415-12.8595,9.2767-2.0972,2.0559-4.1012,4.2244-5.5594,7.0217.6973.7326,1.338,1.4057,2.0822,2.1876,6.8605-6.5618,14.8425-11.1216,23.2892-14.946,5.3382-2.4169,10.8837-4.2402,16.6703-5.1123,4.12-.6209,8.3076-.7929,12.4652-1.1663.2624-.0246.5249-.0492.7873-.0737l-.732-.1632ZM68.9296,72.8896c.2188-.5011.39-.807.4866-1.1349.1476-.5006.2778-1.0111.3566-1.5264,2.7087-17.725.8049-34.7198-8.0721-50.5913-.7319-1.3085-1.6575-2.5087-2.67-4.0239-.344,3.2562,4.3639,55.7333,5.1538,57.8358,1.4912-.1758,3.0278-.3569,4.7451-.5593ZM91.745,87.7691c8.5952-4.291,17.0164-8.4862,25.4296-12.6978,8.3968-4.2033,17.1786-7.6385,25.6837-12.5521-19.3731-2.5701-45.2064,10.0425-54.0504,20.7042.8767,1.3569,1.7671,2.7348,2.9372,4.5457ZM33.9727,84.7868c.2231-.3923.3902-.5466.3791-.6867-.3337-4.1894-.2737-8.3574.6387-12.4817.2694-1.2175-.4433-1.9301-1.2382-2.6757-8.6393-8.1044-17.2582-16.2306-25.894-24.3387-1.1551-1.0846-2.3735-2.1019-3.5625-3.1503-.146.1305-.292.2611-.438.3916,4.9787,17.8002,16.1993,31.2386,30.1149,42.9416ZM156.5376,106.062c-.9643-.1306-1.3641-.2222-1.7661-.2338-12.8878-.371-25.7769-.7051-38.6626-1.1375-1.5094-.0506-2.1584.8634-3.0057,1.7094-2.5803,2.5764-5.1659,5.1476-7.7667,7.7034-.4474.4397-.979.7937-1.6264,1.3108,14.2252,2.3604,37.1979.3007,52.8275-9.3523ZM157.016,108.4378c-.1019-.1353-.2037-.2705-.3056-.4058-.9037.4511-1.8242.8718-2.7084,1.3582-7.7456,4.2614-16.1057,6.5288-24.8074,7.7331-8.7773,1.2149-17.5621,1.1897-26.3596.299-1.1914-.1206-2.4312-.5391-3.5539.7448.2442,1.3231.4899,2.7706.7816,4.2087.4716,2.3247.4881,2.3024,2.6966,2.714,6.7579,1.2595,13.5329,1.1874,20.3169.2705,6.3641-.8602,12.3521-3.0373,18.1152-5.7118,3.2108-1.49,6.1633-3.5998,9.0726-5.6561,2.3736-1.6776,4.5103-3.6905,6.752-5.5547ZM56.9286,16.8233c-.5039.2516-.7265.2873-.7789.4013-.2903.6316-.58,1.2689-.7962,1.9284-4.4327,13.5225-4.5188,27.2599-2.0408,41.128.591,3.3075,1.4247,6.4692,4.1499,8.7695.3823.3227.5603.8785.8647,1.3036.9229,1.2888,1.8615,2.5663,3.0323,4.1759.258-.8672.5043-1.2689.4716-1.6464-1.6143-18.634-3.2526-37.2659-4.9025-56.0603ZM143.2522,65.0964c-.185-.1905-.3699-.3809-.5549-.5714-8.4338,4.2104-16.8413,8.4748-25.3089,12.6161-8.4248,4.1203-16.91,8.1169-25.2288,12.1007.0606,1.3244.6614,1.5132,1.4366,1.5708,2.8665.2129,5.7292.481,8.5973.6676.6804.0443,1.4099-.0427,2.0585-.251,1.7393-.5584,3.5026-1.0947,5.1564-1.8568,4.0234-1.854,8.1346-3.4554,11.9915-5.7525,6.5626-3.9084,12.6654-8.304,17.9012-13.8632,1.3945-1.4806,2.6382-3.1031,3.9511-4.6604ZM32.3421,85.8036C18.2526,73.813,7.3649,60.1616,1.9649,42.6947c.5758,18.7222,7.9259,34.1989,22.1686,46.53,2.6909-1.1215,5.2149-2.1735,8.2085-3.4212ZM71.2213,72.8617c2.8109.8524,2.9435.7906,3.8629-1.5588.3809-.9734.8635-1.913,1.1728-2.9075,2.6699-8.5834,3.0994-17.2914,1.2589-26.0852-.8949-4.2757-2.312-8.4184-4.3315-12.2771-1.4452-2.7616-3.2451-5.3694-5.1353-7.8569-1.7785-2.3406-3.791-4.529-6.4651-6.5203,10.879,17.9849,12.9161,37.0587,9.6372,57.2059ZM48.1616,110.0764c-1.7859-1.8937-3.3347-3.4116-4.7366-5.0548-1.6286-1.9088-1.7927-1.9743-4.2023-1.0974-4.4147,1.6064-8.8412,3.1816-13.2799,4.7203-5.7518,1.9939-11.5249,3.9263-17.2765,5.9206-.8229.2853-1.5767.7698-2.3625,1.162,14.6576,3.2191,28.2556.067,41.8578-5.6507ZM35.5677,68.2252c1.1715-2.7297,2.1098-5.0656,3.1696-7.3451,1.1476-2.4682,1.1948-2.4425-.8111-4.0558-6.8848-5.5375-14.2919-10.2432-22.4243-13.7177-3.0618-1.3082-6.2853-2.238-9.4351-3.3404-.0912.1749-.1823.3498-.2735.5247,9.865,9.2554,19.73,18.5108,29.7742,27.9343ZM64.8411,103.7931c4.0129-4.0323,8.4803-7.2719,13.6565-9.5366-.7809-1.3517-1.6155-2.5875-.4047-3.7502.5471-.5254,1.5599-.9053,2.3003-.8201,1.5746.1812,1.9084,1.5475,1.9696,3.0668,1.4349-.4075,2.7257-.7741,3.9946-1.1345-2.1012-9.7044-14.1016-15.8291-23.0442-11.7968.4839,1.5998.9738,3.2192,1.4864,4.9139,1.8652-1.5093,2.8889-1.6903,4.0135-.8203.9855.7624,1.1766,1.8078.5879,2.7779-.3587.5911-1.1401,1.1329-1.8167,1.2668-.706.1397-1.5141-.2368-2.3098-.394.8623,5.456.5669,10.8142-.4333,16.2271ZM129.2855,26.8117c-.3157-.2499-.3896-.3466-.4302-.3343-.2487.0758-.4936.1675-.733.2698-9.3688,4.0019-17.2054,10.0774-24.0054,17.5982-.9327,1.0316-1.1036,1.9858-.9701,3.289.3807,3.7157.6054,7.4473.8992,11.172.0298.3777.1121.7512.2412,1.5874,8.5313-11.4608,16.768-22.5258,24.9983-33.5822ZM71.0917,121.4518c.1274.8575.2006,1.5353.3313,2.2019,1.6548,8.4459,4.6718,16.4052,9.0446,23.7879,1.8446,3.1144,4.3081,5.8646,6.5278,8.7516.2988.3886.8177.608,1.614,1.1765-2.8366-11.9912-5.5489-23.4572-8.2413-34.8391-3.2561-.3787-6.173-.7179-9.2764-1.0788ZM42.557,62.8961c-5.264,14.5464,3.8712,41.2716,14.2481,48.3281-4.772-16.186-9.51-32.2571-14.2481-48.3281ZM62.6425,113.1753c16.7252-4.7353,32.9639-9.3326,49.2009-13.9356.0725-.0205.1584-.114.1721-.186.0125-.0658-.0646-.1487-.1065-.2327-15.8714-4.716-40.3739,3.7009-49.2664,14.3543ZM91.2642,4.6773c-.7816.5679-1.0726.7384-1.315.9617-3.6136,3.3279-6.6708,7.1416-9.2186,11.3083-2.0385,3.3338-3.7031,6.8964-5.5295,10.3596-.5728,1.0861-.4886,2.1048.085,3.219.7131,1.3853,1.3158,2.8441,1.8056,4.3243.949,2.8683,1.7858,5.7737,2.8377,9.2152,4.0278-13.1502,7.3497-26.0106,11.3349-39.388ZM37.0344,94.7714c-10.3755,2.5012-25.205,11.0861-31.9076,19.1173,6.1768-2.1091,12.0074-3.9813,17.7494-6.0939,5.802-2.1346,11.7525-3.8924,17.5173-6.2947-1.2094-2.4226-2.2507-4.5083-3.3592-6.7286ZM44.1945,62.1434c4.7232,16.0468,9.4464,32.0935,14.2261,48.3323,3.3608-11.5214-1.8508-35.6995-14.2261-48.3323ZM64.8687,114.3573l.1928.6006c14.5954,3.5315,39.4272-4.7907,47.1312-13.9244-15.9506,4.4908-31.6373,8.9073-47.324,13.3238ZM83.3882,77.7198c3.3874-3.4534,6.5091-6.5955,9.5699-9.7956.5168-.5403.879-1.2938,1.1302-2.0124,2.231-6.3825,3.404-12.9791,3.8162-19.7128.0895-1.4626.2422-2.9659-.251-4.8802-5.7997,11.7785-11.3728,23.0968-16.9994,34.5238,1.1212.7698,1.9636,1.3482,2.7341,1.8772ZM130.7774,28.9795l-.6386-.3991c-7.4531,10.0219-14.9061,20.0438-22.7162,30.5458,1.4434-.3571,2.265-.5573,3.0849-.7637,2.4448-.6154,4.862-1.4082,7.3425-1.7908,1.7511-.2701,2.8666-.9799,3.5968-2.5435,2.1006-4.4986,4.3924-8.9144,6.3244-13.4831,1.5569-3.6818,2.4162-7.6076,3.0063-11.5655ZM92.8558,6.248c-3.5309,11.7214-7.0012,23.4097-9.8829,35.3609,2.8074-1.1055,5.3005-2.5699,7.9639-3.589,1.3746-.526,1.9756-1.1517,2.1201-2.5215.4286-4.0639,1.0797-8.1115,1.3337-12.1848.3576-5.7327-.1227-11.434-1.5349-17.0656ZM89.8944,121.439c-2.7456.3482-5.1376.6516-7.7092.9778,2.7094,11.4612,5.3851,22.7797,8.0607,34.0982,3.101-11.7354,2.7085-23.3456-.3515-35.076ZM62.9024,118.6008c1.5054,16.7854,8.6081,29.6341,22.4343,39.2128-.2405-.7317-.2545-1.0155-.4011-1.1841-2.5175-2.8961-4.5333-6.1255-6.6087-9.3458-2.4424-3.79-3.9915-7.9291-5.4353-12.0928-1.4746-4.2524-2.3732-8.7025-3.6082-13.0421-.1886-.6627-.7059-1.4633-1.2887-1.7368-1.4676-.6886-3.0595-1.1125-5.0924-1.8112ZM5.4621,110.3772c.8327-.5508,1.2262-.7417,1.5345-1.0253,7.4982-6.8984,16.2826-11.5984,25.7524-15.1497,1.1939-.4477,2.3006-1.1283,3.5112-1.7327-.4985-1.8694-.9583-3.5938-1.416-5.3103-13.0729,3.0999-26.072,15.1415-29.3821,23.218ZM61.1734,108.3842c3.4423-8.4367,3.7067-16.9561,1.345-25.6539-2.4111-8.8795-10.7911-18.9686-15.0776-20.3975,9.8619,13.7465,14.8362,28.9671,13.7326,46.0514ZM156.1894,101.4454c-6.6058-6.7881-14.4774-11.5081-23.3045-14.81-2.1103,1.6764-4.1714,3.3137-6.6574,5.2885,10.7196,1.8593,20.6311,4.7667,29.9619,9.5215ZM100.3442,36.6318c.6561,2.2444,1.3005,4.4489,2.0249,6.9268,7.0665-7.7441,14.9827-13.9026,24.0962-18.5159-9.7693,1.4236-18.2877,5.5246-26.1211,11.5891ZM94.6748,36.6315c1.4077-.3337,2.3446-.5212,3.2613-.78,2.3333-.6587,3.3838-2.0661,3.3497-4.5312-.0651-4.7181-.6348-9.3739-1.875-13.9331-1.0843-3.9861-2.3126-7.9214-4.41-11.5575,1.9259,10.206,1.5042,20.3779-.3261,30.8017ZM129.3164,55.8909c3.0775-8.5047,4.4858-17.0332,3.4742-25.9138-2.2169,9.0132-5.4719,17.5868-10.3813,25.9087,2.4971.0019,4.567.0034,6.9071.0051ZM87.6769,4.8947c-5.5514,2.1504-15.6866,11.6881-17.7761,16.807,1.0903,1.5463,2.1954,3.1136,3.3598,4.7649,2.3135-4.0372,4.2326-7.8554,6.5943-11.3768,2.3943-3.57,5.2259-6.8467,7.822-10.1951ZM62.5646,77.8858c12.6389-2.8622,21.0804,1.7291,25.8554,13.5011.7547-.1849,1.4492-.355,2.2714-.5564-3.3315-9.1195-9.4979-14.4676-18.8965-15.8722-3.366-.5031-6.7154-.277-10.0282,1.1325.2994.6736.5393,1.2134.7979,1.7951ZM100.1728,42.5188c-.1804.0495-.3608.099-.5411.1486.2555,7.635-1.3122,15.0227-3.2518,22.5576,1.6717-.9863,2.9692-1.8522,4.3559-2.538,1.0859-.537,1.4717-1.2798,1.5104-2.4593.1628-4.9718-.252-9.8857-1.2959-14.7458-.2143-.9973-.516-1.9759-.7774-2.9631ZM93.5365,38.9906c-4.3481,1.2238-8.2398,3.3191-11.97,5.7487-.7192.4684-1.6651.7522-1.5755,1.8537.1143,1.4051.3008,2.8043.4368,4.0319,4.4617-3.9598,8.7864-7.7982,13.1087-11.6343ZM88.7553,3.9293c.1281-.0479.2562-.0957.3843-.1436-.0753-.0095-.1605-.0451-.2231-.0213-.0652.0247-.1087.1068-.1612.1649ZM112.409,104.0937c.0709-.0112.1419-.0223.2128-.0335-.0288-.0826-.0576-.1652-.0865-.2478-.0594.0441-.1312.0792-.1722.1365-.0177.0247.0287.0951.0459.1448ZM5.0977,110.7366l-.1867-.0046.0505.1325.1362-.1279Z"/>
  <path class="cls-3" d="M55.2204,117.0543c.1277-.198.2555-.396.3834-.5938-.1277.1981-.2556.3959-.3834.5938Z"/>
  <path class="cls-2" d="M68.9296,72.8896c-1.7173.2024-3.2539.3835-4.7451.5593-.7899-2.1024-5.4978-54.5796-5.1538-57.8358,1.0125,1.5152,1.9381,2.7154,2.67,4.0239,8.877,15.8715,10.7808,32.8663,8.0721,50.5913-.0787.5153-.209,1.0258-.3566,1.5264-.0966.3279-.2678.6337-.4866,1.1349Z"/>
  <path class="cls-2" d="M91.745,87.7691c-1.1701-1.8109-2.0604-3.1888-2.9372-4.5457,8.844-10.6617,34.6773-23.2743,54.0504-20.7042-8.505,4.9136-17.2868,8.3488-25.6837,12.5521-8.4131,4.2115-16.8344,8.4068-25.4296,12.6978Z"/>
  <path class="cls-2" d="M33.9727,84.7868c-13.9157-11.703-25.1363-25.1414-30.1149-42.9416.146-.1305.292-.2611.438-.3916,1.1891,1.0484,2.4074,2.0658,3.5625,3.1503,8.6358,8.1081,17.2547,16.2343,25.894,24.3387.7949.7456,1.5075,1.4582,1.2382,2.6757-.9124,4.1243-.9725,8.2923-.6387,12.4817.0112.1401-.1559.2944-.3791.6867Z"/>
  <path class="cls-2" d="M156.5376,106.062c-15.6296,9.6531-38.6023,11.7127-52.8275,9.3523.6474-.5171,1.179-.8711,1.6264-1.3108,2.6007-2.5558,5.1863-5.127,7.7667-7.7034.8473-.846,1.4964-1.76,3.0057-1.7094,12.8857.4324,25.7748.7666,38.6626,1.1375.4021.0115.8018.1032,1.7661.2338Z"/>
  <path class="cls-2" d="M157.016,108.4378c-2.2417,1.8642-4.3784,3.877-6.752,5.5547-2.9093,2.0563-5.8619,4.1661-9.0726,5.6561-5.7631,2.6745-11.7511,4.8516-18.1152,5.7118-6.7839.9169-13.5589.989-20.3169-.2705-2.2086-.4116-2.225-.3893-2.6966-2.714-.2917-1.4381-.5374-2.8856-.7816-4.2087,1.1227-1.2839,2.3625-.8654,3.5539-.7448,8.7975.8907,17.5823.9159,26.3596-.299,8.7018-1.2043,17.0618-3.4717,24.8074-7.7331.8842-.4865,1.8047-.9071,2.7084-1.3582.1019.1353.2037.2705.3056.4058Z"/>
  <path class="cls-2" d="M56.9286,16.8233c1.6499,18.7944,3.2882,37.4263,4.9025,56.0603.0327.3775-.2136.7792-.4716,1.6464-1.1708-1.6096-2.1094-2.8871-3.0323-4.1759-.3044-.4251-.4825-.981-.8647-1.3036-2.7252-2.3003-3.5589-5.462-4.1499-8.7695-2.478-13.8682-2.3919-27.6056,2.0408-41.128.2162-.6595.5059-1.2967.7962-1.9284.0524-.114.275-.1498.7789-.4013Z"/>
  <path class="cls-2" d="M143.2522,65.0964c-1.313,1.5573-2.5567,3.1798-3.9511,4.6604-5.2358,5.5592-11.3386,9.9548-17.9012,13.8632-3.8569,2.297-7.9681,3.8984-11.9915,5.7525-1.6538.7621-3.417,1.2984-5.1564,1.8568-.6486.2082-1.3781.2952-2.0585.251-2.8681-.1866-5.7308-.4547-8.5973-.6676-.7752-.0575-1.376-.2464-1.4366-1.5708,8.3188-3.9838,16.8041-7.9804,25.2288-12.1007,8.4677-4.1413,16.8751-8.4057,25.3089-12.6161.185.1905.3699.3809.5549.5714Z"/>
  <path class="cls-2" d="M32.3421,85.8036c-2.9936,1.2477-5.5176,2.2996-8.2085,3.4212C9.8909,76.8936,2.5408,61.4169,1.9649,42.6947c5.4,17.4669,16.2877,31.1182,30.3771,43.1089Z"/>
  <path class="cls-1" d="M139.8859,60.1895c-4.1574.3723-8.345.5443-12.465,1.1652-5.7866.8721-11.3321,2.6954-16.6703,5.1123-8.4467,3.8243-16.4287,8.3842-23.2892,14.946-.7442-.7819-1.3849-1.455-2.0822-2.1876,1.4582-2.7973,3.4622-4.9658,5.5594-7.0217,3.8103-3.7353,8.0486-6.9024,12.8595-9.2767,10.3659-5.1158,21.2026-6.5664,32.5222-4.209,1.239.258,2.4156.8152,3.6212,1.2336l-.0556.238Z"/>
  <path class="cls-1" d="M71.2213,72.8617c3.2789-20.1472,1.2417-39.221-9.6372-57.2059,2.674,1.9914,4.6865,4.1797,6.4651,6.5203,1.8902,2.4876,3.6901,5.0954,5.1353,7.8569,2.0195,3.8588,3.4366,8.0014,4.3315,12.2771,1.8405,8.7937,1.411,17.5018-1.2589,26.0852-.3093.9945-.7919,1.9341-1.1728,2.9075-.9194,2.3494-1.052,2.4112-3.8629,1.5588Z"/>
  <path class="cls-2" d="M48.1616,110.0764c-13.6023,5.7176-27.2002,8.8698-41.8578,5.6507.7858-.3923,1.5396-.8767,2.3625-1.162,5.7516-1.9943,11.5247-3.9267,17.2765-5.9206,4.4387-1.5387,8.8652-3.1139,13.2799-4.7203,2.4096-.8768,2.5737-.8114,4.2023,1.0974,1.4019,1.6432,2.9507,3.1612,4.7366,5.0548Z"/>
  <path class="cls-2" d="M35.5677,68.2252c-10.0442-9.4235-19.9092-18.6789-29.7742-27.9343.0912-.1749.1823-.3498.2735-.5247,3.1498,1.1023,6.3732,2.0322,9.4351,3.3404,8.1324,3.4746,15.5395,8.1802,22.4243,13.7177,2.0059,1.6134,1.9587,1.5876.8111,4.0558-1.0599,2.2794-1.9981,4.6154-3.1696,7.3451Z"/>
  <path class="cls-4" d="M64.8411,103.7931c1.0001-5.4129,1.2956-10.7711.4333-16.2271.7957.1572,1.6038.5337,2.3098.394.6766-.1339,1.458-.6757,1.8167-1.2668.5887-.9701.3976-2.0155-.5879-2.7779-1.1246-.87-2.1483-.689-4.0135.8203-.5126-1.6947-1.0025-3.3141-1.4864-4.9139,8.9426-4.0323,20.943,2.0924,23.0442,11.7968-1.2688.3604-2.5596.727-3.9946,1.1345-.0612-1.5193-.395-2.8856-1.9696-3.0668-.7403-.0852-1.7532.2947-2.3003.8201-1.2108,1.1627-.3762,2.3986.4047,3.7502-5.1761,2.2647-9.6436,5.5043-13.6565,9.5366ZM73.9567,83.7208c-1.1423.6011-1.5754,1.9472-1.0053,3.1241.6165,1.2727,2.0818,1.7095,3.3033.9849,1.1031-.6545,1.4954-2.0766.8745-3.1707-.6201-1.0928-2.0662-1.5204-3.1724-.9382ZM73.0274,91.6224c-.5972-1.101-2.0374-1.5661-3.1479-1.0165-1.1816.5848-1.6346,2.2122-.937,3.367.6639,1.0991,2.0241,1.4334,3.1767.7806,1.1436-.6476,1.5309-1.983.9082-3.1311Z"/>
  <path class="cls-2" d="M129.2855,26.8117c-8.2303,11.0565-16.467,22.1214-24.9983,33.5822-.1291-.8362-.2114-1.2098-.2412-1.5874-.2938-3.7247-.5185-7.4563-.8992-11.172-.1335-1.3032.0374-2.2574.9701-3.289,6.8-7.5209,14.6366-13.5963,24.0054-17.5982.2394-.1023.4843-.194.733-.2698.0406-.0124.1145.0844.4302.3343Z"/>
  <path class="cls-2" d="M155.0534,103.6672c-1.6389.0914-3.2808.2973-4.9163.2558-10.7164-.272-21.4314-.5951-32.1466-.9118-.5914-.0175-1.18-.1269-1.7723-.1937-.1542-1.9766,3.1636-3.5714.091-5.7347,2.3626-1.1795,4.4925-2.2901,6.671-3.2955.5129-.2367,1.205-.2293,1.7884-.1474,10.0736,1.4141,19.7945,4.0042,28.8477,8.7738.5355.2821,1.0152.6699,1.5208,1.0085l-.0837.2449Z"/>
  <path class="cls-2" d="M71.0917,121.4518c3.1034.3609,6.0203.7002,9.2764,1.0788,2.6924,11.3818,5.4047,22.8479,8.2413,34.8391-.7963-.5685-1.3152-.7879-1.614-1.1765-2.2197-2.887-4.6832-5.6372-6.5278-8.7516-4.3727-7.3827-7.3898-15.342-9.0446-23.7879-.1306-.6666-.2039-1.3444-.3313-2.2019Z"/>
  <path class="cls-2" d="M42.557,62.8961c4.7381,16.071,9.4761,32.142,14.2481,48.3281-10.3768-7.0565-19.5121-33.7817-14.2481-48.3281Z"/>
  <path class="cls-1" d="M62.6425,113.1753c8.8925-10.6533,33.395-19.0703,49.2664-14.3543.0419.084.119.1669.1065.2327-.0137.072-.0996.1655-.1721.186-16.237,4.603-32.4756,9.2003-49.2009,13.9356Z"/>
  <path class="cls-2" d="M91.2642,4.6773c-3.9852,13.3774-7.3071,26.2378-11.3349,39.388-1.0519-3.4415-1.8887-6.347-2.8377-9.2152-.4898-1.4801-1.0925-2.9389-1.8056-4.3243-.5736-1.1142-.6578-2.1329-.085-3.219,1.8264-3.4632,3.491-7.0258,5.5295-10.3596,2.5478-4.1667,5.605-7.9804,9.2186-11.3083.2424-.2233.5335-.3938,1.315-.9617Z"/>
  <path class="cls-2" d="M37.0344,94.7714c1.1085,2.2203,2.1497,4.3061,3.3592,6.7286-5.7648,2.4023-11.7153,4.1602-17.5173,6.2947-5.7421,2.1126-11.5726,3.9848-17.7494,6.0939,6.7026-8.0311,21.5321-16.6161,31.9076-19.1173Z"/>
  <path class="cls-1" d="M9.3374,118.7188c5.3883.3243,10.7793.5163,16.1429-.2788,7.6896-1.14,15.1749-3.0453,22.2142-6.4167,1.4621-.7003,2.5898-.646,3.8237.358.9292.756,1.9837,1.358,3.1893,2.1675-.5218.4424-.8481.811-1.2518,1.0476-7.482,4.3858-15.4826,7.082-24.2105,7.4066-6.6178.2461-13.0106-.8422-19.1887-3.2057-.3088-.1181-.5521-.4074-.8252-.6192.0328-.1553.0678-.3076.106-.4593Z"/>
  <path class="cls-1" d="M44.1945,62.1434c12.3753,12.6328,17.5869,36.811,14.2261,48.3323-4.7797-16.2388-9.5029-32.2856-14.2261-48.3323Z"/>
  <path class="cls-1" d="M64.8687,114.3573c15.6867-4.4165,31.3734-8.833,47.324-13.3238-7.704,9.1337-32.5358,17.4559-47.1312,13.9244l-.1928-.6006Z"/>
  <path class="cls-1" d="M53.2459,18.7182c-.5818,2.7091-1.1898,5.4129-1.7409,8.1282-2.3003,11.3352-2.0521,22.6585.1875,33.9706.1176.5938.16,1.2024.269,2.0492-2.2067-1.5367-4.296-2.9104-6.2735-4.4297-.4559-.3503-.6423-1.1788-.7603-1.8225-2.1133-11.5253-.5474-22.5327,4.7942-32.9698.9055-1.7692,2.0431-3.4196,3.0735-5.125.1518.0627.302.129.4505.199Z"/>
  <path class="cls-2" d="M83.3882,77.7198c-.7704-.529-1.6128-1.1074-2.7341-1.8772,5.6266-11.427,11.1997-22.7454,16.9994-34.5238.4932,1.9143.3405,3.4176.251,4.8802-.4122,6.7336-1.5853,13.3302-3.8162,19.7128-.2512.7187-.6134,1.4721-1.1302,2.0124-3.0609,3.2002-6.1825,6.3422-9.5699,9.7956Z"/>
  <path class="cls-1" d="M130.7774,28.9795c-.5901,3.958-1.4494,7.8837-3.0063,11.5655-1.9319,4.5687-4.2238,8.9846-6.3244,13.4831-.7302,1.5637-1.8457,2.2735-3.5968,2.5435-2.4805.3826-4.8977,1.1754-7.3425,1.7908-.82.2064-1.6415.4066-3.0849.7637,7.8101-10.502,15.2632-20.5239,22.7162-30.5458l.6386.3991Z"/>
  <path class="cls-2" d="M92.8558,6.248c1.4122,5.6316,1.8924,11.3329,1.5349,17.0656-.254,4.0733-.9051,8.121-1.3337,12.1848-.1444,1.3698-.7455,1.9955-2.1201,2.5215-2.6634,1.019-5.1565,2.4835-7.9639,3.589,2.8816-11.9512,6.352-23.6395,9.8829-35.3609Z"/>
  <path class="cls-1" d="M143.6435,68.4327c-1.4748,2.7334-2.7228,5.6224-4.4694,8.1695-4.283,6.2459-9.7388,11.2437-16.3357,15.0954-2.5066,1.4636-5.1369,2.5024-7.7488,3.647-.5597.2453-1.3896.267-1.953.0398-1.9998-.8064-3.9383-1.7649-6.2587-2.8306,1.305-.6515,2.2959-1.264,3.3667-1.6608,5.0767-1.8813,9.8172-4.3932,14.446-7.1954,6.8291-4.1342,12.8582-9.1745,18.1484-15.1288.1124-.1265.2822-.2021.4252-.3014.1275.0526.254.1077.3794.1652Z"/>
  <path class="cls-2" d="M89.8944,121.439c3.06,11.7304,3.4525,23.3406.3515,35.076-2.6757-11.3185-5.3513-22.637-8.0607-34.0982,2.5716-.3262,4.9636-.6295,7.7092-.9778Z"/>
  <path class="cls-1" d="M62.9024,118.6008c2.0329.6987,3.6247,1.1226,5.0924,1.8112.5828.2735,1.1001,1.0741,1.2887,1.7368,1.235,4.3396,2.1336,8.7897,3.6082,13.0421,1.4438,4.1637,2.9929,8.3028,5.4353,12.0928,2.0753,3.2203,4.0911,6.4497,6.6087,9.3458.1466.1686.1605.4524.4011,1.1841-13.8262-9.5787-20.929-22.4274-22.4343-39.2128Z"/>
  <path class="cls-1" d="M95.6812,40.6624c-1.3294,2.923-2.5924,5.8785-4.001,8.763-4.0186,8.2293-8.0956,16.4301-12.1555,24.6392-.1135.2295-.2936.4262-.6269.9001-.8628-.2546-1.8001-.5311-3.0066-.8872.522-1.3541.9686-2.4823,1.393-3.6188,1.7843-4.7777,2.8536-9.7086,3.0324-14.8094.0421-1.2002.3949-2.1094,1.2078-3.0303,4.1124-4.6585,8.3857-9.1072,13.9965-12.011l.1603.0543Z"/>
  <path class="cls-1" d="M8.2042,37.8991c4.3195-.3071,8.5084.6114,12.6818,1.4755,6.6331,1.3733,12.7943,3.9948,18.6824,7.327,1.9037,1.0773,3.09,2.264,2.9088,4.683-.1276,1.704.3308,3.4519.5267,5.1729-1.8295.5472-3.0462-.3236-4.4032-1.4097-8.5052-6.8079-17.7286-12.3751-28.135-15.8273-.8104-.2688-1.5614-.7164-2.3401-1.081.0244-.1138.0507-.2273.0787-.3403Z"/>
  <path class="cls-1" d="M5.4621,110.3772c3.3101-8.0766,16.3092-20.1181,29.3821-23.218.4577,1.7165.9175,3.4409,1.416,5.3103-1.2106.6044-2.3173,1.2849-3.5112,1.7327-9.4697,3.5513-18.2542,8.2513-25.7524,15.1497-.3083.2836-.7018.4745-1.5345,1.0253Z"/>
  <path class="cls-1" d="M61.1734,108.3842c1.1037-17.0843-3.8707-32.3049-13.7326-46.0514,4.2864,1.4289,12.6665,11.518,15.0776,20.3975,2.3617,8.6977,2.0973,17.2172-1.345,25.6539Z"/>
  <path class="cls-1" d="M109.1348,96.0877c-3.7358-.0552-7.4818-.3113-11.205-.1209-6.3884.3267-12.4936,1.9677-18.5146,4.1713-5.735,2.0989-10.8082,5.1613-15.5053,8.966-.1185.096-.3269.0809-.6736.1573.833-2.2003,2.4686-3.6763,3.9654-5.1741,9.0371-9.0428,19.9977-12.6609,32.628-11.1293,3.256.3948,6.5517.9631,9.3939,2.8601-.0322.089-.0618.1788-.0887.2695Z"/>
  <path class="cls-1" d="M39.2143,65.954c-.1747,4.9555-.2472,9.8912.5197,14.8313,1.3432,8.6516,4.5406,16.5938,8.9558,24.067,1.3069,2.212,3.0758,4.1511,4.9621,6.6515-3.8214-2.1836-6.6573-4.7403-9.0196-7.7183-7.5722-9.5455-10.2199-20.3725-7.8107-32.3382.386-1.9173,1.334-3.7216,2.0222-5.5781.1244.0247.2479.053.3706.0848Z"/>
  <path class="cls-1" d="M66.788,117.5452c.5127-.0635,1.0315-.2134,1.5372-.1776,8.6444.6101,16.9987-.7534,25.1749-3.5321,5.8799-1.9982,11.4158-4.6399,16.4769-8.2558.416-.2972.92-.4711,1.414-.7177-.605,2.6981-7.3711,8.9816-13.0353,11.5775-10.3185,4.7289-20.9008,5.7771-31.6751,1.4238.0381-.1052.0739-.2112.1074-.318Z"/>
  <path class="cls-1" d="M93.3935,153.9697c.1714-2.068.3409-4.1362.5147-6.204.6907-8.2183.0616-16.3499-1.5895-24.4161-.1527-.7462-.2527-1.5032-.421-2.5206,1.8238-.6281,3.5087-1.2084,5.4539-1.8783.3722,1.4007.7621,2.5314.9676,3.6947,1.8773,10.623.2752,20.8142-3.8995,30.6712-.1304.308-.4095.553-.6193.8275-.1369-.0552-.2726-.1133-.407-.1744Z"/>
  <path class="cls-1" d="M156.1894,101.4454c-9.3308-4.7548-19.2424-7.6622-29.9619-9.5215,2.486-1.9748,4.5471-3.6121,6.6574-5.2885,8.8271,3.3019,16.6987,8.022,23.3045,14.81Z"/>
  <path class="cls-1" d="M100.3442,36.6318c7.8334-6.0644,16.3518-10.1655,26.1211-11.5891-9.1135,4.6133-17.0297,10.7718-24.0962,18.5159-.7244-2.4779-1.3688-4.6825-2.0249-6.9268Z"/>
  <path class="cls-1" d="M94.6748,36.6315c1.8303-10.4238,2.252-20.5957.3261-30.8017,2.0974,3.6361,3.3257,7.5714,4.41,11.5575,1.2402,4.5592,1.8098,9.215,1.875,13.9331.034,2.465-1.0164,3.8725-3.3497,4.5312-.9167.2588-1.8535.4462-3.2613.78Z"/>
  <path class="cls-1" d="M129.3164,55.8909c-2.3402-.0017-4.4101-.0033-6.9071-.0051,4.9095-8.3219,8.1645-16.8955,10.3813-25.9087,1.0116,8.8806-.3966,17.4091-3.4742,25.9138Z"/>
  <path class="cls-1" d="M87.6769,4.8947c-2.5961,3.3484-5.4276,6.6251-7.822,10.1951-2.3617,3.5214-4.2809,7.3396-6.5943,11.3768-1.1644-1.6513-2.2695-3.2186-3.3598-4.7649,2.0895-5.1189,12.2248-14.6566,17.7761-16.807Z"/>
  <path class="cls-4" d="M62.5646,77.8858c-.2585-.5817-.4985-1.1215-.7979-1.7951,3.3128-1.4095,6.6621-1.6356,10.0282-1.1325,9.3986,1.4047,15.565,6.7527,18.8965,15.8722-.8222.2014-1.5167.3715-2.2714.5564-4.775-11.772-13.2165-16.3633-25.8554-13.5011Z"/>
  <path class="cls-1" d="M100.1728,42.5188c.2614.9872.5631,1.9657.7774,2.9631,1.0439,4.8601,1.4587,9.774,1.2959,14.7458-.0386,1.1795-.4245,1.9223-1.5104,2.4593-1.3866.6858-2.6842,1.5517-4.3559,2.538,1.9397-7.5349,3.5074-14.9226,3.2518-22.5576.1804-.0495.3608-.099.5411-.1486Z"/>
  <path class="cls-1" d="M93.5365,38.9906c-4.3223,3.8361-8.6471,7.6744-13.1087,11.6343-.136-1.2275-.3226-2.6268-.4368-4.0319-.0896-1.1015.8563-1.3852,1.5755-1.8537,3.7302-2.4296,7.6219-4.5249,11.97-5.7487Z"/>
  <path class="cls-1" d="M93.8005,154.144c-.2582.6612-.5164,1.3225-.7747,1.9837-.169-.0715-.3381-.1431-.5072-.2146.2931-.6473.5862-1.2947.877-1.9427.1322.0603.2679.1184.4048.1736Z"/>
  <path class="cls-1" d="M38.8437,65.8691c.0633-.4822.1265-.9643.1898-1.4465.1417.0092.2834.0185.4251.0277-.0819.5011-.1639,1.0021-.2451,1.5034-.122-.0317-.2455-.06-.3699-.0847Z"/>
  <path class="cls-1" d="M8.1063,118.9581c-.2432-.0532-.4976-.0787-.7247-.1712-.1115-.0454-.1723-.215-.5278-.6963.6822.3091.9976.452,1.313.5949-.0174.0915-.0375.1824-.0604.2726Z"/>
  <path class="cls-1" d="M88.755,3.9286c.0528-.0576.0962-.1396.1614-.1643.0626-.0238.1478.0118.2231.0213-.1281.0479-.2562.0958-.3846.143Z"/>
  <path class="cls-1" d="M143.2641,68.2674l.623-.5898c-.0826.251-.1652.5021-.2457.7541-.1233-.0566-.2498-.1116-.3773-.1643Z"/>
  <path class="cls-1" d="M8.1667,118.6855c.3901.0118.7802.0235,1.1705.0343-.0379.1506-.073.3029-.1058.4582-.3755-.0722-.7502-.1466-1.125-.2205.0227-.0897.0429-.1805.0603-.272Z"/>
  <path class="cls-1" d="M52.7954,18.5192c.2383-.3092.4766-.6185.715-.9277.0925.0339.1859.0651.2802.0936-.1831.3439-.3662.6877-.547,1.0324-.1462-.0693-.2964-.1356-.4482-.1983Z"/>
  <path class="cls-1" d="M112.409,104.0937c-.0173-.0497-.0636-.1202-.0459-.1448.0409-.0573.1128-.0924.1722-.1365.0288.0826.0577.1652.0865.2478-.0709.0112-.1418.0224-.2128.0335Z"/>
  <path class="cls-1" d="M8.1255,38.2394c-.2478-.0774-.4956-.1548-.7434-.2322.2739-.0354.5478-.0709.8219-.1072-.0278.1122-.054.2256-.0785.3394Z"/>
  <path class="cls-1" d="M139.9414,59.9516l.732.1632c-.2624.0246-.5249.0492-.7874.0743-.0001.0005.0555-.2375.0555-.2375Z"/>
  <path class="cls-2" d="M155.1371,103.4223c.1132.0793.2265.1586.3397.2379-.1406.0007-.2812.0015-.4226.0046-.0008.0023.0829-.2426.0829-.2426Z"/>
  <polygon class="cls-1" points="5.0977 110.7366 4.9615 110.8646 4.911 110.7321 5.0977 110.7366"/>
  <path class="cls-1" d="M66.6806,117.8632c-.1345-.0573-.2689-.1146-.4034-.1719.1698-.0474.3396-.0948.5101-.1442-.0328.1048-.0686.2108-.1067.3161Z"/>
  <path class="cls-1" d="M53.5104,17.5915c.1366-.1072.2732-.2144.4097-.3217-.0439.1382-.0878.2764-.1306.415-.0932-.0282-.1866-.0594-.2791-.0933Z"/>
  <path class="cls-1" d="M109.2235,95.8181c.1086.1261.2173.2521.3259.3782-.138-.0369-.276-.0738-.4143-.1097.0266-.0896.0562-.1795.0884-.2684Z"/>
  <path class="cls-1" d="M95.5209,40.6081c.0701-.0979.1402-.1958.2103-.2937-.0173.1158-.0345.2317-.0509.3478.0008.0003-.1594-.0541-.1594-.0541Z"/>
  <path class="cls-5" d="M73.9567,83.7208c1.1063-.5822,2.5523-.1545,3.1724.9382.6209,1.0942.2286,2.5162-.8745,3.1707-1.2215.7247-2.6868.2878-3.3033-.9849-.5701-1.1769-.1369-2.523,1.0053-3.1241Z"/>
  <path class="cls-5" d="M73.0274,91.6224c.6227,1.1481.2354,2.4835-.9082,3.1311-1.1526.6527-2.5128.3185-3.1767-.7806-.6976-1.1548-.2446-2.7822.937-3.367,1.1105-.5496,2.5507-.0846,3.1479,1.0165Z"/>
</svg>