<?xml version="1.0" encoding="UTF-8"?>
<svg id="Layer_1" xmlns="http://www.w3.org/2000/svg" viewBox="0 0 149.9818 150.2445">
  <defs>
    <style>
      .cls-1 {
        fill: #92b63e;
      }

      .cls-2 {
        fill: #f37221;
      }

      .cls-3 {
        fill: #b0c486;
      }

      .cls-4 {
        fill: #737a73;
      }

      .cls-5 {
        fill: #c6dc63;
      }

      .cls-6 {
        fill: #d6df24;
      }

      .cls-7 {
        fill: #54c8e7;
      }

      .cls-8 {
        fill: #f0eb97;
      }

      .cls-9 {
        fill: #9daeae;
      }

      .cls-10 {
        fill: #50803b;
      }

      .cls-11 {
        fill: #97873b;
      }

      .cls-12 {
        fill: #4c6744;
      }

      .cls-13 {
        fill: #88c15f;
      }

      .cls-14 {
        fill: #765238;
      }

      .cls-15 {
        fill: #f7e200;
      }

      .cls-16 {
        fill: #3c4b3e;
      }
    </style>
  </defs>
  <path class="cls-12" d="M131.3019,124.107c-4.1453,4.2109-7.7493,9.0424-13.324,11.6139-5.8802,5.7957-13.6122,8.2183-21.0178,10.9608-7.9444,2.9419-16.3328,3.8172-24.9003,3.5021-11.9914-.4411-23.2719-3.6149-33.5897-9.3021-9.7239-5.3597-18.04-12.6503-24.5977-21.9271-7.4202-10.4969-11.4293-22.1284-13.297-34.658-.1789-1.2005-.004-2.4536.0067-3.6788,1.0379-.3414,2.0758-.6862,3.1144-1.0315.5029,4.1595.8829,8.3402,1.58,12.4673.2176,1.2883,1.2912,2.4322,1.973,3.6421.5254,2.264,1.0057,4.5398,1.6022,6.7849.1899.7153.6884,1.3488,1.0456,2.0197,1.1221,2.1706,2.2687,4.329,3.3615,6.5143,2.4131,4.8255,5.7586,8.9339,9.3701,12.9185,5.049,5.5706,11.1877,9.6457,17.4129,13.6763,3.1393,2.0327,6.2895,3.7361,10.2286,3.071.3121-.0527.9969.5781,1.0795.9794.2385,1.16.879,1.8761,1.965,2.0894,4.6216.9075,9.2222,2.1994,13.8897,2.5372,10.0956.7307,20.1554.1622,29.8464-3.1597,5.0403-1.7279,10.2134-3.2713,13.57-8.0073.6141-.8664,2.0894-1.4849,3.2129-1.5638,4.3345-.3045,6.9863-3.1373,9.7187-5.9523,1.8672-1.9234,3.7162-3.8773,5.7259-5.6437.8743-.7683,2.1319-1.1005,3.2154-1.6309.158.1553.3144.3123.4688.4712.0824.3724.0283.7238-.163,1.054-1.1628.3103-1.4974,1.1707-1.4978,2.2532Z"/>
  <path class="cls-4" d="M8.5281,41.0804c2.2782-6.8274,6.8015-12.2792,11.6006-17.3008,8.054-8.4271,17.5854-14.8823,28.6166-19.0063C55.1643,2.3735,61.7207.6642,68.5533.2223c8.4765-.5481,16.9292-.1207,25.2349,1.7091,6.6828,1.4723,12.9735,4.0117,18.7797,7.7296,6.6244,4.2419,13.0677,8.6675,17.8827,15.0451.3581.4529.7164.9054,1.075,1.3579,0,0,.0375.0432.037.0435.368.4412.7367.8819,1.1054,1.3227.5748.728,1.1497,1.4559,1.7235,2.1839-.8386,1.9057-2.4675,1.6527-4.0649,1.4889-.595-2.5784-2.5401-4.2336-4.3044-5.913-5.2191-4.9683-10.8216-9.3653-17.194-12.9145-7.8876-4.3933-16.3065-7.0988-25.0858-8.054-21.3757-2.3254-40.2869,3.9712-56.5775,17.9471-5.0253,4.3114-9.0422,9.5594-12.6206,15.1316-.8351,1.3003-1.2439,2.5834-.5179,4.0487-.7031.0751-1.4134.2513-2.1078.2024-1.1355-.0797-2.2608-.3061-3.3905-.4707Z"/>
  <path class="cls-11" d="M3.6957,79.5868c-1.0379.3449-2.0758.6897-3.1137,1.0311-1.1346-8.3033-.7244-16.4606,2.249-24.3846,1.0995.7656,2.1982,1.5341,3.2968,2.3025.6104.295,1.2207.5901,2.2176,1.0719.5696-3.2601,1.0458-5.985,1.5218-8.7099.0736-.2936.1197-.5915.1381-.8937.7319-1.1045,1.553-2.1618,2.1702-3.327.6026-1.1378,1.4828-1.6976,2.6938-1.8703,0,0,.091.056.0907.0559-.4244,3.977,2.249,6.105,4.9167,8.2364-2.4718,2.1535-2.5195,2.0501-5.7937,2.0404-1.9462-.0058-3.0607,1.5364-2.8474,3.8408.1192,1.2869,1.5806,2.3334,2.6278,1.7408,1.3872-.785,2.6641-1.765,4.0525-2.7045.6136,3.7411.2914,4.4524-2.219,5.2596-3.4539,1.1104-6.903,2.2355-10.4257,3.3775-.5841,4.4686.1156,8.8667-1.5754,12.9332Z"/>
  <path class="cls-9" d="M130.3279,31.1026c1.5962.164,3.225.417,4.0637-1.4886,7.3286,8.8019,12.007,18.8592,13.9732,30.1204.585,3.3516,2.3386,6.6459.965,10.1998-.9355-1.1294-1.8715-2.259-2.8098-3.3835.5953-2.8497-1.1076-4.7835-2.7115-6.7582-.4703-2.1734-.9396-4.3462-1.409-6.5188-.0821-.8057.0531-1.7178-.2814-2.3997-2.1402-4.3634-4.3422-8.6985-6.6405-12.9803-.3256-.6067-1.285-.8735-1.9509-1.2975-.7506-.5025-1.5014-1.0051-2.252-1.5077-.4815-.4646-.9628-.9293-1.4442-1.3939l-.2087-1.2665c.2353-.4418.4707-.8836.7062-1.3254Z"/>
  <path class="cls-9" d="M149.5025,75.5774c1.1023,4.9142.0818,9.6838-.8413,14.4977-1.8321,9.554-5.8148,18.1865-10.9241,26.3644-.2029.3247-.6172.5174-.9345.7698-.1887-.1956-.3786-.387-.5707-.5756.0373-.8283.0744-1.6567.1114-2.4852,2.2844-3.1631,4.2897-6.4192,5.0025-10.3865.3195-1.7785,1.3866-3.4103,1.9452-5.1628.3632-1.1395.4211-2.3765.6157-3.5698,2.8952-2.5267,2.9157-5.8164,2.4519-9.2347l.1429.1667c1.2492-.6961,1.4359-1.9129,1.4383-3.1476.0027-1.4228-.1952-2.8468-.1727-4.2682.0201-1.2653.4192-2.4113,1.7353-2.9683Z"/>
  <path class="cls-12" d="M6.1279,58.5357c-1.0987-.7685-2.1974-1.5369-3.2969-2.3025,1.2448-5.2948,1.9511-10.7954,5.6973-15.153,1.1294.1648,2.2547.3912,3.3902.4709.6944.0489,1.4047-.1274,2.104-.2024.6907.0417,1.3849.0832,2.0793.1247.4513.1754.9026.3509,1.3539.5263l.0599.0359c1.4271,1.3153,2.8541,2.6306,4.2168,3.8866-.2067,1.2628-1.0851,1.4184-1.8407,1.1367-1.6829-.6275-3.2923-1.4519-4.9316-2.1961,0,0-.091-.056-.0907-.0557-.6366-.9155-1.5633-1.4242-2.5496-.9051-.815.4288-1.7759,1.1713-2.0137,1.9708-.3845,1.2925-.2287,2.7459-.3011,4.1313-.0184.3022-.0644.6001-.1375.8955-1.0136.2476-2.0101.5558-2.3084,1.7207-.5031,1.9653-.9569,3.9431-1.4315,5.9156Z"/>
  <path class="cls-12" d="M149.5025,75.5774c-1.3161.557-1.7152,1.703-1.7353,2.9683-.0225,1.4214.1754,2.8454.1727,4.2682-.0024,1.2347-.1892,2.4515-1.4377,3.1467-.2643-2.1593-.5292-4.3177-.7871-6.4172-1.58-.3957-2.7566-.6904-4.1157-1.0308.5206-.6319.7184-1.123,1.0089-1.1857,2.9456-.6378,3.78-2.588,3.6595-5.3625-.0782-1.7992.1588-3.6122.2546-5.419.9358,1.1296,1.8718,2.2592,2.8075,3.3886.0575,1.8809.1151,3.7621.1725,5.6433Z"/>
  <path class="cls-12" d="M135.5733,118.2089c-.8704.8635-1.7407,1.7271-2.6108,2.5907-.1542-.1586-.3106-.3157-.4682-.4706q.321-3.0189,2.6943-3.5187c.1282.4662.2565.9324.3847,1.3986Z"/>
  <path class="cls-9" d="M131.3019,124.107c.0003-1.0826.3349-1.9429,1.4978-2.2532.0758,1.1331-.2822,1.9782-1.4978,2.2532Z"/>
  <path class="cls-9" d="M135.5733,118.2089c-.1282-.4662-.2565-.9324-.3847-1.3986l-.0664-.0154c.3786.0068.7483-.0469,1.1093-.1613.1923.1889.3823.3803.571.5759-.4087.3343-.819.6669-1.2292.9995Z"/>
  <path class="cls-9" d="M131.5257,26.0639c-.3585-.4525-.7169-.905-1.075-1.3579.3587.4523.7167.9051,1.075,1.3579Z"/>
  <path class="cls-9" d="M132.6681,27.4301c-.3687-.4408-.7373-.8816-1.1054-1.3227.3688.4407.737.8817,1.1054,1.3227Z"/>
  <path class="cls-10" d="M135.1886,116.8103q-2.3733.4997-2.6943,3.5187c-1.0839.5301-2.3415.8623-3.2158,1.6306-2.0098,1.7664-3.8588,3.7203-5.7259,5.6437-2.7324,2.815-5.3842,5.6479-9.7187,5.9523-1.1235.0788-2.5989.6974-3.2129,1.5638-3.3566,4.736-8.5297,6.2794-13.57,8.0073-9.691,3.322-19.7508,3.8904-29.8464,3.1597-4.6674-.3378-9.2681-1.6297-13.8897-2.5372-1.086-.2132-1.7265-.9294-1.965-2.0894-.0826-.4013-.7674-1.0321-1.0795-.9794-3.9391.6651-7.0893-1.0383-10.2286-3.071-6.2252-4.0306-12.3639-8.1057-17.4129-13.6763-3.6115-3.9846-6.957-8.093-9.3701-12.9185-1.0928-2.1853-2.2394-4.3437-3.3611-6.5161,1.6347-.299,2.4953-1.2007,2.5696-2.9362.1143-2.6725-1.1216-4.6969-2.7636-6.7118-.915.3151-1.6846.5802-2.4542.8453-.6818-1.2099-1.7554-2.3538-1.973-3.6421-.6971-4.1271-1.0771-8.3078-1.58-12.4673,1.6903-4.066.9906-8.4641,1.5747-12.9327,3.5227-1.142,6.9718-2.2671,10.4257-3.3775,2.5104-.8072,2.8326-1.5186,2.219-5.2596-1.3883.9395-2.6653,1.9195-4.0525,2.7045-1.0472.5926-2.5087-.4539-2.6278-1.7408-.2133-2.3044.9011-3.8467,2.8474-3.8408,3.2742.0098,3.3219.1132,5.7937-2.0404-2.6678-2.1314-5.3411-4.2594-4.9167-8.2364,1.6397.7443,3.2491,1.5687,4.932,2.1962.7556.2817,1.634.1262,1.8407-1.1367-1.3627-1.256-2.7898-2.5713-4.2168-3.886,5.6196.5231,11.2433,1.0063,16.8552,1.6009,1.1486.1216,2.2529.6611,3.3754,1.0083-1.0025.1747-2.0029.3489-3.0033.5232,1.6397.8872,3.6554.8798,3.6037,3.3308-1.3509.3965-2.8519.5389-4.0271,1.2329-5.4181,3.1996-9.4872,7.8205-12.8654,13.0329-3.147,4.8557-5.2224,10.2355-6.7468,15.7855-1.8364,6.6863-1.8092,13.4518.5887,19.9861,1.6183,4.4101,3.7966,8.614,5.7011,12.9205.7227,1.6346,1.8526,2.6935,3.6893,2.8738-.0747,2.5215.9595,4.3317,3.3951,5.2071.9493.3413,1.9236.613,2.8868.9159.4079.4106.8154.8216,1.223,1.2327,1.3311,4.2543,4.7008,5.6566,8.6822,6.2032.8687.7629,1.7371,1.5262,2.6055,2.2895,3.7193,1.764,7.6269,2.5416,11.7527,2.6348,6.1285.1385,12.1662-.1343,17.9878-2.3013,2.4313-.9049,4.8891-1.7389,7.3348-2.6051.0584,3.2836,2.8104,3.3923,4.962,4.2897,2.3039.9609,3.8505.1965,4.9912-1.8358,1.6582-.7231,3.411-1.2908,4.9437-2.221,1.0957-.6649,1.5046-1.8876.3218-3.5922-1.9075,1.8561-4.0035,3.3883-5.3399,5.7293-2.1265-.5234-4.2911-.9365-6.3533-1.6466-.5276-.1816-.7316-1.3026-1.0842-1.9921.8755-.8237,1.7509-1.6474,2.6264-2.4711,3.7082.3532,5.7592-2.3192,7.42-4.7716,1.9955-2.9464,4.489-4.4752,7.7671-5.5539,7.9673-2.6219,14.6321-7.1731,19.3016-14.3279.5599-.858,1.0665-1.8136,1.8186-2.4713,1.9568-1.7112,2.06-3.9193,1.9757-6.2296.4152-.859.8303-1.7164,1.2452-2.5738.4121-.8511.8241-1.7022,1.2363-2.5532,1.6059.0192,2.4002-.8247,2.5284-2.3768,3.6537.0728,7.1499-.527,10.8877-2.3613-.8117-.5715-1.2659-1.1588-1.6425-1.1123-2.2131.2724-4.4635.5074-6.5854,1.1419-1.0497.3138-1.8517,1.4554-2.7657,2.2228-1.2133.0231-2.4269.046-3.6406.0688-1.5393-2.2692-1.1539-4.899-1.3892-7.4124.031-2.0426.0065-4.0879.1075-6.1272.1173-2.3715-.5064-4.6143-2.0907-6.2292-2.5074-2.5559-3.7324-5.8232-5.556-8.7533,0,0,.17.0229.1701.023.6156.0472,1.2339.0716,1.8463.1457q2.5785.312,3.0557,3.4684c-.1604.2331-.3221.465-.4839.697.2407-.1528.4813-.3057.722-.4585,3.6177.8698,6.0858-1.1648,7.9377-3.2149,2.5298.2962,4.5409.7912,6.5245.6987,2.5216-.1176,4.282.674,5.6552,2.7844.3498.5375,1.4085.6139,2.1416.9022,1.6028,1.9739,3.3058,3.9077,2.7105,6.7574-.0934,1.8017-.3304,3.6147-.2522,5.4139.1205,2.7745-.7139,4.7247-3.6595,5.3625-.2905.0627-.4883.5538-1.0089,1.1857,1.3591.3404,2.5357.635,4.1157,1.0308.2578,2.0994.5227,4.2579.7871,6.4172-.0006.0009-.1435-.1658-.144-.1652-2.0755,2.7446-2.5723,5.9074-2.4514,9.2342-.1946,1.1933-.2525,2.4303-.6157,3.5698-.5586,1.7525-1.6257,3.3843-1.9452,5.1628-.7128,3.9673-2.7182,7.2234-5.003,10.3874-1.084.57-1.3009,1.5391-1.2206,2.6453l.0664.0154ZM112.7998,117.9881l.245-.5962c-.1137.1667-.2274.3334-.3404.5005-.0794.1953-.1586.3907-.238.5861.1111-.1635.2223-.3269.3334-.4904ZM137.1892,76.667c1.9738-.2235,2.8987-1.2985,2.6155-2.9396-.1485-.8605-1.0051-2.1748-1.6818-2.2677-2.813-.3864-5.6783-.434-8.5265-.4777-.4473-.0069-1.1545.5735-1.2877,1.0183-.1353.4525.1216,1.3327.4979,1.5768,2.1889,1.4195,4.5158,2.3784,7.0853,1.1397.4772.7174.9107,1.3693,1.2972,1.9503ZM97.5929,123.2754c4.0753,1.1978,7.0903.954,10.0498.6028,1.106-.1313,2.1357-1.0314,3.1473-1.6654.1228-.077-.086-.6823-.163-1.1857-1.9255.2065-3.8687.3979-5.8076.6275-2.0519.2428-4.3129-.6084-7.2266,1.6209ZM119.8759,115.0202c3.033.9646,5.4241-.0845,9.0671-2.0338-3.945.1386-6.648-.6821-9.0671,2.0338ZM55.6792,140.6734c.0079.1717.0157.3433.0237.515,1.7507,0,3.5105.099,5.2473-.0565.5689-.0509,1.6296-.4222,1.0037-1.6152-2.1105.389-4.1926.7728-6.2748,1.1566ZM116.8104,115.9395c-.1743-.0599-.3507-.1631-.5221-.1559-.06.0024-.1089.2761-.1629.426.1743.0598.3505.163.5221.1557.06-.0024.1089-.276.1629-.4258Z"/>
  <path class="cls-1" d="M7.2494,95.6957c.7696-.265,1.5392-.5301,2.4542-.8453,1.642,2.0149,2.8779,4.0393,2.7636,6.7118-.0743,1.7355-.9349,2.6372-2.5696,2.9362-.3576-.6691-.8561-1.3025-1.046-2.0179-.5965-2.2451-1.0768-4.5209-1.6022-6.7849Z"/>
  <path class="cls-7" d="M37.7486,44.6449c-1.1247-.3468-2.229-.8863-3.3776-1.0079-5.6119-.5946-11.2355-1.0778-16.8552-1.6009,0-.0005-.06-.0364-.0591-.0342-.451-.1747-.9028-.3516-1.3547-.5285-.6944-.0415-1.3887-.083-2.0793-.1246-.7222-1.4654-.3134-2.7486.5217-4.0489,3.5784-5.5722,7.5954-10.8202,12.6206-15.1316C43.4556,8.1925,62.3668,1.896,83.7425,4.2213c8.7793.9552,17.1982,3.6607,25.0858,8.054,6.3724,3.5493,11.9749,7.9462,17.194,12.9145,1.7643,1.6794,3.7094,3.3346,4.3044,5.913-.2342.4415-.4697.8832-.7018,1.3269-1.753-.3539-3.0958.8109-4.634,1.2077-6.4047,1.6527-12.7477,3.0598-18.4236-2.415-2.8314-2.7311-6.3321-4.5171-10.6707-2.6152-1.1283.4946-3.2201.4301-4.0473-.3037-4.031-3.5757-9.388-6.5787-7.5811-13.4859.0496-.1894-.0122-.4087-.0253-.6139-.1432-2.2539-1.8427-3.7837-4.1532-3.4674-1.386.1896-2.7165.7836-3.8653,1.133-2.1298,5.7223-1.9293,5.7617,1.4563,9.4887,3.5501,3.9082,6.8413,8.0713,9.5768,12.7661-2.8621,3.721-5.466,7.3945-8.4101,10.7713-.9803,1.1244-2.8329,1.4886-4.2868,2.2004-7.1661-4.1138-14.9837-4.1737-22.7374-2.9714-4.7359.7344-9.3629.8851-14.0747.5203Z"/>
  <path class="cls-10" d="M6.1279,58.5357c.4747-1.9725.9284-3.9503,1.4315-5.9156.2983-1.1649,1.2947-1.4731,2.3084-1.7207-.4766,2.7232-.9528,5.4481-1.5224,8.7082-.9969-.4818-1.6072-.7769-2.2175-1.0719Z"/>
  <path class="cls-10" d="M10.0053,50.004c.0724-1.3855-.0835-2.8388.3011-4.1313.2378-.7995,1.1987-1.5419,2.0137-1.9708.9863-.5191,1.913-.0104,2.5496.9051-1.2114.1723-2.0916.7322-2.6941,1.87-.6172,1.1652-1.4383,2.2225-2.1702,3.327Z"/>
  <path class="cls-16" d="M74.5606,47.0959c1.4539-.7118,3.3065-1.076,4.2868-2.2004,2.9441-3.3768,5.548-7.0503,8.4101-10.7713-2.7356-4.6948-6.0267-8.858-9.5768-12.7661-3.3856-3.727-3.5861-3.7664-1.4563-9.4887,1.1488-.3494,2.4793-.9434,3.8653-1.133,2.3105-.3163,4.01,1.2136,4.1532,3.4674.013.2052.0748.4244.0253.6139-1.8068,6.9072,3.5501,9.9103,7.5811,13.4859.8273.7338,2.919.7983,4.0473.3037,4.3386-1.9019,7.8393-.1159,10.6707,2.6152,5.6759,5.4748,12.0189,4.0677,18.4236,2.415,1.5383-.3969,2.881-1.5617,4.634-1.2077.0664.4204.1359.8425.2063,1.2637-2.2187,1.4094-2.5741,1.959-1.9413,3.4668.1946.4636.8094,1.0757,1.2055,1.0571.6644-.0311,1.5735-.346,1.8906-.8494.3702-.5874.2156-1.5051.2887-2.2796.7506.5025,1.5014,1.0051,2.2534,1.5036-.37,1.5906-.5838,3.2442-1.1516,4.7656-.749,2.0064-2.4395,2.7641-4.4771,2.2225-.7858-.2089-1.5658-.5296-2.272-.933-4.033-2.3047-8.2433-1.8771-12.5435-1.1218-.8536,4.4184,1.7479,7.6898,2.9458,11.3282.1269.6389.2537,1.2779.3808,1.9169-.0002,0-.1701-.0229-.1681-.0225-.287-.0663-.579-.0822-.8752-.0466-.8929.0039-1.7843.007-2.6755.0102-.2587-.0494-.5129-.1158-.7627-.1993-.1725-3.4491.0632-6.9353-1.4246-10.2312-.3953-.876-.2112-2.0133-.2926-3.0317q-.1548-3.24-3.1603-3.9793c-.553-.8525-1.106-1.7051-1.6585-2.5567-.1517-2.6797-2.2824-1.9185-3.8175-2.1931-1.0721-1.4452-1.847-1.0926-2.369.4222-.2649.7685-.386,1.6771-1.4469.6815-.4166-2.1483-.4715-2.1812-2.4965-1.4968l-.3968-.0329-.078.4301-.4545.0274c-.8356.363-1.671.7261-2.5066,1.0891-4.7341,2.6494-6.8181,7.2153-8.5445,11.9865-.7071,1.9541.2126,2.5824,3.247,2.418.3381,1.5782.4739,3.2857,2.4791,3.8446,1.6323-.6467,3.2895-1.3031,4.9466-1.9596-.2732,1.198-.5466,2.396-.8199,3.5939-.3684.4285-1.1379,1.0305-1.0397,1.2571.6213,1.4354,1.1645,3.0789,2.2555,4.0915,1.2758,1.1841,2.0941.0813,2.3597-1.3286.2661-.2603.568-.4689.9064-.6242,1.1079.6245,1.4392,1.6772,1.5734,2.839-.054,1.2867.2586,2.4446,1.7808,2.4041,1.4465-.0386,1.9075-1.0827,1.7264-2.4345,0,0,.1697-.0517.1695-.0515.9061.0365,1.8123.0727,2.7183.1089-.1142,2.8459-2.2048,5.3806-1.3202,8.3837-.026.1931-.077.3864-.0741.579.0171,1.1095-.4122,2.5836,1.1968,2.807,1.3713.1905,1.9688-.9742,2.2469-2.1804.0857-.3718.0464-.7726.0643-1.16.4378-.7732.8757-1.5464,1.3136-2.3195.6891-.0133,1.3777-.0267,2.0665-.0401-.3299,1.2811-.6599,2.5623-.9897,3.8435-1.2541.8405-1.1619,2.1145-1.0898,3.3822-.1917.9051-.3836,1.8103-.5755,2.7153-2.4263,2.2473-2.456,2.5424-.4937,5.9376.8725-.4601,1.7125-1.0569,2.6467-1.322.3919-.1112.9833.4805,1.4841.7527-.24,1.1453-.4798,2.2906-.7196,3.4359-1.5982,1.7589-3.0815,3.5861-3.5805,6.0006-1.3406.9483-1.3093,2.3245-1.1655,3.7357l-.0569.0892c-3.4709,4.4298-5.4663,8.4815-5.5783,11.0297,1.0497-.1463,2.159-.4365,3.263-.418,1.1875.0197,2.3699.3287,3.5547.5115.0133,1.3116-.3198,2.7039-1.5629,3.1035-3.2414,1.0419-5.8678,3.8423-9.7194,3.2257-1.5167-.2428-2.6861.7924-3.4069,2.1876-.5648,1.0931-1.1373,2.1834-1.7466,3.252-.8046,1.4111-2.099,1.8692-3.6493,1.7723.1216-.3253.2165-.6584.2853-.9989.53-.8619,1.0601-1.7237,1.5901-2.5856,1.5365-2.3277,3.0502-4.6655,3.3681-7.5376.4329-1.6395.8658-3.2791,1.2986-4.9187,1.4485-2.4742,1.5021-4.9467-.0092-7.4171-.4037-1.736-.8073-3.4721-1.2109-5.2081-.9236-3.4959-2.5251-6.5355-5.7226-8.5012-.2019-.4183-.4037-.8365-.6056-1.2548-1.7067-1.7115-3.3138-3.54-5.1483-5.1014-1.8086-1.5394-3.4283-3.6302-6.2688-3.2471-.7579-.1999-1.5173-.3988-2.2768-.5977-2.6917-.6323-5.3679-1.3552-8.0877-1.8246-.5829-.1006-1.3243.7173-1.9927,1.1122-2.2042-.1931-4.3467-.221-5.6086,2.0953-1.6351.1121-2.7416.8518-3.0144,2.5712-.2761.0677-.5527.1333-.8297.1965-.4753.3632-.9504.7264-1.4256,1.0896,0,0-.1583.0054-.1583.0054-.7866.521-1.8622.8679-2.3019,1.5979-1.016,1.6868-1.7238,3.5591-2.5567,5.3562-2.6169,1.6984-3.7598,4.219-3.7922,7.2256-.0284,2.633.1618,5.2685.2555,7.9029,1.4684,3.7296,2.6132,7.7014,6.9521,9.2829.4612.6251.7899,1.5673,1.4037,1.8214,2.5674,1.0627,5.1692,2.2219,8.0827,1.4186l.3313-.0608c2.0926,1.1505,4.1344.2694,6.1877-.1544,1.8856-1.0014,3.8438-1.8894,5.6364-3.0362,1.7919-1.1463,2.5674-2.9423,2.3802-5.1008l.0027-.1154c.3997-.3942.7992-.7886,1.1987-1.1829,1.5865-2.3194,1.4776-4.8891,1.109-7.4974-.3596-.4645-.7199-.929-1.0801-1.3935-.4452-.7112-.8903-1.4226-1.3355-2.1338-1.0042-3.1935-4.055-2.8829-6.4212-3.5132-.7685-.2046-1.8865.9036-2.9049,1.4431,2.1247,2.1095,3.9273,3.899,5.7297,5.6886-.054.3244-.0939.6506-.1199.9785-2.0598,2.5394-2.5284,6.5779-6.2275,7.1449-3.6788-2.1677-6.9855-4.1162-10.2924-6.0648.0925-1.4359.1852-2.872.2779-4.3079.6944-1.7063,1.1153-3.609,2.1601-5.0638,1.0382-1.4456,2.534-2.8215,4.1376-3.5375,2.0194-.9017,4.3299-1.2675,6.555-1.5625,2.4652-.3268,4.9216-.1088,7.1804,1.209,1.0591.618,2.2385,1.0292,3.3636,1.5341.7031,1.213,1.4596,2.3988,2.0944,3.6466.6384,1.2553,1.5747,2.551,1.6413,3.8664.1521,3.0076-.0764,6.0428-.2822,9.0579-.2241,3.2799-2.4245,5.8911-3.2228,8.9888l-.068.054c-2.5311,1.5171-5.1757,2.8759-7.566,4.5893-3.3496,2.4011-6.787,4.343-11.0645,4.1888q-2.2831-2.0037-5.3895-.8144c-1.3452-.597-2.6905-1.1938-4.0377-1.7908-.4278-.4407-.8536-.8813-1.2794-1.3217-1.1602-1.8785-2.9609-2.3025-4.9941-2.1981-.8147-.8606-1.6293-1.7212-2.444-2.5817-.1579-1.0098-.2986-2.0226-.4775-3.0286-.3597-2.0222-1.6915-1.9957-3.2314-1.5047-.1067-2.226-.1563-4.4569-.3543-6.6748-.0607-.6799-.5277-1.3235-.7954-1.9523-2.3321.6409-1.468,4.3183-4.7549,3.6403-.3073-.7125-.6931-1.6067-1.0766-2.4953,1.3941-2.4616,2.577-5.0811,4.2351-7.3542,1.7405-2.3861,4.6556-3.8785,5.5591-6.9322-1.022-1.0194-1.9119-.7124-2.8695-.2135-3.7241,1.9393-5.8766,5.5074-8.7281,8.35-.2566-1.8802.0876-3.6262.9859-5.3145.5686-1.0687.9295-2.2477,1.3833-3.3784,2.2554-1.4078,4.5512-2.7546,6.7554-4.2375,2.228-1.499,5.3766-1.2813,7.3333-3.7381-.8127-.4133-1.3527-.688-1.8929-.9627.0724-.8458.1449-1.6915.2174-2.5374,1.2607-.8491,2.5213-1.6983,3.7821-2.5475,1.5539-.3384,3.1638-.5184,4.6516-1.044,4.9546-1.7506,9.9772-3.0278,15.2842-2.8274,1.56.264,3.1199.5279,4.68.7919.9981.6001,1.9534,1.611,3.0026,1.7202,2.7227.2835,4.8878,1.4999,6.9677,3.1135.5999.4654,1.4436.6166,2.1755.9119.8728.7178,1.7454,1.4356,2.6182,2.1535.7228,1.5521,1.913,2.5168,3.5985,2.8591.8438,1.1703,1.7996,2.1782,3.3558,2.3181.1949,1.2105.3898,2.421.5847,3.6315.6611.8568,1.3223,1.7134,1.9834,2.5701.4216,1.7277-.0026,3.7046,1.5068,5.1118.4762,1.0823.8495,2.2287,1.4702,3.2205.3272.5229,1.0862.7758,1.7025,1.1854.8051-2.615,1.4878-4.8318,2.1703-7.0488,1.8387-1.733,1.2117-4.1628,1.5841-6.2605.1559-.879-1.0027-1.9911-1.5634-2.9971-.1052-3.2408-2.6774-5.41-3.6053-8.294-.4632-.4994-.9244-.999-1.3856-1.4985-1.3077-1.5867-2.4684-3.3783-4.8456-3.4738l-.1821-.0287c-.2878-.7921-.5754-1.5841-.8631-2.3762-.5465-.5772-1.0931-1.1544-1.6396-1.7316-.2732-2.3465-1.7023-3.2331-3.9303-3.111-1.9298-2.9733-3.4547-6.3512-7.3543-7.3558-1.7135-.7536-3.4271-1.5072-5.1406-2.2608.1627-.6112.3253-1.2225.4878-1.8337ZM77.5601,14.5703c2.1935,1.9744,2.9783,2.1629,4.2802.889.6646-.6502.631-1.5022-.1314-2.0036-.6055-.3984-1.5372-.8258-2.1079-.6251-.7871.2766-1.3703,1.1321-2.0409,1.7397ZM61.3346,97.5959c2.1549-2.6579,2.218-2.8736.6932-4.1536-.5435-.4563-1.3148-1.0755-2.4711.0665.5194,1.1941,1.1035,2.5367,1.7779,4.0871Z"/>
  <path class="cls-7" d="M116.0295,52.8533c-1.1977-3.6384-3.7992-6.9097-2.9456-11.3282,4.3002-.7553,8.5105-1.1829,12.5435,1.1218.7062.4034,1.4861.7242,2.272.933,2.0376.5416,3.7281-.2161,4.4771-2.2225.5678-1.5214.7816-3.1749,1.1516-4.7656.6646.4282,1.624.6949,1.9496,1.3016,2.2983,4.2818,4.5002,8.6169,6.6405,12.9803.3345.6818.1993,1.594.2823,2.4015-2.907.3713-5.1034-1.1351-7.2669-2.7425-2.4629-1.8298-5.3409-2.7509-8.0628-1.3192-3.5253,1.8546-7.426,2.2505-11.0412,3.6397Z"/>
  <path class="cls-13" d="M116.0297,52.8533c3.615-1.3892,7.5157-1.7851,11.041-3.6397,2.7218-1.4316,5.5998-.5105,8.0628,1.3192,2.1635,1.6074,4.3599,3.1138,7.2669,2.7425.4685,2.1709.9378,4.3436,1.4081,6.517-.732-.2875-1.7908-.3638-2.1406-.9014-1.3732-2.1104-3.1336-2.902-5.6552-2.7844-1.9836.0925-3.9947-.4025-6.5245-.6987-1.8519,2.0501-4.32,4.0847-7.9377,3.2148l-.2397-.2396q-.4763-3.1498-3.0542-3.4672c-.6124-.0742-1.2307-.0985-1.8463-.1457-.127-.6391-.2539-1.278-.3808-1.9169Z"/>
  <path class="cls-11" d="M131.2747,35.0884c-.073.7744.0815,1.6922-.2887,2.2796-.3171.5034-1.2262.8183-1.8906.8494-.396.0186-1.0108-.5935-1.2055-1.0571-.6328-1.5078-.2775-2.0574,1.9413-3.4668.4807.4656.962.9303,1.4435,1.3949Z"/>
  <path class="cls-12" d="M143.9067,95.0296c-.1208-3.3267.3759-6.4896,2.4514-9.2342.4642,3.4177.4438,6.7074-2.4514,9.2342Z"/>
  <path class="cls-12" d="M135.1222,116.7948c-.0803-1.1061.1365-2.0752,1.2206-2.6453-.0366.8276-.0736,1.656-.111,2.4843-.3612.1141-.731.1678-1.1096.161Z"/>
  <path class="cls-4" d="M16.102,41.4734c.4519.177.9037.3538,1.3547.5285-.4521-.1776-.9034-.3531-1.3547-.5285Z"/>
  <path class="cls-12" d="M24.6852,114.3321c-1.8353-.1814-2.9653-1.2403-3.688-2.8749-1.9044-4.3065-4.0827-8.5104-5.7011-12.9205-2.3978-6.5343-2.4251-13.2997-.5887-19.9861,1.5244-5.55,3.5997-10.9298,6.7468-15.7855,3.3782-5.2124,7.4472-9.8333,12.8654-13.0329,1.1752-.694,2.6762-.8364,4.0281-1.2322.001.0008.1174.1181.1172.1177-.9876,1.2115-1.975,2.4234-2.9625,3.6353-1.0428.5805-2.2043,1.0173-3.1091,1.7648-5.1349,4.2413-8.3642,9.8849-11.3449,15.6974-.577,1.2-1.154,2.4-1.7311,3.5999-.2634,1.0953-.5267,2.1906-.7904,3.2898-1.9519,1.2907-2.5091,3.1981-2.4037,5.4004.0346,2.1121.069,4.2242.1036,6.3363-.315,2.523-1.1569,5.1291,1.1426,7.2395.9072,2.5735.5939,5.5117,2.3412,7.8343,1.2118,2.4393,2.4236,4.8786,3.6354,7.318.4409.7572.8819,1.5143,1.3228,2.2715.0394.406.0838.8116.1331,1.2166l-.1168.1105Z"/>
  <path class="cls-12" d="M87.692,119.0903c1.551.0972,2.8453-.361,3.6499-1.772.6094-1.0686,1.1819-2.1589,1.7466-3.252.7208-1.3952,1.8903-2.4304,3.4069-2.1876,3.8517.6167,6.4781-2.1838,9.7194-3.2257,1.2431-.3996,1.5762-1.7919,1.5631-3.1035.0002,0,.0343-.0256.0343-.0256,3.566.2532,5.6405-1.3787,6.2101-4.9123,1.6022-.02,2.4236-.8461,2.5104-2.4309,1.685-.0385,2.4387-1.21,3.0642-2.5282.9647-2.0337,2.0692-3.9395,4.3079-4.8375.0844,2.3089-.0188,4.517-1.9756,6.2282-.7521.6577-1.2587,1.6133-1.8186,2.4713-4.6694,7.1549-11.3342,11.706-19.3016,14.3279-3.2781,1.0787-5.7716,2.6075-7.7671,5.5539-1.6608,2.4524-3.7118,5.1248-7.4213,4.7712.3687-1.2941.7385-2.5877,1.1084-3.8811.321-.3984.642-.7973.9629-1.1962Z"/>
  <path class="cls-16" d="M86.7291,120.2861c-.3699,1.2938-.7397,2.5874-1.1084,3.8815-.8742.8241-1.7495,1.6478-2.6247,2.471-.8137.4227-1.6276.8459-2.4416,1.2692-2.4457.8662-4.9035,1.7002-7.3348,2.6051-5.8216,2.1671-11.8594,2.4398-17.9878,2.3013-4.1258-.0931-8.0334-.8707-11.7535-2.6334-.0718-.7818-.1427-1.565-.2126-2.3482.0011-.0002.066-.0268.066-.0268.8304.0392,1.6608.0785,2.4911.1177.4582.0184.9163.037,1.3745.0554.346.0054.69-.0184,1.0323-.0717,1.4719-.0075,2.9433-.0147,4.4149-.0218l-.007-.018c.7087.4552,1.4176.9104,2.1265,1.3656.311.1629.6295.3096.9554.4401,2.1041.8004,4.1866,1.2427,6.1448-.3713,1.388-.8061,2.8546-1.811,4.4654-1.0037,2.8603,1.4336,5.4376.2479,8.0934-.5151,1.6842-.8394,3.3684-1.6787,5.0509-2.5172,1.4796-.0104,2.2496-.8509,2.5756-2.2091,2.0708-.0608,3.1204-1.8458,4.6795-2.7707Z"/>
  <path class="cls-12" d="M74.5606,47.0959c-.1626.6112-.3251,1.2225-.4866,1.8335-.7229-.1406-1.4469-.281-2.1711-.4213-.1438-.1445-.2619-.3625-.435-.4231-7.4839-2.6176-15.0722-2.7472-22.7841-1.1104-3.3707.7154-6.8103,1.1055-10.2187,1.6434,0,0-.1164-.1173-.1174-.1181.0507-2.4517-1.9649-2.4443-3.6047-3.3315,1.0003-.1742,2.0008-.3485,3.0033-.5232,4.7139.3644,9.3409.2136,14.0769-.5208,7.7537-1.2023,15.5713-1.1424,22.7374,2.9714Z"/>
  <path class="cls-12" d="M115.3686,54.7004c.2947-.0348.5867-.019.8737.0473,1.8216,2.9297,3.0466,6.197,5.554,8.7529,1.5842,1.6149,2.208,3.8578,2.0907,6.2292-.101,2.0392-.0765,4.0845-.1062,6.127-.3714-.0402-.7449-.0706-1.1191-.0913.0426-1.9866-.2323-3.8294-2.2189-4.8969-.3048-2.7534.3939-5.873-2.7682-7.5839.1771-2.0966-.236-3.8848-2.4693-4.7212-.152-.3418-.2527-.6981-.3003-1.0698.1554-.9317.3095-1.8625.4636-2.7934Z"/>
  <path class="cls-1" d="M137.1892,76.667c-.3865-.581-.82-1.2329-1.2972-1.9503-2.5695,1.2387-4.8964.2798-7.0853-1.1397-.3764-.2441-.6333-1.1243-.4979-1.5768.1332-.4448.8404-1.0252,1.2877-1.0183,2.8482.0437,5.7135.0914,8.5265.4777.6767.0929,1.5333,1.4072,1.6818,2.2677.2832,1.6411-.6417,2.7161-2.6155,2.9396Z"/>
  <path class="cls-16" d="M122.6617,75.7656c.3742.0207.7477.0511,1.1191.0913.2339,2.5136-.1515,5.1434,1.3875,7.4123.406.8057.8122,1.6115,1.2183,2.4173-.4122.851-.8243,1.7021-1.2363,2.5532-.4149.8574-.83,1.7149-1.2452,2.5738-2.2388.8995-3.3433,2.8053-4.308,4.839-.6254,1.3182-1.3792,2.4897-3.0642,2.5282l-.1461-.1349c.5569-2.6216,1.7335-4.9433,3.7877-6.6591,2.4351-2.0338,3.0282-4.5766,2.6423-7.5492-.1802-1.3888-.2416-2.793-.3569-4.1901.0671-1.294.1344-2.5879.2017-3.8819Z"/>
  <path class="cls-12" d="M97.5929,123.2754c2.9137-2.2293,5.1746-1.3781,7.2266-1.6209,1.9388-.2296,3.8821-.421,5.8076-.6275.077.5034.2858,1.1088.163,1.1857-1.0116.6341-2.0414,1.5341-3.1473,1.6654-2.9595.3512-5.9745.595-10.0498-.6028Z"/>
  <path class="cls-12" d="M80.5544,127.9078c.814-.4233,1.6279-.8465,2.4416-1.2692.3523.6899.5563,1.8109,1.0839,1.9925,2.0622.7101,4.2268,1.1232,6.3533,1.6466l.0747.0843c-1.141,2.0319-2.6876,2.7964-4.9915,1.8355-2.1516-.8974-4.9036-1.0061-4.962-4.2897Z"/>
  <path class="cls-12" d="M128.8089,83.2002c.9142-.767,1.7163-1.9085,2.766-2.2223,2.122-.6345,4.3723-.8695,6.5854-1.1419.3765-.0464.8308.5409,1.6425,1.1123-3.7378,1.8344-7.234,2.4341-10.888,2.361-.0003-.0004-.1058-.1091-.1058-.1091Z"/>
  <path class="cls-12" d="M40.8732,127.8904c-3.9811-.5471-7.3508-1.9494-8.6819-6.2037l.0661-.0557c1.9044.9381,3.8089,1.8762,5.7134,2.8143,1.0703,1.0108,2.1406,2.0216,3.2109,3.0323l-.3085.4128Z"/>
  <path class="cls-12" d="M90.4332,130.2778c1.3364-2.3409,3.4324-3.8732,5.3399-5.7293,1.1828,1.7046.7739,2.9273-.3218,3.5922-1.5327.9302-3.2855,1.4979-4.9437,2.221.0003.0003-.0744-.084-.0744-.084Z"/>
  <path class="cls-12" d="M30.9681,120.4545c-.9629-.3034-1.9372-.5751-2.8866-.9164-2.4356-.8754-3.4698-2.6856-3.3951-5.2071-.0013.0011.1155-.1094.1156-.1095,1.6626,1.3272,3.3251,2.6545,4.9877,3.9818.4784.647.9566,1.294,1.4349,1.9411l-.2566.3101Z"/>
  <path class="cls-12" d="M119.8759,115.0202c2.4191-2.7159,5.1221-1.8952,9.0671-2.0338-3.643,1.9493-6.0341,2.9984-9.0671,2.0338Z"/>
  <path class="cls-12" d="M55.6792,140.6734c2.0822-.3839,4.1644-.7676,6.2748-1.1566.6259,1.193-.4349,1.5642-1.0037,1.6152-1.7368.1554-3.4966.0565-5.2473.0565-.008-.1717-.0159-.3433-.0237-.515Z"/>
  <path class="cls-12" d="M126.3866,85.6865c-.4062-.8058-.8123-1.6116-1.2183-2.4172,1.2139-.0227,2.4276-.0455,3.6409-.0687-.0003-.0004.1052.1083.1055.1087-.1279,1.5525-.9222,2.3964-2.5281,2.3772Z"/>
  <path class="cls-12" d="M43.2645,127.8327c.0709.7831.1418,1.5663.2137,2.3481-.8676-.7647-1.736-1.528-2.6047-2.2909-.0003.0005.3082-.4124.3064-.4096.6937.1193,1.3891.2358,2.0846.3523Z"/>
  <path class="cls-12" d="M116.8104,115.9395c-.054.1498-.1028.4234-.1629.4258-.1716.0073-.3478-.0959-.522-.1557.0538-.1499.1027-.4236.1627-.426.1715-.0071.3478.0961.5221.1559Z"/>
  <path class="cls-12" d="M112.7036,117.8921c.1137-.1668.2274-.3335.3411-.5002l-.245.5962s-.0962-.096-.0962-.096Z"/>
  <path class="cls-12" d="M112.7999,117.9881c-.1113.1634-.2224.3269-.3336.4904.0794-.1953.1586-.3907.2376-.5862-.0003-.0002.096.0959.096.0959Z"/>
  <path class="cls-12" d="M32.1913,121.6867c-.4076-.4111-.8151-.8221-1.223-1.2327-.0002.0005.2564-.3096.2557-.3088.3246.0479.6268.1581.9061.3313.0572.3832.0996.768.1273,1.1544l-.0661.0557Z"/>
  <path class="cls-13" d="M121.5506,58.6228c-.2407.1528-.4813.3057-.722.4585.1618-.232.3234-.4638.4839-.697-.0015-.0012.2382.2383.2382.2384Z"/>
  <path class="cls-14" d="M18.5271,76.601c.2634-1.0953.5267-2.1906.7942-3.2865,2.4269.2335,3.8382-.9596,5.0872-3.5992h-3.3601c2.9807-5.8125,6.21-11.4561,11.3449-15.6974.9049-.7475,2.0663-1.1843,3.1137-1.7649,3.455.26,6.8171.258,10.245-.7654,5.4731-1.6338,11.1594-1.9278,16.8745-1.7199,3.0415.1107,6.0925-.0329,9.1391-.0617,2.1017,1.2965,4.2032,2.593,6.3049,3.8894,4.9827,3.2494,7.0882,8.2214,8.2307,13.5147-.8243,1.8711-1.5588,3.5388-2.2933,5.2066-.7319-.2953-1.5756-.4464-2.1755-.9119-2.0799-1.6136-4.245-2.83-6.9677-3.1135-1.0493-.1092-2.0045-1.1201-3.0028-1.7219.16-2.0947-1.4341-3.0149-2.7536-4.1187-1.4176-2.5062-3.8361-2.7744-6.3344-2.7754-3.9056-.0015-7.817.2002-11.7157.0507-5.1553-.1974-10.2559.0637-15.2516,1.3347-2.269.5774-4.8713.6011-6.5833,2.7229,1.3378,1.2951,2.421.412,3.5528.0584,5.8589-1.8305,11.7316-3.5614,17.9482-1.7156.3848.1142.8168.0692,1.2269.0983-.3064.9243-.6126,1.8488-.9213,2.7801q2.7956.8509,5.1955.0385c-.2409-.9818-.4833-1.9697-.7257-2.9576,1.4645-1.557,3.3388-1.0561,5.1206-1.019,1.4238,2.6333,4.5356,2.9174,6.5617,4.7125-5.3069-.2004-10.3296,1.0769-15.2842,2.8274-1.4878.5256-3.0977.7057-4.6529,1.0442-2.6363-2.4407-5.6707-1.5759-8.5392-.8044-3.3067.8893-6.5288,2.1091-9.7497,3.2889-.6937.2541-1.2253.9507-1.8298,1.4415-1.8617.3185-3.2212,1.2953-4.169,2.9585-.8667,1.5212-1.8783,2.96-2.8259,4.4351l-.2927-.2075c.125-1.5643.1192-3.0875-1.3116-4.1617ZM81.2504,67.617c.6141-4.2549.6449-4.2791-.5989-5.8626-3.8863-4.9468-8.9797-7.8486-15.2447-8.2583-8.2341-.5383-16.3806.6347-24.5071,1.8196-1.6229.2366-3.2607.4461-4.8419.8579-.6719.175-1.2163.8391-2.7418,1.958,2.6705.1166,4.3491.6063,5.7375.1709,3.8413-1.2045,7.7519-.8269,11.6375-1.0234,2.2627-.1144,4.6413.2894,6.7697-.2801,2.9265-.7831,5.5861-.2786,8.4275.1913,5.337.8828,9.6683,3.2108,12.9053,7.5666.7111.9571,1.5542,1.8163,2.4569,2.86ZM35.5282,66.3978c-5.5902-.5133-6.624-.2075-9.0514,2.5897,3.6804,1.5217,6.023-.6822,9.0514-2.5897Z"/>
  <path class="cls-14" d="M79.4756,125.2649c-1.6842.8394-3.3684,1.6788-5.0536,2.5187-2.5508-3.0427-5.5174-5.2834-9.7607-5.0653-1.9189-.9476-4.2362-1.2838-5.342-3.4794,4.2781.1541,7.7154-1.7878,11.0651-4.1889,2.3904-1.7134,5.0349-3.0722,7.5669-4.5891.2435.2869.4356.6726.7443.8289.2454.1243.633-.0318.9573-.0634-.1666-.2263-.2879-.5601-.5105-.654-.3377-.1426-.7458-.1187-1.124-.1655.7982-3.0977,2.9987-5.7089,3.2228-8.9888.2058-3.0151.4343-6.0503.2822-9.0579-.0665-1.3154-1.0028-2.6111-1.6413-3.8664-.6348-1.2478-1.3913-2.4335-2.0929-3.649.2147-.3102.4196-.6235.6162-.9423,2.7052-3.6289-1.096-4.7684-2.6131-6.7941-.1742-1.5903-.3494-3.1886-.5246-4.7869,2.8422-.3842,4.4618,1.7066,6.2704,3.246,1.8345,1.5614,3.4416,3.3899,5.1489,5.1024-1.2684.2488-2.3349.7521-2.4221,2.239-.0827,1.4105.0219,2.8383-.1462,4.2357-.215,1.7874-.6891,3.5441-.8941,5.3321-.0487.4237.4627,1.2205.836,1.3026.4296.0946,1.1609-.2843,1.4661-.6832,1.1513-1.5044,1.4045-3.2833,1.4203-5.1533.0171-2.0072.222-4.0128.3451-6.0191,3.1974,1.9657,4.7989,5.0053,5.7221,8.5027-3.9205,2.1257-5.9069,5.8684-7.8964,9.5708-.5391,1.0034-1.2812,2.165-.3038,3.4308,2.2632.217,3.824-1.0788,5.186-2.61,1.4804-1.6644,2.8228-3.4514,4.2255-5.185,1.5114,2.4704,1.4577,4.9429.0088,7.4172-5.3603,1.5659-8.7901,3.4649-12.1505,6.8471,2.4805,1.1259,4.7431,1.1162,7.0462-.0358,1.2673-.6338,2.5373-1.262,3.8061-1.8927-.3178,2.8721-1.8316,5.21-3.3711,7.5374-2.7522-1.0383-5.4649-.9404-8.2911-.1189-4.0363,1.1732-8.148,2.0875-13.4985,3.4317,3.9577,2.0591,6.5133,4.6448,10.5642,3.9143.2779.039.5475.1094.8091.2111.1089.7737.2179,1.5473.3268,2.321Z"/>
  <path class="cls-14" d="M32.2574,121.631c-.0277-.3864-.0702-.7713-.1261-1.1544,1.4794-3.0115,2.1613-5.9183,1.5907-7.9366-.2824-.9986-.0575-2.6274-2.1513-2.4455-1.0912,2.5484.1803,5.7256-1.7809,8.1088-1.6626-1.3273-3.3251-2.6546-4.9877-3.9818-.0494-.4049-.0938-.8105-.1319-1.2164.6153-.7408,1.3362-1.4192,1.8161-2.2387.5897-1.007,1.3614-2.5104.166-3.1877-1.8827-1.0669-1.9664,1.2016-2.7595,2.1079-.252.288-.3684.6945-.5468,1.0469-1.2118-2.4394-2.4236-4.8787-3.6347-7.3204,1.5663-.1883,2.6138-1.035,3.1668-2.5001.5734-1.5188,1.1539-3.0352,1.7013-4.5634.5948-1.6605,1.8869-1.968,3.4281-1.8339-.0401.7742-.0804,1.5484-.1205,2.3226-.2189.4031-.4379.806-.6569,1.2091.2854,1.5134-1.5243,3.1576.2812,5.0653,1.1346-1.7571,2.0531-3.1795,2.9715-4.6018.3857.8942.7715,1.7884,1.0788,2.5009,3.2869.6781,2.4228-2.9993,4.7549-3.6403.2676.6289.7347,1.2724.7954,1.9523.198,2.2179.2476,4.4488.352,6.6724.1765,1.9806.3435,3.9647.5362,5.9464.4055,4.1691,1.1835,8.3378-.0295,12.5027-1.9044-.9381-3.8089-1.8762-5.7134-2.8143Z"/>
  <path class="cls-14" d="M47.017,83.9221c.8329-1.7971,1.5407-3.6694,2.5567-5.3562.4397-.7299,1.5153-1.0769,2.3034-1.5973.7004.7194,1.3544,2.0007,2.1058,2.0606,3.4299.273,6.8921.3065,10.3294.1437.5075-.0241.9433-1.5605,1.4123-2.3973,1.8212.8566,3.6345,2.4031,5.4652,2.424,3.6443.0415,5.6893,1.7911,7.2155,4.7027-.1966.3188-.4015.632-.6162.9423-1.1265-.5025-2.306-.9138-3.3651-1.5317-2.2588-1.3178-4.7152-1.5358-7.1804-1.209-2.2251.295-4.5356.6608-6.555,1.5625-1.6036.716-3.0994,2.0919-4.1376,3.5375-1.0447,1.4548-1.4657,3.3574-2.1595,5.0616-1.8461-.4047-3.253.1336-3.8143,2.0273-.3984,1.3445-.8879,2.768-.8106,4.1263.1828,3.2127.6795,6.4075,1.0493,9.6096l-.3848.3058c-4.3375-1.5823-5.4823-5.5541-6.9509-9.2819.7245-.6454,1.9816-1.2205,2.0808-1.9524.4117-3.0402,2.2373-5.0918,4.2214-7.1389.6402-.6604,1.0739-1.5208,1.9278-2.7639h-4.4279c-.1034-1.2769-.1843-2.276-.2652-3.275Z"/>
  <path class="cls-14" d="M54.1131,96.5754c3.3068,1.9485,6.6135,3.8971,10.2924,6.0648,3.6991-.567,4.1677-4.6054,6.2273-7.1432,1.6462-.3559,3.2925-.7134,4.9389-1.071.2188,3.5041-3.4057,4.7971-4.9576,7.895,1.6016.3755,2.7211.6379,3.8405.9004.1872,2.1585-.5884,3.9545-2.3802,5.1008-1.7926,1.1468-3.7508,2.0348-5.6358,3.0368.1778-3.1656-2.2786-3.6965-4.4836-4.4791-1.1811-1.84-2.3622-3.68-3.6155-5.6324-1.0924.5109-1.2466,1.4143-1.3276,2.4677-.2374,3.0831,2.0235,5.2102,2.907,7.8582-2.9135.8033-5.5153-.3558-8.0827-1.4186-.6138-.2541-.9425-1.1963-1.4037-1.8214-.0014.0008.3835-.305.3835-.305,2.9235.6004,3.6567.0833,3.1588-2.2406-.0851-.3978-.2129-.7902-.3596-1.1703-1.0641-2.7588-1.1686-5.4542.4979-8.0422Z"/>
  <path class="cls-11" d="M28.0076,94.5157c-1.5412-.1341-2.8333.1735-3.4281,1.8339-.5474,1.5282-1.1279,3.0446-1.7013,4.5634-.5531,1.465-1.6005,2.3118-3.1668,2.5001-1.7481-2.3201-1.4348-5.2583-2.3415-7.8316.347-.6429.6935-1.286,1.04-1.9293,1.6675-.4997,1.1518-1.744.9794-2.8711.1233-.1999.2329-.4071.3293-.6174,1.4231-2.5193,2.8455-5.0427,4.2679-7.5662,2.1675-.6686,4.335-1.3372,6.5042-2.0058.188,1.0277.3743,2.0555.5606,3.0832-.4541,1.1296-.815,2.3086-1.3836,3.3773-.8983,1.6883-1.2425,3.4343-.987,5.3116-.2251.7153-.4491,1.4337-.6731,2.152Z"/>
  <path class="cls-14" d="M122.6617,75.7656c-.0673,1.294-.1346,2.5879-.2001,3.8812-.5748-.4998-1.1512-.999-1.888-1.6371-1.7314,7.8959-5.1605,14.7331-10.2134,20.7826-1.1664,1.3965-2.0728,3.016-3.0215,4.5797-.0954.1572.3467.6406.5395.9726-.0392.3922-.0611.7853-.0658,1.1793,0,0-.0342.0256-.0343.0256-1.1849-.1829-2.3674-.4919-3.5548-.5116-1.104-.0184-2.2133.2717-3.263.418.112-2.5482,2.1074-6.5999,5.5785-11.0299.2864.592.5729,1.1842.9974,2.0618,3.6864-3.6364,6.4927-7.2046,7.7977-11.7743,1.7029-4.615,3.4059-9.23,5.1088-13.845,1.9868,1.0675,2.2617,2.9103,2.219,4.8969Z"/>
  <path class="cls-2" d="M97.6162,56.9182c-.3377.1569-.6395.3656-.9056.6237-1.3995-.3524-2.4274-1.0178-2.6572-2.6228-.0714-.4986-.5993-.9318-.9182-1.395.2732-1.198.5466-2.396.8147-3.5927,2.1015-1.6095,2.4516-3.9717,2.5825-6.3618.0221-.4047-.7101-.8506-1.0937-1.2774.2011-3.043,1.089-5.9022,2.32-8.6696,1.0615.9968,1.1826.0882,1.4475-.6803.522-1.5148,1.2969-1.8674,2.3692-.4224.0543,3.7909.1086,7.5818.1629,11.3728-1.2089,4.394-1.9847,8.9252-4.1222,13.0255Z"/>
  <path class="cls-11" d="M110.211,41.2501c.082,1.0174-.1021,2.1548.2932,3.0307,1.4878,3.2959,1.252,6.782,1.4224,10.2324-.9729,3.7949-1.9435,7.5886-2.9143,11.3823-.4378.7732-.8757,1.5464-1.313,2.3213-1.1444-.0147-2.2893-.031-3.4343-.0473-.8846-3.0031,1.2061-5.5378,1.3186-8.3841.7127-1.4453,1.7082-2.8215,2.0826-4.3496.7737-3.1582,1.5852-6.33,1.3621-9.6685-.104-1.5592-.4207-3.3345,1.1826-4.5172Z"/>
  <path class="cls-2" d="M120.4426,70.8687c-1.7029,4.615-3.4059,9.2299-5.1094,13.8431-1.331-.0382-2.6613-.0745-3.9917-.111.2398-1.1453.4796-2.2906.7167-3.4363.3107-.0819.5823-.2369.8117-.4656.2314-.3975.4629-.7951.6944-1.1926,1.0358-5.4918,2.309-10.9236,4.1102-16.2215,3.1621,1.7109,2.4634,4.8305,2.7681,7.5839Z"/>
  <path class="cls-9" d="M28.0076,94.5157c.224-.7184.448-1.4367.6731-2.152,2.8526-2.8397,5.0051-6.4078,8.7292-8.3471.9575-.4988,1.8475-.8058,2.8695.2135-.9035,3.0537-3.8185,4.5461-5.5591,6.9322-1.6581,2.2731-2.841,4.8926-4.2351,7.3542-.9207,1.4167-1.8392,2.8392-2.9738,4.5962-1.8055-1.9078.0042-3.5519-.2807-5.065.219-.4028.4378-.8062.6564-1.2095.0401-.7742.0804-1.5484.1205-2.3226Z"/>
  <path class="cls-3" d="M78.4054,83.9022c-1.5262-2.9116-3.5712-4.6612-7.2155-4.7027-1.8307-.0209-3.644-1.5674-5.4649-2.4217-.9882-2.0008-2.5585-2.7766-4.7473-2.2478l-3.6803-1.4257c1.2682-2.3153,3.4107-2.2875,5.6175-2.0935.1991.5755.236,1.4908.6183,1.67,2.7037,1.2677,5.3343,2.8035,8.3712,3.2422.4117-1.5894.75-2.895,1.0883-4.2006.7595.1989,1.5189.3978,2.2768.5977.1734,1.5994.3487,3.1977.5229,4.788,1.5171,2.0257,5.3183,3.1653,2.6131,6.7941Z"/>
  <path class="cls-14" d="M117.6745,63.2847c-1.8012,5.2979-3.0744,10.7297-4.1072,16.2205-.2303.3973-.4638.7955-.6974,1.1936-.2294.2287-.501.3837-.8117.4656-.4979-.2718-1.0893-.8634-1.4813-.7522-.9342.265-1.7742.8619-2.6467,1.322-1.9623-3.3952-1.9326-3.6903.4952-5.9381.9594.4976,1.7407.5792,1.8405-.8208.039-.5479.0251-1.0997.0354-1.6497l-.0402.042c1.8408-.4821,2.4716-2.0654,2.9389-3.5801,1.1261-3.6481,2.484-7.28,2.0051-11.2238,2.2332.8364,2.6464,2.6246,2.4693,4.7212Z"/>
  <path class="cls-9" d="M37.9708,124.4453c1.2129-4.1649.435-8.3336.0295-12.5027-.1927-1.9816-.3597-3.9658-.5362-5.9464,1.5421-.4886,2.8739-.5152,3.2337,1.5071.1789,1.006.3195,2.0188.4762,3.028-.4097,4.4665-1.0207,8.9015,1.6099,13.0725.684,1.0846.3917,2.7847.5478,4.2021,0,0-.0649.0266-.066.0268-.6966-.1165-1.392-.233-2.0857-.3523-1.0686-1.0135-2.1389-2.0243-3.2092-3.0351Z"/>
  <path class="cls-11" d="M78.3397,122.7328c-4.051.7304-6.6066-1.8553-10.5642-3.9143,5.3505-1.3442,9.4622-2.2585,13.4985-3.4317,2.8261-.8215,5.5389-.9194,8.2911.1189-.527.8621-1.0571,1.724-1.5865,2.584-3.5158-.5231-6.7853.0187-9.8549,2.1315.0792.921.1477,1.7163.2161,2.5115Z"/>
  <path class="cls-15" d="M105.3925,34.7122c.5528.8525,1.1058,1.7051,1.6585,2.5581.0209.88.042,1.7596.0632,2.6391.0488.3921.0975.7842.1462,1.1763-.0582,1.2846-.1163,2.5691-.1743,3.8538-.0872.767-.1745,1.534-.2616,2.301-.3242,4.4619-1.4893,8.6563-3.9574,12.4362,0,0-.1697.0517-.1695.051-.5551-.7556-1.1105-1.5104-1.6659-2.2653.877-4.2496,1.7539-8.499,2.6308-12.7486.1697-2.0196.3876-4.0368.4923-6.0597.0744-1.439.0074-2.8826,1.2377-3.9419Z"/>
  <path class="cls-14" d="M30.489,80.5915c-2.1675.6686-4.335,1.3372-6.4939,2.0005.8715-2.4077,1.1516-5.0632,3.0546-7.0137,5.2705-2.1027,10.7963-2.966,16.4146-3.3803-.0725.8458-.145,1.6915-.216,2.5366-2.6808-.3907-5.1489-.105-7.3899,1.6985-1.0654.8574-2.4871,1.2724-3.7475,1.8878-.4393.647-.8786,1.2941-1.3179,1.9412l-.3041.3294Z"/>
  <path class="cls-14" d="M43.3316,127.8059c-.1561-1.4174.1362-3.1175-.5478-4.2021-2.6306-4.171-2.0196-8.606-1.6099-13.0725.816.8611,1.6307,1.7217,2.4443,2.5816-.4214,1.9591.2566,3.4961,1.4613,5.0874,2.1381,2.8245,3.4916,6.0216,3.1497,9.7074-.342.0529-.686.0767-1.0326.0701-.4585-.0189-.9162-.0366-1.3739-.0543-.8303-.0392-1.6608-.0785-2.4911-.1177Z"/>
  <path class="cls-14" d="M95.4387,42.2921c.3836.4269,1.1158.8727,1.0937,1.2774-.1309,2.3901-.481,4.7523-2.5825,6.3618-1.652.6552-3.3091,1.3116-4.9414,1.9583-2.0052-.5589-2.141-2.2664-2.4775-3.8405,1.2062-2.51,2.3261-5.0693,3.6406-7.5244,1.1657-2.1773,1.7007-4.4458,1.6553-6.8841.8356-.3631,1.671-.7261,2.5063-1.089-.6591,2.5288-1.4188,5.0365-1.9491,7.5919-.5546,2.6732-2.4207,4.9876-2.5172,8.4411,1.2106-.5132,2.1437-.6092,2.4911-1.1107,1.1415-1.6481,2.0702-3.4433,3.0808-5.1819Z"/>
  <path class="cls-11" d="M84.0079,72.3166c.7344-1.6677,1.469-3.3354,2.2933-5.2066-1.1426-5.2933-3.248-10.2653-8.2307-13.5147.3811-.8016.7621-1.6032,1.143-2.4049,3.8996,1.0045,5.4246,4.3824,7.3563,7.3554,1.4038,3.431,1.9482,6.998,1.393,10.6599-.2701,1.7814-.8802,3.5112-1.3364,5.2642-.8729-.7178-1.7456-1.4356-2.6184-2.1535Z"/>
  <path class="cls-9" d="M54.1131,96.5754c-1.6665,2.588-1.562,5.2834-.4979,8.0422.1467.3801.2744.7726.3596,1.1703.4979,2.3239-.2353,2.841-3.1588,2.2406-.3697-3.2021-.8664-6.3969-1.0493-9.6096-.0773-1.3582.4122-2.7818.8106-4.1263.5613-1.8937,1.9682-2.432,3.8143-2.0273-.0933,1.4381-.186,2.8741-.2785,4.31Z"/>
  <path class="cls-3" d="M94.2256,95.6327c-1.4026,1.7336-2.7451,3.5206-4.2255,5.185-1.362,1.5311-2.9228,2.827-5.186,2.61-.9774-1.2658-.2353-2.4274.3038-3.4308,1.9895-3.7024,3.976-7.4451,7.8964-9.5708.4039,1.7345.8075,3.4706,1.2112,5.2066Z"/>
  <path class="cls-11" d="M43.4643,72.198c-5.6183.4144-11.1441,1.2777-16.4136,3.3817.0253-.6662.0496-1.3337.0739-2.0011.6063-.4927,1.1379-1.1894,1.8316-1.4434,3.2209-1.1798,6.443-2.3995,9.7497-3.2889,2.8686-.7715,5.9029-1.6363,8.5392.8043-1.2594.849-2.5201,1.6983-3.7807,2.5474Z"/>
  <path class="cls-6" d="M95.4387,42.2921c-1.0105,1.7386-1.9393,3.5339-3.0808,5.1819-.3473.5015-1.2805.5975-2.4911,1.1107.0965-3.4536,1.9626-5.768,2.5172-8.4411.5303-2.5554,1.29-5.0632,1.9491-7.5919.0003-.0002.4548-.0275.4532-.027.1795-.1064.3389-.2391.4765-.3978,2.025-.6844,2.0799-.6515,2.4965,1.4968-1.2316,2.7663-2.1195,5.6255-2.3206,8.6684Z"/>
  <path class="cls-14" d="M52.6375,127.8675s.007.018.0073.0181c.1639-.5197.3278-1.0395.4917-1.5593.4553-.9967.1382-1.7009-.8191-2.1628-.1697-.3963-.3392-.7927-.5088-1.1891.3674-1.7834-.5106-2.9355-1.9331-3.8114-.1036-.4366-.2073-.8733-.3109-1.3099.1099-.4065.22-.8131.3301-1.2195,1.3452.5969,2.6905,1.1937,4.0324,1.7875,1.8003,2.8146,4.4057,4.7857,7.0723,6.6919-.2864,2.4608-1.9659,2.8792-4.023,2.7437-.6492-.0293-1.2986-.0584-1.9482-.0877l-2.3907.0986Z"/>
  <path class="cls-11" d="M91.8269,33.6406c.0454,2.4383-.4896,4.7068-1.6553,6.8841-1.3145,2.4552-2.4344,5.0145-3.6406,7.5244-3.036.1603-3.9557-.468-3.2486-2.422,1.7264-4.7712,3.8104-9.3371,8.5445-11.9865Z"/>
  <path class="cls-9" d="M32.1109,78.3209c1.2603-.6154,2.682-1.0303,3.7475-1.8878,2.241-1.8035,4.7091-2.0892,7.3899-1.6985.5387.2754,1.0787.5501,1.8914.9633-1.9568,2.4568-5.1053,2.2391-7.3333,3.7381-2.2041,1.483-4.5,2.8298-6.7554,4.2375-.186-1.0266-.3723-2.0544-.5603-3.0821-.0017,0,.3023-.3294.3038-.3263,1.1906-.1393,1.1128-1.1369,1.3164-1.9444Z"/>
  <path class="cls-9" d="M47.017,83.9221c.0809.999.1618,1.9981.2652,3.275h4.4279c-.8539,1.2431-1.2876,2.1036-1.9278,2.7639-1.984,2.0471-3.8096,4.0987-4.2214,7.1389-.0992.7319-1.3563,1.307-2.0808,1.9524-.0935-2.6361-.2837-5.2716-.2553-7.9047.0324-3.0066,1.1753-5.5272,3.7922-7.2256Z"/>
  <path class="cls-14" d="M107.1142,39.9094c-.0212-.8795-.0423-1.759-.0632-2.6391q3.0058.7388,3.1606,3.9788c-1.6039,1.1837-1.2873,2.9591-1.1832,4.5182.223,3.3384-.5884,6.5102-1.3621,9.6685-.3744,1.5282-1.37,2.9043-2.0826,4.3496-.9044-.0358-1.8106-.072-2.7167-.1086,2.4682-3.7801,3.6333-7.9745,3.9566-12.4347,1.0585-.6554,1.1267-1.4257.2625-2.3027.0581-1.2846.1161-2.5691.1715-3.852.0798-.1298.2552-.2874.2271-.3877-.0779-.2763-.241-.5285-.3705-.7903Z"/>
  <path class="cls-9" d="M51.8086,122.9743c.1697.3963.3392.7927.5063,1.188.2723.7205.5469,1.4422.8217,2.1639-.1639.5198-.3278,1.0396-.4917,1.5593-1.4719.0071-2.9433.0143-4.4152.0218.3416-3.6854-1.0119-6.8825-3.15-9.707-1.2047-1.5914-1.8827-3.1283-1.4613-5.0874,2.0342-.1037,3.8349.3202,4.9941,2.199.3166.8472.6345,1.6942.9523,2.5411.1036.4366.2073.8733.3089,1.309-.3693,1.7846-.1914,3.2932,1.9351,3.8124Z"/>
  <path class="cls-14" d="M96.1487,85.8489c-.6611-.8567-1.3223-1.7134-1.9833-2.5704,2.4304-.0584,3.8169-1.4037,3.7823-3.7279-.0457-3.0482.4745-5.9408,1.4681-8.7847.9262,2.8841,3.4983,5.0533,3.6043,8.2971-.6041.7549-1.3976,1.4226-1.7772,2.2747-1.0304,2.3124-2.8261,3.6521-5.0942,4.5111Z"/>
  <path class="cls-14" d="M86.6263,74.47c.4562-1.7531,1.0663-3.4828,1.3364-5.2642.5552-3.6619.0109-7.2289-1.393-10.6599,2.226-.1218,3.6551.7649,3.9288,3.1156-.0183,5.1429-.037,10.2816-.0558,15.4203l-.2197.2492c-1.6839-.3441-2.8741-1.3088-3.5967-2.8609Z"/>
  <path class="cls-11" d="M60.9776,74.53c2.1888-.5288,3.7591.247,4.7473,2.2478-.4694.8345-.9052,2.3709-1.4126,2.395-3.4373.1628-6.8995.1293-10.3294-.1437-.7514-.0599-1.4054-1.3412-2.1058-2.0606-.0015-.0007.1568-.006.1565-.0058.4753-.3631.9505-.7264,1.4259-1.0898.277-.0633.5536-.1288.832-.1958,2.2968.0045,4.7229.7763,6.6861-1.1471Z"/>
  <path class="cls-11" d="M96.1487,85.8489c2.268-.859,4.0638-2.1987,5.0942-4.5111.3795-.8521,1.1731-1.5198,1.7772-2.2747.5599,1.003,1.7185,2.1151,1.5626,2.9941-.3724,2.0978.2546,4.5275-1.5855,6.2601-.8921.4159-1.7905.8166-2.6713,1.2529-.8991.4453-1.781.9255-2.6704,1.3904-1.5094-1.4071-1.0852-3.384-1.5068-5.1118Z"/>
  <path class="cls-11" d="M111.3415,84.6008c1.3304.0364,2.6607.0728,3.9917.111-1.3044,4.5716-4.1107,8.1398-7.7971,11.7762-.4245-.8776-.711-1.4698-.9974-2.0618-.0002.0002.0567-.089.0567-.0887,1.5421-.8854,1.2348-2.3478,1.1655-3.7361.499-2.4145,1.9824-4.2417,3.5805-6.0006Z"/>
  <path class="cls-11" d="M92.9362,107.9684c-1.2688.6307-2.5388,1.2589-3.8061,1.8927-2.3031,1.1519-4.5657,1.1616-7.0462.0358,3.3604-3.3821,6.7902-5.2812,12.1505-6.8471-.4323,1.6395-.8652,3.2791-1.2982,4.9185Z"/>
  <path class="cls-14" d="M93.5805,79.6472c-1.5563-.1399-2.5121-1.1478-3.3558-2.3181-.0017.0018.218-.2474.2182-.2475,3.0238-1.3942,4.0786-2.7632,3.4324-5.3406-.4976-1.9846-1.0942-3.887-.6924-5.9474,2.3772.0955,3.5379,1.8871,4.8453,3.4769-1.2265.9482-1.2475,2.3119-1.4299,3.6958-.3296,2.502-.6287,5.0821-3.0177,6.6808Z"/>
  <path class="cls-2" d="M115.2053,58.5636c.4789,3.9439-.879,7.5758-2.0051,11.2238-.4674,1.5147-1.0981,3.0981-2.9389,3.5801-.0573-1.2229-.1146-2.4457-.1719-3.6685.3298-1.2812.6597-2.5623.9859-3.8417,1.2104-1.1934,1.6047-2.6832,1.6199-4.3379.0127-1.3917.1022-2.7828.1576-4.1741.6836.0498,1.3671.0996,2.0507.1494.0491.3707.1499.727.3018,1.0688Z"/>
  <path class="cls-3" d="M60.9994,125.1128c-2.6666-1.9062-5.272-3.8773-7.0723-6.6919q3.1097-1.1861,5.3928.8176c1.1052,2.1958,3.4225,2.532,5.3406,3.4807-.5159,1.8768-1.7528,2.6486-3.6611,2.3935Z"/>
  <path class="cls-14" d="M103.6625,44.7138c-.8769,4.2496-1.7538,8.499-2.6267,12.7446-.6124.7641-1.229,1.5323-1.8457,2.3004-.134-1.1618-.4653-2.2145-1.5732-2.839,2.1368-4.102,2.9125-8.6331,4.1211-13.0296.6414.273,1.2829.5483,1.9245.8236Z"/>
  <path class="cls-14" d="M72.9926,71.7224c-.3383,1.3056-.6765,2.6112-1.0883,4.2006-3.0369-.4387-5.6676-1.9745-8.3712-3.2422-.3823-.1792-.4192-1.0945-.6183-1.6701.6658-.3956,1.4072-1.2136,1.9901-1.1129,2.7198.4694,5.396,1.1924,8.0877,1.8246Z"/>
  <path class="cls-11" d="M93.1828,65.7937c-.4018,2.0603.1948,3.9628.6924,5.9474.6463,2.5774-.4086,3.9464-3.4324,5.3406.0186-5.1386.0373-10.2773.0556-15.4202.546.5729,1.0927,1.1501,1.6358,1.7265-.303,1.0075-.2111,1.8724.8664,2.377l.1821.0287Z"/>
  <path class="cls-3" d="M78.3397,122.7328c-.0683-.7952-.1368-1.5905-.2161-2.5115,3.0696-2.1129,6.3391-2.6546,9.8549-2.1315-.0694.3424-.1644.6755-.2859,1.0008-.3215.3986-.6425.7974-.9635,1.1959-1.5591.9245-2.6087,2.7095-4.6806,2.7704-.9673-.0376-1.9334-.0753-2.8996-.113-.2616-.1017-.5312-.172-.8091-.2111Z"/>
  <path class="cls-14" d="M70.7528,94.5167c-1.8024-1.7896-3.605-3.5791-5.7297-5.6886,1.0184-.5396,2.1365-1.6478,2.9049-1.4431,2.3662.6303,5.417.3198,6.421,3.5105-2.0678.3433-2.1551,2.6537-3.5963,3.6212Z"/>
  <path class="cls-11" d="M87.2922,81.9234c-.1231,2.0063-.328,4.0119-.3451,6.0191-.0159,1.87-.269,3.649-1.4203,5.1533-.3053.3989-1.0366.7778-1.4661.6832-.3733-.0821-.8847-.8789-.836-1.3026.205-1.788.6791-3.5447.8941-5.3321.1681-1.3974.0635-2.8253.1462-4.2357.0872-1.487,1.1537-1.9902,2.4221-2.239.2013.4173.4031.8356.6051,1.2538Z"/>
  <path class="cls-3" d="M59.9188,111.5735c-.8835-2.6481-3.1444-4.7752-2.907-7.8582.081-1.0534.2353-1.9568,1.3276-2.4677,1.2532,1.9523,2.4344,3.7924,3.6158,5.6321-.5683,1.5442-1.1367,3.0886-1.7051,4.6331l-.3313.0608Z"/>
  <path class="cls-11" d="M93.5805,79.6472c2.389-1.5988,2.6881-4.1788,3.0177-6.6808.1824-1.3839.2034-2.7476,1.4299-3.6958.4615.4964.9227.996,1.3859,1.4954-.9918,2.8438-1.512,5.7365-1.4663,8.7846.0346,2.3242-1.3518,3.6695-3.7823,3.7279-.1951-1.2103-.39-2.4208-.5849-3.6313Z"/>
  <path class="cls-11" d="M103.6625,44.7138c-.6416-.2753-1.283-.5506-1.9245-.8236-.054-3.7886-.1083-7.5795-.1626-11.3704,1.5349.2749,3.6657-.4864,3.8173,2.1933-1.2306,1.0584-1.1636,2.5019-1.238,3.941-.1048,2.0229-.3227,4.0401-.4923,6.0597Z"/>
  <path class="cls-3" d="M67.1821,65.7791c-2.0261-1.7951-5.1379-2.0792-6.5612-4.7135,2.8295.461,5.6585.923,8.4875,1.3851,1.3195,1.1038,2.9135,2.0241,2.7536,4.1187-1.5599-.2623-3.1198-.5263-4.6798-.7902Z"/>
  <path class="cls-11" d="M74.4545,103.2213c-1.1194-.2625-2.2388-.5249-3.8405-.9004,1.5519-3.0978,5.1764-4.3909,4.9578-7.8952.0003-.0002.0516-.0527.0516-.0527.3812-.0033.7615.0142,1.1407.0525.3694,2.6083.4783,5.1781-1.1085,7.4967-.3998.3941-.799.7888-1.1984,1.1836l-.0027.1154Z"/>
  <path class="cls-14" d="M112.8527,57.3453c-.0553,1.3913-.1449,2.7824-.1576,4.1741-.0153,1.6547-.4095,3.1446-1.6199,4.3379-.685.0116-1.3736.025-2.0627.0383.9706-3.7938,1.9413-7.5875,2.9141-11.3824.2519.0822.5061.1487.7654.1986.054.8782.1072,1.7559.1606,2.6335Z"/>
  <path class="cls-6" d="M60.2501,111.5127c.5684-1.5445,1.1368-3.0889,1.7051-4.6331,2.2047.7828,4.6611,1.3137,4.4833,4.4794-2.0539.4232-4.0957,1.3043-6.1883.1538Z"/>
  <path class="cls-3" d="M79.2134,51.1905c-.3809.8017-.762,1.6033-1.143,2.4049-2.1017-1.2966-4.2032-2.593-6.3037-3.8885.1362-.3887.1813-.7887.1362-1.1987.7242.1403,1.4482.2807,2.1711.4213,1.7123.7538,3.4258,1.5075,5.1394,2.261Z"/>
  <path class="cls-14" d="M97.6555,90.9607c.8894-.465,1.7713-.9451,2.6704-1.3904.8808-.4363,1.7792-.837,2.6713-1.2529-.6812,2.2174-1.3639,4.4343-2.169,7.0493-.6163-.4096-1.3753-.6624-1.7025-1.1854-.6207-.9918-.9941-2.1383-1.4702-3.2205Z"/>
  <path class="cls-10" d="M77.5601,14.5703c.6706-.6075,1.2538-1.4631,2.0409-1.7397.5707-.2007,1.5024.2268,2.1079.6251.7624.5014.796,1.3533.1314,2.0036-1.3019,1.2739-2.0867,1.0854-4.2802-.889Z"/>
  <path class="cls-14" d="M61.3346,97.5959c-.6744-1.5504-1.2585-2.893-1.7779-4.0871,1.1563-1.142,1.9276-.5228,2.4711-.0665,1.5248,1.28,1.4618,1.4957-.6932,4.1536Z"/>
  <path class="cls-14" d="M93.1352,53.524c.3189.4632.8468.8964.9182,1.3951.2298,1.605,1.2578,2.2704,2.6572,2.6228-.2655,1.4121-1.0839,2.5148-2.3597,1.3307-1.091-1.0126-1.6341-2.6561-2.2555-4.0915-.0981-.2266.6714-.8286,1.0397-1.2571Z"/>
  <path class="cls-11" d="M70.7528,94.5167c1.4412-.9675,1.5284-3.2779,3.5963-3.6212.4453.714.8905,1.4253,1.335,2.1377-.0206.4474-.0407.8936-.0608,1.3398,0,0-.0513.0525-.0516.0527-1.6465.3578-3.2928.7153-4.939,1.0712.0262-.3296.0661-.6558.1201-.9802Z"/>
  <path class="cls-14" d="M60.9776,74.53c-1.9632,1.9234-4.3894,1.1516-6.6861,1.1471.2705-1.7202,1.3771-2.4598,3.0121-2.5719,1.2204.4743,2.4472.9496,3.674,1.4248Z"/>
  <path class="cls-14" d="M104.2651,68.1695c1.145.0163,2.2899.0327,3.4343.0473-.0183.3858.021.7865-.0647,1.1584-.2781,1.2062-.8755,2.3709-2.2469,2.1804-1.609-.2235-1.1798-1.6975-1.1968-2.807-.0029-.1926.0481-.386.0741-.579Z"/>
  <path class="cls-11" d="M99.1901,59.7588c.6166-.7682,1.2333-1.5363,1.8457-2.3004.5513.7589,1.1067,1.5137,1.6618,2.2693.181,1.3525-.28,2.3966-1.7265,2.4352-1.5222.0406-1.8348-1.1173-1.781-2.4041Z"/>
  <path class="cls-11" d="M112.8527,57.3453c-.0534-.8776-.1066-1.7553-.1606-2.6335.8906-.0037,1.782-.0069,2.6749-.0107-.1526.9302-.3067,1.8609-.4621,2.7927-.6851-.0488-1.3686-.0986-2.0522-.1485Z"/>
  <path class="cls-14" d="M110.0893,69.699c.0573,1.2228.1146,2.4456.1719,3.6685,0,0,.0402-.042.0402-.0419-.434-.0815-.868-.1629-1.3019-.2443-.0721-1.2678-.1644-2.5418,1.0898-3.3823Z"/>
  <path class="cls-2" d="M108.9995,73.0813c.434.0814.868.1628,1.3019.2443-.0103.5499.0036,1.1018-.0354,1.6496-.0998,1.4-.8811,1.3184-1.8404.8208.1902-.9045.3821-1.8097.5738-2.7147Z"/>
  <path class="cls-14" d="M107.761,90.6014c.0693,1.3882.3765,2.8507-1.1655,3.7361-.1438-1.4116-.1751-2.7878,1.1655-3.7361Z"/>
  <path class="cls-4" d="M49.5646,117.853c-.3178-.8469-.6357-1.6939-.9523-2.5411.4269.4402.8527.8808,1.2805,1.3215-.1081.4065-.2182.8131-.3281,1.2196Z"/>
  <path class="cls-14" d="M93.0007,65.765c-1.0775-.5046-1.1695-1.3695-.8664-2.377.2911.7929.5787,1.5849.8664,2.377Z"/>
  <path class="cls-14" d="M74.4572,103.1059c.3993-.3948.7985-.7896,1.1984-1.1836-.3992.395-.7987.7894-1.1984,1.1836Z"/>
  <path class="cls-14" d="M75.6234,94.373c.0201-.4462.0402-.8924.0608-1.3398.3608.4633.7211.9278,1.0807,1.3923-.38-.0383-.7603-.0559-1.1415-.0525Z"/>
  <path class="cls-2" d="M95.2629,32.1269c-.1376.1587-.297.2914-.4765.3978.0017-.0005.0797-.4306.0797-.4306l.3968.0329Z"/>
  <path class="cls-14" d="M53.4595,75.8729c-.4754.3634-.9507.7267-1.4259,1.0898.4756-.3634.9507-.7266,1.4259-1.0898Z"/>
  <path class="cls-11" d="M71.903,48.5082c.0451.4101,0,.81-.1362,1.1987-3.0478.0277-6.0988.1713-9.1403.0606-5.715-.2079-11.4014.0861-16.8745,1.7199-3.4279,1.0234-6.79,1.0254-10.245.7654.983-1.2117,1.9704-2.4236,2.958-3.6351,3.4085-.5375,6.8482-.9277,10.2189-1.6431,7.7119-1.6368,15.3002-1.5072,22.7841,1.1104.1731.0606.2912.2786.435.4231Z"/>
  <path class="cls-8" d="M18.41,93.6522c-.3466.6432-.6932,1.2864-1.0401,1.9293-2.3-2.1107-1.4581-4.7168-1.1438-7.2398.8962-.8295,1.7929-1.659,2.6898-2.4885.2673,1.4355.5347,2.8708.802,4.3063-.0957.2145-.2053.4217-.3254.6198-.3255.9564-.654,1.9147-.9825,2.873Z"/>
  <path class="cls-14" d="M18.9158,85.8532c-.8968.8295-1.7935,1.6589-2.6897,2.4885-.0339-2.1121-.0683-4.2242-.1027-6.3361,1.2386-.4141,2.4769-.8285,3.7153-1.2429,0,0,.2927.2075.2906.2064-.4059,1.6273-.8097,3.2557-1.2135,4.8842Z"/>
  <path class="cls-11" d="M23.346,110.7335c.1784-.3523.2948-.7589.5468-1.0469.793-.9063.8767-3.1748,2.7595-2.1079,1.1954.6773.4237,2.1807-.166,3.1877-.4799.8195-1.2008,1.4979-1.8161,2.2387-.4423-.7573-.8832-1.5144-1.3242-2.2716Z"/>
  <path class="cls-11" d="M19.8387,80.7627c-1.2384.4144-2.4768.8288-3.7153,1.2429-.1055-2.2025.4516-4.1099,2.4036-5.4006,1.431,1.0702,1.4367,2.5934,1.3118,4.1577Z"/>
  <path class="cls-11" d="M21.0484,69.7152h3.3601c-1.249,2.6396-2.6603,3.8327-5.0871,3.5992.573-1.1993,1.15-2.3992,1.7271-3.5992Z"/>
  <path class="cls-16" d="M107.8124,105.5239c.0047-.3941.0266-.7871.0652-1.1793,2.0073-1.2898,4.0153-2.5794,6.0232-3.8692,0,0,.1219.1363.1219.1363-.5698,3.5335-2.6442,5.1654-6.2103,4.9122Z"/>
  <path class="cls-16" d="M116.5329,98.1807c-.0868,1.5848-.9082,2.4109-2.5104,2.4309.0002.0002-.1217-.1362-.121-.1353.8289-.8095,1.6571-1.6199,2.4853-2.4304,0,0,.1461.1348.1461.1348Z"/>
  <path class="cls-11" d="M60.9994,125.1128c1.9083.255,3.1452-.5167,3.6611-2.3935,4.2441-.2192,7.2107,2.0216,9.7615,5.0642-2.6548.7626-5.2321,1.9482-8.0924.5146-1.6109-.8073-3.0775.1976-4.4638,1.002-1.605-.0271-3.2117-.0526-4.8184-.0781-.0239-.4552-.0476-.9104-.0715-1.3656,2.0575.1356,3.737-.2828,4.0234-2.7436Z"/>
  <path class="cls-12" d="M57.0475,129.222c1.6066.0255,3.2134.0509,4.8184.0781-1.9599,1.6158-4.0423,1.1734-6.1468.3713.4426-.151.8855-.3002,1.3284-.4494Z"/>
  <path class="cls-11" d="M79.1489,122.9439c.9662.0377,1.9323.0754,2.8996.113-.325,1.358-1.0949,2.1986-2.5745,2.209-.1072-.7747-.2162-1.5483-.3251-2.322Z"/>
  <path class="cls-4" d="M57.0475,129.222c-.4429.1492-.8858.2984-1.3284.4494-.3256-.1287-.644-.2755-.9567-.4392.0876-.4883.1766-.9759.2658-1.4634.6496.0293,1.2991.0584,1.9482.0877.0234.4551.0472.9103.0711,1.3655Z"/>
  <path class="cls-12" d="M45.8227,127.9236c.4577.0177.9154.0354,1.3739.0543-.4576-.0173-.9157-.0358-1.3739-.0543Z"/>
  <path class="cls-9" d="M55.0282,127.7688c-.0892.4875-.1783.9751-.2658,1.4635-.7072-.4544-1.4161-.9096-2.1248-1.3648l2.3907-.0986Z"/>
  <path class="cls-11" d="M116.3868,98.0459c-.8282.8104-1.6564,1.6208-2.4853,2.4304-2.0087,1.2888-4.0166,2.5785-6.024,3.8683-.1922-.332-.6343-.8154-.5389-.9726.9487-1.5637,1.8551-3.1832,3.0215-4.5797,5.0529-6.0495,8.4821-12.8867,10.2134-20.7826.7369.6381,1.3133,1.1373,1.888,1.6371.1136,1.3978.175,2.802.3552,4.1908.3859,2.9726-.2072,5.5153-2.6423,7.5492-2.0542,1.7157-3.2308,4.0374-3.7877,6.6591Z"/>
  <path class="cls-3" d="M29.7898,118.2034c1.9612-2.3831.6897-5.5603,1.7809-8.1088,2.0938-.1819,1.8689,1.4469,2.1513,2.4455.5706,2.0183-.1113,4.925-1.5907,7.9366-.2804-.1733-.5827-.2835-.9073-.3314-.4776-.6479-.9559-1.2949-1.4342-1.9419Z"/>
  <path class="cls-11" d="M81.2504,67.617c-.9027-1.0437-1.7457-1.903-2.4569-2.86-3.237-4.3558-7.5683-6.6838-12.9053-7.5666-2.8414-.47-5.5009-.9745-8.4275-.1913-2.1285.5694-4.507.1657-6.7697.2801-3.8857.1965-7.7962-.1811-11.6375,1.0234-1.3884.4354-3.0669-.0543-5.7375-.1709,1.5254-1.1189,2.0699-1.783,2.7418-1.958,1.5813-.4118,3.2191-.6213,4.8419-.8579,8.1265-1.1848,16.273-2.3579,24.5071-1.8196,6.265.4096,11.3584,3.3115,15.2447,8.2583,1.2439,1.5835,1.213,1.6078.5989,5.8626Z"/>
  <path class="cls-4" d="M69.1084,62.4506c-2.829-.4621-5.658-.9241-8.4875-1.3851-1.7823-.0361-3.6566-.5369-5.1185,1.0211-1.1819.0467-2.3665.0923-3.5511.138-.4101-.029-.8421.0159-1.2269-.0983-6.2166-1.8458-12.0893-.1148-17.9482,1.7156-1.1317.3536-2.2149,1.2368-3.5528-.0584,1.712-2.1218,4.3143-2.1455,6.5833-2.7229,4.9957-1.271,10.0963-1.5321,15.2516-1.3347,3.8987.1494,7.8101-.0522,11.7157-.0507,2.4983.001,4.9168.2692,6.3344,2.7754Z"/>
  <path class="cls-5" d="M18.9159,85.8533c.4038-1.6285.8076-3.2569,1.2135-4.8842.9498-1.474,1.9613-2.9127,2.828-4.4339.9478-1.6633,2.3073-2.6401,4.169-2.9585-.026.6694-.0503,1.3368-.0756,2.003-1.9041,1.9492-2.1842,4.6048-3.0557,7.0124-1.4309,2.5288-2.8533,5.0523-4.2764,7.5715-.2681-1.4396-.5354-2.8749-.8028-4.3103Z"/>
  <path class="cls-11" d="M35.5282,66.3978c-3.0284,1.9075-5.371,4.1114-9.0514,2.5897,2.4274-2.7972,3.4612-3.1031,9.0514-2.5897Z"/>
  <path class="cls-11" d="M51.9513,62.2246c1.1846-.0457,2.3692-.0912,3.5511-.138.2398.9869.4822,1.9748.7231,2.9566q-2.3999.8125-5.1955-.0385c.3088-.9314.615-1.8558.9213-2.7801Z"/>
  <path class="cls-11" d="M78.0184,110.4066c.3782.0469.7863.023,1.124.1655.2226.0939.3439.4277.5105.654-.3243.0316-.7119.1877-.9573.0634-.3086-.1562-.5008-.5419-.7443-.8288-.0009-.0002.0671-.0542.0671-.0542Z"/>
  <path class="cls-11" d="M27.8872,96.8382c-.2187.4033-.4375.8066-.6565,1.2095.2185-.4034.4375-.8064.6565-1.2095Z"/>
  <path class="cls-5" d="M18.4099,93.6522c.3286-.9583.6571-1.9166.9826-2.873.1692,1.129.6849,2.3732-.9826,2.873Z"/>
  <path class="cls-11" d="M112.8699,80.6989c.2336-.3981.4671-.7963.6974-1.1936-.2345.3985-.466.7961-.6974,1.1936Z"/>
  <path class="cls-11" d="M107.0861,44.9395c.8642.8769.796,1.6473-.2625,2.3027.088-.7687.1753-1.5357.2625-2.3027Z"/>
  <path class="cls-11" d="M107.1142,39.9094c.1294.2618.2926.514.3705.7903.0281.1003-.1473.2579-.2271.3877-.0458-.3938-.0945-.7859-.1433-1.178Z"/>
  <path class="cls-11" d="M32.1109,78.3208c-.2037.8075-.1259,1.8051-1.3164,1.9445.4378-.6503.8771-1.2974,1.3164-1.9445Z"/>
  <path class="cls-4" d="M51.8086,122.9743c-2.1265-.5192-2.3043-2.0278-1.9351-3.8124,1.4244.8769,2.3025,2.029,1.9351,3.8124Z"/>
  <path class="cls-4" d="M53.1365,126.3263c-.2748-.7217-.5494-1.4434-.8217-2.1639.9599.463,1.277,1.1672.8217,2.1639Z"/>
</svg>