<?xml version="1.0" encoding="UTF-8"?>
<svg id="Layer_1" xmlns="http://www.w3.org/2000/svg" viewBox="0 0 153.4846 153.4407">
  <defs>
    <style>
      .cls-1 {
        fill: #92b63e;
      }

      .cls-2 {
        fill: #f37221;
      }

      .cls-3 {
        fill: #b0c486;
      }

      .cls-4 {
        fill: #737a73;
      }

      .cls-5 {
        fill: #d6df24;
      }

      .cls-6 {
        fill: #d1e3db;
      }

      .cls-7 {
        fill: #fff;
      }

      .cls-8 {
        fill: #2d2826;
      }

      .cls-9 {
        fill: #9daeae;
      }

      .cls-10 {
        fill: #50803b;
      }

      .cls-11 {
        fill: #97873b;
      }

      .cls-12 {
        fill: #4c6744;
      }

      .cls-13 {
        fill: #88c15f;
      }

      .cls-14 {
        fill: #765238;
      }

      .cls-15 {
        fill: #3c4b3e;
      }
    </style>
  </defs>
  <path class="cls-7" d="M20.7949,128.5941l.0692.0515c.5541.8641.9778,1.8567,1.683,2.572,6.2617,6.3526,13.6736,10.9232,21.6265,14.9758,22.6183,11.5257,52.0376,8.7712,72.2869-4.4879,3.155-2.0658,6.5349-3.8072,8.8431-6.9365,6.1008-4.0366,10.2507-9.7553,14.2128-15.7822,9.3166-14.172,13.645-29.6335,13.0367-46.5425-.0673-1.8709-.1015-3.8266.3492-5.617,1.3758-5.4659.2734-10.3199-2.8761-14.8948-1.5418-2.2395-3.054-4.5545-4.1714-7.0202-3.2967-7.2742-7.8772-13.6491-13.1248-19.5963-1.3003-2.8658-3.6798-4.5829-6.3631-5.9768-8.149-7.4148-17.1418-13.3352-28.064-15.8379C90.5342.3489,82.3584-.0588,74.1332.0061c-11.5683.0913-22.591,2.8448-32.6555,8.3802-10.7448,5.9096-20.0412,13.6143-27.2498,23.8491C4.8463,45.5551-.1711,60.0776.0045,76.373c.0076,1.6359.0154,3.2719.023,4.9078.0611.9399.1223,1.8799.1835,2.8199-.0725.1947-.2454.4201-.1973.578.1152.3771.3346.7223.5118,1.0803.2698,7.9034,2.269,15.3955,5.9994,22.3149,3.5592,6.6019,6.7642,13.4931,12.3989,18.7452.6238.5917,1.2474,1.1833,1.8712,1.775Z"/>
  <path class="cls-12" d="M98.3028,3.5013c10.9222,2.5027,19.9149,8.4231,28.0642,15.8382-2.0326.0568-4.0655.1134-6.1008.1703-.999-1.6107-2.3391-2.7174-4.2943-2.921-1.8111-1.1256-3.2379-3.1189-5.8019-2.8121-.7731,2.4716-.5486,4.6468.0674,6.8947.4266,1.557.4339,3.2289.6285,4.8495-.288.7306-1.0285,1.7001-.7895,2.1525,1.4144,2.6776.598,4.792-1.2685,6.7901-.4122.4413-.7471.9548-1.1696,1.5025.5664,2.397,1.1237,4.7556,1.661,7.0293,5.1271,1.1705,8.1966-1.6256,11.3529-4.485-.3643-1.9062-.7066-3.6976-1.0655-5.5755-3.1342.7394-4.8645-.9749-6.4321-2.8493.384-1.4771.7484-2.8783,1.1127-4.2795.5991-.319,1.1983-.638,1.7974-.957,1.3282-.9466,2.6565-1.8933,3.9847-2.8399.7613.4219,1.5227.8439,2.2839,1.2658.0284,1.5647.7063,2.7479,2.0427,3.5761,2.3742,1.4716,2.9938,3.7833,3.0044,6.3754-1.9513,1.2425-3.0554,2.9821-1.9696,5.1861.9092,1.8454,2.9467.8104,4.4755,1.0899-.2787,2.315.6528,3.9246,3.1719,4.5812-1.1284,1.3682-1.994,2.4177-3.0201,3.6619,2.6791,2.3998,5.3878,4.5474,4.9079,8.4023-.3458.7637-.6914,1.5274-1.0371,2.2911-1.476-.5543-2.9518-1.1085-4.7191-1.7722-1.403,2.2107-2.8213,4.4881-4.2842,6.7365-1.1246,1.7284-2.5328,1.875-4.1155.3857-.87-.8186-1.6117-1.7734-2.4077-2.6628-.8609.3694-1.5399.4773-1.9385.8698-.8327.82-1.5172,1.7903-2.4343,2.9079,1.3597,1.1053,2.5036,1.9597,3.559,2.9121,1.3866,1.2511,1.0007,2.1872-1.3427,3.4208-.916-.4177-2.0272-.6364-2.703-1.299-1.0583-1.0376-2.1855-1.0563-3.4527-.8919-.5444-.519-1.0888-1.0379-1.6331-1.5568-.3214-.3597-.6428-.7196-.9642-1.0794-1.1281-.7928-2.2562-1.5856-3.7289-2.6206,1.1545-1.5221,2.3719-2.9363,3.3587-4.4963.6437-1.0176.9521-2.2471,1.4108-3.3817.0049-.2291-.0285-.4525-.1003-.6702,1.9443-1.3804,3.789-2.8407,4.3054-5.3662,2.3833-.7076,2.8947-2.3862,2.7838-4.6239-2.1625-.0963-3.5037.6581-4.5543,2.019-.3807.0551-.7634.0789-1.1481.0713-.4632-.0216-.9264-.0433-1.3897-.065-1.6236-2.4512-1.7569-2.4953-4.0255-1.3328-1.3017.0995-2.719-.1335-3.5758,1.244-2.0528.4723-4.1057.9447-6.1584,1.417-1.4353-2.4351-2.0939-4.9448-.735-7.6483,1.0008,1.419,2.1828,2.6114,4.0995,2.1169,1.4554-.3755,3.3238-.3851,3.5716-3.0227-2.3196-.3829-4.5257-.747-6.7317-1.1111-.1094-.6351-.2187-1.2702-.328-1.9053,1.8875-.6221,3.7749-1.2443,5.6892-1.8752-.8142-1.8633-1.4896-3.5579-2.2921-5.19-.4801-.9764-1.5109-1.9711-2.4572-1.3427-1.7509,1.1627-.0111,1.9832.6349,2.9013.1867.2655.0693.7449.1111,1.4687-.9764.1307-1.9783.2648-2.9802.3989.0315-1.6684-.8224-2.5237-2.4509-2.6674-1.6351-2.0662-1.2962-4.5014-1.2857-6.8753,1.6711-.5402,3.7682-.5734,3.7375-3.1391.9875-.1362,1.975-.2724,3.4051-.4697-.6853-2.6041-.3495-4.8761.8876-7.0924.9163-1.6417,1.2108-3.5327-.4968-5.0674.4246-1.5275.8491-3.055,1.2736-4.5825ZM107.5808,12.0064c-1.0336-1.4541-2.0515-2.9405-3.9857-1.8944-1.3908.7522-1.9977,2.7682-1.2447,4.3792.5508,1.1786,1.6718,2.0907,2.6877,3.2988.9162-2.0839,1.6358-3.7209,2.5426-5.7836ZM103.7254,7.9993c.0143-.2893.0286-.5787.0428-.868-.8235-.1681-1.6471-.3362-2.4705-.5043l-.1257,1.6414,2.5534-.2691Z"/>
  <path class="cls-12" d="M132.7299,25.3159c5.2476,5.9473,9.828,12.3222,13.1248,19.5963,1.1174,2.4657,2.6296,4.7807,4.1714,7.0202,3.1495,4.5749,4.2519,9.4289,2.8761,14.8948-.4506,1.7904-.4165,3.7461-.3492,5.617.6083,16.909-3.7201,32.3705-13.0367,46.5425-3.9621,6.027-8.112,11.7456-14.2132,15.7822-1.019-.1263-2.0376-.2526-3.0551-.3773.4684-1.2269.9358-2.4552,1.4032-3.6836,2.0053-1.8232,4.0428-3.6127,6.0066-5.4795,1.8144-1.7249,3.6624-3.4502,4.3986-5.979.2802-.3269.5605-.6539.8407-.9808-.2388-.4681-.4776-.9363-.7164-1.4045-.1191-.4111-.2382-.8222-.3574-1.2334.3167-.0598.6349-.1098.9569-.1495,1.7429-.0038,3.0676-.7627,2.4346-2.592-.9968-2.8808-1.0475-5.5356-.0485-8.4572.5727-1.6744.1777-3.6795.2183-5.5358.3808-1.0879.7616-2.1758,1.1424-3.2637.0126-1.4552.0251-2.9104.0377-4.3656v-15.7272c-1.733-.6297-3.276-1.1904-4.8191-1.7511.1547-.9529.0009-2.1628.5331-2.8013.9047-1.0852,1.6309.5652,2.3631.5749.7402.0098,1.4925-.8892,2.2383-1.3913,1.716-.1586,2.2507.8992,2.4094,2.3434-.2351,2.4787-.9904,5.0408-.6086,7.4205,1.1852,7.3842.823,14.576-1.2524,21.7475-1.0355,3.5781-.8936,4.5891.1877,9.2954,1.1509-2.1231,1.8941-4.1081,3.1533-5.6796,2.1426-2.6741,2.4146-5.6464,2.3711-8.8599-.0824-6.0927-.0087-12.1878.0269-18.2817.0084-1.4383-.2993-2.9796.9997-4.1184.0655.7056.1304,1.4132.1952,2.1233.017,1.4651.0338,2.9278.0506,4.3905.0818,3.196.1635,6.3919.2734,10.6871,2.8324-5.4921,2.312-10.2868,2.2071-15.0247-.0083-2.689.1554-5.3925-.0695-8.0633-.2688-3.1938-2.4614-4.0646-5.2219-2.2233-.4987.3327-.8378.9048-1.2506,1.3663-1.1742-.3505-2.3483-.701-3.5225-1.0514.0483-.4166.032-.8534.1548-1.2467,1.4112-4.5185,2.144-8.9713-.8913-13.2056-.3413-.476-.4389-1.1819-.4983-1.7959-.4617-4.7754-1.086-9.5481-1.2348-14.3349-.0703-2.2589-1.351-3.3789-2.6531-4.7045.0173-1.0754-.1244-2.0738-1.2565-2.5923l-.0579-.0258c.1126-1.0071.2252-2.0142.3377-3.0213Z"/>
  <path class="cls-15" d="M98.3028,3.5013c-.4245,1.5275-.849,3.055-1.2734,4.5825-.4178.1544-.8357.3089-1.2531.4598-.0176-.5539-.0356-1.1043-.0537-1.6548-.3362-.9921-.7624-.981-1.2653-.1135h-5.2251c-.6512-1.2531-.9551-2.2727-1.6211-2.919-.2921-.2835-1.3232.1941-2.0188.3261-.8297-.0929-1.6558-1.2369-2.4899-.0084-1.383-.2024-2.7949-.2909-4.1428-.6322-2.4494-.6203-4.7904-.4915-7.079.5791-1.6758-1.4782-3.5191-1.2351-5.2201-.233-1.4645.8627-2.8568,1.7783-4.6257,1.6203-2.7908-.2492-5.3293.7871-7.9424,1.4561-1.5891.7844-1.2097,2.2747-1.2913,3.5997l-1.3225,1.3565c-1.2012-.7968-2.4024-1.5936-3.5521-2.3563-4.8409,1.6137-8.6177,4.666-12.6533,7.2832-1.8003,1.1676-3.5062,2.2814-4.0211,4.5803-.1007.4499-.76,1.0261-1.2275,1.0947-1.3032.1913-2.4543.4584-2.8133,1.3789.5832,3.5022,1.1385,6.5769,1.5909,9.6667.2184,1.4912,1.0545,2.1924,2.4489,2.4059-.1652,1.2698.5855,3.0671-2.0506,3.1822-1.1341-2.1722-2.2387-4.4057-3.4574-6.575-.661-1.1767-1.7577-1.749-3.1585-1.5178-1.4326.2365-2.5583,1.4437-2.5394,3.1105.0162,1.4283.2578,2.8895.6425,4.2685.3837,1.375,1.0695,2.6657,1.7628,4.3298-1.2009.6652-2.1936,1.6401-3.2325,1.6921-1.61.0807-1.6997-1.4855-1.876-2.7378-.0574-.4077-.0958-.9058-.3444-1.1794-.4386-.4829-1.032-.8251-1.8927-1.4782-1.0708,5.7442.9057,10.7838.4763,15.921-.2045,2.4483.3572,4.9606.5718,7.4439l-.1294.0903c-1.4169-.7115-1.9668-1.9827-2.5489-3.391-.5307-1.2839-1.468-2.4986-2.4959-3.4535-1.3086-1.2158-3.7921.2858-4.0338,2.3267.3401.2282.6955.4369,1.0174.6883.4516.3526.8782.737,1.7107,1.4429-1.0455.4559-1.7255.805-2.4402,1.0552-3.4487,1.2073-3.5992,1.4075-3.8334,4.7335-.2229,3.1652.1168,6.2369,1.3522,9.1822-1.7404-.1695-3.355.1319-4.7469,1.2674-.1759-16.298,4.8416-30.8205,14.2231-44.1403,7.2086-10.2347,16.505-17.9395,27.2498-23.8491C51.5421,2.8509,62.5648.0974,74.1332.0061c8.2252-.0649,16.401.3428,24.1696,3.4952Z"/>
  <path class="cls-4" d="M122.247,134.3902c1.0185.1262,2.0371.2525,3.0561.3788-2.3077,3.1293-5.6877,4.8708-8.8426,6.9365-20.2494,13.2591-49.6686,16.0136-72.2869,4.4879-7.9529-4.0526-15.3648-8.6233-21.6265-14.9758-.7051-.7153-1.1288-1.7079-1.6828-2.5723,1.3586-.1681,2.7171-.3359,4.0755-.5033.049,1.4949.5477,2.7467,1.863,3.5959,1.518.9799,3.0177,1.9881,4.5254,2.984,1.5547,2.5641,5.1743,2.5102,6.6593,5.2681.2724.5057,1.4898.6923,2.2728.6969,2.0575.012,4.1159-.1576,6.174-.2548.3315.1616.6813.2316,1.0493.2101.168.683-.0232,1.6085,1.504,1.659v-3.36c-.0062-.6422-.0123-1.2844-.0184-1.9266l-.0119.0042c1.2719-.0363,2.5438-.0727,3.8157-.1091-.0366,2.4847-2.2154,4.5981-1.2977,7.2034.1677.2184.2628.4383.43.5419.5314.3293,1.0577.7118,1.6419.9039,13.0769,4.3005,26.3492,4.9622,39.7261,1.7366,8.2286-1.9841,15.9019-5.3841,22.9507-10.1213.8222-.9314,1.6444-1.8628,2.4665-2.7942,1.1855.0035,2.3711.0069,3.5566.0103Z"/>
  <path class="cls-15" d="M24.9398,128.1415c-1.3585.1678-2.7169.3356-4.0756.5037-.0002.0004-.0693-.0512-.0688-.0516.0352-1.2868-.7633-1.6941-1.8717-1.7745-5.6346-5.252-8.8397-12.1433-12.3989-18.7452-3.7303-6.9194-5.7296-14.4116-5.9981-22.314.0651-.1944.2218-.417.174-.5794-.1107-.3755-.3203-.7218-.4899-1.0799-.0612-.9399-.1223-1.8799-.1831-2.8186.5251-.8907,1.05-1.7827,1.4946-2.5383.9645,1.4306,1.828,2.7114,2.6915,3.9923.0393,1.2464.0785,2.4928.1178,3.7392-.1209.1193-.3573.2578-.3412.3543.0493.2965.1953.5769.3037.8635.8658,6.0095,2.9635,11.6848,4.9166,17.3787.6318,1.8416,1.4222,3.9058,3.2568,5.0551,4.5436-3.3899,4.704-3.4719,4.7479-6.2441.096-6.0589.1129-12.1197.0813-18.1793-.0049-.9355-.4383-1.8689-.7746-3.2045-3.3225,1.1361-6.354,2.4667-9.1332-.06-.0439-.7652-.0879-1.5303-.1317-2.2954,1.4048.3492,2.8095.6983,4.3117,1.0716,1.4966-1.1387,2.9756-2.264,4.1305-3.1427,1.1835-3.1167-1.0039-4.6588-2.038-6.6301-.8626-1.6442-1.9558-2.4366-4.0011-2.2607-1.5683.1349-2.3023-.9865-2.1946-2.3338.1014-1.2696,1.1603-2.1304,2.749-1.7977,1.7437.3652,3.4096,1.1016,5.486,1.8035.1129-1.5159.2177-2.9228.3225-4.3298,0,0,.1294-.0903.129-.0902,2.5886,2.8464,2.4844,6.5643,3.0858,9.9986,1.198,6.8418,1.23,13.7427-.0304,20.5819-.6185,3.3561-.9687,6.6689.1833,9.9065.8732,2.4542.5386,4.4511-1.1889,6.3752-.8291.9236-1.313,2.1496-2.0975,3.1225-1.4347,1.7794-1.2814,3.4186.1364,5.0932.8031.9486,1.548,1.9465,2.451,3.0888,1.6799,0,3.3506,0,5.0213,0-.8095,1.3007-1.619,2.6014-2.5228,4.0535q3.2122.4789,4.7306-3.3814c-.7574-.2245-1.4915-.4422-2.2257-.6599,2.0754-2.4923,2.068-2.5142,6.4195-2.5566-1.3645,2.6496-2.6408,5.1277-3.917,7.6059-1.1009.505-1.4211,1.4027-1.2753,2.5347l.0172-.0552Z"/>
  <path class="cls-15" d="M132.7299,25.3159c-.1125,1.0071-.2251,2.0142-.3373,3.0212-1.4756.0702-2.6704-.2365-3.8731-1.3649-1.7492-1.6411-3.4757-3.565-6.1863-3.6973-.7613-.422-1.5227-.8439-2.2851-1.2658.0727-.8333.1466-1.6665.2204-2.4997,2.033-.0566,4.0658-.1131,6.0985-.17,2.6831,1.3935,5.0626,3.1107,6.3629,5.9765Z"/>
  <path class="cls-10" d="M4.2139,82.736c-.8635-1.2809-1.727-2.5617-2.6915-3.9923-.4446.7556-.9695,1.6476-1.4946,2.5383-.0079-1.6372-.0157-3.2731-.0232-4.9077,1.392-1.1342,3.0066-1.4356,4.7469-1.2662-.0002,0-.0262-.0296-.0262-.0296.2102,2.0182.9158,3.7882,2.5523,5.0918l-.0204-.0269c.0439.7652.0879,1.5303.1312,2.297-1.0585.0995-2.1165.1975-3.1745.2955Z"/>
  <path class="cls-4" d="M18.9237,126.8191c1.1084.0804,1.9068.4878,1.8717,1.7745-.6242-.5912-1.2479-1.1829-1.8717-1.7745Z"/>
  <path class="cls-10" d="M.2109,84.1006c.1696.3581.3792.7044.4899,1.0799.0479.1624-.1088.385-.174.5794-.1786-.359-.398-.7042-.5132-1.0813-.0482-.1579.1248-.3833.1973-.578Z"/>
  <path class="cls-10" d="M71.881,4.1198c2.2881-1.0696,4.6291-1.1984,7.0785-.5781,1.3478.3413,2.7597.4298,4.1429.6333.0253.4866.0506.9721.0758,1.4576-4.8977,2.6833-2.1135,6.712-2.2295,10.4007,1.459-.1554,2.4901-.2653,3.5211-.3752,1.0388,3.1216,2.8905,5.7448,5.026,8.194-.0105,2.3738-.3494,4.8091,1.2853,6.8762-.4496.8768-.8987,1.7526-1.3478,2.6284-1.2416.4438-2.4831.8876-3.7247,1.3314-.4391.8209-.8783,1.6417-1.3174,2.4627l-.0121.0055c-3.5024-.0993-1.837-2.9254-2.2667-4.5404-.5311-.1108-1.0246-.3858-1.286-.2413-2.1574,1.1931-2.0218,3.3004-2.247,4.9487,1.2406,1.0689,2.6832,1.7011,2.9653,2.671.8051,2.7666,1.1381,5.6706,1.6567,8.5205-.0111.4383-.2051,1.1165-.0008,1.2721.7584.578,1.6481.9838,2.4884,1.4525-.0925,1.0919-.1851,2.1856-.2776,3.2794-3.956,6.4109-6.6112,13.4425-9.1273,20.4617-1.9569,5.4594-3.3118,11.1402-5.7821,16.4321-1.2714.0081-2.543.0149-3.8148.0226.3379-1.3872.5291-2.8325,1.0431-4.1521,1.2706-3.2621,2.6893-6.4666,4.0484-9.6943.1456-.1222.4273-.2656.4121-.3628-.0512-.3298-.2074-.6434-.3235-.9631.0392-.7433.0783-1.4866.1175-2.2299.2809-.5004.5618-1.0007.8426-1.5011-.3942-1.1284-1.3283-1.1257-2.2797-1.0881-.1585-.5472-.3167-1.0938-.4748-1.6405,1.763-1.1459,3.5108-2.301,2.9298-4.8593.7367.1851,1.473.37,2.312.5805.8639-2.1707,1.7197-4.0392,2.3482-5.9811.6002-1.8547,2.6014-3.1242,2.5734-5.3446-1.9259,0-3.5253-.2148-5.021.0858-.8127.1633-1.4491,1.2031-2.1651,1.8475-2.6444.7311-5.3015,1.4854-7.6195-.7815-.2187-.214-.175-.6963-.2518-1.0554.3732-.0944.7483-.1767,1.1164-.2833.4476-.1297.8892-.2799,2.0591-.652-3.9508-2.005-6.6719-.5972-9.97,1.0894,1.7065.7185,3.0077,1.3042,4.3376,1.8151,1.2079.464,1.367,1.4557,1.4209,2.5348-.4168.7367-.8337,1.4734-1.2506,2.2101,0,0-.1682.2139-.1682.2139-.3414.3508-.6828.7016-1.0242,1.0524l-.2325.1885c-1.6653-.6097-3.3292-1.2231-4.9962-1.8282-1.6326-.5926-1.8743-.2747-1.7739,2.3193-.6212,1.287-1.2423,2.574-1.9063,3.9495.9878,1.4626,1.9074,2.8241,2.8269,4.1856-.1905.1448-.3732.2989-.5472.4604-.3601.7868-.7209,1.5756-1.0817,2.3644-2.103-1.7407-4.3214-3.1314-7.2435-2.3894.0465-.7983.0932-1.5966.1245-2.1341-1.7496-.74-3.9253-.9546-4.6093-2.0774-2.3679-3.8871-4.0949-8.1398-4.2912-12.8039-.0185-.4405,1.0173-1.3481,1.0779-1.3079,2.258,1.5001,3.9346-1.3035,6.014-.452,1.2365-2.892,2.2275-5.6374,5.4342-6.5372.4401-.1235.6705-.9938.9981-1.5185.7871-4.5401.7902-4.515,4.806-4.9918,1.4391-.1708,2.8512-.5895,4.2916-.722,1.3731-.1264,2.7668-.0272,4.3076-.0272-.1022-.7549-.0671-1.3845-.2808-1.9135-.7585-1.8775-2.2177-3.6608-.2031-5.6934.2778-.2804-.0972-1.1738-.1124-1.7848-.0519-2.0905-.0783-4.1815-.1144-6.2726,1.2544.603,2.5257,1.1742,3.7593,1.8175,1.501.7828,2.6992.0532,3.8182-.783.1593-.1191-.1847-.9114-.2957-1.3922.2082-.8314.721-1.9348,1.5411-1.3231,2.0442,1.525,4.0142,2.0457,6.4391,1.0433.6769-.2799,1.6197.1412,2.4316.0924.2348-.0142.4385-.5444.7885-1.0157-1.489-1.0478-2.9787-2.0961-4.2985-3.0248-.5755-3.1973-1.0919-6.0665-1.6083-8.9357.0411-1.6832.5174-3.5605-1.8583-4.166-1.0377.0044-2.0754.0088-3.1131.0132l-.0945-.1142c-.0093-.3464-.0424-.6904-.0994-1.0322l.2837-.3492ZM72.0895,44.332c.9031,3.0476,1.7644,5.6952,5.1009,6.3541,4.1576-3.7286,4.3373-4.6153,1.7479-9.1173-1.0282.5655-2.0227,1.233-3.1087,1.676-1.1043.4505-2.299.68-3.7401,1.0871ZM72.3546,40.3266c2.3265.3593,3.3628-1.2775,4.2046-2.899.3025-.583.0646-1.687-.3177-2.3157-.3657-.6016-1.2368-1.2258-1.8899-1.2302-.6496-.0044-1.6321.6055-1.8943,1.1994-.7362,1.6672-1.4095,3.4641-.1027,5.2455ZM75.1534,25.8679q-.7167,2.5792-.0732,4.9942c.6917-.7848,1.4878-1.4583,1.9663-2.3101.331-.5891.548-1.6895.2281-2.0814-.3829-.4688-1.3924-.426-2.1211-.6026Z"/>
  <path class="cls-10" d="M122.3332,23.275c2.7106.1323,4.4371,2.0562,6.1863,3.6973,1.2027,1.1284,2.3975,1.4351,3.8731,1.3649-.0005.0002.0574.0259.0574.0259.4188.8641.8377,1.7282,1.2565,2.5923,1.3021,1.3256,2.5828,2.4456,2.6531,4.7045.1488,4.7868.7731,9.5595,1.2348,14.3349.0594.614.157,1.3199.4983,1.7959,3.0353,4.2342,2.3025,8.687.8913,13.2056-.1229.3933-.1065.8301-.1554,1.2465-.4331.0014-.8658.003-1.2984.0046-.421-.427-.8419-.854-1.2627-1.281-.1845-.0902-.369-.1804-.5535-.2706.172.1029.3438.2058.5159.3084.4268.4207.8534.8416,1.2802,1.2626-.0452,1.4782-.211,2.9986,1.3712,3.9056-.7469.501-1.4992,1.4-2.2394,1.3902-.7323-.0097-1.4584-1.66-2.3631-.5749-.5321.6384-.3784,1.8484-.5334,2.8015-1.6327.038-3.2651.0758-4.8976.1136-.0999-.4018-.145-.8096-.1354-1.2235.1902-.3652.3554-.7463.5753-1.0927.7524-1.1851.8483-2.2692-.3571-3.249-1.27-1.0323-2.2717-.3952-3.2569.4626-1.5812.1333-3.3828-.5531-4.5239,1.2165.0241,3.2453.0482,6.4906.0722,9.7359-1.77-.3543-3.62-.5017-5.2795-1.1425-.9555-.369-1.6028-1.5359-2.0692-2.0151.9308-2.1199,1.6417-3.7391,2.3525-5.3582,2.3434-1.2336,2.7293-2.1697,1.3427-3.4208-1.0554-.9524-2.1993-1.8068-3.559-2.9121.917-1.1176,1.6016-2.0879,2.4343-2.9079.3986-.3925,1.0776-.5004,1.9385-.8698.796.8894,1.5378,1.8442,2.4077,2.6628,1.5827,1.4893,2.991,1.3427,4.1155-.3857,1.4629-2.2483,2.8811-4.5258,4.2842-6.7365,1.7672.6637,3.2431,1.2179,4.7172,1.7733-.0019.0011-.12.1338-.12.1338.2723.7455.6356.9248,1.1466.1841.5473.2434,1.1038.699,1.6398.6762.6611-.0282,1.7346-.329,1.8544-.7387.1727-.5906-.1506-1.7478-.6249-2.0118-.803-.4468-1.8896-.3842-2.8569-.5358.4799-3.8549-2.2288-6.0025-4.9079-8.4023,1.0262-1.2442,1.8917-2.2937,3.0201-3.6619-2.5191-.6566-3.4506-2.2662-3.1716-4.5794q1.2504-3.0471-.6784-4.7027c-.6102-.5239-1.2186-1.05-1.8278-1.5752-.0106-2.5921-.6302-4.9038-3.0044-6.3754-1.3363-.8283-2.0143-2.0115-2.0427-3.5761Z"/>
  <path class="cls-1" d="M116.2257,71.2369c-.7109,1.6191-1.4218,3.2382-2.3525,5.3582.4663.4792,1.1136,1.6461,2.0692,2.0151,1.6595.6408,3.5095.7882,5.2784,1.1465-.0011.0041.1847.3633.1847.3633.2142.4686.4285.9372.6427,1.4058.0218,1.9908.0435,3.9816.0654,5.9724-1.8355,2.9194-.9139,6.0774-.7935,9.166-.0084.7859-.0168,1.5718-.0253,2.3577-.5176,3.8133-1.0352,7.6265-1.5522,11.4397-2.3681-.6304-4.7367-1.2607-6.6731-1.776-1.2389-2.0868-2.2849-3.8486-3.3312-5.6123-.1953-1.3543-.3904-2.7068-.5855-4.0592.7147-3.0004,1.2268-6.068,2.1963-8.9838,1.1666-3.5089.1902-6.4236-1.7019-9.2868-.4364-.6604-.6809-1.4476-1.0138-2.1765,1.5659-1.4451.9079-3.2247.7421-4.9304.2316-1.5302.4632-3.0605.6948-4.5908,1.2672-.1644,2.3945-.1456,3.4527.8919.6759.6626,1.787.8813,2.703,1.2991Z"/>
  <path class="cls-15" d="M85.6888,51.2414c-.8403-.4705-1.73-.8764-2.4884-1.4543-.2043-.1556-.0103-.8338,0-1.2714,2.421-1.8734,2.6892-4.4811,2.3025-7.2118-.1993-1.4073-.7385-2.7665-1.1241-4.1474,0,0,.0121-.0055.0122-.0053.4392-.8208.8783-1.6418,1.3174-2.4629,1.2416-.4438,2.4831-.8875,3.7249-1.331.0564.3894.0813.7804.0746,1.1735.7479,1.685,2.2524,1.3257,3.619,1.3387.4665.3881.9331.7762,1.3996,1.1643.1093.6351.2186,1.2702.327,1.9043-.3134.6719-.6258,1.3449-.9383,2.0179-1.3589,2.7035-.7002,5.2133.734,7.6486,1.4668,2.7741,1.5627,2.8066,4.8992,1.6595,1.6643,2.3628,3.3285,4.7257,4.9928,7.0885-1.7419,1.0234-2.7529,2.3184-2.5282,4.5673.2262,2.2634.0122,4.5708-.0083,6.8587-1.2463,1.3292.2305,1.9968.7071,2.9074,0,0-.2109.0085-.2109.0084-1.0913.363-2.1825.7259-3.2738,1.0889-2.4635-.2745-5.1277-.137-6.2969-3.0674,1.4569.1301,2.9161.3718,4.3695.341.6781-.0143,1.3449-.5563,2.3742-1.0202-3.1798-4.4221-5.3911-8.8133-7.3737-13.368-1.1173-2.5669-2.8865-5.2433-6.6116-4.4273Z"/>
  <path class="cls-1" d="M114.2671,25.806c-.3643,1.4012-.7286,2.8024-1.1127,4.2795,1.5676,1.8745,3.2979,3.5887,6.4321,2.8493.3589,1.8779.7012,3.6693,1.0655,5.5755-3.1563,2.8594-6.2257,5.6556-11.3529,4.485-.5372-2.2737-1.0945-4.6323-1.661-7.0293.4226-.5478.7574-1.0612,1.1696-1.5025,1.8665-1.9981,2.6829-4.1125,1.2685-6.7901-.2389-.4523.5016-1.4219.7902-2.1508,1.134.0955,2.2672.1895,3.4005.2834Z"/>
  <path class="cls-10" d="M104.5413,57.3526c-1.6643-2.3628-3.3285-4.7257-4.9927-7.0913.4201-1.0265.8402-2.0503,1.2602-3.074.8568-1.3776,2.2741-1.1446,3.5774-1.2435.0736.7762.0401,1.5804.2408,2.3213.3472,1.2819,1.0874,1.4905,2.1441.6402.5969-.4803,1.0959-1.0822,1.639-1.6292.4632.0216.9264.0433,1.3887.0645-1.9024,2.3808-1.34,5.1939-1.3858,7.9003.0719.2176.1053.441.0997.6722-1.3242.4812-2.6478.9604-3.9714,1.4396Z"/>
  <path class="cls-10" d="M114.2671,25.806c-1.1333-.0939-2.2665-.1879-3.4005-.2834-.1953-1.6222-.2026-3.2941-.6292-4.8512-.616-2.2478-.8405-4.4231-.0674-6.8947,2.5639-.3069,3.9907,1.6864,5.8021,2.8155.4018,1.3721.8906,2.6305-.3627,3.9818-1.3204,1.4235-1.1488,3.0027.455,4.2749-.5991.319-1.1983.638-1.7974.957Z"/>
  <path class="cls-1" d="M95.7758,8.5471c.4178-.1544.8358-.3089,1.2535-.4633,1.7074,1.5346,1.413,3.4256.4966,5.0673-1.2371,2.2164-1.5729,4.4883-.8876,7.0924-1.4301.1973-2.4176.3335-3.4051.4697,0,0,.0376.0522.0377.0522.0095-2.9499.019-5.8998.0286-8.8496.8254-1.1229,1.6508-2.2458,2.4763-3.3687Z"/>
  <path class="cls-1" d="M104.5413,57.3526c1.3235-.4792,2.6471-.9584,3.9714-1.4396-.4581,1.1326-.7665,2.3621-1.4102,3.3797-.9868,1.56-2.2042,2.9742-3.3587,4.4963,1.4727,1.035,2.6008,1.8278,3.7261,2.6186-.4209.3712-.8389.7444-1.2589,1.1175-1.4036.4178-2.8052.8358-4.2067,1.2536.0211-2.2881.2351-4.5954.0089-6.8589-.2247-2.2489.7863-3.5439,2.5282-4.5673Z"/>
  <path class="cls-1" d="M89.4957,23.8523c-2.1355-2.4492-3.9872-5.0724-5.0266-8.1938.3921-.0106.7817-.0522,1.1679-.1244,1.6879.4965,3.3758.993,5.0637,1.4896.8567,1.2473,1.7134,2.4945,2.5701,3.7418,0,0-.0377-.0523-.0376-.0523.0307,2.5657-2.0664,2.5989-3.7375,3.1391Z"/>
  <path class="cls-10" d="M107.5808,12.0064c-.9068,2.0626-1.6265,3.6996-2.5426,5.7836-1.0159-1.2081-2.1369-2.1202-2.6877-3.2988-.753-1.6111-.1461-3.627,1.2447-4.3792,1.9342-1.046,2.9521.4403,3.9857,1.8944Z"/>
  <path class="cls-1" d="M94.5266,37.0338c-.4665-.3881-.9331-.7762-1.3988-1.1636.0505-.844.1002-1.6887.15-2.5333l-.0455.0581c1.0019-.1342,2.0038-.2683,2.9802-.399-.0418-.7238.0756-1.2033-.1111-1.4687-.646-.9181-2.3857-1.7387-.6349-2.9013.9463-.6284,1.9771.3663,2.4572,1.3427.8025,1.6321,1.478,3.3267,2.2921,5.19-1.9143.631-3.8017,1.2531-5.6892,1.8752Z"/>
  <path class="cls-1" d="M127.3803,33.2265c.6092.5251,1.2176,1.0512,1.8278,1.5752q1.9285,1.6559.6784,4.7027c-1.5291-.2814-3.5666.7537-4.4758-1.0918-1.0858-2.2039.0183-3.9436,1.9696-5.1861Z"/>
  <path class="cls-5" d="M93.9153,40.956c.3125-.6729.6249-1.3459.9383-2.0178,2.2071.3651,4.4131.7292,6.7327,1.1121-.2478,2.6376-2.1162,2.6472-3.5716,3.0227-1.9166.4945-3.0986-.6979-4.0995-2.1169Z"/>
  <path class="cls-1" d="M116.0645,24.849c-1.6038-1.2722-1.7754-2.8515-.455-4.2749,1.2533-1.3514.7645-2.6098.3627-3.9818,1.9549.2001,3.2951,1.3069,4.294,2.9175-.0715.8328-.1454,1.6661-.2181,2.4993-1.3271.9467-2.6553,1.8933-3.9836,2.8399Z"/>
  <path class="cls-1" d="M108.413,55.2408c.0458-2.7065-.5166-5.5195,1.3858-7.9003.3857.0081.7684-.0157,1.1492-.0707.5903.8683,1.1803,1.7365,1.7704,2.6048-.5164,2.5255-2.3611,3.9859-4.3054,5.3662Z"/>
  <path class="cls-10" d="M112.7184,49.8746c-.5901-.8682-1.1801-1.7365-1.7704-2.6048,1.0506-1.3611,2.3918-2.1155,4.5542-2.0192.1108,2.2377-.4005,3.9163-2.7838,4.6239Z"/>
  <path class="cls-1" d="M134.9458,56.1479c.9674.1516,2.0539.089,2.8569.5358.4743.264.7976,1.4212.6249,2.0118-.1199.4097-1.1933.7105-1.8544.7387-.536.0228-1.0925-.4328-1.6394-.6765-.3535-.2404-.7359-.3015-1.1469-.1837,0,0,.1181-.1327.12-.1338.3475-.7648.6932-1.5285,1.039-2.2922Z"/>
  <path class="cls-1" d="M108.4101,47.2761c-.5431.5471-1.0421,1.1489-1.639,1.6292-1.0567.8503-1.7969.6418-2.1441-.6402-.2007-.7408-.1672-1.545-.2408-2.3213,2.267-1.1631,2.4003-1.119,4.0239,1.3322Z"/>
  <path class="cls-1" d="M100.8088,47.1873c-.42,1.0238-.8401,2.0475-1.2602,3.074-3.3366,1.1499-3.4325,1.1174-4.8993-1.6567,2.0538-.4726,4.1067-.945,6.1594-1.4173Z"/>
  <path class="cls-1" d="M89.5079,34.5308c.0066-.3931-.0182-.7841-.0746-1.1735.4489-.8761.898-1.752,1.3477-2.6288,1.6289.1428,2.4828.998,2.4513,2.6664,0,0,.0455-.058.0455-.0579-1.2566.398-2.5132.7959-3.7699,1.1938Z"/>
  <path class="cls-15" d="M110.07,69.0459c-.2315,1.5303-.4631,3.0605-.6928,4.5927-.6693-.768-1.3406-1.538-2.0119-2.308,0,0-.1853-.1472-.1852-.1469.067-.4133.0621-.8259-.0148-1.2376l1.2183-2.4039.0532-.0532c.5444.519,1.0888,1.0379,1.6332,1.5569Z"/>
  <path class="cls-15" d="M103.7254,7.9993c-.8511.0897-1.7022.1794-2.5533.2691.0418-.5471.0837-1.0943.1256-1.6414.8234.1681,1.647.3362,2.4705.5043-.0143.2893-.0286.5787-.0428.868Z"/>
  <path class="cls-15" d="M106.213,67.5252c.418-.3732.836-.7464,1.2568-1.1175.3242.3618.6457.7217.967,1.0814,0,0-.0533.0532-.053.0531-.7235-.0057-1.4472-.0113-2.1709-.0169Z"/>
  <path class="cls-1" d="M128.8476,73.9028c1.6325-.0378,3.2649-.0756,4.8976-.1136,1.5434.5604,3.0864,1.1211,4.8194,1.7508,0,5.377,0,10.5521.0012,15.7292-1.4374,1.4428-1.4311,2.8969-.0388,4.3637-.3808,1.0879-.7616,2.1758-1.1414,3.266-1.3937.0022-2.7885.0022-3.929.0022-2.0883-2.5274-2.5146-5.9053-5.8864-6.5801-.0203-4.3633-.0044-8.7272-.0776-13.0897-.0323-1.9227.2344-3.7218,1.3551-5.3285Z"/>
  <path class="cls-14" d="M128.8476,73.9028c-1.1207,1.6067-1.3874,3.4058-1.3551,5.3285.0732,4.3624.0573,8.7264.0776,13.0934.0265,6.0885.0529,12.1732.0794,18.258.3431,3.6476.3807,3.6597,3.4694,3.028,1.2154-.2485,2.4594-.3567,3.6904-.5287-.0106.7997-.0211,1.5993-.0315,2.399-.3197.0403-.6379.0903-.9562.1494-2.2127.0419-4.4298.0061-6.6315.1728-.7037.0532-1.3668.6431-2.0515.9872-.8422.0444-1.6813.0916-2.5206.1331-1.6921.0837-2.8026-.6532-3.2544-2.3144.126-1.3824.2521-2.7649.3783-4.1474.5176-3.8133,1.0352-7.6265,1.5518-11.4392.7711,1.2776,1.5433,2.5547,2.3153,3.8318.0637,3.1015.0654,6.2067.2494,9.3011.0324.5447.8278,1.0441,1.4998,1.8332,1.2041-5.6327,1.1601-10.0513-.0008-14.6918-.5361.7954-1.1033,1.6371-1.6704,2.4788-.0285-7.4608-.0736-14.9217-.078-22.3825-.002-3.3501-.381-6.5805-2.4593-9.3764,1.141-1.7696,2.9427-1.0832,4.5281-1.2164.3833,1.7859.559,3.7303,3.0344,3.879-.0096.4139.0356.8217.1354,1.2235Z"/>
  <path class="cls-14" d="M146.1663,74.0406c-1.2981,1.1366-.9904,2.6779-.9988,4.1162-.0357,6.0939-.1094,12.189-.0269,18.2817.0435,3.2135-.2285,6.1858-2.3711,8.8599-1.2592,1.5716-2.0024,3.5565-3.1533,5.6796-1.0813-4.7063-1.2232-5.7173-.1877-9.2954,2.0753-7.1716,2.4376-14.3634,1.2524-21.7475-.3819-2.3797.3735-4.9418.6089-7.4199,1.6439.0672,3.2875.1339,4.9311.2006-.0182.4416-.0364.8832-.0545,1.3248Z"/>
  <path class="cls-1" d="M125.1417,116.7906c.6816-.3443,1.3447-.9342,2.0484-.9874,2.2017-.1667,4.4188-.1308,6.6315-.1728.1208.4118.2399.823.3555,1.232-.0265.4402-.0494.8824-.0722,1.3246-.0948.3506-.1109.7049-.0485,1.0627-.7362,2.5288-2.5842,4.2541-4.3986,5.979-1.9637,1.8668-4.0012,3.6563-6.0073,5.4798-1.5034-.1349-2.8221-.6581-3.4114-2.1438-.8914-2.2469-1.6629-4.5414-2.4873-6.8162,1.5178.1127,2.924-.0847,4.0546-1.2711.5781-.6066,1.1963-1.2088,1.8966-1.6561.7999-.5108,1.7113-.8471,2.6865-1.313-.5463-.3143-.897-.516-1.2477-.7178Z"/>
  <path class="cls-10" d="M127.6497,110.5826c-.0265-6.0848-.053-12.1695-.0795-18.258,3.3718.6711,3.7981,4.049,5.8864,6.5764,1.1405,0,2.5353,0,3.929-.0022-.0416,1.854.3533,3.8591-.2193,5.5335-.999,2.9216-.9482,5.5764.0485,8.4572.633,1.8293-.6917,2.5882-2.4346,2.592.0081-.8003.0186-1.6.031-2.4002-.3191-1.1521-.4391-2.4149-1.0032-3.4318-1.1657-2.1018-2.9072-2.2006-4.9673-.44-.4555.3893-.7971.9119-1.1911,1.373Z"/>
  <path class="cls-10" d="M117.7537,121.7491c.8224,2.2743,1.5939,4.5687,2.4853,6.8156.5893,1.4856,1.9081,2.0089,3.4114,2.1438-.4667,1.2281-.9341,2.4564-1.4025,3.6833-1.1865-.0049-2.3721-.0084-3.5578-.011-.309-.816-.6178-1.633-.9267-2.4498-.445-1.3953-.8901-2.7906-1.3352-4.1859-.9118-1.7201-1.8236-3.4403-2.7361-5.1573-.0924-1.1516-.1841-2.3063-.2758-3.4611.0353-1.9633-.4922-3.6193-2.184-4.8669-.5473-.4036-1.1886-1.5061-.9978-1.9494,1.2215-2.8384-.9853-5.2068-.8803-7.8517.128-.4611.2561-.9223.384-1.3834,1.046,1.7618,2.092,3.5235,3.3309,5.6103,1.9365.5153,4.3051,1.1456,6.6731,1.776-.1267,1.3825-.2528,2.765-.3755,4.1482-.641-.212-1.2853-.4249-1.9296-.6378-.6039-.9713-1.1623-1.9767-1.8453-2.8888-.1618-.216-.9745-.2869-1.0857-.1333-.3063.4227-.6375,1.0614-.5237,1.5022.1934.7488.7205,1.4115,1.1073,2.1104-.3713,2.8621,1.2242,4.9955,2.6637,7.1866Z"/>
  <path class="cls-11" d="M146.2208,72.7158c-1.6436-.0666-3.2872-.1333-4.9311-.2006-.159-1.4448-.6937-2.5026-2.4097-2.344-1.5812-.9059-1.4154-2.4264-1.3701-3.9046,0-.0001.0202-.0193.0202-.0193.4326-.0016.8652-.0032,1.2984-.0046,1.1748.3506,2.3489.7011,3.5246,1.0526.848,1.5887,2.5098,1.2537,3.8614,1.6948.8824.288,1.2166,1.09.8295,2.0215-.2416.5817-.5466,1.1371-.8232,1.7042Z"/>
  <path class="cls-1" d="M146.2208,72.7158c.2766-.5672.5815-1.1225.8232-1.7042.387-.9315.0529-1.7335-.8295-2.0215-1.3515-.4411-3.0134-.1061-3.8614-1.6948.4114-.4625.7504-1.0347,1.2491-1.3673,2.7605-1.8413,4.9531-.9705,5.2219,2.2233.2249,2.6708.0612,5.3743.0695,8.0648-.5233.0647-1.0468.1279-1.5701.1911-.3288-.05-.6491-.1326-.9611-.2478-.0648-.7077-.1296-1.4153-.1952-2.1209.0173-.4395.0354-.8811.0536-1.3227Z"/>
  <path class="cls-3" d="M147.3234,76.4072c.5233-.0632,1.0468-.1264,1.5701-.1911.105,4.7365.6254,9.5311-2.2071,15.0232-.1099-4.2951-.1916-7.4911-.2734-10.6913.3035-1.3831.6069-2.7619.9103-4.1408Z"/>
  <path class="cls-10" d="M138.527,95.6329c-1.3923-1.4668-1.3986-2.9209.0388-4.3637-.0137,1.4532-.0262,2.9085-.0388,4.3637Z"/>
  <path class="cls-14" d="M147.3234,76.4072c-.3035,1.3788-.6069,2.7577-.9103,4.1408-.0169-1.4584-.0337-2.9212-.0507-4.3863.3119.1129.6322.1955.961.2455Z"/>
  <path class="cls-15" d="M133.7066,30.9553c-.4188-.8641-.8378-1.7282-1.2565-2.5923,1.1321.5185,1.2738,1.5169,1.2565,2.5923Z"/>
  <path class="cls-14" d="M134.0563,119.2496c-.0624-.3578-.0462-.712.045-1.0642.2659-.0007.5322.0277.7957.0834-.2802.3269-.5605.6538-.8407.9808Z"/>
  <path class="cls-10" d="M134.897,118.2689c-.2635-.0558-.5298-.0841-.7957-.0834.0264-.4407.0493-.8828.0758-1.323.2423.4702.4811.9383.7199,1.4064Z"/>
  <path class="cls-14" d="M26.1979,125.662c1.2762-2.4782,2.5525-4.9563,3.917-7.6059-4.3515.0424-4.3441.0643-6.4195,2.5566l.0179-.0123h-5.0213c-.9029-1.1423-1.6478-2.1402-2.451-3.0888-1.4178-1.6745-1.5711-3.3138-.1364-5.0932.7844-.9728,1.2683-2.1988,2.0975-3.1225,1.7275-1.9241,2.0621-3.921,1.1889-6.3752-1.152-3.2376-.8018-6.5504-.1833-9.9065,1.2604-6.8392,1.2284-13.7401.0304-20.5819-.6014-3.4344-.4972-7.1522-3.0858-9.9986-.2142-2.4835-.776-4.9958-.5714-7.4441.4294-5.1372-1.5471-10.1768-.4763-15.921.8607.6531,1.4541.9953,1.8927,1.4782.2487.2737.287.7718.3444,1.1794.1763,1.2523.266,2.8185,1.876,2.7378,1.039-.052,2.0316-1.0269,3.2325-1.6921-.6934-1.664-1.3791-2.9548-1.7628-4.3298-.3847-1.3789-.6263-2.8401-.6425-4.2685-.0189-1.6668,1.1068-2.874,2.5394-3.1105,1.4009-.2312,2.4975.3411,3.1585,1.5178,1.2186,2.1693,2.3232,4.4028,3.4574,6.575,2.6361-.1151,1.8855-1.9124,2.0511-3.183,2.6095-1.9608,2.6421-5.137,3.6684-7.837.3677-.967.3826-2.0755.7936-3.0168.6416-1.469,2.9171-2.2222,4.3561-1.4835,1.3785.7076,1.314,2.0499,1.0839,3.3011-.3022,1.6439-.7489,3.2613-1.1334,4.8901-.4501.4252-.9559.8061-1.3387,1.2851-.8037,1.0057-1.5198,2.2688-.3442,3.2487.6098.5083,1.9871.5391,2.826.243,2.1279-.7512,4.0613-2.0905,6.4667-1.9116.0309,1.6585.0606,3.3175.0902,4.9766l-.0292.0134c-3.3959.9187-4.9488,4.1321-7.0833,6.3567-2.2874,2.3838-3.2143,6.0725-4.735,9.1918-.6755-.4722-1.3711-.9184-2.0228-1.4214-2.1965-1.6951-4.0035-1.4288-4.7567,1.0072-.7293,2.3582-1.291,4.839-1.4278,7.2937-.2318,4.1605.1914,8.3642-.1475,12.51-.3603,4.4072.7007,7.7316,4.9033,9.7457,1.0976.5261,1.9895,1.5018,2.9287,2.3249.2874.2518.4176.6831.6083,1.0125-.1586,1.4011-.3152,2.7847-.5172,4.5688,1.7388.1208,3.1351.2177,4.5315.3147.4946.952.9892,1.904,1.4838,2.856.0103.3551.0137.7104.0103,1.0656-.2467,2.2554.0504,4.2367,2.57,5.0982l-.0607-.0368c.4375.4317.875.8633,1.3125,1.295l-.007-.0816c.1692,1.4814.4665,2.8239,2.6629,2.288-.5566-.8027-1.0624-1.5323-1.5683-2.2619,1.6968-.0036,3.3937-.0073,5.0911-.01-.1726.7525-.3459,1.5039-.6338,2.7523h7.0337c-1.6836,2.2498-4.7216.3398-6.926,2.0189,1.7428,1.6366,3.2986,2.9773,4.6926,4.469.5181.5543.6575,1.4626.9695,2.2094-1.3639-.2961-2.4915-.0072-3.2097,1.2957-2.6349.2545-5.4567-.7757-7.7526.9027-1.3561,3.5179,1.0193,6.3439,1.0534,9.462-1.3261,1.2219-1.6235-.7336-2.4078-.7752-1.1758-.0624-2.3744.3061-3.7774.5247-1.0823-1.4011-2.1748-2.8153-3.5223-4.5597-1.5995,3.2505-3.0725,6.0126-4.3194,8.873-.6513,1.4939-.9053,3.1608-1.3387,4.7496-1.5078-.9959-3.0075-2.0041-4.5255-2.984-1.3154-.8491-1.814-2.101-1.863-3.5959,0-.0004-.0171.0548-.0171.0546,1.1044-.5033,1.2741-1.4765,1.2753-2.5345Z"/>
  <path class="cls-12" d="M40.02,31.8269c.3845-1.6288.8311-3.2461,1.1334-4.8901.2301-1.2513.2946-2.5935-1.0839-3.3011-1.439-.7387-3.7145.0145-4.3561,1.4835-.4111.9413-.4259,2.0498-.7936,3.0168-1.0263,2.7001-1.059,5.8762-3.6684,7.837-1.3949-.2126-2.231-.9139-2.4494-2.4051-.4524-3.0898-1.0077-6.1645-1.5909-9.6667.359-.9205,1.5101-1.1876,2.8133-1.3789.4675-.0686,1.1268-.6447,1.2275-1.0947.5149-2.299,2.2208-3.4127,4.0211-4.5803,4.0357-2.6172,7.8124-5.6695,12.6533-7.2832,1.1496.7627,2.3509,1.5595,3.5526,2.3558.0815.5105.1625,1.0215.242,1.5302-.8679,3.7586,1.0614,6.256,3.7934,8.3905-1.7712,1.8775-3.6826,3.669-3.9668,6.4594,0,0-.0441.0401-.0439.0399-.3884-.0224-.7772-.0387-1.1662-.049-.034-.6295-.0679-1.2591-.1019-1.8886-.059-1.2172-.0227-2.4487-.2025-3.6479-.2024-1.3514-1.2535-2.0015-2.6713-1.8609-1.1699.1161-1.8378.7947-2.0169,1.9126-.4132,2.5773.3418,3.4369,3.6263,4.223.0008.4429.0013.8857.0019,1.3285,0,0,.0533-.059.0533-.059-1.8686.8232-3.817,1.5078-5.5769,2.52-1.1147.6412-2.0919,1.3105-3.4293,1.008Z"/>
  <path class="cls-10" d="M16.0234,62.5239c-.1048,1.407-.2096,2.814-.3225,4.3298-2.0764-.702-3.7423-1.4383-5.486-1.8035-1.5887-.3327-2.6476.5281-2.749,1.7977-.1077,1.3473.6264,2.4687,2.1946,2.3338,2.0453-.1759,3.1385.6165,4.0011,2.2607,1.0341,1.9713,3.2215,3.5134,2.038,6.6301-1.1549.8787-2.6339,2.004-4.1305,3.1427-1.5022-.3734-2.9069-.7225-4.3117-1.0716,0,0,.0203.0268.0203.0267.1223-2.1849-.2157-4.139-2.5523-5.0916,0,0,.0261.0295.0262.0296-1.2353-2.9452-1.5751-6.0169-1.3522-9.1822.2342-3.326.3847-3.5262,3.8334-4.7335.7147-.2502,1.3948-.5993,2.4402-1.0552-.8325-.7059-1.2592-1.0903-1.7107-1.4429-.3219-.2514-.6773-.4601-1.0174-.6883.2417-2.0409,2.7252-3.5425,4.0338-2.3267,1.0279.9549,1.9652,2.1696,2.4959,3.4535.5821,1.4082,1.132,2.6795,2.5489,3.391Z"/>
  <path class="cls-10" d="M90.7007,17.0236c-1.6879-.4966-3.3758-.9931-5.0631-1.488-.0931-.8264-.0996-1.6757-.2953-2.4789-.9949-4.0841-1.0121-4.0799.2768-7.3862-.009-.4961-.0181-.9921-.027-1.4882.6955-.132,1.7266-.6096,2.0188-.3261.666.6464.9699,1.6659,1.6211,2.919,1.6688,0,3.447,0,5.2257.0006.422.038.8433.0754,1.2647.1129.0181.5505.0361,1.1009.0537,1.6548-.826,1.1264-1.6514,2.2493-2.4771,3.3718-1.7897,1.2331-2.3549,3.0889-2.5984,5.1082Z"/>
  <path class="cls-10" d="M51.7224,13.4525c-.081-.511-.162-1.022-.2435-1.5325.4403-.4517.8811-.9039,1.3218-1.3554,1.4855-.8213,1.1721-2.2885,1.2915-3.6004,2.6131-.6689,5.1517-1.7053,7.9424-1.4561,1.7689.158,3.1611-.7576,4.6257-1.6203,1.701-1.0021,3.5443-1.2452,5.2201.233.0005-.001-.2832.3482-.2818.3466-.4787.1768-.9588.3552-1.4388.5336.5123.1667,1.0245.3334,1.5369.5002,0,0,.0945.1142.0942.1137-1.2798.8189-2.5595,1.6383-3.8391,2.4577-3.174-.2891-6.1248.2244-8.6812,2.3054-.2832.2306-.7896.1873-1.195.271-.7702-.6984-1.9473-1.5258-2.3165-.1029-.6002,2.3131-2.2184,2.6073-4.0368,2.9064Z"/>
  <path class="cls-12" d="M54.0923,6.9642c-.1194,1.3119.1939,2.7791-1.2915,3.6004.0818-1.3258-.2976-2.8161,1.2915-3.6004Z"/>
  <path class="cls-12" d="M85.5922,4.1824c.009.4961.018.9921.0281,1.4865-.8133-.0132-1.6278-.0247-2.4422-.0362-.0252-.4855-.0505-.971-.0758-1.4576.8341-1.2296,1.6602-.0855,2.4898.0073Z"/>
  <path class="cls-12" d="M95.7226,6.8888c-.4214-.0374-.8427-.0748-1.2647-.1129.5024-.8682.9285-.8793,1.2647.1129Z"/>
  <path class="cls-6" d="M116.4283,127.745c.4451,1.3953.8902,2.7906,1.3345,4.1861-2.1886,1.2565-1.3042,3.4138-1.539,5.2429-7.0488,4.7373-14.7221,8.1372-22.9507,10.1213-13.3769,3.2256-26.6492,2.5639-39.7261-1.7366-.5842-.1921-1.1105-.5746-1.6419-.9039-.1672-.1036-.2623-.3235-.43-.5419-.9177-2.6054,1.2611-4.7188,1.2971-7.2021,1.1806-3.2836,2.3617-6.5685,3.5429-9.8535.0952-.4982.1906-.9964.2858-1.4947.1794-.2951.2583-.6148.237-.9607.3411.0072.6291-.112.8642-.3588,1.4558-.0924,3.0211.1275,4.3466-.3369,3.6878-1.2923,7.3853-.8516,10.9666-.7724,2.6557,4.2984,2.6747,4.2561,7.3711,6.3619,1.507.6757,2.895,1.6228,4.3187,2.4766,1.7395,1.0432,3.4401,1.2538,5.3189.2299,3.907-2.1291,8.0565-1.7851,12.1948-.8799,1.4209.3107,2.7685.9425,4.1776,1.3246,2.0563.5576,2.9824.1848,4.1541-1.7016.526-.8468.8593-1.8134,1.2704-2.7049,1.7155-.1845,3.1613-.34,4.6072-.4955Z"/>
  <path class="cls-1" d="M31.3282,134.7218c.4334-1.5888.6874-3.2557,1.3387-4.7496,1.247-2.8604,2.7199-5.6225,4.3194-8.873,1.3475,1.7444,2.44,3.1586,3.5223,4.5597,1.403-.2186,2.6016-.5871,3.7774-.5247.7843.0416,1.0817,1.9971,2.4064.7739.4644-.677.8118-1.5064,1.431-1.9825.5616-.4317,1.5339-.8064,2.1148-.6036.594.2072,1.3306,1.1639,1.3055,1.7632-.0675,1.6124-.4515,3.2221-.8138,4.8092-.5444,2.3854-1.1775,4.7505-1.7729,7.1243,0,0,.0119-.0042.012-.0042-1.6657.5306-2.3296,1.804-2.5349,3.4175-2.0581.0972-4.1165.2668-6.174.2548-.7831-.0046-2.0005-.1911-2.2728-.6969-1.485-2.7579-5.1046-2.704-6.6592-5.2681Z"/>
  <path class="cls-10" d="M48.9572,137.0187c.5954-2.3738,1.2284-4.739,1.7729-7.1243.3623-1.5871.7463-3.1968.8138-4.8092.0252-.5993-.7114-1.556-1.3055-1.7632-.5809-.2028-1.5532.1718-2.1148.6036-.6192.4761-.9666,1.3055-1.431,1.9825-.0327-3.1167-2.4081-5.9428-1.052-9.4607,2.296-1.6784,5.1178-.6482,7.7531-.9027.5794.7277,1.1584,1.4554,1.7373,2.1831.0612,1.4489-.046,2.9326.244,4.3342.188.9091.9553,1.6985,1.4631,2.5416.0215.3445-.0575.6643-.2371.9608-.8192.3603-1.0526.8311-.2856,1.4933-1.1812,3.285-2.3624,6.5699-3.5429,9.8535-1.2714.035-2.5433.0714-3.8152.1077Z"/>
  <path class="cls-9" d="M116.2238,137.1741c.2349-1.8291-.6496-3.9865,1.539-5.2429.3096.8167.6184,1.6336.9274,2.4497-.822.9304-1.6442,1.8619-2.4664,2.7933Z"/>
  <path class="cls-10" d="M46.4342,140.4319c.2054-1.6134.8693-2.8869,2.5349-3.4175.0061.6422.0122,1.2843.0183,1.9291-.5014.5679-1.0026,1.1332-1.504,1.6985-.368.0215-.7178-.0485-1.0492-.2101Z"/>
  <path class="cls-9" d="M47.4835,140.6421c.5014-.5653,1.0026-1.1306,1.504-1.6985,0,1.1141,0,2.2307,0,3.3574-1.5272-.0505-1.336-.976-1.5041-1.659Z"/>
  <path class="cls-1" d="M4.2139,82.736c1.058-.098,2.116-.196,3.1745-.2955,2.7798,2.5251,5.8113,1.1945,9.1338.0584.3363,1.3356.7697,2.269.7746,3.2045.0316,6.0596.0147,12.1204-.0813,18.1793-.0439,2.7722-.2044,2.8542-4.7479,6.2441-1.8346-1.1493-2.6251-3.2135-3.2568-5.0551-1.9531-5.6939-4.0508-11.3692-4.9143-17.3765.0133-.4052.0242-.8126.0352-1.22-.0393-1.2464-.0785-2.4928-.1178-3.7392Z"/>
  <path class="cls-10" d="M23.6954,120.6127c.7342.2177,1.4684.4354,2.2257.6599q-1.5101,3.8602-4.7306,3.3814c.9038-1.4522,1.7133-2.7528,2.5228-4.0535,0,0-.0179.0122-.0179.0122Z"/>
  <path class="cls-4" d="M26.1979,125.662c-.0012,1.058-.1709,2.0313-1.2753,2.5345-.1458-1.1318.1744-2.0295,1.2753-2.5345Z"/>
  <path class="cls-10" d="M4.3317,86.4753c-.011.4074-.0219.8147-.0352,1.22-.1108-.2888-.2567-.5692-.306-.8657-.0161-.0964.2203-.2349.3412-.3543Z"/>
  <path class="cls-15" d="M4.7253,75.0786c2.3366.9526,2.6745,2.9067,2.5523,5.0916-1.6365-1.3034-2.3421-3.0735-2.5523-5.0916Z"/>
  <path class="cls-9" d="M92.9304,69.7159c1.1692,2.9305,3.8334,2.7929,6.2984,3.0667.1536.3786.3475.7353.581,1.0682.0218.6074.0457,1.2158.0696,1.8241-1.3884.4364-2.5666,1.0251-3.008,2.636-.6221,2.2709-2.3063,3.7748-4.2496,4.8931-.3966.2283-1.3188-.4565-1.9988-.7204-.2071-1.0554-.6205-2.0786-1.8334-2.0868-2.6366-.0177-5.2834.0371-7.9037.2925-.5008.0488-.8984,1.1559-1.3438,1.7747-.4145.038-.8284.0879-1.2439.1117-1.0442.0596-2.1453.0659-2.5558,1.2934-.4658,1.3935.0601,2.4145,1.343,3.0717q3.5245-1.8934,6.5868,1.0068c-.5162.3337-1.0101.6242-1.4734.9573-1.8115,1.3021-1.9874,2.8257-.4583,3.863,2.4256,1.6454,5.389,2.4304,7.5605.5843,2.363-2.0087,5.6981-2.5234,7.4954-5.326.4574-.7132,1.7393-1.0333,2.706-1.2502,1.2061-.2705,2.478-.2475,3.7215-.3513.4648.4461.9296.8922,1.3944,1.3383l-.0083-.0247c.1764,1.764-.232,3.6758,1.2895,5.0998l-.0401-.06c.4588,3.1557.9177,6.3114,1.3766,9.4674-2.0174,2.5732-4.2991,4.6795-7.8923,4.468-.8158-.2167-1.6326-.4334-2.4493-.65-.0167-.5449-.0333-1.0899-.0501-1.635.8188-.1426,1.6944-.1461,2.4459-.4532,2.5725-1.0511,3.7033-4.4585,2.3055-6.7094-2.0174-3.2486-5.7286-4.1243-9.2021-2.2195-1.0483.5749-2.1425,1.3741-3.2602,1.4547-2.8733.2071-5.7715.0693-8.4438.0693q-3.1587-4.5618-8.0929-5.0374c-.6211-.0598-1.2421-.1188-1.8632-.1781l-.2321.0564c2.4705-5.2906,3.8253-10.9714,5.7823-16.4308,2.5162-7.0192,5.1713-14.0508,9.1289-20.4606.3939.4598,1.2164,1.0859,1.113,1.3516-1.2332,3.1679.541,5.6504,1.9403,8.0706,1.2067,2.0872,2.9553,3.8611,4.4644,5.7736Z"/>
  <path class="cls-15" d="M35.8725,55.2305c1.5206-3.1193,2.4476-6.808,4.735-9.1918,2.1346-2.2246,3.6874-5.438,7.0837-6.3566.4793,1.14,1.0286,2.2566,1.4178,3.4264.4013,1.2062,1.3193,1.466,2.3842,1.5864-.3275.5246-.5579,1.395-.9981,1.5185-3.2067.8998-4.1977,3.6452-5.4342,6.5372-2.0793-.8515-3.756,1.9521-6.014.452-.0606-.0402-1.0964.8675-1.0779,1.3079.1963,4.6641,1.9233,8.9168,4.2912,12.8039.684,1.1228,2.8597,1.3374,4.6093,2.0774-.0313.5374-.078,1.3358-.1245,2.1341,0,0-.0996-.0039-.1011-.0058-1.6044-.158-3.2071-.3141-4.6763-.4572-.2552.5224-.427.7111-.4283.9009-.0249,3.5785-.0298,7.157-.0387,10.7356-.0072,1.7105-.0144,3.421-.0214,5.1315.3828,2.4118.7656,4.8237,1.1484,7.2356-.394.1148-.7844.2402-1.1714.3762-.4946-.952-.9892-1.904-1.4823-2.854.2183-4.3935.2147-8.7034-.9588-13.0729-1.0176-3.7891-1.0915-7.8316-1.5824-11.7622.6601-2.8452-.538-5.4057-1.2326-8.0434-.1091-1.4932-.2183-2.9865-.3275-4.4797Z"/>
  <path class="cls-12" d="M51.4931,44.6949c-1.0649-.1204-1.9829-.3802-2.3842-1.5864-.3892-1.1698-.9385-2.2863-1.4178-3.4264-.0003,0,.0289-.0134.0289-.0133,2.8446-1.9419,3.188-2.6287,2.5655-5.1307.406-2.066.8119-4.132,1.2179-6.198,0,0,.0441-.0401.0439-.04,1.3439.2272,2.31.8062,2.4516,2.3397.1479,1.6015.3927,3.194.5842,4.7042,5.0795.3816,5.8128-.3251,6.6461-6.1503-1.2527-.5147-2.5536-1.0492-4.2758-1.7568,1.5656-2.1071,2.6492-4.293,2.0191-6.8634.0801-.3495.1467-.7016.1999-1.0563,1.0733.1247,2.0571.4193,2.3378,1.6326.3288,1.4214,1.2058,2.0854,2.6341,2.0865l.0432.0536c.036,2.0908.0624,4.1819.1143,6.2723.0152.611.3903,1.5044.1124,1.7848-2.0147,2.0326-.5555,3.8159.2031,5.6934.2137.529.1786,1.1586.2808,1.9135-1.5407,0-2.9345-.0991-4.3076.0272-1.4404.1325-2.8524.5512-4.2916.722-4.0159.4767-4.0189.4516-4.806,4.9918Z"/>
  <path class="cls-15" d="M56.6029,114.2489c-.312-.7468-.4514-1.6551-.9695-2.2094-1.394-1.4917-2.9498-2.8324-4.6926-4.469,2.2044-1.6791,5.2424.2309,6.926-2.02.0681-.4672.1365-.9332.2048-1.3993,1.3372.003,2.3174-.6191,3.1107-1.6688,2.502-3.3106,4.1168-7.0536,5.4212-10.9532l.0837-.0947c1.2716-.0068,2.5433-.0137,3.8146-.0217-.0002-.0012.2319-.0576.2308-.0568.4985,1.4681.9981,2.9354,1.6216,4.7664-3.0813.1369-4.8733,1.841-5.8348,4.6239-.5382,1.5579-1.7683,2.9586-1.989,4.5281-.5281,3.7551-3.3429,6.4656-3.7807,10.2161h-4.0695c-.035-.4133-.0608-.8272-.0773-1.2416Z"/>
  <path class="cls-1" d="M67.9519,8.0726c1.2796-.8194,2.5592-1.6388,3.8391-2.4577,1.038-.0039,2.0757-.0083,3.1155-.0123.3233,1.5209.3473,3.1737,1.8563,4.1656.5164,2.8692,1.0328,5.7383,1.6083,8.9357,1.3198.9287,2.8095,1.977,4.2985,3.0248-.3499.4714-.5537,1.0016-.7885,1.0157-.8119.0488-1.7546-.3723-2.4316-.0924-2.4249,1.0024-4.3948.4818-6.4391-1.0433-.8201-.6117-1.3329.4917-1.5398,1.3262-.6322.0367-1.2656.0702-1.899.1038-.1095-1.1988-.219-2.3977-.3285-3.5966.8343-.8498,1.6686-1.6997,2.7264-2.7771-2.3298-2.6068-3.8715-5.3119-4.0177-8.5926Z"/>
  <path class="cls-1" d="M71.9845,74.0332c-.0391.7433-.0783,1.4866-.118,2.2304-.0297.4421-.0589.8838-.0881,1.3254-1.3591,3.2277-2.7778,6.4321-4.0484,9.6943-.514,1.3196-.7052,2.7649-1.0431,4.1521.0002-.0009-.0835.0938-.0826.0936-1.9933-.0734-3.578.8701-5.1605,1.939-.4039.2728-1.1487.0409-1.91.0409-.191-.8555-.4793-1.6455-.5148-2.4466-.0351-.7959.1841-1.6032.2714-2.254,6.2555-3.5026,6.3587-3.6819,4.8798-8.3109-1.62-.1437-3.2664-.2897-4.9129-.4357-.0609-.7138-.1219-1.4277-.1828-2.1415.1026-.576.2051-1.1521.3099-1.7408,2.5887.8718,2.6616.8603,3.4203-1.1223.1341-.3502.0429-.7865.0558-1.183l.0846-.0847c2.8783.3339,5.4902-.1958,7.6025-2.3446.9511-.0382,1.8852-.0409,2.2806,1.0874-.2805.5003-.5622,1.0008-.8439,1.5012Z"/>
  <path class="cls-1" d="M73.0023,64.9439c.5812,2.5586-1.1666,3.7137-2.9274,4.8613-2.7179.5933-4.6744-.9628-6.6403-2.4118-1.6494-1.2157-1.8817-3.0576-1.9675-4.9293,0,0,.2325-.1885.2313-.1862.341-.35.6832-.7023,1.0254-1.0547,0,0,.1683-.2139.1682-.2117.4168-.736.8338-1.4741,1.2507-2.2124-.054-1.0791-.2131-2.0708-1.421-2.5348-1.3299-.5108-2.6311-1.0965-4.3376-1.8151,3.2981-1.6865,6.0193-3.0944,9.97-1.0894-1.1699.3722-1.6116.5224-2.0591.652-.3681.1066-.7432.1889-1.1164.2833.0769.359.0331.8414.2518,1.0554,2.318,2.2669,4.9751,1.5126,7.6195.7815l-.0315-.0392c-.2934,1.9358-.5325,3.882-.8995,5.8038-.2389,1.2517-.2765,2.3537.9403,3.1264l-.057-.0794Z"/>
  <path class="cls-4" d="M92.9304,69.7159c-1.5091-1.9124-3.2577-3.6864-4.4644-5.7736-1.3992-2.4203-3.1735-4.9027-1.9403-8.0706.1034-.2658-.7191-.8918-1.113-1.3516.091-1.0949.1835-2.1886.2761-3.2805,3.7252-.8142,5.4943,1.8622,6.6116,4.4291,1.9826,4.5547,4.1939,8.9459,7.3737,13.368-1.0293.4639-1.6961,1.006-2.3742,1.0202-1.4534.0308-2.9126-.2109-4.3695-.341Z"/>
  <path class="cls-11" d="M61.467,62.4642c.0858,1.8716.3181,3.7136,1.9675,4.9293,1.966,1.449,3.9224,3.0051,6.6403,2.4118.1559.545.314,1.0916.4726,1.6388-2.1121,2.1494-4.7239,2.6791-7.6021,2.3452-.0322-.2051-.0564-.4118-.098-.615-.309-1.5073-.7858-2.852-2.7435-2.6038-.1609.0204-.3983.2675-.4194.4323-.2457,1.9234,1.0091,2.4929,2.5607,2.776.2041.0373.4104.0637.6156.0952-.0129.3965.0783.8328-.0558,1.183-.7587,1.9826-.8316,1.9941-3.4203,1.1223-.1048.5887-.2074,1.1648-.3098,1.7377-.2219-.0169-.4355-.0666-.6409-.1521-.2243-.7289-.5035-1.4461-.661-2.1892-.294-1.3881-1.1879-1.8387-2.4917-1.7426l.0328.0366c-.0815-.7723-.1629-1.5446-.2444-2.317.1747-.1634.3574-.3176.5474-.4617,1.6045-2.3609,1.3177-4.8991.5636-7.4169-.1067-.3558-.9704-.4848-1.4837-.7188-.1003-2.594.1413-2.9119,1.7739-2.3193,1.667.6051,3.3309,1.2185,4.9962,1.8282Z"/>
  <path class="cls-12" d="M67.9519,8.0727c.1462,3.2806,1.6879,5.9857,4.0177,8.5925-1.0578,1.0775-1.8921,1.9273-2.7266,2.7775-1.2482.1513-2.4582.5059-2.3206,2.0455.1394,1.5574,1.3962,1.6557,2.6491,1.5507.6335-.0336,1.267-.0671,1.8991-.1038.1097.4776.4537,1.27.2944,1.389-1.119.8362-2.3171,1.5657-3.8182.783-1.2336-.6433-2.5049-1.2145-3.7593-1.8175,0,.0002-.0431-.0533-.043-.0532-.2963-1.3932-.5927-2.7866-.8766-4.1212,1.106-1.5825,2.2176-3.0545,3.189-4.6138.4766-.7652-.3979-2.1965-1.3256-2.4081-1.8869-.4302-3.5463.1234-4.2687,1.6254-.7115,1.4796-1.2325,3.0508-1.8371,4.5818-2.9459-.9679-2.9996-1.1091-1.5515-4.081,1.06-.0984,1.3759-.407.3125-1.1054l.2915-2.4653c.4029-.0837.9093-.0404,1.1926-.271,2.5564-2.0809,5.5071-2.5945,8.6812-2.3053Z"/>
  <path class="cls-1" d="M72.0895,44.332c1.4411-.4071,2.6357-.6366,3.7401-1.0871,1.0861-.443,2.0806-1.1105,3.1087-1.676,2.5894,4.502,2.4097,5.3887-1.7479,9.1173-3.3366-.6589-4.1978-3.3066-5.1009-6.3541Z"/>
  <path class="cls-12" d="M84.3789,37.1565c.3856,1.3809.9248,2.7401,1.1241,4.1474.3867,2.7307.1185,5.3383-2.3025,7.2118-.5179-2.8506-.8508-5.7546-1.6559-8.5212-.2822-.9698-1.7248-1.6021-2.9653-2.671.2252-1.6483.0895-3.7556,2.247-4.9487.2614-.1446.755.1304,1.286.2413.4297,1.615-1.2357,4.4412,2.2667,4.5404Z"/>
  <path class="cls-11" d="M83.1781,5.6327c.8144.0115,1.6288.023,2.4422.0362-1.29,3.308-1.2728,3.3038-.2779,7.3879.1956.8032.2022,1.6525.2953,2.4789-.3869.0706-.7764.1122-1.1686.1228-1.0304.1096-2.0615.2195-3.5205.3749.1161-3.6888-2.6682-7.7175,2.2295-10.4007Z"/>
  <path class="cls-13" d="M73.05,56.1323c.716-.6444,1.3524-1.6842,2.1651-1.8475,1.4957-.3006,3.0951-.0858,5.021-.0858.0281,2.2204-1.9731,3.4899-2.5734,5.3446-.6285,1.942-1.4842,3.8104-2.3482,5.9811-.839-.2106-1.5754-.3954-2.312-.5805-.0002-.0002.0568.0791.0566.0788.3707-1.336.902-2.6516,1.0719-4.0124.2149-1.7211.7384-3.62-1.1125-4.9175l.0315.0392Z"/>
  <path class="cls-1" d="M46.745,71.5258c2.9221-.7421,5.1405.6487,7.244,2.3887.4421-.0154.8835-.0301,1.325-.0448,0,0-.0328-.0366-.0328-.0366-.4537,1.2218.1824,2.821-1.2796,3.6937-2.2722.2652-4.3167-.0292-5.8743-1.9971-.2914-.3682-1.1108-.3188-1.6864-.4621l.056.0562c.0495-1.2006.0991-2.4013.1486-3.602l.0996.0039Z"/>
  <path class="cls-1" d="M72.3546,40.3266c-1.3068-1.7814-.6335-3.5783.1027-5.2455.2623-.594,1.2447-1.2038,1.8943-1.1994.6531.0044,1.5241.6286,1.8899,1.2302.3823.6287.6202,1.7327.3177,2.3157-.8418,1.6215-1.8781,3.2583-4.2046,2.899Z"/>
  <path class="cls-5" d="M54.6969,62.9553c.5133.234,1.377.363,1.4837.7188.7542,2.5178,1.041,5.056-.5636,7.4169-.919-1.3621-1.8386-2.7236-2.8264-4.1862.664-1.3755,1.2851-2.6625,1.9063-3.9495Z"/>
  <path class="cls-1" d="M75.1534,25.8679c.7287.1766,1.7382.1338,2.1211.6026.32.3919.103,1.4923-.2281,2.0814-.4785.8519-1.2746,1.5253-1.9663,2.3101q-.6434-2.415.0732-4.9942Z"/>
  <path class="cls-15" d="M76.7627,9.7683c-1.509-.9919-1.533-2.6448-1.8563-4.1656,2.3737.6052,1.8974,2.4824,1.8563,4.1656Z"/>
  <path class="cls-15" d="M55.314,73.8697c-.4415.0147-.8829.0294-1.3249.0448.3603-.7882.7211-1.5769,1.0812-2.3637.0808.7743.1622,1.5466.2437,2.3189Z"/>
  <path class="cls-1" d="M71.6967,5.5012c-.5123-.1668-1.0245-.3335-1.5369-.5002.48-.1784.9602-.3568,1.4388-.5336.0556.3434.0888.6875.098,1.0338Z"/>
  <path class="cls-11" d="M64.1426,58.7993c-.4168.7382-.8338,1.4764-1.2507,2.2124.417-.739.8338-1.4757,1.2507-2.2124Z"/>
  <path class="cls-12" d="M85.7084,34.6883c-.4391.821-.8781,1.6421-1.3174,2.4629.4391-.8211.8782-1.642,1.3174-2.4629Z"/>
  <path class="cls-11" d="M62.7237,61.2233c-.3422.3523-.6844.7047-1.0254,1.0547.3426-.3531.684-.7039,1.0254-1.0547Z"/>
  <path class="cls-11" d="M71.9845,74.0332c.2817-.5004.5634-1.0009.8439-1.5012-.2821.5005-.5629,1.0009-.8439,1.5012Z"/>
  <path class="cls-11" d="M71.7784,77.5891c.0292-.4416.0583-.8833.0881-1.3254.1166.3193.2728.6328.324.9626.0152.0972-.2664.2406-.4121.3628Z"/>
  <path class="cls-15" d="M121.1496,70.0167c2.0783,2.7959,2.4574,6.0263,2.4594,9.3764.0044,7.4609.0495,14.9217.0773,22.3813-.0364.3584-.0618.7188-.0772,1.0799-.7721-1.2771-1.5443-2.5542-2.3153-3.8318.0095-.7865.0179-1.5724.0254-2.3584,1.8162-2.9207.8379-6.0839.7945-9.1659-.0218-1.9908-.0436-3.9816-.0634-5.972-.2136-.4685-.4292-.9373-.6447-1.4062,0,0-.1858-.3592-.1847-.3633-.023-3.2494-.0471-6.4947-.0712-9.74Z"/>
  <path class="cls-1" d="M128.7122,72.6793c-2.4754-.1487-2.6512-2.0931-3.0344-3.879.9809-.8578,1.9826-1.495,3.2526-.4627,1.2054.9798,1.1095,2.0639.3571,3.249-.2199.3464-.385.7275-.5753,1.0927Z"/>
  <path class="cls-12" d="M136.2296,65.0043c-.172-.1029-.3438-.2057-.5158-.3086.1845.0902.369.1804.5535.2706l-.0377.038Z"/>
  <path class="cls-12" d="M136.2673,64.9663c.4209.427.8417.854,1.2627,1.281,0,0-.0201.0192-.0201.0193-.4267-.4208-.8534-.8417-1.2802-1.2624-.0002.0002.0376-.0378.0376-.0378Z"/>
  <path class="cls-12" d="M133.7868,58.5739c.4111-.1178.7935-.0567,1.1469.1837-.5114.7411-.8747.5618-1.1469-.1837Z"/>
  <path class="cls-3" d="M108.6332,78.5671c.3329.7289.5774,1.516,1.0138,2.1765,1.8922,2.8633,2.8686,5.778,1.7019,9.2868-.9694,2.9157-1.4816,5.9834-2.1923,8.9862-.5058-1.3123-.9262-2.6721-1.5571-3.926-.4266-.8479-1.1496-1.5468-1.7401-2.3123,0,0,.0401.06.0401.0599-.067-1.7916.4841-3.7395-1.2895-5.0996l.0083.0247c.1097-4.355-.6629-8.546-2.3362-12.5698l.219-3.4989s.2109-.0085.2044-.0117c1.0359-.1538,2.0783-.3043,3.1206-.4549.4513-.0148.9026-.0296,1.3539-.0444,0,0,.1853.1472.1832.1465.4219,2.4119.846,4.8245,1.2699,7.237Z"/>
  <path class="cls-4" d="M105.8594,92.7783c.5905.7655,1.3135,1.4644,1.7401,2.3123.6309,1.2539,1.0513,2.6137,1.5571,3.926.1911,1.35.3861,2.7024.5815,4.0568-.1277.4631-.2558.9242-.3833,1.3852-.706-.7378-1.4124-1.4755-2.1189-2.2132-.4588-3.1557-.9177-6.3114-1.3766-9.4671Z"/>
  <path class="cls-10" d="M108.6332,78.5671c-.4239-2.4125-.848-4.8251-1.2699-7.237.6734.7706,1.3447,1.5407,2.014,2.3086.1638,1.7037.8219,3.4834-.7441,4.9284Z"/>
  <path class="cls-14" d="M122.1135,87.4982c.0435,3.082,1.0218,6.2452-.7945,9.1659-.1195-3.0885-1.041-6.2465.7945-9.1659Z"/>
  <path class="cls-10" d="M121.4054,80.12c.2155.4689.431.9377.6447,1.4062-.2162-.469-.4304-.9376-.6447-1.4062Z"/>
  <path class="cls-12" d="M105.8261,71.228c-1.0424.1505-2.0847.3011-3.1206.4549-.4702-.9074-1.9469-1.5751-.7006-2.9042,1.4009-.4177,2.8024-.8357,4.2061-1.2535.7258.0056,1.4495.0113,2.173.017-.4063.8014-.8125,1.6027-1.2186,2.4051-.4465.4276-.8928.8542-1.3392,1.2807Z"/>
  <path class="cls-12" d="M102.5011,71.6945c-.073,1.1663-.146,2.3326-.2203,3.4974-.8238-.4477-1.6464-.8939-2.4689-1.3401-.2357-.3339-.4297-.6905-.5832-1.0691,1.0898-.3622,2.1811-.7252,3.2724-1.0882Z"/>
  <path class="cls-12" d="M89.5079,34.5308c1.2566-.3979,2.5132-.7958,3.7699-1.1938-.0498.8445-.0995,1.6892-.15,2.5332-1.3675-.0137-2.872.3456-3.6199-1.3394Z"/>
  <path class="cls-12" d="M90.7007,17.0236c.2436-2.0193.8088-3.8752,2.5984-5.1082-.0092,2.9502-.0187,5.9001-.0282,8.85-.8568-1.2472-1.7135-2.4945-2.5702-3.7417Z"/>
  <path class="cls-10" d="M105.8261,71.228c.4464-.4265.8927-.8531,1.3392-1.2807.0769.4106.0818.8232.0148,1.2365-.4514.0146-.9027.0294-1.354.0442Z"/>
  <path class="cls-5" d="M117.4373,113.972c.6443.2129,1.2886.4258,1.9296.6378.4485,1.6604,1.559,2.3973,3.2511,2.3136.8394-.0415,1.6784-.0887,2.5206-.1331.3538.202.7045.4038,1.2508.7181-.9752.4658-1.8866.8021-2.6865,1.313-.7003.4473-1.3185,1.0495-1.8966,1.6561-1.1306,1.1864-2.5368,1.3837-4.0546,1.2711-1.4375-2.1906-3.033-4.324-2.6634-7.1875.7819-.1973,1.5654-.3932,2.349-.589Z"/>
  <path class="cls-1" d="M127.6497,110.5826c.394-.4611.7356-.9837,1.1911-1.373,2.06-1.7606,3.8016-1.6618,4.9673.44.564,1.0169.6841,2.2797,1.0032,3.4318-1.2329.1726-2.4769.2807-3.6923.5293-3.0887.6316-3.1263.6196-3.4693-3.028Z"/>
  <path class="cls-11" d="M123.609,102.8543c.0154-.3611.0408-.7215.0771-1.0799.5679-.8404,1.1351-1.6821,1.6712-2.4776,1.1609,4.6404,1.205,9.0591.0008,14.6918-.672-.7891-1.4674-1.2885-1.4998-1.8332-.184-3.0944-.1857-6.1996-.2494-9.3011Z"/>
  <path class="cls-9" d="M116.4283,127.745c-1.4459.1555-2.8916.311-4.6072.4955-.4111.8916-.7444,1.8581-1.2704,2.7049-1.1717,1.8864-2.0979,2.2592-4.1541,1.7016-1.409-.3821-2.7567-1.0139-4.1776-1.3246-4.1383-.9052-8.2878-1.2492-12.1948.8799-1.8788,1.0238-3.5794.8132-5.3189-.2299-1.4238-.8538-2.8118-1.8009-4.3187-2.4766-4.6964-2.1058-4.7154-2.0635-7.3711-6.3619-3.5812-.0792-7.2788-.5199-10.9666.7724-1.3255.4644-2.8908.2445-4.3461.3374.3924-4.6181,4.6303-6.1271,7.1834-9.0193,1.6884-1.9126,3.6079.7839,5.2563-.6922-.2859-1.6063-.9211-3.2449-.757-4.7992.1622-1.5343,1.1328-2.9832,1.7433-4.4564-.2544-.3554-.4416-.7455-.74-1.0106-1.0947-.9727-1.3363-2.0901-.6007-3.3511.7211-1.2359,1.7841-1.7367,3.1736-1.171,1.4425.5873,2.776.2435,4.2596-.0302,3.2583-.601,6.5954-.7843,9.9056-1.0807.339-.0304.7131.3282,1.0709.5063-.1229.4988-.2456.9977-.3683,1.4966-1.2457-.0736-2.493-.2255-3.7364-.1977-1.1415.0255-2.0455.5941-1.9724,1.8716.0712,1.2449,1.0337,1.7819,2.1441,1.7976,1.0167.0145,2.037-.2316,3.0557-.3629.3512.889.7025,1.7781,1.0537,2.6671-1.4094.7841-2.8186,1.5682-4.408,2.4526-3.8314-2.3287-7.4047-.1341-11.2501.7001,1.153,1.1385,2.3162,1.9949,3.0794,3.122.7858,1.1605,1.1814,2.5851,1.875,4.1879,1.7779-.1291,3.391-.2462,5.0041-.3633.3223,1.16.6446,2.3201.9893,3.5609,2.8582.7378,5.5047.705,8.1446.3442.5161-.0705.9557-.701,1.4306-1.0732,1.5373-.0625,3.0738-.1273,4.1914-1.4244,2.4265.0779,4.8529.1557,7.2794.2336.2079,2.9408,2.03,4.3697,4.7287,4.6865,1.3889.1629,2.8341-.1536,4.2539-.2536.9119,1.7201,1.8236,3.4403,2.7354,5.1604Z"/>
  <path class="cls-6" d="M93.2395,119.3425c-.4749.3722-.9145,1.0028-1.4306,1.0732-2.6398.3608-5.2863.3937-8.1446-.3442-.3448-1.2408-.6671-2.4009-.987-3.5596.3283-1.3361.6542-2.6735,1.0424-4.2668,1.9665.1694,3.5818.3594,5.2024.4366,2.6711.1274,5.3456.1818,8.0191.267.939-.0422,1.8776-.0846,2.8162-.1269,1.1174.5038,2.2,1.1188,3.3612,1.4827,1.3749.4309,2.6094-.3289,2.8341-1.5392.231-1.2445-.4983-2.1025-1.4966-2.3004-1.5685-.311-3.212-.2432-4.8238-.3358.0881-.3863.0093-.7349-.2363-1.0458-.0178-.7898-.0356-1.5797-.0533-2.3695,3.5941.2114,5.8758-1.8949,7.8932-4.4681.7064.7375,1.4129,1.4752,2.1189,2.213-.1056,2.645,2.1013,5.0134.8798,7.8518-.1908.4433.4506,1.5458.9978,1.9494,1.6918,1.2476,2.2193,2.9036,2.1837,4.8679-1.3554-.1561-2.7102-.3173-4.066-.4692-1.5461-.1732-3.0932-.3382-4.6399-.5068-2.4265-.0779-4.8529-.1557-7.2815-.2334-.2623-.7533-.3157-1.7101-.8203-2.2237-1.8077-1.8396-4.5281-2.2321-5.3366-.7581-1.1661,2.1259.2994,3.3815,1.9676,4.4059Z"/>
  <path class="cls-4" d="M104.7103,118.1517c1.5467.1686,3.0938.3336,4.6399.5068,1.3558.1519,2.7106.3131,4.066.4692.092,1.1537.1837,2.3084.2761,3.46-1.4191.0968-2.8643.4133-4.2532.2504-2.6987-.3168-4.5208-1.7457-4.7287-4.6865Z"/>
  <path class="cls-1" d="M117.4373,113.972c-.7836.1958-1.5671.3917-2.349.589-.3851-.6974-.9122-1.3601-1.1056-2.1089-.1138-.4408.2173-1.0795.5237-1.5022.1112-.1536.9238-.0827,1.0857.1333.683.9121,1.2413,1.9175,1.8453,2.8888Z"/>
  <path class="cls-11" d="M35.8725,55.2305c.1092,1.4932.2184,2.9865.329,4.482-.4966.0845-.9948.1668-1.4929.249-1.372.2043-2.744.4087-4.4705.6658,0,2.7999-.0864,5.2708.0352,7.7314.0643,1.3008,1.7371,1.8566,2.9069,1.0009.6572-.4807,1.1492-1.1869,1.7156-1.7916.8456.0618,1.6912.1237,2.5369.1856.4909,3.9305.5648,7.973,1.5824,11.7622,1.1735,4.3694,1.177,8.6794.9588,13.0729-1.3979-.099-2.7942-.1959-4.533-.3167.202-1.784.3586-3.1677.5172-4.5688-.1907-.3294-.3209-.7607-.6083-1.0125-.9392-.8231-1.8311-1.7989-2.9287-2.3249-4.2026-2.0141-5.2636-5.3384-4.9033-9.7457.3389-4.1458-.0843-8.3496.1475-12.51.1368-2.4547.6985-4.9355,1.4278-7.2937.7533-2.436,2.5602-2.7024,4.7567-1.0072.6517.503,1.3473.9492,2.0228,1.4214Z"/>
  <path class="cls-1" d="M41.4562,95.4426c.387-.136.7774-.2614,1.1711-.3747,1.8395,1.4321,3.7581,1.7703,5.8047.4303.8747-.5728,1.7841-1.0967,2.6298-1.709,1.0592-.767,2.271-1.5458,3.4121-.6441,1.4902,1.1776.5556,2.6492-.0776,3.9531-.915,1.8839-1.8712,3.7478-2.8098,5.6202,0,0-.1201.0799-.1201.0798-1.6968.0037-3.3937.0073-5.0893.0124-.3596-.195-.7252-.2047-1.0958-.0275,0,0,.007.0816.0071.0812-.4375-.4318-.875-.8632-1.3126-1.2946,0,0,.0607.0368.0607.0365.3664-2.3159-1.3471-3.5832-2.5699-5.098.0034-.3553,0-.7105-.0103-1.0656Z"/>
  <path class="cls-8" d="M40.02,31.8269c1.3374.3024,2.3147-.3668,3.4293-1.008,1.7599-1.0122,3.7083-1.6968,5.5768-2.5198-.4338,2.118-.8673,4.2358-1.3009,6.3536l-.0966.0401c-2.4042-.1795-4.3376,1.1597-6.4655,1.9109-.8389.2961-2.2162.2653-2.826-.243-1.1756-.9799-.4594-2.2431.3442-3.2487.3828-.479.8886-.8598,1.3387-1.2851Z"/>
  <path class="cls-11" d="M58.0715,104.1512c-.0683.4661-.1366.9321-.2048,1.3993-2.2116.0011-4.4232.0011-7.0337.0011.2879-1.2484.4611-1.9998.6338-2.7523-.0006-.001.1195-.0809.1189-.0792,2.1615.4781,4.3237.9546,6.4858,1.4311Z"/>
  <path class="cls-15" d="M50.2856,34.5382c.6225,2.502.2792,3.1887-2.5655,5.1307-.0297-1.6591-.0594-3.3182-.0903-4.9767-.0012.0006.0954-.0395.0955-.0397.8535-.0382,1.7069-.0763,2.5603-.1143Z"/>
  <path class="cls-15" d="M41.4664,96.5083c1.2227,1.5147,2.9363,2.7821,2.5699,5.098-2.5195-.8612-2.8165-2.8426-2.5699-5.098Z"/>
  <path class="cls-15" d="M45.2811,102.7831c.3705-.1772.7362-.1675,1.0958.0276.5047.7282,1.0105,1.4577,1.5671,2.2605-2.1963.5359-2.4937-.8066-2.6629-2.288Z"/>
  <path class="cls-3" d="M56.6029,114.2489c.0165.4144.0423.8283.0773,1.2422-.5164.746-1.0328,1.4913-1.5492,2.2366-.5789-.7277-1.1579-1.4554-1.7373-2.1831.7177-1.303,1.8453-1.5918,3.2092-1.2957Z"/>
  <path class="cls-15" d="M43.9756,101.5697c.4375.4314.875.8628,1.3126,1.2946-.4376-.4313-.875-.863-1.3126-1.2946Z"/>
  <path class="cls-10" d="M58.9727,20.5735c.6301,2.5704-.4535,4.7563-2.0191,6.8634,1.7222.7076,3.0232,1.2421,4.2758,1.7568-.8333,5.8252-1.5666,6.5319-6.6461,6.1503-.1916-1.5103-.4364-3.1028-.5842-4.7042-.1416-1.5335-1.1077-2.1124-2.4516-2.3397.2843-2.7905,2.1957-4.582,3.9654-6.4577,1.1523-.4218,2.3061-.8454,3.4599-1.2689Z"/>
  <path class="cls-1" d="M58.9727,20.5735c-1.1538.4236-2.3076.8471-3.4599,1.2689-2.7304-2.1363-4.6598-4.6337-3.7919-8.3923,1.8199-.2967,3.4381-.591,4.0384-2.9041.3692-1.4229,1.5463-.5955,2.3165.1029-.0948.8218-.1919,1.6436-.2885,2.4659-.0908.3724-.1954.7405-.3131,1.1048-1.4481,2.9719-1.3944,3.1131,1.5524,4.0802.0046.4106.0529.8166.146,1.2173-.0532.3547-.1198.7068-.1999,1.0563Z"/>
  <path class="cls-1" d="M48.9711,27.0291c-3.2844-.7859-4.0394-1.6455-3.6262-4.2228.1791-1.118.847-1.7965,2.0169-1.9126,1.4178-.1406,2.4689.5095,2.6713,1.8609.1798,1.1992.1435,2.4307.2023,3.6506-.4215.2098-.8429.4169-1.2643.624Z"/>
  <path class="cls-10" d="M50.2856,34.5382c-.8534.038-1.7068.0761-2.5603.1143.4335-2.1176.867-4.2354,1.3008-6.3534.0002-.0002-.053.0587-.0529.0585.4548-.0224.9095-.0445,1.3642-.0666.389.0103.7777.0266,1.1662.049-.4061,2.0662-.8121,4.1322-1.218,6.1982Z"/>
  <path class="cls-8" d="M50.3375,28.291c-.4547.0221-.9094.0442-1.3643.0666-.0007-.4425-.0012-.8853-.002-1.3283.4212-.2073.8426-.4144,1.2642-.6241.0342.6268.0681,1.2564.1021,1.8858Z"/>
  <path class="cls-4" d="M55.1309,117.7277c.5164-.7453,1.0328-1.4906,1.5492-2.2366,1.2232-.0006,2.4462-.0006,4.0695-.0006.4378-3.7505,3.2527-6.461,3.7807-10.2161.2207-1.5696,1.4508-2.9702,1.989-4.5281.9615-2.7829,2.7534-4.487,5.8348-4.6239-.6234-1.831-1.1231-3.2982-1.6216-4.7664.6221.0585,1.2432.1175,1.8642.1773q4.9342.4756,8.0929,5.0374c2.6723,0,5.5705.1379,8.4438-.0693,1.1176-.0806,2.2119-.8798,3.2602-1.4547,3.4736-1.9048,7.1847-1.0291,9.2021,2.2195,1.3978,2.2509.267,5.6583-2.3055,6.7094-.7516.307-1.6272.3105-2.4452.4523-1.1561-1.4066-2.3128-2.8123-3.4696-4.2181-.4663-.3419-.9325-.6838-1.3989-1.0257-1.2596-.0149-2.5191-.0298-3.7787-.0447-.3578-.1781-.7319-.5368-1.0709-.5064-3.3102.2964-6.6473.4798-9.9056,1.0807-1.4836.2737-2.8172.6175-4.2596.0302-1.3895-.5658-2.4526-.0649-3.1736,1.171-.7357,1.2609-.494,2.3784.6007,3.3511.2984.2651.4856.6552.74,1.0106-.6105,1.4732-1.5811,2.9221-1.7433,4.4564-.1642,1.5542.471,3.1929.757,4.7992-1.6485,1.4761-3.568-1.2204-5.2563.6922-2.5531,2.8922-6.7911,4.4012-7.1834,9.0193-.2357.2464-.5237.3655-.8648.3584-.5079-.8418-1.2752-1.6312-1.4632-2.5402-.29-1.4016-.1828-2.8853-.244-4.3342Z"/>
  <path class="cls-4" d="M56.3153,127.0574c-.7671-.6621-.5337-1.133.2856-1.4933-.095.4969-.1903.995-.2856,1.4933Z"/>
  <path class="cls-6" d="M103.2239,86.4249c-1.2435.1037-2.5154.0807-3.7215.3513-.9667.2169-2.2487.5369-2.706,1.2502-1.7973,2.8026-5.1324,3.3173-7.4954,5.326-2.1715,1.846-5.1348,1.061-7.5605-.5843-1.5291-1.0372-1.3532-2.5609.4583-3.863.4633-.3331.9572-.6236,1.4734-.9573q-3.0623-2.9002-6.5868-1.0068c-1.2829-.6572-1.8088-1.6782-1.343-3.0717.4104-1.2275,1.5115-1.2339,2.5558-1.2934.4155-.0237.8294-.0737,1.2432-.1111,3.6934.0067,7.3874.0128,11.0816.019.6799.2639,1.6021.9486,1.9988.7204,1.9433-1.1183,3.6275-2.6222,4.2496-4.8931.4415-1.611,1.6196-2.1996,3.0068-2.6314,1.1145,3.5849,2.2301,7.1651,3.3458,10.7453Z"/>
  <path class="cls-6" d="M93.3756,100.2097c1.1567,1.4058,2.3135,2.8115,3.4696,4.2181.016.5458.0326,1.0908.0477,1.6375-.8531.1798-1.7045.3579-2.556.536-1.4419,1.0105-1.279,1.8458.2762,2.529,0,0,.0459.014.0451.0143-.4831.4789-.9653.9576-1.4477,1.4362-.5667-.529-1.3082-.9618-1.6639-1.6071-.7299-1.3241-1.7332-2.1792-3.172-2.5622-.3512-.889-.7025-1.7781-1.0482-2.6655.1715-1.0357.3374-2.0729.5034-3.1101.1227-.4989.2454-.9978.3683-1.4966,1.2596.015,2.5191.0299,3.7784.0444.4662.3417.9326.6839,1.3991,1.0261Z"/>
  <path class="cls-4" d="M103.2239,86.4249c-1.1156-3.5802-2.2312-7.1604-3.3457-10.7453-.0228-.613-.0467-1.2213-.0685-1.8288.8247.4471,1.6473.8933,2.4711,1.341,1.6745,4.0253,2.4472,8.2163,2.3374,12.5713-.4648-.4461-.9296-.8922-1.3944-1.3383Z"/>
  <path class="cls-4" d="M90.623,82.4838c-3.6941-.0061-7.3882-.0123-11.0816-.019.4461-.6194.8437-1.7264,1.3445-1.7753,2.6203-.2554,5.2671-.3102,7.9037-.2925,1.2129.0082,1.6264,1.0314,1.8334,2.0868Z"/>
  <path class="cls-4" d="M94.3369,106.6013c.8515-.1781,1.7029-.3562,2.556-.536.8183.215,1.6351.4316,2.4509.6483.0167.7899.0345,1.5797.0537,2.3706-1.5785.0207-3.1584.0403-4.7384.06,0,0-.0459-.014-.0463-.0135-.0922-.8428-.184-1.6861-.2758-2.5294Z"/>
  <path class="cls-4" d="M104.6099,87.7386c1.7736,1.3601,1.2225,3.308,1.2895,5.0996-1.5215-1.4238-1.1131-3.3356-1.2895-5.0996Z"/>
  <path class="cls-10" d="M58.0715,104.1512c-2.1622-.4765-4.3243-.953-6.4858-1.4311.9393-1.8741,1.8954-3.738,2.8104-5.6219.6332-1.3038,1.5679-2.7754.0776-3.9531-1.141-.9017-2.3529-.1229-3.4121.6441-.8457.6123-1.755,1.1362-2.6298,1.709-2.0465,1.34-3.9651,1.0018-5.8047-.4303-.3825-2.4134-.7653-4.8252-1.1487-7.2382.6246-.553,1.4105-1.002,1.843-1.6773,1.0479-1.636.6002-2.3933-1.821-3.4531.009-3.5786.0138-7.1571.0387-10.7356.0013-.1898.1731-.3785.4283-.9009,1.4692.1431,3.0719.2992,4.6763.4572-.048,1.2025-.0976,2.4032-.1473,3.6038-.408.0757-.8667.0612-1.2085.2541-.3079.1738-.6281.5555-.6731.8825-.0289.2097.4625.7102.666.6822.3265-.0448.7049-.3634.8821-.6699.1972-.3412.1937-.7984.2776-1.2051.5757.1433,1.395.0939,1.6864.4621,1.5576,1.9679,3.6021,2.2623,5.8747,1.9979-1.2316.8836-2.4635,1.7664-3.6955,2.6492-.3979-.0019-.7957-.003-1.1936-.0057-1.0672-.0071-2.0245.2654-2.2497,1.4427-.0984.5143.0029,1.2622.3264,1.6256,1.0508,1.1805,2.1111.5215,3.1028-.2208.159-.119.3059-.2542.4584-.3819,1.5673-.4264,3.1346-.8527,4.7019-1.2791.1612.8036.1562,1.6938.5203,2.3916.64,1.2266,1.7985,1.8034,3.1262,1.1989,1.4479-.6592,1.3607-1.8685.7699-3.1438-.2576-.5561-.4109-1.1604-.6116-1.7429,1.6464.146,3.2929.292,4.9129.4357,1.479,4.6291,1.3757,4.8083-4.8798,8.3109-.0874.6508-.3066,1.4581-.2714,2.254.0355.8012.3238,1.5911.5148,2.4466.7613,0,1.5061.2318,1.91-.0409,1.5825-1.0689,3.1672-2.0124,5.1605-1.939-1.3054,3.8998-2.9201,7.6429-5.4222,10.9535-.7933,1.0497-1.7736,1.6717-3.1107,1.6688ZM44.1288,93.1522c.4657.2119.9006.4887,1.3691.5687.1209.0207.5634-.7742.4882-.8567-.3297-.361-.7952-.5979-1.2115-.8799-.1774.3208-.3547.6416-.6457,1.1678Z"/>
  <path class="cls-14" d="M37.4327,67.7536c-.8456-.0619-1.6912-.1237-2.5355-.1865-.0619-2.5358-.1253-5.0707-.1886-7.6056.4981-.0822.9963-.1644,1.4929-.2489.6931,2.6354,1.8913,5.1959,1.2311,8.0411Z"/>
  <path class="cls-11" d="M41.5005,82.6993c2.4212,1.0598,2.8689,1.8172,1.821,3.4531-.4325.6753-1.2184,1.1243-1.843,1.6773.0076-1.7094.0148-3.42.022-5.1305Z"/>
  <path class="cls-10" d="M59.1726,19.5172c-.0932-.4007-.1415-.8067-.146-1.2173.6036-1.5302,1.1246-3.1014,1.8361-4.581.7224-1.502,2.3819-2.0556,4.2687-1.6254.9278.2115,1.8022,1.6429,1.3256,2.4081-.9714,1.5593-2.083,3.0313-3.189,4.6138.2839,1.3346.5803,2.728.8766,4.1212-1.4284-.0013-2.3055-.6653-2.6343-2.0866-.2807-1.2133-1.2645-1.5079-2.3378-1.6326Z"/>
  <path class="cls-10" d="M69.5716,23.0389c-1.253.105-2.5098.0067-2.6492-1.5507-.1376-1.5396,1.0724-1.8942,2.3206-2.0455.1097,1.1985.2191,2.3973.3286,3.5962Z"/>
  <path class="cls-3" d="M59.2573,80.0616c.2008.5824.3541,1.1868.6117,1.7429.5908,1.2752.678,2.4845-.7699,3.1438-1.3277.6044-2.4862.0277-3.1262-1.1989-.3641-.6978-.359-1.5881-.5215-2.3909.9933-1.1973,1.9878-2.3954,2.9823-3.5935.2054.0855.419.1352.6409.1521.0607.7169.1217,1.4307.1826,2.1446Z"/>
  <path class="cls-10" d="M73.0185,56.0931c1.851,1.2975,1.3274,3.1965,1.1125,4.9175-.1699,1.3607-.7012,2.6763-1.0719,4.0124-1.2167-.7723-1.1791-1.8744-.9402-3.126.367-1.9218.6062-3.868.8995-5.8038Z"/>
  <path class="cls-15" d="M58.4338,77.765c-.9945,1.1981-1.989,2.3961-2.9823,3.5935-1.5661.4256-3.1334.8519-4.7031,1.2777-.149-.8202-.2955-1.6397-.442-2.4593,1.232-.8828,2.4639-1.7656,3.6955-2.6492,1.4617-.8735.8255-2.4727,1.2792-3.6945,1.3038-.0961,2.1977.3545,2.4917,1.7426.1574.7431.4367,1.4603.661,2.1892Z"/>
  <path class="cls-1" d="M62.8606,73.874c-.2052-.0315-.4114-.058-.6156-.0952-1.5516-.2831-2.8064-.8526-2.5607-2.776.0211-.1648.2585-.4119.4194-.4323,1.9578-.2482,2.4345,1.0966,2.7435,2.6038.0416.2031.0658.4099.098.615,0,0-.0847.0847-.0847.0848Z"/>
  <path class="cls-10" d="M57.4741,14.2197c.1177-.3644.2223-.7324.3131-1.1048,1.0627.6978.7469,1.0065-.3131,1.1048Z"/>
  <path class="cls-4" d="M88.3746,106.4115c1.4388.3829,2.4422,1.2381,3.172,2.5622.3557.6454,1.0972,1.0781,1.664,1.6068,1.2435.7892,2.4868,1.5787,3.7303,2.3681-2.6731-.0851-5.3476-.1395-8.0187-.2669-1.6207-.0772-3.2359-.2672-5.2024-.4366-.3882,1.5933-.7141,2.9307-1.0424,4.2668-1.6155.1158-3.2286.2329-5.0065.362-.6935-1.6028-1.0892-3.0273-1.875-4.1879-.7632-1.1271-1.9264-1.9834-3.0794-3.122,3.8453-.8342,7.4187-3.0287,11.2501-.7001,1.5894-.8843,2.9987-1.6684,4.408-2.4526Z"/>
  <path class="cls-4" d="M93.2395,119.3425c-1.6682-1.0244-3.1337-2.28-1.9676-4.4059.8085-1.4741,3.5289-1.0815,5.3366.7581.5046.5136.558,1.4704.8203,2.2237-1.1155,1.2969-2.652,1.3616-4.1893,1.4242Z"/>
  <path class="cls-4" d="M87.8298,100.6358c-.1659,1.0372-.3319,2.0745-.5034,3.1101-1.0243.1297-2.0446.3758-3.0613.3613-1.1104-.0157-2.0729-.5527-2.1441-1.7976-.0731-1.2775.8309-1.8461,1.9724-1.8716,1.2433-.0277,2.4907.1242,3.7364.1977Z"/>
  <path class="cls-4" d="M99.6324,110.1291c1.6118.0926,3.2553.0248,4.8238.3358.9984.198,1.7276,1.0559,1.4966,2.3004-.2247,1.2104-1.4591,1.9701-2.8341,1.5392-1.1612-.3639-2.2438-.9789-3.3618-1.4823-.0419-.8975-.0833-1.7953-.1246-2.6932Z"/>
  <path class="cls-9" d="M99.6324,110.1291c.0413.8979.0827,1.7957.1246,2.6932-.938.0419-1.8767.0842-2.8156.1265-1.2438-.7896-2.4871-1.5791-3.7306-2.3682.4822-.4783.9645-.957,1.4476-1.4359,1.5808-.0199,3.1608-.0395,4.7393-.0603.2442.3098.323.6584.2349,1.0447Z"/>
  <path class="cls-2" d="M34.7086,59.9614c.0634,2.5349.1267,5.0698.1886,7.6056-.5678.6056-1.0598,1.3119-1.717,1.7925-1.1698.8557-2.8426.2999-2.9069-1.0009-.1216-2.4607-.0352-4.9316-.0352-7.7314,1.7265-.2571,3.0985-.4614,4.4705-.6658Z"/>
  <path class="cls-9" d="M93.3756,100.2097c-.4665-.3422-.9329-.6844-1.3991-1.0261.4665.3423.9328.6843,1.3991,1.0261Z"/>
  <path class="cls-9" d="M94.3369,106.6014c.0918.8433.1836,1.6866.2758,2.5294-1.5548-.6837-1.7178-1.5189-.2758-2.5294Z"/>
  <path class="cls-13" d="M50.3064,80.1768c.1465.8196.293,1.6391.442,2.4593-.1501.1283-.2971.2635-.456.3825-.9917.7423-2.052,1.4013-3.1028.2208-.3235-.3634-.4248-1.1114-.3264-1.6256.2252-1.1773,1.1824-1.4498,2.2497-1.4427.3979.0027.7957.0038,1.1936.0057Z"/>
  <path class="cls-1" d="M46.4409,75.0676c-.0839.4067-.0804.8639-.2776,1.2051-.1771.3065-.5556.625-.8821.6699-.2035.028-.6949-.4726-.666-.6822.045-.3271.3652-.7088.6731-.8825.3417-.1929.8005-.1784,1.2085-.2541.0002,0-.0558-.0561-.0558-.0561Z"/>
  <path class="cls-1" d="M44.1288,93.1522c.291-.5263.4683-.847.6457-1.1678.4163.282.8818.5189,1.2115.8799.0752.0825-.3673.8774-.4882.8567-.4685-.0801-.9034-.3568-1.3691-.5687Z"/>
</svg>