<?xml version="1.0" encoding="UTF-8"?>
<svg id="Layer_1" xmlns="http://www.w3.org/2000/svg" viewBox="0 0 152.8328 153.0819">
  <defs>
    <style>
      .cls-1 {
        fill: #92b63e;
      }

      .cls-2 {
        fill: #f37221;
      }

      .cls-3 {
        fill: #b0c486;
      }

      .cls-4 {
        fill: #737a73;
      }

      .cls-5 {
        fill: #c6dc63;
      }

      .cls-6 {
        fill: #d6df24;
      }

      .cls-7 {
        fill: #d1e3db;
      }

      .cls-8 {
        fill: #fff;
      }

      .cls-9 {
        fill: #f0eb97;
      }

      .cls-10 {
        fill: #9daeae;
      }

      .cls-11 {
        fill: #50803b;
      }

      .cls-12 {
        fill: #97873b;
      }

      .cls-13 {
        fill: #efea4a;
      }

      .cls-14 {
        fill: #4c6744;
      }

      .cls-15 {
        fill: #88c15f;
      }

      .cls-16 {
        fill: #f7e200;
      }

      .cls-17 {
        fill: #3c4b3e;
      }
    </style>
  </defs>
  <path class="cls-8" d="M26.5041,133.4856c.5862.5694,1.1726,1.1388,1.7588,1.7082,1.4761,1.9425,3.3619,3.3248,5.6626,4.1399l.0998.3848.251-.2086c.7967.4621,1.5935.9243,2.3902,1.3864,5.6627,4.5883,12.3843,6.8249,19.2788,8.6777.4503.164.9007.3279,1.3511.4918,1.2897.233,2.5794.4659,3.8691.699.8174.2455,1.6349.491,2.4523.7365l3.8206.5373c2.8662.9294,5.7511,1.5342,8.7308.5063,1.7726.642,3.5307.5432,5.278-.1037,6.3884.5911,14.9532-1.1656,21.3475-4.3787.9449-.3658,1.8898-.7317,2.8348-1.0975l.2744.2453s.1554-.396.1554-.3961c.661-.3352,1.3221-.6704,1.9832-1.0055l.409.207.2275-.4458c.5881-.3443,1.1762-.6887,1.7645-1.0332.2092-.0009.4476.0647.6235-.0123,9.5548-4.1865,17.4141-10.4758,23.4902-18.9702,5.0194-5.0803,8.4706-11.1245,10.9312-17.7779,1.8185-2.3718,2.8914-5.0409,3.1965-8.016,2.2804-4.6434,2.7506-9.6847,3.2381-14.7223.2079-.5837.555-1.1562.6038-1.7529,2.2024-26.9598-7.5111-49.0222-28.1375-66.1131C107.0947,2.8419,86.7543-1.861,64.6879.6384c-6.6484.7531-13.1861,2.3997-19.1043,5.8121-6.5354,2.402-12.1329,6.3483-17.5618,10.5917-1.6294,1.2735-3.3934,2.3747-5.0957,3.5549l-.0659-.2188.1882.1319c-.9546,1.3504-1.7722,2.8279-2.8872,4.0296-5.2859,5.6972-9.5646,12.1093-12.8763,19.0765-3.7446,7.8774-6.4002,16.1416-6.5708,25.0068-.0547.8612-.1094,1.7223-.1642,2.5835-1.2301,8.1105-.2876,16.0621,1.7516,23.9334-.5333,1.6069.2802,2.8004,1.2152,3.9566,1.9341,7.294,5.1638,13.9738,9.5378,20.1113,3.6608,5.5074,7.6517,10.7045,13.4031,14.2456l.0466.0323Z"/>
  <path class="cls-14" d="M105.6294,146.9651c-.945.3658-1.8899.7317-2.8349,1.0976-.63-.4224-1.26-.8448-1.8884-1.2658.6443-.7664,1.2549-1.5643,1.9395-2.2926.5617-.5976,1.6021-1.0194,1.7588-1.6788,1.0414-4.3792,1.9751-8.8032-.0235-13.3782-6.0034,1.9757-11.7253,3.8456-17.4329,5.758-.568.1902-1.0486.6408-1.7072,1.0576-.4048,1.9777-.9526,3.9972-1.199,6.0528-.2234,1.8631-.1181,3.7656-.1578,5.6507-.0597,1.9742-.4121,3.7761-2.637,4.4749-1.7473.6469-3.5054.7457-5.2775.1045-2.849-1.2179-5.8-.6932-8.7313-.507-1.2735-.1791-2.547-.3582-3.8204-.5373-.8174-.2455-1.6349-.491-2.4525-.7366-1.2897-.233-2.5794-.4659-3.8689-.6986-.4503-.1639-.9007-.3279-1.3512-.4921-6.8944-1.8529-13.616-4.0894-19.2787-8.678,1.3382-.0613,2.6765-.1224,4.0147-.1835,5.2241,1.5708,5.217,1.5495,10.793-.3083,1.7904-.5966,3.6244-1.0649,5.4464-1.5634,6.6844-1.8288,13.4304-3.4577,20.0463-5.5071,12.8376-3.9766,25.5054-8.4904,38.5312-11.8765,3.1962-.8309,6.2044-2.3846,9.2991-3.606l1.7673-1.2619c.136.1573.2519.4265.4111.4551,2.5161.4529,9.7348-1.3412,11.5579-2.9743.219-.1962-.1414-1.0391-.2332-1.5822.5242-.2929,1.0214-.7593,1.5775-.8455,1.5092-.234,2.0435-1.1536,2.1075-2.5271.4225-.4259.8449-.852,1.2673-1.278.7452-.0203,1.4904-.0407,2.2356-.061-2.4604,6.6532-5.9117,12.6973-10.9312,17.7777-1.0809-.0742-2.1616-.1486-3.2423-.223.2507-.7701.6309-1.5249.7232-2.3136.1598-1.3645-.7059-2.5389-1.4006-2.0864-.5484.3573-.9731,1.1735-1.0968,1.8509-.1929,1.0572.2328,1.9928,1.3285,2.4613-.3799,2.3367-1.1754,4.2471-4.0891,3.9848,1.1375-2.0077,2.2727-4.0156.1977-6.5989-5.7127.3935-10.9543,2.7555-16.345,4.505-.447,3.872-.9308,7.3535-1.1985,10.8515-.0719.9406.5133,1.9316.7969,2.8994.0706,1.2173.1413,2.4345.2119,3.6518-.5881.3443-1.1762.6887-1.7642,1.0332-.2785-.0965-.4908-.0169-.6366.2386-.661.3352-1.3221.6704-1.9829,1.0058.0002.0002-.43.1506-.43.1506ZM70.1165,148.2178l2.1304.0984c.9493.266,2.0348.9406,2.8094.6825.7666-.2555,1.5734-1.3827,1.7437-2.2491.5125-2.6068,1.1183-5.2773.1638-7.9843-.7765-.0733-1.4222-.3033-1.9689-.1588-4.0252,1.0642-8.0382,2.1772-12.0369,3.3372-.9877.2864-2.0137.6605-2.8251,1.2606-.5853.4329-1.1793,1.3201-1.1532,1.9804.0252.6398.7044,1.5261,1.3265,1.8241,3.1102,1.4904,6.4639,1.4035,9.8103,1.209ZM79.8185,148.2178c-.0996-.1415-.199-.283-.2986-.4246-.1247.1173-.3711.315-.3551.3392.1334.2016.315.3712.4822.5505.0572-.155.1143-.3101.1715-.4651Z"/>
  <path class="cls-4" d="M45.5836,6.4505c5.9182-3.4124,12.4559-5.059,19.1043-5.8121,22.0664-2.4994,42.4068,2.2035,59.7013,16.5338,20.6264,17.0909,30.3399,39.1532,28.1375,66.1131-.0488.5967-.3958,1.1691-.6037,1.7526-.873-.2109-1.746-.4215-2.619-.632-.097-2.7278.2002-5.5449-.3928-8.1602-.7116-3.1389-.8324-6.2315-.77-9.385-.7432-3.8265-1.3962-7.6732-2.2525-11.4743-1.0661-4.7319-2.9599-8.9845-7.5581-11.4194-.1425-.0755-.172-.3645-.2541-.554.7655-.1357,1.5311-.2714,2.7053-.4796-1.3217-2.1716-2.4378-3.9165-3.4666-5.7115-3.808-6.644-9.0658-11.9967-14.9575-16.7711-.7886-.6391-1.8478-.9446-2.7817-1.4045-.3558-.296-.7116-.5919-1.0675-.8879-4.9438-3.8985-10.421-6.8348-16.3053-9.037-.7611-.8362-1.6171-1.1751-2.7669-.7651-.5024.1792-1.3995.2962-1.632.0252-2.2839-2.6624-5.5521-2.4557-8.5382-3.1576-7.412-1.7426-14.9052-1.2126-22.3907-.9838-2.5254.0771-4.9181.6427-6.9021,2.3554-2.8699.062-5.7394.1242-8.6088.1864-1.927-.1105-3.854-.221-5.781-.3314Z"/>
  <path class="cls-17" d="M13.0544,119.2078c-4.3739-6.1375-7.6037-12.8173-9.5375-20.1109.7313-.5566,1.4622-1.1136,2.1908-1.6706.6775.1796,1.3576.3589,2.0375.5382q1.2116,2.278,4.0678.9092c5.381,1.408,10.8746,1.4458,16.3796,1.3435l.0428.0367c.4056.4126.8113.8252,1.2169,1.2379,2.1246-.4259,4.2491-.8518,6.3737-1.2778.5044.8515.8067,2.0077,1.5492,2.5005,2.8019,1.8595,5.964,1.5959,9.0139.8006.8245-.215,1.3919-1.4153,2.0774-2.1635.8639.4634,1.7279.9267,2.591,1.3903-.1368.9888-.2727,1.9774-.3946,2.8639q-4.4202,1.5426-6.2266,4.0032c.9333.7059,1.8657,1.4111,2.7981,2.1163-6.1838,1.6174-12.3106,3.3795-18.7494,3.9385-3.8706.3361-7.6673,1.5219-11.4972,2.326-1.3111.406-2.6222.812-3.9334,1.218Z"/>
  <path class="cls-17" d="M126.5645,116.5894c-.5891.4206-1.1782.8412-1.7712,1.2617-.0039-.0002-.4522-.3168-.4522-.3168-1.2867-1.1933-2.54-1.2102-3.7553.1068-3.3627.7714-6.7255,1.5428-10.0882,2.3142-.7549-2.3722-1.5098-4.7443-2.2646-7.1165-.1332-2.4933-.2664-4.9867-.3997-7.48.1835-.5979.2048-1.5745.5763-1.7336,2.8631-1.2259,5.7187-2.9045,8.7206-3.2746,5.1897-.6396,9.857-3.7031,15.2676-3.0752.3619.0421.7587-.3371,1.1568-.4668,3.7792-1.2324,7.547-2.5041,11.3557-3.6384.8766-.261,1.8973-.0385,3.0469-.0385.2737,2.4929.5007,4.5607.7277,6.6285-.3051,2.9751-1.378,5.6442-3.1965,8.0161-.7453.0204-1.4905.0408-2.2351.0607-.6855-4.4329,2.8064-7.7212,3.5251-11.6692-2.5613-2.089-4.638-.3225-6.6916.3056-2.6087.7979-3.7154,2.0769-2.9947,4.6411.9018,3.2084-.211,6.1588-.1212,9.2203,0,0-.0283.0269-.0283.0269-.2883-.0658-.5803-.095-.876-.0875-1.9111-2.5656-1.6176-5.5681-1.7235-8.5037-.0357-.9906.0015-2.1675-1.9742-2.2398-.3978,4.4646-1.5436,8.857-.6638,13.419-.3384.4053-.6769.8105-1.0155,1.2158-1.375.8078-2.75,1.6157-4.125,2.4237ZM112.0616,110.0865c3.4515-.7187,6.0765-1.2653,8.78-1.8283.8879,1.7201,1.6177,3.4442,2.6305,4.9817.6276.9527,1.8783,1.0531,2.7959.3853.8036-.5848,1.5303-1.4214,1.992-2.3033,1.7431-3.3294,1.3704-6.8108.6713-10.6457-6.0043.9629-11.2704,3.3689-16.8698,5.1531v4.2572Z"/>
  <path class="cls-14" d="M13.0544,119.2078c1.3112-.406,2.6223-.812,3.9335-1.2181.9799,2.3819,2.6941,4.0667,4.6831,5.284,6.3549-1.4714,12.4549-2.7854,18.5016-4.3113,6.2544-1.5784,12.4568-3.3626,18.6782-5.0556,2.7415-.7536,5.4867-1.5084,8.2318-2.2632,1.0302-.1562,2.0982-.1884,3.0843-.4893,5.02-1.5322,10.0188-3.1338,15.0251-4.7111.8334.3787,1.6668.7574,2.5003,1.136-.6515,1.2998-1.8926,1.4031-3.1239,1.5784-1.5065.2143-1.9117,1.3497-2.0881,2.6419-.7635,1.2352-1.5271,2.4706-2.2907,3.7058-.1593-1.6887-1.0653-2.6093-2.7782-2.6999-2.2884-1.685-2.7627-1.5164-3.6537,1.2994-.3725.0326-.7455.0434-1.1192.0323-6.3583.9106-12.5453,2.4258-18.6322,4.8481.2988,1.1936.4973,1.9867.6967,2.7795-.824-.032-1.6486-.0636-2.4733-.0951-.8288-1.1759-1.9674-1.4331-3.177-.8075-1.0489.5425-1.9772,1.3178-2.9588,1.9902-5.5606,1.5512-11.1311,3.0682-16.6753,4.6761-1.4977.4343-2.5004,1.4545-2.4131,3.1916-.1825.9112-.3652,1.8222-.5478,2.7333-5.7515-3.5411-9.7424-8.7382-13.4032-14.2455Z"/>
  <path class="cls-14" d="M45.5836,6.4505c1.927.1104,3.854.2209,5.7772.3303-.0497.8255-.0956,1.6522-.1415,2.4788-2.1618-.5798-4.2092-.0083-5.9934,1.0598-4.7963,2.8707-9.5076,5.8862-14.1926,8.9363-.6278.4086-.909,1.3494-1.3507,2.0438.8527.9997,1.6253.5966,2.379-.1359,2.0594-.6817,4.0478-.3089,6.0137.4043-.3754,1.115-.7511,2.2304-1.1267,3.3458-1.3852-.5009-2.7557-.9335-3.6561.7948-.8479.3955-1.6958.7909-2.5436,1.1863-.9627-1.2429-1.9254-2.4858-3.0991-4.0009-2.4354,1.9748-4.6717,3.6852-6.7647,5.5559-.5424.4847-.6356,1.4719-.935,2.2283-2.9335.4946-2.7087,3.0299-3.2692,5.0578-.4199.3359-.8399.6719-1.2599,1.0078-3.384,3.207-4.9868,7.3972-6.3712,11.6868-.1675.5188.1503,1.1941.2431,1.7968.2332,1.8353-.4489,3.275-1.8885,4.394-1.6637,1.2931-1.9849,3.1255-2.0212,5.0694-1.3595.9834-1.1207,2.461-1.1889,3.8436-.4301.8747-1.0858,1.712-1.2379,2.6325-.2326,1.4079-.8165,2.2525-2.2423,2.4558.1706-8.8648,2.8262-17.129,6.5708-25.0064,3.3117-6.9672,7.5903-13.3793,12.8763-19.0765,1.115-1.2017,1.9325-2.6792,2.8846-4.0289-.0025.0007-.1197.0862-.1197.0862,1.7023-1.1802,3.4663-2.2814,5.0957-3.5549,5.429-4.2434,11.0265-8.1898,17.5618-10.5917Z"/>
  <path class="cls-14" d="M148.6848,99.7603c-.2271-2.0678-.454-4.1355-.7277-6.6285-1.1496,0-2.1703-.2225-3.0469.0385-3.8088,1.1343-7.5765,2.406-11.3557,3.6384-.3981.1296-.7949.5088-1.1568.4668-5.4106-.628-10.0779,2.4355-15.2676,3.0752-3.0019.3701-5.8575,2.0487-8.7206,3.2746-.3715.159-.3928,1.1356-.5761,1.7336-.3751.0005-.7503.0058-1.1253.0158-.4813-.3404-1.12-1.0751-1.4178-.956-1.6745.6686-3.796.3484-4.983,2.1304-2.9818-.0065-5.9635-.013-8.9442-.0193-.0751-.5297-.1513-1.0596-.2257-1.587.919-.455,1.8362-.9125,2.7535-1.37,5.4588-1.4189,10.8536-3.1977,16.3895-4.1835,12.3937-2.2069,24.3578-5.9177,36.319-9.6813.4283-.1347.6914-.7945,1.3881-1.6451-5.3457,1.2464-10.1466,2.3659-14.9475,3.4853.6996-1.6319,1.9651-2.3301,3.6849-2.7725,2.7166-.6987,5.3368-1.7724,7.9978-2.6874,1.7139-.0525,3.5259.1624,4.5814-1.6824.873.2105,1.746.4211,2.619.632-.4875,5.0379-.9578,10.0792-3.2382,14.7226Z"/>
  <path class="cls-4" d="M131.3148,125.3313c1.0807.0744,2.1615.1488,3.2423.223-6.0761,8.4943-13.9353,14.7836-23.4901,18.9702-.1759.0771-.4143.0114-.6236.0124-.0708-1.2172-.1415-2.4345-.211-3.652,1.7612-1.0373,3.616-1.944,5.2626-3.1377,3.8152-2.766,7.5298-5.6707,11.2852-8.519,2.9136.2623,3.7091-1.6482,4.0871-3.9825-.002.0024.4476.0855.4476.0855Z"/>
  <path class="cls-14" d="M2.3014,95.1399c-2.0392-7.8713-2.9818-15.8229-1.7516-23.9335,1.2141.8137,1.7019,2.6996,3.6306,2.4585l.6292-.0041.6292.0063c-.0597.4074.0184.9201-.2001,1.2061-2.7357,3.58-2.766,7.5624-2.0021,11.5433,1.1933,1.3403,3.4879,1.1555,3.5747,3.3361-1.8763,1.2367-2.1348,3.1973-2.323,5.1894-.7289.0661-1.458.132-2.1869.198Z"/>
  <path class="cls-4" d="M81.4472,152.4413c2.2249-.6988,2.5773-2.5007,2.6364-4.4734,3.4647.9014,6.7529-.4846,10.1255-.7821,2.3194,1.7877,4.5452,1.2975,6.7264-.2765l-.0309-.1138c.6299.4224,1.2599.8448,1.8899,1.2672-6.3941,3.213-14.9589,4.9697-21.3474,4.3786Z"/>
  <path class="cls-17" d="M26.4576,133.4534c.1826-.9111.3653-1.8222.5475-2.7349,2.6656,1.0865,5.3116,2.0293,7.5756,4.0782,1.7691,1.601,4.2948,2.3661,6.4844,3.5026-.128.8044-.2558,1.609-.3839,2.4134-1.3382.0611-2.6765.1222-4.0147.1835-.7968-.4619-1.5936-.924-2.39-1.3856.0003.0005-.3511-.1769-.3511-.1769-2.3007-.8151-4.1865-2.1974-5.6624-4.1397-.1134-1.056-.5139-1.8169-1.759-1.7083,0,0-.0466-.0323-.0465-.0323Z"/>
  <path class="cls-17" d="M4.1804,73.6648c-1.9288.2411-2.4165-1.6448-3.6306-2.4585.0548-.861.1095-1.7222.1642-2.5835,1.4259-.2036,2.0097-1.0481,2.2423-2.4561.1521-.9205.8078-1.7578,1.238-2.6322-.0046,3.3769-.0093,6.7535-.014,10.1301Z"/>
  <path class="cls-4" d="M67.4384,152.0387c2.9313-.1862,5.8823-.7108,8.7313.507-2.9802,1.0271-5.8652.4224-8.7313-.507Z"/>
  <path class="cls-11" d="M2.3014,95.1399c.7289-.066,1.458-.132,2.1843-.1975-.0027.0005-.2237.124-.2237.124.3904.4337.7808.8675,1.1712,1.3012.2342.3157.3265.6686.2769,1.0585-.731.5571-1.4619,1.1142-2.1932,1.6708-.9353-1.1566-1.7489-2.3501-1.2156-3.9571Z"/>
  <path class="cls-14" d="M26.5041,133.4856c1.2451-.1086,1.6456.6523,1.759,1.7083-.5864-.5695-1.1727-1.1389-1.759-1.7083Z"/>
  <path class="cls-4" d="M61.1655,150.7649c.8175.2455,1.6351.4911,2.4525.7366-.8176-.2455-1.6351-.4911-2.4525-.7366Z"/>
  <polygon class="cls-4" points="22.926 20.5971 23.0457 20.5109 22.8601 20.3783 22.926 20.5971"/>
  <polygon class="cls-14" points="33.9255 139.3337 34.2766 139.5105 34.0253 139.7185 33.9255 139.3337"/>
  <path class="cls-4" d="M108.0424,145.8088c.1458-.2556.358-.3351.6366-.2387,0-.0002-.2276.4456-.2276.4456l-.409-.207Z"/>
  <polygon class="cls-4" points="105.6294 146.9651 106.0595 146.8145 105.9039 147.2104 105.6294 146.9651"/>
  <path class="cls-4" d="M55.9453,149.5741c.4505.1641.9009.3282,1.3512.4921-.4505-.1642-.9009-.3281-1.3512-.4921Z"/>
  <path class="cls-10" d="M40.6813,140.7126c.128-.8044.2559-1.609.3839-2.4134,0,0-.1646-.0536-.1646-.0536,3.9136.7175,7.652-.0647,11.3351-1.3232.4448-.0625.8893-.1248,1.3338-.1871,5.0088-1.252,10.0177-2.5039,15.0271-3.7557,3.8115-.7961,7.6381-1.5268,11.4222-2.4347.9463-.227,1.7557-1.0244,2.6281-1.5598,6.325-.8409,12.3701-2.517,17.8207-5.9679,3.3434-1.0207,6.6867-2.0413,10.03-3.062,3.3627-.7714,6.7255-1.5428,10.0877-2.3136,1.2516-.0354,2.5037-.0714,3.7559-.1074,0,0,.4483.3167.4522.3168-3.0908,1.2215-6.0989,2.7752-9.2951,3.6061-13.0258,3.3861-25.6936,7.8999-38.5312,11.8765-6.6159,2.0493-13.3619,3.6783-20.0463,5.5071-1.8219.4985-3.656.9668-5.4464,1.5634-5.576,1.8579-5.5689,1.8792-10.793.3083Z"/>
  <path class="cls-3" d="M94.2091,147.1858c-3.3725.2975-6.6608,1.6836-10.1255.7821.0402-1.8867-.0651-3.7892.1583-5.6523.2464-2.0556.7942-4.075,1.199-6.0528.6586-.4168,1.1392-.8674,1.7072-1.0576,5.7076-1.9124,11.4295-3.7823,17.4329-5.758,1.9986,4.575,1.0649,8.999.0235,13.3782-.1567.6594-1.1971,1.0812-1.7588,1.6788-.6846.7284-1.2952,1.5262-1.9395,2.2926-.0015-.0014.0293.1124.0275.111-1.1044-.1913-2.2156-.5691-3.307-.5192-1.149.0526-2.2792.5143-3.4175.7972ZM88.0036,137.0981c0,2.2518-.2016,3.7092.0583,5.0791.2464,1.2991,1.387,2.3162,2.7114,2.1431,3.0549-.399,6.0744-1.0808,9.0959-1.7073.352-.0731.7097-.4668.9235-.802,1.5927-2.4964,2.9344-5.0472,1.2129-8.2549-5.038-.6137-8.5279,4.0994-14.002,3.5421Z"/>
  <path class="cls-3" d="M126.7802,129.2282c-3.7553,2.8484-7.4699,5.7531-11.2852,8.519-1.6466,1.1937-3.5014,2.1003-5.2626,3.1377-.2846-.9676-.8699-1.9585-.7979-2.8991.2677-3.498.7515-6.9795,1.1985-10.8515,5.3907-1.7495,10.6322-4.1115,16.345-4.505,2.075,2.5832.9397,4.5911-.1977,6.5989ZM114.9426,133.03c2.9284.1992,4.6636-1.8847,6.4699-3.7878.1981-.2089.1341-.8218-.0128-1.1579-.1388-.3177-.5851-.7683-.8311-.7311-2.6366.3994-5.2946.8653-6.8056,3.4367-.244.4151-.1328,1.1453.039,1.6541.089.2634.6708.3606,1.1406.586Z"/>
  <path class="cls-3" d="M70.1165,148.2178c-3.3464.1945-6.7001.2814-9.8103-1.209-.6221-.298-1.3013-1.1842-1.3265-1.8241-.0261-.6603.5679-1.5475,1.1532-1.9804.8114-.6,1.8375-.9741,2.8251-1.2606,3.9987-1.16,8.0116-2.273,12.0369-3.3372.5467-.1445,1.1924.0855,1.9689.1588.9545,2.7069.3486,5.3774-.1638,7.9843-.1703.8664-.9771,1.9936-1.7437,2.2491-.7746.258-1.8601-.4165-2.8068-.6824-.126-1.9604,2.4321-3.707.5268-5.8204-5.1881.5569-5.332.6343-6.2367,3.408,1.177.7614,2.3769,1.5377,3.577,2.3139Z"/>
  <path class="cls-11" d="M136.9709,110.3351c-.0898-3.0616,1.023-6.0119.1212-9.2204-.7207-2.5642.386-3.8432,2.9947-4.6411,2.0536-.6282,4.1303-2.3946,6.6916-.3056-.7188,3.948-4.2106,7.2363-3.5251,11.6692-.423.4264-.8455.8524-1.2674,1.2778-1.5513.899-3.1615,1.5592-5.0149,1.2202Z"/>
  <path class="cls-5" d="M70.1165,148.2178c-1.2-.7763-2.4-1.5525-3.577-2.3139.9047-2.7737,1.0486-2.8511,6.2367-3.408,1.9053,2.1135-.6528,3.86-.5268,5.8204-.7127-.0329-1.4228-.0657-2.1329-.0985Z"/>
  <path class="cls-10" d="M126.5645,116.5894c1.375-.8079,2.75-1.6158,4.1247-2.4237,2.1222-.5712,4.2446-1.1426,6.367-1.7138,0,0,.6194.1103.6194.1103,0,0,.6248-.0742.6247-.0742.0918.5431.4523,1.3859.2332,1.5822-1.8231,1.6331-9.0418,3.4272-11.5579,2.9743-.1591-.0286-.2751-.2979-.4111-.4551Z"/>
  <path class="cls-10" d="M131.3148,125.3313s-.4496-.0831-.4476-.0855c-1.0938-.4709-1.5195-1.4066-1.3265-2.4637.1236-.6773.5484-1.4936,1.0968-1.8509.6947-.4524,1.5603.7219,1.4006,2.0864-.0923.7887-.4726,1.5435-.7232,2.3136Z"/>
  <path class="cls-17" d="M138.3003,112.4881l-.6248.0742s-.6194-.1103-.6196-.11c-.038-.6966-.0756-1.3935-.1134-2.0904,0,0,.0284-.0269.0283-.0269,1.8534.3391,3.4636-.3212,5.0149-1.2201-.0645,1.3741-.5988,2.2937-2.108,2.5277-.5561.0862-1.0533.5526-1.5774.8455Z"/>
  <path class="cls-4" d="M79.8185,148.2178c-.0572.155-.1143.3101-.1715.4651-.1672-.1793-.3488-.3489-.4822-.5505-.016-.0242.2304-.2219.3551-.3392.0996.1415.199.283.2986.4246Z"/>
  <path class="cls-16" d="M102.2033,9.1215c5.8843,2.2022,11.3615,5.1385,16.2994,9.0349-2.4195.0044-4.8331.011-7.2468.0174-.1036-.5639-.2071-1.1278-.3108-1.6918-.4675.2816-1.0232.4846-1.3705.8735-.2159.2419-.1167.7652-.1588,1.1622l.365-.0265c-.6026-.1135-1.3562-.5073-1.7758-.2813-.831.4475-1.8998,1.1253-2.1087,1.9104-.3843,1.4455,1.2775,1.2236,2.0499,1.7408q.0106,4.869,4.1753,5.7288c.5922.1226,1.2742.1355,1.7486.4496,2.974,1.9695,5.3096.416,8.0006-1.0923-.8151-2.8066-1.5549-5.3537-2.2947-7.9009.9339.4599,1.9931.7654,2.7817,1.4045,5.8917,4.7745,11.1496,10.1271,14.9575,16.7711,1.0288,1.795,2.1449,3.5399,3.4666,5.7115-1.1743.2082-1.9398.3439-2.7053.48,0,.0003.1649-.0265.1649-.0265-.4862-1.1612-1.3593-1.5736-2.5722-1.3283l.0571.0389c-.9129-2.9553-3.3509-2.6729-5.6596-2.665-1.8013.1891-3.6025.3782-5.4038.5673,2.0439-2.5134,4.6258-4.7749,4.3228-9.4415-2.2905,2.9989-3.7463,5.6024-5.8539,7.4712-2.1725,1.9266-4.9726,2.9518-8.1197,2.9086-3.0423-.0417-5.6224-.9105-8.3142-2.3338-2.7983-1.4798-3.2879-4.6245-5.8356-6.9736-.279,1.3634-.4336,2.1192-.5883,2.8749-2.7595-2.1357-1.83-4.7042-.8541-7.2781.164-.4193.3281-.8386.4922-1.2579-.1248-.8155-.2497-1.631-.3746-2.4465-.1708-.4584-.3416-.9168-.5123-1.3752,1.3547-1.7093,2.7095-3.4185,4.0636-5.1292,1.2266-.2534,2.4565-.5023,2.6295-2.3003-.9954-.5669-2.0536-1.1697-3.1118-1.7725-.1344-1.2748-.2688-2.5496-.4032-3.8244Z"/>
  <path class="cls-6" d="M149.304,84.4058c-1.0555,1.8448-2.8675,1.6299-4.5819,1.683.67-.9865,1.3404-1.9734,2.0367-2.9984-1.3168-1.9172-2.2042-3.9068-3.6919-5.2121-2.2467-1.9715-3.6156-4.4325-5.0433-6.9196.232-2.7959-2.5569-4.0614-3.2414-6.3931.0317-.2632.0269-.5263-.0157-.7885.6316-.6393,1.0238-1.2393-.2578-1.5632l.1273-.057c-.4836-1.0039-.9673-2.0079-1.4509-3.0118-.9853-1.3185-1.47-3.1321-3.4406-3.4768-.5036-.7855-1.0059-1.5718-1.5088-2.3575-.3502-.4798-.6999-.9604-1.0495-1.441-.4843-.7754-.9687-1.5508-1.453-2.3263-.1852-.9018-.3705-1.8037-.5558-2.7055,1.3903.0393,2.7807.0786,4.1709.1178.5742,1.0541,1.0226,2.2117,1.772,3.1215.4163.5052,1.3349.5966,2.0271.8747l-.0098-.0211c-.2889,2.2648.2503,4.1,2.5943,4.9989l.0195.034c.4007.5543.8014,1.1085,1.2022,1.6628l.0637.5558c-.1895,1.7917.6092,2.7428,2.4145,2.8377.7144.7489,1.6784,1.38,2.0975,2.2682,1.3589,2.8798,3.6397,3.8054,6.612,3.5725-.0624,3.1535.0584,6.2461.77,9.385.593,2.6153.2957,5.4324.3928,8.1602Z"/>
  <path class="cls-7" d="M102.2033,9.1215c.1344,1.2748.2688,2.5496.4045,3.8253-.6516.4253-1.3019,1.1976-1.9582,1.2026-1.4432.0112-2.8928-.3442-4.3336-.5872-6.615-1.1161-13.2277-2.245-19.8419-3.3684-3.555-2.0543-7.4446-2.4436-11.4413-2.3006l-.2063.0417c-1.355-1.5828-3.2332-1.2376-4.9865-1.3528l.1338.0134c1.9836-1.7127,4.3763-2.2784,6.9017-2.3554,7.4855-.2288,14.9788-.7588,22.3907.9838,2.986.702,6.2543.4952,8.5382,3.1576.2325.271,1.1297.154,1.632-.0252,1.1498-.41,2.0059-.0711,2.7669.7651Z"/>
  <path class="cls-7" d="M148.1413,66.8606c-2.9723.233-5.2531-.6926-6.612-3.5725-.4191-.8882-1.383-1.5194-2.0969-2.2679-.8046-.9457-1.6099-1.8919-2.4151-2.838,0,0-.0637-.5558-.0643-.5589-.4009-.5553-.8013-1.1075-1.2016-1.6597,0,0-.0195-.034-.0196-.034.1888-2.2128-.175-4.139-2.5943-4.9989,0,0,.0098.0211.0099.0211.2298-4.0433-2.5119-6.4546-4.9598-9.0273.5361-.5083,1.0722-1.0166,1.6083-1.5248,1.9768.5659,3.9536,1.1319,5.9304,1.6978l-.0571-.0389c.4478,1.2356,1.4222,1.452,2.5722,1.3283,0,0-.1649.0269-.1649.0265.0822.1891.1117.4781.2541.5536,4.5981,2.4348,6.492,6.6875,7.5581,11.4194.8563,3.801,1.5093,7.6478,2.2525,11.4743Z"/>
  <path class="cls-8" d="M119.576,19.0464c.7398,2.5472,1.4796,5.0943,2.2947,7.9009-2.6911,1.5083-5.0266,3.0618-8.0006,1.0923-.4743-.3141-1.1564-.327-1.7486-.4496q-4.1642-.8622-4.1753-5.7288s-.04.0233-.04.0233c1.5917-.2911,2.0952-1.2944,1.8326-2.7992.2084-.1843.2224-.3823.042-.594,0,0-.365.0265-.3695.0193.6118-.1171,1.2282-.2269,1.8446-.3367,2.4137-.0065,4.8273-.013,7.2468-.0175.3617.2981.7175.594,1.0733.89Z"/>
  <path class="cls-1" d="M51.2192,9.2596c.0459-.8267.0918-1.6533.1415-2.4789,2.8732-.061,5.7427-.1232,8.6126-.1853.0005,0-.1333-.0133-.1329-.0135,1.2803,1.8577,3.309.9579,4.9861,1.353,0,0,.2063-.0417.2056-.0417.0003.3936.0234.7859.0686,1.1769-1.2822.2502-2.9503-.4996-3.8242,1.512,1.8577,2.3899,4.7292,2.5835,7.1824,3.4192,6.2991,2.1459,12.6728,4.0733,19.0167,6.0881-1.6275-.0651-3.3129.1203-4.8723-.2397-5.8605-1.3532-11.6322-3.1295-17.5289-4.2751-5.1953-1.0094-10.0329-2.4556-13.8552-6.315Z"/>
  <path class="cls-11" d="M51.0584,102.7419c-.8639-.4634-1.7279-.9268-2.5916-1.3886-.1926-1.7729-1.1669-2.6395-2.9009-2.0865-1.7101.5453-3.3356,1.3559-4.9414,2.0263-1.0541-.7115-1.8302-1.4876-2.7561-1.7664-.5609-.1689-1.3536.4323-2.0422.6875-2.1246.4259-4.2491.8518-6.3733,1.2778-.4055-.4127-.8115-.8253-1.2173-1.2379,0,0-.0428-.0367-.0424-.0367.1527-1.386.9737-2.065,2.1963-2.7435,1.6217-.8999,2.0012-2.9458,1.381-4.9081-.5052-1.5985-2.0229-2.5252-3.9734-2.3791-1.8146.136-3.5181,1.5312-5.4805.3567-.3649-.2185-1.3296.0714-1.7049.4425-2.8054,2.7746-6.8916,4.1237-8.7984,7.888q-2.8561,1.3687-4.0651-.9102c1.2514-1.3785,3.0972-2.5636,3.6176-4.1761.9132-2.8292,2.9355-3.929,5.29-4.9299,3.1093-.8892,6.2911-1.5855,9.2901-2.7518,1.4122-.5491,2.4733-2.0012,3.6934-3.0441l1.4186-1.6658c2.0284-.2351,3.4682-1.1133,3.6631-3.3516.9394-.577,1.8789-1.1538,2.8183-1.7306.294-.2801.5879-.5603.8818-.8405,5.9012-3.4712,11.7738-6.9927,17.7202-10.3848,1.9628-1.1194,4.1164-1.9047,6.1833-2.8427,3.0481,2.8002,6.7594,3.9018,11.0228,4.6873.1413-1.4172.2381-2.3872.3348-3.3573,4.266,2.0676,6.6188,5.4078,6.7869,10.2008-2.6958,4.3352-5.3925,8.6699-8.0866,13.0061-.7675,1.2353-1.5571,2.4364-3.2411,2.4644-.4617-1.4563-.5527-2.874.4104-4.1935,1.353-1.8536,2.7841-3.6574,4.0259-5.5828,1.2935-2.0057,3.2395-3.7114,3.5315-6.4807-2.7177-1.0834-4.6173.8936-6.7971,1.1566-1.1449.138-2.2866.3023-3.2001.4242-1.1066-1.6456.8886-3.309-1.1693-4.5444-2.9173.3495-5.7434,1.6215-8.5815,2.9401-1.6857.7833-3.5544,1.9143-5.2551,1.7828-4.7628-.3682-8.4813,1.9721-12.3724,3.9563-.8207.4185-1.4198,1.2717-2.0568,1.8647,1.1192,2.2078,2.6313,3.4262,4.6774,3.176,4.8871-.5975,9.4895,1.3103,14.2918,1.382,1.2088.018,2.4479.4499,3.6073.872,2.9467,1.0725,5.8563,2.2472,8.7783,3.3766.1479,3.1958-2.1234,5.4743-3.1378,8.2312-1.7739,2.7665-3.5479,5.5329-5.642,8.7987.7928.5283,1.4811.9869,2.1693,1.4455-.7614,1.6999-2.4086,1.2717-3.7563,1.563-.743-1.696-2.274-1.5614-3.7411-1.662-.7421-.051-1.7641.0728-1.5896-1.2321,7.0596-3.6764,8.6466-6.0857,9.5602-14.9427-1.0819.5452-2.1694.7604-2.7036,1.4221-1.9615,2.4302-3.7977,4.9685-5.5612,7.5481-.9005,1.3172-1.9661,2.135-3.5713,2.1932Z"/>
  <path class="cls-7" d="M58.8547,113.9056c-6.2252,1.6942-12.4276,3.4784-18.682,5.0568-6.0467,1.5259-12.1467,2.8399-18.5016,4.3113-1.989-1.2173-3.7032-2.9021-4.6831-5.2841,3.8297-.8038,7.6265-1.9897,11.497-2.3257,6.4388-.5591,12.5656-2.3211,18.7495-3.9387,3.2394-.3844,6.4787-.7686,9.7216-1.1528.6353,1.1111,1.267,2.2221,1.8986,3.3331Z"/>
  <path class="cls-14" d="M11.813,98.8738c1.9068-3.7642,5.993-5.1134,8.7984-7.888.3753-.3712,1.34-.661,1.7049-.4425,1.9624,1.1745,3.6659-.2207,5.4805-.3567,1.9505-.1461,3.4682.7807,3.9734,2.3791.6201,1.9623.2406,4.0082-1.381,4.9081-1.2226.6785-2.0435,1.3575-2.1963,2.7435-5.5054.1022-10.9989.0644-16.3799-1.3436Z"/>
  <path class="cls-14" d="M56.9525,110.5722c-3.2393.3844-6.4786.7686-9.718,1.153-.9325-.7051-1.8649-1.4103-2.7982-2.1162q1.8064-2.4606,6.2266-4.0032c.1219-.8865.2579-1.8751.3946-2.8638,1.606-.0584,2.6716-.8762,3.5721-2.1934,1.7635-2.5795,3.5998-5.1178,5.5612-7.5481.5342-.6617,1.6217-.8768,2.7036-1.4221-.9136,8.857-2.5007,11.2663-9.5602,14.9427-.1744,1.3048.8476,1.1811,1.5896,1.2321,1.4671.1006,2.9981-.034,3.7405,1.6607-.571.3851-1.1414.7716-1.7119,1.1582Z"/>
  <path class="cls-2" d="M16.653,88.8577c-2.3521,1.0007-4.3744,2.1005-5.2876,4.9297-.5204,1.6125-2.3661,2.7976-3.6176,4.1761-.6826-.1783-1.3626-.3577-2.0401-.5372.052-.3901-.0403-.743-.2743-1.058-.3902-.4335-.7808-.8677-1.1714-1.3019,0,0,.221-.1235.2237-.124.1909-1.9926.4493-3.9532,2.3249-5.1882,3.6322-2.1349,7.2649-4.2714,10.8976-6.4079.1871.6327.3742,1.2654.5613,1.8982l-.0691-.1526c-1.2679.5397-.7379.9729.0823,1.3888-.5433.7923-1.0865,1.5846-1.6298,2.377Z"/>
  <path class="cls-14" d="M35.8261,100.2141c.6886-.2552,1.4814-.8564,2.0422-.6875.9259.2788,1.702,1.0548,2.7561,1.7664,1.6058-.6705,3.2313-1.481,4.9414-2.0263,1.734-.553,2.7083.3137,2.9009,2.0865-.6857.7466-1.2531,1.947-2.0776,2.162-3.0499.7953-6.212,1.0589-9.0139-.8006-.7425-.4928-1.0448-1.649-1.5492-2.5005Z"/>
  <path class="cls-14" d="M28.2354,100.254c.4059.4127.8118.8253,1.2173,1.2379-.406-.4128-.8117-.8253-1.2173-1.2379Z"/>
  <path class="cls-14" d="M110.4975,119.9553c-3.3434,1.0207-6.6867,2.0413-10.0307,3.0618-2.9094-.1685-5.7395-.0536-8.3823,1.4724-2.0527,1.1853-4.222,1.3661-6.7976.0789-.0272-3.1004-.054-6.1549-.0817-9.2092,1.7935.4307,3.5757,1.1333,5.3859,1.2144,1.7812.0797,3.5907-.4709,5.0004-.6859,2.8086,1.0238,3.0654,3.5908,4.3191,5.4906,1.5195-.3632,2.9054-.6946,4.2912-1.0258.3794-.8032.7589-1.6063,1.1385-2.4094.7191.1637,1.4382.3275,2.3191.528.2142-2.1042.3938-3.8682.5735-5.6323.7548,2.3722,1.5097,4.7443,2.2646,7.1165Z"/>
  <path class="cls-11" d="M112.0616,110.0865v-4.2572c5.5994-1.7842,10.8655-4.1902,16.8698-5.1531.6991,3.835,1.0718,7.3163-.6713,10.6457-.4618.8818-1.1885,1.7185-1.992,2.3033-.9177.6678-2.1683.5675-2.7959-.3853-1.0129-1.5376-1.7426-3.2617-2.6305-4.9817-2.7035.563-5.3285,1.1096-8.78,1.8283Z"/>
  <path class="cls-10" d="M131.7051,112.95c-.8798-4.562.266-8.9545.6638-13.419,1.9758.0724,1.9385,1.2493,1.9742,2.2398.106,2.9356-.1875,5.9381,1.7225,8.5039-.8661,1.8499-2.6904,2.1371-4.3606,2.6753Z"/>
  <path class="cls-10" d="M108.233,112.8388c-.1797,1.7641-.3593,3.5281-.5735,5.6323-.8809-.2006-1.6-.3643-2.319-.528.456-4.1895.9118-8.379,1.3676-12.5684.3751-.01.7503-.0154,1.1253-.0158.1331,2.4933.2663,4.9867.3996,7.48Z"/>
  <path class="cls-14" d="M131.7051,112.95c1.6702-.5381,3.4945-.8253,4.3606-2.6753.2967-.0077.5887.0215.877.0873.0377.6969.0754,1.3938.1134,2.0903-2.1222.5709-4.2446,1.1423-6.3667,1.7135.3388-.4053.6773-.8105,1.0157-1.2158Z"/>
  <path class="cls-14" d="M124.3411,117.5343c-1.2521.036-2.5043.072-3.7559.1074,1.2159-1.3176,2.4692-1.3008,3.7559-.1074Z"/>
  <path class="cls-11" d="M41.0651,138.2992c-2.1895-1.1365-4.7153-1.9016-6.4844-3.5026-2.264-2.0489-4.91-2.9917-7.5756-4.0782-.087-1.7355.9157-2.7557,2.4134-3.19,5.5442-1.6079,11.1147-3.1249,16.6734-4.6749,1.1344.2856,2.2706.5701,3.3892.8502v11.2815c-2.2957.6868-4.4554,1.2749-6.5693,1.9972-.7293.2492-1.3442.8325-2.0113,1.2633l.1645.0536Z"/>
  <path class="cls-11" d="M72.6385,114.1371c.3737.0111.7468.0003,1.1191-.0321,1.2179-.433,2.4359-.8664,3.6539-1.2997,1.7129.0906,2.6189,1.0112,2.7779,2.6991-.0003-.0008-.0008-.1017-.0008-.1017-.4212.6838-1.0252,1.3177-1.2274,2.0611-.4895,1.7992-.9339,3.6344-1.1283,5.4831-.1879,1.7879-.0407,3.6111-.0407,5.3246-4.1697,1.3806-4.2532,1.3864-5.271-1.6515-.2882-.8601-.5273-1.3393-1.4474-1.6867-2.1381-.807-3.6252-3.2209-6.5672-2.111-.8998.3396-2.3151-.6862-3.4943-1.0868.15-1.3214.6416-2.288,2.1333-2.5699,3.6717-.6939,7.0552-1.9829,9.4931-5.0286Z"/>
  <path class="cls-17" d="M72.6385,114.1371c-2.4379,3.0457-5.8214,4.3346-9.4931,5.0286-1.4917.2819-1.9833,1.2485-2.1324,2.5694-1.131.8506-1.2488,2.0904-1.1521,3.3322.1686,2.1648-.5024,4.0054-1.766,5.7338-.2663.3642-.0387,1.0894-.0387,1.8026,1.739.6933,3.2256.2195,4.8205-.3043,1.9383-.6366,4.0101-1.1622,5.7191.68-5.0088,1.252-10.0177,2.5039-15.0268,3.7563-.0209-1.6349-.0414-3.2702-.062-4.9056.3983-3.355.7966-6.71,1.195-10.065-.1986-.7932-.3971-1.5863-.6958-2.7799,6.0869-2.4223,12.2738-3.9375,18.6322-4.8481Z"/>
  <path class="cls-17" d="M85.2061,115.3589c.0269,3.0545.0536,6.1091.0809,9.2095,2.5756,1.2873,4.7449,1.1065,6.7976-.0789,2.6427-1.5259,5.4729-1.6409,8.3823-1.4724-5.4499,3.451-11.495,5.1272-17.8202,5.9687-.063-.4276-.1259-.8558-.1888-1.284l.0225-15.9024c.1764-1.2922.5815-2.4276,2.0881-2.6419,1.2313-.1753,2.4725-.2786,3.1238-1.5764,1.3416.0631,2.7061.2039,3.6698-1.0516,2.9818.0065,5.9635.013,8.9453.0194,0,0,.0033.0055.0033.0055-3.327,1.6475-6.8214,2.8532-10.4051,3.7746-2.6884.6914-4.512,2.0638-4.6994,5.0297Z"/>
  <path class="cls-10" d="M85.1921,106.4432c-5.0062,1.5773-10.0051,3.1789-15.0251,4.7111-.986.3009-2.0541.3331-3.0807.4888.1135-1.1764.2234-2.3523.3326-3.5288,5.8033-1.7975,11.7378-3.0274,17.7148-4.0719.0761.4647.1522.9293.2282,1.394-.0843.331-.1409.6666-.1699,1.0068Z"/>
  <path class="cls-17" d="M40.9005,138.2457c.6671-.4307,1.2821-1.0141,2.0113-1.2633,2.1138-.7223,4.2735-1.3103,6.5693-1.9972v-11.2815c-1.1186-.2801-2.2548-.5646-3.3892-.8502.9836-.6736,1.9119-1.4489,2.9607-1.9914,1.2096-.6256,2.3482-.3684,3.1773.808-.0561.8597-.1124,1.719-.1687,2.5783-1.2668,1.0521-1.0679,2.483-1.0025,3.8793-.0002,1.1866-.0005,2.3731-.0006,3.5597.3925,1.7451.7849,3.4902,1.1774,5.2353-3.6829,1.2582-7.4213,2.0405-11.3349,1.323Z"/>
  <path class="cls-5" d="M67.4195,108.1148c-.1099,1.1759-.2197,2.3517-.3333,3.5282-2.7487.7554-5.4939,1.5102-8.2354,2.2638-.6278-1.1122-1.2596-2.2233-1.8949-3.3344.567-.3867,1.1374-.7733,1.7083-1.1584,1.3482-.2899,2.9954.1383,3.7569-1.5617,0,0-.0561.0039-.0561.0039l5.0544.2586Z"/>
  <path class="cls-10" d="M82.4803,111.7994c-.0075,5.3008-.015,10.6016-.0218,15.9042-2.0566-1.0831-2.6074-2.896-2.5083-5.0646.1101-2.4107.1614-4.8241.2382-7.2363,0,0,.0005.1009.0008.1017.7639-1.2344,1.5275-2.4697,2.291-3.705Z"/>
  <path class="cls-4" d="M52.0612,124.2484c.0563-.8593.1126-1.7186.1687-2.5783.8245.031,1.6491.0626,2.4731.0946-.3992,3.3554-.7976,6.7104-1.1958,10.0653-.8163-.0476-1.6328-.0951-2.4492-.1427.0002-1.1866.0004-2.3731,0-3.5604,1.3066-1.0418,1.1629-2.4581,1.0032-3.8785Z"/>
  <path class="cls-12" d="M85.1921,106.4432c.029-.3402.0856-.6759.1675-1.0075,1.9237-.1656,3.8499-.3305,5.776-.4955.0762.5299.1524,1.0599.2274,1.5896-.9647,1.2553-2.3292,1.1145-3.6708,1.0514-.8333-.3807-1.6667-.7593-2.5001-1.138Z"/>
  <path class="cls-17" d="M77.4114,112.8054c-1.218.4333-2.436.8666-3.6539,1.2997.8912-2.816,1.3654-2.9847,3.6539-1.2997Z"/>
  <path class="cls-11" d="M4.1804,73.6648c.0047-3.3766.0094-6.7533.014-10.1301.0681-1.3829-.1707-2.8606,1.1895-3.8432.1481,1.4329.2955,2.8649.4427,4.295,2.3441,1.3846,4.4128,2.7697,6.8844,3.1905,1.9611-1.0646,3.7945-2.0259,5.577-3.0739.2024-.119.1189-.7246.1794-1.1941-.5807-.1626-1.1896-.5127-1.7617-.4602-1.8448.169-3.6759.4863-5.4915.7434-2.1118-2.6522-2.6282-4.6373-1.3863-6.6743.4844-.7945,1.5345-1.5865,2.42-1.7096,1.1659-.162,2.4196.4647,3.6434.5031.7242.0227,1.4635-.4354,2.1961-.6763.9445.0563,1.8888.1117,2.8331.1671,1.658,1.8746,3.8077,1.2408,5.7936.9698.4364-.0594.881-1.1775,1.0295-1.8708.118-.5513-.2098-1.1981-.3398-1.8026,1.2308.2056,2.4986.7057,3.6849.5566,2.6194-.3289,5.6702-.3179,5.9303-4.1354.3427-.0671.6882-.1145,1.0364-.1421,1.7997,1.7691,2.3254,1.7691,3.9482.0005.4812.0378.9624.0755,1.4429.1124.7043,1.6293,1.9984,2.3524,3.7214,2.4149.246,2.5309,1.452,4.4739,3.3519,6.1688,1.156,1.0311,1.9436,2.4751,2.8967,3.7337-.9866.7687-1.8708,1.7595-2.9769,2.2689-5.7214,2.6342-10.8281,6.2542-16.0647,9.6823-2.2702,1.4863-4.748,2.6558-7.1315,3.9692l-1.3813.8417c-.3191.2035-.6592.3617-1.0204.4746-.9562-.1688-1.9123-.3377-2.8686-.5065-.0294-1.2616-.1022-2.524-.0757-3.7843.0245-1.1652.1552-2.3281.2418-3.5291-5.3326.8297-10.2636,1.5704-15.1798,2.3987-.5499.0927-1.0157.6836-1.5205,1.0435l-.6292-.0063-.6292.0041Z"/>
  <path class="cls-7" d="M51.2192,9.2596c3.8223,3.8594,8.6599,5.3056,13.8552,6.315,5.8967,1.1457,11.6684,2.9219,17.5289,4.2751,1.5594.36,3.2447.1746,4.8755.2417.2369.1698.4976.2566.7852.2625.0062.1488-.0175.0795-.0418.0057.3971-.0611.7542-.2149,1.0713-.4614l.1519.3013c3.1932.6495,6.3864,1.2989,9.5796,1.9483.1708.4584.3416.9168.5121,1.3685.1247.8133.2498,1.6333.3749,2.4532-.1641.4193-.3282.8386-.4939,1.2562-1.8473-.5639-4.0653.3063-5.5964-1.4584.8403-.3948,2.1618-.2922,1.9151-1.8471-3.8666.1738-7.7021.3539-11.5382.5159-2.6742.113-5.3493.2012-8.024.3005-2.452-.3046-4.9038-.6091-7.3558-.9136-.5799-.1534-1.1598-.3069-1.7397-.4603-1.0516-.0864-2.1031-.1728-3.1547-.2591-1.0604-1.9948-1.6928-4.2626-3.4861-5.8613-6.4671,1.6797-12.8087-2.1624-19.2141-.0027-.1214,1.2787-.22,2.3178-.3187,3.357l-2.8307.9716c-1.9655-.7135-3.9539-1.0863-6.0136-.4051-.7931.0451-1.5859.0908-2.3788.1364.4417-.6943.7229-1.6352,1.3507-2.0438,4.685-3.0502,9.3962-6.0657,14.1926-8.9363,1.7843-1.068,3.8316-1.6396,5.9934-1.0598Z"/>
  <path class="cls-12" d="M18.0873,54.6341c-.7325.2418-1.4718.7-2.196.6773-1.2238-.0384-2.4775-.6651-3.6434-.5031-.8855.1231-1.9356.9151-2.42,1.7096-1.242,2.037-.7255,4.0221,1.3863,6.6743,1.8156-.2571,3.6468-.5744,5.4915-.7434.572-.0525,1.181.2976,1.7617.4602-.0606.4695.023,1.0751-.1794,1.1941-1.7825,1.048-3.6159,2.0094-5.577,3.0739-2.4716-.4208-4.5403-1.8059-6.8844-3.1905-.1472-1.4302-.2946-2.8622-.4427-4.295.0356-1.9446.3568-3.777,2.0205-5.0701,1.4395-1.119,2.1217-2.5587,1.8868-4.3943,1.1446-.9381,2.3383-1.5667,3.8999-.9799,1.9494.7325,3.9501.9049,5.9715.2469-.358,1.7127-.7166,3.4263-1.0752,5.14Z"/>
  <path class="cls-7" d="M19.162,49.495c-2.0209.6571-4.0215.4847-5.971-.2479-1.5615-.5868-2.7553.0418-3.8999.9799-.0911-.6024-.4089-1.2778-.2414-1.7965,1.3844-4.2896,2.9872-8.4798,6.3725-11.6871.5122-.0317,1.0229-.0632,1.5338-.0947.7891-.065,1.5781-.13,2.3644-.1923.7629.2691,1.5288.5354,2.2947.8019-.8176,4.0789-1.6353,8.1577-2.453,12.2366Z"/>
  <path class="cls-2" d="M19.3232,36.4537c-.7891.065-1.5781.1301-2.3679.1952.0232-.3388-.0681-.6432-.2744-.913.5605-2.0279.3356-4.5632,3.2694-5.0578,3.6444-.4462,7.2886-.8924,10.9322-1.3382.2926,1.2907,1.3263,1.6825,2.4233,1.9976-.8991.9656-3.3786-.0397-3.0414,2.1383.0864.5589,2.0564.842,3.1726,1.2176.3897.1311.8142.1589,1.2227.2338-.1871.5131-.3742,1.0262-.5614,1.5392-.9877.031-1.9755.062-2.965.0953-.9332-.2959-1.8648-.5943-2.7962-.8926l-.0788-.031c-1.1826-1.5924-2.5348-1.2835-3.9427-.3518-1.6641.3891-3.3282.7784-4.9924,1.1675Z"/>
  <path class="cls-10" d="M30.8831,29.3395c-3.6442.4462-7.2885.8925-10.9328,1.3386.2992-.7564.3924-1.7435.9348-2.2283,2.093-1.8707,4.3293-3.5811,6.7647-5.5559,1.1737,1.5151,2.1364,2.758,3.0992,4.0009,1.9205,1.4011,1.9552,1.3849,2.5436-1.1863.9004-1.7283,2.2709-1.2957,3.6569-.7998,1.0188,2.1737,1.0601,2.1956,2.9662,1.1812.3541-.1884.6668-.4546.9987-.6834.3901.9734.7802,1.9455,1.1703,2.9176.0422.4332.0846.8663.1269,1.2995-.7861.9068-1.7369.8241-2.7354.4552-2.7524-1.5464-5.733-.443-8.593-.7392Z"/>
  <path class="cls-4" d="M40.9142,25.405c-.3318.2303-.6445.4966-.9986.6849-1.9061,1.0144-1.9474.9926-2.9662-1.1812.3748-1.1103.7505-2.2257,1.1259-3.3408.9432-.3236,1.8868-.6475,2.8303-.971.0028,1.6029.0057,3.2054.0086,4.808Z"/>
  <path class="cls-4" d="M33.2924,25.7085c-.5883,2.5713-.6231,2.5875-2.5436,1.1863.8478-.3954,1.6957-.7909,2.5436-1.1863Z"/>
  <path class="cls-4" d="M29.6825,21.2995c.7929-.0456,1.5857-.0913,2.3788-.1364-.7535.733-1.526,1.1362-2.3788.1364Z"/>
  <path class="cls-12" d="M16.6808,35.736c.2064.2698.2976.5742.2744.913-.5101.0313-1.0209.0628-1.5331.0945.4187-.3357.8387-.6716,1.2586-1.0075Z"/>
  <path class="cls-11" d="M138.0236,70.9586c1.4277,2.4871,2.7966,4.9481,5.0433,6.9196,1.4877,1.3054,2.3751,3.2949,3.6919,5.2121-.6962,1.025-1.3667,2.0119-2.0367,2.9984-2.6604.9145-5.2806,1.9881-7.9972,2.6869-1.7198.4424-2.9853,1.1406-3.6833,2.7711-2.0232.6249-3.9927,1.6174-6.2141.9339.0155-.2542.0345-.5091.0572-.7637,1.5524-3.5252.5257-7.8525,3.3172-11.0269,2.2173-.4326,4.3568-.85,6.579-1.2836-.2696-2.991-.5034-5.5849-.7373-8.1789.66-.0897,1.32-.1793,1.9799-.2689Z"/>
  <path class="cls-10" d="M126.8272,92.4797c2.2217.6844,4.1913-.308,6.2145-.9329,4.7993-1.118,9.6002-2.2375,14.9459-3.4839-.6968.8507-.9598,1.5104-1.3881,1.6451-11.9613,3.7635-23.9254,7.4744-36.319,9.6813-5.5359.9858-10.9307,2.7646-16.3897,4.1845-.0222-.5941-.0441-1.1891-.0659-1.7841,1.87-.8099,3.74-1.6198,5.6099-2.4297l8.4172-1.9265c2.2277-.3762,4.4613-.7208,6.6819-1.1352,4.2447-.7926,8.5013-1.5629,12.2934-3.8185Z"/>
  <path class="cls-17" d="M106.7081,105.3747c-.4558,4.1895-.9116,8.379-1.3677,12.5684-.3797.803-.7592,1.6062-1.1398,2.4103-.4993-4.4043.8226-8.9333-.7066-13.4046-1.179-.1461-2.1812-.2702-3.1835-.3943,0,0-.0034-.0056-.0033-.0055,1.187-1.782,3.3086-1.4618,4.983-2.1304.2978-.1191.9366.6155,1.4178.956Z"/>
  <path class="cls-5" d="M93.8247,101.7896c.0218.595.0438,1.19.0659,1.7841-.917.4565-1.8342.9139-2.7533,1.369-1.9279.1625-3.8541.3274-5.7778.493-.0736-.4641-.1497-.9287-.2258-1.3934,2.1489-.753,4.2978-1.5059,6.4465-2.2608.7481.0014,1.4963.0048,2.2445.0082Z"/>
  <path class="cls-17" d="M5.4389,73.667c.5047-.3599.9706-.9508,1.5205-1.0435,4.9163-.8284,9.8472-1.5691,15.1798-2.3987-.0866,1.201-.2173,2.3639-.2418,3.5291-.0265,1.2603.0463,2.5227.0752,3.7837-1.3383,1.2879-3.0715,2.339-2.7691,4.6115-.4984.3991-.9968.7981-1.4953,1.1972-3.6327,2.1365-7.2654,4.2731-10.8976,6.408-.0861-2.1823-2.3807-1.9975-3.574-3.3378-.7639-3.9809-.7336-7.9633,2.0021-11.5433.2186-.286.1404-.7987.2001-1.2061Z"/>
  <path class="cls-14" d="M94.2091,147.1858c1.1384-.2829,2.2686-.7446,3.4175-.7972,1.0915-.0498,2.2026.3279,3.307.5192-2.1794,1.5755-4.4051,2.0656-6.7245.2779Z"/>
  <path class="cls-14" d="M4.262,95.0664c.3906.4342.7812.8684,1.1714,1.3019-.3906-.4344-.781-.8682-1.1714-1.3019Z"/>
  <path class="cls-14" d="M80.1885,115.4027c-.0769,2.4122-.1281,4.8256-.2382,7.2363-.0991,2.1686.4517,3.9815,2.5083,5.0646.0623.4265.1252.8547.1882,1.2823-.8723.5346-1.6817,1.332-2.628,1.559-3.7841.9079-7.6108,1.6386-11.4222,2.4347-1.7097-1.8425-3.7814-1.3169-5.7198-.6803-1.5949.5239-3.0815.9977-4.8205.3043,0-.7132-.2276-1.4384.0387-1.8026,1.2636-1.7284,1.9346-3.5689,1.766-5.7338-.0967-1.2418.0211-2.4816,1.1521-3.3322,1.1783.401,2.5936,1.4268,3.4934,1.0872,2.942-1.1099,4.4291,1.304,6.5672,2.111.9201.3473,1.1592.8266,1.4474,1.6867,1.0178,3.038,1.1013,3.0322,5.271,1.6515,0-1.7136-.1473-3.5367.0407-5.3246.1945-1.8488.6389-3.684,1.1283-5.4831.2022-.7433.8061-1.3773,1.2274-2.0611Z"/>
  <path class="cls-14" d="M51.058,131.6874c.8164.0475,1.6329.0951,2.4492.1427.0205,1.6354.041,3.2708.0619,4.9056-.4442.062-.8887.1242-1.3335.1867-.3927-1.7448-.7851-3.49-1.1776-5.2351Z"/>
  <path class="cls-5" d="M88.0036,137.0981c5.4741.5573,8.964-4.1558,14.002-3.5421,1.7215,3.2077.3798,5.7585-1.2129,8.2549-.2139.3352-.5715.729-.9235.802-3.0215.6265-6.0411,1.3083-9.0959,1.7073-1.3244.1731-2.465-.844-2.7114-2.1431-.2599-1.3699-.0583-2.8273-.0583-5.0791Z"/>
  <path class="cls-5" d="M114.9426,133.03c-.4699-.2254-1.0516-.3225-1.1406-.586-.1718-.5087-.2829-1.239-.039-1.6541,1.511-2.5714,4.1689-3.0373,6.8056-3.4367.246-.0373.6923.4134.8311.7311.1469.3361.2109.949.0128,1.1579-1.8064,1.9032-3.5416,3.9871-6.4699,3.7878Z"/>
  <path class="cls-9" d="M93.82,25.7686c1.5328,1.7636,3.7509.8933,5.5981,1.4572-.9741,2.5756-1.9037,5.1441.8559,7.2795,1.4437,2.2972,2.6312,4.8188,5.296,6.0461-1.131,2.0584-3.3729,1.4035-5.0704,2.077-1.0167-2.6849-1.4491-2.9992-3.2125-2.0201-1.2532.6957-2.4795,1.4917-3.5682,2.4186-1.329,1.1317-2.801,1.7086-4.5076,1.7953-1.3945-.237-2.7188-.5461-2.5036-2.4393.4243-.4158.8507-.8293,1.277-1.2428.8612-.5402,1.7224-1.0802,2.5836-1.6203,1.8125-1.8312,4.3589-2.9622,5.9168-5.8-5.6653-1.3716-10.931-1.432-16.178-1.6486-.707-.3938-1.374-.9087-2.1288-1.1583-2.0625-.682-2.347-2.0394-1.6559-3.8578,5.757-.5473,11.6258.4071,17.2975-1.2867Z"/>
  <path class="cls-9" d="M129.7959,40.3997c-.5362.5082-1.0722,1.0165-1.6088,1.5255-.9391.5066-.7195,1.1349-.2982,1.9032.552,1.0065.9787,2.0817,1.4593,3.1273-1.3903-.0393-2.7807-.0786-4.167-.1145-1.5446-1.151-2.6647-.3084-3.5988.6686,0,3.4119,0,6.6876.001,9.9624-1.0441-.6162-2.0892-1.2315-3.1375-1.8448-.174-2.6382-.3326-5.2794-.5207-7.9184-.0871-1.2204-.9716-1.6758-2.0042-1.954-.998-.3858-1.996-.7717-2.994-1.1575-.058-.4329-.1161-.8657-.1741-1.2986,3.2243-.4621,6.4486-.9241,9.6729-1.3862,1.9405.7958,2.012.7304,1.9305-1.7664l.3066-.1465c1.8013-.1891,3.6025-.3783,5.3986-.5657-.1887.2969-.2754.6182-.2656.9656Z"/>
  <path class="cls-12" d="M124.6629,39.9998s-.3066.1465-.3067.1467c-.6434.5888-1.2869,1.1775-1.9304,1.7661-3.2243.4621-6.4486.9242-9.6715,1.3861-.9721-.2131-1.9457-.4259-2.9193-.6388-1.4212-.7028-2.8426-1.4057-4.2638-2.1085-2.6658-1.2272-3.8534-3.7489-5.2971-6.0461.1546-.7555.3092-1.5113.5882-2.8747,2.5477,2.349,3.0373,5.4938,5.8356,6.9736,2.6917,1.4233,5.2719,2.2921,8.3142,2.3338,3.1471.0433,5.9472-.982,8.1197-2.9086,2.1076-1.8688,3.5634-4.4723,5.8539-7.4712.303,4.6666-2.2788,6.9281-4.3228,9.4415Z"/>
  <path class="cls-9" d="M99.0251,22.1479c-3.1933-.6494-6.3865-1.2988-9.5747-1.9431.0049.0052-.2031-.3183-.2031-.3183.1291-.7466.2582-1.4933.4295-2.4842-3.8993-.6919-7.1813-1.9309-9.8786-4.3808,3.0541-.2246,6.0028.2224,8.8388,1.387,1.5947,1.4333,3.5551,1.1066,5.4426,1.1304,3.0032.4937,6.0066.9875,9.0098,1.4812-1.3547,1.7093-2.7095,3.4185-4.0642,5.1278Z"/>
  <path class="cls-3" d="M88.6369,14.4084c-2.836-1.1646-5.7847-1.6116-8.8368-1.3869-1.321-.6389-2.6441-1.2778-3.967-1.9168.2122-.305.4261-.609.6417-.9118,6.6136,1.1243,13.2263,2.2532,19.8412,3.3693,1.4408.2431,2.8904.5984,4.3336.5872.6562-.005,1.3066-.7774,1.9582-1.2026,1.0569.6018,2.1151,1.2046,3.1105,1.7715-.173,1.7979-1.4029,2.0469-2.6296,2.3003-3.0025-.4924-6.0059-.9862-9.0101-1.48-1.5446-1.6762-3.5401-1.1768-5.4416-1.1302Z"/>
  <path class="cls-2" d="M109.7808,18.4913c.1804.2117.1664.4097-.0451.5969-1.2759.5-2.1131,1.2819-1.8295,2.7963,0,0,.04-.0234.04-.0233-.7724-.5172-2.4341-.2953-2.0499-1.7408.2088-.7851,1.2777-1.4629,2.1087-1.9104.4196-.226,1.1732.1678,1.7758.2813Z"/>
  <path class="cls-12" d="M129.7959,40.3997c-.0099-.3474.0769-.6686.2656-.9656,2.3139-.0095,4.7519-.2919,5.6648,2.6634-1.9768-.5659-3.9536-1.1319-5.9304-1.6978Z"/>
  <path class="cls-2" d="M111.2559,18.1739c-.6163.1098-1.2328.2196-1.8446.3367.0466-.3898-.0526-.913.1633-1.1549.3473-.3889.9029-.5919,1.3705-.8735.1037.5639.2072,1.1278.3108,1.6918Z"/>
  <path class="cls-9" d="M99.9121,25.9696c-.1251-.8199-.2502-1.6399-.3749-2.4532.1253.8222.2501,1.6377.3749,2.4532Z"/>
  <path class="cls-12" d="M138.2414,43.387c-1.15.1237-2.1244-.0927-2.5722-1.3283,1.2129-.2453,2.086.1671,2.5722,1.3283Z"/>
  <path class="cls-3" d="M121.5824,57.4731v-9.9633c.9341-.9771,2.0543-1.8196,3.5988-.6686.1814.8985.3667,1.8004.5519,2.7022-.2508.2004-.4994.4036-.7447.6088-.4516-.2464-.9043-.4921-1.6745-.9102.3698,4.5772.7092,8.7761,1.0485,12.9749-.3868.0035-.7726-.0147-1.1574-.0546-.5409-1.5631-1.0818-3.1262-1.6228-4.6893Z"/>
  <path class="cls-3" d="M138.0236,70.9586c-.66.0896-1.32.1793-1.9832.2698-1.1943-1.4093-2.7777-1.5299-4.398-1.1744-1.1615.2548-2.2675.7631-3.3986,1.1581.4263-.6434.7119-1.6005,1.3076-1.8683,1.4725-.6621,3.0871-1.0087,4.7485-1.5137-.0905-1.0718-.1603-1.8979-.23-2.7239.2345-.1848.4724-.3652.7136-.5413.6833,2.3323,3.4722,3.5978,3.2402,6.3937Z"/>
  <path class="cls-10" d="M129.3482,46.9556c-.4806-1.0457-.9073-2.1208-1.4593-3.1273-.4212-.7683-.6409-1.3966.2982-1.9032,2.4483,2.572,5.19,4.9833,4.9603,9.0266-.6923-.278-1.6109-.3695-2.0272-.8747-.7494-.9098-1.1978-2.0674-1.772-3.1215Z"/>
  <path class="cls-3" d="M129.7455,55.6673c1.9695.3455,2.4542,2.1591,3.44,3.4794.0684.9701.1361,1.9384.204,2.9066-.219.2157-.4476.4205-.6826.6121-1.2779-2.0935-2.559-4.1848-3.8401-6.276.2924-.2414.5853-.4821.8788-.7222Z"/>
  <path class="cls-10" d="M133.1375,50.9307c2.4193.8598,2.7831,2.786,2.5943,4.9989-2.344-.8988-2.8832-2.734-2.5943-4.9989Z"/>
  <path class="cls-3" d="M137.0172,58.1822c.8052.9461,1.6105,1.8923,2.4151,2.838-1.8059-.0952-2.6045-1.0463-2.4151-2.838Z"/>
  <path class="cls-3" d="M128.2361,53.3099c.5024.7864,1.0048,1.5727,1.5084,2.3582-.2924.2393-.5852.48-.8763.7204-.4762-.7899-.9538-1.5786-1.4313-2.3675.2717-.2311.5381-.4682.7993-.7111Z"/>
  <path class="cls-3" d="M125.7331,49.5434c.4843.7754.9687,1.5508,1.453,2.3263-.2454.2262-.493.4503-.7418.6712-.4849-.7965-.9708-1.5922-1.4567-2.3878.2462-.206.4948-.4092.7456-.6096Z"/>
  <path class="cls-9" d="M133.3895,62.0534c-.0678-.9683-.1356-1.9365-.204-2.9066.4831,1.0021.9668,2.006,1.4496,3.0093-.4201.0186-.835-.0154-1.2456-.1027Z"/>
  <path class="cls-3" d="M133.3895,62.0534c.4106.0873.8255.1213,1.2456.1027.0008.0006-.1264.0576-.1263.0576.0861.5211.1719,1.0421.2576,1.5632.0426.2623.0475.5253.0157.7885-.2399.1755-.4778.356-.7116.5403-.4552-.8129-.911-1.6254-1.3669-2.4379.2382-.1941.4669-.3989.6858-.6145Z"/>
  <path class="cls-9" d="M134.7664,63.7769c-.0857-.5211-.1716-1.0421-.2576-1.5632,1.2814.3239.8892.9239.2576,1.5632Z"/>
  <path class="cls-10" d="M135.7514,55.9636c.4003.5522.8006,1.1045,1.2016,1.6597-.4002-.5512-.8009-1.1055-1.2016-1.6597Z"/>
  <path class="cls-3" d="M127.186,51.8696c.3497.4806.6994.9612,1.0495,1.441-.2607.2423-.5271.4793-.7972.7092-.3306-.4936-.6629-.9859-.9951-1.4783.2497-.2216.4973-.4456.7428-.6719Z"/>
  <path class="cls-3" d="M65.1007,9.0701c-.0452-.391-.0683-.7833-.0686-1.1769,3.9974-.1429,7.887.2463,11.442,2.3007-.2149.3019-.4287.6058-.6395.9078-3.5769-.6793-7.1554-1.3554-10.7339-2.0316Z"/>
  <path class="cls-4" d="M64.8265,7.935c-1.6771-.3951-3.7058.5047-4.9861-1.353,1.7529.1154,3.6311-.2298,4.9861,1.353Z"/>
  <path class="cls-16" d="M107.9062,21.8845c-.2836-1.5144.5536-2.2963,1.8295-2.7963.2657,1.5018-.2378,2.5051-1.8295,2.7963Z"/>
  <path class="cls-16" d="M65.1007,9.0701c3.5784.6762,7.157,1.3523,10.7339,2.0316,1.3215.642,2.6446,1.2809,3.9656,1.9198,2.6953,2.4499,5.9773,3.6889,9.8766,4.3808-.1713.9909-.3004,1.7375-.4287,2.4838.0007-.0005.0455.0121.0455.0121-.3171.2465-.6742.4003-1.0695.4621.0019.0006.0399-.0063.0399-.0063-.2876-.0059-.5483-.0927-.7852-.2624-6.3471-2.0168-12.7208-3.9442-19.0199-6.0901-2.4532-.8357-5.3247-1.0294-7.1824-3.4192.8739-2.0116,2.542-1.2618,3.8242-1.512Z"/>
  <path class="cls-17" d="M69.034,89.3813c-2.9244-1.1339-5.834-2.3085-8.7807-3.381-1.1594-.4221-2.3985-.8541-3.6073-.872-4.8023-.0717-9.4047-1.9795-14.2918-1.382-2.0461.2502-3.5582-.9682-4.6774-3.176.637-.593,1.2361-1.4461,2.0568-1.8647,3.8911-1.9842,7.6096-4.3245,12.3724-3.9563,1.7008.1315,3.5694-.9995,5.2551-1.7828,2.8381-1.3187,5.6641-2.5906,8.5815-2.9401,2.0579,1.2353.0627,2.8988,1.1693,4.5444.9136-.1218,2.0553-.2861,3.2001-.4242,2.1797-.263,4.0794-2.24,6.7971-1.1566-.292,2.7693-2.238,4.4751-3.5315,6.4807-1.2419,1.9255-2.6729,3.7293-4.0259,5.5828-.9631,1.3195-.8721,2.7372-.4139,4.1905-.0035-.003-.1037.1374-.1037.1374Z"/>
  <path class="cls-16" d="M17.7082,83.3462c.4984-.399.9968-.798,1.4942-1.196,2.4746-.5501,4.581-1.6084,5.6393-4.1056.3612-.1128.7013-.271,1.0192-.4749.4601-.2806.9213-.561,1.3825-.8413,2.3835-1.3134,4.8613-2.4828,7.1315-3.9692,5.2365-3.4282,10.3433-7.0481,16.0647-9.6823,1.1061-.5094,1.9903-1.5002,2.9761-2.2682,3.7702-.7793,6.3225-3.5793,9.3282-5.6275,1.2556-.8484,2.5129-1.6947,3.768-2.5444.8787-.4005,1.7596-.7976,2.638-1.197.74-.4356,1.4825-.8688,2.2251-1.302,2.845-1.4367,5.6901-2.8735,8.5352-4.3102.0681.8777.1361,1.7554.204,2.633-.0499.8157-.0999,1.6314-.1497,2.4472l.1236-.0866c-1.3725-.7446-1.9771.1367-2.5041,1.1822l-3.696,2.836c-1.7849,1.1778-3.5697,2.3556-5.3546,3.5334-2.0698,1.2909-4.1395,2.5818-6.2092,3.8728-2.0664.938-4.22,1.7233-6.1828,2.8427-5.9464,3.3921-11.819,6.9136-17.7194,10.3817-.2937.2791-.5882.5612-.8826.8434-.9394.577-1.8789,1.1538-2.8179,1.7274-2.028.2358-3.8025.752-3.6635,3.3549-.4729.5553-.9457,1.1105-1.419,1.6617-2.1259-.6986-4.1117-.3779-6.0311.7341-1.6404.9503-3.3312,1.8066-5.338,1.453-.1872-.6327-.3742-1.2655-.5613-1.8983Z"/>
  <path class="cls-6" d="M65.8938,97.6081c1.0144-2.7569,3.2856-5.0354,3.1378-8.2312.0024.0044.1026-.136.1061-.133,1.6874-.025,2.4771-1.2261,3.2446-2.4614,2.6941-4.3362,5.3908-8.6709,8.0846-13.0053,2.2438-2.9587,4.3075-6.0111,4.9791-9.7727.9041-.5535,1.5825-.1999,2.0301.6107.594,1.076,1.0987,2.2012,1.6408,3.3022-.5216,1.4015-1.0423,2.806-1.5629,4.2105-2.5231,3.5881-5.1553,7.1056-7.5402,10.7833-2.6057,4.0185-4.9827,8.1853-7.4594,12.2874-.8136.8293-1.6272,1.6586-2.4408,2.4878-1.4168.52-2.8488,1.8684-4.2197-.0783Z"/>
  <path class="cls-1" d="M85.4459,64.0045c-.6716,3.7616-2.7353,6.814-4.9791,9.7727-.1661-4.7938-2.5189-8.134-6.784-10.2017-2.2917-1.1646-3.8277-3.0777-5.1498-5.2026,1.7849-1.1778,3.5697-2.3556,5.3546-3.5347,1.1764.2933,2.3528.5878,3.5292.8824.2579.3727.5159.7454.7737,1.1182-1.0431.5124-2.6292.3826-2.575,2.7046,2.5761,1.5697,5.4013,3.2912,8.2267,5.0127.5345-.1839,1.0691-.3678,1.6036-.5516Z"/>
  <path class="cls-12" d="M68.5331,58.3728c1.3221,2.125,2.8581,4.0381,5.1498,5.2026-.0976.9702-.1944,1.9402-.3357,3.3574-4.2634-.7855-7.9747-1.8871-11.0228-4.6873,2.0692-1.291,4.1389-2.5819,6.2087-3.8728Z"/>
  <path class="cls-2" d="M65.8938,97.6081c1.3709,1.9467,2.803.5983,4.2188.0789-1.0522,2.1908-2.0121,4.4325-3.2016,6.5448-.456.8098-1.4108,1.3569-2.1851,1.9642-.756.5929-1.5715,1.1099-2.3608,1.6603l.0562-.0039c-.6884-.4587-1.3767-.9173-2.1695-1.4455,2.0941-3.2658,3.868-6.0322,5.642-8.7987Z"/>
  <path class="cls-1" d="M18.2695,85.2445c2.0068.3536,3.6975-.5027,5.338-1.453,1.9194-1.1119,3.9052-1.4327,6.0311-.7341-1.2198,1.0471-2.2809,2.4992-3.6931,3.0483-2.999,1.1663-6.1808,1.8627-9.2901,2.7518.5409-.7922,1.0841-1.5846,1.6259-2.3789-.028-.4636-.0545-.9252-.0809-1.3868l.0691.1526Z"/>
  <path class="cls-1" d="M31.0576,81.3958c-.139-2.603,1.6355-3.1191,3.6635-3.3549-.1953,2.2416-1.6351,3.1198-3.6635,3.3549Z"/>
  <path class="cls-1" d="M37.539,76.3135c.2944-.2823.5889-.5644.8826-.8435-.2947.2833-.5886.5635-.8826.8435Z"/>
  <path class="cls-16" d="M18.2005,85.0919c.0264.4616.0529.9232.0809,1.3868-.8188-.4139-1.3488-.8471-.0809-1.3868Z"/>
  <path class="cls-11" d="M100.3105,106.5545c1.0023.1241,2.0046.2482,3.1835.3943,1.5291,4.4713.2073,9.0003.7066,13.4046-1.3847.3303-2.7706.6617-4.2901,1.0249-1.2538-1.8998-1.5105-4.4668-4.3191-5.4906-1.4097.215-3.2192.7656-5.0004.6859-1.8101-.0811-3.5923-.7837-5.386-1.2144.1883-2.9663,2.0119-4.3386,4.7003-5.03,3.5837-.9214,7.0781-2.1272,10.4051-3.7746Z"/>
  <path class="cls-11" d="M62.3651,107.8563c.7893-.5503,1.6048-1.0673,2.3608-1.6603.7743-.6073,1.7291-1.1545,2.1851-1.9642,1.1895-2.1124,2.1493-4.3541,3.2017-6.5448.8145-.8298,1.6281-1.6591,2.4415-2.4889,1.3733-.3624,2.7695-.6564,4.1124-1.1089.9565-.3223,2.1178-1.4652,2.71-1.195,2.7138,1.238,3.1798-1.8276,4.6788-2.374,2.2617.6955,2.5571,3.7736,5.171,3.4987-.6589,2.017-1.3178,4.0339-1.9856,6.078.963,1.7793,2.6952,1.3054,4.2313,1.4085l.1084.278c-2.1489.753-4.2978,1.5059-6.4467,2.2589-5.977,1.0446-11.9115,2.2744-17.7148,4.072-1.6842-.0856-3.369-.1718-5.0538-.258Z"/>
  <path class="cls-14" d="M52.0612,124.2484c.1598,1.4204.3034,2.8367-1.0032,3.8785-.0648-1.3955-.2636-2.8264,1.0032-3.8785Z"/>
  <path class="cls-4" d="M31.1351,36.5593c.9877-.0309,1.9755-.0619,2.9649-.0906,1.9072.0863,3.8125.1701,5.7179.254.7249.0928,1.4498.1856,2.1764.2784q2.2194,5.9934,1.549,10.8199c-.0182.2255-.0502.449-.096.6706-.4812-.0378-.9624-.0755-1.4427-.1132-1.3156-.7142-2.6322-1.6602-3.9491-.0006-.3482.0275-.6936.0749-1.0355.1406-1.4582.3989-2.9173.7994-4.3764,1.1999.2752-3.7753-3.2453-3.4285-5.2096-4.4852-.2416-2.0451,1.0965-3.7794-.1784-5.6004-.6086-.8695-.0742-1.9688.9194-2.603.9867-.1568,1.9734-.3135,2.9601-.4704Z"/>
  <path class="cls-14" d="M47.1679,50.9055c-1.723-.0625-3.0171-.7856-3.7214-2.4149.0465-.2205.0785-.4441.0959-.6669,2.969.2731,3.7154-.1745,3.4461-2.4109-.2646-2.1973-.815-4.3601-1.2349-6.5122.5699-.6318,1.1108-1.2314,1.6515-1.831,1.6637-.4526,3.3273-.9051,4.991-1.3576.5016.1038,1.0031.2076,1.5005.3102-.7841,3.7925-.0611,4.8498,3.4061,5.0773-.4508.6936-.9016,1.3873-1.3524,2.0808-1.3164,2.137-3.9031.8861-5.5629,2.0299-.4871,3.8211.4209,5.0671,3.4356,4.2724,2.4101-.6354,4.7475-1.4193,7.2796-1.199.0068.466.0136.9319.0208,1.3979-2.2218-.2325-4.0525.3807-5.2233,2.4184-2.9107-.3982-5.8215-.7963-8.7322-1.1945ZM49.6759,38.8782l-.897.2866c.2241.7738.4483,1.5475.6724,2.3213.3386-.1195.9787-.322.972-.3465-.2102-.7645-.4838-1.5116-.7474-2.2613Z"/>
  <path class="cls-14" d="M32.6435,49.7183c1.4591-.4005,2.9182-.801,4.3764-1.1999-.2609,3.8189-3.3117,3.808-5.9312,4.1369-1.1863.1491-2.454-.351-3.689-.5566-2.8021-.6305-4.6251,1.0738-6.4792,2.7035-.9444-.0554-1.8886-.1108-2.8331-.1671.3585-1.7146.7171-3.4282,1.0751-5.1409.8172-4.078,1.6348-8.1568,2.4521-12.2359.5258.2272,1.3001.308,1.5355.7068,1.0755,1.8222,1.5206,3.8215,1.2295,5.9599-.2952,2.1682-.5459,4.3423-.8431,6.7301,2.3247-.586,4.2349-1.2919,6.3269-.2258.6397.3259,1.8377-.4433,2.78-.711Z"/>
  <path class="cls-1" d="M47.1679,50.9055c2.9107.3982,5.8215.7963,8.7333,1.1953.9116.3701,2.0264.5263,2.6857,1.1577,1.0338.9902,2.0473,1.2454,3.3326.8443.2753.3602.5506.7204.8259,1.0807-3.0073,2.0459-5.5596,4.846-9.3297,5.6253-.9523-1.2592-1.7399-2.7032-2.8959-3.7344-1.8998-1.6949-3.1058-3.6379-3.3519-6.1688Z"/>
  <path class="cls-1" d="M20.9206,54.8022c1.8541-1.6297,3.6771-3.334,6.4792-2.7035.1341.6044.4619,1.2512.3439,1.8026-.1485.6932-.5931,1.8114-1.0295,1.8708-1.9859.271-4.1356.9048-5.7936-.9698Z"/>
  <path class="cls-1" d="M24.8416,78.0447c-1.0583,2.4971-3.1646,3.5554-5.6393,4.1056-.3013-2.2737,1.4319-3.3248,2.7702-4.6127.9567.1694,1.9129.3382,2.869.507Z"/>
  <path class="cls-15" d="M38.0554,48.3778c1.317-1.6596,2.6336-.7135,3.9491.0006-1.6238,1.7685-2.1494,1.7685-3.9491-.0006Z"/>
  <path class="cls-1" d="M27.2434,76.7284c-.4612.2803-.9224.5607-1.3825.8413.4616-.2802.922-.5608,1.3825-.8413Z"/>
  <path class="cls-6" d="M53.9008,36.0235c-.5016-.1038-1.0031-.2076-1.5062-.3114-3.6776-2.2502-7.1527-2.4578-10.2659,1.0102l-.1361.2788c-.7249-.0928-1.4498-.1856-2.1755-.2766-1.5277-1.1477-3.1429-2.0449-5.1574-1.7972-.4086-.0749-.8331-.1027-1.2227-.2338-1.1162-.3756-3.0861-.6587-3.1726-1.2176-.3372-2.178,2.1423-1.1727,3.0414-2.1386,2.0568-.4197,4.1135-.8391,6.1703-1.2585.9985.3689,1.9493.4516,2.7348-.4559,3.5352-1.2393,7.1608-1.4328,10.8936-1.3316,3.4893.0945,7.0021-.2628,10.4843-.6197.8628-.0884,1.1262-1.0534.4108-1.8771-.025-.8969-.05-1.7938-.075-2.6907,1.0516.0863,2.1031.1727,3.1564.2582.5805.1532,1.1592.3072,1.738.4612,2.452.3046,4.9038.6091,7.3533.9126-.5265.87-1.2026,1.7641.3503,2.3196-.6911,1.8184-.4067,3.1758,1.6559,3.8578.7548.2496,1.4218.7645,2.1258,1.1572-2.0222-.0498-4.0414-.0985-6.0663-.148-2.5184-1.1954-4.8075-.6762-6.9579.9061-.7886.4598-1.5772.9196-2.3658,1.3795-.9058.1443-1.8116.2886-2.7161.4321-1.4079-.2962-2.7908-.4245-3.9865.6299-.3919.017-.752.1328-1.0789.3479-.7986.0977-1.5986.1951-2.3985.2925-.2835-.0038-.5612.034-.8334.1134Z"/>
  <path class="cls-14" d="M63.9245,23.1038c.025.8969.05,1.7938.0728,2.6859-.7416.3739-1.4811.7525-2.2203,1.1312-.9373-1.6783-1.8747-3.3566-2.8122-5.035-.8401-.5273-1.6854-1.5138-2.5195-1.5042-4.1456.0472-8.2881.3568-12.6806.5871-.0721,1.2264-.1307,2.224-.1892,3.2215-.1736,1.4945.1791,3.1788-1.4909,4.1338-.3901-.972-.7801-1.9442-1.1703-2.9176-.003-1.6041-.0059-3.2066-.0087-4.8095.0987-1.0395.1973-2.0786.3187-3.3573,6.4054-2.1597,12.747,1.6824,19.2141.0027,1.7934,1.5987,2.4257,3.8665,3.4861,5.8614Z"/>
  <path class="cls-3" d="M76.5225,27.0553c-1.5529-.5554-.8768-1.4495-.3503-2.3196,2.6772-.0983,5.3523-.1865,8.0265-.2995,3.8361-.162,7.6717-.3421,11.5382-.5159.2467,1.5549-1.0748,1.4522-1.9151,1.8471-5.6735,1.695-11.5422.7405-17.2993,1.2879Z"/>
  <path class="cls-1" d="M89.2936,19.8982s-.0448-.0126-.0455-.0121c-.0008.0004.2073.3239.2024.3187s-.1568-.3066-.1568-.3066Z"/>
  <path class="cls-1" d="M88.264,20.3539s-.038.0069-.0399.0063c.0224.0732.0461.1424.0399-.0063Z"/>
  <path class="cls-9" d="M68.8189,23.8231c-.5788-.154-1.1574-.308-1.738-.4611.5782.1543,1.1581.3077,1.738.4611Z"/>
  <path class="cls-10" d="M32.6435,49.7183c-.9423.2677-2.1403,1.0369-2.78.711-2.092-1.0661-4.0022-.3602-6.3269.2258.2972-2.3878.5479-4.562.8431-6.7301.2912-2.1384-.154-4.1376-1.2295-5.9599-.2354-.3988-1.0097-.4796-1.5355-.7068-.7655-.2663-1.5314-.5327-2.2944-.8017,1.667-.3919,3.3311-.7811,4.9965-1.169,1.3147.1177,2.6281.2341,3.9414.3506,0,0,.0788.031.0783.0313-.0542.4536-.1079.9071-.1616,1.3604-.9937.6342-1.5281,1.7335-.9194,2.603,1.2749,1.8211-.0632,3.5553.1784,5.6004,1.9643,1.0567,5.4848.7099,5.2096,4.4852Z"/>
  <path class="cls-4" d="M39.476,30.0787c-2.0567.4194-4.1135.8388-6.1703,1.2585-1.0971-.3148-2.1308-.7066-2.4234-1.9972,2.8607.2958,5.8412-.8077,8.5937.7388Z"/>
  <path class="cls-12" d="M34.6597,34.9272c2.0146-.2477,3.6297.6495,5.1574,1.7972-1.9046-.0856-3.81-.1695-5.7171-.2556.1855-.5154.3726-1.0285.5597-1.5416Z"/>
  <path class="cls-12" d="M28.2583,35.638c-1.3133-.1164-2.6268-.2329-3.9414-.3506,1.4066-.9329,2.7588-1.2419,3.9414.3506Z"/>
  <path class="cls-12" d="M28.175,37.0297c.0537-.4533.1074-.9068.1616-1.3604.9319.2981,1.8635.5965,2.7967.8925-.9849.1544-1.9716.3111-2.9583.4679Z"/>
  <path class="cls-4" d="M42.0845,28.324c1.67-.955,1.3174-2.6393,1.49-4.133,1.759-.4019,3.7651-1.5407,5.2268-1.052,2.9136.9743,5.5852-.2071,8.3474-.0002.296.5566.7226,1.082.8645,1.6755.5046,2.1101,1.8013,2.6693,3.7637,2.1065.7394-.3786,1.4788-.7573,2.2204-1.1312.7176.8284.4542,1.7934-.4086,1.8818-3.4822.3569-6.995.7142-10.4843.6197-3.7328-.1012-7.3583.0924-10.8936,1.3316-.0417-.4325-.084-.8656-.1263-1.2988Z"/>
  <path class="cls-14" d="M93.8247,101.7896c-.7482-.0034-1.4964-.0068-2.2445-.0082.0002.0019-.1081-.2761-.1082-.2762,2.1997-3.6203,3.1655-7.5768,3.2123-11.7828,1.6064-3.6523,3.2111-7.3056,4.8158-10.959.825-.1039,1.7375-.0157,2.4601-.3445,3.4831-1.585,6.3503-1.2342,8.669,2.1162.6364.9198,1.856,1.4362,2.8085,2.1381-1.0232,1.4757-3.0352,1.4453-2.9761,3.3448.0443,1.426.0088,2.8545.0088,4.3085,2.1752.2012,3.9457.3649,5.6726.5246.704-2.3989,2.59-4.3607.0765-6.5454-.6197-.5387-.6194-1.926-.6833-2.9372-.1047-1.6548-.0283-3.3212-.0283-4.6914-1.4371-1.6977-2.6259-3.1022-3.8148-4.5067,1.5993.3501,3.2276.6057,4.7878,1.0832,1.0474.3205,1.9745.6017,2.8788-.2279,2.2672,5.8582,3.2886,11.9892,3.986,18.1912.2511.1924.5024.3848.7535.5772.559-.1372,1.1181-.2744,1.6771-.4116.347.186.7165.2974,1.1085.3344-.0227.2546-.0417.5095-.0572.7637-3.7925,2.2546-8.0492,3.0248-12.2938,3.8175-2.2206.4144-4.4542.7591-6.6819,1.1357-.0384-1.875-1.2245-3.0437-2.5707-4.0825-1.6438-1.2685-3.2953-2.5324-5.0107-3.6991-.4186-.2847-1.1007-.1821-1.7-.2627,0,1.7562.6293,3.8006-.1256,4.8072-1.8027,2.404-.8676,3.7409.9898,5.1631-1.87.8099-3.74,1.6198-5.6099,2.4297Z"/>
  <path class="cls-1" d="M126.8847,91.717c-.392-.037-.7615-.1485-1.1104-.3343.9474-5.1796-2.2405-10.0414-1.2291-15.2474,2.0762-.2307,2.754-1.5399,2.7483-3.3898.3083-.4702.6183-.9387.9284-1.4073,0,0,.0222-.1259.0222-.1259,1.1307-.3952,2.2367-.9034,3.3982-1.1582,1.6203-.3554,3.2037-.2349,4.398,1.1744.2371,2.593.4709,5.187.7405,8.178-2.2222.4336-4.3617.851-6.579,1.2836-2.7915,3.1745-1.7648,7.5018-3.3172,11.0269Z"/>
  <path class="cls-17" d="M99.4346,99.3599c-1.8575-1.4222-2.7925-2.7592-.9898-5.1631.7549-1.0066.1256-3.051.1256-4.8072.5993.0806,1.2814-.022,1.7.2627,1.7154,1.1667,3.3669,2.4306,5.0107,3.6991,1.3461,1.0388,2.5323,2.2074,2.5707,4.0825-2.8057.6417-5.6114,1.2839-8.4171,1.926Z"/>
  <path class="cls-7" d="M85.4459,64.0045c-.5345.1838-1.0691.3677-1.6042.5547-.1124-1.0661-.2244-2.1354-.3363-3.2046.9815-.6306,2.1386-1.0987,2.9057-1.9276,1.352-1.4608,2.466-3.1419,3.6799-4.7309q1.6408,1.8089,3.8814.3198c.5789-.2347,1.4195-.3012,1.6955-.7305,2.2481-3.4958,4.8196-6.8846,4.6857-11.3682l.1461-.2886c1.6975-.6735,3.9393-.0187,5.0704-2.077,1.4223.7027,2.8436,1.4056,4.2616,2.1116-1.0205,1.4743-2.0377,2.9456-3.0558,4.4173-.1396-.9802-.2783-1.9608-.5188-3.6599-2.9086,3.0462-4.7422,5.8017-5.8848,9.1437q2.2024.5135,1.3765,2.1141l-2.4214-.0037c-2.1043.7708-2.9819,2.3019-2.7886,4.497-.4402.921-.8918,1.8367-1.3181,2.7642-.7739,1.6843-1.5331,3.3756-2.2984,5.0638-1.2681.307-2.5362.6138-3.8044.9208-.543-1.104-1.0478-2.2292-1.6417-3.3052-.4476-.8105-1.126-1.1642-2.0301-.6107Z"/>
  <path class="cls-3" d="M74.2435,31.923c2.0192.0487,4.0384.0974,6.0607.1472,5.2501.2178,10.5158.2782,16.1811,1.6498-1.5579,2.8378-4.1043,3.9688-5.9208,5.8006-.8487.012-1.6935.0235-2.5432.0358-.5191-.0014-1.0334-.0034-1.5476-.0054,1.1601-.8579,2.3034-1.7402,3.4862-2.5657.8315-.5802,1.9137-.965,1.3399-2.5219-4.3536,0-8.7611.0316-13.1679-.0163-1.6469-.0179-3.4102.2153-4.6886-1.2563.2667-.4226.5335-.8453.8002-1.2678Z"/>
  <path class="cls-3" d="M100.4996,42.6285s-.1461.2886-.1462.2933c-2.1049,1.3113-2.8325,3.5717-3.8822,5.609-.5548-.0266-1.1097-.0532-1.6645-.0798.4384-1.2991.8766-2.5982,1.5006-4.4475-3.2391,1.6404-5.918,2.9969-8.5967,4.3535-.5793-.0635-1.1586-.1269-1.7379-.1904.054-.3604.1416-.7125.2626-1.0562.992-.7627,1.984-1.5254,2.976-2.2879,1.7066-.0867,3.1787-.6636,4.5077-1.7953,1.0887-.927,2.315-1.7229,3.5682-2.4186,1.7634-.9791,2.1958-.6648,3.2125,2.0201Z"/>
  <path class="cls-13" d="M89.2113,44.8224c-.992.7625-1.984,1.5252-2.9754,2.2882-1.4055-1.1011-2.7649-1.3802-4.1868.0434-.5399.5405-1.2841.8772-1.9351,1.3067-.068-.8777-.136-1.7554-.2021-2.6336,1.0683-1.5385,3.5426-1.6418,3.9389-3.8627,0-.0002-.058.0754-.058.0754.7994-.0731,1.5987-.1461,2.3982-.2192.1696.1914.3427.3796.5191.5648-.2173,1.8909,1.107,2.2,2.5013,2.437Z"/>
  <path class="cls-13" d="M88.0261,39.5556c.8448-.0115,1.6896-.023,2.5383-.035-.8572.5395-1.7184,1.0795-2.5796,1.6196,0,0-.3762-.3856-.3759-.3853.1392-.3996.2782-.7994.4172-1.1993Z"/>
  <path class="cls-13" d="M87.9848,41.1402c-.4263.4135-.8527.827-1.277,1.2428-.1743-.1829-.3473-.3712-.5161-.5614.4729-.355.9449-.711,1.4168-1.0671,0,0,.3762.3856.3762.3857Z"/>
  <path class="cls-16" d="M127.2955,72.7472c.0039,1.8482-.674,3.1574-2.7502,3.3881-1.0114,5.206,2.1765,10.0678,1.2291,15.2474-.5572.137-1.1162.2742-1.6721.4107-.1058-.3831-.359-.575-.7566-.5764-.6975-6.202-1.7188-12.333-3.9871-18.1859-.0362-1.2369-.0712-2.479-.1064-3.7211-.1989-2.4235-.3751-4.8492-.6038-7.2699-.191-2.0212-.4438-4.0365-.6692-6.0544l.4698-.3602c1.0451.6152,2.0902,1.2305,3.1344,1.8467.5399,1.564,1.0809,3.1271,1.6208,4.6915-.0008,2.5228-.0008,5.0442-.0008,8.4301,1.0427-1.7897,1.605-2.755,2.1672-3.7203.5749,1.5245,1.1498,3.0489,1.7248,4.5734.0667.4334.1334.8669.2001,1.3004Z"/>
  <path class="cls-13" d="M106.7766,47.08c1.0172-1.4713,2.0344-2.9426,3.0549-4.417.9769.2098,1.9505.4227,2.9227.6358.0566.433.1147.8659.1727,1.2987,0,0,.0255-.0359.0255-.0359-1.0354.7006-1.3825,1.7135-1.3222,2.9115-.0773.2095-.1148.4259-.1122.6527-.3662.8939-.7327,1.7845-1.0991,2.6751-.8942,2.0376-1.9686,4.0391-1.2825,6.3935,0,0-.0264.0409-.0264.041-.7081.5547-1.5065,1.0279-2.0996,1.6862-.6271.6959-1.0587,1.5677-1.5756,2.3628-.1354-1.6518-.9772-2.6873-2.6316-3.0123,1.3239-3.7293,2.6487-7.4607,3.9734-11.1921Z"/>
  <path class="cls-3" d="M111.5177,48.1224c-.0023-.2234.0352-.4398.1129-.6536.4408-.972.8813-1.9396,1.3218-2.9072,0,0-.0255.0358-.0255.0359.998.3859,1.996.7718,2.9917,1.1581-.1116.2573-.2541.4942-.4297.7122-.131,1.5729-.2621,3.1448-.3931,4.7168-1.0316-1.2488-2.0684-1.165-3.1092-.0119-.1778-.1514-.3503-.3087-.5174-.4718.0161-.8595.0323-1.719.0485-2.5785Z"/>
  <path class="cls-16" d="M115.4889,46.4668c.1757-.2171.3182-.454.4298-.7113,1.0348.2777,1.9193.7331,2.0064,1.9535.1882,2.639.3468,5.2801.5207,7.9184.0032-.0019-.4666.3583-.4664.3582-1.2981-1.1236-1.0052-2.6797-1.0963-4.119-.1197-1.8939-.108-3.8112-1.3942-5.3998Z"/>
  <path class="cls-16" d="M122.4258,41.9127c.6434-.5887,1.2869-1.1774,1.9304-1.7661.0817,2.4966.0101,2.562-1.9304,1.7661Z"/>
  <path class="cls-13" d="M88.6369,14.4084c1.9015-.0466,3.897-.5459,5.4416,1.1302-1.8865-.0236-3.847.3031-5.4416-1.1302Z"/>
  <path class="cls-8" d="M127.0954,71.4468c-.575-1.5245-1.1499-3.0489-1.7235-4.567-.3356-1.5502-.6725-3.1065-1.0093-4.6629-.3394-4.1988-.6787-8.3976-1.0485-12.9749.7702.4181,1.2228.6638,1.6745.9102.485.7964.9709,1.5921,1.4558,2.3886.3313.4931.6636.9854.9942,1.479.476.7901.9535,1.5789,1.4297,2.3687,1.2797,2.0922,2.5608,4.1835,3.8387,6.277.4527.8149.9085,1.6273,1.3637,2.4402.0689.8265.1387,1.6526.2292,2.7244-1.6613.505-3.276.8515-4.7485,1.5137-.5957.2678-.8813,1.2249-1.3076,1.8683.0004.0002-.0218.1262-.0222.1247-.3906-.1147-.7658-.0776-1.1262.11Z"/>
  <path class="cls-1" d="M124.3625,62.2169c.3368,1.5564.6737,3.1127,1.0093,4.6629-.5635.959-1.1258,1.9242-2.1685,3.714,0-3.3859,0-5.9073.0008-8.4301.3857.0385.7715.0567,1.1583.0532Z"/>
  <path class="cls-12" d="M83.8507,41.9644c-.3963,2.2208-2.8706,2.3241-3.9389,3.8626-2.8469,1.4372-5.692,2.874-8.537,4.3107-.0759-.2079-.1819-.399-.3163-.5732-.0093-.7699-.0205-1.5403-.0299-2.3089,1.6608-.7221,3.2964-1.5068,4.9843-2.1555,2.6273-1.0099,4.8602-3.0076,7.8378-3.1357Z"/>
  <path class="cls-10" d="M85.9727,48.1665c.5793.0635,1.1586.1269,1.7371.1908-1.8348,1.244-3.6927,2.4543-5.4957,3.7413-1.6302,1.1638-3.2004,2.4114-4.7972,3.622-1.1764-.2946-2.3529-.5891-3.5292-.8825,1.232-.9441,2.464-1.8894,3.6964-2.8341.8348-.3938,1.6692-.7885,2.5037-1.1829,0,0-.1236.0866-.1236.0866,2.0029-.9138,4.0057-1.8275,6.0084-2.7412Z"/>
  <path class="cls-8" d="M85.9727,48.1665c-2.0027.9137-4.0055,1.8274-6.0084,2.7412.0498-.8158.0997-1.6315.1496-2.4471.6512-.4294,1.3953-.7661,1.9352-1.3066,1.4219-1.4235,2.7814-1.1444,4.1869-.0434-.1217.3435-.2093.6955-.2633,1.0559Z"/>
  <path class="cls-1" d="M66.5141,52.6403c-1.2574.8462-2.5147,1.6924-3.7703,2.5409-.2737-.358-.549-.7182-.8209-1.073.5991-.6609,1.1948-1.3273,1.7904-1.9936.7036-.1323,1.407-.2646,2.1105-.3969.2328.3056.4628.6131.6903.9227Z"/>
  <path class="cls-8" d="M80.0878,50.8211c-.8345.3945-1.669.7891-2.5037,1.1829.5267-1.0462,1.1313-1.9275,2.5037-1.1829Z"/>
  <path class="cls-1" d="M69.1523,51.4421c-.8809.3971-1.7618.7942-2.6405,1.1947-.2251-.3061-.4552-.6136-.6875-.918.7416-.4634,1.4827-.9279,2.2238-1.3924.3681.3719.7361.7438,1.1042,1.1157Z"/>
  <path class="cls-1" d="M71.3748,50.1377c-.7425.4332-1.4851.8664-2.2251,1.302-.3655-.3695-.7336-.7415-1.1006-1.1125.0466-.2735.1709-.5059.3739-.6962.8779-.0222,1.7559-.0444,2.6338-.0667.1361.1743.2421.3655.3181.5733Z"/>
  <path class="cls-14" d="M89.2264,94.0189c-2.614.2749-2.9093-2.8032-5.171-3.4987-1.499.5464-1.965,3.612-4.6788,2.374-.5922-.2702-1.7535.8727-2.71,1.195-1.3429.4525-2.7391.7465-4.1124,1.1089,2.4768-4.1015,4.8538-8.2683,7.4595-12.2868,2.3849-3.6777,5.0171-7.1952,7.5404-10.7815,2.134.5283,3.5939,1.5813,3.9207,4.0112.4016,2.9867,1.0858,5.9354,1.6447,8.9023-.1692.8341-.3353,1.6665-.5014,2.4989-1.1305,2.159-2.2612,4.3179-3.3918,6.4768Z"/>
  <path class="cls-1" d="M93.1228,85.0414c-.5621-2.9651-1.2463-5.9138-1.6479-8.9005-.3269-2.4299-1.7868-3.4829-3.9207-4.0112.5204-1.4063,1.0411-2.8108,1.5627-4.2123,1.2691-.304,2.5372-.6109,3.8043-.9183,1.5139.8372,2.5869,2.5936,4.6716,2.248-.3958,5.5743-2.1247,10.7715-4.4699,15.7944Z"/>
  <path class="cls-8" d="M77.4169,55.7206c1.5967-1.2106,3.167-2.4582,4.7972-3.622,1.803-1.287,3.661-2.4973,5.4957-3.7413,2.6796-1.3569,5.3584-2.7134,8.5975-4.3538-.624,1.8493-1.0622,3.1485-1.4976,4.4453-1.571,2.0809-3.145,4.1642-4.719,6.2474-1.2136,1.5889-2.3276,3.27-3.6796,4.7308-.7671.8289-1.9242,1.2971-2.9042,1.9246-1.7711-1.5062-3.5436-3.0096-5.3162-4.5129-.2579-.3728-.5158-.7455-.7737-1.1181Z"/>
  <path class="cls-11" d="M78.1906,56.8387c1.7726,1.5033,3.5451,3.0066,5.3161,4.5129.1105,1.0722.2225,2.1415.335,3.2076-2.8247-1.7246-5.65-3.4462-8.2261-5.0158-.0543-2.322,1.5319-2.1922,2.575-2.7046Z"/>
  <path class="cls-12" d="M89.2264,94.0189c1.1307-2.1589,2.2613-4.3178,3.3922-6.4769.3757,1.0222.3537,2.4205,2.0639,2.1794-.045,4.2072-1.0108,8.1636-3.2105,11.7839-1.536-.103-3.2683.3709-4.2312-1.4084.6678-2.0441,1.3268-4.061,1.9856-6.078Z"/>
  <path class="cls-10" d="M47.4052,37.0697c-.5408.5996-1.0817,1.1991-1.6515,1.831.4199,2.1521.9704,4.315,1.2349,6.5122.2694,2.2365-.477,2.684-3.4461,2.4109q.6711-4.8293-1.5483-10.8226c-.0016,0,.1345-.2789.1334-.2775,1.7584.1163,3.518.2311,5.2776.346Z"/>
  <path class="cls-7" d="M68.4229,49.6311c-.203.1903-.3272.4226-.3739.6962-.7421.4637-1.4832.9281-2.2248,1.3916-.7039.1311-1.4074.2634-2.1109.3957l-.004.05c-.1066-1.6535-.6628-2.844-2.6441-2.5676l.0577.0846c-.0067-.466-.0135-.9319-.0198-1.3975-.8256-1.1475-1.6516-2.2955-2.4777-3.4435.2064-.0286.4138-.0517.619-.0867,4.8339-.8242,4.9784-1.0437,3.7503-5.4051-.3357-1.192-.5991-2.4043-.8957-3.6073.1026-.3607.1351-.7277.0976-1.1009.9058-.1444,1.8116-.2887,2.7175-.4325,1.1697,5.1413,2.3392,10.2821,3.5086,15.4228Z"/>
  <path class="cls-4" d="M62.0992,35.7417c.2966,1.203.5599,2.4153.8957,3.6073,1.2281,4.3613,1.0836,4.5809-3.7503,5.4051-.2053.035-.4127.058-.6194.0855-.8919-.5537-1.7833-1.1065-2.6747-1.6591.4508-.6936.9016-1.3872,1.3525-2.0834-.0485-1.3431-.0973-2.6837-.146-4.0244-.0086-.4851-.0171-.9702-.0255-1.4553.3283-.2147.6884-.3306,1.0818-.3448,1.2964.1582,2.5912.3137,3.8861.4692Z"/>
  <path class="cls-10" d="M55.9504,43.1804c.8914.5527,1.7828,1.1054,2.6747,1.6591.8264,1.1491,1.6525,2.2971,2.478,3.4446-2.5326-.2207-4.87.5632-7.2801,1.1986-3.0147.7946-3.9227-.4513-3.4356-4.2724,1.6599-1.1438,4.2465.1071,5.5629-2.0299Z"/>
  <path class="cls-5" d="M63.7133,52.1145c-.5956.6663-1.1912,1.3327-1.7904,1.9936-1.2886.3958-2.3022.1406-3.336-.8497-.6593-.6314-1.774-.7876-2.6857-1.1577,1.1696-2.0385,3.0003-2.6517,5.2221-2.4192-.0005,0-.0582-.0846-.0581-.0846.4842,1.2646,1.1267,2.3664,2.6441,2.5676,0,0,.004-.05.0039-.05Z"/>
  <path class="cls-12" d="M47.4052,37.0697c-1.7596-.1149-3.5193-.2297-5.2776-.346,3.1144-3.4694,6.5894-3.2618,10.267-1.0115-1.6621.4524-3.3258.905-4.9894,1.3576Z"/>
  <path class="cls-10" d="M57.1568,37.0727c.0487,1.3407.0975,2.6812.146,4.0244-3.4673-.225-4.1903-1.2823-3.4062-5.0748.2763-.0781.5541-.1159.8377-.1128.8076.3873,1.615.7753,2.4225,1.1633Z"/>
  <path class="cls-10" d="M49.6759,38.8782c.2636.7497.5372,1.4968.7474,2.2613.0067.0245-.6334.227-.972.3465-.2241-.7737-.4483-1.5475-.6724-2.3213l.897-.2866Z"/>
  <path class="cls-4" d="M68.4229,49.6311c-1.1694-5.1408-2.3389-10.2815-3.5086-15.4228.7885-.4604,1.5771-.9202,2.3668-1.3778.4216.1805.842.3587,1.2625.5369.0295,1.4216-.1518,2.8866.1306,4.256.6669,3.2344,1.5544,6.4233,2.3527,9.6306.0111.7703.0223,1.5406.0316,2.3106-.8797.022-1.7577.0442-2.6356.0664Z"/>
  <path class="cls-9" d="M68.5436,33.3674c-.4205-.1782-.8409-.3564-1.2625-.5368,2.1493-1.5846,4.4384-2.1037,6.9568-.9084-.2611.4233-.5278.846-.7916,1.2694-1.6322.0591-3.2674.1175-4.9027.1759Z"/>
  <path class="cls-12" d="M62.0992,35.7417c-1.2949-.1555-2.5897-.311-3.8861-.4692,1.1943-1.0571,2.5771-.9287,3.985-.6326.0362.374.0036.741-.0989,1.1018Z"/>
  <path class="cls-12" d="M57.1568,37.0727c-.8074-.388-1.6148-.776-2.4224-1.1633.7998-.0967,1.5998-.1941,2.3984-.2918.007.4848.0155.9699.024,1.455Z"/>
  <path class="cls-10" d="M57.1487,23.1389c-2.7622-.207-5.4338.9744-8.3474.0002-1.4618-.4888-3.4679.65-5.2268,1.052.0595-.9983.1181-1.9958.1902-3.2222,4.3924-.2303,8.535-.5399,12.6806-.5871.8341-.0096,1.6794.9769,2.5173,1.5032-.6061.4173-1.2099.8357-1.8138,1.2541Z"/>
  <path class="cls-6" d="M57.1487,23.1389c.6039-.4184,1.2078-.8368,1.8138-1.2541.9396,1.6794,1.8771,3.3577,2.8144,5.0361-1.9624.5628-3.2592.0035-3.7638-2.1065-.1419-.5935-.5685-1.1189-.8645-1.6755Z"/>
  <path class="cls-8" d="M111.9866,51.1727c1.0408-1.1531,2.0776-1.2369,3.1096.012.127.823.1841,1.6637.3912,2.4658,1.3427,5.1989,1.3854,10.7108,3.7648,15.6594.035,1.2421.0701,2.4842.1063,3.7211-.9031.8243-1.8303.5432-2.8777.2227-1.5602-.4774-3.1885-.7331-4.7874-1.083-1.126-1.1822-2.5483-.9369-3.9445-.8174-1.1595-.2345-2.3191-.4689-3.4357-.6948-.4399-2.0611.0281-3.762,1.1006-5.333,1.8219-2.4274,3.4807-4.9293,3.6962-8.0903,0,0,.0264-.0409.0265-.041,1.9029-1.5564,2.7026-3.6347,2.8501-6.0216Z"/>
  <path class="cls-6" d="M105.4138,65.3255c-1.0725,1.571-1.5406,3.2719-1.1006,5.333,1.1167.2259,2.2762.4603,3.4371.6947-3.6539,1.4629-6.8658,3.4195-8.2502,7.4102-1.6047,3.6533-3.2094,7.3067-4.8158,10.959-1.712.2401-1.69-1.1582-2.0658-2.1804.1658-.8323.3319-1.6647.501-2.4988,2.3484-5.0246,4.0773-10.2218,4.4726-15.7948-.0005.0014-.0367-.406-.0367-.406,1.0372-.653,1.5962-1.5509,1.4413-2.8143,0,0-.0316.0301-.0316.0301,1.1963-.9503,2.3925-1.9006,3.6369-2.8892-.845-1.613-1.4864-2.8373-2.1277-4.0616.2913-.0525.4597-.2279.505-.5262.6082-.1038,1.2164-.2076,1.8246-.3114,1.6537.3271,2.4954,1.3626,2.6305,3.0123-.0072,1.3464-.014,2.6948-.0207,4.0433Z"/>
  <path class="cls-11" d="M99.5001,78.7634c1.3844-3.9907,4.5964-5.9473,8.2502-7.4102,1.3948-.1195,2.8172-.3648,3.9431.8175,1.1885,1.4043,2.3774,2.8089,3.8145,4.5065,0,1.3703-.0763,3.0366.0283,4.6914.064,1.0112.0637,2.3985.6833,2.9372,2.5135,2.1847.6275,4.1465-.0765,6.5454-1.7269-.1597-3.4974-.3235-5.6726-.5246,0-1.454.0355-2.8825-.0088-4.3085-.0591-1.8996,1.9529-1.8692,2.9761-3.3448-.9525-.702-2.1721-1.2183-2.8085-2.1381-2.3187-3.3504-5.1858-3.7011-8.669-2.1162-.7226.3288-1.6351.2405-2.4601.3445Z"/>
  <path class="cls-11" d="M123.3456,91.2169c.3975.0015.6508.1933.7566.5764-.2542-.1916-.5054-.384-.7566-.5764Z"/>
  <path class="cls-3" d="M127.0954,71.4468c.3603-.1877.7356-.2248,1.1261-.11-.3096.47-.6196.9385-.9278,1.4087-.0648-.4317-.1316-.8652-.1983-1.2987Z"/>
  <path class="cls-8" d="M97.5555,68.8425s.0361.4074.0367.406c-2.0842.3443-3.1571-1.4121-4.6711-2.2493.7664-1.6878,1.5255-3.379,2.2995-5.0634.4263-.9274.8778-1.8432,1.3181-2.7642,1.6641-1.0437,2.7079-2.4718,2.7885-4.497.8071.0012,1.6143.0025,2.4203.0042-.2568,1.3011-.5125,2.6018-.7682,3.9026-.0453.2983-.2136.4737-.5059.5279-1.0071,2.2082-2.1794,4.3787-1.5083,6.9491,0,0,.0316-.0301.0316-.0301-1.6836.3222-1.3393,1.6824-1.4412,2.8143Z"/>
  <path class="cls-10" d="M100.9794,58.5813c.2557-1.3008.5113-2.6014.7682-3.9027q.827-1.601-1.3754-2.1145c1.1426-3.3421,2.9762-6.0975,5.8848-9.1437.2405,1.6991.3792,2.6797.5189,3.6599-1.324,3.731-2.6488,7.4625-3.9727,11.1918-.6074.1016-1.2156.2054-1.8238.3092Z"/>
  <path class="cls-9" d="M96.4712,48.5308c1.0497-2.0373,1.7773-4.2977,3.8822-5.609.134,4.4788-2.4375,7.8677-4.6857,11.3634-.276.4293-1.1165.4959-1.694.7278.8334-2.1625,1.6654-4.3224,2.4974-6.4823Z"/>
  <path class="cls-5" d="M96.4712,48.5308c-.832,2.1598-1.664,4.3197-2.4974,6.4823q-2.242,1.4917-3.8828-.3171c1.5737-2.0831,3.1476-4.1663,4.7187-6.2472.5519.0288,1.1067.0554,1.6616.082Z"/>
  <path class="cls-10" d="M99.3272,54.6745c-.0807,2.0252-1.1244,3.4533-2.7885,4.497-.1935-2.1951.6841-3.7262,2.7885-4.497Z"/>
  <path class="cls-8" d="M68.5436,33.3674c1.6353-.0583,3.2704-.1167,4.9027-.1759,1.2754,1.4708,3.0387,1.2376,4.6857,1.2555,4.4067.0478,8.8143.0163,13.1679.0163.5738,1.5569-.5084,1.9417-1.3399,2.5219-1.1828.8255-2.3261,1.7078-3.4867,2.5659-1.0571.6539-2.4896.903-2.6805,2.4886,0,0,.058-.0755.058-.0754-2.9777.1282-5.2105,2.1259-7.8378,3.1358-1.688.6487-3.3235,1.4334-4.9843,2.1555-.8-3.209-1.6875-6.3978-2.3544-9.6323-.2824-1.3694-.1011-2.8344-.1306-4.256Z"/>
  <path class="cls-12" d="M83.7927,42.0397c.1909-1.5856,1.6234-1.8347,2.6804-2.4886.5147.0019,1.029.0039,1.5481.0052-.1341.3991-.2731.799-.4124,1.1985-.4723.3558-.9443.7118-1.4171,1.0668-.8003.0719-1.5996.145-2.399.2181Z"/>
  <path class="cls-12" d="M119.2522,69.3099c-2.3794-4.9486-2.422-10.4605-3.7648-15.6594-.2071-.802-.2643-1.6428-.3912-2.4658.1307-1.5721.2617-3.1441.3928-4.717,1.2861,1.5877,1.2744,3.505,1.3941,5.3989.0911,1.4393-.2017,2.9954,1.0964,4.119.2251,2.018.4779,4.0333.6689,6.0545.2287,2.4206.4049,4.8464.6038,7.2699Z"/>
  <path class="cls-3" d="M105.4138,65.3255c.0067-1.3485.0135-2.697.0207-4.0433.5172-.7929.9488-1.6648,1.5759-2.3607.5931-.6583,1.3915-1.1315,2.0996-1.6862-.2156,3.161-1.8744,5.6628-3.6962,8.0902Z"/>
  <path class="cls-3" d="M111.9866,51.1727c-.1476,2.3868-.9472,4.4652-2.8501,6.0216-.6862-2.3544.3882-4.3558,1.2823-6.3923.35-.0326.7002-.0667,1.0504-.1011.1671.1631.3396.3204.5174.4718Z"/>
  <path class="cls-9" d="M111.4692,50.7009c-.3502.0343-.7004.0684-1.0504.1011.3665-.8918.733-1.7823,1.0991-2.6763-.0164.8562-.0326,1.7157-.0487,2.5752Z"/>
  <path class="cls-9" d="M112.9524,44.5615c-.4405.9676-.881,1.9353-1.3218,2.9072-.0607-1.1937.2864-2.2067,1.3218-2.9072Z"/>
  <path class="cls-14" d="M63.7093,52.1645c-1.5173-.2012-2.1598-1.3029-2.6441-2.5676,1.9812-.2765,2.5375.9141,2.6441,2.5676Z"/>
  <path class="cls-10" d="M98.9652,66.0583c-.6712-2.5704.5011-4.7409,1.5082-6.9491.6423,1.2226,1.2836,2.4469,2.1287,4.0599-1.2444.9886-2.4406,1.9389-3.6369,2.8892Z"/>
  <path class="cls-10" d="M97.5555,68.8425c.102-1.1318-.2423-2.4921,1.4412-2.8143.155,1.2633-.404,2.1612-1.4412,2.8143Z"/>
</svg>