<?xml version="1.0" encoding="UTF-8"?>
<svg id="Layer_1" xmlns="http://www.w3.org/2000/svg" viewBox="0 0 145.8008 106.9876">
  <defs>
    <style>
      .cls-1 {
        fill: #141814;
      }

      .cls-2 {
        fill: #b0d359;
      }

      .cls-3 {
        fill: #b8d433;
      }
    </style>
  </defs>
  <path class="cls-1" d="M139.1402,75.3781c-8.5208,14.9053-23.9064,19.7182-38.3443,25.7355-4.8229,2.01-10.2021,2.6851-15.3271,3.9705-2.8511.4768-5.6968,1.3217-8.5542,1.3635-9.881.1447-19.9812,1.3026-29.6033-.298-18.0182-2.9973-34.015-10.9021-42.8512-27.8993C-.0372,69.5992-.7702,59.5158.6597,49.5975c.0932-.6462.0296-1.315.0389-1.9733,2.9548-11.572,7.537-22.2989,16.082-30.9679,4.2391-2.4577,8.398-5.0686,12.7354-7.3386,7.2951-3.818,14.5878-6.159,21.8776.3574,2.6878,2.4026,5.924,4.1917,8.9101,6.2605,0,0,.046.024.0462.0237,1.0526.7055,2.1049,1.4113,3.1573,2.1171,2.0354,1.9268,4.0708,3.8536,6.3873,6.0464,1.7342-5.5055,3.2626-10.7793,5.0582-15.9604,2.7478-7.9287,7.3241-9.6642,15.5565-6.9949,15.8437,5.1372,31.3477,10.8173,44.3363,21.7706,1.1246.9483,3.0905.899,4.6715,1.3086,1.5716,3.119,3.1373,6.2425,4.7029,9.3659.5571,2.0459,1.6152,4.1005,1.5801,6.1362-.1201,6.9587-.6244,13.9108-.9821,20.8655-1.8925,4.9212-3.7851,9.8425-5.6776,14.7637ZM93.7309,89.3659c.7731,2.5695,1.5462,5.1391,2.5725,8.5501,4.3066-2.2863,7.9844-4.2388,11.6622-6.1913,2.1654-1.0833,4.3309-2.1665,6.4963-3.2498,2.8131-1.0613,5.6263-2.1225,8.4394-3.1838-.1464-.6157-.2927-1.2314-.4391-1.8471-10.2925-.7331-20.5851-1.4662-31.5137-2.2446.9658,2.733,1.835,5.1929,2.7043,7.6527-.1141.1925-.0881.3637.0781.5137ZM15.5233,25.9815c-7.0152,9.1809-10.4716,19.4128-9.7703,31.6347,4.4122-2.1557,8.1959-3.8107,11.7896-5.8077,4.8063-2.6709,9.4654-5.6069,14.1877-8.429.7357-.2955,1.4715-.5911,2.2072-.8866,7.2897-2.5913,14.6867-4.9245,21.8206-7.8905,3.2239-1.3404,7.8576-1.2728,8.7173-6.1678l-.7911-2.7135c-6.6724-5.1312-13.3215-10.2935-20.0524-15.3467-.6982-.5242-2.0161-.7916-2.8217-.5174-9.6563,3.2869-18.6397,7.6908-25.1781,15.9273l-.1088.1974ZM77.1618,37.6379c1.5215,4.538,3.0429,9.076,4.524,13.4938,19.6548,1.445,39.0502,2.8709,58.9088,4.3309,0-5.347.6719-10.7028-.1984-15.7951-.7915-4.6314-3.1381-9.0819-8.6901-10.2152-2.1391.0414-4.2785.1273-6.4174.1168-14.123-.0688-28.2458-.1846-42.3688-.2295-6.4317-.0205-7.5447,1.643-5.7582,8.2982ZM19.7216,88.6291c1.4328-.8634,2.6956-1.6009,3.9353-2.3752,7.3127-4.5673,14.6581-9.0837,21.9145-13.7391,4.1877-2.6866,8.1061-5.8061,12.3655-8.3649,5.8179-3.4951,11.9074-6.5378,17.728-10.0288,1.1198-.6716,2.4184-2.7693,2.1295-3.7782-1.5475-5.4041-3.3562-10.7613-5.5149-15.9516-1.2256-2.9468-3.3147-3.5009-6.6-1.6788-4.832,2.6798-10.2513,4.2744-15.2714,6.6466-9.6533,4.5618-19.1999,9.3492-28.7951,14.034-5.3242,2.5995-10.6573,5.1806-15.948,7.7513.786,11.3586,5.8654,20.1274,14.0567,27.4847ZM139.6855,60.9702l-1.1898-1.7629c-10.0213-.5212-20.0416-1.0627-30.0645-1.5518-3.1503-.1537-6.3516.137-9.4513-.3136-5.024-.7304-9.9836-1.905-14.9703-2.892-.4103.4759-.8206.9518-1.231,1.4277,2.2375,6.6729,4.4275,13.3627,6.7832,19.9937.245.6896,1.4328,1.3803,2.2517,1.4745,4.6116.5303,9.2427.8953,13.8699,1.2842,7.3152.6149,14.6327,1.204,23.754,1.952,2.8954-5.541,6.5717-12.5764,10.248-19.6118ZM75.1557,24.9167c18.0042,1.3261,34.8683,1.9775,52.0285-.9184-12.7981-9.3247-27.0376-14.2976-41.7792-17.9727-1.24-.3091-3.8495,1.1476-4.3859,2.3995-2.126,4.9619-3.6804,10.1686-5.8634,16.4916ZM21.5115,91.2323c3.7539,1.7956,6.146,3.2523,8.7363,4.1129,5.1851,1.7227,10.4045,3.9166,15.7493,4.4129,4.7948.4453,10.5892.2428,14.5094-2.0864,8.5138-5.0583,16.1556-11.6012,24.0262-17.7018.8978-.6959,1.6422-2.6392,1.335-3.6692-1.9301-6.4704-4.1782-12.846-6.7352-20.4906-18.9526,11.651-37.696,23.1733-57.621,35.4221ZM62.6161,100.7754c10.6381.7281,20.2141.62,29.8334-3.1677-1.6303-5.1027-3.1582-9.8849-4.8788-15.2701-8.5338,6.3053-16.3462,12.0775-24.9545,18.4379Z"/>
  <path class="cls-3" d="M77.1618,37.6379c-1.7865-6.6552-.6735-8.3187,5.7582-8.2982,14.123.045,28.2458.1607,42.3688.2295,2.1389.0104,4.2783-.0755,6.4178-.1163-.6194.51-1.2392,1.0196-1.8449,1.5177,5.0085,1.5901,9.1615,7.6106,9.722,13.7916.8432,9.2987-3.5794,9.7995-11.5943,8.1063-1.2516-.2644-2.4236-1.1041-3.6651-1.1869-11.3379-.7563-22.6786-1.501-34.0291-2.0134-2.7589-.1245-4.4419-.7929-5.9769-3.3272-1.9258-3.1795-4.7309-5.8263-7.1566-8.7031Z"/>
  <path class="cls-3" d="M33.9375,42.4928c-.7357.2956-1.4715.5911-2.2079.8894-2.9994,1.0905-6.1056,1.9524-8.9724,3.3171-4.7363,2.2545-9.3181,4.8335-14.0879,7.3403-2.853-7.5885,1.7062-12.5327,3.5925-18.096,1.1219-3.3089,2.1767-6.6406,3.2616-9.962,0,0,.1088-.1974.1101-.1993,1.6464-.1689,3.6454.2021,4.8705-.6036,3.6989-2.4326,6.7953-5.9327,10.6975-7.8624,3.9168-1.937,8.5846-3.5457,12.8004-3.288,3.0349.1855,5.786,3.8049,8.8128,5.6475,3.5386,2.1541,7.2393,4.0419,10.8696,6.0453.2637.9045.5274,1.809.7903,2.7151-6.4211,2.8293-12.5767,5.9674-20.0997,5.7109-2.9237-.0997-6.0599,3.0337-8.8905,4.9956-.8712.6038-1.0507,2.2055-1.5469,3.3502Z"/>
  <path class="cls-2" d="M21.5115,91.2323c19.925-12.2488,38.6684-23.7711,57.621-35.4221,2.5569,7.6446,4.8051,14.0202,6.7352,20.4906.3072,1.03-.4372,2.9733-1.335,3.6692-7.8706,6.1006-15.5124,12.6434-24.0262,17.7018-3.9202,2.3292-9.7146,2.5317-14.5094,2.0864-5.3448-.4964-10.5642-2.6903-15.7493-4.4129-2.5903-.8606-4.9824-2.3173-8.7363-4.1129ZM27.5944,90.3904c1.9803,1.1745,3.2137,1.9138,4.4545,2.6407,10.3889,6.0858,20.8918,6.9826,31.1246-.0642,6.2527-4.3059,12.1038-9.1968,18.1112-13.8558,2.1381-1.6581,2.6842-3.4092.8712-5.9112-1.2034-1.6608-1.6694-3.875-2.3746-5.8735-1.4227-4.032-4.9008-4.9066-8.514-2.4996-1.9265,1.2833-4.3582,1.7935-6.5272,2.7326-1.4653.6345-3.0386,1.1919-4.2754,2.1542-10.0729,7.8371-19.9601,15.9448-32.8703,20.6768Z"/>
  <path class="cls-2" d="M77.1618,37.6379c2.4256,2.8767,5.2307,5.5236,7.1566,8.7031,1.535,2.5343,3.218,3.2027,5.9769,3.3272,11.3505.5123,22.6912,1.2571,34.0291,2.0134,1.2415.0828,2.4135.9225,3.6651,1.1869,8.0149,1.6932,12.4375,1.1924,11.5943-8.1063-.5605-6.181-4.7135-12.2015-9.722-13.7916.6057-.4981,1.2255-1.0076,1.8449-1.5177,5.5516,1.1328,7.8982,5.5832,8.6897,10.2147.8702,5.0923.1984,10.4481.1984,15.7951-19.8586-1.46-39.254-2.8859-58.9088-4.3309-1.4811-4.4178-3.0026-8.9558-4.524-13.4938Z"/>
  <path class="cls-3" d="M114.4619,88.475c-2.1654,1.0832-4.3309,2.1665-6.4965,3.2498-4.9778.6193-10.4992,4.5188-14.2346-2.3589-.1662-.1499-.1922-.3212-.0783-.5149.1954-1.5726.391-3.144.6253-5.0262,6.0511,0,11.7578.0912,17.4599-.0312,3.9803-.0855,4.7726,1.3999,2.7242,4.6814Z"/>
  <path class="cls-2" d="M63.6843,25.721c-3.6303-2.0033-7.3311-3.8912-10.8696-6.0453-3.0269-1.8426-5.7779-5.462-8.8128-5.6475-4.2158-.2577-8.8836,1.351-12.8004,3.288-3.9021,1.9297-6.9986,5.4298-10.6975,7.8624-1.2251.8057-3.224.4346-4.8705.6036,6.5371-8.2345,15.5205-12.6384,25.1768-15.9253.8055-.2742,2.1235-.0068,2.8217.5174,6.7309,5.0533,13.3799,10.2156,20.0524,15.3467Z"/>
  <path class="cls-2" d="M15.5233,25.9815c-1.0849,3.3214-2.1397,6.6531-3.2616,9.962-1.8863,5.5633-6.4455,10.5075-3.5925,18.096,4.7697-2.5068,9.3515-5.0857,14.0879-7.3403,2.8669-1.3646,5.9731-2.2266,8.9724-3.3171-4.7216,2.8194-9.3806,5.7554-14.187,8.4263-3.5936,1.997-7.3773,3.652-11.7896,5.8077-.7013-12.2218,2.7551-22.4537,9.7703-31.6347Z"/>
  <path class="cls-2" d="M33.9375,42.4928c.4962-1.1447.6758-2.7464,1.5469-3.3502,2.8306-1.9619,5.9668-5.0953,8.8905-4.9956,7.523.2566,13.6785-2.8816,20.0997-5.7109-.8589,4.8933-5.4926,4.8257-8.7165,6.1661-7.1339,2.966-14.5309,5.2992-21.8206,7.8905Z"/>
  <path class="cls-2" d="M114.4619,88.475c2.0484-3.2815,1.2561-4.7669-2.7242-4.6814-5.7021.1225-11.4087.0312-17.4599.0312-.2343,1.8822-.4299,3.4536-.6253,5.0262-.869-2.4586-1.7383-4.9185-2.704-7.6515,10.9286.7784,21.2212,1.5115,31.5137,2.2446.1464.6157.2927,1.2314.4391,1.8471-2.8131,1.0613-5.6263,2.1225-8.4394,3.1838Z"/>
  <path class="cls-2" d="M93.7309,89.3659c3.7354,6.8777,9.2567,2.9782,14.2346,2.3589-3.6777,1.9524-7.3555,3.9049-11.6621,6.1912-1.0263-3.411-1.7994-5.9806-2.5725-8.5501Z"/>
  <path class="cls-3" d="M27.5944,90.3904c12.9102-4.732,22.7974-12.8397,32.8703-20.6768,1.2368-.9623,2.8101-1.5198,4.2754-2.1542,2.169-.9392,4.6007-1.4493,6.5272-2.7326,3.6132-2.407,7.0913-1.5323,8.514,2.4996.7052,1.9986,1.1712,4.2128,2.3746,5.8735,1.813,2.5021,1.2669,4.2531-.8712,5.9112-6.0075,4.659-11.8586,9.5499-18.1112,13.8558-10.2328,7.0469-20.7357,6.1501-31.1246.0642-1.2408-.7269-2.4742-1.4662-4.4545-2.6407Z"/>
</svg>