<?xml version="1.0" encoding="UTF-8"?>
<svg id="Layer_1" xmlns="http://www.w3.org/2000/svg" viewBox="0 0 161.2849 135.699">
  <defs>
    <style>
      .cls-1 {
        fill: #141814;
      }

      .cls-2 {
        fill: #809e8f;
      }
    </style>
  </defs>
  <path class="cls-1" d="M122.2475,23.1677c.7099-1.4541,1.4198-2.9081,2.1297-4.3622.7304.5549,1.4608,1.1097,2.1913,1.6646-3.4169,10.3984-6.8339,20.7968-10.2508,31.1952.6414.402,1.2828.804,1.9241,1.206,5.0586-5.275,10.1172-10.5499,15.1759-15.8249.4595.3513.919.7026,1.3785,1.054-4.4114,7.2023-8.8228,14.4046-13.8981,22.6909,5.9761-2.2699,10.0838-4.8469,13.0597-9.2727,1.6112-2.3961,3.698-5.1014,5.8994-.2989-.7606,1.3306-1.5211,2.6612-2.2817,3.9918-4.1133,4.9391-8.2267,9.8782-12.34,14.8173.2779.2753.5557.5506.8336.8259,3.4309-.9282,6.8618-1.8564,10.2927-2.7846,3.1248-1.3127,6.214-2.7216,9.3892-3.8981,1.6116-.5971,3.3784-.7754,5.075-1.143.4112.7866.8225,1.5732,1.2337,2.3599-1.357.8811-2.714,1.7622-4.071,2.6432-5.237,3.7075-10.4739,7.4149-15.7109,11.1224.2662.4557.5323.9115.7985,1.3672,8.1284-.8948,16.2567-1.7897,24.3851-2.6845.0333.31.0666.6199.0999.9299-6.9483,3.913-13.8967,7.8261-22.1208,12.4576,8.6374,1.4976,15.7909,2.6766,22.9093,4.0388,1.0627.2034,1.9608,1.2678,2.935,1.9339-1.0696.6958-2.06,1.6435-3.2324,2.0123-1.0508.3306-2.3207-.1232-3.4617.0224-6.8517.8744-13.694,1.8219-20.5395,2.7448.0295.2847.0591.5693.0886.854,7.149,2.1714,14.2981,4.3428,21.4471,6.5141-.0681.5796-.1362,1.1592-.2043,1.7388-3.3358-.1734-6.6717-.3468-10.0075-.5202-9.0315-2.5966-18.1641-4.173-27.7779-3.0599,5.0673,5.0629,12.6772,5.8512,17.428,10.7838-.2886.5896-.5771,1.1791-.8657,1.7687-8.1581-2.3819-16.3162-4.7638-24.4743-7.1457-.6484-.1629-1.2968-.3257-1.9452-.4886.2357.4726.4714.9452.7071,1.4178,4.6382,5.7039,9.2765,11.4078,13.9147,17.1118-.2761.3533-.5522.7065-.8282,1.0598-1.981-1.1102-3.9619-2.2204-5.9429-3.3306-5.872-3.4164-11.744-6.8328-18.9242-11.0103,2.4986,5.7285,4.4831,10.2785,6.4677,14.8285-.543.3514-1.0859.7027-1.6289,1.0541-4.8955-5.513-9.7909-11.026-15.4021-17.3451-2.3627,7.1377-4.4073,13.3144-6.452,19.4912-.3672-.0846-.7343-.1693-1.1015-.2539-1.9954-6.4867-3.9909-12.9734-6.372-20.714-3.4948,5.3413-6.0818,9.5616-8.9836,13.5531-.7809,1.0741-2.5184,1.4528-3.8168,2.1507.0555-1.3183-.0946-2.6864.2098-3.9445.6083-2.5142,1.4657-4.9681,2.6226-8.7688-6.9071,4.1859-12.5735,7.6199-18.2399,11.0539-.3734-.5088-.7468-1.0176-1.1203-1.5264,1.9814-3.0829,3.9628-6.1657,4.954-7.708-2.1315-1.4084-3.8323-2.5322-5.5332-3.656.8077-.8224,1.6154-1.6448,2.4231-2.4672-7.5586,1.2451-13.2026,8.0674-21.0675,8.4204-.2147-.4574-.4294-.9148-.6441-1.3723,5.0945-4.094,10.1891-8.1879,15.2836-12.2819-.0982-.2822-.1964-.5645-.2945-.8467-11.7704,1.8116-23.5409,3.6232-35.3113,5.4348-.1289-.4368-.2577-.8737-.3866-1.3106,6.944-3.3681,13.888-6.7362,20.832-10.1043-.1511-.6593-.3023-1.3187-.4534-1.978-6.1153-1.0642-12.2652-1.9708-18.3226-3.299-1.5902-.3487-2.8938-2.004-4.3291-3.0592,1.6973-.4775,3.3738-1.262,5.0955-1.3786,6.9791-.4728,13.9722-.7403,20.9601-1.0835.1151-.5214.2302-1.0429.3453-1.5643-6.4819-3.5726-12.9638-7.1451-19.4456-10.7177.1988-.3909.3976-.7817.5965-1.1726,7.6164,1.0737,15.2327,2.1474,22.8491,3.2211.281-.4555.5619-.9109.8428-1.3664-8.4232-6.8098-16.8464-13.6195-25.2695-20.4293.308-.3682.616-.7364.924-1.1046,9.8577,4.1157,19.7154,8.2314,29.5731,12.347l.7483-1.0548c-4.8858-6.6515-9.7716-13.3031-14.6574-19.9546.32-.343.64-.6861.9601-1.0291,4.109,3.0209,8.2179,6.0418,12.8547,9.4507.4397-8.3549-8.4442-11.5951-8.2884-20.2196,6.1368,6.4123,11.3552,11.865,16.5735,17.3177.4017-.3039.8033-.6078,1.205-.9118-2.1504-5.4636-4.7276-10.8057-6.3273-16.426-1.5054-5.289-8.011-8.2703-7.3242-14.42.4383-.2522.8765-.5044,1.3148-.7565,4.5106,5.9759,9.0211,11.9517,13.5462,17.9003.2123-.1108.41-.1942.3355-.1628.0266-.0185-.1893.1314-.4053.2812-1.2635-6.7207-2.5025-13.4461-3.8016-20.1599-.6012-3.1071-4.1866-5.696-1.3949-10.3006,4.5216,8.8297,8.7119,17.0124,12.9022,25.195.7843-.2494,1.5686-.4988,2.3529-.7482-1.2135-7.1293-2.427-14.2586-3.6404-21.3879.5888-.174,1.1777-.3481,1.7665-.5221,2.9767,7.7677,5.9534,15.5353,8.93,23.303.4062-.0638.8123-.1276,1.2185-.1914V.309C65.9578.206,66.5757.103,67.1936,0c.3646,1.6128.8493,3.2092,1.0737,4.8413,1.1477,8.3494,2.1758,16.7157,3.379,25.0568.227,1.5736,1.0576,3.0601,1.737,4.9387,2.7432-5.991,2.7421-7.2548,1.6181-15.8461-.3348-2.5589.1505-5.2251.26-7.8422.6658.0045,1.3316.0089,1.9975.0134,1.0741,6.0774,2.1482,12.1549,3.2224,18.2323.423.0802.8459.1604,1.2689.2407,1.6511-9.0122,3.3022-18.0245,4.9532-27.0367l1.5786.1951v32.3225c4.5651-3.6646,6.3004-8.0119,6.3309-13.2791.0163-2.8033-.6021-6.335,3.9814-8.282-.3532,5.8021-.6665,10.9479-.9798,16.0938.475.1745.9501.349,1.4251.5235,3.25-7.3014,6.5-14.6029,9.75-21.9043.5026.1625,1.0051.3251,1.5077.4876-.4156,2.1142-.8312,4.2283-1.2468,6.3425-.3596,2.3728-.7192,4.7457-1.0788,7.1185-4.1538,9.4861-5.357,19.3974-4.6771,31.1265,5.1727-7.3809,9.5153-13.5775,13.858-19.7741.2861-.701.5722-1.4019.8583-2.1029.6482-1.22,1.2964-2.44,1.9447-3.66,0,0,.0559-.139.0559-.139.3792-.8403.7585-1.6807,1.1377-2.521.3661-.6594.7323-1.3187,1.0984-1.978ZM106.3817,118.2446l-.4579-.6705c-.0947.1467-.1893.2934-.2839.4401.2681.0531.5361.1062.8042.1593.1181.1755.2363.351.3544.5266-.0096-.0952.0163-.2326-.0363-.2768-.1036-.0871-.2506-.1224-.3804-.1787ZM89.0073,112.48c.2867.4684.5734.9367.8601,1.4051.191-.1478.382-.2956.573-.4434-.3337-.4202-.6673-.8404-1.001-1.2606-.5463-2.3433-1.0927-4.6867-1.6692-7.1596-3.7838,2.5182-3.633,3.198,1.2372,7.4585ZM59.8563,105.7205c3.641-1.6458,7.2821-3.2915,11.4946-5.1956-6.2912-3.9811-9.0513-2.661-12.0336,4.625-.1922.2555-.3845.5109-.5767.7664.3719-.0653.7438-.1306,1.1157-.1958ZM41.966,64.5946c-.8977-.4517-1.7954-.9033-2.6931-1.355-.1193.2098-.2387.4196-.358.6294.7349.5482,1.4698,1.0963,2.2047,1.6445,3.7556,5.2841,7.5112,10.5682,11.8085,16.6146.4775-4.0076.7781-6.5311,1.13-9.4845-3.8745-2.5808-7.9827-5.3173-12.0921-8.049ZM97.1123,56.9861c-2.2679,3.4215-4.2798,7.0528-6.8674,10.2126-3.3857,4.1343-2.2683,7.9282.3752,13.4552,1.7823-2.8109,3.5564-4.5544,4.0614-6.6097,1.3317-5.4201,2.1125-10.9756,3.1091-16.4795.1523-.8332.3045-1.6664.4568-2.4997-.2199-.0442-.4399-.0885-.6598-.1327-.1584.6846-.3169,1.3692-.4754,2.0539ZM61.501,94.3912c-8.6936-10.72-20.0167-6.924-30.0068-8.2319,8.6922,5.8503,18.0852,9.1716,30.0068,8.2319ZM80.1531,65.5933c-.5846.0402-1.1692.0804-1.7537.1206-.4583,4.9981-1.083,9.9896-1.2813,14.9981-.0662,1.6714.7176,3.5405,1.6411,4.9804.2552.3979,2.9337.01,3.5835-.7757,1.2947-1.5655,3.0433-3.9154,2.6712-5.4824-1.1234-4.7316-3.1725-9.2435-4.8607-13.841ZM82.6924,93.6031c9.9165,2.2907,17.6131-4.3982,16.385-14.5802-4.874,5.9358-13.3272,6.7679-16.385,14.5802ZM121.1357,67.952c-13.7228,4.9374-16.9447,8.824-16.4464,18.0455,6.8222-3.903,12.1838-9.6559,16.4464-18.0455ZM113.1851,47.3951c-6.9424,7.258-11.6295,14.382-12.609,23.7948,6.2433-3.9848,11.6478-13.9532,12.609-23.7948ZM77.7809,91.5138c-5.7458-3.241-11.1457-6.287-17.7061-9.9875,4.7147,10.4745,10.1993,15.6206,17.7061,9.9875ZM64.9049,62.6348c-.8925,11.1253,1.2036,16.4219,6.9655,18.2996,2.2946-7.7436-2.8576-12.5684-6.9655-18.2996ZM30.922,72.5767c4.5988,4.1852,7.2203,11.6991,15.5607,9.1924-2.356-8.0842-9.509-7.8108-15.5607-9.1924ZM63.3112,41.0284c-.3924,7.767-.1599,15.2837,8.1265,19.5671-2.7088-6.5224-5.4177-13.0448-8.1265-19.5671ZM116.2435,83.1126c7.1829-.2336,12.1232-3.4346,15.8526-9.9535-6.2307,1.7466-12.3071,3.1669-15.8526,9.9535ZM90.7809,46.5952c-2.8755,5.3789-6.9278,10.4224-4.4971,17.2932,5.8885-4.7299,5.0505-11.0779,4.4971-17.2932ZM132.0229,87.9578c-.2066-.8245-.4132-1.649-.6198-2.4735-7.4703,1.7331-14.9405,3.4663-22.4108,5.1994.1724.7091.3447,1.4182.5171,2.1273,7.5045-1.6178,15.009-3.2355,22.5135-4.8533ZM140.409,97.4018c-5.777-3.5958-14.4529-3.6342-18.997-.6023.0191.4799.0381.9598.0572,1.4397,6.0358-.2669,12.0717-.5337,18.9398-.8374ZM85.8778,29.6272c-.4903-.0316-.9806-.0632-1.4709-.0948-2.0604,6.4383-3.2777,12.878-.2509,19.3252.574.0024,1.1479.0049,1.7219.0073v-19.2378ZM120.9335,102.7898c.0844-.4121.1688-.8242.2532-1.2363-5.8135-3.1845-11.6705-6.0043-18.9655-2.1319,6.6698,1.2005,12.6911,2.2843,18.7123,3.3681ZM79.136,40.3066c-.7907-.1366-1.5815-.2732-2.3722-.4098-.8086,6.6195-1.6171,13.2391-2.4257,19.8586.5497.0596,1.0993.1193,1.649.1789.3798-3.6152.6229-7.2516,1.1821-10.8388.4614-2.9599,1.297-5.8615,1.9668-8.7889ZM29.9793,102.592c.0986.5759.1971,1.1518.2957,1.7276,8.3106-1.3917,16.6212-2.7833,24.9318-4.175-.0955-.5601-.191-1.1202-.2865-1.6803-8.3137,1.3759-16.6273,2.7517-24.941,4.1276ZM70.9767,49.3043c1.676-8.4508,1.2965-10.9459-2.606-15.5044.4554,5.5148-1.6553,10.8206,2.606,15.5044ZM84.1383,98.6239c-3.5171.2334-5.8225.3863-8.1279.5393.782,2.3345,1.5641,4.669,2.3461,7.0035.5144-.0829,1.0287-.1657,1.5431-.2486,1.122-1.9309,2.2441-3.8618,4.2387-7.2943ZM75.9529,111.1112c-.4377.1369-.8754.2738-1.3131.4107,1.4667,3.3945,2.9334,6.7889,4.8349,11.1898,1.6608-4.1918,2.8592-7.2166,4.0577-10.2413-4.4727,4.5307-4.6305,4.5058-7.5795-1.3591ZM55.8331,53.2324c.7687-.2241,1.5374-.4481,2.3061-.6722-2.2274-5.6529-4.4548-11.3057-6.6821-16.9586-.4848.1752-.9696.3504-1.4544.5256,1.9435,5.7017,3.8869,11.4035,5.8304,17.1052ZM24.3469,94.8978c-.0022.4692-.0044.9383-.0066,1.4075h13.6974c.0034-.4692.0067-.9383.0101-1.4075h-13.7009ZM118.9927,58.437c-6.2684.5192-6.4808,5.1312-8.0131,8.8485.5046.3347,1.0093.6693,1.5139,1.004,2.1664-3.2842,4.3328-6.5683,6.4992-9.8525ZM59.9073,73.3187c.4217-.191.8434-.3821,1.2652-.5731-.8901-4.678-.4387-9.9969-6.8273-13.0187,2.0784,5.0788,3.8203,9.3353,5.5622,13.5918ZM87.9351,99.9067c3.561,2.6543,6.342,4.7272,10.34,7.7072-1.9387-3.9338-3.2565-6.6078-4.6177-9.3697-1.8642.5416-3.3752.9806-5.7223,1.6625ZM54.3367,115.0305c.4781.6077.9563,1.2155,1.4344,1.8233,2.0582-3.0471,7.7357-2.1323,7.112-8.2133-2.8488,2.13-5.6976,4.26-8.5464,6.39ZM99.613,37.9519c-.5469-.1991-1.0938-.3983-1.6408-.5974-1.3623,3.6134-2.7245,7.2268-4.0868,10.8401.7005.2545,1.4009.5089,2.1014.7634,1.2087-3.6687,2.4174-7.3374,3.6261-11.0061ZM43.57,57.5871c-.3691.4094-.7382.8188-1.1073,1.2281,2.9223,2.5085,5.8446,5.0171,8.7669,7.5256.4618-.5357.9236-1.0714,1.3855-1.607-3.0151-2.3822-6.0301-4.7645-9.0452-7.1467ZM103.8456,117.5902c.2665-.4207.533-.8415.7995-1.2622-3.4844-2.011-6.9689-4.0219-10.4533-6.0329-.2987.5295-.5973,1.059-.896,1.5886,3.5166,1.9022,7.0332,3.8043,10.5497,5.7065ZM73.3105,106.2573c-5.0215.1278-6.8299,2.3889-5.3492,7.0199,1.9106-2.5074,3.6299-4.7637,5.3492-7.0199ZM57.9328,55.5944c.1117-.3245.242-.6086.2926-.9062.0157-.0925-.1846-.2217-.286-.3341-.1632.1731-.474.3639-.4559.5154.0292.245.2747.4641.4494.7249ZM37.4646,69.5889l.3467.1949.0246-.3378-.3713.1429Z"/>
  <path class="cls-2" d="M61.501,94.3912c-11.9216.9398-21.3146-2.3815-30.0068-8.2319,9.9901,1.3079,21.3133-2.4882,30.0068,8.2319Z"/>
  <path class="cls-2" d="M80.1531,65.5933c1.6882,4.5975,3.7373,9.1094,4.8607,13.841.372,1.5669-1.3766,3.9169-2.6712,5.4824-.6497.7857-3.3283,1.1736-3.5835.7757-.9235-1.44-1.7073-3.3091-1.6411-4.9804.1983-5.0084.8231-9.9999,1.2813-14.9981.5846-.0402,1.1692-.0804,1.7537-.1206Z"/>
  <path class="cls-2" d="M82.6924,93.6031c3.0578-7.8123,11.511-8.6444,16.385-14.5802,1.2281,10.182-6.4685,16.8709-16.385,14.5802Z"/>
  <path class="cls-2" d="M121.1357,67.952c-4.2626,8.3896-9.6242,14.1424-16.4464,18.0455-.4983-9.2215,2.7236-13.1081,16.4464-18.0455Z"/>
  <path class="cls-2" d="M97.7943,57.567c-1.0002,5.5016-1.7809,11.057-3.1127,16.4771-.505,2.0553-2.2791,3.7988-4.0614,6.6097-2.6435-5.527-3.7609-9.3209-.3752-13.4552,2.5876-3.1598,4.5994-6.791,6.8674-10.2126.2284.1923.4558.386.682.5809Z"/>
  <path class="cls-2" d="M113.1851,47.3951c-.9612,9.8417-6.3658,19.81-12.609,23.7948.9795-9.4128,5.6667-16.5369,12.609-23.7948Z"/>
  <path class="cls-2" d="M77.7809,91.5138c-7.5068,5.633-12.9914.4869-17.7061-9.9875,6.5604,3.7005,11.9603,6.7465,17.7061,9.9875Z"/>
  <path class="cls-2" d="M64.9049,62.6348c4.1079,5.7312,9.26,10.556,6.9655,18.2996-5.7619-1.8777-7.858-7.1743-6.9655-18.2996Z"/>
  <path class="cls-2" d="M30.922,72.5767c6.0517,1.3816,13.2047,1.1082,15.5607,9.1924-8.3404,2.5067-10.9618-5.0072-15.5607-9.1924Z"/>
  <path class="cls-2" d="M41.9673,64.5898c4.1082,2.7365,8.2164,5.473,12.0909,8.0538-.3519,2.9534-.6525,5.4769-1.13,9.4845-4.2974-6.0464-8.053-11.3305-11.8085-16.6146.2826-.3079.5651-.6159.8477-.9238Z"/>
  <path class="cls-2" d="M63.3112,41.0284c2.7088,6.5224,5.4177,13.0448,8.1265,19.5671-8.2864-4.2834-8.5189-11.8002-8.1265-19.5671Z"/>
  <path class="cls-2" d="M116.2435,83.1126c3.5456-6.7866,9.6219-8.2069,15.8526-9.9535-3.7294,6.5189-8.6697,9.72-15.8526,9.9535Z"/>
  <path class="cls-2" d="M90.7809,46.5952c.5534,6.2154,1.3914,12.5634-4.4971,17.2932-2.4307-6.8709,1.6216-11.9144,4.4971-17.2932Z"/>
  <path class="cls-2" d="M132.0229,87.9578c-7.5045,1.6178-15.009,3.2355-22.5135,4.8533-.1724-.7091-.3447-1.4182-.5171-2.1273,7.4703-1.7331,14.9405-3.4663,22.4108-5.1994.2066.8245.4132,1.649.6198,2.4735Z"/>
  <path class="cls-2" d="M140.409,97.4018c-6.8681.3037-12.904.5705-18.9398.8374-.0191-.4799-.0382-.9598-.0572-1.4397,4.5441-3.0319,13.22-2.9935,18.997.6023Z"/>
  <path class="cls-2" d="M85.8778,29.6272v19.2378c-.574-.0024-1.1479-.0049-1.7219-.0073-3.0268-6.4472-1.8095-12.887.2509-19.3252.4903.0316.9806.0632,1.4709.0948Z"/>
  <path class="cls-2" d="M120.9335,102.7898c-6.0213-1.0838-12.0425-2.1676-18.7123-3.3681,7.295-3.8725,13.1521-1.0526,18.9655,2.1319-.0844.4121-.1688.8242-.2532,1.2363Z"/>
  <path class="cls-2" d="M79.136,40.3066c-.6698,2.9274-1.5054,5.829-1.9668,8.7889-.5592,3.5872-.8023,7.2237-1.1821,10.8388-.5497-.0596-1.0993-.1193-1.649-.1789.8086-6.6195,1.6171-13.2391,2.4257-19.8586.7907.1366,1.5815.2732,2.3722.4098Z"/>
  <path class="cls-2" d="M29.9793,102.592c8.3137-1.3759,16.6273-2.7517,24.941-4.1276.0955.5601.191,1.1202.2865,1.6803-8.3106,1.3917-16.6212,2.7833-24.9318,4.175-.0985-.5759-.1971-1.1518-.2957-1.7276Z"/>
  <path class="cls-2" d="M59.3172,105.1499c2.9823-7.286,5.7424-8.6061,12.0337-4.625-4.2125,1.9041-7.8536,3.5498-11.4946,5.1956-.1635-.2054-.3432-.3956-.5391-.5706Z"/>
  <path class="cls-2" d="M70.9767,49.3043c-4.2613-4.6838-2.1506-9.9897-2.606-15.5044,3.9026,4.5585,4.2821,7.0536,2.606,15.5044Z"/>
  <path class="cls-2" d="M84.1383,98.6239c-1.9946,3.4325-3.1166,5.3634-4.2387,7.2943-.5144.0828-1.0287.1657-1.5431.2486-.782-2.3345-1.5641-4.669-2.3461-7.0035,2.3054-.153,4.6108-.3059,8.1279-.5393Z"/>
  <path class="cls-2" d="M75.9529,111.1112c2.949,5.8649,3.1067,5.8899,7.5795,1.3591-1.1984,3.0247-2.3968,6.0495-4.0577,10.2413-1.9015-4.4009-3.3682-7.7953-4.8349-11.1898.4377-.1369.8754-.2738,1.3131-.4107Z"/>
  <path class="cls-2" d="M55.8331,53.2324c-1.9435-5.7017-3.8869-11.4035-5.8304-17.1052.4848-.1752.9696-.3504,1.4544-.5256,2.2274,5.6529,4.4548,11.3057,6.6821,16.9586-.7687.224-1.5374.4481-2.3061.6722Z"/>
  <path class="cls-2" d="M24.3469,94.8978h13.7009c-.0034.4692-.0067.9383-.0101,1.4075h-13.6974c.0022-.4692.0044-.9383.0066-1.4075Z"/>
  <path class="cls-2" d="M118.9927,58.437c-2.1664,3.2842-4.3328,6.5683-6.4992,9.8525-.5046-.3347-1.0093-.6693-1.5139-1.004,1.5323-3.7173,1.7447-8.3293,8.0131-8.8485Z"/>
  <path class="cls-2" d="M59.9073,73.3187c-1.7419-4.2565-3.4838-8.513-5.5622-13.5918,6.3886,3.0218,5.9372,8.3407,6.8273,13.0187-.4217.191-.8434.3821-1.2652.5731Z"/>
  <path class="cls-2" d="M87.9351,99.9067c2.347-.6819,3.858-1.1209,5.7223-1.6625,1.3612,2.762,2.679,5.4359,4.6177,9.3697-3.998-2.98-6.7789-5.0529-10.34-7.7072Z"/>
  <path class="cls-2" d="M54.3367,115.0305c2.8488-2.13,5.6976-4.26,8.5464-6.39.6236,6.0809-5.0538,5.1662-7.112,8.2133-.4781-.6078-.9563-1.2155-1.4344-1.8233Z"/>
  <path class="cls-2" d="M99.613,37.9519c-1.2087,3.6687-2.4174,7.3374-3.6261,11.0061-.7005-.2545-1.401-.5089-2.1014-.7634,1.3623-3.6134,2.7245-7.2268,4.0868-10.8401.5469.1991,1.0938.3983,1.6408.5974Z"/>
  <path class="cls-2" d="M43.57,57.5871c3.0151,2.3822,6.0301,4.7645,9.0452,7.1467-.4618.5357-.9236,1.0714-1.3855,1.607-2.9223-2.5085-5.8446-5.0171-8.7669-7.5256.3691-.4094.7382-.8188,1.1073-1.2281Z"/>
  <path class="cls-2" d="M103.8456,117.5902c-3.5166-1.9022-7.0332-3.8043-10.5497-5.7065.2987-.5295.5973-1.059.896-1.5886,3.4844,2.011,6.9689,4.0219,10.4533,6.0329-.2665.4207-.533.8415-.7995,1.2622Z"/>
  <path class="cls-2" d="M73.3105,106.2573c-1.7193,2.2563-3.4386,4.5126-5.3492,7.0199-1.4807-4.6311.3277-6.8921,5.3492-7.0199Z"/>
  <path class="cls-2" d="M88.9921,112.489c-4.855-4.2695-5.0057-4.9493-1.222-7.4676.5766,2.473,1.1229,4.8163,1.6692,7.1596-.1429.1116-.292.2142-.4473.3079Z"/>
  <path class="cls-2" d="M41.1196,65.5136c-.7349-.5482-1.4698-1.0963-2.2047-1.6445.1193-.2098.2387-.4196.358-.6294.8977.4516,1.7954.9033,2.6937,1.3526-.2819.3055-.5645.6134-.8471.9214Z"/>
  <path class="cls-2" d="M97.1123,56.9861c.1584-.6846.3169-1.3692.4754-2.0539.2199.0442.4399.0885.6598.1327-.1523.8332-.3045,1.6664-.455,2.5008-.2244-.1938-.4518-.3874-.6802-.5797Z"/>
  <path class="cls-2" d="M57.9328,55.5944c-.1747-.2607-.4201-.4799-.4494-.7249-.0181-.1515.2928-.3423.4559-.5154.1014.1124.3018.2416.286.3341-.0506.2976-.1809.5817-.2926.9062Z"/>
  <path class="cls-2" d="M89.4393,112.181c.3337.4202.6673.8404,1.001,1.2606-.191.1478-.382.2956-.573.4434-.2867-.4684-.5734-.9367-.8677-1.4006.1476-.0892.2967-.1918.4397-.3034Z"/>
  <path class="cls-2" d="M59.8563,105.7205c-.3719.0653-.7438.1306-1.1157.1958.1922-.2555.3845-.5109.5767-.7664.1958.1749.3755.3651.539.5706Z"/>
  <path class="cls-2" d="M106.3825,118.244c.1291.0568.2761.0921.3796.1792.0525.0442.0267.1815.0363.2768-.1181-.1755-.2363-.351-.3544-.5266,0,0-.0615.0706-.0615.0706Z"/>
  <path class="cls-2" d="M106.444,118.1734c-.2681-.0531-.5361-.1062-.8042-.1593.0946-.1467.1893-.2934.2839-.4401.1526.2235.3053.447.4583.6703.0004-.0003.0619-.0709.0619-.0709Z"/>
</svg>