<?xml version="1.0" encoding="UTF-8"?>
<svg id="Layer_1" xmlns="http://www.w3.org/2000/svg" viewBox="0 0 183.7108 145.5755">
  <defs>
    <style>
      .cls-1 {
        fill: #141814;
      }

      .cls-2 {
        fill: #b0d359;
      }

      .cls-3 {
        fill: #b8d433;
      }

      .cls-4 {
        fill: #809e8f;
      }
    </style>
  </defs>
  <path class="cls-1" d="M183.7108,62.746c-2.0206,2.3672-3.7645,5.0619-6.1106,7.0438-9.4382,7.9733-20.0379,13.0322-32.8183,11.885-1.4815-.133-3.0899-.1464-4.3948-.747-9.9125-4.5625-18.4288.0316-24.023,6.6629-7.023,8.3249-16.1263,13.1599-24.4559,19.3141-5.616,4.1493-12.7275,6.7271-17.2962,11.722-5.2061,5.6918-8.6678,13.1154-12.2503,20.1127-2.8307,5.5288-5.1314,7.3982-11.2688,6.6943-5.6328-.646-7.7625-4.5607-5.0985-9.5533,2.7347-5.125,5.9989-10.0116,8.2722-15.3272,2.6478-6.191,4.5449-12.7113,6.5804-19.1479.3322-1.0506.0971-3.0742-.5772-3.4786-1.2715-.7626-3.0472-.7884-4.6267-.8746-.5188-.0283-1.0354.7974-1.6274,1.0728-3.9579,1.8413-8.1237,2.8689-11.6639-.4207-3.8995-3.6233-1.996-7.5716.3021-11.283.345-.5572.7168-1.0978,1.6269-2.4861-3.8386-2.6259-8.8508-4.4001-11.1242-7.9356-5.6838-8.8389-17.5469-10.9026-21.8948-20.4884C7.0405,46.2043,3.7468,36.461.3691,26.7963c-1.1155-3.1919.3058-5.1489,4.1534-4.3034,6.291,1.3824,12.6043,2.663,18.9083,3.9861,2.0694.4343,4.1391.867,5.3586,1.1224,1.579-6.8107,2.7674-13.1312,4.5591-19.2758,1.3631-4.6744,3.0443-4.9065,7.3527-2.3348,7.0413,4.2029,13.9869,8.4598,17.115,16.2084,5.4516-6.7387,10.4987-13.3816,15.9956-19.6287,3.6018-4.0933,5.9945-3.2265,7.3753,2.0907,1.3322,5.13,2.6776,10.2566,3.8479,14.7364,3.7309-.6682,7.4979-.5953,10.5445-2.0409,6.7808-3.2175,13.1863-7.2217,19.7878-10.8265.7926-.4328,1.8513-.3782,2.7867-.5495.4584.2972.9169.5945,1.3753.8917l-.0156.0398c-.3889,2.98-.7777,5.9601-1.1666,8.9401-1.4666,6.4749-2.9331,12.9499-4.3996,19.4248,4.2231-3.5985,6.9828-7.4853,10.0345-11.1275,3.1806-3.796,6.0743-3.8199,8.6848.425,2.9497,4.7965,5.1268,10.0682,7.6983,15.2509,1.0393-1.1238,2.6879-2.9064,4.3365-4.689l2.9696-1.8751.0448-.0347c2.5195-1.6952,5.039-3.3905,7.5585-5.0857,4.2802-1.0987,7.1892,1.0637,7.8869,4.8086,1.1379,6.1069,1.3442,12.3875,2.0033,19.2135,2.5073.358,6.2605.8939,10.0138,1.4299,3.8541,2.1096,8.4584,3.5198,8.5325,9.1532ZM75.3341,29.1099c1.2517-1.4182,2.5034-2.8364,3.7551-4.2546-.2863-4.0754-.4331-8.1689-.9575-12.2134-.1299-1.0015-1.4831-2.5882-2.276-2.5894-1.2564-.0019-2.923.792-3.6979,1.8008-2.6991,3.5142-4.8471,7.4652-7.6571,10.8775-3.7628,4.5693-3.1552,9.2002-1.1382,14.0851.6794,1.3927,1.3587,2.7855,2.0381,4.1782.5762.0723,1.1524.1446,1.7285.2169,2.7596-4.0678,5.5193-8.1356,8.2789-12.2034,0,0-.074.1022-.074.1022ZM111.331,20.9526c-.5116-1.0432-1.185-3.0374-1.5097-2.9821-3.1869.5423-6.4864,1.0791-9.3302,2.4784-.6381.314.3545,3.9873.645,6.1075.062.4525.3353.876.6347,1.6192,3.2384-1.3244,8.8667,3.3807,9.3023-4.2662.086-.9856.1719-1.9712.2579-2.9568ZM151.3274,57.0096c1.9578-2.0771,3.9155-4.1543,5.8733-6.2314,2.4135-4.4013,2.9848-9.0404,1.7956-13.9069-.3603-1.0438-.7206-2.0876-1.1559-3.3489-9.4841,4.1885-16.0491,11.0024-20.8086,19.5826-2.4594,4.4336-.9628,8.709,2.9237,8.2915,3.9031-.4193,7.589-2.8606,11.37-4.4158l.0018.0289ZM154.3272,62.8529c-8.6072,2.9344-11.3484,6.1131-11.3012,13.2185,12.3291,2.7492,22.0559-2.6452,31.1467-9.9829.6106-.4929,1.0021-1.2945,1.4012-2.0055,1.4536-2.5896.8178-4.0523-2.297-4.1074-.3278-.023-.6555-.0461-.9833-.0692-2.6729-.4449-5.8619-.1208-7.911-1.4956-4.2139-2.8273-6.1188-.4762-8.225,2.4268-.6101.6717-1.2203,1.3435-1.8304,2.0152ZM44.7366,14.8024c-2.22-1.5914-4.44-3.1829-7.2213-5.1767-1.2293,4.48-2.5882,8.0699-3.1385,11.7798-.7009,4.7256-.1014,9.1959,4.7454,11.9933,5.6006,3.2325,11.0654,6.7002,16.5539,10.0443,5.4569-5.6999-.6642-21.9474-10.5446-28.4492l-.1422-.2098-.2528.0184ZM21.1736,30.9917c-1.6806-.3599-3.3612-.7197-5.0418-1.0796-3.3739-1.045-6.7479-2.0899-11.0346-3.4176,4.2045,17.6265,9.5469,32.4591,26.3487,40.1333.9557-1.8193,1.6694-3.1781,2.3832-4.537l-1.7352.4393c-1.5586-3.1185-4.9518-6.7276-4.2776-9.249,1.2391-4.6339,6.1176-5.7487,10.8324-4.7431.3516-2.0486.7762-3.8227.9217-5.6193.0955-1.1789.2521-2.9065-.4133-3.5055-5.1121-4.6024-10.6952-8.3901-17.9836-8.4214ZM49.7387,139.2397c3.6656,1.5282,5.7406.4321,7.2347-2.4201,4.7229-9.0157,9.7984-17.7645,18.4518-23.7261,3.5721-2.4609,7.2769-4.7519,10.6884-7.4182,5.7684-4.5083,11.3316-9.2781,17.0227-13.8866,2.2044-1.7851,4.522-3.4303,6.7881-5.1393-.249-.3712-.4981-.7424-.7471-1.1136-.5962.1461-1.2965.1383-1.7734.4608-10.3489,6.9999-20.6891,14.0131-30.9843,21.0917-1.5513,1.0666-2.7223,2.7453-4.3489,3.6223-1.0462.5641-2.6038.1798-3.9322.2206.0704-1.251-.1239-2.5902.2585-3.7372,1.4065-4.2191,3.1646-8.3267,4.432-12.5829.3793-1.2738-.4113-2.8959-.666-4.3585-.6101.0175-1.2202.0351-1.8302.0526.9827,4.7919-4.5178,6.0754-4.7896,11.1707-.3574,6.6979-3.4237,13.4172-6.1468,19.7755-2.6331,6.148-6.3085,11.8496-9.6576,17.9883ZM110.3139,38.2261c-3.5691-5.7373-7.2441-5.9364-11.4736-2.9945-.9355.6507-2.572.2937-3.8857.4007.0395-1.2143.0088-2.4372.1557-3.6384.053-.4335.8199-.8545.7705-1.2136-.3147-2.286-.3983-4.73-1.3615-6.736-.3648-.7598-2.8622-.4955-4.3876-.6981-.231,2.3506-.5807,4.6994-.616,7.0529-.0098.6517,1.1008,1.2493,1.3729,1.9908.6049,1.6483,1.0047,3.3719,1.4881,5.0648-.4867.3042-.9734.6084-1.4602.9126-1.5596-1.2509-2.9472-2.9426-4.7243-3.6361-2.0153-.7864-4.415-1.0036-6.571-.768-.6723.0735-1.8532,3.27-1.5033,3.5822,1.5711,1.402,3.551,2.4066,5.4974,3.309,1.6956.7861,3.5436,1.2434,5.3242,1.8459-.8453,1.5591-1.6907,3.1182-2.8045,5.1724,1.15.4536,3.2599,1.941,3.9423,1.4488,4.456-3.2134,5.4841-.6435,7.4979,2.952.9013,1.6091,5.0961,1.3735,7.7963,1.9751-.4395-2.0314-.6008-4.1842-1.4162-6.0516-.5454-1.2492-2.1638-1.9849-3.0367-3.1494-.7965-1.0625-1.2359-2.3927-1.8327-3.6049,1.2234-.5813,2.3939-1.3674,3.6815-1.7001,2.4805-.641,5.0272-1.0257,7.5464-1.5167ZM51.0346,60.5751l.6807-1.4651c2.243,0,4.5673.3547,6.6985-.1334,1.2721-.2914,2.2415-1.9045,3.347-2.9235-1.1063-1.0663-2.0946-2.7951-3.3509-3.0187-1.3454-.2394-2.9142,1.0414-4.4389,1.4679-1.4181.3967-2.9065.5422-4.364.7982.2212-1.4656.5101-2.9249.6469-4.3983.1811-1.9522,1.055-4.5948.1378-5.6908-1.0016-1.1968-3.7087-.9662-5.6725-1.3577-.2763,2.0533-.6712,4.1-.7869,6.1624-.0767,1.3674.2464,2.7573.3905,4.1371-1.4782-.0837-2.977-.0411-4.4301-.278-2.8501-.4648-5.8977-2.614-9.1994,2.4017,5.1326.6969,9.355,1.2702,14.8704,2.019-1.7566,1.418-2.7841,2.1399-3.6844,2.9957-2.0942,1.9908-4.4454,3.8248-6.0671,6.1572-.9943,1.43-2.89,4.0303.4066,5.3354,2.751,1.0891,5.7556,1.2969,7.2802-1.9862.9539-2.0542,1.0565-4.4946,1.9358-6.5967.4063-.9713,1.7564-1.5478,2.6786-2.3033.681.8318,1.6007,1.5704,1.9725,2.5229.3384.867-.2385,2.1205.1522,2.932.8974,1.8638,1.8659,3.8889,3.3841,5.1546.5494.458,4.0336-1.2302,3.9787-1.6538-.2746-2.1175-.9599-4.3484-2.1221-6.1352-1.0717-1.6475-2.9314-2.7825-4.444-4.1432ZM77.446,77.6986c.5321.6795,1.0641,1.3591,1.5961,2.0386,1.9936-.9385,4.6752-1.3561,5.8534-2.9121,3.719-4.9114,3.4223-5.0264,6.933.4921.7063,1.1101,2.1745,2.0387,3.4611,2.3504.6573.1593,2.3185-1.16,2.4099-1.9416.1444-1.2344-.3314-2.8332-1.1185-3.82-1.3576-1.7019-3.1559-3.0522-4.7693-4.55,1.9665-1.3065,4.1268-2.4039,5.8366-3.9876,1.3067-1.2102,2.0434-3.0359,3.0336-4.5879-.4184-.3983-.8368-.7967-1.2551-1.1951-1.6787.8252-3.3416,1.6848-5.0412,2.4647-1.3624.6252-2.7692,1.1536-4.1563,1.725-.639-1.59-1.34-3.159-1.8846-4.7807-.2008-.598.1473-1.3873-.0716-1.9705-.4034-1.0747-1.041-2.0615-1.581-3.0849-.6808,1.0911-1.6919,2.1075-1.9596,3.292-.3416,1.5119-.0828,3.1594-.0828,5.0889-3.5887-.9595-6.7975-1.8175-10.0145-2.6777-1.5922,6.1786-.9701,7.0721,4.2614,7.1628.8311.0144,1.7016-.1683,2.4851.0225,1.1809.2875,2.3011.8237,3.4472,1.2543-.6873,1.1347-1.2649,2.3569-2.0848,3.3861-1.6978,2.1312-3.5244,4.1599-5.298,6.2307ZM42.3395,78.2395c2.513,1.1243,4.2142,2.0717,6.0317,2.6592,3.6296,1.1733,4.3156,2.4547,1.1689,5.3678-2.1502,1.9905-3.4824,4.8647-5.1803,7.3439.6232.6928,1.2465,1.3856,1.8697,2.0785,2.3751-1.2206,4.9401-2.186,7.0532-3.7586,1.2448-.9264,1.7728-2.816,2.6231-4.2724,1.0981,1.2046,2.0261,2.6657,3.3437,3.5395,1.2434.8245,2.8753,1.2372,4.3815,1.3923.4949.051,1.7535-1.5868,1.5908-1.9059-.5839-1.1454-1.4432-2.4135-2.5373-2.9759-1.7702-.9099-3.8451-1.2052-5.7183-1.9452-.9482-.3745-2.2234-1.0037-2.4664-1.7908-.2689-.8707.1686-2.4546.8642-2.9832.6446-.4897,2.3134-.3894,3.0508.1314,3.3045,2.3334,5.5168.7799,8.0323-1.5947-3.5984-.6085-6.7814-1.1468-9.9644-1.685.0235-.3279.0469-.6558.0704-.9837-1.2263.6876-2.4527,1.3751-3.5248,1.9762-2.1959-1.7458-4.1034-3.2624-5.9943-4.7659-1.4464,1.2856-2.6588,2.3631-4.6946,4.1725ZM76.1616,101.9612c7.4676-5.4155,14.2422-10.3285,21.4151-15.5304-10.158-4.4928-12.9078-4.0413-15.8459-.7193-4.032,4.5588-5.0941,9.7285-5.5692,16.2497ZM121.181,60.8225c4.9951-4.0966,9.5374-8.3746,11.4147-14.74,1.3383-4.5377,2.0714-9.0222-.6629-13.44-2.6318-4.2523-5.3322-5.0169-7.5709-.9011-3.0907,5.6822-5.2593,11.9798-6.9938,18.2434-1.0645,3.844.0171,7.8995,3.8129,10.8376ZM73.4235,41.5244c-.6134.2051-1.2268.4102-1.8401.6153-.8611,6.1743-.8201,6.0903-6.747,3.2002-2.3022-1.1226-4.778-1.6226-5.5029,1.4539,2.8939,2.4977,5.4129,4.6718,7.4745,6.4511,1.7349-.4389,3.1579-.7989,4.581-1.1589.1036,1.447.2072,2.894.3048,4.2569,2.3391-.2119,4.875-.4417,7.5779-.6866.2828-1.3768.575-2.7999.6061-2.9513-2.0066-2.1129-3.7183-3.3474-4.6217-5.0188-.9973-1.8451-1.2535-4.0908-1.8325-6.162ZM103.0392,83.3283c2.1268-2.8911,4.7216-4.9188,5.1154-7.3092.5744-3.4864,1.6317-8.2045-4.3847-9.4122-1.0081.9355-2.0701,1.9211-3.1322,2.9066.4354.0928.8708.1855,1.3062.2783.3203,3.9585.6406,7.917,1.0953,13.5364ZM119.663,66.2463c-1.4874-1.1551-2.7178-2.1106-5.0986-3.9594-.6599,4.9458-1.1847,8.8783-1.7094,12.8108.6789.2343,1.3578.4685,2.0367.7027,1.5563-3.1164,3.1126-6.2327,4.7713-9.5541ZM74.595,70.7406c-.8323.3703-2.296.6234-2.3903,1.1308-.4656,2.507-.7467,5.0802-.7627,7.632-.0329,5.2794.0531,5.28,5.5375,5.3739-5.1608-6.6562-4.6739-10.2653-2.3845-14.1367ZM138.8696,67.529c-5.3714-.6724-8.5844,1.8304-9.4118,8.1379,3.0951-3.3272,9.3133-1.3336,9.4118-8.1379ZM70.3809,57.7447c-.3663-.4959-.7326-.9917-1.0989-1.4875-1.1406,1.0682-2.4055,2.0337-3.3918,3.2292-1.3784,1.6709-2.5489,3.5135-3.5061,4.858,3.7762,1.1433,5.5707-.1052,7.9968-6.5996ZM122.5787,69.6732c.5013.3859,1.0025.7718,1.5038,1.1577,2.6859-2.8044,7.3047-4.3904,5.3898-11.4341-2.7093,4.0388-4.8014,7.1576-6.8935,10.2763ZM113.2897,56.7639c-.5326-.281-1.0653-.5621-1.5979-.8431-.9546.8401-1.9239,1.6641-2.86,2.5245-1.0763.9893-2.8836,1.9355-2.9924,3.0368-.1395,1.4127,1.097,2.9614,1.7406,4.4515.7539-.5116,1.5079-1.0231,2.2618-1.5347,1.1493-2.545,2.2986-5.09,3.4479-7.635ZM112.0575,51.7645c.7544-4.2053,1.2748-7.1064,2.0108-11.2089-2.8695,1.8969-4.5299,2.9945-6.3968,4.2286,1.4229,2.2645,2.5289,4.0248,4.386,6.9803ZM67.4488,73.6852c.1202-1.5157.2398-3.0247.3594-4.5325q-5.6282-.4101-4.9032,4.5325h4.5438Z"/>
  <path class="cls-4" d="M49.7387,139.2397c3.3491-6.1387,7.0245-11.8403,9.6576-17.9883,2.7231-6.3582,5.7895-13.0776,6.1468-19.7755.2719-5.0954,5.7723-6.3789,4.7896-11.1707.6101-.0175,1.2202-.035,1.8302-.0526.2546,1.4626,1.0453,3.0847.666,4.3585-1.2674,4.2562-3.0255,8.3638-4.432,12.5829-.3823,1.147-.1881,2.4862-.2585,3.7372,1.3284-.0408,2.8859.3434,3.9322-.2206,1.6265-.877,2.7976-2.5557,4.3489-3.6223,10.2951-7.0786,20.6354-14.0918,30.9843-21.0917.4768-.3225,1.1771-.3148,1.7734-.4608.249.3712.4981.7424.7471,1.1136-2.2661,1.709-4.5836,3.3542-6.7881,5.1393-5.6911,4.6085-11.2543,9.3783-17.0227,13.8866-3.4115,2.6663-7.1163,4.9572-10.6884,7.4182-8.6534,5.9616-13.729,14.7104-18.4518,23.7261-1.4941,2.8522-3.5691,3.9483-7.2347,2.4201Z"/>
  <path class="cls-3" d="M16.1317,29.9122c1.6806.3599,3.3612.7197,5.0416,1.0796,2.3166,1.2826,4.787,2.3538,6.9139,3.8979,3.0926,2.2452,6.3141,4.5178,8.7234,7.4096,1.139,1.3671.8939,4.3123-2.5369,4.4953-3.373.1799-6.7326.612-9.5666.8827.1577,3.3139.3314,6.9634.4887,10.2686-10.4501-6.0648-12.7679-16.3382-15.8978-26.3718,2.4874-.6049,4.6606-1.1334,6.8337-1.6619Z"/>
  <path class="cls-2" d="M16.1317,29.9122c-2.1731.5285-4.3463,1.057-6.8337,1.6619,3.1299,10.0336,5.4477,20.307,15.8978,26.3718-.1573-3.3051-.331-6.9547-.4887-10.2686,2.834-.2707,6.1935-.7028,9.5666-.8827,3.4309-.1831,3.6759-3.1282,2.5369-4.4953-2.4093-2.8918-5.6308-5.1644-8.7234-7.4096-2.127-1.5442-4.5973-2.6153-6.9139-3.8979,7.2886.0314,12.8718,3.8191,17.9838,8.4214.6655.5991.5088,2.3266.4133,3.5055-.1455,1.7967-.5702,3.5707-.9217,5.6193-4.7148-1.0056-9.5933.1092-10.8324,4.7431-.6742,2.5214,2.7189,6.1305,4.2776,9.249l1.7352-.4393c-.7138,1.3588-1.4276,2.7177-2.3832,4.537C14.6441,58.9537,9.3017,44.1211,5.0972,26.4946c4.2867,1.3277,7.6606,2.3726,11.0346,3.4176Z"/>
  <path class="cls-3" d="M63.3625,36.8159c-2.017-4.8849-2.6246-9.5158,1.1382-14.0851,2.81-3.4123,4.958-7.3632,7.6571-10.8775.7748-1.0088,2.4415-1.8027,3.6979-1.8008.7929.0012,2.1462,1.5879,2.276,2.5894.5244,4.0445.6713,8.138.9575,12.2134-1.2517,1.4182-2.5034,2.8364-3.7551,4.2546,0,0,.074-.1022.0734-.1018-1.2758.8708-3.2862,1.4855-3.6938,2.6576-1.4544,4.1825-4.5747,5.0582-8.3512,5.1503Z"/>
  <path class="cls-3" d="M44.7366,14.8024l.2528-.0184s.1422.2098.1423.2099c.5131,1.8138.4536,4.5702,1.633,5.2865,7.0178,4.2619,6.4124,11.7628,8.3449,18.6634-6.2792-2.5362-12.7949-4.9336-17.2226-9.4007-3.2993-3.3287-2.2433-9.2967.1867-14.3568,2.1003-.121,4.3815-.2524,6.6628-.3838Z"/>
  <path class="cls-3" d="M158.9963,36.8712c1.1892,4.8665.6178,9.5056-1.7957,13.9079-3.8736.2713-6.3004,1.9055-5.8732,6.2304,0,0-.0018-.0289-.0021-.0291-2.3379.516-4.655,1.2051-7.0206,1.4866-1.5361.1828-3.143-.2289-4.7182-.3742.1652-1.3921-.1315-3.1063.5757-4.1204,3.054-4.3793,6.0141-8.9486,9.7878-12.6551,2.2757-2.2352,5.9826-3.0133,9.0464-4.4462Z"/>
  <path class="cls-3" d="M172.2936,59.9066c.3278.023.6555.0461.9817.069-1.7587,3.1618-1.8935,8.0055-7.5841,7.0787-.7085-.1154-1.7772.6711-2.3625,1.3237-3.5802,3.9906-7.3684,7.4621-13.3442,6.3346-1.5159-.286-3.0038-.7199-4.5046-1.0859.6762-1.3958,1.0908-3.0244,2.0828-4.1391,2.0948-2.3539,4.4916-4.4391,6.7646-6.6345.6102-.6717,1.2203-1.3435,1.8304-2.0149,5.3787-.3103,10.7573-.6209,16.136-.9315Z"/>
  <path class="cls-2" d="M44.7366,14.8024c-2.2813.1314-4.5626.2629-6.6628.3838-2.4301,5.0602-3.4861,11.0282-.1867,14.3568,4.4277,4.467,10.9434,6.8644,17.2226,9.4007-1.9325-6.9006-1.3271-14.4015-8.3449-18.6634-1.1794-.7163-1.1199-3.4727-1.633-5.2865,9.8802,6.5018,16.0014,22.7493,10.5445,28.4492-5.4886-3.3441-10.9534-6.8118-16.5539-10.0443-4.8468-2.7974-5.4463-7.2677-4.7454-11.9933.5502-3.7098,1.9092-7.2998,3.1385-11.7798,2.7813,1.9938,5.0013,3.5852,7.2213,5.1767Z"/>
  <path class="cls-2" d="M121.181,60.8225c-3.7958-2.9381-4.8773-6.9937-3.8129-10.8376,1.7345-6.2636,3.9032-12.5613,6.9938-18.2434,2.2387-4.1157,4.9391-3.3512,7.5709.9011,2.7342,4.4178,2.0011,8.9023.6629,13.44-1.8773,6.3654-6.4196,10.6434-11.4147,14.74ZM130.5455,35.06c-2.0079.4516-5.0522.2052-6.2977,1.5838-4.4846,4.964-5.7055,11.2674-4.8373,17.7801.3754,2.8158,2.3059,2.8896,4.2103.8733,5.0833-5.3819,9.3065-11.0915,6.9247-20.2372Z"/>
  <path class="cls-2" d="M154.3272,62.8529c-2.2729,2.1954-4.6697,4.2805-6.7646,6.6345-.992,1.1147-1.4066,2.7433-2.0828,4.1391,1.5008.366,2.9887.8,4.5046,1.0859,5.9758,1.1275,9.764-2.344,13.3442-6.3346.5854-.6525,1.6541-1.439,2.3625-1.3237,5.6906.9269,5.8254-3.9168,7.5841-7.0787,3.1165.0552,3.7523,1.5179,2.2986,4.1075-.3991.711-.7906,1.5126-1.4012,2.0055-9.0908,7.3376-18.8175,12.7321-31.1467,9.9829-.0472-7.1054,2.694-10.2841,11.3012-13.2185Z"/>
  <path class="cls-2" d="M158.9963,36.8712c-3.0638,1.4329-6.7707,2.211-9.0464,4.4462-3.7737,3.7065-6.7338,8.2757-9.7878,12.6551-.7072,1.0141-.4104,2.7283-.5757,4.1204,1.5752.1453,3.1821.557,4.7182.3742,2.3656-.2814,4.6827-.9706,7.0206-1.4866-3.7808,1.5554-7.4667,3.9967-11.3698,4.4159-3.8864.4175-5.3831-3.8579-2.9237-8.2915,4.7595-8.5802,11.3245-15.394,20.8086-19.5826.4353,1.2612.7956,2.305,1.1559,3.3489Z"/>
  <path class="cls-2" d="M111.0731,23.9093c-.4356,7.6469-6.064,2.9418-9.3023,4.2662-.2993-.7432-.5727-1.1668-.6347-1.6192-.2905-2.1201-1.2831-5.7935-.645-6.1075,2.8438-1.3993,6.1433-1.9361,9.3302-2.4784.3247-.0552.9981,1.939,1.51,2.9819-2.6148.3921-5.2328.7686-7.8303,1.2548-.0763.0143.0517,1.7342.1042,1.7353,2.4879.0533,4.978.0043,7.4678-.0331Z"/>
  <path class="cls-2" d="M63.3625,36.8159c3.7765-.0921,6.8968-.9678,8.3512-5.1503.4076-1.1721,2.418-1.7868,3.6938-2.6576-2.7591,4.0674-5.5187,8.1352-8.2784,12.203-.5762-.0723-1.1524-.1446-1.7285-.2169-.6794-1.3927-1.3587-2.7855-2.0381-4.1782Z"/>
  <path class="cls-2" d="M172.2936,59.9065c-5.3787.3106-10.7573.6212-16.136.9315,2.1062-2.9033,4.0111-5.2544,8.225-2.4271,2.0491,1.3748,5.2381,1.0506,7.911,1.4956Z"/>
  <path class="cls-2" d="M113.2897,56.7639c-1.1493,2.545-2.2986,5.09-3.4479,7.635-.7539.5116-1.5078,1.0231-2.2618,1.5347-.6436-1.4901-1.8802-3.0388-1.7406-4.4515.1088-1.1013,1.9161-2.0475,2.9924-3.0368.936-.8603,1.9053-1.6844,2.86-2.5245.5326.281,1.0653.5621,1.5979.8431Z"/>
  <path class="cls-4" d="M112.0575,51.7645c-1.8571-2.9556-2.9631-4.7158-4.386-6.9803,1.8669-1.2341,3.5274-2.3317,6.3968-4.2286-.736,4.1026-1.2564,7.0036-2.0108,11.2089Z"/>
  <path class="cls-3" d="M111.0731,23.9093c-2.4898.0374-4.9799.0864-7.4678.0331-.0525-.0011-.1806-1.721-.1042-1.7353,2.5975-.4862,5.2155-.8627,7.8303-1.2548-.0863.9859-.1722,1.9715-.2582,2.957Z"/>
  <path class="cls-2" d="M151.3274,57.0096c-.4272-4.3249,1.9996-5.9591,5.8732-6.2304-1.9576,2.0761-3.9154,4.1533-5.8732,6.2304Z"/>
  <path class="cls-2" d="M75.3341,29.1099c1.2517-1.4182,2.5034-2.8364,3.7551-4.2546-1.2517,1.4182-2.5034,2.8364-3.7551,4.2546Z"/>
  <path class="cls-3" d="M130.5455,35.06c2.3819,9.1457-1.8414,14.8553-6.9247,20.2372-1.9044,2.0163-3.8349,1.9425-4.2103-.8733-.8682-6.5127.3526-12.8161,4.8373-17.7801,1.2455-1.3787,4.2899-1.1322,6.2977-1.5838Z"/>
</svg>