<?xml version="1.0" encoding="UTF-8"?>
<svg id="Layer_1" xmlns="http://www.w3.org/2000/svg" viewBox="0 0 228.6742 154.7121">
  <defs>
    <style>
      .cls-1 {
        fill: #131211;
      }

      .cls-2 {
        fill: #101311;
      }

      .cls-3 {
        fill: #7e9e8d;
      }

      .cls-4 {
        fill: #161314;
      }

      .cls-5 {
        fill: #e7e5e6;
      }

      .cls-6 {
        fill: #e6eebd;
      }

      .cls-7 {
        fill: #d4d2d5;
      }
    </style>
  </defs>
  <path class="cls-5" d="M220.7374,109.0682c.872-.2728,1.253.184,1.4219.9569-.4739-.3186-.9479-.6377-1.4219-.9569Z"/>
  <path class="cls-1" d="M131.3337,151.5056c-6.2028-.2821-12.0792,1.4696-18.0091,2.8885-8.9413,1.6283-14.0295-3.1837-18.4725-10.1901-5.7821-9.1181-9.9422-19.0326-15.2563-29.2496-8.6882,12.8411-20.7232,19.2535-35.4561,20.8819-8.7526-.3632-17.0089-2.5301-24.6896-6.7896-2.3426-1.9163-4.6852-3.8327-7.0277-5.749C5.7253,115.2968.8645,106.5355.0936,95.8099c-.5364-7.4627,1.3026-14.3871,3.7527-21.261,4.0876-7.5384,9.7204-13.6916,16.7073-18.631,7.6949-3.96,15.7857-6.335,25.1585-5.5457-3.8411-8.3182-7.0049-16.0648-9.8424-23.9615-1.7859-4.97-1.1462-8.6153,2.8947-11.7993,1.4303-.3174,2.6688-.9679,3.6352-2.0912,6.0348-1.5486,12.2245-2.5634,17.9411-5.2077,2.721-.8152,5.4419-1.6304,8.1629-2.4457,5.9402-1.6129,11.8804-3.2256,17.8207-4.8384,4.713-.195,9.1464.5627,12.8604,3.7723.6032.4703,1.2064.9406,1.8097,1.4109,1.3791,1.1661,2.7582,2.3322,4.1373,3.4983,10.3318,12.0249,22.5805,21.7341,36.1183,29.8859.5658.5643,1.0789,1.1966,1.7056,1.6823q6.2379,4.8343,9.7296-2.7488c3.0158-4.8887,7.2123-8.6444,11.6666-12.1526,5.0453-2.5767,10.3906-4.2217,15.9698-5.1405,5.346-.2593,10.4464,1.1066,15.5651,2.3513.7684.365,1.5368.7299,2.3052,1.0949,6.2112,3.2313,10.988,8.0334,14.9905,13.6835,1.048,2.3295,2.0959,4.6589,3.1439,6.9884,2.1381,8.1747,2.0142,16.2709-.842,24.2725-.5521,1.1863-1.1041,2.3725-1.6562,3.5588-4.7958,7.5769-11.3415,13.1462-20.3614,16.516,8.7672,8.1522,18.0893,13.9318,27.0493,20.1898l.2215.1766c.474.3192.948.6384,1.422.9575,1.1351,1.1862,2.2558,2.3865,3.4078,3.556,4.507,4.5754,4.1762,7.957-1.4213,10.9654-3.1827,1.7105-6.6581,2.8764-10.0016,4.2876-11.4686,2.8305-22.675,6.5147-33.8242,10.3851-8.0439,1.8956-16.0878,3.7913-24.1317,5.687-8.2849,2.1996-16.5698,4.3992-24.8547,6.5988ZM78.6823,92.2307c.493,3.5054-.588,6.305-4.3095,6.8614-4.2121.6297-4.9385-2.9347-5.7817-5.8875-.3423-1.1988-.0706-2.5729-.0783-3.8673,2.4854-.6513,2.064-2.1947,1.1904-3.877.6836-1.6176,1.6882-3.0692,3.6041-2.9039,3.7013.3193,4.353,3.819,5.8478,6.6099.9484-1.6537.7145-2.9992.3737-4.2626-3.9109-14.4971-12.9143-24.5355-27.428-28.3285-24.7344-6.4641-49.6185,13.5822-46.1207,40.8499,2.5146,19.6032,18.7632,33.2756,38.1983,32.7826,19.6492-.4984,35.1564-16.2328,35.9515-35.7903.0542-1.3325,1.3567-3.5151-1.4449-3.9639-.6989.0817-1.729-.1738-1.7306.8868-.0016,1.0619,1.0294.8072,1.7279.8902ZM85.5191,86.3344c-.8257,5.1923.7762,10.5901-1.2074,15.6662-1.6686,4.27-.4802,7.9677,1.9105,11.5137,4.7322,11.7159,10.5443,22.834,18.3381,32.8351,1.6624,2.1333,4.0441,1.9323,6.4116,1.5944,17.5374-2.5029,34.6038-7.1841,51.802-11.2418,17.9005-4.2235,35.1566-10.66,52.8449-15.6226,1.7196-.4824,4.2962-.704,4.6551-2.3629.4529-2.0937-2.174-3.0474-3.6534-4.1241-10.1733-7.404-20.9207-14.0657-29.8509-23.0581-1.6904-1.7021-3.5647-1.4101-5.5236-1.5209-12.6984-.7183-22.3457-6.5047-28.5556-17.6313-1.2748-2.2842-2.4143-2.9493-5.0677-2.4591-5.428,1.0028-10.1934,4.3438-16.1465,3.7551-3.6277-.3586-3.381,3.6945-3.7724,6.0272-.5614,3.3452-1.2822,6.9867,1.1307,10.0658.7371.9407,1.8682.2287,2.8253.1883,3.2143-.1356,6.2637.5771,9.2054,1.8183,3.2729,1.3809,7.0364,2.8867,6.6234,7.0502-.407,4.1037-4.3214,5.4789-7.7866,6.7393-.7739.2815-1.6194.3888-2.4418.509-1.5829.2315-3.1788.0755-3.6623-1.6953-.4667-1.7095-.0468-3.2191,1.9182-4.0321,1.3878-.5743,3.2022-.5395,4.1635-2.1776-6.7754-3.0914-7.6385-2.8752-9.0756,2.1105-1.5605,5.4139-.8239,6.5633,5.1413,8.0222,12.3153,3.0119,14.2958,5.4949,12.6602,16.8033-.4153,2.8713-.3167,7.613-4.5487,6.9195-4.3604-.7146-2.164-4.8922-1.8594-7.8166.3263-3.1324,1.7433-6.4496-2.801-8.2614-5.8967-2.351-11.9626-2.3271-14.1568.8276-4.2832,6.1584-8.0222,12.6051-9.8264,19.9882-.5068,2.074-1.2395,4.026-3.8975,3.3997-2.5191-.5935-3.3471-2.2797-2.6521-4.8828,1.4119-5.2882,2.5541-10.726,5.2424-15.5005,7.6-13.4979,8.5555-28.0874,7.6046-42.8734-3.7612.7808-7.6063,1.931-11.5271,2.3207-8.6277.8577-16.4172,4.3785-24.4644,7.1058ZM132.85,63.3361c4.5416-.6649,8.2687-1.2514,12.0081-1.744,2.5882-.341,3.2034-1.3042,3.1629-4.225-.072-5.2021-3.8395-7.3035-6.8346-10.0242-9.2096-8.366-20.8554-13.5894-29.4555-22.8037-4.988-5.3444-10.1793-10.5219-15.9974-14.9879-2.1931-1.6835-4.2804-3.6079-7.5717-3.0312-14.9166,2.6137-28.9104,8.482-43.5078,12.2177-3.0396.7779-4.1187,2.8763-2.7921,6.1034,1.5114,3.6766,2.5679,7.538,4.0162,11.2432,3.3089,8.4652,7.607,15.5889,17.0751,19.1585,6.9524,2.6211,12.1871,8.4656,16.2121,14.9657,3.8493,6.2163,5.4539,6.6817,12.6192,4.2911,6.7639-2.2568,13.3354-5.6152,20.4283-6.2215,7.0926-.6063,13.8254-.6884,16.8627-8.6744.1737-.4567.4258-.9243.7612-1.2709.9585-.9906,2.1496-1.8447,3.5249-1.2533,1.6455.7075,1.0092,2.2055.6798,3.4423-.2046.7683-.6162,1.4816-1.1917,2.8141ZM153.1071,53.3854c-.0166,3.2583-1.2917,7.8514,4.8488,4.1783.9508-.5688,2.5959-.0128,3.9161.0789,2.6005.1806,4.4899,1.1515,4.6057,4.145.1163,3.0052-1.482,4.4894-4.2046,5.3376-1.9947.6214-5.2813-1.5759-5.8429,1.794-.3734,2.2405,1.9822,4.0745,3.3644,5.9237.7885,1.055,1.7865,1.9751,2.7847,2.848,7.3043,6.3869,15.3932,8.3642,25.2986,7.0776,10.4465-1.3569,23.2467-11.3191,24.5547-21.5622.1615-1.2645.6947-2.7955-1.5216-2.8367-3.5926-.0667-5.514-1.9884-5.8164-5.4868-.3205-3.7066.3243-7.2786,4.1799-8.7307,2.6861-1.0117,2.1783-2.1072,1.2991-4.0174-5.8116-12.6274-20.0126-19.3336-34.7042-16.298-12.3137,2.5443-22.4685,14.8345-22.7622,27.5488ZM73.9326,87.6067c-.1049-.2677-.1458-.6798-.3326-.7625-.1861-.0824-.5186.1658-.7868.269.1046.268.1447.6788.3322.7635.1842.0832.518-.1648.7873-.2699Z"/>
  <path class="cls-6" d="M85.5191,86.3344c8.0472-2.7274,15.8367-6.2482,24.4644-7.1058,3.9208-.3897,7.7659-1.5399,11.5271-2.3207.9509,14.7859-.0046,29.3755-7.6046,42.8734-2.6882,4.7745-3.8304,10.2123-5.2424,15.5005-.6951,2.6031.133,4.2893,2.6521,4.8828,2.658.6263,3.3907-1.3257,3.8975-3.3997,1.8042-7.3831,5.5432-13.8298,9.8264-19.9882,2.1942-3.1547,8.2601-3.1787,14.1568-.8276,4.5443,1.8118,3.1272,5.129,2.801,8.2614-.3046,2.9245-2.5011,7.1021,1.8594,7.8166,4.232.6935,4.1334-4.0482,4.5487-6.9195,1.6355-11.3084-.3449-13.7914-12.6602-16.8033-5.9652-1.4589-6.7019-2.6083-5.1413-8.0222,1.4371-4.9858,2.3002-5.2019,9.0756-2.1105-.9612,1.638-2.7757,1.6033-4.1635,2.1776-1.965.8131-2.3849,2.3226-1.9182,4.0321.4834,1.7707,2.0793,1.9267,3.6623,1.6953.8224-.1202,1.668-.2276,2.4418-.509,3.4652-1.2604,7.3796-2.6355,7.7866-6.7393.413-4.1635-3.3506-5.6693-6.6234-7.0502-2.9417-1.2413-5.9911-1.9539-9.2054-1.8183-.9571.0404-2.0881.7524-2.8253-.1883-2.4129-3.0792-1.6921-6.7207-1.1307-10.0658.3915-2.3327.1448-6.3858,3.7724-6.0272,5.953.5887,10.7184-2.7524,16.1465-3.7551,2.6534-.4902,3.7929.1749,5.0677,2.4591,6.2099,11.1266,15.8572,16.913,28.5556,17.6313,1.9589.1108,3.8332-.1812,5.5236,1.5209,8.9302,8.9923,19.6776,15.6541,29.8509,23.0581,1.4794,1.0768,4.1064,2.0305,3.6534,4.1241-.3589,1.6589-2.9354,1.8805-4.6551,2.3629-17.6883,4.9625-34.9445,11.3991-52.8449,15.6226-17.1982,4.0577-34.2645,8.7389-51.802,11.2418-2.3675.338-4.7492.5389-6.4116-1.5944-7.7937-10.0012-13.6059-21.1192-18.3378-32.8342.0314-5.4659.218-10.9379.0384-16.3978-.1182-3.5927.9698-7.2961-.7418-10.7831ZM135.1795,78.4371c-3.6145-.2698-4.4534,2.428-4.6544,4.9709-.1656,2.094,1.4613,3.9717,3.7087,3.585,2.3971-.4124,4.6964-1.6328,4.7458-4.7679.0415-2.6299-1.0469-4.0445-3.8001-3.788Z"/>
  <path class="cls-3" d="M78.685,90.4536c2.8015.4488,1.499,2.6314,1.4449,3.9639-.7951,19.5575-16.3023,35.2919-35.9515,35.7903-19.4351.493-35.6837-13.1795-38.1983-32.7826-3.4978-27.2677,21.3863-47.314,46.1207-40.8499,14.5136,3.793,23.517,13.8314,27.428,28.3285.3408,1.2634.5747,2.6089-.3737,4.2626-1.4948-2.7909-2.1465-6.2905-5.8478-6.6099-1.9159-.1653-2.9205,1.2862-3.6041,2.9037-1.2304,1.0364-1.5784,2.3438-1.1904,3.8771.0077,1.2943-.264,2.6684.0783,3.8673.8433,2.9528,1.5697,6.5172,5.7817,5.8875,3.7216-.5564,4.8026-3.356,4.3093-6.8614.0008-.5924.0019-1.1848.003-1.7771ZM51.8436,98.5008c-.3336-1.787-.3675-3.7026-1.0679-5.3321-1.183-2.7522-3.2314-4.7837-6.5725-4.2224-3.0338.5097-5.2153,2.4209-5.7296,5.4367-.413,2.4221-.0702,4.9729-.0647,7.4666.0055,2.502.6008,4.8941,3.3609,5.3865,2.9.5174,6.0809.9951,8.189-2.0405,1.3827-1.991,1.809-4.2592,1.8848-6.6949ZM53.355,94.7297c-.0229,7.0666,1.9896,10.6118,6.1164,10.7752,4.2964.17,7.2344-3.6405,7.288-9.4525.0559-6.0489-2.7217-9.6391-7.5107-9.7085-5.0961-.0738-5.8699,1.0272-5.8937,8.3858ZM31.4376,99.2643c-.0589,0-.1178,0-.1767.0001,0,1.1599.0201,2.3201-.0047,3.4795-.0382,1.7931-.5428,4.1757,2.0876,4.1725,2.3931-.0029,2.4831-2.4615,2.4616-4.2006-.0367-2.9757-.4661-5.946-.7184-8.9196-.0964-1.1366-.6541-1.945-1.8133-1.9165-1.0966.0268-1.8138.7303-1.8296,1.9087-.0245,1.825-.0065,3.6506-.0065,5.476Z"/>
  <path class="cls-6" d="M132.85,63.3361c.5755-1.3325.9871-2.0458,1.1917-2.8141.3294-1.2369.9657-2.7348-.6798-3.4423-1.3754-.5914-2.5665.2627-3.5249,1.2533-.3354.3466-.5875.8143-.7612,1.2709-3.0374,7.986-9.7701,8.0681-16.8627,8.6744-7.0929.6063-13.6644,3.9647-20.4283,6.2215-7.1653,2.3906-8.7699,1.9252-12.6192-4.2911-4.025-6.5001-9.2597-12.3446-16.2121-14.9657-9.4682-3.5696-13.7662-10.6933-17.0751-19.1585-1.4483-3.7052-2.5048-7.5666-4.0162-11.2432-1.3266-3.2271-.2476-5.3255,2.7921-6.1034,14.5974-3.7357,28.5911-9.604,43.5078-12.2177,3.2913-.5767,5.3786,1.3477,7.5717,3.0312,5.8181,4.466,11.0093,9.6435,15.9974,14.9879,8.6,9.2143,20.2459,14.4377,29.4555,22.8037,2.995,2.7207,6.7625,4.8221,6.8346,10.0242.0404,2.9208-.5747,3.884-3.1629,4.225-3.7395.4926-7.4666,1.0791-12.0081,1.744ZM64.5877,30.698c-.9991,3.3761.5188,4.6444,3.7507,4.4775.1018.9806.3919,1.851,1.3605,2.3246-2.2356,3.5182-4.4768,7.0368.7544,9.9913.1434.4949.3781.6499.7732.2075,1.7337-.0931,3.4674-.1862,5.2011-.2793.6567.9759,1.6981.8072,2.6544.8919.127,1.7025.254,3.4049.3809,5.1073-1.3268,1.3506-.4611,1.7033.8449,1.8555,1.614,1.9424,3.3884,3.522,6.0215,4.1077,2.9504.6563,6.6245,3.2,7.9548-1.337,1.2286-4.1899-3.0113-4.2435-5.7367-5.0854-3.493-1.079-2.9436-2.8965-.9115-4.978,1.6166-1.656,3.528-2.4292,5.8653-1.9519,5.9827,1.2216,12.142,1.5027,17.9987,3.4048,2.0619.6697,4.2383.6457,5.0972-1.6033,1.0664-2.7925-1.1684-3.8652-3.3313-4.4678-6.8693-1.9139-13.8698-3.2426-20.9833-3.7034-4.4379-.2875-7.3542-2.1991-9.1678-6.2757-3.6366-8.1746-15.1753-15.2269-24.1049-14.9722-1.7698.0504-3.3925.199-3.6497,2.4528-.2421,2.1211,1.1319,3.3109,2.821,3.4183,2.3376.1486,4.088,1.5648,6.1946,2.1168.0706,1.4327.1413,2.8653.2119,4.2979Z"/>
  <path class="cls-3" d="M153.1065,53.3861c.2943-12.7151,10.4491-25.0053,22.7628-27.5496,14.6916-3.0356,28.8926,3.6706,34.7042,16.298.8792,1.9102,1.387,3.0058-1.2991,4.0174-3.8555,1.4521-4.5003,5.0241-4.1799,8.7307.3024,3.4984,2.2238,5.42,5.8164,5.4868,2.2163.0412,1.6831,1.5722,1.5216,2.8367-1.308,10.2431-14.1082,20.2053-24.5547,21.5622-9.9054,1.2866-17.9943-.6907-25.2986-7.0776-.9982-.8729-1.9962-1.793-2.7847-2.848-1.3821-1.8492-3.7378-3.6832-3.3644-5.9237.5617-3.3699,3.8483-1.1726,5.8429-1.794,2.7226-.8481,4.321-2.3324,4.2046-5.3376-.1159-2.9936-2.0053-3.9644-4.6057-4.145-1.3201-.0917-2.9653-.6477-3.9161-.0789-6.1405,3.6731-4.8654-.92-4.8494-4.1775ZM193.3764,55.2642c-.0626,5.8824,1.5738,8.6017,5.3315,8.3282,4.8735-.3547,5.4823-4.094,5.6346-7.9005.1522-3.8035-3.5669-8.6245-6.475-8.0843-4.1272.7667-4.7485,4.0656-4.4911,7.6567ZM192.4551,60.0687c.3009-2.1194-.3267-4.1365-1.8536-5.8328-2.3173-2.5744-6.7148-2.9557-7.6729-.4063-1.3809,3.6746-2.5082,7.6476-.6691,11.5831,1.397,2.9893,4.925,3.6576,7.5204,1.4853,2.0576-1.7222,2.8338-4.0242,2.6752-6.8293ZM179.2811,61.9151l-.0341-.0004c0-1.9824.0919-3.9707-.0338-5.9451-.0777-1.2198-.7062-2.3074-2.1605-2.2022-1.1368.0822-1.7013,1.0117-1.8048,2.0489-.3596,3.6062-.6669,7.2182-.9377,10.8323-.1357,1.8117.7863,2.8549,2.609,2.8345,1.6196-.0181,2.3192-1.0889,2.3534-2.6067.0372-1.653.0085-3.3075.0085-4.9612Z"/>
  <path class="cls-6" d="M85.5191,86.3344c1.7116,3.4869.6236,7.1903.7418,10.7831.1796,5.4599-.007,10.9319-.0384,16.3978-2.391-3.547-3.5794-7.2446-1.9108-11.5147,1.9836-5.0761.3816-10.4739,1.2074-15.6662Z"/>
  <path class="cls-2" d="M68.5126,89.3373c-.388-1.5333-.04-2.8407,1.1904-3.8771.8736,1.6824,1.295,3.2258-1.1904,3.8771Z"/>
  <path class="cls-2" d="M73.9321,87.6079c-.2687.1039-.6025.3519-.7867.2687-.1874-.0847-.2275-.4955-.3322-.7635.2683-.1032.6008-.3514.7868-.269.1868.0827.2277.4948.332.7638Z"/>
  <path class="cls-2" d="M78.685,90.4536c-.0011.5924-.0022,1.1848-.003,1.7771-.6983-.0831-1.7293.1716-1.7277-.8903.0016-1.0607,1.0317-.8051,1.7306-.8868Z"/>
  <path class="cls-7" d="M17.3394,131.3322c-.1313-.0755-.2626-.1509-.3939-.2264.1352.0714.2705.1428.4058.2142,0-.0001-.0119.0122-.0119.0122Z"/>
  <path class="cls-4" d="M135.1795,78.4371c2.7532-.2565,3.8415,1.1581,3.8001,3.788-.0494,3.1352-2.3488,4.3556-4.7458,4.7679-2.2474.3866-3.8742-1.491-3.7087-3.585.2011-2.543,1.04-5.2407,4.6544-4.9709Z"/>
  <path class="cls-2" d="M51.8436,98.5008c-.0758,2.4356-.5021,4.7038-1.8848,6.6949-2.108,3.0356-5.289,2.5579-8.189,2.0405-2.7601-.4924-3.3555-2.8845-3.3609-5.3865-.0055-2.4937-.3483-5.0445.0647-7.4666.5143-3.0158,2.6958-4.927,5.7296-5.4367,3.3412-.5613,5.3896,1.4702,6.5725,4.2224.7003,1.6294.7343,3.5451,1.0679,5.3321ZM46.3599,98.5331c-.2042-1.5224.4905-3.7461-1.8629-3.9042-2.0794-.1398-1.3467,1.9051-1.3377,3.0003.0128,1.5528-.2953,3.9459,1.5055,4.225,2.0135.312,1.5852-1.925,1.6951-3.3211Z"/>
  <path class="cls-2" d="M53.355,94.7297c.0238-7.3586.7977-8.4596,5.8937-8.3858,4.7891.0694,7.5666,3.6596,7.5107,9.7085-.0537,5.812-2.9916,9.6225-7.288,9.4525-4.1268-.1633-6.1393-3.7086-6.1164-10.7752ZM61.35,96.2697c-.1881-1.743.5385-4.0288-2.0182-4.3702-1.6359-.2183-1.5885,1.4773-1.4151,2.5025.3332,1.9705-.2779,4.9574,2.1702,5.3696,1.8424.3102.962-2.2553,1.2631-3.5019Z"/>
  <path class="cls-2" d="M31.4376,99.2643c0-1.8254-.018-3.651.0065-5.476.0158-1.1784.733-1.8819,1.8296-1.9087,1.1592-.0284,1.7168.7799,1.8133,1.9165.2523,2.9736.6818,5.9439.7184,8.9196.0215,1.7392-.0685,4.1977-2.4616,4.2006-2.6304.0033-2.1258-2.3794-2.0876-4.1725.0247-1.1593.0047-2.3196.0047-3.4795.0589,0,.1178,0,.1767-.0001Z"/>
  <path class="cls-4" d="M70.4533,47.4914c-5.2312-2.9546-2.9901-6.4732-.7548-9.991,3.2951-1.4443,5.3533-5.9399,3.2844-7.5567-2.4681-1.9286-4.9272-4.3607-8.6071-3.5436-2.1067-.552-3.8571-1.9682-6.1946-2.1168-1.689-.1074-3.063-1.2972-2.821-3.4183.2572-2.2538,1.8799-2.4023,3.6497-2.4528,8.9296-.2547,20.4683,6.7976,24.1049,14.9722,1.8136,4.0766,4.7299,5.9882,9.1678,6.2757,7.1135.4607,14.1139,1.7895,20.9833,3.7034,2.1629.6026,4.3977,1.6753,3.3313,4.4678-.8588,2.249-3.0353,2.2729-5.0972,1.6033-5.8567-1.9021-12.016-2.1832-17.9987-3.4048-2.3373-.4773-4.2487.2959-5.8653,1.9519-2.0321,2.0816-2.5815,3.8991.9115,4.978,2.7254.8419,6.9652.8955,5.7367,5.0854-1.3303,4.5369-5.0044,1.9932-7.9548,1.337-2.633-.5857-4.4075-2.1653-6.021-4.1067.1013-.7924-.1677-1.4175-.8454-1.8565-.127-1.7025-.2539-3.4049-.3812-5.1064.9568-1.3158,1.8459-2.6898,2.8921-3.9314.8596-1.0201,2.2478-2.2952.3603-3.0342-2.058-.8058-3.8302-3.6798-6.56-1.616-.7141.5398-.804,1.3417.2888,1.8598,3.6002,1.7068,1.9405,3.7782.3646,5.829-1.7337.0931-3.4674.1862-5.1999.2794-.2055-.2625-.4641-.3318-.7745-.2076Z"/>
  <path class="cls-6" d="M64.3758,26.4001c3.68-.8171,6.139,1.615,8.6071,3.5436,2.0689,1.6167.0107,6.1124-3.2844,7.5567-.9682-.4738-1.2583-1.3443-1.3607-2.3245,1.5663-4.6123,1.0846-5.1876-3.7502-4.4778-.0706-1.4327-.1413-2.8653-.2119-4.2979Z"/>
  <path class="cls-6" d="M76.4277,47.4197c1.576-2.0507,3.2356-4.1222-.3646-5.829-1.0928-.5181-1.0029-1.32-.2888-1.8598,2.7298-2.0638,4.502.8102,6.56,1.616,1.8874.739.4992,2.0141-.3603,3.0342-1.0462,1.2416-1.9353,2.6155-2.8921,3.9314-.956-.0856-1.9974.0831-2.6541-.8928Z"/>
  <path class="cls-4" d="M64.5877,30.698c4.8347-.7098,5.3165-.1345,3.7502,4.4778-3.2314.1666-4.7493-1.1017-3.7502-4.4778Z"/>
  <path class="cls-6" d="M79.463,53.4189c.6777.439.9467,1.0641.8454,1.8565-1.3065-.1532-2.1722-.5058-.8454-1.8565Z"/>
  <path class="cls-6" d="M70.4533,47.4914c.3104-.1242.569-.0549.7745.2076-.3963.4423-.631.2873-.7745-.2076Z"/>
  <path class="cls-4" d="M193.3797,55.2661c-.2608-3.5929.3606-6.8919,4.4878-7.6586,2.908-.5402,6.6272,4.2808,6.475,8.0843-.1523,3.8065-.761,7.5458-5.6346,7.9005-3.7576.2735-5.3941-2.4458-5.3282-8.3263Z"/>
  <path class="cls-2" d="M192.4551,60.0687c.1586,2.805-.6175,5.1071-2.6752,6.8293-2.5954,2.1723-6.1234,1.504-7.5204-1.4853-1.8391-3.9354-.7118-7.9084.6691-11.5831.9581-2.5494,5.3555-2.1681,7.6729.4063,1.5269,1.6963,2.1545,3.7133,1.8536,5.8328Z"/>
  <path class="cls-2" d="M179.2811,61.9151c0,1.6538.0287,3.3083-.0085,4.9612-.0342,1.5178-.7338,2.5886-2.3534,2.6067-1.8226.0204-2.7447-1.0228-2.609-2.8345.2708-3.6141.5781-7.2261.9377-10.8323.1034-1.0372.668-1.9666,1.8048-2.0489,1.4543-.1052,2.0828.9824,2.1605,2.2022.1258,1.9744.0338,3.9627.0338,5.9451l.0341.0004Z"/>
  <path class="cls-3" d="M46.3626,98.5399c-.1127,1.3893.3157,3.6263-1.6978,3.3143-1.8007-.2791-1.4926-2.6723-1.5055-4.225-.009-1.0952-.7417-3.1401,1.3377-3.0003,2.3534.1581,1.6587,2.3818,1.8656,3.9111Z"/>
  <path class="cls-3" d="M61.35,96.2697c-.3011,1.2466.5794,3.8121-1.2631,3.5019-2.4481-.4122-1.837-3.3991-2.1702-5.3696-.1734-1.0253-.2208-2.7208,1.4151-2.5025,2.5568.3414,1.8301,2.6272,2.0182,4.3702Z"/>
  <path class="cls-3" d="M76.3289,91.3967c-.2531,1.1397.4871,3.4853-1.062,3.2017-2.0583-.3769-1.5445-3.1077-1.8247-4.9093-.1458-.9374-.1856-2.4876,1.1898-2.288,2.1497.3121,1.5388,2.4019,1.6969,3.9955Z"/>
  <path class="cls-3" d="M189.0018,61.2702c-.3347,1.1397.6442,3.4853-1.4044,3.2017-2.722-.3769-2.0425-3.1077-2.413-4.9093-.1928-.9374-.2455-2.4876,1.5734-2.288,2.8428.3121,2.0349,2.4019,2.244,3.9955Z"/>
  <path class="cls-3" d="M201.0849,56.5783c-.3347,1.1397.6442,3.4853-1.4044,3.2017-2.722-.3769-2.0425-3.1077-2.413-4.9093-.1928-.9374-.2455-2.4876,1.5734-2.288,2.8428.3121,2.0349,2.4019,2.244,3.9955Z"/>
  <path class="cls-3" d="M212.6064,54.0318c-.3347,1.1397.6442,3.4853-1.4044,3.2017-2.722-.3769-2.0425-3.1077-2.413-4.9093-.1928-.9374-.2455-2.4876,1.5734-2.288,2.8428.3121,2.0349,2.4019,2.244,3.9955Z"/>
</svg>