<?xml version="1.0" encoding="UTF-8"?>
<svg id="Layer_1" xmlns="http://www.w3.org/2000/svg" viewBox="0 0 203.1288 249.2234">
  <defs>
    <style>
      .cls-1 {
        fill: #874c9d;
      }

      .cls-2 {
        fill: #809f8e;
      }

      .cls-3 {
        fill: #121312;
      }

      .cls-4 {
        fill: #141625;
      }

      .cls-5 {
        fill: #161614;
      }

      .cls-6 {
        fill: #e5b3c1;
      }

      .cls-7 {
        fill: #64525a;
      }
    </style>
  </defs>
  <path class="cls-5" d="M176.9188,4.2211c3.006-.4155,5.9305-.3705,8.5302,1.5095l.2806-.2349s-.3079.1957-.3079.1957c4.5766,5.0024,9.1533,10.0048,13.7299,15.0072.1178,7.5666-7.1415,10.8048-9.8187,16.7318-2.4526,1.875-4.9052,3.7497-7.358,5.6244-.2961-2.4547.3674-4.5736,2.4376-6.0152,4.2354-2.9494,5.2551-8.317,8.9556-11.7123,1.507-1.3827-.0635-2.0162-1.341-2.349-.0923-.3352-.1367-.6767-.1332-1.0244-.0552-6.4877-4.5714-6.5914-9.2502-6.4627-1.2284-4.3229-3.2231-1.6665-4.8862-.4584-10.6835,7.7605-19.1016,17.9861-28.9272,26.7028-11.3477,10.0671-22.072,20.8365-33.0712,31.2966-2.5021,2.3794-4.4354,4.7073.3834,6.6563,1.0896.3412,1.978.2574,2.0272,2.1999.211,8.3291,5.8798,11.6061,13.4122,7.825,1.8411-.9242,3.453-1.0625,5.2983-.7142-.5282,1.3905-4.3634,2.0316-.4288,4.4138,3.2899,1.9919,5.8242,5.2313,8.6931,7.9183,1.1823,5.6253,3.9024,11.3457-2.4923,15.9821-2.457,1.7814.6306,2.5983,1.5012,3.6522,7.2751,8.8062,16.9456,14.6799,26.0825,21.2055,1.3898,1.9859,3.039,3.6877,5.2408,4.7844,8.4601,6.7913,15.9775,14.5731,23.5233,22.3291,3.0758,3.1614,4.9141,6.6727,3.8019,11.2194-2.9027,3.0568-5.4496,6.3805-7.5379,10.0483-2.1359,1.1552-3.763,2.7122-5.3342,4.675-2.9794,3.7221-6.7222,5.3562-10.5788.7378.684-.4341,1.3193-1.1222,2.0591-1.2637,8.8867-1.6994,12.7618-7.3743,10.8893-16.0728,4.1089-.5934,3.0384-2.3931,1.0871-4.4939-8.5041-9.1558-18.3232-16.8672-27.6675-25.095-1.3184-1.1608-3.5506-2.7832-4.6569.6259-1.6185.8804-3.0814-.0415-4.5933-.3963l.0601.1371c-.7832-1.9684,4.0453-1.8015,1.5953-4.7674-1.7146-2.0758-2.8452-1.5504-5.012-1.1011-2.4754.5134-4.1692-1.4265-3.9164-4.3085,1.7476-2.9825-.8876-3.1871-2.5436-4.0122l.0723.0888c.0453-.9504-.3422-1.468-1.3577-1.3576l.0815.0612c-4.5646-5.1989-9.4927-10.0012-15.2127-13.9395l.1032.087c-.4565-1.3154-.9053-2.6463-2.6643-1.3069l.1025.076c.1388-3.9581-3.667-5.0556-5.5547-7.5358-.9604-1.2619-2.8372-2.6058-4.0636-.8804-.9668,1.3601,1.7323,1.8931,2.1356,3.2468-4.9182-2.3364-9.5784-2.2116-13.9784,1.3076-.7605.6082-1.8344.8246-2.7636,1.2219.1455-5.3193-4.8041-.9388-6.4577-3.3289-.5456-.7885-3.3369-1.0771-3.5116.5428-.1875,1.7386-.1538,4.4764,2.5668,4.9838,1.5931.2971,3.3023-.028,4.9593-.0732,1.6326,9.0617,8.7859,13.3624,15.5356,18.011,3.0756,1.8447,6.0748,3.7669,7.4432,7.342-.5381,2.7036.1987,4.9631,2.4081,6.6556,6.0545,4.6382,11.3509,10.2765,18.1085,13.9697,1.7447.9535,1.7556,2.071,1.346,3.5865-1.1517-.4056-2.7724-1.4969-3.3678-1.0895-1.8622,1.2738-.2266,3.0014.1842,4.4587,5.5394,19.6483,12.705,38.781,11.1283,59.9997-1.2074,16.2488-.0873,14.9618-14.4009,16.7367-12.9171,1.6017-25.983,1.6855-38.8015-.8291-3.7349-.7327-7.3863-2.242-10.9583-.8212-11.9048,4.7354-23.9915-.0453-35.9603,1.0018-3.9409.3448-8.233-1.4772-7.9725-6.1353.7857-14.0498-4.33-28.3269,1.5492-42.1657,5.9245-14.1636,11.325-28.4999,15.4885-43.5526-11.6675,11.1818-22.986,21.6903-33.8722,32.6291-4.3417,4.3628-8.073,4.538-12.4031.671-2.946-2.631-5.8132-5.3503-8.7156-8.0301-10.643-12.2299-10.6288-12.5211,1.0676-21.7511,3.0395,2.8204-.5884,4.6744-1.4839,6.262-2.042,3.6203-3.2297,6.5558.1567,9.919,3.2922,3.2697,5.9049,8.1574,11.6811,3.7513,1.4654-1.1178,2.1943-.0322,2.5204,1.3789-.7989,1.1908-3.335,1.8881-1.72,3.7624.8875,1.03,2.7461.8117,4.0019-.2978,1.2474-1.1021,2.5293-2.1811,3.6598-3.3969,8.8273-9.4939,17.6551-18.9878,26.4026-28.555,2.1719-2.3754,5.3899-4.0801,5.5674-7.887,0,0-.1011.113-.1011.113,5.2475-.5981,7.1945-5.3719,10.5629-8.3475,5.1988-4.1332,8.9353-9.6474,13.5434-14.3385,1.4117-1.3209,3.6138-2.1333,3.3278-4.5218-.032-.267-2.1864-.2798-3.3566-.4105,1.1567-7.3007-3.7827-10.7315-8.9147-14.0399.0907-.1601.1813-.3202.272-.4803-.0895.1613-.179.3226-.2685.484-1.0665-.1092-2.1331-.2184-3.1996-.3276.652-3.1414,2.8882-3.4306,5.4954-3.0517,1.242,1.3268,2.189,2.9859,4.0604,3.6036l1.0045.3851c1.5022-1.6521,2.8898-3.3519,2.4243-5.823l.0448-3.4495c.9827-5.3486-2.9703-2.1875-4.7582-2.7592-4.388-3.5155-7.3829-.2458-10.0461,2.4522-3.3594,3.4034-6.7845,7.125-3.9372,12.6141.0418,1.8161.0837,3.6322.1255,5.4483-.843.7458-1.686,1.4916-2.529,2.2375-2.8665-.3954-4.6134,1.3959-6.4033,3.197-1.2122,1.2198-2.5542,2.4989-3.9244.1071.8942-2.7851,6.2074-3.0968,4.4465-7.1715-2.0935-4.8442-.5571-8.8083,1.7154-13.0237,2.6592-4.9328,6.3776-8.9499,10.7201-13.0318-13.1959-8.4196-23.9871-18.7988-34.0751-29.9623-.7403-2.0299-2.1445-3.5697-3.7509-4.9258-8.4747-7.1548-15.3182-15.8961-23.1485-23.669-2.276-2.2593-2.7927-4.3683-1.8089-7.1573C11.2262,9.4287,19.0831,4.8422,26.7988.1028c.4418-.0343.8837-.0685,1.3255-.1028,3.5031.3798,5.963,2.2135,8.452,4.7599,12.8699,13.1668,25.2271,26.8645,39.2943,38.8213,1.2283,1.3674,2.4565,2.7347,3.6845,4.1022-2.879.985-5.2086.3506-7.3701-1.9125-1.8953-1.9845-2.9569-4.8801-4.9141-6.3481-10.4571-7.8436-18.9709-17.6603-28.1819-26.7674-1.0462-1.0344-1.9565-2.2541-3.69-1.9723l.2694-.1988-.252.2246c-.4043-3.3942-2.4545-5.0856-5.7315-5.2713-6.4225-.364-13.8459,6.6936-14.2021,13.4063-4.5075,2.5823-.3338,4.2369.9158,5.5058,9.2511,9.3945,19.2112,18.1007,27.6537,28.277,3.9357,4.7439,8.4463,8.6225,14.1351,11.063,2.7245,2.9832,5.1676,6.2857,9.0405,7.9659,3.6235-.6245,4.0312,2.3497,5.1136,4.5687,1.0526,3.1965,4.0544,4.6342,6.317,6.6461,1.864,1.6575,2.3737.0382,2.1999-1.7343,1.9483.032,3.531-.844,5.2623-1.6775,9.0223-4.3433,10.0541-7.4648,4.2356-15.4579-1.6952-2.3288-3.2947-4.3156-2.1142-7.3098,3.0479,3.0724,5.9978,6.2503,9.1641,9.1955,6.7544,6.2827,11.0453,6.1875,17.2455-.4287,3.677-3.9237,7.1221-8.0645,10.6715-12.1077,8.7829-8.1214,17.5658-16.2428,26.3487-24.3642,5.3082-5.1252,11.4356-9.4653,15.3076-15.9672,4.5015-1.5903,6.4157-6.1029,9.9393-8.7976ZM88.9653,131.4277c2.0979-5.0565,7.429-2.6433,11.3437-4.3807-6.4476-3.8545-9.6334-2.7573-14.0092,4.3418-3.6452,3.4613-7.3075,6.9049-10.9259,10.394-1.1727,1.1308-2.5305,2.0088-3.0587,3.8197-2.6266,9.0038-5.1867,18.0379-8.2033,26.9141-3.6352,10.6961-7.7814,21.2176-11.5311,31.8764-.8403,2.3887-3.3436,6.0422,2.4781,5.9024,13.2176-.3173,26.4474.6526,39.6175.4703,16.1394-.2234,32.2756-.3973,48.4136-.2003,2.8337.0346,3.7626-.1945,2.783-3.3875-3.7445-12.2057-7.4695-24.4302-10.6685-36.7858-2.167-8.3698-5.8327-15.0848-13.1881-20.2569-5.9647-4.1942-10.7894-10.0093-16.1292-15.1146-.2366.3725-.5792.6822-.6385,1.039-1.2265,7.3692-4.5082,10.1144-11.2146,9.2037-6.9337-.9415-5.3712-6.2513-5.3752-10.7062-.0009-1.0431.1989-2.0863.3064-3.1295ZM70.727,240.2409c.0003-.0875.0007-.1751.001-.2627,2.0981,0,4.1962.0051,6.2943-.0013,2.3106-.0072,4.6342-.1873,6.929-.004,4.6141.3685,6.4795-.7787,5.2257-6.043-1.5612-6.5549.5894-10.1351,5.5196-10.3338,10.6048-.4274,13.6513-1.5287,13.0413,8.1816-.3436,5.4684,1.685,8.7878,8.3633,8.3343,6.4604-.4387,12.8236-1.7575,19.4067-1.4332,10.8841.5361,10.8821.213,11.1744-10.8842.0439-1.6656.0907-3.4029.5751-4.9715,1.3905-4.5024-.7359-5.6327-4.7336-5.5699-6.9302.1088-13.8646-.0435-20.7948.0652-10.6827.1676-21.4106,1.1922-32.0322.5059-11.3376-.7326-22.6345-.3896-33.9477-.5857-2.6315-.0456-3.4956,1.103-3.7076,3.7775-1.5284,19.2762-1.303,19.5778,18.0555,19.2255.2099-.0038.42-.0005.6301-.0005ZM99.3906,103.803c4.682.4098,9.537.7385,8.0074-6.2487-.6653-3.0394,3.2005-8.3957-3.4118-8.7955-10.3866-.628-12.4164,1.3977-12.9308,9.565-.4722,7.4981,4.7965,4.9391,8.3352,5.4792ZM114.9188,99.8941c.1745,2.1908-.4839,5.0187,3.2115,3.3531,2.5212-1.1364,4.2981-.1736,6.1639,1.5741,2.2839,2.1393,5.1731,3.683,7.2445,5.9847,2.2059,2.4512,3.3193,1.2769,4.9556-.4211,2.5575-2.654,2.2012-5.4235.2409-7.944-2.227-2.8633-4.5194-6.3497-9.0318-4.7402-2.4165.862-4.177.7688-6.335-.8341-3.8562-2.8643-5.9121-1.1046-6.4495,3.0274ZM103.2007,234.0734c-.4575-2.8792,1.3283-6.6303-4.3832-6.2218-4.896.3502-4.8095,2.8154-5.0635,6.5037-.3665,5.3238,3.5943,5.053,6.4774,5.3467,4.9792.5073,2.3338-3.6202,2.9693-5.6286ZM90.6688,82.7133c4.6444-.6187,8.5228.5698,12.4173-1.1776,1.408-.6317,2.4984-.9902,2.0822-3.0198-.3654-1.7822-1.117-2.2643-2.828-2.5468-5.1827-.8557-8.2044,2.0722-11.6715,6.7442ZM93.3828,138.0419c-.0335.596-.2123,2.501,3.1284,2.3881,3.5979-.1216,4.0078-2.5006,4.2033-5.001.2514-3.2148-2.3079-2.684-4.3262-2.9481-3.5264-.4616-2.849,2.0004-3.0056,5.561Z"/>
  <path class="cls-6" d="M88.9653,131.4277c-.1075,1.0432-.3072,2.0864-.3064,3.1295.0039,4.455-1.5586,9.7647,5.3752,10.7062,6.7064.9106,9.9881-1.8345,11.2146-9.2037.0594-.3569.4019-.6666.6385-1.039,5.3398,5.1053,10.1645,10.9204,16.1292,15.1146,7.3554,5.172,11.0211,11.8871,13.1881,20.2569,3.1989,12.3556,6.924,24.5801,10.6685,36.7858.9795,3.193.0507,3.4221-2.783,3.3875-16.138-.197-32.2742-.023-48.4136.2003-13.1701.1823-26.3999-.7875-39.6175-.4703-5.8217.1397-3.3184-3.5137-2.4781-5.9024,3.7497-10.6588,7.8959-21.1803,11.5311-31.8764,3.0167-8.8762,5.5767-17.9104,8.2033-26.9141.5282-1.8108,1.886-2.6889,3.0587-3.8197,3.6183-3.4891,7.2806-6.9328,10.9246-10.3922.8881.0136,1.7774.0253,2.6667.037ZM95.4084,174.4975c9.6108-.2735,11.6679-2.1236,11.4118-9.7356-.2426-7.21-2.3701-9.5558-8.5953-9.4771-8.7309.1104-10.7949,2.6424-10.6271,12.1037.1041,5.8716,3.0709,7.7433,7.8106,7.109ZM133.7416,197.5332c-.194-7.8536-2.4394-10.7025-8.2664-10.4884-7.1535.2628-8.9945,2.5799-9.0365,10.7122-.027,5.2327,1.5545,8.368,7.5547,7.9713,7.7275-.5108,9.8976-2.1501,9.7483-8.1951ZM88.9229,195.3965c.1453,8.3862,1.152,9.861,5.9431,9.6572,8.1033-.3446,10.3057-2.1872,10.1804-8.5176-.1207-6.0978-2.8899-8.0935-9.9074-8.3934-6.5756-.281-6.4086,3.7861-6.2161,7.2538ZM60.8957,196.5967c.2536,2.9813-.855,8.2412,6.5601,7.9987,7.0023-.229,8.5227-1.378,8.5462-7.7823.0208-5.6659-3.2387-8.3214-9.8551-8.665-5.5069-.2861-5.4518,3.1911-5.2512,8.4487Z"/>
  <path class="cls-7" d="M70.727,240.2409c-.21,0-.4201-.0033-.6301.0005-19.3585.3523-19.584.0508-18.0555-19.2255.212-2.6745,1.0761-3.8231,3.7076-3.7775,11.3132.1961,22.61-.1469,33.9477.5857,10.6217.6863,21.3495-.3383,32.0322-.5059,6.9302-.1087,13.8646.0436,20.7948-.0652,3.9977-.0628,6.1241,1.0675,4.7336,5.5699-.4844,1.5686-.5312,3.3059-.5751,4.9715-.2923,11.0972-.2903,11.4203-11.1744,10.8842-6.5831-.3243-12.9463.9945-19.4067,1.4332-6.6783.4535-8.7069-2.8658-8.3633-8.3343.61-9.7102-2.4365-8.609-13.0413-8.1816-4.9302.1987-7.0808,3.7788-5.5196,10.3338,1.2538,5.2643-.6116,6.4116-5.2257,6.043-2.2949-.1833-4.6185-.0031-6.929.004-2.0981.0065-4.1962.0013-6.2943.0013-.0003.0875-.0007.1751-.001.2627ZM70.5206,237.1708c4.42.6972,6.4416-1.9201,6.6331-6.4136.2152-5.0476-3.8836-8.0977-10.2642-8.4966-5.5898-.3495-4.6802,3.4364-4.738,6.6296-.1209,6.682,1.4232,8.2447,8.369,8.2806ZM120.0105,230.3991c-.8097,5.5977,4.1874,5.368,8.5218,5.8321,4.22.4518,6.8363-.8539,6.755-5.7614-.0897-5.4122-3.0333-7.9723-9.3954-8.1996-5.187-.1853-5.6349,3.1414-5.8814,8.1288Z"/>
  <path class="cls-1" d="M124.0879,143.7641c-1.3684-3.5751-4.3676-5.4973-7.4432-7.3418-.6295-4.8498-5.2519-6.7606-7.7626-10.2376-2.2808-3.1585-2.5748-5.1645.2977-7.7991,2.8419-2.6065,5.3362-4.5016,8.9205-.888,3.9253,3.9573,8.5554,7.1303,12.4043,11.2555,7.6149,8.1617,16.0005,15.4706,26.0243,20.6536,0,0-.0601-.1371-.0587-.1376-.5936,5.6777,5.483,4.124,7.5833,6.9982,6.64,9.0869,14.632,16.9262,23.271,24.0831,3.9584,3.2792,1.6403,5.8869-.5442,8.4503-2.3562,2.7651-4.5929,1.5163-6.9952-.3957-11.1981-8.9126-21.2528-19.1785-33.1471-27.2942-7.821-5.3364-15.0538-11.5345-22.5501-17.3468Z"/>
  <path class="cls-1" d="M63.4521,113.8233c.843-.7458,1.686-1.4917,2.5287-2.2382,1.5174.3552,2.1232-.8778,3.1088-1.6171,2.5048-1.8786,5.1096-5.5746,8.3746-1.4582,2.6589,3.3524,2.0127,6.7002-1.3496,9.6729-12.3537,10.9226-21.095,25.3314-34.8089,35.0891-8.4491,6.0117-13.6331,15.7115-21.9557,22.1667-2.8774,2.2318-5.0513,2.4189-7.5876-.2796-2.3649-2.5162-4.1455-5.2215-1.0711-8.0556,4.5335-4.1793,7.5644-9.7298,12.9286-13.1883,4.8218-3.1089,7.6837-8.344,11.9263-12.2452,6.2436-5.7412,11.8814-12.1369,18.5354-17.5039,3.6206-2.9203,7.519-5.7493,9.3705-10.3425Z"/>
  <path class="cls-4" d="M63.4521,113.8233c-1.8515,4.5932-5.7499,7.4222-9.3705,10.3425-6.654,5.367-12.2917,11.7627-18.5354,17.5039-4.2426,3.9013-7.1045,9.1363-11.9263,12.2452-5.3641,3.4584-8.395,9.009-12.9286,13.1883-3.0743,2.8341-1.2938,5.5394,1.0711,8.0556,2.5363,2.6985,4.7102,2.5114,7.5876.2796,8.3226-6.4552,13.5066-16.155,21.9557-22.1667,13.7138-9.7576,22.4552-24.1665,34.8089-35.0891,3.3622-2.9727,4.0084-6.3205,1.3496-9.6729-3.265-4.1164-5.8698-.4204-8.3746,1.4582-.9856.7392-1.5914,1.9723-3.1088,1.6171-.0415-1.8154-.0834-3.6315-.1248-5.4479,1.0884-2.497,3.7922-2.67,5.7116-3.9711,1.0665.1092,2.1331.2184,3.1996.3276l-.0035-.0037c5.132,3.3084,10.0714,6.7392,8.9145,14.04.2147,1.487-1.0186,2.2856-1.6112,3.3887-6.0181,3.2422-9.8253,8.7965-14.2908,13.6623-2.972,3.3314-6.5607,6.1858-8.1754,10.5671l.1011-.113c-6.9611,2.6863-11.32,8.6687-16.577,13.4239-7.7501,7.0105-12.6997,16.701-21.3348,22.9504-.3261-1.4111-1.055-2.4967-2.5204-1.3789-5.7762,4.4062-8.3889-.4815-11.6811-3.7513-3.3863-3.3632-2.1987-6.2987-.1567-9.919.8954-1.5876,4.5234-3.4416,1.4839-6.262,3.9727-4.3254,7.9454-8.6508,11.9179-12.9763.4147-.3597.8295-.7193,1.2443-1.0789,3.0033-1.5935,4.9241-4.1674,6.4395-7.1085,2.9714.4932,3.8016-2.0799,5.2981-3.6989,2.7222-2.0623,5.4444-4.1246,8.1667-6.1869,3.4759,1.2416,5.327-.5788,4.9532-4.8708.063-.2818.2292-.475.4991-.5786,3.7779,1.9225,3.1055-.9292,3.1886-2.9704.8336-.8338,1.6673-1.6676,2.501-2.5015,1.3702,2.3916,2.7123,1.1125,3.9244-.1072,1.7899-1.8011,3.5368-3.5924,6.4033-3.197Z"/>
  <path class="cls-4" d="M79.8146,47.967c1.5428.4931,2.7794,1.3494,3.4344,2.8955-3.0575.9505-2.5244,2.9345-1.0632,4.7013,1.5621,1.8889,3.4209,3.9953,5.9789,1.0478,0,0,.0775.0803.0775.0798-1.1805,2.9938.419,4.9805,2.1142,7.3093,5.8185,7.9931,4.7867,11.1145-4.2356,15.4579-1.7313.8334-3.314,1.7094-5.2624,1.6773-3.0921-1.1985-4.0106-6.165-8.5168-4.9117-1.0825-2.219-1.4901-5.1932-5.1136-4.5687.3938-4.6755-3.5947-6.0794-6.302-8.4398-15.1477-14.7906-30.2954-29.5813-45.4431-44.372.3562-6.7127,7.7796-13.7703,14.2021-13.4063,3.277.1857,5.3272,1.8771,5.7325,5.2705-1.598.1012-2.5745-1.1415-3.8336-1.7019-4.9598-2.2075-7.4774,2.1659-10.4932,4.63-3.4425,2.8127.2746,4.3513,1.725,5.87,7.366,7.7129,15.4622,14.6522,22.7592,22.501,10.3834,11.1686,21.8917,21.2944,32.971,31.8115,2.9828,2.8315,6.0514,4.657,9.9572.9917,4.2317-3.9713,1.9565-6.8668-1.0721-9.849-14.6197-14.3961-29.044-28.985-44.3126-42.724-3.3076-2.9762-7.9612-5.8575-7.7192-11.5542,1.7335-.2818,2.6438.9379,3.69,1.9723,9.2109,9.1071,17.7247,18.9238,28.1819,26.7674,1.9572,1.468,3.0187,4.3636,4.9141,6.3481,2.1615,2.2631,4.491,2.8975,7.3701,1.9125.0003,0,.0121.0264.011.027-.2096.5172-.4236,1.0318-.6125,1.5555-.0107.0297.185.1338.2846.2032.1922-.5007.3843-1.0014.5765-1.5021Z"/>
  <path class="cls-4" d="M124.0879,143.7641c7.4962,5.8123,14.7291,12.0104,22.5501,17.3468,11.8943,8.1156,21.949,18.3815,33.1471,27.2942,2.4023,1.912,4.6389,3.1607,6.9952.3957,2.1845-2.5634,4.5025-5.1711.5442-8.4503-8.639-7.1568-16.631-14.9962-23.271-24.0831-2.1003-2.8742-8.1768-1.3205-7.5833-6.9982,1.5105.3553,2.9735,1.2772,4.5921.3969.0002,0,.053.0477.053.0477-.1001,1.6476,1.0175,1.8048,2.2419,1.8313,10.6632,7.9426,20.2496,17.0358,28.9422,27.0838,1.8724,8.6985-2.0027,14.3734-10.8893,16.0728-.7398.1414-1.3751.8296-2.0591,1.2637-10.5684-8.0815-20.8644-16.4858-30.4767-25.701.0603-2.0626-.2466-3.6577-2.8943-2.275,0,0-.0296-.0139-.0296-.0136.4097-1.5152.3987-2.6328-1.346-3.5863-6.7576-3.6932-12.0539-9.3315-18.1085-13.9697-2.2094-1.6926-2.9462-3.952-2.4081-6.6556Z"/>
  <path class="cls-4" d="M182.6438,15.4913c4.6787-.1288,9.195-.025,9.2513,6.4622-2.4491-.535-3.5105-6.8567-7.3132-1.7554l-.4682.3065c-1.3157.0038-2.1092.5827-2.1692,1.9693-7.7783,4.1513-11.857,12.157-18.3485,17.6807-2.3394,1.9906-5.0436,3.3739-7.2427,5.7087-5.8949,6.2588-12.4227,11.9168-18.5906,17.925-5.0425,4.9119-9.9739,9.9404-14.8665,15.0023-2.8183,2.9158-2.577,6.1.09,8.9095,2.7459,2.8927,5.2885,1.117,7.6719-.8288,1.7145-1.3997,2.6951-3.8732,5.4626-3.7318.184.1819.3678.3641.5513.5466.0695,1.769.1391,3.538.2087,5.307,0,0-.0004.0061-.0004.0061-1.8453-.3483-3.4572-.2101-5.2983.7141-7.5324,3.7811-13.2012.504-13.4122-7.825-.0492-1.9425-.9376-1.8587-2.0271-2.1999,21.3898-22.2041,43.6336-43.5238,66.5012-64.1973Z"/>
  <path class="cls-4" d="M156.779,68.5719c-4.4098,5.4583-9.1533,10.5985-14.4773,15.1856-1.8768-.0237-3.7533-.0474-5.6298-.0712-.1835-.1824-.3673-.3646-.5511-.5464,4.8355-7.5374,11.6041-13.3791,17.5256-19.9634,11.8822-13.2123,25.8503-24.4586,36.5619-38.7751,1.0429.0836,1.4407-.6572,1.8189-1.423,1.2775.3328,2.848.9663,1.341,2.349-3.7005,3.3952-4.7202,8.7629-8.9556,11.7123-2.0702,1.4416-2.7337,3.5605-2.4376,6.0152,0,0-.0952.3786-.0952.3786,0,0-.3901.0194-.3902.0194-6.043.6741-24.1468,19.0773-24.7104,25.119Z"/>
  <path class="cls-4" d="M156.5288,149.4067c-10.0238-5.1831-18.4094-12.4919-26.0243-20.6536-3.8489-4.1252-8.479-7.2982-12.4043-11.2555-3.5843-3.6136-6.0785-1.7185-8.9205.888-2.8725,2.6346-2.5785,4.6406-.2977,7.7991,2.5108,3.477,7.1331,5.3877,7.7626,10.2376-6.7498-4.6488-13.9031-8.9495-15.5356-18.0106.8145-.7079,1.6288-1.4165,2.4431-2.125.9292-.3974,2.0031-.6137,2.7636-1.2219,4.3999-3.5192,9.0602-3.644,13.9789-1.3072,2.8591,1.1955,4.292,4.4539,7.4822,5.169,0,0-.1025-.076-.1025-.0762.4006,1.429.9555,2.5437,2.6644,1.3071,0,0-.1032-.087-.1035-.0871,1.6326,5.5948,6.5747,8.3828,10.4691,11.9823,1.0966,1.0136,2.079,4.0836,4.7439,1.9573,0,0-.0815-.0612-.0817-.0612-.0712.4877-.8561.8024-.1513,1.5007.6949.6884,1.0191-.0663,1.5093-.143,0,0-.0723-.0888-.0727-.0891-1.3831,2.7516,1.4725,2.8165,2.544,4.0125-.2527,2.8819,1.441,4.8219,3.9164,4.3085,2.1668-.4494,3.2973-.9747,5.012,1.1011,2.45,2.9659-2.3785,2.7991-1.5953,4.7674Z"/>
  <path class="cls-7" d="M99.3906,103.803c-3.5387-.5401-8.8075,2.0188-8.3352-5.4792.5144-8.1673,2.5443-10.193,12.9308-9.565,6.6123.3998,2.7465,5.7562,3.4118,8.7955,1.5296,6.9871-3.3254,6.6585-8.0074,6.2487Z"/>
  <path class="cls-2" d="M114.9188,99.8941c.5374-4.132,2.5933-5.8917,6.4495-3.0274,2.1579,1.6029,3.9185,1.696,6.335.8341,4.5124-1.6096,6.8048,1.8768,9.0318,4.7402,1.9603,2.5205,2.3166,5.29-.2409,7.944-1.6362,1.6979-2.7497,2.8723-4.9556.4211-2.0713-2.3017-4.9606-3.8455-7.2445-5.9847-1.8659-1.7477-3.6427-2.7105-6.1639-1.5741-3.6954,1.6656-3.037-1.1623-3.2115-3.3531Z"/>
  <path class="cls-6" d="M71.5677,102.1661c-1.9194,1.3011-4.6232,1.4741-5.7116,3.9711-2.8476-5.4887.5774-9.2103,3.9368-12.6137,2.6631-2.698,5.658-5.9677,10.0463-2.452-.5003,2.0564-3.0764.8491-4.2763,2.1842,3.2118,2.5204,6.1332,1.2558,9.0342.5748-.0149,1.1498-.0299,2.2997-.0449,3.45-2.4655.7377-5.6027-1.2682-7.4891,1.8339-2.6073-.3789-4.8434-.0897-5.4954,3.0517Z"/>
  <path class="cls-2" d="M90.6688,82.7133c3.4671-4.672,6.4888-7.5999,11.6715-6.7442,1.711.2825,2.4626.7645,2.828,2.5468.4162,2.0296-.6743,2.3881-2.0822,3.0198-3.8945,1.7474-7.7729.559-12.4173,1.1776Z"/>
  <path class="cls-6" d="M145.4483,134.0099c-2.6649,2.1263-3.6473-.9437-4.7439-1.9573-3.8943-3.5995-8.8364-6.3876-10.4691-11.9823,5.7202,3.9384,10.6484,8.7407,15.213,13.9396Z"/>
  <path class="cls-2" d="M103.5522,116.2867c-.8143.7086-1.6287,1.4171-2.4431,2.1251-1.6571.0446-3.3662.3697-4.9593.0725-2.7205-.5074-2.7543-3.2452-2.5668-4.9838.1747-1.6198,2.966-1.3312,3.5116-.5428,1.6536,2.3901,6.6031-1.9904,6.4577,3.3289Z"/>
  <path class="cls-2" d="M67.7764,133.581c.3404,1.2298,1.1597,1.9445,2.3876,2.2196-3.3684,2.9756-5.3154,7.7494-10.563,8.3475,1.6146-4.3814,5.2033-7.2358,8.1753-10.5672Z"/>
  <path class="cls-2" d="M88.9653,131.4277c-.8893-.0117-1.7787-.0234-2.6667-.037,4.377-7.101,7.5628-8.1982,14.0104-4.3437-3.9146,1.7374-9.2458-.6758-11.3437,4.3807Z"/>
  <path class="cls-6" d="M127.7769,118.9265c-3.1902-.7151-4.6232-3.9735-7.4822-5.169-.4038-1.3541-3.1029-1.8871-2.1361-3.2472,1.2265-1.7254,3.1032-.3815,4.0636.8804,1.8877,2.4802,5.6935,3.5777,5.5547,7.5358Z"/>
  <path class="cls-2" d="M77.0631,99.1144c1.8864-3.1021,5.0236-1.0961,7.4891-1.8339.4656,2.4707-.922,4.1705-2.4229,5.8217-.2115-.4516-.5472-.5793-1.0058-.3842-1.8714-.6177-2.8184-2.2768-4.0604-3.6036Z"/>
  <path class="cls-6" d="M72.3415,76.2242c4.5061-1.2533,5.4246,3.7132,8.5168,4.9117.174,1.7726-.3358,3.3919-2.1998,1.7344-2.2625-2.0119-5.2644-3.4496-6.317-6.6461Z"/>
  <path class="cls-2" d="M58.1874,63.6896c.9124-.1583,1.8248-.3166,2.7378-.4744,2.708,2.3609,6.6965,3.7648,6.3027,8.4403-3.8729-1.6802-6.3161-4.9827-9.0406-7.9659Z"/>
  <path class="cls-2" d="M84.5971,93.8305c-2.901.6809-5.8224,1.9456-9.0342-.5748,1.1998-1.3351,3.7759-.1279,4.2763-2.1842,1.7877.5715,5.7406-2.5896,4.7579,2.759Z"/>
  <path class="cls-6" d="M83.7074,121.4622c-.5473-.5141-1.0945-1.0281-1.641-1.5429.5933-1.1038,1.8266-1.9023,1.6119-3.3894,1.1704.1306,3.3249.1434,3.3569.4104.286,2.3886-1.9161,3.2009-3.3278,4.5218Z"/>
  <path class="cls-6" d="M149.1958,139.2298c-1.0715-1.196-3.9271-1.2609-2.544-4.0125,1.6564.8254,4.2915,1.03,2.544,4.0125Z"/>
  <path class="cls-6" d="M130.3388,120.1574c-1.7088,1.2367-2.2637.1219-2.6644-1.3071,1.759-1.3393,2.2079-.0083,2.6644,1.3071Z"/>
  <path class="cls-4" d="M74.7673,102.4937c.0895-.1613.179-.3226.2685-.484-.0906.1601-.1813.3202-.272.4803,0,0,.0034.0037.0034.0037Z"/>
  <path class="cls-4" d="M81.1235,102.718c.4586-.1951.7943-.0674,1.0058.3842-.3361-.1275-.671-.2558-1.0058-.3842Z"/>
  <path class="cls-6" d="M146.7245,135.3063c-.4902.0767-.8144.8314-1.5093.143-.7048-.6983.0801-1.0129.1513-1.5007,1.0158-.1103,1.4033.4073,1.3579,1.3577Z"/>
  <path class="cls-5" d="M88.1646,56.6116c-2.558,2.9475-4.4168.8412-5.9789-1.0478-1.4611-1.7668-1.9942-3.7508,1.0632-4.7013,2.2214,1.418,3.6409,3.5217,4.9156,5.7491Z"/>
  <path class="cls-5" d="M79.8146,47.967c-.1922.5007-.3843,1.0014-.5765,1.5021-.0996-.0695-.2953-.1736-.2846-.2032.1889-.5237.4028-1.0384.6125-1.5555.0011-.0006.2486.2567.2486.2567Z"/>
  <path class="cls-5" d="M145.98,167.9893c2.6477-1.3827,2.9546.2125,2.8943,2.275-1.2335-.4164-2.2941-1.0529-2.8943-2.275Z"/>
  <path class="cls-5" d="M156.779,68.5719c.5636-6.0417,18.6674-24.4448,24.7104-25.119-1.9483,2.4632-3.8968,4.9263-5.8453,7.3895-7.2591,4.8771-11.9019,12.5376-18.8651,17.7295Z"/>
  <path class="cls-5" d="M95.4084,174.4975c-4.7398.6344-7.7066-1.2374-7.8106-7.109-.1678-9.4613,1.8963-11.9933,10.6271-12.1037,6.2252-.0787,8.3527,2.2671,8.5953,9.4771.2561,7.612-1.801,9.4621-11.4118,9.7356ZM95.9854,169.6301c2.878-.4405,6.782.464,6.134-4.7072-.3276-2.6139-.4574-4.9684-4.2395-4.6758-3.53.2731-6.1319.6968-5.5294,5.315.321,2.4604.0054,4.8115,3.6349,4.068Z"/>
  <path class="cls-5" d="M133.7416,197.5332c.1493,6.0451-2.0208,7.6843-9.7483,8.1951-6.0001.3967-7.5816-2.7386-7.5547-7.9713.042-8.1323,1.8829-10.4494,9.0365-10.7122,5.8271-.2141,8.0725,2.6348,8.2664,10.4884ZM121.4875,197.0434c-.5516,3.015.5626,4.1271,3.6656,3.9722,3.0229-.151,4.1003-1.4677,3.8088-4.2714-.2255-2.1685.3416-4.9106-3.213-4.8502-3.4238.0581-4.9031,1.7931-4.2614,5.1494Z"/>
  <path class="cls-5" d="M88.9229,195.3965c-.1925-3.4678-.3595-7.5348,6.2161-7.2538,7.0175.2999,9.7867,2.2956,9.9074,8.3934.1253,6.3304-2.077,8.173-10.1804,8.5176-4.7911.2038-5.7979-1.2711-5.9431-9.6572ZM93.8266,197.7207c.0522.1952-1.1741,2.7616,1.6867,2.3482,1.9465-.2813,4.9694.0901,4.6574-3.6197-.1997-2.3747-1.2873-3.19-3.6076-3.2719-2.5812-.0911-3.4625.9162-2.7366,4.5434Z"/>
  <path class="cls-5" d="M60.8957,196.5967c-.2007-5.2575-.2558-8.7347,5.2512-8.4487,6.6164.3437,9.8759,2.9991,9.8551,8.665-.0235,6.4044-1.544,7.5533-8.5462,7.7823-7.4151.2425-6.3065-5.0174-6.5601-7.9987ZM71.2435,196.8835c.0408-2.6519-1.5898-3.5348-3.9166-3.6572-1.7753-.0933-2.6824.7372-2.5961,2.5449.1053,2.2053.5111,4.15,3.4042,4.0346,1.9034-.0759,3.1572-.7782,3.1084-2.9224Z"/>
  <path class="cls-5" d="M136.6719,83.6863c1.8765.0237,3.753.0475,5.6298.0712-1.4839,2.0796-3.2061,3.9127-5.4212,5.2357-.0695-1.7688-.1391-3.5378-.2086-5.3069Z"/>
  <path class="cls-5" d="M46.9357,123.1781c.3738,4.292-1.4773,6.1124-4.9532,4.8708,1.651-1.6236,3.3021-3.2472,4.9532-4.8708Z"/>
  <path class="cls-5" d="M50.6234,119.6291c-.0831,2.0412.5894,4.8928-3.1886,2.9704.475-1.6214,1.7048-2.4322,3.1886-2.9704Z"/>
  <path class="cls-3" d="M70.5206,237.1708c-6.9459-.0359-8.49-1.5986-8.369-8.2806.0578-3.1933-.8519-6.9791,4.738-6.6296,6.3806.3989,10.4793,3.449,10.2642,8.4966-.1915,4.4935-2.2131,7.1108-6.6331,6.4136ZM72.3422,230.2206c.1098-2.139-1.3355-2.63-3.1635-2.8403-2.0181-.2322-3.0587.2445-3.0202,2.5993.041,2.5112,1.6162,2.4604,3.309,2.5391,1.59.074,2.9643-.1054,2.8748-2.2981Z"/>
  <path class="cls-5" d="M120.0105,230.3991c.2465-4.9874.6944-8.3142,5.8814-8.1288,6.3622.2273,9.3057,2.7874,9.3954,8.1996.0814,4.9075-2.535,6.2132-6.755,5.7614-4.3345-.4641-9.3315-.2344-8.5218-5.8321ZM127.5572,232.0438c1.8286.1208,3.2386-.1628,3.2832-2.1457.0606-2.6944-2.0154-2.7803-3.8981-2.93-1.5234-.1211-2.9719-.009-3.049,2.1024-.1042,2.8541,2.3128,2.3609,3.6639,2.9733Z"/>
  <path class="cls-1" d="M35.399,10.683c-.242,5.6967,4.4116,8.5779,7.7192,11.5542,15.2687,13.7391,29.6929,28.3279,44.3126,42.724,3.0285,2.9822,5.3038,5.8777,1.0721,9.849-3.9058,3.6654-6.9744,1.8399-9.9572-.9917-11.0792-10.5171-22.5876-20.6429-32.971-31.8115-7.2969-7.8488-15.3931-14.7882-22.7592-22.501-1.4504-1.5187-5.1675-3.0573-1.725-5.87,3.0158-2.4641,5.5334-6.8375,10.4932-4.63,1.2591.5604,2.2356,1.8031,3.8336,1.7019-.001.0008.251-.2238.251-.2238l-.2694.1988Z"/>
  <path class="cls-1" d="M184.5819,20.1982c1.8751,1.4013,3.7501,2.8025,5.6258,4.2035-10.711,14.3162-24.6791,25.5625-36.5613,38.7748-5.9215,6.5843-12.69,12.426-17.5256,19.9634-2.7677-.1416-3.7482,2.3319-5.4628,3.7316-2.3833,1.9457-4.926,3.7214-7.6719.8288-2.667-2.8096-2.9084-5.9937-.09-8.9095,4.8927-5.0619,9.824-10.0905,14.8665-15.0023,6.1678-6.0081,12.6957-11.6661,18.5906-17.925,2.1991-2.3349,4.9033-3.7182,7.2427-5.7087,6.4915-5.5238,10.5702-13.5294,18.3462-17.6789,1.5373.242,2.4133-.2489,2.1715-1.9711l.4682-.3065Z"/>
</svg>