<?xml version="1.0" encoding="UTF-8"?>
<svg id="Layer_1" xmlns="http://www.w3.org/2000/svg" viewBox="0 0 153.8537 153.5022">
  <defs>
    <style>
      .cls-1 {
        fill: #92b63e;
      }

      .cls-2 {
        fill: #f37221;
      }

      .cls-3 {
        fill: #b0c486;
      }

      .cls-4 {
        fill: #737a73;
      }

      .cls-5 {
        fill: #d1e3db;
      }

      .cls-6 {
        fill: #fff;
      }

      .cls-7 {
        fill: #54c8e7;
      }

      .cls-8 {
        fill: #9daeae;
      }

      .cls-9 {
        fill: #50803b;
      }

      .cls-10 {
        fill: #97873b;
      }

      .cls-11 {
        fill: #4c6744;
      }

      .cls-12 {
        fill: #88c15f;
      }

      .cls-13 {
        fill: #765238;
      }

      .cls-14 {
        fill: #2489a4;
      }

      .cls-15 {
        fill: #3c4b3e;
      }
    </style>
  </defs>
  <path class="cls-6" d="M.9574,80.9375c.0654.8321.1309,1.6641.1964,2.4962-.0326.6233-.1615,1.2591-.0837,1.8683,1.6196,12.6618,6.1299,24.266,12.9517,34.9988.8773,1.3803,2.0668,2.5622,3.1116,3.8361,1.3896,1.8232,2.599,3.8246,4.1966,5.4424,17.2436,17.4622,38.0101,25.8088,62.6274,23.5643,28.863-2.6317,49.0586-17.9557,62.2706-43.2146.357-.6827.2587-1.6034.3726-2.4132,3.1203-3.1582,3.6982-7.3393,4.5866-11.3954.1729-1.241.3456-2.4821.5185-3.7231.2945-1.7245.589-3.4491.8835-5.1737.9845-1.6273,1.3153-3.3497.7559-5.2013.8644-4.6237.5981-9.1998-.579-13.7375.4228-6.4002-1.6041-12.3141-3.6894-18.198-2.5884-7.3045-6.0624-14.1247-11.3497-19.9004-.8008-.9227-1.6016-1.8453-2.4023-2.768-.06-.3642-.2564-.6265-.589-.7867-.3445-.3907-.689-.7814-1.0336-1.1721l-7.0752-6.8999c-.6565-.7933-1.1875-1.7545-1.989-2.354-8.1227-6.0764-16.8848-10.9381-26.7367-13.614-6.4807-1.7603-13.0133-3.2178-19.8131-2.3175l-4.9099-.0368c-2.4997.1022-5.0445-.0627-7.4914.351-13.3282,2.2531-25.292,7.7001-35.9488,15.9639-2.2938,1.7786-4.2324,4.0154-6.3346,6.041-.3776.0541-.6486.2531-.8132.597-.7078.7234-1.4156,1.4468-2.1233,2.1702-1.3858,1.7243-2.7716,3.4486-4.1581,5.1736-.4736.4069-1.0587.7361-1.4041,1.2323-4.7042,6.757-8.5463,13.9864-10.9034,21.8759-1.5477,5.1803-3.3004,10.4013-2.7692,15.9752l-.4552,5.8482c-1.509,1.8756-.4669,3.6671.1807,5.4716Z"/>
  <path class="cls-9" d="M22.5901,23.1905c.1645-.344.4356-.543.8137-.5975,1.8.1249,3.5995.2502,5.3996.3724,2.3762,3.6332,5.4538,6.0977,9.9474,6.7786,1.7716.2685,3.4628,1.3546,5.0821,2.262,1.7781.9963,3.7114,1.2807,5.4271.5354,2.7266-1.1844,4.7049-3.3887,5.9949-6.0873.2059-.4307-.0133-1.3289-.3655-1.6839-.3214-.3237-1.152-.3942-1.6476-.2343-.7642.2465-1.4343.7851-2.1091,1.1794q-3.383-3.3179-8.8889-2.2557c-1.4236-2.9246-2.4986-6.4445-6.991-5.5821,3.6295-2.993,7.9104-4.3863,12.4769-5.0783,1.904,3.6318,5.5871,3.9899,8.9814,4.8794l-.0637-.0529c.0056.2009.0009.4029.0184.6027.0979,1.1149-.4126,2.6751,1.3556,2.7944,1.4306.0965,1.9733-1.1304,2.2703-2.356.0937-.3864.0914-.796.1329-1.195.872-.2986,1.7436-.5973,2.6154-.8959.8595,1.1453,1.58,3.1075,2.6045,3.2815,2.959.5026,5.5061,2.7808,8.9408,1.6648,1.5511-.5039,3.5956.617,5.4344.8646,2.0225.2722,3.7272,2.0595,5.9503,1.342.0471-.3148.1337-.5276.0979-.7176-.1812-.9602-.8247-2.1066-.5021-2.8286.5845-1.3086,2.0764-1.2741,3.3179-.9009,3.678,1.1058,6.9945,2.7312,8.6579,6.5702-1.3898.5318-2.6559,1.0163-4.0789,1.5607.7986,2.5533,2.4932,3.6814,4.0678,4.7817,1.4522-.258,2.4237-1.8102,4.0542-.1209,1.1408,1.1821,3.1283,1.9097,5.304,1.2673-.3069-.8485-.34-1.6348-.7337-1.915-2.3473-1.6713-3.6758-3.8449-4.205-6.7034-.2022-1.092-1.4843-1.9424-1.9066-3.0438-.9799-2.5557-3.7717-2.8802-5.358-4.6538-1.9538-2.1844-4.781-2.6543-6.8965-1.3317-3.9179,2.4494-8.2118.2201-12.0684,1.7413-2.6965-1.8681-4.6284.8899-6.9002,1.3127-1.7202-1.5235-3.457-2.6412-5.7515-2.23.8382-.7476,1.6765-1.4946,2.8352-2.5271-3.4602-.1494-6.5186-.6157-9.3157,1.1981-1.074-.182-2.0682-.5509-2.1693-1.8031-.1497-1.8536-.174-3.7174-.2518-5.5768.4604-1.1788,1.4111-1.4047,2.5311-1.3038,1.4278,3.54,1.538,3.9227,4.0749,3.3816,2.6591-.5672,5.3877.9883,7.9773-.5603.3751-.2243,1.3423.6615,2.079.898,1.9106.6137,3.0337.0735,4.2985-1.9431.4927-.7858,1.0005-1.5622,1.4976-2.3369-1.4707-.8437-2.5324-1.4528-3.594-2.0619,2.0103-.1029,4.0205-.2057,6.0309-.3086l.3576.2973c.3042.6921.4973,1.8924.9322,1.9874,1.8041.3945,3.6055,1.8706,5.5446.3857,2.0465-.3354,4.0931-.6707,6.7125-1.1,1.9447,3.2488,5.3273,3.6753,9.024,3.9452,3.7075.2708,7.4814.9994,10.7832,2.9528,3.7697,2.2302,7.4513,4.609,11.1711,6.9233.7526,1.924,1.6357,3.8104,2.2047,5.7872.3004,1.0439.0533,2.2454.0533,3.5712-2.9666-1.4802-5.5266-2.8204-8.1446-4.0361-1.2325-.5723-1.8861.0097-2.8176,2.1978-.4567-.3988-.9053-.8072-1.3716-1.1944-1.2833-1.0654-2.294-1.0448-2.9629.0482-.7097,1.1599-.4077,2.5161.8811,3.0915,1.2562.5608,2.6205.8794,4.0465,1.3396.3033-.9152.4867-1.4685.6701-2.0219,1.7469-.0217,3.3367.2025,4.0931,2.1381.5105,1.3063,1.1368,2.5675,1.6704,3.7577,2.7085-.198,5.1032-.2924,7.1895-1.8749.3694-.2803,1.4699.4031,2.2332.6446-.3069.6992-1.0698,1.6815-.8431,2.0424,1.0226,1.6278,1.5212,3.7743,3.7751,4.6525,1.1322-.9902,2.1945-1.9192,3.2568-2.8482l.357,2.9823c-.7869.9562-1.6938,1.8399-2.3277,2.8885-.6841,1.1315-.6116,2.4039.2687,3.4678.8724,1.0545,2.0938,1.4948,3.3181.8896,1.2498-.6179,2.3387-1.5615,3.4979-2.3625,1.7143.7474,2.7807,1.9016,2.4646,3.9239-.7388-.1763-1.4778-.3526-2.4649-.5881-.0722,3.2499.6221,5.7972,2.5907,8.2485.6387-.7992,1.0041-1.2564,1.3696-1.7135,2.042,3.2105,2.2519,6.8143,2.249,10.4643-.8382-.4531-1.6775-.9065-2.5171-1.3599-.7966-.3345-1.5933-.669-2.3899-1.0034q-2.4165-3.7185-2.4225-7.3712c-.5812-.0828-1.1771-.1678-1.7697-.2537-1.555-.3773-3.1137-.7536-4.6722-1.1298.5132-.555,1.0263-1.1099,1.5394-1.665.9596.3365,1.9.7654,2.8869.9701.4858.1008,1.0577-.2129,1.9327-.4201-.7525-1.4467-1.379-2.6508-1.8043-3.4685h-5.5661v1.5834c-1.2687,1.8773-2.5373,3.7546-4.0194,5.948-.8922-1.1329-1.7225-2.1874-2.5531-3.2415,1.1608-1.1458,2.8442-2.0959,3.3647-3.4824.8607-2.2922,1.0303-4.8584,1.3435-7.3278.057-.4479-.4881-1.1855-.9464-1.4263-.4794-.2519-1.3346-.2937-1.7641-.0188-.6577.4209-1.4446,1.1325-1.5609,1.8242-.5805,3.4508-1.8469,6.9037-.4327,10.4429-.4646.481-.9292.962-1.394,1.443-1.2563-.9817-2.3902-1.0622-3.5933.2023-.4986.524-1.3563.7065-2.057,1.0454-1.476-.0346-2.9457-.0991-4.4155-.0966-1.1322.0019-2.0035.4897-2.4555,1.5854-1.2992.7162-2.5986,1.4324-3.898,2.1486-.1301-.1515-.2439-.4158-.3928-.4373-1.8399-.2658-6.0864.5831-8.3462,1.6341-.9112-.0145-1.8222-.029-2.7333-.0436q.1605-3.9719-2.4577-4.9918c.0123-2.2229,1.7294-2.5823,3.3256-3.0767,1.059.6611,2.0966,1.3087,3.0632,1.9121,1.5893-.8909,3.012-1.6886,4.5169-2.5322,1.2148.6975,2.246,1.4104,3.3716,1.9111,2.3808,1.0588,4.9169,1.1051,7.3963.5461,1.8884-.4256,3.5108-1.4204,4.0316-3.5317,2.1628-.3827,3.1659-1.761,3.3505-3.8705.0724-.8257.215-1.6453.3257-2.4676,1.6428-4.0068,1.3599-4.8508-2.0332-6.0451-.3891-.137-.7778-.2918-1.1799-.3731-4.2414-.8588-8.4699-1.8043-12.7401-2.4851-1.0911-.1739-2.3178.5022-3.4821.7876-3.3094-.2948-6.6154-.6342-9.9288-.8737-4.1556-.3002-8.3163-.5376-12.4766-.7656-2.9041-.1592-5.8115-.2571-8.7174-.3824-.9186-.046-1.837-.0919-2.7556-.1378-.6077-.1514-1.2677-.5393-1.8149-.4179-5.9305,1.3159-11.9262,1.3695-17.9481,1.0835-.4109-.0195-.8278.1458-1.2427.1497-6.8839.0652-13.7678.1183-20.6518.1742-.4402-.1512-.8805-.3024-1.3207-.4536l-2.699-.1292c-.3384.0651-.6769.1303-1.0154.1955-1.7147-.0015-3.4293-.0029-5.144-.0045-1.8905-.8318-4.6295-.9274-3.6714-4.2304,1.3858-1.7243,2.7716-3.4486,4.1568-5.1726,1.3202-.1239,1.9981-.8772,2.1239-2.1706ZM71.8452,29.3865q3.5721,2.5916,5.9134.3852c-1.4753-1.1366-2.7727-2.4923-4.3533-3.2788-3.1842-1.5843-4.9289-.8689-6.3896,2.4135-.4597,1.0329-.0693,2.0216,1.4463,2.3498.9464-.523,2.0106-1.1112,3.3832-1.8697Z"/>
  <path class="cls-15" d="M17.1335,124.137c-1.0448-1.2739-2.2343-2.4558-3.1116-3.8361-6.8218-10.7328-11.3321-22.337-12.9517-34.9988-.0779-.6092.0511-1.245.0837-1.868.7604.0202,1.5208.0403,2.2812.0603,0,0,.0428.0526.0435.0514.0749,1.3511-.1435,2.8082,1.3126,3.6663.8646,2.5158,1.7292,5.0317,2.5934,7.5474-.0097.8529-.0191,1.7059-.0286,2.5588-.1534,2.3214,1.5335,4.0645,1.9673,6.2211.1992.9906.8647,1.8999,1.3872,2.8066.199.3455.5903.5804,1.1359,1.093,1.3984.0966,3.1193-.0457,4.69.374,4.363,1.1659,8.7712.8327,13.1564.607,11.5236-.5932,23.037-1.3819,34.5586-2.0192,10.6887-.5912,21.3829-1.0871,32.0745-1.6259.4197-.0211.84-.0404,1.2585-.0782,7.9361-.7206,15.8685-1.4842,23.81-2.141,2.2931-.1897,4.6163-.18,6.9175-.0764,5.2984.2385,10.4523-.708,15.5933-1.7593,1.2895-.2637,2.3459-.9556,2.1594-2.9346-1.0293-.3017-2.1892-.6417-3.3491-.9817l-.0843-1.8135c2.3245-.4782,4.9947-.1411,6.4266-2.7242l.5194.019.5194-.0181c.3634,1.2846.7269,2.5691,1.0904,3.8536-.8883,4.0562-1.4662,8.2373-4.5867,11.3954-1.2622.3685-2.5245.7372-3.7867,1.1058.2553-.713.5105-1.426.7656-2.139.0798-.9019-.3123-1.3405-1.2353-1.2578-.6179.0678-1.2359.1356-1.8538.2034-2.2937-.1144-4.7642-.8358-6.8482-.2293-6.3002,1.8337-12.794,1.4047-19.1706,2.0413-7.4803.7467-15.0328.2813-22.5705,1.3702-4.823.6967-9.4079,1.6326-13.8302,3.5658-2.0452.0481-4.0905.0962-6.1357.1443-3.5655-1.7404-4.4856-1.596-6.7584,1.0614-1.5494.0609-3.0989.1217-4.6489.1832-3.2818-1.984-6.9382-1.2217-10.2041-.6106-4.357.8155-8.4537,1.2552-12.7347-.1729-1.7012-.5675-3.7222-.7682-4.9444,1.2799-.7796.0472-1.5592.0945-2.3387.1418-3.3935-2.0101-3.4528-2.0077-5.5845.2279-2.6529.3549-5.3057.7098-7.8433,1.0493-1.1855,2.455.0132,3.6998,1.8205,4.6845-.1472,1.8952,1.7171,2.4315,2.4998,3.6985-1.3549.0912-2.71.1824-4.0649.2736Z"/>
  <path class="cls-4" d="M17.1335,124.137c1.3549-.0912,2.71-.1824,4.0653-.2735,1.2386.8937,2.4769,1.7873,3.7157,2.6801,4.5638,6.5885,11.331,10.6065,17.958,14.5223,6.8908,4.0718,14.5649,6.3844,22.6276,7.3573,8.6227,1.0403,17.1493,1.1176,25.7316-.4547,8.5748-1.5708,16.4521-4.9887,23.7811-9.3719,10.6321-6.3585,18.957-15.2228,25.0508-26.085.9167-1.2967,1.8334-2.5933,2.7502-3.8901,1.2622-.3686,2.5245-.7372,3.7867-1.1058-.1138.8098-.0154,1.7306-.3725,2.4132-13.212,25.2589-33.4076,40.5829-62.2706,43.2146-24.6173,2.2446-45.3838-6.1021-62.6274-23.5643-1.5976-1.6178-2.807-3.6192-4.1966-5.4424Z"/>
  <path class="cls-11" d="M.7768,75.466c.1517-1.9494.3035-3.8988.4552-5.8485,1.1531.1127,2.3062.2259,3.4584.3353-.0009-.0036.1414.4671.1414.4671-.0206.6212-.0411,1.2423-.0617,1.8635.1229.3925.1516.8551.3834,1.1666,2.1156,2.8433,5.5737,2.1922,8.4107,3.1676.1435.0494.363-.1225.7859-.2806.965-.7524.2822-3.3261,2.625-3.2162.4607,1.2587.8739,2.3873,1.3607,3.7172h5.8426c.2942-2.4947.5794-4.9132.8646-7.3317,2.4611-3.4006,4.9223-6.8011,7.3849-10.2008.5162.0765,1.0307.1522,1.5453.228,1.2173.3859,2.4344.7718,3.6516,1.1576.5701,1.5153,1.1402,3.0306,1.7837,4.7411-2.5314,1.3775-5.0261,2.9072-7.6697,4.1096-1.6159.735-2.9769,1.6242-3.7009,3.2005-.7241,1.5763-.7203,3.2397.2081,4.8576,4.2924,1.9211,8.8151,2.382,13.4661,1.9754,1.5551-.136,2.0932-1.1646,2.1866-2.5609l.0032-.0019c.6252.4009,1.6855.7174,1.7829,1.2204.1876.9683-.155,2.036,1.0748,2.431,2.4643-.4134,4.8684-.7649,7.244-1.2554.5274-.1089.9538-.7077,1.4266-1.0808.7908-.099,1.5815-.1979,2.3723-.2969.1993,2.3885,1.6947,3.0157,3.8129,2.8225,1.0597-.0967,2.0534-.3224,2.2942-1.549.2318-1.1813-.5001-1.8726-1.431-2.4061.0997-.7429.1994-1.4856.2991-2.2284.4973-.428.9947-.8558,1.4915-1.2846,1.3696.959,1.164,2.4115,1.2259,3.8027.0692,1.5541-.3947,3.2397,1.1393,4.6651.8098.1238,1.7924.2739,2.7752.4241-1.0578.3834-2.0894.9521-3.1796,1.1058-1.5467.2181-3.1365.1305-4.7079.1735-7.9554.0531-15.8526-.4855-23.7602-1.5044-10.5629-1.3609-21.1436-2.5712-31.6585-4.284l-1.4307.0903-.3624.404q-2.6593-.1699-3.5333-2.7964Z"/>
  <path class="cls-4" d="M28.8028,22.9684c-1.7995-.1252-3.599-.2504-5.3989-.3753,2.1016-2.0253,4.0401-4.2621,6.3339-6.0407C40.3946,8.2886,52.3584,2.8416,65.6867.5885c2.4469-.4138,4.9917-.2489,7.4912-.351-.4012,1.1499-.8022,2.2997-1.2034,3.4496-5.0922.9399-10.1845,1.8797-15.2767,2.8196-1.1199-.1029-2.0705.123-2.5319,1.2995-1.1307.3671-2.2491.7773-3.3928,1.0966-1.9918.5564-2.9376,1.8884-3.0436,3.8965-4.5665.6919-8.8473,2.0853-12.479,5.0766-.2864.0255-.5699.0187-.8525-.0223-1.2139-.1895-2.3673-.2229-2.974,1.1531l-.042.0276-1.21,1.2262-.0228.0387c-1.1543.4034-1.3637,1.2621-1.1262,2.3361l-.2203.333Z"/>
  <path class="cls-4" d="M123.5874,18.9653c-3.7198-2.3143-7.4014-4.6931-11.1711-6.9233-3.3018-1.9534-7.0757-2.6819-10.7832-2.9528-3.6967-.2699-7.0793-.6964-9.024-3.9452-2.6194.4293-4.666.7646-6.7141,1.1009-.3351-1.564-1.2606-2.4183-2.9014-2.4073-1.1913.008-2.3825.022-3.5738.0332,0,0-.3576-.2973-.3549-.2953-.3237-1.099-.6503-2.2-.9769-3.3011,6.7997-.9004,13.3324.557,19.8131,2.3174,9.852,2.6759,18.614,7.5376,26.7367,13.614.8016.5995,1.3326,1.5606,1.9889,2.3542-1.0134.1352-2.0262.2702-3.0393.4053Z"/>
  <path class="cls-4" d="M4.6914,69.9564c-1.1532-.113-2.3063-.2262-3.4594-.3389-.5311-5.5736,1.2215-10.7946,2.7692-15.9749,2.3572-7.8895,6.1993-15.119,10.9034-21.8759.3454-.4962.9305-.8254,1.4044-1.2326-.9577,3.3026,1.7813,3.3982,3.6723,4.2305-1.9558.21-3.2075,1.3258-3.9625,3.0803-.8334,1.5844-1.667,3.1688-2.5004,4.7532-1.8517,2.3584-3.4591,4.831-3.7074,7.938-1.9745,3.2341-3.2623,6.695-3.4734,10.5116-.5487,2.9695-1.0975,5.9391-1.6462,8.9086Z"/>
  <path class="cls-15" d="M123.5874,18.9653c1.013-.135,2.0259-.2701,3.0393-.4053,2.3586,2.2997,4.717,4.5997,7.0754,6.8996.3445.3906.689.7814,1.0336,1.1722.3326.1602.529.4225.589.7868-.2604,1.4662.3434,2.4805,1.6385,3.1336-.186,1.236-.4938,2.3947-1.8379,2.8961-.4821-.1129-.9643-.2258-1.4463-.3387l-2.3468-.6986c-.763-.2384-1.8635-.9218-2.2329-.6415-2.0863,1.5825-4.481,1.6769-7.1895,1.8749-.5336-1.1902-1.16-2.4514-1.6704-3.7577-.7563-1.9357-2.3462-2.1598-4.0935-2.1377-.4211-.4209-.8419-.8422-1.2626-1.2634.9315-2.1881,1.5851-2.7701,2.8176-2.1978,2.618,1.2157,5.178,2.5559,8.1446,4.0361,0-1.3258.2471-2.5274-.0533-3.5712-.569-1.9769-1.452-3.8632-2.2047-5.7872Z"/>
  <path class="cls-4" d="M145.0993,48.0503c.3166-2.0223-.7499-3.1765-2.464-3.9226-.9004-1.2975-1.7158-2.6694-2.7406-3.8615-.4541-.5284-1.3313-.6932-2.0165-1.0231-.119-.9941-.238-1.9882-.3566-2.9793-.0445-1.909-.0894-3.8211-.1341-5.7332-.0002,0,.3394-.344.3394-.344,5.2873,5.7757,8.7613,12.596,11.3497,19.9004,2.0854,5.8839,4.1122,11.7977,3.6894,18.1977-.8761.0301-1.7521.0605-2.6268.0909.0011,0,.0225-.1105.0225-.1105.3848-1.5538-.575-2.6414-1.3191-3.8038.0045-3.6498-.2054-7.2536-2.2477-10.4601-.4319-1.0721-.8635-2.1483-1.2951-3.2245,1.1706-.9725,1.5348-1.8975-.1595-2.7009l-.0411-.0255Z"/>
  <path class="cls-11" d="M150.138,68.3754c.876-.0303,1.7519-.0607,2.6281-.0908,1.1771,4.538,1.4434,9.114.5791,13.7379-2.2394,1.7067-2.3484,2.4558-.756,5.2011-.2945,1.7246-.589,3.4492-.8837,5.1738-.5364-.0434-1.0725-.087-1.6087-.1307,0,0-.5194.0182-.5194.0182,0,0-.5194-.019-.5199-.0185-.6395-1.8384-2.2996-1.5367-3.7064-1.7654.8283-1.1159,3.0046-.2872,3.2491-2.248-.1252-.9519-.2846-1.9009-.3674-2.8565-.1153-1.3309-.1732-2.6666-.2558-4.0004,1.6725-.455,2.1415-1.6883,2.1398-3.2549-.0034-3.2553.013-6.5106.0211-9.7658Z"/>
  <path class="cls-15" d="M78.088.2744c.3266,1.1011.6532,2.2021.9769,3.3011-2.0131.1009-4.0233.2037-6.0336.306-.3572-.0376-.7094-.1022-1.0567-.1943.4012-1.1499.8022-2.2997,1.2034-3.4496,1.6368.0123,3.2734.0245,4.9101.0369Z"/>
  <path class="cls-4" d="M.7768,75.466q.874,2.6265,3.5343,2.7965c.262,1.7236.523,3.4472.7841,5.1708-.2176.0211-.434.0507-.6491.089-.3235-.026-.6462-.0178-.968.0247,0,0-.0428-.0527-.0418-.0532.0699-1.7211-.7574-2.5723-2.4787-2.5562-.6476-1.8045-1.6897-3.5959-.1807-5.4716Z"/>
  <path class="cls-4" d="M152.5891,87.2236c-1.5923-2.7453-1.4834-3.4944.756-5.2011.5592,1.8514.2284,3.5738-.756,5.2011Z"/>
  <path class="cls-11" d="M.9574,80.9375c1.7213-.0161,2.5487.8351,2.4787,2.5562-.7615-.0194-1.5219-.0395-2.2823-.0597-.0655-.8324-.131-1.6644-.1964-2.4965Z"/>
  <path class="cls-4" d="M136.9632,30.5522c-1.2951-.653-1.8989-1.6674-1.6385-3.1336.8006.9226,1.6015,1.8452,2.4023,2.7679,0,0-.3396.3439-.3363.3407.0031-.0032-.4274.025-.4274.025Z"/>
  <path class="cls-4" d="M150.0968,92.2667c.5362.0437,1.0723.0873,1.6086.1307-.1726,1.241-.3453,2.482-.5182,3.723-.3635-1.2846-.727-2.5691-1.0904-3.8537Z"/>
  <path class="cls-4" d="M22.5901,23.1905c-.1258,1.2934-.8037,2.0467-2.1239,2.1706.7083-.7238,1.4161-1.4472,2.1239-2.1706Z"/>
  <path class="cls-4" d="M134.7356,26.6318c-.3445-.3908-.689-.7816-1.0336-1.1722.3445.3908.689.7815,1.0336,1.1722Z"/>
  <path class="cls-5" d="M16.0189,37.8448c.755-1.7546,2.0067-2.8704,3.9625-3.0803,1.7141.0011,3.4288.0025,5.1417.0046-.0018.0005.5585.1654.5585.1654l.4587-.3614c.8997.0431,1.7993.0861,2.6988.1297.4401.1513.8805.3022,1.3209.453,6.8839-.0559,13.7678-.109,20.6518-.1742.4149-.0039.8318-.1692,1.2427-.1497,6.0219.286,12.0176.2323,17.9481-1.0835.5472-.1214,1.2072.2665,1.8149.4178-.0889,1.3667-.5372,2.4183-2.1219,2.57-3.0353.2901-5.1086,1.6414-5.358,4.9537l-.1649.1404c-.961.3438-1.0191.7143-.0329,1.1155,6.7202.8691,13.4346.0515,20.1514-.0708,2.2487.6922,4.7565.7585,6.4933,2.6872-1.7408.8772-3.0675,2.0751-3.2285,4.1744-.5651,1.1229-1.13,2.2459-1.695,3.3688-6.4359-4.021-12.6478-2.2873-18.6353,1.0537-1.2545-1.2683-2.2632-2.2882-3.2708-3.3087.0147-.4574.0284-.914.0423-1.3706.1511-.1597.3258-.2871.524-.3822,1.1509.0487,2.0057-.3635,2.0279-1.6245.0211-1.2015-.765-1.7597-1.8964-1.8866-.3996-.0448-.8006-.0768-1.201-.1146-2.4177-2.4975-5.2988-3.8554-8.8405-3.8516-1.4386.0015-2.8775-.3609-4.3163-.5577-2.3772-2.9712-5.2805-3.5543-8.8927-2.4216-1.6887.5296-3.7903.6659-5.4441.1482-2.0431-.6396-3.6464.0139-5.409.5323-.9632.2833-1.3056.8646-.7966,2.1459,2.7155.1809,5.6232.1473,8.4438.6261,2.8388.482,5.5839,1.5014,8.3871,2.2192.5829.1492,1.2403.0088,1.8632.0019.2758.1186.5248.2788.7421.4756.6802.5485,1.3654,1.1021,2.0506,1.6558-2.3982.1861-4.7966.3723-7.1949.5584,1.9555.9902,3.8914,1.0574,5.8255,1.1575,2.6753.1387,5.3491.302,8.0236.4548.5392,2.0128,2.3542,1.9938,3.8799,2.4358-1.0245.6676-2.0264,1.3525-2.0892,2.7503-.9933-.0734-1.9856-.1619-2.9799-.2171-2.2292-.1239-4.5901-.7502-6.6591-.2281-3.3553.8467-6.5193,2.451-9.764,3.7357-1.2214-.1573-2.5622-.0561-3.1997-1.4774.122-.8281.244-1.6562.3668-2.4839-.0004-.7923-.0014-1.585-.0024-2.3777-.0127-1.6176.6125-3.3561-.8606-4.687-2.2578-.4184-4.6522-.4577-6.669-1.3501-1.9935-.882-3.6056-2.6257-5.5189-4.094-2.9342-.1597-6.2292.2345-8.3786-2.7784Z"/>
  <path class="cls-1" d="M63.0688,16.5178c2.2942-.4117,4.031.706,5.7512,2.2294,2.2718-.4228,4.2037-3.1808,6.9002-1.3127,3.8566-1.5211,8.1505.7081,12.0684-1.7413,2.1155-1.3226,4.9427-.8527,6.8965,1.3317,1.5863,1.7736,4.3782,2.0981,5.358,4.6538.4223,1.1014,1.7044,1.9519,1.9066,3.0438.5291,2.8585,1.8577,5.0321,4.205,6.7034.3936.2802.4268,1.0665.7337,1.915-2.1757.6425-4.1632-.0852-5.304-1.2673-1.6305-1.6893-2.602-.1371-4.0542.1209-1.5746-1.1003-3.2691-2.2284-4.0678-4.7817,1.423-.5445,2.689-1.0289,4.0789-1.5607-1.6633-3.839-4.9799-5.4644-8.6579-6.5702-1.2415-.3732-2.7333-.4077-3.3179.9009-.3226.722.3209,1.8685.5021,2.8286.0358.1899-.0508.4028-.0979.7176-2.223.7175-3.9278-1.0698-5.9503-1.342-1.8389-.2476-3.8833-1.3685-5.4344-.8646-3.4347,1.116-5.9818-1.1622-8.9408-1.6648-1.0245-.174-1.745-2.1361-2.6046-3.2826-.0002-.001.0292-.0572.0292-.0572Z"/>
  <path class="cls-1" d="M34.3981,17.8535c.2826.041.5661.0478.8525.0223,4.4945-.8607,5.5696,2.6592,6.9931,5.5838q5.5059-1.0622,8.8889,2.2557c.6748-.3942,1.3449-.9328,2.1091-1.1794.4956-.1599,1.3262-.0894,1.6476.2343.3522.355.5714,1.2531.3655,1.6839-1.29,2.6985-3.2683,4.9029-5.9949,6.0873-1.7157.7453-3.649.461-5.4271-.5354-1.6194-.9074-3.3106-1.9935-5.0821-2.262-4.4936-.6809-7.5711-3.1454-9.9474-6.7786-.0006.0029.2197-.33.2172-.3273.3745-.7779.7516-1.5583,1.1287-2.3389,0,0,.0228-.0387.0229-.0387.4034-.4087.8067-.8175,1.2098-1.2263,0,0,.042-.0276.0421-.0275,1.239.2539,2.1916-.2299,2.9738-1.1532Z"/>
  <path class="cls-15" d="M98.2075,60.5429c.9112.0145,1.8222.029,2.7326.0444,1.3682.8919.0353,1.7608-.0227,2.6399-3.036.1052-5.3332,2.0735-8.2545,3.2254-1.2884,3.9424-2.6221,8.0232-3.9623,12.1241-4.1456.7895-6.7949-3.6233-10.9314-3.4521.3075-.9557.9112-2.2941.7452-2.3974-2.2723-1.4151-.1201-2.9957-.2694-4.4457,1.4045-.6449,2.809-1.29,4.1957-1.9267.4586.8445,1.4517,1.8087,2.2823,2.3309v-6.7298l1.0984.0965c.0179.3352.0221.6706.0125,1.0061.1256,1.1676.1547,2.3593.437,3.4877.0826.3296.8872.4785,1.361.7103.2042-.521.4084-1.042.6125-1.563,1.4861-2.0385,1.3597-4.0775.0017-6.1169.6823-1.0196,1.4388-1.3729,2.4649-.3835.5764.5559,1.2453,1.0156,1.8727,1.5185.0959.5746.002,1.3111.3263,1.6909.7338.8593,1.3759.0624,2.0662-.3235,1.0388-.5806,2.1505-1.0306,3.2313-1.536ZM87.2466,75.6596c.1936-.2921.7689-.7621.7343-1.1821-.1082-1.3223-1.4229-2.2334-3.0748-2.1273-.4635.0298-1.2086.5614-1.2792.9594-.2823,1.5941,1.0612,1.924,2.1675,2.33.3501.1284.7871.02,1.4522.02Z"/>
  <path class="cls-11" d="M139.7414,54.4743c.5961.0849,1.1921.1698,1.7732.2526q.006,3.6527,2.422,7.3693c-1.0405.1367-2.1084.248-2.3089,1.5894-.5464,3.6523.779,6.3442,4.2956,7.7084-1.1779,2.9273-3.7442,4.9983-3.1061,8.2499-.0559.4283-.1108.8562-.1658,1.2842-1.0248-.2123-2.0144-.47-2.3402-1.6673-.5378-1.9765-1.0808-3.9515-1.6215-5.9271,1.6241-2.6633,1.3086-5.4172.677-8.3661-2.8908-.6771-5.4517-.5497-7.5945.0809-1.5517,2.2664-2.8062,4.0987-4.0625,5.9303.2218-2.238.4453-4.4754.6941-6.968-1.2217-.3826-2.4853-.5773-3.5116-1.1773-.5839-.3415-.7803-1.3456-1.151-2.0513,1.4584-.4098,3.2883.4313,4.5764-1.5111-.7079-1.5209-1.4633-3.1437-2.2186-4.7665.4648-.481.9294-.9619,1.394-1.443l-.0039-.0121c.8303,1.0545,1.6606,2.109,2.5528,3.2419,1.4821-2.1934,2.7508-4.0707,4.0179-5.9467.8499.4454,1.701.8896,2.5523,1.3338-.5131.555-1.0262,1.11-1.5397,1.662-.3402.6294-.6804,1.2619-1.0206,1.8944l-.088,1.9348c-.88,1.7637-2.3746,3.2994-2.2399,5.4836,6.4507.9321,8.0617-.342,8.2093-6.3495.015-.6078-.1243-1.2194-.1919-1.8293Z"/>
  <path class="cls-5" d="M74.573,34.3041c2.9059.1253,5.8134.2232,8.7174.3824,4.1604.228,8.3211.4654,12.4766.7656,3.3134.2394,6.6194.5788,9.9295.8744.5589.4512,1.1171.9015,1.6734,1.354-1.0811.8356-1.7385,1.8033-.564,4.1008.2595.8472,2.9853-.8035,3.5128,1.2264-.386.4168-.6648.9542-.8984.9353-4.5248-.3675-9.0442-.7997-13.5649-1.2188-4.0847-2.2327-7.9787-4.6136-12.895-5.1703-2.8179-.3192-6.343-.2942-8.3876-3.2499Z"/>
  <path class="cls-8" d="M121.4571,50.7781c-.5228,2.1129-2.1452,3.1076-4.0336,3.5333-2.4794.559-5.0155.5128-7.3963-.5461-1.1256-.5007-2.1568-1.2136-3.3716-1.9111-1.505.8436-2.9277,1.6413-4.5169,2.5322-.9666-.6033-2.0042-1.251-3.0632-1.9121-1.5962.4944-3.3133.8538-3.3245,3.0768.0011.0002.0678.0176.0678.0176-1.4469-.3289-2.8338-.7169-2.7783-2.6345.0597-2.0579.1111-4.116.1661-6.174,2.5091-.0497,4.9298.182,7.4082.8693,3.1853.8835,6.5305,1.3204,9.8364,1.6066,3.894.3372,7.4926-.3772,9.8637-4.0708.3002-.4678,1.4517-.3893,2.2088-.5638-.2996,2.0685-1.8038,3.9291-1.0665,6.1765Z"/>
  <path class="cls-8" d="M74.573,34.3041c2.0446,2.9557,5.5697,2.9306,8.3876,3.2499,4.9163.5567,8.8102,2.9376,12.8951,5.1728q-3.2061.5356-3.7402,2.9847c-.4438-.0497-.8876-.0993-1.3313-.1489-1.7365-1.929-4.2443-1.9954-6.4913-2.687-1.1319-.3443-2.2581-.9571-3.4002-.9884-5.5161-.1516-11.0363-.1466-16.5552-.1972.2494-3.3124,2.3228-4.6637,5.358-4.9538,1.5848-.1516,2.033-1.2033,2.1219-2.57.9186.0461,1.837.092,2.7556.138Z"/>
  <path class="cls-1" d="M142.8182,79.6436c-.639-3.2512,1.9273-5.3223,3.1052-8.2496-3.5166-1.3642-4.842-4.0561-4.2956-7.7084.2005-1.3413,1.2683-1.4527,2.3089-1.5894.7971.3363,1.5937.6708,2.3914,1.0069.1942,2.5267,1.6132,4.1418,3.8336,5.1618,0,0-.0215.1105-.0225.1104-.0094,3.2553-.0258,6.5106-.0224,9.7658.0017,1.5667-.4674,2.8-2.1415,3.2515-1.3299-1.7372-3.2929-1.5975-5.1571-1.7492Z"/>
  <path class="cls-11" d="M100.9175,63.2275c.0579-.8794,1.3908-1.7482.0225-2.6402,2.2606-1.052,6.5071-1.9009,8.347-1.635.149.0215.2627.2858.3936.4371-.3766.403-.754.8063-1.1313,1.2096-.4554.8591-.9105,1.7181-1.3654,2.5775-.0835.1939-.1675.3876-.2513.5813.1088-.1691.2176-.3382.3266-.5074.4435-.4137.8869-.8274,1.3306-1.241,1.9559-.1202,3.9117-.2405,5.8699-.3584,1.5158.6878.8155,1.6337.3028,2.5576-2.4762.9395-4.9525,1.879-7.4287,2.8184-1.2041.011-2.428-.1115-3.6076.0645-1.7492.261-2.0548,1.0244-1.689,3.5235-3.0782.8925-6.3357,1.5238-7.5235,5.1676-.376.0951-.7443.0705-1.1047-.0737-.1503-2.5774.6719-4.8776,1.8716-6.9768,2.7726-1.1455,5.5453-2.0014,8.0991-4.4365-1.1145-.4834-1.7882-.7758-2.4621-1.0681Z"/>
  <path class="cls-1" d="M71.9745,3.6871c.3473.0921.6995.1567,1.0567.1943,1.0617.6097,2.1233,1.2188,3.594,2.0625-.497.7747-1.0049,1.5511-1.4976,2.3369-1.2648,2.0166-2.3879,2.5568-4.2985,1.9431-.7367-.2366-1.7039-1.1224-2.079-.898-2.5896,1.5486-5.3182-.0069-7.9773.5603-2.5369.5412-2.6471.1584-4.0749-3.3816,5.0921-.9378,10.1843-1.8776,15.2765-2.8175Z"/>
  <path class="cls-1" d="M134.052,55.2347c.34-.6324.6802-1.265,1.0205-1.8944,1.5588.3793,3.1175.7555,4.6725,1.1328.0641.611.2033,1.2226.1883,1.8304-.1476,6.0076-1.7586,7.2816-8.2093,6.3495-.1348-2.1842,1.3599-3.7199,2.2391-5.4858.8854-.6058.9058-1.2498.0889-1.9327Z"/>
  <path class="cls-8" d="M107.3719,37.6785c-.5583-.4504-1.1165-.9007-1.6754-1.3519,1.1637-.2862,2.3904-.9622,3.4815-.7884,4.2703.6807,8.4987,1.6262,12.7401,2.4851.4021.0813.7908.2361,1.1799.3731,3.3931,1.1943,3.676,2.0384,2.0327,6.0436-.514-.0832-1.0274-.1648-1.5403-.2462-.0653-1.3342-.6017-2.2588-1.8591-2.9582-4.4804-2.4921-9.4341-2.9389-14.3595-3.5571Z"/>
  <path class="cls-1" d="M47.7296,12.7993c.106-2.008,1.0518-3.3401,3.0436-3.8965,1.1436-.3193,2.2621-.7294,3.3928-1.0966.0787,1.8617.103,3.7254.2527,5.5791.1011,1.2522,1.0953,1.6211,2.1696,1.8029.0412.83.082,1.6603.1229,2.4905-3.3945-.8895-7.0776-1.2476-8.9815-4.8794Z"/>
  <path class="cls-1" d="M127.4931,53.0615c-1.4142-3.5391-.1479-6.9921.4327-10.4429.1162-.6917.9031-1.4033,1.5609-1.8242.4296-.2749,1.2847-.233,1.7641.0188.4583.2408,1.0033.9784.9464,1.4263-.3132,2.4694-.4828,5.0356-1.3435,7.3278-.5205,1.3866-2.2039,2.3366-3.3647,3.4824.0003-.0004.0042.0117.0042.0117Z"/>
  <path class="cls-1" d="M126.0991,54.5045c.7553,1.6228,1.5107,3.2456,2.2186,4.7665-1.2881,1.9424-3.118,1.1013-4.5774,1.5103-.7043-.109-1.4077-.2172-2.1111-.3254-.3913-1.5682-.7827-3.1365-1.174-4.7047.6945-.3378,1.5522-.5203,2.0508-1.0443,1.2031-1.2645,2.337-1.184,3.5933-.2023Z"/>
  <path class="cls-1" d="M71.8452,29.3865c-1.3725.7584-2.4368,1.3467-3.3832,1.8697-1.5156-.3283-1.906-1.3169-1.4463-2.3498,1.4607-3.2824,3.2054-3.9978,6.3896-2.4135,1.5806.7865,2.878,2.1422,4.3533,3.2788q-2.3413,2.2064-5.9134-.3852Z"/>
  <path class="cls-1" d="M137.8782,39.243c.6852.3299,1.5624.4947,2.0165,1.0231,1.0248,1.1921,1.8402,2.564,2.7406,3.8615-1.1594.7997-2.2482,1.7433-3.498,2.3612-1.2242.6053-2.4456.165-3.3181-.8896-.8803-1.0639-.9528-2.3364-.2687-3.4678.6339-1.0486,1.5408-1.9323,2.3277-2.8885Z"/>
  <path class="cls-12" d="M136.9632,30.5522s.4305-.0282.4274-.025c.0417,1.9154.0866,3.8274.131,5.7365-1.0627.926-2.125,1.855-3.2572,2.8452-2.2539-.8782-2.7525-3.0248-3.7751-4.6525-.2267-.3609.5362-1.3432.8431-2.0424.782.2299,1.5643.4628,2.347.6947.4822.1126.9641.2261,1.4459.3396,1.3441-.5013,1.6519-1.66,1.8379-2.8961Z"/>
  <path class="cls-1" d="M98.2075,60.5429c-1.0808.5054-2.1925.9554-3.2313,1.536-.6903.3859-1.3324,1.1828-2.0662.3235-.3243-.3798-.2305-1.1163-.3303-1.6906,1.0769-1.7142,2.1579-3.4286,3.239-5.1431,0,0-.0667-.0174-.0678-.0176q2.6171,1.0198,2.4566,4.9918Z"/>
  <path class="cls-12" d="M114.4573,61.6487c-1.9559.1202-3.9117.2405-5.8685.3597-.0137-.4705-.0267-.9399-.0397-1.4094.3774-.4033.7548-.8065,1.1314-1.2096,1.2986-.716,2.598-1.4322,3.8975-2.1505.7094.3537,1.4184.7097,2.1275,1.0656.4402,1.4343-.4631,2.3672-1.2483,3.3441Z"/>
  <path class="cls-15" d="M56.7111,17.6787c-.0409-.8302-.0817-1.6605-.1229-2.4905,2.7968-1.8137,5.8552-1.3474,9.3154-1.198-1.1588,1.0325-1.9971,1.7794-2.8352,2.5271.0003.0005-.029.0567-.0289.0577-.8717.2997-1.7433.5983-2.615.8987-1.2589.0519-2.5182.102-3.7774.1522,0,0,.0637.0529.0639.0529Z"/>
  <path class="cls-1" d="M114.8831,26.4855c.4208.4212.8416.8426,1.2626,1.2634-.1829.553-.3663,1.1063-.6696,2.0215-1.4259-.4602-2.7903-.7788-4.0465-1.3396-1.2887-.5754-1.5908-1.9317-.8811-3.0915.6688-1.093,1.6796-1.1136,2.9629-.0482.4663.3872.9149.7956,1.3716,1.1944Z"/>
  <path class="cls-1" d="M136.6122,51.6784c-.8513-.4442-1.7024-.8884-2.5523-1.3338.0015-.4061.0015-.8109.0015-1.5846h5.5661c.4253.8176,1.0518,2.0218,1.8043,3.4685-.875.2072-1.4469.5209-1.9327.4201-.987-.2047-1.9273-.6336-2.8869-.9701Z"/>
  <path class="cls-11" d="M115.7056,58.3045c-.7091-.3559-1.4181-.7118-2.1275-1.0656.4516-1.0936,1.323-1.5814,2.4552-1.5833,1.4698-.0025,2.9396.062,4.4155.0966.3975,1.5671.7889,3.1354,1.176,4.7055-1.1129-.2671-2.2516-.4511-3.3207-.8314-.9081-.3229-1.7354-.8725-2.5986-1.3218Z"/>
  <path class="cls-1" d="M145.2998,50.7766c.4316,1.0761.8632,2.1523,1.2951,3.2245-.3652.4531-.7306.9103-1.3693,1.7095-1.9687-2.4513-2.663-4.9986-2.5907-8.2485.9871.2354,1.7262.4117,2.4649.5881-.0005,0,.0406.0255.0406.0256.0533.9003.1064,1.8006.1595,2.7008Z"/>
  <path class="cls-3" d="M123.5899,44.1935c.5135.0816,1.0269.1633,1.5409.2465-.1102.8239-.2528,1.6435-.3252,2.4692-.1846,2.1095-1.1876,3.4877-3.3505,3.8705-.7354-2.249.7689-4.1095,1.0681-6.1802.3152-.2425.6708-.377,1.0666-.4059Z"/>
  <path class="cls-1" d="M79.4198,3.8708c1.1913-.0112,2.3825-.0252,3.5738-.0332,1.6408-.011,2.5663.8433,2.9014,2.4073-1.9376,1.4839-3.739.0079-5.5431-.3867-.4348-.0951-.6279-1.2954-.9322-1.9874Z"/>
  <path class="cls-1" d="M56.6472,17.6258c1.2592-.0502,2.5185-.1003,3.7774-.1522-.0418.3973-.0395.8069-.1332,1.1933-.297,1.2256-.8397,2.4525-2.2703,2.356-1.7682-.1194-1.2577-1.6795-1.3556-2.7944-.0174-.1999-.0128-.4018-.0184-.6027Z"/>
  <path class="cls-11" d="M150.1617,68.265c-2.2204-1.02-3.6394-2.6351-3.8336-5.1618.8385.4517,1.6779.9051,2.516,1.3582.7426,1.1622,1.7024,2.2498,1.3176,3.8036Z"/>
  <path class="cls-4" d="M30.1599,35.1558c-.4404-.1509-.8808-.3017-1.3209-.453.4405.1506.8807.3018,1.3209.453Z"/>
  <path class="cls-4" d="M26.1402,34.573l-.4587.3614s-.5602-.1648-.5585-.1654c.3402-.0658.6787-.1309,1.0171-.1961Z"/>
  <path class="cls-3" d="M145.3514,90.4997c1.4065.2301,3.0666-.0716,3.7061,1.7668-1.4315,2.5827-4.1017,2.2456-6.4259,2.7233-11.5433-.0647-23.089-.2856-34.6299-.1428-8.8036.1089-17.5988.8693-26.4029,1.0026-16.5864.2511-33.1763.2693-49.765.3546-2.0959.0108-4.2596.1461-6.2767-.2989-6.0163-1.3274-12.0903-1.1785-18.1723-1.1457-.8646-2.5158-1.7291-5.0317-2.5937-7.5472-.1151-1.2298-.2302-2.4599-.3453-3.69.2152-.0384.4316-.068.6488-.0892,1.8757-.164,3.7894-.1465,5.6203-.527,4.6087-.9575,9.1222-.9727,13.663.4301,2.1902.6766,4.4881,1.0194,6.7494,1.4488,6.3596,1.2076,12.6851,2.7491,19.1016,3.4556,5.3914.5938,10.7144,2.187,16.2209,1.5804,2.9008-.3196,5.7944-.9846,8.6911-.9824,2.8939.0022,5.8026,1.0347,8.6784.9246,6.8928-.2643,13.7717-.9134,20.6501-1.4806.531-.0438,1.0144-.6622,1.5201-1.0135,3.7425.3901,7.4852.7801,11.2277,1.1703.7327,1.6572,2.019,2.5767,3.8154,2.5788,4.0815.0046,8.1638-.0406,12.2431-.1593.5117-.0149,1.0069-.5944,1.5098-.9124.9068-.0986,1.8138-.1973,2.7207-.296,2.6255.1867,5.102,1.7489,7.845.849Z"/>
  <path class="cls-3" d="M142.7154,96.8037c1.16.34,2.32.68,3.3492.9817.1865,1.979-.87,2.671-2.1594,2.9346-5.141,1.0514-10.2948,1.9979-15.5933,1.7593-2.3011-.1036-4.6244-.1133-6.9175.0764-7.9415.6568-15.8739,1.4204-23.81,2.141-.4185.0379-.8388.0572-1.2585.0782-10.6917.5388-21.3858,1.0347-32.0745,1.6259-11.5216.6372-23.035,1.426-34.5586,2.0192-4.3852.2257-8.7934.5589-13.1564-.607-1.5707-.4197-3.2916-.2774-4.69-.374-.5457-.5126-.9369-.7475-1.1359-1.093-.5225-.9067-1.188-1.8161-1.3872-2.8066-.4337-2.1567-2.1207-3.8997-1.9677-6.221,3.1499.0768,6.3796-.2662,9.4345.3131,7.5141,1.4248,15.0619,1.2437,22.6176,1.1044,19.9482-.3676,39.9068.1823,59.8477-1.1418,8.7939-.584,17.6507-.185,26.4779-.3134,5.6618-.0823,11.3214-.3129,16.9822-.477Z"/>
  <path class="cls-3" d="M142.8137,108.6215c-.9167,1.2967-1.8334,2.5934-2.75,3.8904-3.4767.2724-6.24,2.3828-8.5152,4.4951-2.9928,2.7785-5.7413,3.8854-9.4954,2.1353-.5294-.2467-1.2654-.259-1.8546-.1352-4.2675.8973-8.5413,1.0106-12.8434.3027-.1301-.0215-.3042.2245-.5751.4384.198.8341.4107,1.7301.6892,2.9035-2.4087-.0446-4.7029.5917-6.7059-1.078.4391-.2684.8783-.5368,2.335-1.4272-6.1628-.0181-11.212-.0759-16.2592.0015-.7042.0108-1.3982.6865-2.0969,1.0545-3.5692.0997-7.1387.1875-10.7073.3038-2.0955.0683-4.1951.1178-6.2834.2907-2.9104.241-5.8055.705-8.7187.8632-3.5642.1933-7.1734-.1001-10.6992.3353-2.2773.2812-4.4056,1.1031-6.7263.1026-.6344-.2734-1.8302-.0809-2.357.374-2.5135,2.1708-5.503,1.6797-8.4106,1.8322-2.0246.1062-4.2639-.6506-5.9257,1.2402-1.2383-.8936-2.4766-1.7871-3.7152-2.6808-.7831-1.2671-2.6474-1.8034-2.5004-3.6989,1.0097-1.3608,2.4907-1.2842,3.9433-1.2909,3.9375-.0181,7.8752-.0614,11.8125-.0407,1.9685.0103,3.1204-.8452,3.388-2.8204.7516.0995,1.5033.1989,2.2549.2983.8661,1.2537,1.7699,1.339,2.7169.0877,5.4502-.5567,10.9031-1.0874,16.3453-1.7141.4929-.0568.9146-.7321,1.3691-1.1202,1.5494-.0609,3.0989-.1217,4.6498-.1806,2.3714.3948,4.7951,1.1304,6.7568-1.0634,2.0452-.0481,4.0905-.0962,6.1363-.1428.4493.4027.9473,1.1956,1.3398,1.1465,5.5678-.6954,11.1237-1.4881,16.6767-2.2971,1.6362-.2384,3.2998-.9869,4.8689-.803,1.7682.2073,3.4435,1.2035,5.6547,2.0451,1.5446-1.9264,3.9488-2.3434,6.5318-2.2679.8148.0239,1.6987-.1029,2.4469-.4121,2.2371-.925,4.4682-.986,6.7278-.214,2.4959.8528,4.8414.4993,7.3259-.3192,2.5446-.8385,5.2595-1.1879,7.9194-1.637,1.3353-.2256,2.3887-.6817,2.9271-1.9907.6179-.0678,1.2359-.1357,1.8557-.2048.4124.4188.8229.839,1.2335,1.2592-.2552.713-.5103,1.426-.7656,2.139Z"/>
  <path class="cls-11" d="M142.7156,96.8037c-5.6609.1641-11.3205.3947-16.9823.477-8.8272.1284-17.684-.2706-26.4779.3134-19.9409,1.3241-39.8995.7742-59.8477,1.1418-7.5557.1393-15.1035.3205-22.6176-1.1044-3.0549-.5793-6.2846-.2363-9.4344-.3131.0098-.8531.0192-1.706.0289-2.5589,6.0823-.0328,12.1563-.1816,18.1726,1.1457,2.0171.4449,4.1808.3097,6.2767.2989,16.5886-.0853,33.1786-.1035,49.765-.3546,8.804-.1333,17.5993-.8937,26.4029-1.0026,11.5409-.1428,23.0867.078,34.6299.1428.0278.605.0559,1.2095.084,1.814Z"/>
  <path class="cls-4" d="M140.4902,105.4281c-.5384,1.3091-1.5917,1.7651-2.9271,1.9908-2.6599.4492-5.3749.7986-7.9194,1.637-2.4845.8185-4.83,1.172-7.3259.3192-2.2596-.772-4.4907-.7111-6.7278.214-.7482.3093-1.632.4361-2.4469.4121-2.583-.0755-4.9871.3415-6.5318,2.2679-2.2112-.8416-3.8865-1.8378-5.6547-2.0451-1.569-.184-3.2327.5645-4.8689.803-5.553.809-11.1089,1.6017-16.6767,2.2971-.3925.0491-.8905-.7438-1.3398-1.1465,4.4217-1.9346,9.0066-2.8705,13.8296-3.5672,7.5377-1.0889,15.0902-.6235,22.5705-1.3702,6.3766-.6366,12.8704-.2076,19.1706-2.0413,2.084-.6065,4.5544.115,6.8482.2293Z"/>
  <path class="cls-8" d="M37.8421,116.0126c-.2676,1.9753-1.4195,2.8308-3.388,2.8204-3.9373-.0208-7.875.0225-11.8125.0407-1.4527.0066-2.9336-.0699-3.9433,1.2909-1.8071-.9845-3.0058-2.2293-1.8203-4.6843,2.5376-.3395,5.1905-.6944,7.8443-1.0441.9542.4031,1.9145.7848,2.8589,1.2025,1.5276.6759,2.3233.0043,2.7245-1.4356.7796-.0472,1.5592-.0945,2.3384-.1429.8714.2994,1.7501.5814,2.613.9058.8698.327,1.7239.696,2.5848,1.0467Z"/>
  <path class="cls-4" d="M37.8421,116.0126c-.8609-.3506-1.715-.7196-2.5848-1.0467-.8629-.3244-1.7416-.6064-2.613-.9058,1.2225-2.0469,3.2434-1.8462,4.9447-1.2788,4.281,1.4282,8.3777.9884,12.7347.1729,3.2659-.6111,6.9223-1.3734,10.2041.6106-.454.3875-.8757,1.0628-1.3685,1.1196-5.4422.6267-10.8951,1.1574-16.3461,1.7132-.9059-.0295-1.811-.0582-2.7161-.0868-.7516-.0994-1.5033-.1989-2.2549-.2983Z"/>
  <path class="cls-4" d="M71.935,112.3204c-1.9617,2.1938-4.3854,1.4583-6.7568,1.0634,2.2712-2.6594,3.1913-2.8038,6.7568-1.0634Z"/>
  <path class="cls-4" d="M30.3059,114.2031c-.4013,1.44-1.197,2.1115-2.7245,1.4356-.9444-.4178-1.9048-.7994-2.8589-1.2025,2.1307-2.2409,2.19-2.2432,5.5835-.2331Z"/>
  <path class="cls-11" d="M4.446,83.5223c.1151,1.2301.2302,2.4602.3453,3.69-1.4562-.8584-1.2379-2.3154-1.3127-3.6665.3212-.0413.6439-.0495.9674-.0235Z"/>
  <path class="cls-4" d="M143.5794,106.4825c-.4106-.4202-.821-.8404-1.2335-1.2592.9212-.0813,1.3133.3573,1.2335,1.2592Z"/>
  <path class="cls-5" d="M100.7633,121.5736c2.0029,1.6697,4.2971,1.0334,6.7059,1.078-.2785-1.1734-.4912-2.0693-.6892-2.9035.2709-.2139.445-.4598.5751-.4384,4.3021.7079,8.5759.5946,12.8434-.3027.5892-.1238,1.3252-.1115,1.8546.1352,3.7541,1.7501,6.5026.6432,9.4954-2.1353,2.2752-2.1122,5.0385-4.2227,8.5152-4.4951-6.094,10.8619-14.4189,19.7262-25.051,26.0847-7.329,4.3832-15.2063,7.8012-23.7811,9.3719-8.5822,1.5723-17.1089,1.495-25.7316.4547-8.0627-.9729-15.7368-3.2855-22.6276-7.3573-6.627-3.9159-13.3942-7.9338-17.958-14.5223,1.6613-1.89,3.9006-1.1332,5.9252-1.2394,2.9076-.1525,5.897.3386,8.4106-1.8322.5268-.4549,1.7226-.6474,2.357-.374,2.3208,1.0004,4.449.1786,6.7263-.1026,3.5258-.4354,7.135-.142,10.6992-.3353,2.9132-.1582,5.8083-.6222,8.7187-.8632,2.0883-.1729,4.1879-.2224,6.2834-.2907,3.5686-.1163,7.1381-.2041,10.7056-.3033,5.3398.124,10.6813.2474,16.0228.3708ZM94.3948,129.997c-13.8081-2.2885-27.5119.1071-41.2538.3553-.859.0155-2.0193.5831-1.4221,2.3234,7.2333.7158,14.3882-1.7345,21.68-1.2707,1.6516.1051,3.3318-.2016,4.9964-.3468,3.106-.2709,6.2068-.6108,9.3162-.8291,2.2223-.1559,4.4552-.1602,6.6833-.2321Z"/>
  <path class="cls-9" d="M40.2813,57.0934c3.2447-1.2846,6.4087-2.889,9.764-3.7357,2.069-.5221,4.4299.1042,6.6591.2281.9942.0552,1.9866.1438,2.9833.2219.269.1968.5314.393.7908.5933-.1465.9426-.293,1.8853-.466,2.999-1.5917-1.0101-2.6542-3.0491-4.3748-.6839.2351.5449.3677,1.1788.727,1.6337,3.1001,3.9255,5.3747,8.2574,6.696,13.0934.1507.5508.6224,1.0139.9451,1.5176l.2635.4252c-.4972.428-.9945.8559-1.4897,1.2828-.7889.0642-1.5951.0613-2.3637.2302-.2866.063-.7412.644-.6759.7878.2051.4516.5503.9909.9732,1.1538.5188.1999,1.1706.0541,1.7651.0576.9309.5336,1.6629,1.2249,1.431,2.4062-.2408,1.2266-1.2345,1.4523-2.2942,1.549-2.1182.1931-3.6136-.434-3.8121-2.82.7309-3.4071-.2322-6.3478-2.3011-9.0855-.6849-.906-.9428-2.1344-1.3962-3.2156,2.0869-4.3139,1.6561-6.3168-2.215-9.4603-.827,3.6574,1.0894,6.4896,2.2556,9.4859-1.7093-.6806-3.3949-1.4333-5.1382-2.0112-.8693-.2882-1.8447-.2568-3.8952-.507,4.3703,4.3037,7.244,8.2868,8.8618,13.0762.2528.749.9589,1.3451,1.4553,2.0118-.4728.3732-.8991.972-1.4266,1.0808-2.3755.4905-4.7797.842-7.244,1.2554-1.2298-.395-.8872-1.4626-1.0748-2.431-.0974-.503-1.1577-.8196-1.7822-1.2197-.0379-1.933.791-4.0265-1.0413-5.9612-2.548,1.2069-5.6463.9741-7.7373,4.0602,1.2775.7369,2.2046,1.6323,3.2443,1.7914,1.8067.2765,3.6832.0983,5.5304.1107-.0934,1.3962-.6315,2.4249-2.1866,2.5609-4.651.4066-9.1736-.0543-13.4661-1.9754-.9284-1.6179-.9322-3.2813-.2081-4.8576.724-1.5762,2.085-2.4655,3.7009-3.2005,2.6437-1.2025,5.1384-2.7322,7.6697-4.1096-.6436-1.7106-1.2136-3.2259-1.7831-4.7412.8858-1.1993,1.7709-2.3985,2.6559-3.5977Z"/>
  <path class="cls-5" d="M105.9897,87.2692c-.5057.3513-.9891.9696-1.5201,1.0135-6.8784.5672-13.7573,1.2163-20.6501,1.4806-2.8758.1101-5.7845-.9223-8.6784-.9246-2.8967-.0022-5.7902.6628-8.6911.9824-5.5065.6066-10.8295-.9866-16.2209-1.5804-6.4165-.7066-12.742-2.248-19.1016-3.4556-2.2613-.4294-4.5592-.7723-6.7494-1.4488-4.5408-1.4028-9.0543-1.3876-13.663-.4301-1.8309.3805-3.7446.363-5.6203.527-.2606-1.7234-.5216-3.447-.7837-5.1706-.001,0,.3614-.404.3615-.4027.4769-.0297.9537-.0607,1.4306-.0916,10.5149,1.7128,21.0956,2.9231,31.6585,4.284,7.9076,1.0189,15.8048,1.5575,23.7608,1.5042.7959.2439,1.5806.6547,2.3882.7065,9.4369.6045,18.8726,1.2754,28.3192,1.6686,4.6248.1924,9.2469.1128,13.7598,1.3377Z"/>
  <path class="cls-9" d="M25.0428,69.5063c-.2852,2.4185-.5703,4.837-.8646,7.3317h-5.8426c-.4868-1.3299-.9-2.4585-1.3607-3.7172-2.3427-.1099-1.66,2.4639-2.625,3.2162-.4229.1581-.6424.33-.7859.2806-2.8369-.9754-6.295-.3243-8.4107-3.1676-.2318-.3116-.2606-.7741-.3831-1.1687,1.0798-.1871,2.1832-.3388,2.4097-1.7198.8659-1.1678,1.7319-2.3356,2.5983-3.504,1.1612-.2367,2.3219-.4728,3.4763-.7076,1.084,1.0752,2.1522,2.1349,3.6176,3.5886.7969-1.769,1.3551-3.008,1.9132-4.247,1.1113.5601,2.1453.9037,2.8503-.6132.1282-.2759.6419-.3729.9777-.5525.1121,2.0004.803,3.7185,2.4293,4.9806Z"/>
  <path class="cls-4" d="M105.9897,87.2692c-4.5129-1.2249-9.135-1.1453-13.7598-1.3377-9.4466-.3932-18.8823-1.0641-28.3192-1.6686-.8076-.0518-1.5923-.4626-2.3882-.7065,1.5707-.0429,3.1606.0447,4.7073-.1734,1.0902-.1538,2.1218-.7224,3.1796-1.1058,0,0,.1916-.2799.1889-.278.8314-.2689.9402-2.0145,2.3453-1.137.8298.5183,1.6283,1.162,2.5356,1.4687,4.3884,1.4833,8.9683,1.1099,13.496,1.249.9383.356,1.8711,1.0078,2.8102,1.0169,3.8836.0379,7.7692-.1186,11.6541-.2037,5.8047.5402,11.6093,1.0804,17.4141,1.6205.9087.3718,1.8021,1.0117,2.729,1.0646,2.6475.1508,5.3086.0629,7.9645.0689.4499-.0008.8999-.0015,1.3498-.0022.5543.1086,1.1086.2174,1.6629.3261,1.3156.7266,2.631,1.4532,3.9466,2.1798-.9068.0987-1.8138.1974-2.7195.2956-5.76-1.6203-11.6362-1.8969-17.5695-1.5067-3.7425-.3901-7.4852-.7802-11.2277-1.1703Z"/>
  <path class="cls-1" d="M55.4298,78.3278c-.4964-.6668-1.2024-1.2629-1.4553-2.0118-1.6178-4.7894-4.4915-8.7725-8.8618-13.0762,2.0505.2502,3.0259.2188,3.8952.507,1.7433.5779,3.4289,1.3306,5.1382,2.0112l-.0404-.0254c.4532,1.081.7111,2.3095,1.396,3.2154,2.069,2.7377,3.032,5.6784,2.3011,9.0855-.7915.0964-1.5823.1953-2.3731.2943Z"/>
  <path class="cls-1" d="M25.0428,69.5063c-1.6263-1.2621-2.3172-2.9802-2.4301-4.9811.5946.1485,1.1899.2976,2.0345.5092.9687-1.8384,1.8066-3.7447,2.9231-5.4709,1.5773-2.4386,3.0884-5.0953,6.58-5.1395-.5747,1.6269-1.1494,3.2538-1.7241,4.8807-2.4611,3.4006-4.9222,6.8011-7.3833,10.2017Z"/>
  <path class="cls-7" d="M9.7779,67.0581c-.8659,1.1677-1.7319,2.3355-2.597,3.5041-.7825-.047-1.5658-.0947-2.3492-.1424,0,0-.1423-.4707-.1413-.4671.5497-2.9659,1.0984-5.9355,1.6464-8.9082,1.5888-.7376,3.1785-1.4718,4.7655-2.2017-.0392.9855-.0756,1.9666-.1121,2.9477-1.7273,1.4515-1.1603,3.4307-1.2123,5.2676Z"/>
  <path class="cls-9" d="M69.4093,82.2772c-.9828-.1502-1.9654-.3003-2.7752-.4241-1.534-1.4254-1.0702-3.111-1.1393-4.6651-.0619-1.3912.1437-2.8437-1.2259-3.8027.0003.0008-.2632-.4244-.2616-.4208.4697-.5954.9379-1.1943,1.406-1.7934.4746.584.9291,1.1862,1.4337,1.7431.2119.2338.5304.3712.7952.549.704-.7091,1.3738-1.3837,2.0435-2.0583-.0773,3.7426-.7793,7.139-.0849,10.5924l-.1916.2799Z"/>
  <path class="cls-4" d="M40.2813,57.0934c-.8851,1.1992-1.7702,2.3984-2.6559,3.5977-1.218-.3857-2.4351-.7716-3.653-1.1589.3881-.669.8987-1.2963,1.1361-2.0138.3403-1.0284.8436-1.7544,1.973-1.9024.6376,1.4213,1.9783,1.3201,3.1997,1.4774Z"/>
  <path class="cls-9" d="M37.0815,55.616c-1.1294.148-1.6327.874-1.973,1.9024-.2375.7176-.7481,1.3448-1.1361,2.0138-.514-.0745-1.0286-.1502-1.5447-.2267.5731-1.6278,1.1479-3.2546,1.7205-4.8819,1.0986-.4308,2.199-.8613,3.2995-1.2919-.1221.8281-.2441,1.6561-.3661,2.4842Z"/>
  <path class="cls-1" d="M62.4782,76.8982c-.5944-.0035-1.2463.1422-1.7651-.0576-.4229-.1628-.7681-.7021-.9732-1.1538-.0653-.1438.3893-.7248.6759-.7878.7685-.1689,1.5747-.166,2.3637-.2303-.1019.7439-.2016,1.4867-.3013,2.2295Z"/>
  <path class="cls-4" d="M4.8318,70.4198c.7834.0478,1.5666.0955,2.3492.1424-.2274,1.3803-1.3308,1.5319-2.4106,1.7191.0203-.6192.0408-1.2403.0614-1.8615Z"/>
  <path class="cls-4" d="M6.1032,77.7682c-.4769.0309-.9537.0619-1.4306.0916.4768-.0314.9537-.0615,1.4306-.0916Z"/>
  <path class="cls-9" d="M30.1494,20.2993c-.3771.7805-.7543,1.561-1.1287,2.3389-.2349-1.0768-.0255-1.9354,1.1287-2.3389Z"/>
  <path class="cls-9" d="M34.3981,17.8535c-.7822.9233-1.7348,1.4071-2.9738,1.1532.6065-1.3761,1.7599-1.3427,2.9738-1.1532Z"/>
  <path class="cls-9" d="M31.3821,19.0343c-.4032.4088-.8064.8176-1.2098,1.2263.4032-.4088.8065-.8176,1.2098-1.2263Z"/>
  <path class="cls-8" d="M16.0189,37.8448c2.1493,3.0129,5.4444,2.6187,8.3786,2.7784,1.9133,1.4684,3.5254,3.212,5.5189,4.094,2.0168.8924,4.4112.9318,6.669,1.3501,1.4731,1.3309.8479,3.0694.8613,4.6862-1.2234-.108-2.4475-.2154-3.6715-.3228-2.39-1.6004-4.78-3.2008-7.0154-4.6976-1.4615.3347-2.8297,1.114-3.8358.7854-2.4144-.7887-4.8292-1.0693-7.3245-1.2213-1.5289-.0932-1.8724-1.4196-2.081-2.6992.8334-1.5844,1.667-3.1688,2.5004-4.7532Z"/>
  <path class="cls-5" d="M13.5184,42.5981c.2086,1.2796.5521,2.606,2.081,2.6992,2.4953.152,4.91.4326,7.3245,1.2213,1.0061.3286,2.3742-.4507,3.8358-.7854,2.2354,1.4968,4.6255,3.0972,7.0158,4.6981-2.0879,1.1962-4.1762,2.3919-6.2637,3.5894-.1063-1.4426-1.0043-2.1848-2.2656-2.6925-2.1193-.853-4.2104-1.7761-6.7604-2.8598-2.5632.629-5.5836,1.3701-8.6041,2.1112l-.0708-.0434c.2484-3.1071,1.8558-5.5797,3.7075-7.9381Z"/>
  <path class="cls-5" d="M11.1051,58.8384c-1.5897.7343-3.1794,1.4685-4.7683,2.2061.2119-3.8134,1.4998-7.2743,3.4743-10.5084,0,0,.0707.0435.0706.0435.6238,1.7468,1.2883,3.4806,1.8524,5.2464.2403.7525.2711,1.572.3969,2.361-.3707.1724-.7126.3895-1.0259.6513Z"/>
  <path class="cls-4" d="M135.1252,33.4482c-.4817-.1135-.9636-.227-1.4459-.3396.4816.1138.9638.2267,1.4459.3396Z"/>
  <path class="cls-9" d="M145.2998,50.7766c-.0531-.9003-.1062-1.8006-.1595-2.7008,1.6942.8034,1.3301,1.7283.1595,2.7008Z"/>
  <path class="cls-13" d="M137.5063,89.6506c-1.3156-.7267-2.631-1.4532-3.9444-2.1824.1593-.1743.3184-.3439.4799-.5114,1.4005-.0345,2.801-.0691,4.5254-.1115.0813-2.9191,1.1084-5.4963-.3634-8.2772-1.265.4273-2.2161.7486-3.1674,1.07l.0154.0109c.1327-2.7269,2.1774-4.3528,3.6379-6.3152.5407,1.9756,1.0837,3.9507,1.6215,5.9271.3258,1.1973,1.3154,1.455,2.34,1.6669,1.1852,1.9296,2.4768,3.8047,3.5135,5.8115.5724,1.1077,1.35,1.4498,2.4353,1.5138-.2445,1.9608-2.4208,1.1322-3.2491,2.248-2.7428.8984-5.2193-.6637-7.8447-.8504ZM144.1208,87.9136c-1.5116-2.1983-1.2918-4.3826-3.7898-4.8847,0,1.1361-.1307,1.956.0445,2.7041.1236.5268.5804,1.0747,1.0402,1.3954.4428.3089,1.0808.338,2.7051.7851Z"/>
  <path class="cls-2" d="M148.6001,88.253c-1.0853-.064-1.8629-.4061-2.4353-1.5138-1.0367-2.0067-2.3283-3.8818-3.5135-5.8115.0551-.4276.1101-.8554.1659-1.2838,1.8651.1513,3.828.0116,5.158,1.7488.0843,1.3372.1422,2.673.2575,4.0038.0827.9555.2422,1.9046.3674,2.8565Z"/>
  <path class="cls-9" d="M95.8186,55.5688c-1.0811,1.7144-2.1621,3.4289-3.239,5.1431-.6233-.5033-1.2923-.9629-1.8686-1.5188-1.0262-.9894-1.7827-.6361-2.4651.3817-.8082.8246-1.6164,1.6511-2.4245,2.4777l-1.0984-.0965v6.7298c-.8306-.5222-1.8237-1.4864-2.2823-2.3309-1.3867.6368-2.7912,1.2818-4.1963,1.9266-2.0083.0909-4.0161.182-6.6568.3017.6279-1.1682.8865-2.0972,1.4888-2.6551.7338-.6796,1.8276-.9551,2.6353-1.5751.8094-.6212,2.2609-.6012,2.5515-2.1925-1.0737-.1135-1.8759-.1983-2.6782-.2831-1.2685-1.909-3.4641-.725-5.2216-1.5773-.1962-.939,2.0171-1.934-.0411-3.047-2.9982,1.0223-4.0326,4.3167-6.4222,6.1172-.7156-.9-1.431-1.8001-2.203-2.771,1.0587-.4939,1.7486-.8155,2.5742-1.2007.0321-2.6878-.4138-4.907-3.7929-4.9974-.2595-.2003-.5219-.3965-.7909-.5933.0594-1.4026,1.0614-2.0874,2.0784-2.7579.7242-.0681,1.456-.1333,2.1879-.1985,1.0086,1.0197,2.0173,2.0395,3.2717,3.3079,5.9875-3.341,12.1994-5.0746,18.6342-1.054-1.2534.6338-2.5352,1.217-3.7498,1.9165-1.2102.6969-1.3347,2.127-.3601,3.1488.8219.8618,1.7902,1.1046,2.717.3028.6085-.5265.9396-1.3618,1.5118-1.9439,1.2949-1.317,2.692-1.8279,4.2769-.3451.1929.1806.752-.0299,1.3894-.0779.5716-2.1697.9227-4.295-.8266-6.0381-1.2433-.1264-2.2528-.229-3.2625-.3317.161-2.0993,1.4877-3.2972,3.2285-4.1744.4435.0499.8872.0995,1.3293.1482.3632.3492.7279.6996,1.0927,1.0499-.055,2.058-.1064,4.1161-.1661,6.174-.0556,1.9175,1.3313,2.3056,2.7783,2.6345Z"/>
  <path class="cls-4" d="M27.511,54.019c2.0883-1.1957,4.1766-2.3915,6.2645-3.5877,1.2237.1068,2.4478.2142,3.6711.3222.0003.7935.0013,1.5862.0017,2.3785-1.1011.4303-2.2016.8608-3.3001,1.2916-3.4896.0445-5.0007,2.7012-6.578,5.1398-1.1165,1.7262-1.9544,3.6326-2.9231,5.4709-.8446-.2116-1.4399-.3607-2.0345-.5092-.335.1801-.8487.277-.9769.553-.705,1.5169-1.7391,1.1734-2.851.6139.0252-.7586.0509-1.518.0759-2.2788-.0008-.0014.0261-.0786.0261-.0786.3204-.42.6407-.8399.961-1.2599.8622-2.1529,1.7244-4.3058,2.5867-6.4586,1.6921-.5324,3.3843-1.0649,5.0765-1.5972Z"/>
  <path class="cls-8" d="M48.4466,44.3148c-.623.0069-1.2804.1473-1.8632-.0019-2.8032-.7178-5.5483-1.7371-8.3871-2.2192-2.8206-.4788-5.7283-.4452-8.4438-.6261-.509-1.2813-.1666-1.8627.7966-2.1459,1.7626-.5184,3.3659-1.1719,5.409-.5323,1.6538.5177,3.7554.3813,5.4441-.1482,3.6122-1.1328,6.5155-.5496,8.8927,2.422-.616,1.0841-1.2321,2.1679-1.8483,3.2517Z"/>
  <path class="cls-1" d="M87.5559,49.7366c1.0096.1026,2.0191.2053,3.2625.3317,1.7493,1.7431,1.3982,3.8684.8266,6.0381-.6373.048-1.1964.2586-1.3894.0779-1.5849-1.4828-2.982-.9719-4.2769.3451-.5722.5821-.9033,1.4174-1.5118,1.9439-.9268.8018-1.895.559-2.717-.3028-.9746-1.0218-.85-2.4519.3601-3.1488,1.2146-.6995,2.4964-1.2827,3.7498-1.9165.566-1.1227,1.131-2.2456,1.6961-3.3685Z"/>
  <path class="cls-7" d="M48.4466,44.3148c.6162-1.0838,1.2322-2.1676,1.8483-3.2517,1.4388.1964,2.8777.5588,4.3163.5573,3.5417-.0039,6.4228,1.3541,8.8361,3.8508-.2374.4383-.4706.8773-.7039,1.3161-2.7505-.0799-5.5008-.1597-8.2513-.2395-1.2072-2.2738-3.1124-2.4375-5.2986-1.7524-.2221-.2019-.4711-.3621-.7469-.4806Z"/>
  <path class="cls-14" d="M54.4921,46.5477c2.7505.0799,5.5008.1597,8.2538.2398.5933.7702,1.1842,1.5402,1.7753,2.3101-.1982.0951-.3729.2225-.5211.381-1.9998-.5273-3.8852-1.8872-6.1065-.8618-2.6745-.1528-5.3483-.3161-8.0236-.4548-1.9341-.1002-3.87-.1674-5.8255-1.1575,2.3983-.1861,4.7967-.3723,7.1966-.5574,1.0847.0343,2.1679.0674,3.2511.1006Z"/>
  <path class="cls-4" d="M64.3374,41.69c5.5189.0505,11.0391.0456,16.5552.1972,1.1421.0313,2.2683.6441,3.4002.9884-6.7185.1217-13.4329.9393-20.1523.0711.103-.369.1133-.7414.0321-1.1163,0,0,.1649-.1404.1649-.1403Z"/>
  <path class="cls-8" d="M57.8935,48.6168c2.2213-1.0254,4.1067.3345,6.1063.8618-.0167.4578-.0304.9144-.0451,1.3717-.7327.0661-1.4645.1313-2.1888.1994-1.5183-.4391-3.3333-.4202-3.8725-2.433Z"/>
  <path class="cls-8" d="M64.5211,49.0977c-.591-.7699-1.1819-1.54-1.7753-2.3101.2308-.4391.464-.8781.7014-1.3164.4047.0386.8057.0705,1.2054.1154,1.1314.1269,1.9176.6851,1.8964,1.8866-.0222,1.261-.8771,1.6732-2.0279,1.6245Z"/>
  <path class="cls-8" d="M54.4921,46.5478c-1.0831-.0333-2.1664-.0664-3.2511-.1008-.6869-.5546-1.3721-1.1082-2.0523-1.6567,2.1909-.68,4.0962-.5163,5.3034,1.7575Z"/>
  <path class="cls-8" d="M64.1726,41.8303c.0812.3749.0708.7473-.0321,1.1163-.987-.402-.9289-.7725.0321-1.1163Z"/>
  <path class="cls-1" d="M60.4784,54.401c3.3792.0904,3.8251,2.3096,3.793,4.9974-.8257.3851-1.5155.7068-2.5742,1.2007.7719.971,1.4874,1.871,2.2058,2.7697.9451,1.441,2.3592,1.4756,3.8481,1.2867.5921.611,1.1052.6368,1.5014-.2026,2.1108-.8585,4.2217-1.7171,6.3325-2.5757.8023.0848,1.6045.1696,2.6782.2831-.2907,1.5913-1.7421,1.5713-2.5515,2.1925-.8077.6199-1.9015.8955-2.6353,1.5751-.6023.5578-.8608,1.4869-1.4888,2.6551,2.6407-.1198,4.6485-.2108,6.6568-.3017.1499,1.4501-2.0023,3.0308.27,4.4459.1659.1033-.4378,1.4417-.7452,2.3974,4.1364-.1712,6.7858,4.2416,10.9314,3.4521,1.3403-4.1009,2.6739-8.1817,3.9623-12.1241,2.9214-1.1519,5.2185-3.1202,8.2545-3.2254.6741.2926,1.3478.585,2.4623,1.0684-2.5538,2.4351-5.3265,3.291-8.0991,4.4365-1.1997,2.0993-2.0219,4.3994-1.872,6.9779-.4655,2.3869.5358,5.0065-1.1064,7.3445-1.4588.1771-2.894.3513-4.3294.5255-4.5253-.1394-9.1052.234-13.4935-1.2492-.9073-.3067-1.7058-.9504-2.5356-1.4687-1.4051-.8774-1.5139.8681-2.3453,1.137-.6918-3.4553.0102-6.8517.0875-10.5943-.6698.6746-1.3395,1.3492-2.0435,2.0583-.2649-.1779-.5833-.3152-.7952-.549-.5046-.5568-.959-1.1591-1.4337-1.7431-.4682.599-.9363,1.198-1.406,1.7934-.3243-.5074-.796-.9704-.9467-1.5212-1.3213-4.836-3.5959-9.1679-6.696-13.0934-.3593-.4549-.4919-1.0888-.727-1.6337,1.7206-2.3652,2.7831-.3262,4.3748.6839.173-1.1137.3195-2.0564.466-2.999Z"/>
  <path class="cls-1" d="M87.2466,75.6596c-.6651,0-1.1021.1084-1.4522-.02-1.1063-.406-2.4498-.7358-2.1675-2.33.0705-.398.8156-.9296,1.2792-.9594,1.6519-.1062,2.9666.805,3.0748,2.1273.0346.42-.5407.8899-.7343,1.1821Z"/>
  <path class="cls-12" d="M85.8214,62.0523c.8081-.8266,1.6163-1.6531,2.4245-2.4777,1.3582,2.0412,1.4846,4.0802-.0015,6.1191-.8034-.8782-1.607-1.7567-2.4104-2.6352.0096-.3355.0054-.6709-.0125-1.0061Z"/>
  <path class="cls-9" d="M85.8339,63.0585c.8034.8785,1.607,1.757,2.4104,2.6352-.2041.5207-.4083,1.0417-.6125,1.5627-.4737-.2318-1.2784-.3807-1.361-.7103-.2823-1.1284-.3113-2.3201-.437-3.4877Z"/>
  <path class="cls-2" d="M138.6898,73.3337c-1.4605,1.9624-3.5051,3.5883-3.6379,6.3152-2.6313,1.834-1.9525,5.0607-3.155,7.4958-.4499.0008-.8999.0015-1.3545.0006-2.8243-1.7103-2.823-1.6962-6.9422-1.3179-1.2441.1143-2.4975.1269-3.7467.186-5.8047-.5401-11.6093-1.0802-17.4153-1.6196-.7605-1.1518-2.719-1.2481-2.712-3.0756,1.9738-.3872,3.9438,1.7685,6.1713-.2064-.1926-1.3406-.41-2.8536-.6921-4.8174,1.5298,1.0378,2.6701,1.8111,4.2238,2.8651-1.033-2.7015-1.8816-4.9212-2.7281-7.1412.5662-.4528,1.1302-.9054,1.6942-1.358,2.0622-.2054,2.4537,2.145,4.0525,2.6484,1.6701,2.4533,3.3403,4.9066,5.0104,7.3599q.3874,1.1212,1.1129.3085l.1366-.0329c3.3685-.4663,6.5998-1.1173,7.1853-5.3324.5748-1.5558,1.1495-3.1117,1.7242-4.6675l.0943.0351c1.2546-1.8323,2.5091-3.6645,4.0608-5.9309,2.1428-.6306,4.7037-.758,7.5945-.0809.6316,2.9488.9471,5.7028-.677,8.3661Z"/>
  <path class="cls-9" d="M115.7056,58.3045c.8632.4493,1.6905.9989,2.5986,1.3218,1.0691.3803,2.2078.5643,3.3207.8314.7076.1063,1.411.2145,2.1153.3235.3718.7066.5682,1.7107,1.1521,2.0522,1.0263.6,2.2899.7947,3.5116,1.1773-.2488,2.4926-.4723,4.73-.6941,6.968.0017.0006-.0926-.0345-.0937-.0358-.4242-.0349-.8473-.0684-1.2702-.1019-.4722-.8698-.9445-1.7397-1.4167-2.6095.0983-.485.1967-.9699.295-1.4548-.4878.0505-.9754.1009-1.4631.1514-.4118-.026-.8238-.0407-1.2375-.0427-.1391-2.1038-.3484-4.148-3.4843-3.9702.1977,2.2175,1.7492,3.1786,3.2274,4.1942.2761,2.3321.5524,4.6642.8554,7.2223-1.2954.1472-2.2768.2587-3.2583.3703l-.1374-.161c-.7621-.3778-1.5243-.7555-2.2863-1.1333l-.1831-.1695c-.4365-3.217-.4489-3.1565-3.35-3.7467-.8894-.181-1.6911-.7932-2.533-1.2079,1.9756-.5959,4.0536-1.003,5.7458-3.0967-.9717-.4033-1.6646-.6909-2.3573-.9784.5126-.9239,1.2129-1.8698-.3028-2.5576.7829-.9793,1.6862-1.9122,1.246-3.3465Z"/>
  <path class="cls-9" d="M134.0518,55.2347c.817.6829.7966,1.3268-.0889,1.9327.0303-.6428.0596-1.2877.0889-1.9327Z"/>
  <path class="cls-7" d="M93.2065,46.7603c-.3647-.3503-.7295-.7007-1.0927-1.0499q.5358-2.448,3.7419-2.9836c4.5205.4166,9.0399.8489,13.5647,1.2163.2335.0189.5123-.5185.8984-.9353-.5276-2.0299-3.2534-.3792-3.5128-1.2264-1.1745-2.2975-.5171-3.2652.564-4.1008,4.9274.6162,9.8811,1.0629,14.3615,3.555,1.2574.6993,1.7938,1.6239,1.8591,2.9582-.3964.0286-.752.163-1.0672.4056-.7568.1768-1.9083.0983-2.2085.5661-2.3711,3.6936-5.9697,4.408-9.8637,4.0708-3.3059-.2863-6.6511-.7232-9.8364-1.6066-2.4784-.6874-4.8991-.919-7.4082-.8693ZM113.2436,41.7219c-.1206.3829-.2411.7658-.3617,1.1486.6515.4173,1.2691,1.088,1.964,1.1807.6991.0934,1.475-.3878,2.2173-.6172-.4804-.5707-.8565-1.3839-1.469-1.6468-.6696-.2872-1.5578-.0653-2.3507-.0653Z"/>
  <path class="cls-10" d="M94.5132,75.7822c1.1882-3.6434,4.4458-4.2747,7.525-5.1662,1.2611.0025,2.5208.0039,3.783.007.2113.4706.4205.9397.6295,1.4087-1.8808,1.7471-4.1025,2.5532-6.6691,2.7058-.9298.0552-1.8242.711-2.734,1.0931-.7103.1128-1.4215.2252-2.1324.3376l-.4019-.3861Z"/>
  <path class="cls-10" d="M99.7262,81.3183c-.0069,1.8276,1.9515,1.9238,2.712,3.0755-3.8836.0843-7.7692.2408-11.6528.2029-.9391-.0092-1.8719-.6609-2.8102-1.0169,1.4329-.1739,2.8681-.3482,4.3269-.5253,1.6422-2.338.6409-4.9576,1.1064-7.3445.3609.1431.7292.1678,1.1052.0726-.0005-.0005.4015.3856.3995.3837-.0022,2.2143-.0022,4.4305-.0022,6.4377,2.2453,1.2264,2.9778.1975,3.3816-1.4325.4779.0489.9556.0978,1.4335.1467Z"/>
  <path class="cls-12" d="M114.7625,64.2086c.6928.2875,1.3857.5751,2.3573.9784-1.6922,2.0937-3.7702,2.5008-5.7495,3.0969-1.3373-.0245-2.671-.0493-4.0046-.0741-.1013-.3918-.1119-.7861-.032-1.1829,2.4762-.9395,4.9525-1.879,7.4287-2.8184Z"/>
  <path class="cls-9" d="M107.3338,67.027c-.08.3967-.0693.791.0313,1.1835-.0008.0006-.3541.0799-.3541.0799-.8601.0769-1.72.1539-2.9255.2617.7871.9396,1.2602,1.5044,1.7334,2.0692-1.2599-.0015-2.5196-.0029-3.7807-.0053-.3669-2.5-.0613-3.2634,1.6879-3.5245,1.1796-.176,2.4035-.0535,3.6076-.0645Z"/>
  <path class="cls-9" d="M108.5493,60.5991c.0128.4694.0258.9388.0395,1.4093-.4427.4147-.8862.8284-1.3298,1.242,0,0-.0756-.0742-.0755-.0742.4552-.859.9104-1.7181,1.3657-2.5771Z"/>
  <path class="cls-9" d="M107.2592,63.2505c-.109.1692-.2178.3384-.3266.5074.0838-.1937.1678-.3874.2513-.5814-.0005-.0003.0752.0739.0753.0739Z"/>
  <path class="cls-5" d="M117.2174,88.4395c5.9333-.3901,11.8095-.1136,17.5695,1.5067-.5041.3184-.9993.8979-1.511.9128-4.0793.1187-8.1616.1638-12.2431.1593-1.7964-.002-3.0827-.9216-3.8154-2.5788Z"/>
  <path class="cls-4" d="M100.7633,121.5736c-5.3415-.1234-10.683-.2468-16.0228-.3707.7005-.3685,1.3945-1.0442,2.0986-1.055,5.0472-.0774,10.0963-.0196,16.2592-.0015-1.4567.8904-1.8958,1.1588-2.335,1.4272Z"/>
  <path class="cls-8" d="M40.097,116.311c.9051.0286,1.8102.0573,2.7161.0868-.9462,1.2522-1.85,1.1669-2.7161-.0868Z"/>
  <path class="cls-8" d="M94.3948,129.997c-2.2281.0719-4.4611.0762-6.6833.2321-3.1094.2184-6.2102.5582-9.3162.8291-1.6646.1452-3.3448.4519-4.9964.3468-7.2918-.4638-14.4467,1.9865-21.68,1.2707-.5972-1.7403.5631-2.3079,1.4221-2.3234,13.7419-.2482,27.4457-2.6438,41.2538-.3553Z"/>
  <path class="cls-1" d="M43.8985,77.0145c-1.8472-.0123-3.7236.1658-5.5304-.1107-1.0397-.1591-1.9669-1.0545-3.2443-1.7914,2.091-3.0861,5.1892-2.8533,7.7373-4.0602,1.8323,1.9347,1.0034,4.0282,1.0413,5.9612-.0007-.0008-.0039.0012-.0039.0012Z"/>
  <path class="cls-1" d="M54.1462,65.7579c-1.1662-2.9963-3.0827-5.8285-2.2556-9.4859,3.8711,3.1435,4.3019,5.1464,2.215,9.4603.0002.0002.0406.0255.0406.0255Z"/>
  <path class="cls-3" d="M18.8615,63.4147c-.0258.7594-.0516,1.5187-.0767,2.2774-.5575,1.2383-1.1156,2.4774-1.9126,4.2464-1.4654-1.4537-2.5336-2.5134-3.6176-3.5886-1.1544.2348-2.315.4709-3.4763.7076.0516-1.8362-.5154-3.8155,1.212-5.2655.9363-.4141,1.8723-.8294,2.8084-1.2448.4128.0621.7996.1981,1.1606.4077.0301,2.8349,2.3776,1.9949,3.9021,2.4599Z"/>
  <path class="cls-13" d="M119.8535,86.0135c1.2492-.0592,2.5026-.0718,3.7467-.186,4.1192-.3783,4.1179-.3924,6.9422,1.3179-2.6512-.0044-5.3123.0835-7.9599-.0673-.9269-.0529-1.8203-.6928-2.729-1.0646Z"/>
  <path class="cls-13" d="M131.8969,87.1447c1.2026-2.4351.5237-5.6619,3.155-7.4958l-.0154-.0109c-.3166,1.4156-.7099,2.8198-.9241,4.2507-.15,1.0038-.0557,2.0441-.0705,3.0681-.1615.1675-.3206.3371-.4799.5114-.5565-.1061-1.1108-.2148-1.665-.3235Z"/>
  <path class="cls-4" d="M13.7988,60.5471c-.9361.4154-1.8721.8308-2.8084,1.2448.0364-.9825.0728-1.9636.112-2.9491.316-.2663.6579-.4834,1.0309-.6564,1.1703.3544,1.5585,1.2585,1.6656,2.3606Z"/>
  <path class="cls-7" d="M13.7988,60.5471c-.107-1.1021-.4953-2.0062-1.6656-2.3606-.1282-.7885-.1589-1.6079-.3992-2.3605-.5641-1.7658-1.2286-3.4996-1.8524-5.2464,3.0205-.7412,6.0409-1.4822,8.6041-2.1112,2.55,1.0837,4.6411,2.0068,6.7604,2.8598,1.2612.5077,2.1593,1.2499,2.2655,2.6924-1.6928.5307-3.385,1.0632-5.077,1.5955-1.044-.3619-2.0882-.7237-3.1615-1.0957-.7303,1.8499-1.151,3.4237-1.9589,4.7643-.4552.7554-1.5488,1.1261-2.3549,1.6701-.361-.2097-.7478-.3456-1.1606-.4077Z"/>
  <path class="cls-2" d="M134.0418,86.9567c.0148-1.024-.0795-2.0643.0705-3.0681.2142-1.4309.6075-2.8351.9241-4.2507.9513-.3213,1.9024-.6426,3.1674-1.07,1.4718,2.7808.4447,5.3581.3634,8.2772-1.7245.0424-3.125.077-4.5254.1115Z"/>
  <path class="cls-2" d="M144.1208,87.9136c-1.6243-.4472-2.2623-.4763-2.7051-.7851-.4598-.3206-.9166-.8686-1.0402-1.3954-.1752-.7482-.0445-1.5681-.0445-2.7041,2.498.502,2.2781,2.6863,3.7898,4.8847Z"/>
  <path class="cls-11" d="M75.5849,61.8773c-2.1108.8586-4.2217,1.7172-6.3323,2.5758-.5003.0676-1.001.135-1.5016.2025-1.4889.1889-2.903.1543-3.8481-1.2867,2.3868-1.7992,3.4212-5.0936,6.4194-6.1159,2.0582,1.1129-.1551,2.108.0411,3.047,1.7575.8523,3.9531-.3317,5.2216,1.5773Z"/>
  <path class="cls-5" d="M14.9594,60.9548c.8061-.5439,1.8997-.9147,2.3549-1.6701.8079-1.3406,1.2287-2.9144,1.9589-4.7643,1.0732.3719,2.1175.7338,3.1615,1.0957-.8625,2.1529-1.7247,4.3058-2.5859,6.4566-.32.4192-.641.8406-.962,1.2619,0,0-.0269.0773-.0261.0787-1.5237-.4635-3.8712.3764-3.9013-2.4585Z"/>
  <path class="cls-3" d="M18.8868,63.3347c.3209-.4214.642-.8427.962-1.2619-.3212.422-.6416.8419-.962,1.2619Z"/>
  <path class="cls-9" d="M67.751,64.6556c.5006-.0674,1.0013-.1349,1.5016-.2026-.3964.8394-.9095.8135-1.5016.2026Z"/>
  <path class="cls-9" d="M99.7262,81.3183c-.4779-.0489-.9556-.0978-1.4326-.1495-.0659-.4983-.1329-.994-.1999-1.4895.2984-1.4116.6438-2.8354-.9629-3.7592,0,0-.084-.0897-.084-.0898.9105-.3817,1.8049-1.0376,2.7347-1.0927,2.5666-.1526,4.7883-.9587,6.6643-2.7055-.0048.0003.2528-.0134.2528-.0134.8488,2.2197,1.6975,4.4394,2.7304,7.1409-1.5538-1.054-2.694-1.8273-4.2238-2.8651.2822,1.9638.4995,3.4768.6921,4.8174-2.2275,1.9749-4.1976-.1808-6.1713.2064Z"/>
  <path class="cls-10" d="M119.8638,74.7021c.9816-.1116,1.963-.2231,3.2583-.3703-.303-2.5581-.5793-4.8902-.8554-7.2223l.2581-.2252c.4124.0032.8244.0179,1.2352.0444.389.4346.779.8687,1.1693,1.3029.4722.8698.9445,1.7397,1.4153,2.6091-.6975,1.5386-2.504,2.9729-.4515,4.7711-.5855,4.2151-3.8168,4.8661-7.1861,5.3318.3853-2.0809.771-4.1612,1.1569-6.2415Z"/>
  <path class="cls-13" d="M119.8638,74.7021c-.3859,2.0803-.7716,4.1606-1.1569,6.2415.0008.0006-.1358.0336-.1355.0335-.3706-.1038-.7418-.2066-1.1132-.3084-1.6701-2.4533-3.3403-4.9066-5.012-7.36.6816-2.5086.8014-2.6055,2.3847-1.6781.8358.4895,1.6192,1.0689,2.4262,1.6077,0,0,.1831.1695.1823.1693.7619.3776,1.5246.7556,2.2871,1.1335l.1374.161Z"/>
  <path class="cls-10" d="M117.2571,73.2383c-.807-.5388-1.5903-1.1182-2.4262-1.6077-1.5832-.9274-1.703-.8305-2.3847,1.6781-1.5973-.5033-1.9887-2.8537-4.0509-2.6477-.4614-.7899-.9227-1.5802-1.3843-2.3706,0,0,.3533-.0792.3541-.0799,1.3343.0242,2.6679.049,4.0052.0735.8456.4144,1.6473,1.0266,2.5367,1.2075,2.9011.5902,2.9135.5297,3.35,3.7467Z"/>
  <path class="cls-11" d="M107.011,68.2904c.4615.7904.9229,1.5808,1.3843,2.3706-.564.452-1.128.9046-1.6942,1.3574-.0023.0002-.2599.014-.2552.0137-.2042-.4693-.4134-.9384-.6247-1.409-.4756-.5665-.9487-1.1314-1.7357-2.0709,1.2055-.1079,2.0654-.1848,2.9255-.2617Z"/>
  <path class="cls-11" d="M125.893,75.6118c-2.0525-1.7982-.246-3.2325.4515-4.7711.4243.0339.8474.0674,1.2716.1022-.5736,1.5572-1.1483,3.113-1.7231,4.6688Z"/>
  <path class="cls-10" d="M117.4582,80.6687c.3714.1019.7426.2046,1.1132.3084q-.7258.8128-1.1132-.3084Z"/>
  <path class="cls-10" d="M122.2667,67.1095c-1.4783-1.0156-3.0297-1.9767-3.2274-4.1942,3.1359-.1778,3.3452,1.8664,3.4843,3.9702.0012-.0012-.2568.224-.2568.224Z"/>
  <path class="cls-11" d="M124.9292,68.2317c-.3902-.4342-.7803-.8683-1.1693-1.3029.4888-.0509.9765-.1014,1.4642-.1519-.0983.4849-.1967.9698-.295,1.4548Z"/>
  <path class="cls-10" d="M119.7265,74.5411c-.7625-.378-1.5252-.7559-2.2871-1.1335.7628.378,1.525.7557,2.2871,1.1335Z"/>
  <path class="cls-14" d="M113.2436,41.7219c.7929,0,1.6811-.2219,2.3507.0653.6125.2628.9887,1.0761,1.469,1.6468-.7423.2294-1.5183.7107-2.2173.6172-.6949-.0927-1.3125-.7634-1.964-1.1807.1206-.3828.2411-.7657.3617-1.1486Z"/>
  <path class="cls-2" d="M98.0937,79.6793c.067.4955.134.9912.1999,1.4895-.4047,1.6327-1.1373,2.6617-3.3826,1.4353,0-2.0072,0-4.2234.0022-6.4377.713-.1105,1.4241-.2229,2.1344-.3357-.0008-.0004.0832.0894.0827.0885-.0417,1.3457-.2212,2.7275.9633,3.7601Z"/>
  <path class="cls-10" d="M98.0937,79.6793c-1.1845-1.0325-1.005-2.4144-.9633-3.7601,1.6072.9247,1.2617,2.3484.9633,3.7601Z"/>
</svg>